<svg width="230" height="22" viewBox="0 0 230 22" fill="none" xmlns="http://www.w3.org/2000/svg">
<path d="M6.05469 20.2695H0.449219C1.08724 19.9323 1.48828 19.3809 1.65234 18.6152C1.72526 18.278 1.76172 17.5716 1.76172 16.4961V4.58789C1.76172 3.50326 1.72526 2.79232 1.65234 2.45508C1.48828 1.69857 1.08724 1.15169 0.449219 0.814453H6.05469C5.41667 1.15169 5.01562 1.69857 4.85156 2.45508C4.76953 2.79232 4.72852 3.50326 4.72852 4.58789V16.4961C4.72852 17.5716 4.76953 18.278 4.85156 18.6152C5.01562 19.3809 5.41667 19.9323 6.05469 20.2695ZM22.584 16.3457L21.0254 20.2695H8.95312C9.59115 19.9323 9.99219 19.3809 10.1562 18.6152C10.2292 18.278 10.2656 17.5716 10.2656 16.4961V4.58789C10.2656 3.50326 10.2292 2.79232 10.1562 2.45508C9.99219 1.69857 9.59115 1.15169 8.95312 0.814453H14.5586C13.9206 1.15169 13.5195 1.69857 13.3555 2.45508C13.2734 2.79232 13.2324 3.50326 13.2324 4.58789V17.8633C14.6178 18.0638 15.944 18.1641 17.2109 18.1641C18.2773 18.1641 19.1979 18.0365 19.9727 17.7812C20.7474 17.5169 21.6178 17.0384 22.584 16.3457ZM45.7578 10.4121C45.7578 13.3105 44.696 15.7578 42.5723 17.7539C40.4577 19.75 37.8783 20.748 34.834 20.748C31.8353 20.748 29.2878 19.7682 27.1914 17.8086C25.1042 15.849 24.0605 13.4564 24.0605 10.6309C24.0605 7.70508 25.127 5.25326 27.2598 3.27539C29.4017 1.29753 32.0586 0.308594 35.2305 0.308594C38.2565 0.308594 40.7676 1.2793 42.7637 3.2207C43.6934 4.11393 44.4225 5.20768 44.9512 6.50195C45.4889 7.78711 45.7578 9.09049 45.7578 10.4121ZM42.3945 10.8633C42.3945 8.58464 41.7246 6.63411 40.3848 5.01172C38.9629 3.28906 37.1035 2.42773 34.8066 2.42773C32.6465 2.42773 30.8691 3.14323 29.4746 4.57422C28.0892 6.00521 27.3965 7.86003 27.3965 10.1387C27.3965 12.5632 28.1895 14.6504 29.7754 16.4004C31.097 17.877 32.8242 18.6152 34.957 18.6152C37.1719 18.6152 38.9629 17.9043 40.3301 16.4824C41.7064 15.0514 42.3945 13.1784 42.3945 10.8633ZM65.0762 0.814453L57.1875 21.1309C55.8385 20.2559 54.9681 19.5859 54.5762 19.1211C54.2389 18.7109 53.8379 17.8815 53.373 16.6328L49.3672 5.81836C48.6471 3.84049 48.1777 2.63737 47.959 2.20898C47.7402 1.7806 47.3529 1.31576 46.7969 0.814453H51.1035C51.0853 0.905599 51.0762 1.01497 51.0762 1.14258C51.0762 1.53451 51.2995 2.33659 51.7461 3.54883L56.5996 16.7695L60.7695 5.81836C61.362 4.23242 61.6582 3.125 61.6582 2.49609C61.6582 1.66667 61.3073 1.10612 60.6055 0.814453H65.0762ZM80.416 16.4004L79.0488 20.2695H66.7305C67.3685 19.9323 67.7695 19.3809 67.9336 18.6152C68.0065 18.2598 68.043 17.5397 68.043 16.4551V4.58789C68.043 3.52148 68.0065 2.81055 67.9336 2.45508C67.7695 1.69857 67.3685 1.15169 66.7305 0.814453H76.5605C76.9889 0.814453 77.3626 0.755208 77.6816 0.636719V4.08203C77.153 3.58073 76.6016 3.25716 76.0273 3.11133C75.599 2.97461 74.9473 2.90625 74.0723 2.90625C72.8327 2.90625 71.8118 2.97461 71.0098 3.11133V8.62109H74.9609C75.3529 8.62109 75.6901 8.55729 75.9727 8.42969V11.5605C75.5625 11.0228 74.7878 10.7539 73.6484 10.7539H71.0098V17.7812C72.2676 17.9818 73.4844 18.082 74.6602 18.082C77.0117 18.082 78.9303 17.5215 80.416 16.4004ZM98.8184 0.814453L90.9297 21.1309C89.5807 20.2559 88.7103 19.5859 88.3184 19.1211C87.9811 18.7109 87.5801 17.8815 87.1152 16.6328L83.1094 5.81836C82.3893 3.84049 81.9199 2.63737 81.7012 2.20898C81.4824 1.7806 81.0951 1.31576 80.5391 0.814453H84.8457C84.8275 0.905599 84.8184 1.01497 84.8184 1.14258C84.8184 1.53451 85.0417 2.33659 85.4883 3.54883L90.3418 16.7695L94.5117 5.81836C95.1042 4.23242 95.4004 3.125 95.4004 2.49609C95.4004 1.66667 95.0495 1.10612 94.3477 0.814453H98.8184ZM106.078 20.2695H100.473C101.111 19.9323 101.512 19.3809 101.676 18.6152C101.749 18.278 101.785 17.5716 101.785 16.4961V4.58789C101.785 3.50326 101.749 2.79232 101.676 2.45508C101.512 1.69857 101.111 1.15169 100.473 0.814453H106.078C105.44 1.15169 105.039 1.69857 104.875 2.45508C104.793 2.79232 104.752 3.50326 104.752 4.58789V16.4961C104.752 17.5716 104.793 18.278 104.875 18.6152C105.039 19.3809 105.44 19.9323 106.078 20.2695ZM128.473 0.814453C127.835 1.22461 127.411 1.65755 127.201 2.11328C127.001 2.56901 126.9 3.29362 126.9 4.28711V21.2266C125.46 20.7526 124.107 19.7135 122.84 18.1094L112.477 4.98438V16.7969C112.477 17.7721 112.581 18.4967 112.791 18.9707C113.01 19.4447 113.42 19.8776 114.021 20.2695H108.758C109.396 19.8594 109.815 19.4264 110.016 18.9707C110.225 18.515 110.33 17.7904 110.33 16.7969V4.28711C110.33 3.31185 110.221 2.58724 110.002 2.11328C109.792 1.63932 109.387 1.20638 108.785 0.814453H113.092C113.137 0.923828 113.374 1.28841 113.803 1.9082L124.74 15.8398V4.28711C124.74 3.31185 124.631 2.5918 124.412 2.12695C124.202 1.66211 123.792 1.22461 123.182 0.814453H128.473ZM149.855 19.873C149.628 19.8913 149.281 19.9505 148.816 20.0508C146.538 20.5156 144.523 20.748 142.773 20.748C139.602 20.748 136.995 20.0553 134.953 18.6699C132.118 16.7467 130.701 14.0807 130.701 10.6719C130.701 7.21745 132.214 4.4694 135.24 2.42773C137.327 1.0332 139.884 0.335938 142.91 0.335938C144.35 0.335938 145.909 0.504557 147.586 0.841797V4.21875C146.301 3.04297 144.555 2.45508 142.35 2.45508C139.925 2.45508 137.938 3.1888 136.389 4.65625C134.839 6.1237 134.064 7.99674 134.064 10.2754C134.064 12.5905 134.903 14.5592 136.58 16.1816C138.257 17.804 140.281 18.6152 142.65 18.6152C144.337 18.6152 145.69 18.4284 146.711 18.0547V14.1309C146.711 13.0553 146.674 12.349 146.602 12.0117C146.438 11.2461 146.036 10.6947 145.398 10.3574H149.855C149.746 10.7129 149.691 11.2917 149.691 12.0938V18.3691C149.691 19.0345 149.746 19.5358 149.855 19.873ZM170.719 20.2695C169.26 20.3789 168.354 20.4336 167.998 20.4336C167.16 20.4336 166.435 20.2376 165.824 19.8457C165.223 19.4538 164.425 18.6699 163.432 17.4941C161.554 15.252 159.831 12.8001 158.264 10.1387C161.545 9.57357 163.186 8.16081 163.186 5.90039C163.186 4.93424 162.853 4.15039 162.188 3.54883C161.531 2.93815 160.67 2.63281 159.604 2.63281C159.02 2.63281 158.327 2.70573 157.525 2.85156V16.4961C157.525 17.5716 157.566 18.278 157.648 18.6152C157.812 19.3809 158.214 19.9323 158.852 20.2695H153.246C153.884 19.9323 154.285 19.3809 154.449 18.6152C154.522 18.278 154.559 17.5716 154.559 16.4961V4.58789C154.559 3.50326 154.522 2.79232 154.449 2.45508C154.285 1.69857 153.884 1.15169 153.246 0.814453H157.525C157.826 0.814453 158.264 0.805339 158.838 0.787109C159.421 0.76888 159.863 0.759766 160.164 0.759766C162.051 0.759766 163.505 1.14258 164.525 1.9082C165.838 2.87435 166.494 4.13216 166.494 5.68164C166.494 6.82096 166.043 7.86458 165.141 8.8125C164.247 9.7513 163.099 10.3984 161.695 10.7539C163.901 13.7161 165.66 15.89 166.973 17.2754C168.294 18.6517 169.543 19.6497 170.719 20.2695ZM192.32 10.4121C192.32 13.3105 191.258 15.7578 189.135 17.7539C187.02 19.75 184.441 20.748 181.396 20.748C178.398 20.748 175.85 19.7682 173.754 17.8086C171.667 15.849 170.623 13.4564 170.623 10.6309C170.623 7.70508 171.689 5.25326 173.822 3.27539C175.964 1.29753 178.621 0.308594 181.793 0.308594C184.819 0.308594 187.33 1.2793 189.326 3.2207C190.256 4.11393 190.985 5.20768 191.514 6.50195C192.051 7.78711 192.32 9.09049 192.32 10.4121ZM188.957 10.8633C188.957 8.58464 188.287 6.63411 186.947 5.01172C185.525 3.28906 183.666 2.42773 181.369 2.42773C179.209 2.42773 177.432 3.14323 176.037 4.57422C174.652 6.00521 173.959 7.86003 173.959 10.1387C173.959 12.5632 174.752 14.6504 176.338 16.4004C177.66 17.877 179.387 18.6152 181.52 18.6152C183.734 18.6152 185.525 17.9043 186.893 16.4824C188.269 15.0514 188.957 13.1784 188.957 10.8633ZM213.088 20.2695H208.918V18.2188C207.514 19.9049 205.564 20.748 203.066 20.748C201.517 20.748 200.163 20.4017 199.006 19.709C197.721 18.9434 196.873 17.8724 196.463 16.4961C196.271 15.8216 196.176 14.7188 196.176 13.1875V4.58789C196.176 3.50326 196.139 2.79232 196.066 2.45508C195.902 1.69857 195.501 1.15169 194.863 0.814453H200.469C199.831 1.16992 199.43 1.7168 199.266 2.45508C199.184 2.81055 199.143 3.52148 199.143 4.58789V13.1875C199.143 14.8828 199.489 16.1406 200.182 16.9609C201.093 18.0456 202.346 18.5879 203.941 18.5879C205.819 18.5879 207.255 17.8906 208.248 16.4961C208.622 15.931 208.809 15.1654 208.809 14.1992V4.58789C208.809 3.52148 208.772 2.81055 208.699 2.45508C208.526 1.7168 208.125 1.16992 207.496 0.814453H213.088C212.459 1.16992 212.058 1.7168 211.885 2.45508C211.812 2.81055 211.775 3.52148 211.775 4.58789V16.4961C211.775 17.5534 211.812 18.2598 211.885 18.6152C212.058 19.3626 212.459 19.9141 213.088 20.2695ZM229.945 5.95508C229.945 7.48633 229.303 8.79427 228.018 9.87891C226.742 10.9635 225.21 11.5059 223.424 11.5059C222.676 11.5059 221.965 11.3737 221.291 11.1094C222.95 10.9089 224.221 10.4349 225.105 9.6875C226.126 8.8125 226.637 7.75521 226.637 6.51562C226.637 5.38542 226.254 4.49219 225.488 3.83594C224.723 3.17969 223.67 2.85156 222.33 2.85156C221.692 2.85156 221.008 2.92904 220.279 3.08398V16.7969C220.279 17.7721 220.384 18.5013 220.594 18.9844C220.812 19.4674 221.223 19.8958 221.824 20.2695H216C216.638 19.9323 217.039 19.3809 217.203 18.6152C217.276 18.278 217.312 17.5716 217.312 16.4961V4.58789C217.312 3.50326 217.276 2.79232 217.203 2.45508C217.039 1.69857 216.638 1.15169 216 0.814453H218.83C218.994 0.814453 219.359 0.805339 219.924 0.787109C220.462 0.787109 221.2 0.787109 222.139 0.787109H223.055C224.641 0.787109 225.939 1.02865 226.951 1.51172C227.863 1.95833 228.587 2.58268 229.125 3.38477C229.672 4.18685 229.945 5.04362 229.945 5.95508Z" fill="#C11D2A"/>
<path d="M6.05469 20.2695V20.7695L6.28834 19.8275L6.05469 20.2695ZM0.449219 20.2695L0.215565 19.8275L0.449219 20.7695V20.2695ZM1.65234 18.6152L1.16364 18.5096L1.16344 18.5105L1.65234 18.6152ZM1.65234 2.45508L2.14105 2.34941L2.14099 2.34911L1.65234 2.45508ZM0.449219 0.814453V0.314453L0.215565 1.2565L0.449219 0.814453ZM6.05469 0.814453L6.28834 1.2565L6.05469 0.314453V0.814453ZM4.85156 2.45508L5.33755 2.57329L5.3402 2.56105L4.85156 2.45508ZM4.85156 18.6152L5.34065 18.5104L5.3374 18.4971L4.85156 18.6152ZM6.05469 19.7695H0.449219V20.7695H6.05469V19.7695ZM0.682872 20.7116C1.46381 20.2988 1.94918 19.6163 2.14124 18.72L1.16344 18.5105C1.02738 19.1454 0.710674 19.5658 0.215565 19.8275L0.682872 20.7116ZM2.14105 18.7209C2.22725 18.3222 2.26172 17.5609 2.26172 16.4961H1.26172C1.26172 17.5823 1.22327 18.2338 1.16364 18.5096L2.14105 18.7209ZM2.26172 16.4961V4.58789H1.26172V16.4961H2.26172ZM2.26172 4.58789C2.26172 3.51431 2.22727 2.7482 2.14105 2.34941L1.16364 2.56074C1.22325 2.83644 1.26172 3.4922 1.26172 4.58789H2.26172ZM2.14099 2.34911C1.94825 1.46037 1.46172 0.78408 0.682872 0.372406L0.215565 1.2565C0.712763 1.51931 1.02832 1.93677 1.1637 2.56105L2.14099 2.34911ZM0.449219 1.31445H6.05469V0.314453H0.449219V1.31445ZM5.82103 0.372406C5.04219 0.78408 4.55566 1.46037 4.36292 2.34911L5.3402 2.56105C5.47559 1.93677 5.79114 1.51931 6.28834 1.2565L5.82103 0.372406ZM4.36573 2.3369C4.26702 2.74269 4.22852 3.51548 4.22852 4.58789H5.22852C5.22852 3.49104 5.27204 2.84194 5.3374 2.57325L4.36573 2.3369ZM4.22852 4.58789V16.4961H5.22852V4.58789H4.22852ZM4.22852 16.4961C4.22852 17.5598 4.26705 18.3277 4.36573 18.7334L5.3374 18.4971C5.27201 18.2283 5.22852 17.5835 5.22852 16.4961H4.22852ZM4.36266 18.72C4.55473 19.6163 5.0401 20.2988 5.82103 20.7116L6.28834 19.8275C5.79323 19.5658 5.47652 19.1454 5.34046 18.5105L4.36266 18.72ZM22.584 16.3457L23.0487 16.5303L23.6779 14.9461L22.2926 15.9394L22.584 16.3457ZM21.0254 20.2695V20.7695H21.3648L21.4901 20.4541L21.0254 20.2695ZM8.95312 20.2695L8.71947 19.8275L8.95312 20.7695V20.2695ZM10.1562 18.6152L9.66754 18.5096L9.66735 18.5105L10.1562 18.6152ZM10.1562 2.45508L10.645 2.34941L10.6449 2.34911L10.1562 2.45508ZM8.95312 0.814453V0.314453L8.71947 1.2565L8.95312 0.814453ZM14.5586 0.814453L14.7922 1.2565L14.5586 0.314453V0.814453ZM13.3555 2.45508L13.8415 2.57329L13.8441 2.56105L13.3555 2.45508ZM13.2324 17.8633H12.7324V18.2961L13.1608 18.3581L13.2324 17.8633ZM19.9727 17.7812L20.1291 18.2562L20.1341 18.2545L19.9727 17.7812ZM22.1193 16.1611L20.5607 20.085L21.4901 20.4541L23.0487 16.5303L22.1193 16.1611ZM21.0254 19.7695H8.95312V20.7695H21.0254V19.7695ZM9.18678 20.7116C9.96771 20.2988 10.4531 19.6163 10.6452 18.72L9.66735 18.5105C9.53129 19.1454 9.21458 19.5658 8.71947 19.8275L9.18678 20.7116ZM10.645 18.7209C10.7312 18.3222 10.7656 17.5609 10.7656 16.4961H9.76562C9.76562 17.5823 9.72717 18.2338 9.66754 18.5096L10.645 18.7209ZM10.7656 16.4961V4.58789H9.76562V16.4961H10.7656ZM10.7656 4.58789C10.7656 3.51431 10.7312 2.7482 10.645 2.34941L9.66754 2.56074C9.72715 2.83644 9.76562 3.4922 9.76562 4.58789H10.7656ZM10.6449 2.34911C10.4522 1.46037 9.96562 0.78408 9.18678 0.372406L8.71947 1.2565C9.21667 1.51931 9.53222 1.93677 9.66761 2.56105L10.6449 2.34911ZM8.95312 1.31445H14.5586V0.314453H8.95312V1.31445ZM14.3249 0.372406C13.5461 0.78408 13.0596 1.46037 12.8668 2.34911L13.8441 2.56105C13.9795 1.93677 14.295 1.51931 14.7922 1.2565L14.3249 0.372406ZM12.8696 2.3369C12.7709 2.74269 12.7324 3.51548 12.7324 4.58789H13.7324C13.7324 3.49104 13.7759 2.84194 13.8413 2.57325L12.8696 2.3369ZM12.7324 4.58789V17.8633H13.7324V4.58789H12.7324ZM13.1608 18.3581C14.5675 18.5617 15.9177 18.6641 17.2109 18.6641V17.6641C15.9703 17.6641 14.6682 17.5659 13.304 17.3684L13.1608 18.3581ZM17.2109 18.6641C18.3151 18.6641 19.2911 18.5322 20.1291 18.2561L19.8162 17.3064C19.1048 17.5407 18.2396 17.6641 17.2109 17.6641V18.6641ZM20.1341 18.2545C20.9709 17.969 21.8857 17.4616 22.8753 16.7521L22.2926 15.9394C21.35 16.6152 20.5238 17.0649 19.8112 17.308L20.1341 18.2545ZM42.5723 17.7539L42.2298 17.3896L42.229 17.3903L42.5723 17.7539ZM27.1914 17.8086L26.8492 18.1731L26.85 18.1739L27.1914 17.8086ZM27.2598 3.27539L26.9206 2.90805L26.9198 2.90877L27.2598 3.27539ZM42.7637 3.2207L42.4151 3.57914L42.4173 3.58126L42.7637 3.2207ZM44.9512 6.50195L44.4883 6.69102L44.4899 6.69496L44.9512 6.50195ZM40.3848 5.01172L39.9992 5.33L39.9992 5.3301L40.3848 5.01172ZM29.4746 4.57422L29.1165 4.22525L29.1154 4.22643L29.4746 4.57422ZM29.7754 16.4004L30.148 16.0669L30.1459 16.0646L29.7754 16.4004ZM40.3301 16.4824L39.9697 16.1358L39.9697 16.1359L40.3301 16.4824ZM45.2578 10.4121C45.2578 13.1717 44.2536 15.4874 42.2298 17.3896L42.9147 18.1182C45.1383 16.0282 46.2578 13.4494 46.2578 10.4121H45.2578ZM42.229 17.3903C40.212 19.2944 37.7572 20.248 34.834 20.248V21.248C37.9993 21.248 40.7034 20.2056 42.9155 18.1175L42.229 17.3903ZM34.834 20.248C31.9558 20.248 29.5321 19.3122 27.5328 17.4433L26.85 18.1739C29.0434 20.2243 31.7148 21.248 34.834 21.248V20.248ZM27.5336 17.4441C25.5456 15.5775 24.5605 13.3162 24.5605 10.6309H23.5605C23.5605 13.5965 24.6628 16.1204 26.8492 18.1731L27.5336 17.4441ZM24.5605 10.6309C24.5605 7.8433 25.5696 5.52463 27.5998 3.64201L26.9198 2.90877C24.6843 4.98188 23.5605 7.56686 23.5605 10.6309H24.5605ZM27.599 3.64273C29.64 1.75799 32.1723 0.808594 35.2305 0.808594V-0.191406C31.9449 -0.191406 29.1633 0.83706 26.9206 2.90805L27.599 3.64273ZM35.2305 0.808594C38.1387 0.808594 40.5208 1.7368 42.4151 3.57913L43.1123 2.86227C41.0143 0.821795 38.3743 -0.191406 35.2305 -0.191406V0.808594ZM42.4173 3.58126C43.2924 4.42212 43.9838 5.45589 44.4883 6.69102L45.414 6.31289C44.8612 4.95947 44.0943 3.80575 43.1101 2.86015L42.4173 3.58126ZM44.4899 6.69496C45.0035 7.92234 45.2578 9.16031 45.2578 10.4121H46.2578C46.2578 9.02068 45.9744 7.65187 45.4124 6.30895L44.4899 6.69496ZM42.8945 10.8633C42.8945 8.47877 42.1905 6.413 40.7703 4.69333L39.9992 5.3301C41.2588 6.85523 41.8945 8.6905 41.8945 10.8633H42.8945ZM40.7704 4.69344C39.2505 2.85199 37.2478 1.92773 34.8066 1.92773V2.92773C36.9592 2.92773 38.6753 3.72613 39.9992 5.33L40.7704 4.69344ZM34.8066 1.92773C32.5238 1.92773 30.6133 2.68934 29.1165 4.22526L29.8327 4.92318C31.125 3.59711 32.7692 2.92773 34.8066 2.92773V1.92773ZM29.1154 4.22643C27.6265 5.76426 26.8965 7.75043 26.8965 10.1387H27.8965C27.8965 7.96963 28.5519 6.24616 29.8338 4.92201L29.1154 4.22643ZM26.8965 10.1387C26.8965 12.6836 27.7332 14.8915 29.4049 16.7362L30.1459 16.0646C28.6457 14.4093 27.8965 12.4427 27.8965 10.1387H26.8965ZM29.4028 16.7339C30.8271 18.3252 32.6942 19.1152 34.957 19.1152V18.1152C32.9542 18.1152 31.3669 17.4287 30.148 16.0669L29.4028 16.7339ZM34.957 19.1152C37.2895 19.1152 39.217 18.3614 40.6905 16.829L39.9697 16.1359C38.7088 17.4472 37.0542 18.1152 34.957 18.1152V19.1152ZM40.6905 16.829C42.1711 15.2895 42.8945 13.2846 42.8945 10.8633H41.8945C41.8945 13.0722 41.2416 14.8134 39.9697 16.1358L40.6905 16.829ZM65.0762 0.814453L65.5423 0.995434L65.8067 0.314453H65.0762V0.814453ZM57.1875 21.1309L56.9154 21.5503L57.4311 21.8848L57.6536 21.3118L57.1875 21.1309ZM54.5762 19.1211L54.1899 19.4387L54.1939 19.4434L54.5762 19.1211ZM53.373 16.6328L52.9042 16.8065L52.9045 16.8072L53.373 16.6328ZM49.3672 5.81836L48.8973 5.98941L48.8983 5.99204L49.3672 5.81836ZM46.7969 0.814453V0.314453H45.4957L46.4621 1.1858L46.7969 0.814453ZM51.1035 0.814453L51.5938 0.912511L51.7134 0.314453H51.1035V0.814453ZM51.7461 3.54883L52.2155 3.37652L52.2153 3.37598L51.7461 3.54883ZM56.5996 16.7695L56.1302 16.9418L56.5911 18.1971L57.0669 16.9475L56.5996 16.7695ZM60.7695 5.81836L61.2368 5.99629L61.2379 5.99333L60.7695 5.81836ZM60.6055 0.814453V0.314453L60.4136 1.27617L60.6055 0.814453ZM64.6101 0.633472L56.7214 20.9499L57.6536 21.3118L65.5423 0.995434L64.6101 0.633472ZM57.4596 20.7114C56.1056 19.8331 55.2961 19.1993 54.9584 18.7988L54.1939 19.4434C54.6401 19.9726 55.5715 20.6786 56.9154 21.5503L57.4596 20.7114ZM54.9624 18.8035C54.6846 18.4656 54.3077 17.7104 53.8416 16.4584L52.9045 16.8072C53.3681 18.0526 53.7933 18.9562 54.19 19.4386L54.9624 18.8035ZM53.8419 16.4591L49.8361 5.64468L48.8983 5.99204L52.9042 16.8065L53.8419 16.4591ZM49.837 5.64731C49.1216 3.68204 48.6404 2.44401 48.4043 1.9816L47.5137 2.43637C47.7151 2.83073 48.1727 3.99895 48.8974 5.9894L49.837 5.64731ZM48.4043 1.9816C48.1468 1.4773 47.7106 0.965057 47.1317 0.443109L46.4621 1.1858C46.9951 1.66645 47.3337 2.0839 47.5137 2.43637L48.4043 1.9816ZM46.7969 1.31445H51.1035V0.314453H46.7969V1.31445ZM50.6132 0.716395C50.5867 0.849244 50.5762 0.993288 50.5762 1.14258H51.5762C51.5762 1.03666 51.5839 0.961954 51.5938 0.912511L50.6132 0.716395ZM50.5762 1.14258C50.5762 1.41096 50.6486 1.76503 50.762 2.17219C50.8787 2.59136 51.0512 3.10893 51.2769 3.72168L52.2153 3.37598C51.9944 2.77648 51.8319 2.28689 51.7253 1.90398C51.6154 1.50905 51.5762 1.26612 51.5762 1.14258H50.5762ZM51.2767 3.72114L56.1302 16.9418L57.069 16.5972L52.2155 3.37652L51.2767 3.72114ZM57.0669 16.9475L61.2368 5.99628L60.3023 5.64043L56.1323 16.5916L57.0669 16.9475ZM61.2379 5.99333C61.8272 4.41578 62.1582 3.22786 62.1582 2.49609H61.1582C61.1582 3.02214 60.8967 4.04907 60.3011 5.64339L61.2379 5.99333ZM62.1582 2.49609C62.1582 2.01126 62.0553 1.56607 61.8188 1.1883C61.5804 0.807405 61.2293 0.532236 60.7974 0.352737L60.4136 1.27617C60.6835 1.38834 60.8588 1.53927 60.9712 1.71892C61.0856 1.9017 61.1582 2.1515 61.1582 2.49609H62.1582ZM60.6055 1.31445H65.0762V0.314453H60.6055V1.31445ZM80.416 16.4004L80.8874 16.567L81.4409 15.0006L80.1148 16.0013L80.416 16.4004ZM79.0488 20.2695V20.7695H79.4024L79.5203 20.4361L79.0488 20.2695ZM66.7305 20.2695L66.4968 19.8275L66.7305 20.7695V20.2695ZM67.9336 18.6152L68.4225 18.72L68.4234 18.7157L67.9336 18.6152ZM67.9336 2.45508L68.4234 2.3546L68.4222 2.34911L67.9336 2.45508ZM66.7305 0.814453V0.314453L66.4968 1.2565L66.7305 0.814453ZM77.6816 0.636719H78.1816V-0.0823714L77.5075 0.168006L77.6816 0.636719ZM77.6816 4.08203L77.3376 4.44484L78.1816 5.24523V4.08203H77.6816ZM76.0273 3.11133L75.8753 3.58766L75.8897 3.59224L75.9043 3.59594L76.0273 3.11133ZM71.0098 3.11133L70.9258 2.61844L70.5098 2.68934V3.11133H71.0098ZM71.0098 8.62109H70.5098V9.12109H71.0098V8.62109ZM75.9727 8.42969H76.4727V7.65526L75.7669 7.974L75.9727 8.42969ZM75.9727 11.5605L75.5751 11.8638L76.4727 13.0406V11.5605H75.9727ZM71.0098 10.7539V10.2539H70.5098V10.7539H71.0098ZM71.0098 17.7812H70.5098V18.2079L70.931 18.275L71.0098 17.7812ZM79.9446 16.2338L78.5774 20.1029L79.5203 20.4361L80.8874 16.567L79.9446 16.2338ZM79.0488 19.7695H66.7305V20.7695H79.0488V19.7695ZM66.9641 20.7116C67.7451 20.2988 68.2304 19.6163 68.4225 18.72L67.4447 18.5105C67.3086 19.1454 66.9919 19.5658 66.4968 19.8275L66.9641 20.7116ZM68.4234 18.7157C68.5082 18.3023 68.543 17.5312 68.543 16.4551H67.543C67.543 17.5483 67.5048 18.2173 67.4438 18.5148L68.4234 18.7157ZM68.543 16.4551V4.58789H67.543V16.4551H68.543ZM68.543 4.58789C68.543 3.5294 68.5082 2.76784 68.4234 2.35461L67.4438 2.55555C67.5049 2.85326 67.543 3.51357 67.543 4.58789H68.543ZM68.4222 2.34911C68.2295 1.46037 67.743 0.78408 66.9641 0.372406L66.4968 1.2565C66.994 1.51931 67.3096 1.93677 67.445 2.56105L68.4222 2.34911ZM66.7305 1.31445H76.5605V0.314453H66.7305V1.31445ZM76.5605 1.31445C77.0336 1.31445 77.4687 1.24919 77.8557 1.10543L77.5075 0.168006C77.2566 0.261226 76.9442 0.314453 76.5605 0.314453V1.31445ZM77.1816 0.636719V4.08203H78.1816V0.636719H77.1816ZM78.0257 3.71922C77.4491 3.17248 76.8245 2.79791 76.1504 2.62671L75.9043 3.59594C76.3786 3.71641 76.8569 3.98898 77.3376 4.44484L78.0257 3.71922ZM76.1794 2.635C75.6749 2.47399 74.9598 2.40625 74.0723 2.40625V3.40625C74.9348 3.40625 75.523 3.47522 75.8753 3.58766L76.1794 2.635ZM74.0723 2.40625C72.8175 2.40625 71.766 2.47522 70.9258 2.61844L71.0938 3.60422C71.8577 3.474 72.8479 3.40625 74.0723 3.40625V2.40625ZM70.5098 3.11133V8.62109H71.5098V3.11133H70.5098ZM71.0098 9.12109H74.9609V8.12109H71.0098V9.12109ZM74.9609 9.12109C75.4057 9.12109 75.8165 9.04882 76.1784 8.88537L75.7669 7.974C75.5637 8.06576 75.3 8.12109 74.9609 8.12109V9.12109ZM75.4727 8.42969V11.5605H76.4727V8.42969H75.4727ZM76.3702 11.2573C75.8162 10.5309 74.8387 10.2539 73.6484 10.2539V11.2539C74.7368 11.2539 75.3088 11.5147 75.5751 11.8638L76.3702 11.2573ZM73.6484 10.2539H71.0098V11.2539H73.6484V10.2539ZM70.5098 10.7539V17.7812H71.5098V10.7539H70.5098ZM70.931 18.275C72.2128 18.4793 73.4559 18.582 74.6602 18.582V17.582C73.5128 17.582 72.3224 17.4842 71.0885 17.2875L70.931 18.275ZM74.6602 18.582C77.0914 18.582 79.1242 18.0016 80.7172 16.7995L80.1148 16.0013C78.7365 17.0414 76.932 17.582 74.6602 17.582V18.582ZM98.8184 0.814453L99.2845 0.995434L99.5489 0.314453H98.8184V0.814453ZM90.9297 21.1309L90.6576 21.5503L91.1733 21.8848L91.3958 21.3118L90.9297 21.1309ZM88.3184 19.1211L87.9321 19.4387L87.9361 19.4434L88.3184 19.1211ZM87.1152 16.6328L86.6464 16.8065L86.6466 16.8072L87.1152 16.6328ZM83.1094 5.81836L82.6395 5.98941L82.6405 5.99204L83.1094 5.81836ZM80.5391 0.814453V0.314453H79.2378L80.2042 1.1858L80.5391 0.814453ZM84.8457 0.814453L85.336 0.912511L85.4556 0.314453H84.8457V0.814453ZM85.4883 3.54883L85.9577 3.37652L85.9575 3.37598L85.4883 3.54883ZM90.3418 16.7695L89.8724 16.9418L90.3332 18.1971L90.8091 16.9475L90.3418 16.7695ZM94.5117 5.81836L94.979 5.99629L94.9801 5.99333L94.5117 5.81836ZM94.3477 0.814453V0.314453L94.1558 1.27617L94.3477 0.814453ZM98.3523 0.633472L90.4636 20.9499L91.3958 21.3118L99.2845 0.995434L98.3523 0.633472ZM91.2018 20.7114C89.8478 19.8331 89.0383 19.1993 88.7006 18.7988L87.9361 19.4434C88.3823 19.9726 89.3137 20.6786 90.6576 21.5503L91.2018 20.7114ZM88.7046 18.8035C88.4267 18.4656 88.0499 17.7104 87.5838 16.4584L86.6466 16.8072C87.1103 18.0526 87.5355 18.9562 87.9321 19.4386L88.7046 18.8035ZM87.5841 16.4591L83.5782 5.64468L82.6405 5.99204L86.6464 16.8065L87.5841 16.4591ZM83.5792 5.64731C82.8637 3.68204 82.3826 2.44401 82.1465 1.9816L81.2559 2.43637C81.4572 2.83073 81.9149 3.99895 82.6395 5.9894L83.5792 5.64731ZM82.1465 1.9816C81.889 1.4773 81.4528 0.965057 80.8739 0.443109L80.2042 1.1858C80.7373 1.66645 81.0759 2.0839 81.2559 2.43637L82.1465 1.9816ZM80.5391 1.31445H84.8457V0.314453H80.5391V1.31445ZM84.3554 0.716395C84.3288 0.849244 84.3184 0.993288 84.3184 1.14258H85.3184C85.3184 1.03666 85.3261 0.961954 85.336 0.912511L84.3554 0.716395ZM84.3184 1.14258C84.3184 1.41096 84.3908 1.76503 84.5042 2.17219C84.6209 2.59136 84.7934 3.10893 85.0191 3.72168L85.9575 3.37598C85.7366 2.77648 85.5741 2.28689 85.4675 1.90398C85.3576 1.50905 85.3184 1.26612 85.3184 1.14258H84.3184ZM85.0189 3.72114L89.8724 16.9418L90.8112 16.5972L85.9577 3.37652L85.0189 3.72114ZM90.8091 16.9475L94.979 5.99628L94.0444 5.64043L89.8745 16.5916L90.8091 16.9475ZM94.9801 5.99333C95.5694 4.41578 95.9004 3.22786 95.9004 2.49609H94.9004C94.9004 3.02214 94.6389 4.04907 94.0433 5.64339L94.9801 5.99333ZM95.9004 2.49609C95.9004 2.01126 95.7975 1.56607 95.561 1.1883C95.3226 0.807405 94.9715 0.532236 94.5395 0.352737L94.1558 1.27617C94.4257 1.38834 94.6009 1.53927 94.7134 1.71892C94.8278 1.9017 94.9004 2.1515 94.9004 2.49609H95.9004ZM94.3477 1.31445H98.8184V0.314453H94.3477V1.31445ZM106.078 20.2695V20.7695L106.312 19.8275L106.078 20.2695ZM100.473 20.2695L100.239 19.8275L100.473 20.7695V20.2695ZM101.676 18.6152L101.187 18.5096L101.187 18.5105L101.676 18.6152ZM101.676 2.45508L102.164 2.34941L102.164 2.34911L101.676 2.45508ZM100.473 0.814453V0.314453L100.239 1.2565L100.473 0.814453ZM106.078 0.814453L106.312 1.2565L106.078 0.314453V0.814453ZM104.875 2.45508L105.361 2.57329L105.364 2.56105L104.875 2.45508ZM104.875 18.6152L105.364 18.5104L105.361 18.4971L104.875 18.6152ZM106.078 19.7695H100.473V20.7695H106.078V19.7695ZM100.706 20.7116C101.487 20.2988 101.973 19.6163 102.165 18.72L101.187 18.5105C101.051 19.1454 100.734 19.5658 100.239 19.8275L100.706 20.7116ZM102.164 18.7209C102.251 18.3222 102.285 17.5609 102.285 16.4961H101.285C101.285 17.5823 101.247 18.2338 101.187 18.5096L102.164 18.7209ZM102.285 16.4961V4.58789H101.285V16.4961H102.285ZM102.285 4.58789C102.285 3.51431 102.251 2.7482 102.164 2.34941L101.187 2.56074C101.247 2.83644 101.285 3.4922 101.285 4.58789H102.285ZM102.164 2.34911C101.972 1.46037 101.485 0.78408 100.706 0.372406L100.239 1.2565C100.736 1.51931 101.052 1.93677 101.187 2.56105L102.164 2.34911ZM100.473 1.31445H106.078V0.314453H100.473V1.31445ZM105.844 0.372406C105.066 0.78408 104.579 1.46037 104.386 2.34911L105.364 2.56105C105.499 1.93677 105.815 1.51931 106.312 1.2565L105.844 0.372406ZM104.389 2.3369C104.29 2.74269 104.252 3.51548 104.252 4.58789H105.252C105.252 3.49104 105.295 2.84194 105.361 2.57325L104.389 2.3369ZM104.252 4.58789V16.4961H105.252V4.58789H104.252ZM104.252 16.4961C104.252 17.5598 104.29 18.3277 104.389 18.7334L105.361 18.4971C105.295 18.2283 105.252 17.5835 105.252 16.4961H104.252ZM104.386 18.72C104.578 19.6163 105.064 20.2988 105.844 20.7116L106.312 19.8275C105.817 19.5658 105.5 19.1454 105.364 18.5105L104.386 18.72ZM128.473 0.814453L128.743 1.23504L130.175 0.314453H128.473V0.814453ZM127.201 2.11328L126.747 1.9043L126.744 1.91191L127.201 2.11328ZM126.9 21.2266L126.744 21.7015L127.4 21.9175V21.2266H126.9ZM122.84 18.1094L122.447 18.4192L122.447 18.4193L122.84 18.1094ZM112.477 4.98438L112.869 4.67453L111.977 3.54428V4.98438H112.477ZM112.791 18.9707L112.334 19.173L112.337 19.1802L112.791 18.9707ZM114.021 20.2695V20.7695H115.705L114.294 19.8506L114.021 20.2695ZM108.758 20.2695L108.487 19.8489L107.055 20.7695H108.758V20.2695ZM110.016 18.9707L109.561 18.7617L109.558 18.7693L110.016 18.9707ZM110.002 2.11328L109.545 2.31556L109.548 2.32281L110.002 2.11328ZM108.785 0.814453V0.314453H107.102L108.512 1.23338L108.785 0.814453ZM113.092 0.814453L113.553 0.622145L113.425 0.314453H113.092V0.814453ZM113.803 1.9082L113.391 2.19249L113.4 2.205L113.409 2.21696L113.803 1.9082ZM124.74 15.8398L124.347 16.1486L125.24 17.2864V15.8398H124.74ZM124.412 2.12695L123.956 2.33253L123.96 2.33985L124.412 2.12695ZM123.182 0.814453V0.314453H121.54L122.903 1.22952L123.182 0.814453ZM128.202 0.393864C127.522 0.830997 127.012 1.32829 126.747 1.90433L127.655 2.32223C127.81 1.98682 128.147 1.61822 128.743 1.23504L128.202 0.393864ZM126.744 1.91191C126.499 2.46735 126.4 3.27965 126.4 4.28711H127.4C127.4 3.30759 127.502 2.67067 127.659 2.31465L126.744 1.91191ZM126.4 4.28711V21.2266H127.4V4.28711H126.4ZM127.057 20.7516C125.737 20.3173 124.459 19.3528 123.232 17.7995L122.447 18.4193C123.755 20.0743 125.184 21.1879 126.744 21.7015L127.057 20.7516ZM123.232 17.7995L112.869 4.67453L112.084 5.29422L122.447 18.4192L123.232 17.7995ZM111.977 4.98438V16.7969H112.977V4.98438H111.977ZM111.977 16.7969C111.977 17.7911 112.081 18.6012 112.334 19.173L113.248 18.7685C113.082 18.3923 112.977 17.7532 112.977 16.7969H111.977ZM112.337 19.1802C112.607 19.766 113.097 20.2637 113.749 20.6885L114.294 19.8506C113.743 19.4915 113.412 19.1233 113.245 18.7612L112.337 19.1802ZM114.021 19.7695H108.758V20.7695H114.021V19.7695ZM109.028 20.6901C109.709 20.2528 110.218 19.7533 110.473 19.1721L109.558 18.7693C109.413 19.0996 109.083 19.466 108.487 19.8489L109.028 20.6901ZM110.47 19.1797C110.727 18.6212 110.83 17.8054 110.83 16.7969H109.83C109.83 17.7753 109.724 18.4088 109.561 18.7618L110.47 19.1797ZM110.83 16.7969V4.28711H109.83V16.7969H110.83ZM110.83 4.28711C110.83 3.29163 110.721 2.4783 110.456 1.90375L109.548 2.32281C109.72 2.69618 109.83 3.33207 109.83 4.28711H110.83ZM110.459 1.91103C110.198 1.32053 109.711 0.820659 109.058 0.395522L108.512 1.23338C109.063 1.5921 109.387 1.95812 109.545 2.31553L110.459 1.91103ZM108.785 1.31445H113.092V0.314453H108.785V1.31445ZM112.63 1.00676C112.674 1.11235 112.774 1.27224 112.884 1.44242C113.007 1.63052 113.176 1.88107 113.391 2.19249L114.214 1.62391C114.001 1.31554 113.838 1.07391 113.723 0.897428C113.665 0.809006 113.622 0.739789 113.591 0.688304C113.556 0.629861 113.55 0.61342 113.553 0.622145L112.63 1.00676ZM113.409 2.21696L124.347 16.1486L125.134 15.5311L114.196 1.59945L113.409 2.21696ZM125.24 15.8398V4.28711H124.24V15.8398H125.24ZM125.24 4.28711C125.24 3.29277 125.132 2.48161 124.865 1.91405L123.96 2.33985C124.13 2.70199 124.24 3.33093 124.24 4.28711H125.24ZM124.868 1.9214C124.607 1.34192 124.116 0.839755 123.46 0.399384L122.903 1.22952C123.469 1.60946 123.798 1.9823 123.956 2.33251L124.868 1.9214ZM123.182 1.31445H128.473V0.314453H123.182V1.31445ZM149.855 19.873L149.895 20.3715L150.526 20.321L150.331 19.7188L149.855 19.873ZM148.816 20.0508L148.916 20.5407L148.922 20.5395L148.816 20.0508ZM134.953 18.6699L135.234 18.2562L135.234 18.2562L134.953 18.6699ZM135.24 2.42773L134.962 2.01198L134.961 2.01325L135.24 2.42773ZM147.586 0.841797H148.086V0.432332L147.685 0.351609L147.586 0.841797ZM147.586 4.21875L147.248 4.58765L148.086 5.35388V4.21875H147.586ZM136.389 4.65625L136.045 4.29322L136.389 4.65625ZM146.711 18.0547L146.883 18.5242L147.211 18.4041V18.0547H146.711ZM146.602 12.0117L146.113 12.1165L146.113 12.1174L146.602 12.0117ZM145.398 10.3574V9.85742L145.165 10.7995L145.398 10.3574ZM149.855 10.3574L150.333 10.5045L150.532 9.85742H149.855V10.3574ZM149.816 19.3746C149.553 19.3957 149.18 19.461 148.711 19.562L148.922 20.5395C149.383 20.4401 149.702 20.3869 149.895 20.3715L149.816 19.3746ZM148.716 19.5609C146.461 20.021 144.481 20.248 142.773 20.248V21.248C144.566 21.248 146.615 21.0102 148.916 20.5407L148.716 19.5609ZM142.773 20.248C139.673 20.248 137.172 19.5713 135.234 18.2562L134.672 19.0837C136.818 20.5394 139.53 21.248 142.773 21.248V20.248ZM135.234 18.2562C132.536 16.4255 131.201 13.914 131.201 10.6719H130.201C130.201 14.2474 131.701 17.068 134.672 19.0837L135.234 18.2562ZM131.201 10.6719C131.201 7.39456 132.622 4.79721 135.52 2.84222L134.961 2.01325C131.806 4.1416 130.201 7.04034 130.201 10.6719H131.201ZM135.518 2.84348C137.507 1.51431 139.962 0.835938 142.91 0.835938V-0.164062C139.806 -0.164062 137.148 0.5521 134.962 2.01199L135.518 2.84348ZM142.91 0.835938C144.312 0.835938 145.837 1.00009 147.487 1.33198L147.685 0.351609C145.981 0.00902163 144.389 -0.164062 142.91 -0.164062V0.835938ZM147.086 0.841797V4.21875H148.086V0.841797H147.086ZM147.923 3.84985C146.523 2.56902 144.646 1.95508 142.35 1.95508V2.95508C144.465 2.95508 146.078 3.51692 147.248 4.58765L147.923 3.84985ZM142.35 1.95508C139.816 1.95508 137.7 2.7257 136.045 4.29322L136.732 5.01928C138.176 3.65191 140.034 2.95508 142.35 2.95508V1.95508ZM136.045 4.29322C134.388 5.86201 133.564 7.86982 133.564 10.2754H134.564C134.564 8.12367 135.29 6.38538 136.732 5.01928L136.045 4.29322ZM133.564 10.2754C133.564 12.7272 134.459 14.8253 136.232 16.541L136.928 15.8223C135.347 14.2932 134.564 12.4538 134.564 10.2754H133.564ZM136.232 16.541C138.004 18.2552 140.153 19.1152 142.65 19.1152V18.1152C140.408 18.1152 138.51 17.3529 136.928 15.8223L136.232 16.541ZM142.65 19.1152C144.367 19.1152 145.785 18.926 146.883 18.5242L146.539 17.5852C145.595 17.9308 144.307 18.1152 142.65 18.1152V19.1152ZM147.211 18.0547V14.1309H146.211V18.0547H147.211ZM147.211 14.1309C147.211 13.0661 147.176 12.3047 147.09 11.9061L146.113 12.1174C146.172 12.3932 146.211 13.0446 146.211 14.1309H147.211ZM147.09 11.907C146.898 11.0106 146.413 10.3282 145.632 9.91537L145.165 10.7995C145.66 11.0612 145.977 11.4815 146.113 12.1165L147.09 11.907ZM145.398 10.8574H149.855V9.85742H145.398V10.8574ZM149.378 10.2104C149.245 10.6424 149.191 11.2857 149.191 12.0938H150.191C150.191 11.2976 150.248 10.7833 150.333 10.5045L149.378 10.2104ZM149.191 12.0938V18.3691H150.191V12.0938H149.191ZM149.191 18.3691C149.191 19.0494 149.246 19.614 149.38 20.0273L150.331 19.7188C150.246 19.4576 150.191 19.0196 150.191 18.3691H149.191ZM170.719 20.2695L170.756 20.7681L172.49 20.6381L170.952 19.8272L170.719 20.2695ZM165.824 19.8457L165.551 20.2646L165.554 20.2665L165.824 19.8457ZM163.432 17.4941L163.048 17.8152L163.05 17.8168L163.432 17.4941ZM158.264 10.1387L158.179 9.64593L157.465 9.76878L157.833 10.3924L158.264 10.1387ZM162.188 3.54883L161.847 3.9149L161.852 3.91972L162.188 3.54883ZM157.525 2.85156L157.436 2.35963L157.025 2.43427V2.85156H157.525ZM157.648 18.6152L158.138 18.5104L158.134 18.4971L157.648 18.6152ZM158.852 20.2695V20.7695L159.085 19.8275L158.852 20.2695ZM153.246 20.2695L153.012 19.8275L153.246 20.7695V20.2695ZM154.449 18.6152L153.961 18.5096L153.96 18.5105L154.449 18.6152ZM154.449 2.45508L154.938 2.34941L154.938 2.34911L154.449 2.45508ZM153.246 0.814453V0.314453L153.012 1.2565L153.246 0.814453ZM158.838 0.787109L158.822 0.287353L158.822 0.287361L158.838 0.787109ZM164.525 1.9082L164.225 2.30822L164.229 2.31087L164.525 1.9082ZM165.141 8.8125L164.778 8.46776L164.778 8.46785L165.141 8.8125ZM161.695 10.7539L161.573 10.2692L160.848 10.4528L161.294 11.0525L161.695 10.7539ZM166.973 17.2754L166.61 17.6193L166.612 17.6217L166.973 17.2754ZM170.681 19.7709C169.216 19.8809 168.33 19.9336 167.998 19.9336V20.9336C168.377 20.9336 169.305 20.877 170.756 20.7681L170.681 19.7709ZM167.998 19.9336C167.24 19.9336 166.612 19.7575 166.094 19.4249L165.554 20.2665C166.257 20.7178 167.079 20.9336 167.998 20.9336V19.9336ZM166.097 19.4268C165.561 19.0775 164.803 18.3425 163.814 17.1714L163.05 17.8168C164.047 18.9974 164.884 19.83 165.551 20.2646L166.097 19.4268ZM163.815 17.1731C161.956 14.9532 160.249 12.524 158.694 9.8849L157.833 10.3924C159.414 13.0763 161.152 15.5508 163.048 17.8152L163.815 17.1731ZM158.349 10.6314C160.034 10.3411 161.365 9.82331 162.281 9.03416C163.217 8.22812 163.686 7.16884 163.686 5.90039H162.686C162.686 6.89236 162.333 7.66967 161.629 8.27639C160.905 8.89999 159.774 9.37115 158.179 9.64593L158.349 10.6314ZM163.686 5.90039C163.686 4.80514 163.302 3.88221 162.523 3.17794L161.852 3.91972C162.404 4.41857 162.686 5.06335 162.686 5.90039H163.686ZM162.528 3.18279C161.762 2.47012 160.771 2.13281 159.604 2.13281V3.13281C160.569 3.13281 161.3 3.40618 161.847 3.91486L162.528 3.18279ZM159.604 2.13281C158.981 2.13281 158.257 2.21037 157.436 2.35963L157.615 3.3435C158.398 3.20109 159.059 3.13281 159.604 3.13281V2.13281ZM157.025 2.85156V16.4961H158.025V2.85156H157.025ZM157.025 16.4961C157.025 17.5598 157.064 18.3277 157.163 18.7334L158.134 18.4971C158.069 18.2283 158.025 17.5835 158.025 16.4961H157.025ZM157.16 18.72C157.352 19.6163 157.837 20.2988 158.618 20.7116L159.085 19.8275C158.59 19.5658 158.273 19.1454 158.137 18.5105L157.16 18.72ZM158.852 19.7695H153.246V20.7695H158.852V19.7695ZM153.48 20.7116C154.261 20.2988 154.746 19.6163 154.938 18.72L153.96 18.5105C153.824 19.1454 153.508 19.5658 153.012 19.8275L153.48 20.7116ZM154.938 18.7209C155.024 18.3222 155.059 17.5609 155.059 16.4961H154.059C154.059 17.5823 154.02 18.2338 153.961 18.5096L154.938 18.7209ZM155.059 16.4961V4.58789H154.059V16.4961H155.059ZM155.059 4.58789C155.059 3.51431 155.024 2.7482 154.938 2.34941L153.961 2.56074C154.02 2.83644 154.059 3.4922 154.059 4.58789H155.059ZM154.938 2.34911C154.745 1.46037 154.259 0.78408 153.48 0.372406L153.012 1.2565C153.51 1.51931 153.825 1.93677 153.961 2.56105L154.938 2.34911ZM153.246 1.31445H157.525V0.314453H153.246V1.31445ZM157.525 1.31445C157.834 1.31445 158.278 1.30513 158.854 1.28686L158.822 0.287361C158.249 0.305544 157.818 0.314453 157.525 0.314453V1.31445ZM158.854 1.28687C159.435 1.26868 159.871 1.25977 160.164 1.25977V0.259766C159.855 0.259766 159.407 0.269082 158.822 0.287353L158.854 1.28687ZM160.164 1.25977C161.992 1.25977 163.324 1.63196 164.225 2.3082L164.825 1.5082C163.685 0.653198 162.109 0.259766 160.164 0.259766V1.25977ZM164.229 2.31087C165.421 3.18851 165.994 4.30053 165.994 5.68164H166.994C166.994 3.96379 166.255 2.56019 164.822 1.50553L164.229 2.31087ZM165.994 5.68164C165.994 6.67344 165.606 7.59792 164.778 8.46776L165.503 9.15724C166.479 8.13124 166.994 6.96848 166.994 5.68164H165.994ZM164.778 8.46785C163.958 9.33049 162.896 9.93409 161.573 10.2692L161.818 11.2386C163.302 10.8628 164.537 10.1721 165.503 9.15715L164.778 8.46785ZM161.294 11.0525C163.503 14.0189 165.276 16.2118 166.61 17.6193L167.336 16.9315C166.044 15.5681 164.299 13.4134 162.096 10.4553L161.294 11.0525ZM166.612 17.6217C167.956 19.0213 169.247 20.0588 170.486 20.7118L170.952 19.8272C169.839 19.2407 168.633 18.2821 167.333 16.9291L166.612 17.6217ZM189.135 17.7539L188.792 17.3896L188.792 17.3903L189.135 17.7539ZM173.754 17.8086L173.412 18.1731L173.412 18.1739L173.754 17.8086ZM173.822 3.27539L173.483 2.90805L173.482 2.90877L173.822 3.27539ZM189.326 3.2207L188.978 3.57914L188.98 3.58126L189.326 3.2207ZM191.514 6.50195L191.051 6.69102L191.052 6.69496L191.514 6.50195ZM186.947 5.01172L186.562 5.33L186.562 5.3301L186.947 5.01172ZM176.037 4.57422L175.679 4.22525L175.678 4.22643L176.037 4.57422ZM176.338 16.4004L176.71 16.0669L176.708 16.0646L176.338 16.4004ZM186.893 16.4824L186.532 16.1358L186.532 16.1359L186.893 16.4824ZM191.82 10.4121C191.82 13.1717 190.816 15.4874 188.792 17.3896L189.477 18.1182C191.701 16.0282 192.82 13.4494 192.82 10.4121H191.82ZM188.792 17.3903C186.774 19.2944 184.32 20.248 181.396 20.248V21.248C184.562 21.248 187.266 20.2056 189.478 18.1175L188.792 17.3903ZM181.396 20.248C178.518 20.248 176.095 19.3122 174.095 17.4433L173.412 18.1739C175.606 20.2243 178.277 21.248 181.396 21.248V20.248ZM174.096 17.4441C172.108 15.5775 171.123 13.3162 171.123 10.6309H170.123C170.123 13.5965 171.225 16.1204 173.412 18.1731L174.096 17.4441ZM171.123 10.6309C171.123 7.8433 172.132 5.52463 174.162 3.64201L173.482 2.90877C171.247 4.98188 170.123 7.56686 170.123 10.6309H171.123ZM174.161 3.64273C176.203 1.75799 178.735 0.808594 181.793 0.808594V-0.191406C178.507 -0.191406 175.726 0.83706 173.483 2.90805L174.161 3.64273ZM181.793 0.808594C184.701 0.808594 187.083 1.7368 188.978 3.57913L189.675 2.86227C187.577 0.821795 184.937 -0.191406 181.793 -0.191406V0.808594ZM188.98 3.58126C189.855 4.42212 190.546 5.45589 191.051 6.69102L191.977 6.31289C191.424 4.95947 190.657 3.80575 189.673 2.86015L188.98 3.58126ZM191.052 6.69496C191.566 7.92234 191.82 9.16031 191.82 10.4121H192.82C192.82 9.02068 192.537 7.65187 191.975 6.30895L191.052 6.69496ZM189.457 10.8633C189.457 8.47877 188.753 6.413 187.333 4.69333L186.562 5.3301C187.821 6.85523 188.457 8.6905 188.457 10.8633H189.457ZM187.333 4.69344C185.813 2.85199 183.81 1.92773 181.369 1.92773V2.92773C183.522 2.92773 185.238 3.72613 186.562 5.33L187.333 4.69344ZM181.369 1.92773C179.086 1.92773 177.176 2.68934 175.679 4.22526L176.395 4.92318C177.687 3.59711 179.332 2.92773 181.369 2.92773V1.92773ZM175.678 4.22643C174.189 5.76426 173.459 7.75043 173.459 10.1387H174.459C174.459 7.96963 175.114 6.24616 176.396 4.92201L175.678 4.22643ZM173.459 10.1387C173.459 12.6836 174.296 14.8915 175.967 16.7362L176.708 16.0646C175.208 14.4093 174.459 12.4427 174.459 10.1387H173.459ZM175.965 16.7339C177.39 18.3252 179.257 19.1152 181.52 19.1152V18.1152C179.517 18.1152 177.929 17.4287 176.71 16.0669L175.965 16.7339ZM181.52 19.1152C183.852 19.1152 185.78 18.3614 187.253 16.829L186.532 16.1359C185.271 17.4472 183.617 18.1152 181.52 18.1152V19.1152ZM187.253 16.829C188.734 15.2895 189.457 13.2846 189.457 10.8633H188.457C188.457 13.0722 187.804 14.8134 186.532 16.1358L187.253 16.829ZM213.088 20.2695V20.7695H214.989L213.334 19.8342L213.088 20.2695ZM208.918 20.2695H208.418V20.7695H208.918V20.2695ZM208.918 18.2188H209.418V16.8366L208.534 17.8989L208.918 18.2188ZM199.006 19.709L199.263 19.2799L199.262 19.2794L199.006 19.709ZM196.463 16.4961L195.982 16.6326L195.984 16.6389L196.463 16.4961ZM196.066 2.45508L196.555 2.34941L196.555 2.34911L196.066 2.45508ZM194.863 0.814453V0.314453L194.63 1.2565L194.863 0.814453ZM200.469 0.814453L200.712 1.25124L202.394 0.314453H200.469V0.814453ZM199.266 2.45508L199.753 2.56751L199.754 2.56354L199.266 2.45508ZM200.182 16.9609L200.564 16.6393L200.564 16.6383L200.182 16.9609ZM208.248 16.4961L208.655 16.7862L208.66 16.7791L208.665 16.7719L208.248 16.4961ZM208.699 2.45508L209.189 2.35457L209.186 2.34089L208.699 2.45508ZM207.496 0.814453V0.314453H205.595L207.25 1.24973L207.496 0.814453ZM213.088 0.814453L213.334 1.24973L214.989 0.314453H213.088V0.814453ZM211.885 2.45508L211.398 2.34085L211.395 2.35461L211.885 2.45508ZM211.885 18.6152L211.395 18.7157L211.398 18.7281L211.885 18.6152ZM213.088 19.7695H208.918V20.7695H213.088V19.7695ZM209.418 20.2695V18.2188H208.418V20.2695H209.418ZM208.534 17.8989C207.239 19.4544 205.438 20.248 203.066 20.248V21.248C205.689 21.248 207.79 20.3555 209.302 18.5386L208.534 17.8989ZM203.066 20.248C201.594 20.248 200.332 19.9197 199.263 19.2799L198.749 20.138C199.995 20.8837 201.44 21.248 203.066 21.248V20.248ZM199.262 19.2794C198.079 18.5751 197.315 17.604 196.942 16.3533L195.984 16.6389C196.431 18.1408 197.362 19.3117 198.75 20.1385L199.262 19.2794ZM196.944 16.3596C196.773 15.7568 196.676 14.7138 196.676 13.1875H195.676C195.676 14.7237 195.77 15.8865 195.982 16.6326L196.944 16.3596ZM196.676 13.1875V4.58789H195.676V13.1875H196.676ZM196.676 4.58789C196.676 3.51431 196.641 2.7482 196.555 2.34941L195.578 2.56074C195.637 2.83644 195.676 3.4922 195.676 4.58789H196.676ZM196.555 2.34911C196.362 1.46037 195.876 0.78408 195.097 0.372406L194.63 1.2565C195.127 1.51931 195.442 1.93677 195.578 2.56105L196.555 2.34911ZM194.863 1.31445H200.469V0.314453H194.863V1.31445ZM200.225 0.377669C199.458 0.805379 198.971 1.4746 198.778 2.34661L199.754 2.56354C199.888 1.95899 200.204 1.53446 200.712 1.25124L200.225 0.377669ZM198.778 2.34265C198.682 2.76251 198.643 3.53021 198.643 4.58789H199.643C199.643 3.51276 199.686 2.85859 199.753 2.56751L198.778 2.34265ZM198.643 4.58789V13.1875H199.643V4.58789H198.643ZM198.643 13.1875C198.643 14.9363 198.997 16.3336 199.8 17.2835L200.564 16.6383C199.98 15.9477 199.643 14.8293 199.643 13.1875H198.643ZM199.799 17.2826C200.818 18.4954 202.22 19.0879 203.941 19.0879V18.0879C202.473 18.0879 201.368 17.5958 200.564 16.6393L199.799 17.2826ZM203.941 19.0879C205.962 19.0879 207.558 18.3266 208.655 16.7862L207.841 16.206C206.951 17.4547 205.676 18.0879 203.941 18.0879V19.0879ZM208.665 16.7719C209.111 16.097 209.309 15.2235 209.309 14.1992H208.309C208.309 15.1072 208.132 15.7649 207.831 16.2203L208.665 16.7719ZM209.309 14.1992V4.58789H208.309V14.1992H209.309ZM209.309 4.58789C209.309 3.5294 209.274 2.76784 209.189 2.35461L208.209 2.55555C208.27 2.85326 208.309 3.51357 208.309 4.58789H209.309ZM209.186 2.34089C208.983 1.47428 208.499 0.807114 207.742 0.379172L207.25 1.24973C207.751 1.53273 208.069 1.95932 208.212 2.56926L209.186 2.34089ZM207.496 1.31445H213.088V0.314453H207.496V1.31445ZM212.842 0.379172C212.085 0.807114 211.601 1.47428 211.398 2.34089L212.372 2.56926C212.515 1.95932 212.833 1.53273 213.334 1.24973L212.842 0.379172ZM211.395 2.35461C211.31 2.76784 211.275 3.5294 211.275 4.58789H212.275C212.275 3.51357 212.313 2.85326 212.375 2.55555L211.395 2.35461ZM211.275 4.58789V16.4961H212.275V4.58789H211.275ZM211.275 16.4961C211.275 17.5458 211.31 18.3026 211.395 18.7157L212.375 18.5148C212.313 18.2169 212.275 17.561 212.275 16.4961H211.275ZM211.398 18.7281C211.6 19.6025 212.083 20.2757 212.842 20.7048L213.334 19.8342C212.835 19.5524 212.516 19.1228 212.372 18.5024L211.398 18.7281ZM228.018 9.87891L227.695 9.4968L227.694 9.49794L228.018 9.87891ZM221.291 11.1094L221.231 10.613L221.109 11.5749L221.291 11.1094ZM225.105 9.6875L225.428 10.0694L225.431 10.0671L225.105 9.6875ZM220.279 3.08398L220.175 2.5949L219.779 2.67907V3.08398H220.279ZM220.594 18.9844L220.135 19.1834L220.138 19.1906L220.594 18.9844ZM221.824 20.2695V20.7695H223.577L222.088 19.8448L221.824 20.2695ZM216 20.2695L215.766 19.8275L216 20.7695V20.2695ZM217.203 18.6152L216.714 18.5096L216.714 18.5105L217.203 18.6152ZM217.203 2.45508L217.692 2.34941L217.692 2.34911L217.203 2.45508ZM216 0.814453V0.314453L215.766 1.2565L216 0.814453ZM219.924 0.787109V0.287109H219.916L219.908 0.287369L219.924 0.787109ZM226.951 1.51172L227.171 1.0627L227.167 1.06051L226.951 1.51172ZM229.125 3.38477L228.71 3.66321L228.712 3.66643L229.125 3.38477ZM229.445 5.95508C229.445 7.32342 228.88 8.49662 227.695 9.4968L228.34 10.261C229.725 9.09192 230.445 7.64924 230.445 5.95508H229.445ZM227.694 9.49794C226.514 10.5004 225.1 11.0059 223.424 11.0059V12.0059C225.32 12.0059 226.969 11.4267 228.341 10.2599L227.694 9.49794ZM223.424 11.0059C222.737 11.0059 222.088 10.8847 221.473 10.6438L221.109 11.5749C221.843 11.8627 222.616 12.0059 223.424 12.0059V11.0059ZM221.351 11.6058C223.066 11.3985 224.443 10.9019 225.428 10.0693L224.783 9.30566C223.999 9.96789 222.834 10.4192 221.231 10.613L221.351 11.6058ZM225.431 10.0671C226.552 9.10624 227.137 7.9146 227.137 6.51562H226.137C226.137 7.59582 225.701 8.51876 224.78 9.30787L225.431 10.0671ZM227.137 6.51562C227.137 5.25922 226.704 4.2197 225.814 3.45631L225.163 4.21557C225.804 4.76467 226.137 5.51161 226.137 6.51562H227.137ZM225.814 3.45631C224.931 2.69996 223.75 2.35156 222.33 2.35156V3.35156C223.59 3.35156 224.514 3.65941 225.163 4.21557L225.814 3.45631ZM222.33 2.35156C221.652 2.35156 220.933 2.43388 220.175 2.5949L220.383 3.57306C221.084 3.4242 221.732 3.35156 222.33 3.35156V2.35156ZM219.779 3.08398V16.7969H220.779V3.08398H219.779ZM219.779 16.7969C219.779 17.7922 219.884 18.6046 220.135 19.1834L221.052 18.7853C220.884 18.398 220.779 17.7521 220.779 16.7969H219.779ZM220.138 19.1906C220.409 19.7896 220.902 20.2855 221.56 20.6943L222.088 19.8448C221.543 19.5062 221.216 19.1453 221.049 18.7781L220.138 19.1906ZM221.824 19.7695H216V20.7695H221.824V19.7695ZM216.234 20.7116C217.015 20.2988 217.5 19.6163 217.692 18.72L216.714 18.5105C216.578 19.1454 216.261 19.5658 215.766 19.8275L216.234 20.7116ZM217.692 18.7209C217.778 18.3222 217.812 17.5609 217.812 16.4961H216.812C216.812 17.5823 216.774 18.2338 216.714 18.5096L217.692 18.7209ZM217.812 16.4961V4.58789H216.812V16.4961H217.812ZM217.812 4.58789C217.812 3.51431 217.778 2.7482 217.692 2.34941L216.714 2.56074C216.774 2.83644 216.812 3.4922 216.812 4.58789H217.812ZM217.692 2.34911C217.499 1.46037 217.012 0.78408 216.234 0.372406L215.766 1.2565C216.264 1.51931 216.579 1.93677 216.714 2.56105L217.692 2.34911ZM216 1.31445H218.83V0.314453H216V1.31445ZM218.83 1.31445C219.004 1.31445 219.377 1.30501 219.94 1.28685L219.908 0.287369C219.34 0.305668 218.984 0.314453 218.83 0.314453V1.31445ZM219.924 1.28711C219.925 1.28711 219.926 1.28711 219.927 1.28711C219.928 1.28711 219.929 1.28711 219.93 1.28711C219.931 1.28711 219.932 1.28711 219.933 1.28711C219.934 1.28711 219.935 1.28711 219.936 1.28711C219.938 1.28711 219.939 1.28711 219.94 1.28711C219.941 1.28711 219.942 1.28711 219.943 1.28711C219.944 1.28711 219.945 1.28711 219.946 1.28711C219.947 1.28711 219.948 1.28711 219.949 1.28711C219.95 1.28711 219.951 1.28711 219.952 1.28711C219.953 1.28711 219.955 1.28711 219.956 1.28711C219.957 1.28711 219.958 1.28711 219.959 1.28711C219.96 1.28711 219.961 1.28711 219.962 1.28711C219.963 1.28711 219.964 1.28711 219.965 1.28711C219.966 1.28711 219.967 1.28711 219.968 1.28711C219.969 1.28711 219.971 1.28711 219.972 1.28711C219.973 1.28711 219.974 1.28711 219.975 1.28711C219.976 1.28711 219.977 1.28711 219.978 1.28711C219.979 1.28711 219.98 1.28711 219.981 1.28711C219.982 1.28711 219.983 1.28711 219.985 1.28711C219.986 1.28711 219.987 1.28711 219.988 1.28711C219.989 1.28711 219.99 1.28711 219.991 1.28711C219.992 1.28711 219.993 1.28711 219.994 1.28711C219.995 1.28711 219.996 1.28711 219.998 1.28711C219.999 1.28711 220 1.28711 220.001 1.28711C220.002 1.28711 220.003 1.28711 220.004 1.28711C220.005 1.28711 220.006 1.28711 220.007 1.28711C220.008 1.28711 220.009 1.28711 220.011 1.28711C220.012 1.28711 220.013 1.28711 220.014 1.28711C220.015 1.28711 220.016 1.28711 220.017 1.28711C220.018 1.28711 220.019 1.28711 220.02 1.28711C220.022 1.28711 220.023 1.28711 220.024 1.28711C220.025 1.28711 220.026 1.28711 220.027 1.28711C220.028 1.28711 220.029 1.28711 220.03 1.28711C220.031 1.28711 220.033 1.28711 220.034 1.28711C220.035 1.28711 220.036 1.28711 220.037 1.28711C220.038 1.28711 220.039 1.28711 220.04 1.28711C220.041 1.28711 220.042 1.28711 220.044 1.28711C220.045 1.28711 220.046 1.28711 220.047 1.28711C220.048 1.28711 220.049 1.28711 220.05 1.28711C220.051 1.28711 220.052 1.28711 220.054 1.28711C220.055 1.28711 220.056 1.28711 220.057 1.28711C220.058 1.28711 220.059 1.28711 220.06 1.28711C220.061 1.28711 220.062 1.28711 220.064 1.28711C220.065 1.28711 220.066 1.28711 220.067 1.28711C220.068 1.28711 220.069 1.28711 220.07 1.28711C220.071 1.28711 220.073 1.28711 220.074 1.28711C220.075 1.28711 220.076 1.28711 220.077 1.28711C220.078 1.28711 220.079 1.28711 220.08 1.28711C220.081 1.28711 220.083 1.28711 220.084 1.28711C220.085 1.28711 220.086 1.28711 220.087 1.28711C220.088 1.28711 220.089 1.28711 220.09 1.28711C220.092 1.28711 220.093 1.28711 220.094 1.28711C220.095 1.28711 220.096 1.28711 220.097 1.28711C220.098 1.28711 220.1 1.28711 220.101 1.28711C220.102 1.28711 220.103 1.28711 220.104 1.28711C220.105 1.28711 220.106 1.28711 220.107 1.28711C220.109 1.28711 220.11 1.28711 220.111 1.28711C220.112 1.28711 220.113 1.28711 220.114 1.28711C220.115 1.28711 220.117 1.28711 220.118 1.28711C220.119 1.28711 220.12 1.28711 220.121 1.28711C220.122 1.28711 220.123 1.28711 220.125 1.28711C220.126 1.28711 220.127 1.28711 220.128 1.28711C220.129 1.28711 220.13 1.28711 220.131 1.28711C220.133 1.28711 220.134 1.28711 220.135 1.28711C220.136 1.28711 220.137 1.28711 220.138 1.28711C220.139 1.28711 220.141 1.28711 220.142 1.28711C220.143 1.28711 220.144 1.28711 220.145 1.28711C220.146 1.28711 220.148 1.28711 220.149 1.28711C220.15 1.28711 220.151 1.28711 220.152 1.28711C220.153 1.28711 220.154 1.28711 220.156 1.28711C220.157 1.28711 220.158 1.28711 220.159 1.28711C220.16 1.28711 220.161 1.28711 220.163 1.28711C220.164 1.28711 220.165 1.28711 220.166 1.28711C220.167 1.28711 220.168 1.28711 220.17 1.28711C220.171 1.28711 220.172 1.28711 220.173 1.28711C220.174 1.28711 220.175 1.28711 220.177 1.28711C220.178 1.28711 220.179 1.28711 220.18 1.28711C220.181 1.28711 220.182 1.28711 220.184 1.28711C220.185 1.28711 220.186 1.28711 220.187 1.28711C220.188 1.28711 220.189 1.28711 220.191 1.28711C220.192 1.28711 220.193 1.28711 220.194 1.28711C220.195 1.28711 220.196 1.28711 220.198 1.28711C220.199 1.28711 220.2 1.28711 220.201 1.28711C220.202 1.28711 220.204 1.28711 220.205 1.28711C220.206 1.28711 220.207 1.28711 220.208 1.28711C220.209 1.28711 220.211 1.28711 220.212 1.28711C220.213 1.28711 220.214 1.28711 220.215 1.28711C220.217 1.28711 220.218 1.28711 220.219 1.28711C220.22 1.28711 220.221 1.28711 220.222 1.28711C220.224 1.28711 220.225 1.28711 220.226 1.28711C220.227 1.28711 220.228 1.28711 220.23 1.28711C220.231 1.28711 220.232 1.28711 220.233 1.28711C220.234 1.28711 220.236 1.28711 220.237 1.28711C220.238 1.28711 220.239 1.28711 220.24 1.28711C220.241 1.28711 220.243 1.28711 220.244 1.28711C220.245 1.28711 220.246 1.28711 220.247 1.28711C220.249 1.28711 220.25 1.28711 220.251 1.28711C220.252 1.28711 220.253 1.28711 220.255 1.28711C220.256 1.28711 220.257 1.28711 220.258 1.28711C220.259 1.28711 220.261 1.28711 220.262 1.28711C220.263 1.28711 220.264 1.28711 220.265 1.28711C220.267 1.28711 220.268 1.28711 220.269 1.28711C220.27 1.28711 220.272 1.28711 220.273 1.28711C220.274 1.28711 220.275 1.28711 220.276 1.28711C220.278 1.28711 220.279 1.28711 220.28 1.28711C220.281 1.28711 220.282 1.28711 220.284 1.28711C220.285 1.28711 220.286 1.28711 220.287 1.28711C220.288 1.28711 220.29 1.28711 220.291 1.28711C220.292 1.28711 220.293 1.28711 220.295 1.28711C220.296 1.28711 220.297 1.28711 220.298 1.28711C220.299 1.28711 220.301 1.28711 220.302 1.28711C220.303 1.28711 220.304 1.28711 220.306 1.28711C220.307 1.28711 220.308 1.28711 220.309 1.28711C220.31 1.28711 220.312 1.28711 220.313 1.28711C220.314 1.28711 220.315 1.28711 220.317 1.28711C220.318 1.28711 220.319 1.28711 220.32 1.28711C220.321 1.28711 220.323 1.28711 220.324 1.28711C220.325 1.28711 220.326 1.28711 220.328 1.28711C220.329 1.28711 220.33 1.28711 220.331 1.28711C220.333 1.28711 220.334 1.28711 220.335 1.28711C220.336 1.28711 220.337 1.28711 220.339 1.28711C220.34 1.28711 220.341 1.28711 220.342 1.28711C220.344 1.28711 220.345 1.28711 220.346 1.28711C220.347 1.28711 220.349 1.28711 220.35 1.28711C220.351 1.28711 220.352 1.28711 220.354 1.28711C220.355 1.28711 220.356 1.28711 220.357 1.28711C220.359 1.28711 220.36 1.28711 220.361 1.28711C220.362 1.28711 220.363 1.28711 220.365 1.28711C220.366 1.28711 220.367 1.28711 220.368 1.28711C220.37 1.28711 220.371 1.28711 220.372 1.28711C220.373 1.28711 220.375 1.28711 220.376 1.28711C220.377 1.28711 220.378 1.28711 220.38 1.28711C220.381 1.28711 220.382 1.28711 220.383 1.28711C220.385 1.28711 220.386 1.28711 220.387 1.28711C220.389 1.28711 220.39 1.28711 220.391 1.28711C220.392 1.28711 220.394 1.28711 220.395 1.28711C220.396 1.28711 220.397 1.28711 220.399 1.28711C220.4 1.28711 220.401 1.28711 220.402 1.28711C220.404 1.28711 220.405 1.28711 220.406 1.28711C220.407 1.28711 220.409 1.28711 220.41 1.28711C220.411 1.28711 220.412 1.28711 220.414 1.28711C220.415 1.28711 220.416 1.28711 220.418 1.28711C220.419 1.28711 220.42 1.28711 220.421 1.28711C220.423 1.28711 220.424 1.28711 220.425 1.28711C220.426 1.28711 220.428 1.28711 220.429 1.28711C220.43 1.28711 220.432 1.28711 220.433 1.28711C220.434 1.28711 220.435 1.28711 220.437 1.28711C220.438 1.28711 220.439 1.28711 220.44 1.28711C220.442 1.28711 220.443 1.28711 220.444 1.28711C220.446 1.28711 220.447 1.28711 220.448 1.28711C220.449 1.28711 220.451 1.28711 220.452 1.28711C220.453 1.28711 220.455 1.28711 220.456 1.28711C220.457 1.28711 220.458 1.28711 220.46 1.28711C220.461 1.28711 220.462 1.28711 220.463 1.28711C220.465 1.28711 220.466 1.28711 220.467 1.28711C220.469 1.28711 220.47 1.28711 220.471 1.28711C220.473 1.28711 220.474 1.28711 220.475 1.28711C220.476 1.28711 220.478 1.28711 220.479 1.28711C220.48 1.28711 220.482 1.28711 220.483 1.28711C220.484 1.28711 220.485 1.28711 220.487 1.28711C220.488 1.28711 220.489 1.28711 220.491 1.28711C220.492 1.28711 220.493 1.28711 220.495 1.28711C220.496 1.28711 220.497 1.28711 220.498 1.28711C220.5 1.28711 220.501 1.28711 220.502 1.28711C220.504 1.28711 220.505 1.28711 220.506 1.28711C220.508 1.28711 220.509 1.28711 220.51 1.28711C220.511 1.28711 220.513 1.28711 220.514 1.28711C220.515 1.28711 220.517 1.28711 220.518 1.28711C220.519 1.28711 220.521 1.28711 220.522 1.28711C220.523 1.28711 220.524 1.28711 220.526 1.28711C220.527 1.28711 220.528 1.28711 220.53 1.28711C220.531 1.28711 220.532 1.28711 220.534 1.28711C220.535 1.28711 220.536 1.28711 220.538 1.28711C220.539 1.28711 220.54 1.28711 220.542 1.28711C220.543 1.28711 220.544 1.28711 220.546 1.28711C220.547 1.28711 220.548 1.28711 220.549 1.28711C220.551 1.28711 220.552 1.28711 220.553 1.28711C220.555 1.28711 220.556 1.28711 220.557 1.28711C220.559 1.28711 220.56 1.28711 220.561 1.28711C220.563 1.28711 220.564 1.28711 220.565 1.28711C220.567 1.28711 220.568 1.28711 220.569 1.28711C220.571 1.28711 220.572 1.28711 220.573 1.28711C220.575 1.28711 220.576 1.28711 220.577 1.28711C220.579 1.28711 220.58 1.28711 220.581 1.28711C220.583 1.28711 220.584 1.28711 220.585 1.28711C220.587 1.28711 220.588 1.28711 220.589 1.28711C220.591 1.28711 220.592 1.28711 220.593 1.28711C220.595 1.28711 220.596 1.28711 220.597 1.28711C220.599 1.28711 220.6 1.28711 220.601 1.28711C220.603 1.28711 220.604 1.28711 220.605 1.28711C220.607 1.28711 220.608 1.28711 220.609 1.28711C220.611 1.28711 220.612 1.28711 220.613 1.28711C220.615 1.28711 220.616 1.28711 220.617 1.28711C220.619 1.28711 220.62 1.28711 220.621 1.28711C220.623 1.28711 220.624 1.28711 220.626 1.28711C220.627 1.28711 220.628 1.28711 220.63 1.28711C220.631 1.28711 220.632 1.28711 220.634 1.28711C220.635 1.28711 220.636 1.28711 220.638 1.28711C220.639 1.28711 220.64 1.28711 220.642 1.28711C220.643 1.28711 220.644 1.28711 220.646 1.28711C220.647 1.28711 220.649 1.28711 220.65 1.28711C220.651 1.28711 220.653 1.28711 220.654 1.28711C220.655 1.28711 220.657 1.28711 220.658 1.28711C220.659 1.28711 220.661 1.28711 220.662 1.28711C220.663 1.28711 220.665 1.28711 220.666 1.28711C220.668 1.28711 220.669 1.28711 220.67 1.28711C220.672 1.28711 220.673 1.28711 220.674 1.28711C220.676 1.28711 220.677 1.28711 220.679 1.28711C220.68 1.28711 220.681 1.28711 220.683 1.28711C220.684 1.28711 220.685 1.28711 220.687 1.28711C220.688 1.28711 220.689 1.28711 220.691 1.28711C220.692 1.28711 220.694 1.28711 220.695 1.28711C220.696 1.28711 220.698 1.28711 220.699 1.28711C220.7 1.28711 220.702 1.28711 220.703 1.28711C220.705 1.28711 220.706 1.28711 220.707 1.28711C220.709 1.28711 220.71 1.28711 220.711 1.28711C220.713 1.28711 220.714 1.28711 220.716 1.28711C220.717 1.28711 220.718 1.28711 220.72 1.28711C220.721 1.28711 220.723 1.28711 220.724 1.28711C220.725 1.28711 220.727 1.28711 220.728 1.28711C220.729 1.28711 220.731 1.28711 220.732 1.28711C220.734 1.28711 220.735 1.28711 220.736 1.28711C220.738 1.28711 220.739 1.28711 220.741 1.28711C220.742 1.28711 220.743 1.28711 220.745 1.28711C220.746 1.28711 220.748 1.28711 220.749 1.28711C220.75 1.28711 220.752 1.28711 220.753 1.28711C220.755 1.28711 220.756 1.28711 220.757 1.28711C220.759 1.28711 220.76 1.28711 220.762 1.28711C220.763 1.28711 220.764 1.28711 220.766 1.28711C220.767 1.28711 220.769 1.28711 220.77 1.28711C220.771 1.28711 220.773 1.28711 220.774 1.28711C220.776 1.28711 220.777 1.28711 220.778 1.28711C220.78 1.28711 220.781 1.28711 220.783 1.28711C220.784 1.28711 220.785 1.28711 220.787 1.28711C220.788 1.28711 220.79 1.28711 220.791 1.28711C220.792 1.28711 220.794 1.28711 220.795 1.28711C220.797 1.28711 220.798 1.28711 220.799 1.28711C220.801 1.28711 220.802 1.28711 220.804 1.28711C220.805 1.28711 220.807 1.28711 220.808 1.28711C220.809 1.28711 220.811 1.28711 220.812 1.28711C220.814 1.28711 220.815 1.28711 220.816 1.28711C220.818 1.28711 220.819 1.28711 220.821 1.28711C220.822 1.28711 220.824 1.28711 220.825 1.28711C220.826 1.28711 220.828 1.28711 220.829 1.28711C220.831 1.28711 220.832 1.28711 220.834 1.28711C220.835 1.28711 220.836 1.28711 220.838 1.28711C220.839 1.28711 220.841 1.28711 220.842 1.28711C220.844 1.28711 220.845 1.28711 220.846 1.28711C220.848 1.28711 220.849 1.28711 220.851 1.28711C220.852 1.28711 220.854 1.28711 220.855 1.28711C220.856 1.28711 220.858 1.28711 220.859 1.28711C220.861 1.28711 220.862 1.28711 220.864 1.28711C220.865 1.28711 220.866 1.28711 220.868 1.28711C220.869 1.28711 220.871 1.28711 220.872 1.28711C220.874 1.28711 220.875 1.28711 220.877 1.28711C220.878 1.28711 220.879 1.28711 220.881 1.28711C220.882 1.28711 220.884 1.28711 220.885 1.28711C220.887 1.28711 220.888 1.28711 220.89 1.28711C220.891 1.28711 220.892 1.28711 220.894 1.28711C220.895 1.28711 220.897 1.28711 220.898 1.28711C220.9 1.28711 220.901 1.28711 220.903 1.28711C220.904 1.28711 220.905 1.28711 220.907 1.28711C220.908 1.28711 220.91 1.28711 220.911 1.28711C220.913 1.28711 220.914 1.28711 220.916 1.28711C220.917 1.28711 220.919 1.28711 220.92 1.28711C220.921 1.28711 220.923 1.28711 220.924 1.28711C220.926 1.28711 220.927 1.28711 220.929 1.28711C220.93 1.28711 220.932 1.28711 220.933 1.28711C220.935 1.28711 220.936 1.28711 220.937 1.28711C220.939 1.28711 220.94 1.28711 220.942 1.28711C220.943 1.28711 220.945 1.28711 220.946 1.28711C220.948 1.28711 220.949 1.28711 220.951 1.28711C220.952 1.28711 220.954 1.28711 220.955 1.28711C220.957 1.28711 220.958 1.28711 220.959 1.28711C220.961 1.28711 220.962 1.28711 220.964 1.28711C220.965 1.28711 220.967 1.28711 220.968 1.28711C220.97 1.28711 220.971 1.28711 220.973 1.28711C220.974 1.28711 220.976 1.28711 220.977 1.28711C220.979 1.28711 220.98 1.28711 220.982 1.28711C220.983 1.28711 220.985 1.28711 220.986 1.28711C220.987 1.28711 220.989 1.28711 220.99 1.28711C220.992 1.28711 220.993 1.28711 220.995 1.28711C220.996 1.28711 220.998 1.28711 220.999 1.28711C221.001 1.28711 221.002 1.28711 221.004 1.28711C221.005 1.28711 221.007 1.28711 221.008 1.28711C221.01 1.28711 221.011 1.28711 221.013 1.28711C221.014 1.28711 221.016 1.28711 221.017 1.28711C221.019 1.28711 221.02 1.28711 221.022 1.28711C221.023 1.28711 221.025 1.28711 221.026 1.28711C221.028 1.28711 221.029 1.28711 221.031 1.28711C221.032 1.28711 221.034 1.28711 221.035 1.28711C221.037 1.28711 221.038 1.28711 221.04 1.28711C221.041 1.28711 221.043 1.28711 221.044 1.28711C221.046 1.28711 221.047 1.28711 221.049 1.28711C221.05 1.28711 221.052 1.28711 221.053 1.28711C221.055 1.28711 221.056 1.28711 221.058 1.28711C221.059 1.28711 221.061 1.28711 221.062 1.28711C221.064 1.28711 221.065 1.28711 221.067 1.28711C221.068 1.28711 221.07 1.28711 221.071 1.28711C221.073 1.28711 221.074 1.28711 221.076 1.28711C221.077 1.28711 221.079 1.28711 221.08 1.28711C221.082 1.28711 221.083 1.28711 221.085 1.28711C221.086 1.28711 221.088 1.28711 221.089 1.28711C221.091 1.28711 221.092 1.28711 221.094 1.28711C221.095 1.28711 221.097 1.28711 221.098 1.28711C221.1 1.28711 221.101 1.28711 221.103 1.28711C221.104 1.28711 221.106 1.28711 221.107 1.28711C221.109 1.28711 221.11 1.28711 221.112 1.28711C221.114 1.28711 221.115 1.28711 221.117 1.28711C221.118 1.28711 221.12 1.28711 221.121 1.28711C221.123 1.28711 221.124 1.28711 221.126 1.28711C221.127 1.28711 221.129 1.28711 221.13 1.28711C221.132 1.28711 221.133 1.28711 221.135 1.28711C221.136 1.28711 221.138 1.28711 221.139 1.28711C221.141 1.28711 221.143 1.28711 221.144 1.28711C221.146 1.28711 221.147 1.28711 221.149 1.28711C221.15 1.28711 221.152 1.28711 221.153 1.28711C221.155 1.28711 221.156 1.28711 221.158 1.28711C221.159 1.28711 221.161 1.28711 221.162 1.28711C221.164 1.28711 221.166 1.28711 221.167 1.28711C221.169 1.28711 221.17 1.28711 221.172 1.28711C221.173 1.28711 221.175 1.28711 221.176 1.28711C221.178 1.28711 221.179 1.28711 221.181 1.28711C221.183 1.28711 221.184 1.28711 221.186 1.28711C221.187 1.28711 221.189 1.28711 221.19 1.28711C221.192 1.28711 221.193 1.28711 221.195 1.28711C221.196 1.28711 221.198 1.28711 221.2 1.28711C221.201 1.28711 221.203 1.28711 221.204 1.28711C221.206 1.28711 221.207 1.28711 221.209 1.28711C221.21 1.28711 221.212 1.28711 221.214 1.28711C221.215 1.28711 221.217 1.28711 221.218 1.28711C221.22 1.28711 221.221 1.28711 221.223 1.28711C221.224 1.28711 221.226 1.28711 221.228 1.28711C221.229 1.28711 221.231 1.28711 221.232 1.28711C221.234 1.28711 221.235 1.28711 221.237 1.28711C221.238 1.28711 221.24 1.28711 221.242 1.28711C221.243 1.28711 221.245 1.28711 221.246 1.28711C221.248 1.28711 221.249 1.28711 221.251 1.28711C221.253 1.28711 221.254 1.28711 221.256 1.28711C221.257 1.28711 221.259 1.28711 221.26 1.28711C221.262 1.28711 221.264 1.28711 221.265 1.28711C221.267 1.28711 221.268 1.28711 221.27 1.28711C221.271 1.28711 221.273 1.28711 221.275 1.28711C221.276 1.28711 221.278 1.28711 221.279 1.28711C221.281 1.28711 221.282 1.28711 221.284 1.28711C221.286 1.28711 221.287 1.28711 221.289 1.28711C221.29 1.28711 221.292 1.28711 221.294 1.28711C221.295 1.28711 221.297 1.28711 221.298 1.28711C221.3 1.28711 221.301 1.28711 221.303 1.28711C221.305 1.28711 221.306 1.28711 221.308 1.28711C221.309 1.28711 221.311 1.28711 221.313 1.28711C221.314 1.28711 221.316 1.28711 221.317 1.28711C221.319 1.28711 221.32 1.28711 221.322 1.28711C221.324 1.28711 221.325 1.28711 221.327 1.28711C221.328 1.28711 221.33 1.28711 221.332 1.28711C221.333 1.28711 221.335 1.28711 221.336 1.28711C221.338 1.28711 221.34 1.28711 221.341 1.28711C221.343 1.28711 221.344 1.28711 221.346 1.28711C221.348 1.28711 221.349 1.28711 221.351 1.28711C221.352 1.28711 221.354 1.28711 221.356 1.28711C221.357 1.28711 221.359 1.28711 221.36 1.28711C221.362 1.28711 221.364 1.28711 221.365 1.28711C221.367 1.28711 221.368 1.28711 221.37 1.28711C221.372 1.28711 221.373 1.28711 221.375 1.28711C221.376 1.28711 221.378 1.28711 221.38 1.28711C221.381 1.28711 221.383 1.28711 221.384 1.28711C221.386 1.28711 221.388 1.28711 221.389 1.28711C221.391 1.28711 221.393 1.28711 221.394 1.28711C221.396 1.28711 221.397 1.28711 221.399 1.28711C221.401 1.28711 221.402 1.28711 221.404 1.28711C221.405 1.28711 221.407 1.28711 221.409 1.28711C221.41 1.28711 221.412 1.28711 221.414 1.28711C221.415 1.28711 221.417 1.28711 221.418 1.28711C221.42 1.28711 221.422 1.28711 221.423 1.28711C221.425 1.28711 221.427 1.28711 221.428 1.28711C221.43 1.28711 221.431 1.28711 221.433 1.28711C221.435 1.28711 221.436 1.28711 221.438 1.28711C221.44 1.28711 221.441 1.28711 221.443 1.28711C221.444 1.28711 221.446 1.28711 221.448 1.28711C221.449 1.28711 221.451 1.28711 221.453 1.28711C221.454 1.28711 221.456 1.28711 221.457 1.28711C221.459 1.28711 221.461 1.28711 221.462 1.28711C221.464 1.28711 221.466 1.28711 221.467 1.28711C221.469 1.28711 221.471 1.28711 221.472 1.28711C221.474 1.28711 221.475 1.28711 221.477 1.28711C221.479 1.28711 221.48 1.28711 221.482 1.28711C221.484 1.28711 221.485 1.28711 221.487 1.28711C221.489 1.28711 221.49 1.28711 221.492 1.28711C221.494 1.28711 221.495 1.28711 221.497 1.28711C221.498 1.28711 221.5 1.28711 221.502 1.28711C221.503 1.28711 221.505 1.28711 221.507 1.28711C221.508 1.28711 221.51 1.28711 221.512 1.28711C221.513 1.28711 221.515 1.28711 221.517 1.28711C221.518 1.28711 221.52 1.28711 221.522 1.28711C221.523 1.28711 221.525 1.28711 221.526 1.28711C221.528 1.28711 221.53 1.28711 221.531 1.28711C221.533 1.28711 221.535 1.28711 221.536 1.28711C221.538 1.28711 221.54 1.28711 221.541 1.28711C221.543 1.28711 221.545 1.28711 221.546 1.28711C221.548 1.28711 221.55 1.28711 221.551 1.28711C221.553 1.28711 221.555 1.28711 221.556 1.28711C221.558 1.28711 221.56 1.28711 221.561 1.28711C221.563 1.28711 221.565 1.28711 221.566 1.28711C221.568 1.28711 221.57 1.28711 221.571 1.28711C221.573 1.28711 221.575 1.28711 221.576 1.28711C221.578 1.28711 221.58 1.28711 221.581 1.28711C221.583 1.28711 221.585 1.28711 221.586 1.28711C221.588 1.28711 221.59 1.28711 221.591 1.28711C221.593 1.28711 221.595 1.28711 221.596 1.28711C221.598 1.28711 221.6 1.28711 221.601 1.28711C221.603 1.28711 221.605 1.28711 221.607 1.28711C221.608 1.28711 221.61 1.28711 221.612 1.28711C221.613 1.28711 221.615 1.28711 221.617 1.28711C221.618 1.28711 221.62 1.28711 221.622 1.28711C221.623 1.28711 221.625 1.28711 221.627 1.28711C221.628 1.28711 221.63 1.28711 221.632 1.28711C221.633 1.28711 221.635 1.28711 221.637 1.28711C221.638 1.28711 221.64 1.28711 221.642 1.28711C221.644 1.28711 221.645 1.28711 221.647 1.28711C221.649 1.28711 221.65 1.28711 221.652 1.28711C221.654 1.28711 221.655 1.28711 221.657 1.28711C221.659 1.28711 221.66 1.28711 221.662 1.28711C221.664 1.28711 221.666 1.28711 221.667 1.28711C221.669 1.28711 221.671 1.28711 221.672 1.28711C221.674 1.28711 221.676 1.28711 221.677 1.28711C221.679 1.28711 221.681 1.28711 221.683 1.28711C221.684 1.28711 221.686 1.28711 221.688 1.28711C221.689 1.28711 221.691 1.28711 221.693 1.28711C221.695 1.28711 221.696 1.28711 221.698 1.28711C221.7 1.28711 221.701 1.28711 221.703 1.28711C221.705 1.28711 221.706 1.28711 221.708 1.28711C221.71 1.28711 221.712 1.28711 221.713 1.28711C221.715 1.28711 221.717 1.28711 221.718 1.28711C221.72 1.28711 221.722 1.28711 221.724 1.28711C221.725 1.28711 221.727 1.28711 221.729 1.28711C221.73 1.28711 221.732 1.28711 221.734 1.28711C221.736 1.28711 221.737 1.28711 221.739 1.28711C221.741 1.28711 221.742 1.28711 221.744 1.28711C221.746 1.28711 221.748 1.28711 221.749 1.28711C221.751 1.28711 221.753 1.28711 221.755 1.28711C221.756 1.28711 221.758 1.28711 221.76 1.28711C221.761 1.28711 221.763 1.28711 221.765 1.28711C221.767 1.28711 221.768 1.28711 221.77 1.28711C221.772 1.28711 221.773 1.28711 221.775 1.28711C221.777 1.28711 221.779 1.28711 221.78 1.28711C221.782 1.28711 221.784 1.28711 221.786 1.28711C221.787 1.28711 221.789 1.28711 221.791 1.28711C221.793 1.28711 221.794 1.28711 221.796 1.28711C221.798 1.28711 221.799 1.28711 221.801 1.28711C221.803 1.28711 221.805 1.28711 221.806 1.28711C221.808 1.28711 221.81 1.28711 221.812 1.28711C221.813 1.28711 221.815 1.28711 221.817 1.28711C221.819 1.28711 221.82 1.28711 221.822 1.28711C221.824 1.28711 221.826 1.28711 221.827 1.28711C221.829 1.28711 221.831 1.28711 221.833 1.28711C221.834 1.28711 221.836 1.28711 221.838 1.28711C221.84 1.28711 221.841 1.28711 221.843 1.28711C221.845 1.28711 221.847 1.28711 221.848 1.28711C221.85 1.28711 221.852 1.28711 221.854 1.28711C221.855 1.28711 221.857 1.28711 221.859 1.28711C221.861 1.28711 221.862 1.28711 221.864 1.28711C221.866 1.28711 221.868 1.28711 221.869 1.28711C221.871 1.28711 221.873 1.28711 221.875 1.28711C221.876 1.28711 221.878 1.28711 221.88 1.28711C221.882 1.28711 221.883 1.28711 221.885 1.28711C221.887 1.28711 221.889 1.28711 221.89 1.28711C221.892 1.28711 221.894 1.28711 221.896 1.28711C221.898 1.28711 221.899 1.28711 221.901 1.28711C221.903 1.28711 221.905 1.28711 221.906 1.28711C221.908 1.28711 221.91 1.28711 221.912 1.28711C221.913 1.28711 221.915 1.28711 221.917 1.28711C221.919 1.28711 221.921 1.28711 221.922 1.28711C221.924 1.28711 221.926 1.28711 221.928 1.28711C221.929 1.28711 221.931 1.28711 221.933 1.28711C221.935 1.28711 221.937 1.28711 221.938 1.28711C221.94 1.28711 221.942 1.28711 221.944 1.28711C221.945 1.28711 221.947 1.28711 221.949 1.28711C221.951 1.28711 221.953 1.28711 221.954 1.28711C221.956 1.28711 221.958 1.28711 221.96 1.28711C221.961 1.28711 221.963 1.28711 221.965 1.28711C221.967 1.28711 221.969 1.28711 221.97 1.28711C221.972 1.28711 221.974 1.28711 221.976 1.28711C221.978 1.28711 221.979 1.28711 221.981 1.28711C221.983 1.28711 221.985 1.28711 221.986 1.28711C221.988 1.28711 221.99 1.28711 221.992 1.28711C221.994 1.28711 221.995 1.28711 221.997 1.28711C221.999 1.28711 222.001 1.28711 222.003 1.28711C222.004 1.28711 222.006 1.28711 222.008 1.28711C222.01 1.28711 222.012 1.28711 222.013 1.28711C222.015 1.28711 222.017 1.28711 222.019 1.28711C222.021 1.28711 222.022 1.28711 222.024 1.28711C222.026 1.28711 222.028 1.28711 222.03 1.28711C222.031 1.28711 222.033 1.28711 222.035 1.28711C222.037 1.28711 222.039 1.28711 222.04 1.28711C222.042 1.28711 222.044 1.28711 222.046 1.28711C222.048 1.28711 222.049 1.28711 222.051 1.28711C222.053 1.28711 222.055 1.28711 222.057 1.28711C222.058 1.28711 222.06 1.28711 222.062 1.28711C222.064 1.28711 222.066 1.28711 222.068 1.28711C222.069 1.28711 222.071 1.28711 222.073 1.28711C222.075 1.28711 222.077 1.28711 222.078 1.28711C222.08 1.28711 222.082 1.28711 222.084 1.28711C222.086 1.28711 222.088 1.28711 222.089 1.28711C222.091 1.28711 222.093 1.28711 222.095 1.28711C222.097 1.28711 222.098 1.28711 222.1 1.28711C222.102 1.28711 222.104 1.28711 222.106 1.28711C222.108 1.28711 222.109 1.28711 222.111 1.28711C222.113 1.28711 222.115 1.28711 222.117 1.28711C222.119 1.28711 222.12 1.28711 222.122 1.28711C222.124 1.28711 222.126 1.28711 222.128 1.28711C222.13 1.28711 222.131 1.28711 222.133 1.28711C222.135 1.28711 222.137 1.28711 222.139 1.28711V0.287109C222.137 0.287109 222.135 0.287109 222.133 0.287109C222.131 0.287109 222.13 0.287109 222.128 0.287109C222.126 0.287109 222.124 0.287109 222.122 0.287109C222.12 0.287109 222.119 0.287109 222.117 0.287109C222.115 0.287109 222.113 0.287109 222.111 0.287109C222.109 0.287109 222.108 0.287109 222.106 0.287109C222.104 0.287109 222.102 0.287109 222.1 0.287109C222.098 0.287109 222.097 0.287109 222.095 0.287109C222.093 0.287109 222.091 0.287109 222.089 0.287109C222.088 0.287109 222.086 0.287109 222.084 0.287109C222.082 0.287109 222.08 0.287109 222.078 0.287109C222.077 0.287109 222.075 0.287109 222.073 0.287109C222.071 0.287109 222.069 0.287109 222.068 0.287109C222.066 0.287109 222.064 0.287109 222.062 0.287109C222.06 0.287109 222.058 0.287109 222.057 0.287109C222.055 0.287109 222.053 0.287109 222.051 0.287109C222.049 0.287109 222.048 0.287109 222.046 0.287109C222.044 0.287109 222.042 0.287109 222.04 0.287109C222.039 0.287109 222.037 0.287109 222.035 0.287109C222.033 0.287109 222.031 0.287109 222.03 0.287109C222.028 0.287109 222.026 0.287109 222.024 0.287109C222.022 0.287109 222.021 0.287109 222.019 0.287109C222.017 0.287109 222.015 0.287109 222.013 0.287109C222.012 0.287109 222.01 0.287109 222.008 0.287109C222.006 0.287109 222.004 0.287109 222.003 0.287109C222.001 0.287109 221.999 0.287109 221.997 0.287109C221.995 0.287109 221.994 0.287109 221.992 0.287109C221.99 0.287109 221.988 0.287109 221.986 0.287109C221.985 0.287109 221.983 0.287109 221.981 0.287109C221.979 0.287109 221.978 0.287109 221.976 0.287109C221.974 0.287109 221.972 0.287109 221.97 0.287109C221.969 0.287109 221.967 0.287109 221.965 0.287109C221.963 0.287109 221.961 0.287109 221.96 0.287109C221.958 0.287109 221.956 0.287109 221.954 0.287109C221.953 0.287109 221.951 0.287109 221.949 0.287109C221.947 0.287109 221.945 0.287109 221.944 0.287109C221.942 0.287109 221.94 0.287109 221.938 0.287109C221.937 0.287109 221.935 0.287109 221.933 0.287109C221.931 0.287109 221.929 0.287109 221.928 0.287109C221.926 0.287109 221.924 0.287109 221.922 0.287109C221.921 0.287109 221.919 0.287109 221.917 0.287109C221.915 0.287109 221.913 0.287109 221.912 0.287109C221.91 0.287109 221.908 0.287109 221.906 0.287109C221.905 0.287109 221.903 0.287109 221.901 0.287109C221.899 0.287109 221.898 0.287109 221.896 0.287109C221.894 0.287109 221.892 0.287109 221.89 0.287109C221.889 0.287109 221.887 0.287109 221.885 0.287109C221.883 0.287109 221.882 0.287109 221.88 0.287109C221.878 0.287109 221.876 0.287109 221.875 0.287109C221.873 0.287109 221.871 0.287109 221.869 0.287109C221.868 0.287109 221.866 0.287109 221.864 0.287109C221.862 0.287109 221.861 0.287109 221.859 0.287109C221.857 0.287109 221.855 0.287109 221.854 0.287109C221.852 0.287109 221.85 0.287109 221.848 0.287109C221.847 0.287109 221.845 0.287109 221.843 0.287109C221.841 0.287109 221.84 0.287109 221.838 0.287109C221.836 0.287109 221.834 0.287109 221.833 0.287109C221.831 0.287109 221.829 0.287109 221.827 0.287109C221.826 0.287109 221.824 0.287109 221.822 0.287109C221.82 0.287109 221.819 0.287109 221.817 0.287109C221.815 0.287109 221.813 0.287109 221.812 0.287109C221.81 0.287109 221.808 0.287109 221.806 0.287109C221.805 0.287109 221.803 0.287109 221.801 0.287109C221.799 0.287109 221.798 0.287109 221.796 0.287109C221.794 0.287109 221.793 0.287109 221.791 0.287109C221.789 0.287109 221.787 0.287109 221.786 0.287109C221.784 0.287109 221.782 0.287109 221.78 0.287109C221.779 0.287109 221.777 0.287109 221.775 0.287109C221.773 0.287109 221.772 0.287109 221.77 0.287109C221.768 0.287109 221.767 0.287109 221.765 0.287109C221.763 0.287109 221.761 0.287109 221.76 0.287109C221.758 0.287109 221.756 0.287109 221.755 0.287109C221.753 0.287109 221.751 0.287109 221.749 0.287109C221.748 0.287109 221.746 0.287109 221.744 0.287109C221.742 0.287109 221.741 0.287109 221.739 0.287109C221.737 0.287109 221.736 0.287109 221.734 0.287109C221.732 0.287109 221.73 0.287109 221.729 0.287109C221.727 0.287109 221.725 0.287109 221.724 0.287109C221.722 0.287109 221.72 0.287109 221.718 0.287109C221.717 0.287109 221.715 0.287109 221.713 0.287109C221.712 0.287109 221.71 0.287109 221.708 0.287109C221.706 0.287109 221.705 0.287109 221.703 0.287109C221.701 0.287109 221.7 0.287109 221.698 0.287109C221.696 0.287109 221.695 0.287109 221.693 0.287109C221.691 0.287109 221.689 0.287109 221.688 0.287109C221.686 0.287109 221.684 0.287109 221.683 0.287109C221.681 0.287109 221.679 0.287109 221.677 0.287109C221.676 0.287109 221.674 0.287109 221.672 0.287109C221.671 0.287109 221.669 0.287109 221.667 0.287109C221.666 0.287109 221.664 0.287109 221.662 0.287109C221.66 0.287109 221.659 0.287109 221.657 0.287109C221.655 0.287109 221.654 0.287109 221.652 0.287109C221.65 0.287109 221.649 0.287109 221.647 0.287109C221.645 0.287109 221.644 0.287109 221.642 0.287109C221.64 0.287109 221.638 0.287109 221.637 0.287109C221.635 0.287109 221.633 0.287109 221.632 0.287109C221.63 0.287109 221.628 0.287109 221.627 0.287109C221.625 0.287109 221.623 0.287109 221.622 0.287109C221.62 0.287109 221.618 0.287109 221.617 0.287109C221.615 0.287109 221.613 0.287109 221.612 0.287109C221.61 0.287109 221.608 0.287109 221.607 0.287109C221.605 0.287109 221.603 0.287109 221.601 0.287109C221.6 0.287109 221.598 0.287109 221.596 0.287109C221.595 0.287109 221.593 0.287109 221.591 0.287109C221.59 0.287109 221.588 0.287109 221.586 0.287109C221.585 0.287109 221.583 0.287109 221.581 0.287109C221.58 0.287109 221.578 0.287109 221.576 0.287109C221.575 0.287109 221.573 0.287109 221.571 0.287109C221.57 0.287109 221.568 0.287109 221.566 0.287109C221.565 0.287109 221.563 0.287109 221.561 0.287109C221.56 0.287109 221.558 0.287109 221.556 0.287109C221.555 0.287109 221.553 0.287109 221.551 0.287109C221.55 0.287109 221.548 0.287109 221.546 0.287109C221.545 0.287109 221.543 0.287109 221.541 0.287109C221.54 0.287109 221.538 0.287109 221.536 0.287109C221.535 0.287109 221.533 0.287109 221.531 0.287109C221.53 0.287109 221.528 0.287109 221.526 0.287109C221.525 0.287109 221.523 0.287109 221.522 0.287109C221.52 0.287109 221.518 0.287109 221.517 0.287109C221.515 0.287109 221.513 0.287109 221.512 0.287109C221.51 0.287109 221.508 0.287109 221.507 0.287109C221.505 0.287109 221.503 0.287109 221.502 0.287109C221.5 0.287109 221.498 0.287109 221.497 0.287109C221.495 0.287109 221.494 0.287109 221.492 0.287109C221.49 0.287109 221.489 0.287109 221.487 0.287109C221.485 0.287109 221.484 0.287109 221.482 0.287109C221.48 0.287109 221.479 0.287109 221.477 0.287109C221.475 0.287109 221.474 0.287109 221.472 0.287109C221.471 0.287109 221.469 0.287109 221.467 0.287109C221.466 0.287109 221.464 0.287109 221.462 0.287109C221.461 0.287109 221.459 0.287109 221.457 0.287109C221.456 0.287109 221.454 0.287109 221.453 0.287109C221.451 0.287109 221.449 0.287109 221.448 0.287109C221.446 0.287109 221.444 0.287109 221.443 0.287109C221.441 0.287109 221.44 0.287109 221.438 0.287109C221.436 0.287109 221.435 0.287109 221.433 0.287109C221.431 0.287109 221.43 0.287109 221.428 0.287109C221.427 0.287109 221.425 0.287109 221.423 0.287109C221.422 0.287109 221.42 0.287109 221.418 0.287109C221.417 0.287109 221.415 0.287109 221.414 0.287109C221.412 0.287109 221.41 0.287109 221.409 0.287109C221.407 0.287109 221.405 0.287109 221.404 0.287109C221.402 0.287109 221.401 0.287109 221.399 0.287109C221.397 0.287109 221.396 0.287109 221.394 0.287109C221.393 0.287109 221.391 0.287109 221.389 0.287109C221.388 0.287109 221.386 0.287109 221.384 0.287109C221.383 0.287109 221.381 0.287109 221.38 0.287109C221.378 0.287109 221.376 0.287109 221.375 0.287109C221.373 0.287109 221.372 0.287109 221.37 0.287109C221.368 0.287109 221.367 0.287109 221.365 0.287109C221.364 0.287109 221.362 0.287109 221.36 0.287109C221.359 0.287109 221.357 0.287109 221.356 0.287109C221.354 0.287109 221.352 0.287109 221.351 0.287109C221.349 0.287109 221.348 0.287109 221.346 0.287109C221.344 0.287109 221.343 0.287109 221.341 0.287109C221.34 0.287109 221.338 0.287109 221.336 0.287109C221.335 0.287109 221.333 0.287109 221.332 0.287109C221.33 0.287109 221.328 0.287109 221.327 0.287109C221.325 0.287109 221.324 0.287109 221.322 0.287109C221.32 0.287109 221.319 0.287109 221.317 0.287109C221.316 0.287109 221.314 0.287109 221.313 0.287109C221.311 0.287109 221.309 0.287109 221.308 0.287109C221.306 0.287109 221.305 0.287109 221.303 0.287109C221.301 0.287109 221.3 0.287109 221.298 0.287109C221.297 0.287109 221.295 0.287109 221.294 0.287109C221.292 0.287109 221.29 0.287109 221.289 0.287109C221.287 0.287109 221.286 0.287109 221.284 0.287109C221.282 0.287109 221.281 0.287109 221.279 0.287109C221.278 0.287109 221.276 0.287109 221.275 0.287109C221.273 0.287109 221.271 0.287109 221.27 0.287109C221.268 0.287109 221.267 0.287109 221.265 0.287109C221.264 0.287109 221.262 0.287109 221.26 0.287109C221.259 0.287109 221.257 0.287109 221.256 0.287109C221.254 0.287109 221.253 0.287109 221.251 0.287109C221.249 0.287109 221.248 0.287109 221.246 0.287109C221.245 0.287109 221.243 0.287109 221.242 0.287109C221.24 0.287109 221.238 0.287109 221.237 0.287109C221.235 0.287109 221.234 0.287109 221.232 0.287109C221.231 0.287109 221.229 0.287109 221.228 0.287109C221.226 0.287109 221.224 0.287109 221.223 0.287109C221.221 0.287109 221.22 0.287109 221.218 0.287109C221.217 0.287109 221.215 0.287109 221.214 0.287109C221.212 0.287109 221.21 0.287109 221.209 0.287109C221.207 0.287109 221.206 0.287109 221.204 0.287109C221.203 0.287109 221.201 0.287109 221.2 0.287109C221.198 0.287109 221.196 0.287109 221.195 0.287109C221.193 0.287109 221.192 0.287109 221.19 0.287109C221.189 0.287109 221.187 0.287109 221.186 0.287109C221.184 0.287109 221.183 0.287109 221.181 0.287109C221.179 0.287109 221.178 0.287109 221.176 0.287109C221.175 0.287109 221.173 0.287109 221.172 0.287109C221.17 0.287109 221.169 0.287109 221.167 0.287109C221.166 0.287109 221.164 0.287109 221.162 0.287109C221.161 0.287109 221.159 0.287109 221.158 0.287109C221.156 0.287109 221.155 0.287109 221.153 0.287109C221.152 0.287109 221.15 0.287109 221.149 0.287109C221.147 0.287109 221.146 0.287109 221.144 0.287109C221.143 0.287109 221.141 0.287109 221.139 0.287109C221.138 0.287109 221.136 0.287109 221.135 0.287109C221.133 0.287109 221.132 0.287109 221.13 0.287109C221.129 0.287109 221.127 0.287109 221.126 0.287109C221.124 0.287109 221.123 0.287109 221.121 0.287109C221.12 0.287109 221.118 0.287109 221.117 0.287109C221.115 0.287109 221.114 0.287109 221.112 0.287109C221.11 0.287109 221.109 0.287109 221.107 0.287109C221.106 0.287109 221.104 0.287109 221.103 0.287109C221.101 0.287109 221.1 0.287109 221.098 0.287109C221.097 0.287109 221.095 0.287109 221.094 0.287109C221.092 0.287109 221.091 0.287109 221.089 0.287109C221.088 0.287109 221.086 0.287109 221.085 0.287109C221.083 0.287109 221.082 0.287109 221.08 0.287109C221.079 0.287109 221.077 0.287109 221.076 0.287109C221.074 0.287109 221.073 0.287109 221.071 0.287109C221.07 0.287109 221.068 0.287109 221.067 0.287109C221.065 0.287109 221.064 0.287109 221.062 0.287109C221.061 0.287109 221.059 0.287109 221.058 0.287109C221.056 0.287109 221.055 0.287109 221.053 0.287109C221.052 0.287109 221.05 0.287109 221.049 0.287109C221.047 0.287109 221.046 0.287109 221.044 0.287109C221.043 0.287109 221.041 0.287109 221.04 0.287109C221.038 0.287109 221.037 0.287109 221.035 0.287109C221.034 0.287109 221.032 0.287109 221.031 0.287109C221.029 0.287109 221.028 0.287109 221.026 0.287109C221.025 0.287109 221.023 0.287109 221.022 0.287109C221.02 0.287109 221.019 0.287109 221.017 0.287109C221.016 0.287109 221.014 0.287109 221.013 0.287109C221.011 0.287109 221.01 0.287109 221.008 0.287109C221.007 0.287109 221.005 0.287109 221.004 0.287109C221.002 0.287109 221.001 0.287109 220.999 0.287109C220.998 0.287109 220.996 0.287109 220.995 0.287109C220.993 0.287109 220.992 0.287109 220.99 0.287109C220.989 0.287109 220.987 0.287109 220.986 0.287109C220.985 0.287109 220.983 0.287109 220.982 0.287109C220.98 0.287109 220.979 0.287109 220.977 0.287109C220.976 0.287109 220.974 0.287109 220.973 0.287109C220.971 0.287109 220.97 0.287109 220.968 0.287109C220.967 0.287109 220.965 0.287109 220.964 0.287109C220.962 0.287109 220.961 0.287109 220.959 0.287109C220.958 0.287109 220.957 0.287109 220.955 0.287109C220.954 0.287109 220.952 0.287109 220.951 0.287109C220.949 0.287109 220.948 0.287109 220.946 0.287109C220.945 0.287109 220.943 0.287109 220.942 0.287109C220.94 0.287109 220.939 0.287109 220.937 0.287109C220.936 0.287109 220.935 0.287109 220.933 0.287109C220.932 0.287109 220.93 0.287109 220.929 0.287109C220.927 0.287109 220.926 0.287109 220.924 0.287109C220.923 0.287109 220.921 0.287109 220.92 0.287109C220.919 0.287109 220.917 0.287109 220.916 0.287109C220.914 0.287109 220.913 0.287109 220.911 0.287109C220.91 0.287109 220.908 0.287109 220.907 0.287109C220.905 0.287109 220.904 0.287109 220.903 0.287109C220.901 0.287109 220.9 0.287109 220.898 0.287109C220.897 0.287109 220.895 0.287109 220.894 0.287109C220.892 0.287109 220.891 0.287109 220.89 0.287109C220.888 0.287109 220.887 0.287109 220.885 0.287109C220.884 0.287109 220.882 0.287109 220.881 0.287109C220.879 0.287109 220.878 0.287109 220.877 0.287109C220.875 0.287109 220.874 0.287109 220.872 0.287109C220.871 0.287109 220.869 0.287109 220.868 0.287109C220.866 0.287109 220.865 0.287109 220.864 0.287109C220.862 0.287109 220.861 0.287109 220.859 0.287109C220.858 0.287109 220.856 0.287109 220.855 0.287109C220.854 0.287109 220.852 0.287109 220.851 0.287109C220.849 0.287109 220.848 0.287109 220.846 0.287109C220.845 0.287109 220.844 0.287109 220.842 0.287109C220.841 0.287109 220.839 0.287109 220.838 0.287109C220.836 0.287109 220.835 0.287109 220.834 0.287109C220.832 0.287109 220.831 0.287109 220.829 0.287109C220.828 0.287109 220.826 0.287109 220.825 0.287109C220.824 0.287109 220.822 0.287109 220.821 0.287109C220.819 0.287109 220.818 0.287109 220.816 0.287109C220.815 0.287109 220.814 0.287109 220.812 0.287109C220.811 0.287109 220.809 0.287109 220.808 0.287109C220.807 0.287109 220.805 0.287109 220.804 0.287109C220.802 0.287109 220.801 0.287109 220.799 0.287109C220.798 0.287109 220.797 0.287109 220.795 0.287109C220.794 0.287109 220.792 0.287109 220.791 0.287109C220.79 0.287109 220.788 0.287109 220.787 0.287109C220.785 0.287109 220.784 0.287109 220.783 0.287109C220.781 0.287109 220.78 0.287109 220.778 0.287109C220.777 0.287109 220.776 0.287109 220.774 0.287109C220.773 0.287109 220.771 0.287109 220.77 0.287109C220.769 0.287109 220.767 0.287109 220.766 0.287109C220.764 0.287109 220.763 0.287109 220.762 0.287109C220.76 0.287109 220.759 0.287109 220.757 0.287109C220.756 0.287109 220.755 0.287109 220.753 0.287109C220.752 0.287109 220.75 0.287109 220.749 0.287109C220.748 0.287109 220.746 0.287109 220.745 0.287109C220.743 0.287109 220.742 0.287109 220.741 0.287109C220.739 0.287109 220.738 0.287109 220.736 0.287109C220.735 0.287109 220.734 0.287109 220.732 0.287109C220.731 0.287109 220.729 0.287109 220.728 0.287109C220.727 0.287109 220.725 0.287109 220.724 0.287109C220.723 0.287109 220.721 0.287109 220.72 0.287109C220.718 0.287109 220.717 0.287109 220.716 0.287109C220.714 0.287109 220.713 0.287109 220.711 0.287109C220.71 0.287109 220.709 0.287109 220.707 0.287109C220.706 0.287109 220.705 0.287109 220.703 0.287109C220.702 0.287109 220.7 0.287109 220.699 0.287109C220.698 0.287109 220.696 0.287109 220.695 0.287109C220.694 0.287109 220.692 0.287109 220.691 0.287109C220.689 0.287109 220.688 0.287109 220.687 0.287109C220.685 0.287109 220.684 0.287109 220.683 0.287109C220.681 0.287109 220.68 0.287109 220.679 0.287109C220.677 0.287109 220.676 0.287109 220.674 0.287109C220.673 0.287109 220.672 0.287109 220.67 0.287109C220.669 0.287109 220.668 0.287109 220.666 0.287109C220.665 0.287109 220.663 0.287109 220.662 0.287109C220.661 0.287109 220.659 0.287109 220.658 0.287109C220.657 0.287109 220.655 0.287109 220.654 0.287109C220.653 0.287109 220.651 0.287109 220.65 0.287109C220.649 0.287109 220.647 0.287109 220.646 0.287109C220.644 0.287109 220.643 0.287109 220.642 0.287109C220.64 0.287109 220.639 0.287109 220.638 0.287109C220.636 0.287109 220.635 0.287109 220.634 0.287109C220.632 0.287109 220.631 0.287109 220.63 0.287109C220.628 0.287109 220.627 0.287109 220.626 0.287109C220.624 0.287109 220.623 0.287109 220.621 0.287109C220.62 0.287109 220.619 0.287109 220.617 0.287109C220.616 0.287109 220.615 0.287109 220.613 0.287109C220.612 0.287109 220.611 0.287109 220.609 0.287109C220.608 0.287109 220.607 0.287109 220.605 0.287109C220.604 0.287109 220.603 0.287109 220.601 0.287109C220.6 0.287109 220.599 0.287109 220.597 0.287109C220.596 0.287109 220.595 0.287109 220.593 0.287109C220.592 0.287109 220.591 0.287109 220.589 0.287109C220.588 0.287109 220.587 0.287109 220.585 0.287109C220.584 0.287109 220.583 0.287109 220.581 0.287109C220.58 0.287109 220.579 0.287109 220.577 0.287109C220.576 0.287109 220.575 0.287109 220.573 0.287109C220.572 0.287109 220.571 0.287109 220.569 0.287109C220.568 0.287109 220.567 0.287109 220.565 0.287109C220.564 0.287109 220.563 0.287109 220.561 0.287109C220.56 0.287109 220.559 0.287109 220.557 0.287109C220.556 0.287109 220.555 0.287109 220.553 0.287109C220.552 0.287109 220.551 0.287109 220.549 0.287109C220.548 0.287109 220.547 0.287109 220.546 0.287109C220.544 0.287109 220.543 0.287109 220.542 0.287109C220.54 0.287109 220.539 0.287109 220.538 0.287109C220.536 0.287109 220.535 0.287109 220.534 0.287109C220.532 0.287109 220.531 0.287109 220.53 0.287109C220.528 0.287109 220.527 0.287109 220.526 0.287109C220.524 0.287109 220.523 0.287109 220.522 0.287109C220.521 0.287109 220.519 0.287109 220.518 0.287109C220.517 0.287109 220.515 0.287109 220.514 0.287109C220.513 0.287109 220.511 0.287109 220.51 0.287109C220.509 0.287109 220.508 0.287109 220.506 0.287109C220.505 0.287109 220.504 0.287109 220.502 0.287109C220.501 0.287109 220.5 0.287109 220.498 0.287109C220.497 0.287109 220.496 0.287109 220.495 0.287109C220.493 0.287109 220.492 0.287109 220.491 0.287109C220.489 0.287109 220.488 0.287109 220.487 0.287109C220.485 0.287109 220.484 0.287109 220.483 0.287109C220.482 0.287109 220.48 0.287109 220.479 0.287109C220.478 0.287109 220.476 0.287109 220.475 0.287109C220.474 0.287109 220.473 0.287109 220.471 0.287109C220.47 0.287109 220.469 0.287109 220.467 0.287109C220.466 0.287109 220.465 0.287109 220.463 0.287109C220.462 0.287109 220.461 0.287109 220.46 0.287109C220.458 0.287109 220.457 0.287109 220.456 0.287109C220.455 0.287109 220.453 0.287109 220.452 0.287109C220.451 0.287109 220.449 0.287109 220.448 0.287109C220.447 0.287109 220.446 0.287109 220.444 0.287109C220.443 0.287109 220.442 0.287109 220.44 0.287109C220.439 0.287109 220.438 0.287109 220.437 0.287109C220.435 0.287109 220.434 0.287109 220.433 0.287109C220.432 0.287109 220.43 0.287109 220.429 0.287109C220.428 0.287109 220.426 0.287109 220.425 0.287109C220.424 0.287109 220.423 0.287109 220.421 0.287109C220.42 0.287109 220.419 0.287109 220.418 0.287109C220.416 0.287109 220.415 0.287109 220.414 0.287109C220.412 0.287109 220.411 0.287109 220.41 0.287109C220.409 0.287109 220.407 0.287109 220.406 0.287109C220.405 0.287109 220.404 0.287109 220.402 0.287109C220.401 0.287109 220.4 0.287109 220.399 0.287109C220.397 0.287109 220.396 0.287109 220.395 0.287109C220.394 0.287109 220.392 0.287109 220.391 0.287109C220.39 0.287109 220.389 0.287109 220.387 0.287109C220.386 0.287109 220.385 0.287109 220.383 0.287109C220.382 0.287109 220.381 0.287109 220.38 0.287109C220.378 0.287109 220.377 0.287109 220.376 0.287109C220.375 0.287109 220.373 0.287109 220.372 0.287109C220.371 0.287109 220.37 0.287109 220.368 0.287109C220.367 0.287109 220.366 0.287109 220.365 0.287109C220.363 0.287109 220.362 0.287109 220.361 0.287109C220.36 0.287109 220.359 0.287109 220.357 0.287109C220.356 0.287109 220.355 0.287109 220.354 0.287109C220.352 0.287109 220.351 0.287109 220.35 0.287109C220.349 0.287109 220.347 0.287109 220.346 0.287109C220.345 0.287109 220.344 0.287109 220.342 0.287109C220.341 0.287109 220.34 0.287109 220.339 0.287109C220.337 0.287109 220.336 0.287109 220.335 0.287109C220.334 0.287109 220.333 0.287109 220.331 0.287109C220.33 0.287109 220.329 0.287109 220.328 0.287109C220.326 0.287109 220.325 0.287109 220.324 0.287109C220.323 0.287109 220.321 0.287109 220.32 0.287109C220.319 0.287109 220.318 0.287109 220.317 0.287109C220.315 0.287109 220.314 0.287109 220.313 0.287109C220.312 0.287109 220.31 0.287109 220.309 0.287109C220.308 0.287109 220.307 0.287109 220.306 0.287109C220.304 0.287109 220.303 0.287109 220.302 0.287109C220.301 0.287109 220.299 0.287109 220.298 0.287109C220.297 0.287109 220.296 0.287109 220.295 0.287109C220.293 0.287109 220.292 0.287109 220.291 0.287109C220.29 0.287109 220.288 0.287109 220.287 0.287109C220.286 0.287109 220.285 0.287109 220.284 0.287109C220.282 0.287109 220.281 0.287109 220.28 0.287109C220.279 0.287109 220.278 0.287109 220.276 0.287109C220.275 0.287109 220.274 0.287109 220.273 0.287109C220.272 0.287109 220.27 0.287109 220.269 0.287109C220.268 0.287109 220.267 0.287109 220.265 0.287109C220.264 0.287109 220.263 0.287109 220.262 0.287109C220.261 0.287109 220.259 0.287109 220.258 0.287109C220.257 0.287109 220.256 0.287109 220.255 0.287109C220.253 0.287109 220.252 0.287109 220.251 0.287109C220.25 0.287109 220.249 0.287109 220.247 0.287109C220.246 0.287109 220.245 0.287109 220.244 0.287109C220.243 0.287109 220.241 0.287109 220.24 0.287109C220.239 0.287109 220.238 0.287109 220.237 0.287109C220.236 0.287109 220.234 0.287109 220.233 0.287109C220.232 0.287109 220.231 0.287109 220.23 0.287109C220.228 0.287109 220.227 0.287109 220.226 0.287109C220.225 0.287109 220.224 0.287109 220.222 0.287109C220.221 0.287109 220.22 0.287109 220.219 0.287109C220.218 0.287109 220.217 0.287109 220.215 0.287109C220.214 0.287109 220.213 0.287109 220.212 0.287109C220.211 0.287109 220.209 0.287109 220.208 0.287109C220.207 0.287109 220.206 0.287109 220.205 0.287109C220.204 0.287109 220.202 0.287109 220.201 0.287109C220.2 0.287109 220.199 0.287109 220.198 0.287109C220.196 0.287109 220.195 0.287109 220.194 0.287109C220.193 0.287109 220.192 0.287109 220.191 0.287109C220.189 0.287109 220.188 0.287109 220.187 0.287109C220.186 0.287109 220.185 0.287109 220.184 0.287109C220.182 0.287109 220.181 0.287109 220.18 0.287109C220.179 0.287109 220.178 0.287109 220.177 0.287109C220.175 0.287109 220.174 0.287109 220.173 0.287109C220.172 0.287109 220.171 0.287109 220.17 0.287109C220.168 0.287109 220.167 0.287109 220.166 0.287109C220.165 0.287109 220.164 0.287109 220.163 0.287109C220.161 0.287109 220.16 0.287109 220.159 0.287109C220.158 0.287109 220.157 0.287109 220.156 0.287109C220.154 0.287109 220.153 0.287109 220.152 0.287109C220.151 0.287109 220.15 0.287109 220.149 0.287109C220.148 0.287109 220.146 0.287109 220.145 0.287109C220.144 0.287109 220.143 0.287109 220.142 0.287109C220.141 0.287109 220.139 0.287109 220.138 0.287109C220.137 0.287109 220.136 0.287109 220.135 0.287109C220.134 0.287109 220.133 0.287109 220.131 0.287109C220.13 0.287109 220.129 0.287109 220.128 0.287109C220.127 0.287109 220.126 0.287109 220.125 0.287109C220.123 0.287109 220.122 0.287109 220.121 0.287109C220.12 0.287109 220.119 0.287109 220.118 0.287109C220.117 0.287109 220.115 0.287109 220.114 0.287109C220.113 0.287109 220.112 0.287109 220.111 0.287109C220.11 0.287109 220.109 0.287109 220.107 0.287109C220.106 0.287109 220.105 0.287109 220.104 0.287109C220.103 0.287109 220.102 0.287109 220.101 0.287109C220.1 0.287109 220.098 0.287109 220.097 0.287109C220.096 0.287109 220.095 0.287109 220.094 0.287109C220.093 0.287109 220.092 0.287109 220.09 0.287109C220.089 0.287109 220.088 0.287109 220.087 0.287109C220.086 0.287109 220.085 0.287109 220.084 0.287109C220.083 0.287109 220.081 0.287109 220.08 0.287109C220.079 0.287109 220.078 0.287109 220.077 0.287109C220.076 0.287109 220.075 0.287109 220.074 0.287109C220.073 0.287109 220.071 0.287109 220.07 0.287109C220.069 0.287109 220.068 0.287109 220.067 0.287109C220.066 0.287109 220.065 0.287109 220.064 0.287109C220.062 0.287109 220.061 0.287109 220.06 0.287109C220.059 0.287109 220.058 0.287109 220.057 0.287109C220.056 0.287109 220.055 0.287109 220.054 0.287109C220.052 0.287109 220.051 0.287109 220.05 0.287109C220.049 0.287109 220.048 0.287109 220.047 0.287109C220.046 0.287109 220.045 0.287109 220.044 0.287109C220.042 0.287109 220.041 0.287109 220.04 0.287109C220.039 0.287109 220.038 0.287109 220.037 0.287109C220.036 0.287109 220.035 0.287109 220.034 0.287109C220.033 0.287109 220.031 0.287109 220.03 0.287109C220.029 0.287109 220.028 0.287109 220.027 0.287109C220.026 0.287109 220.025 0.287109 220.024 0.287109C220.023 0.287109 220.022 0.287109 220.02 0.287109C220.019 0.287109 220.018 0.287109 220.017 0.287109C220.016 0.287109 220.015 0.287109 220.014 0.287109C220.013 0.287109 220.012 0.287109 220.011 0.287109C220.009 0.287109 220.008 0.287109 220.007 0.287109C220.006 0.287109 220.005 0.287109 220.004 0.287109C220.003 0.287109 220.002 0.287109 220.001 0.287109C220 0.287109 219.999 0.287109 219.998 0.287109C219.996 0.287109 219.995 0.287109 219.994 0.287109C219.993 0.287109 219.992 0.287109 219.991 0.287109C219.99 0.287109 219.989 0.287109 219.988 0.287109C219.987 0.287109 219.986 0.287109 219.985 0.287109C219.983 0.287109 219.982 0.287109 219.981 0.287109C219.98 0.287109 219.979 0.287109 219.978 0.287109C219.977 0.287109 219.976 0.287109 219.975 0.287109C219.974 0.287109 219.973 0.287109 219.972 0.287109C219.971 0.287109 219.969 0.287109 219.968 0.287109C219.967 0.287109 219.966 0.287109 219.965 0.287109C219.964 0.287109 219.963 0.287109 219.962 0.287109C219.961 0.287109 219.96 0.287109 219.959 0.287109C219.958 0.287109 219.957 0.287109 219.956 0.287109C219.955 0.287109 219.953 0.287109 219.952 0.287109C219.951 0.287109 219.95 0.287109 219.949 0.287109C219.948 0.287109 219.947 0.287109 219.946 0.287109C219.945 0.287109 219.944 0.287109 219.943 0.287109C219.942 0.287109 219.941 0.287109 219.94 0.287109C219.939 0.287109 219.938 0.287109 219.936 0.287109C219.935 0.287109 219.934 0.287109 219.933 0.287109C219.932 0.287109 219.931 0.287109 219.93 0.287109C219.929 0.287109 219.928 0.287109 219.927 0.287109C219.926 0.287109 219.925 0.287109 219.924 0.287109V1.28711ZM222.139 1.28711H223.055V0.287109H222.139V1.28711ZM223.055 1.28711C224.595 1.28711 225.813 1.52244 226.736 1.96292L227.167 1.06051C226.066 0.534855 224.686 0.287109 223.055 0.287109V1.28711ZM226.731 1.96071C227.568 2.37069 228.223 2.93794 228.71 3.6632L229.54 3.10633C228.951 2.22742 228.157 1.54597 227.171 1.06272L226.731 1.96071ZM228.712 3.66643C229.206 4.39118 229.445 5.15078 229.445 5.95508H230.445C230.445 4.93646 230.138 3.98251 229.538 3.1031L228.712 3.66643Z" fill="#C11D2A"/>
</svg>
