<svg xmlns="http://www.w3.org/2000/svg" width="141.578" height="141.578" viewBox="0 0 141.578 141.578"><defs><style>.a{fill:#c11d2a;}.a,.b{fill-rule:evenodd;}.b{fill:#fff200;}</style></defs><g transform="translate(-152.56 -18.711)"><g transform="translate(152.561 18.711)"><path class="a" d="M113.465,8.828a70.789,70.789,0,1,0,70.788,70.79,70.943,70.943,0,0,0-70.788-70.79" transform="translate(-42.675 -8.828)"/><path class="b" d="M114.223,26.6c4.588-6.392,11.469-10.931,23.871-13.033l-.025-.066c-76.646,8.228-43.844,63.974-43.5,64.686-.331-.447-16.54-19.427-45.2-16.7,26.059,6.114,57.388,33.676,23.439,30.846,13.672,7.468,34.737,14.208,43.448,10.727,23.965-10.158-19.822-51.7-2.039-76.456" transform="translate(-32.45 -1.702)"/><path class="b" d="M80.141,57.9l.219,5.475,5.2,2.185L80.272,67.5l-.481,5.472-3.5-4.3-5.474,1.253,3.067-4.633-2.856-4.717,5.389,1.478Zm63.865-8.766,1.7,5.288-4.058,3.744,5.659.051,2.373,4.964,1.8-5.3,5.551-.657-4.575-3.345,1.029-5.353-4.6,3.219Zm-18.083,9.143-.34,5.477-5.167,2.127,5.206,2,.422,5.469,3.554-4.262,5.458,1.314-3.011-4.656,2.913-4.689-5.414,1.4Zm-22.476,3.259-2.221,5.022-5.6.275,4.2,3.628-1.5,5.277,4.82-2.807L107.815,76l-1.209-5.4,4.362-3.433-5.574-.472ZM52.846,48.5,53.9,53.941l-4.48,3.251,5.61.7,1.758,5.2,2.434-5.045,5.582-.015-4.135-3.863,1.66-5.184L57.375,51.65Z" transform="translate(-32.375 53.694)"/></g></g></svg>