<svg width="404" height="361" viewBox="0 0 404 361" fill="none" xmlns="http://www.w3.org/2000/svg">
<g style="mix-blend-mode:multiply">
<path d="M192.743 360.7C293.639 360.7 375.431 353.806 375.431 345.303C375.431 336.8 293.639 329.906 192.743 329.906C91.847 329.906 10.0547 336.8 10.0547 345.303C10.0547 353.806 91.847 360.7 192.743 360.7Z" fill="#FCECDE"/>
</g>
<path d="M104.942 268.911C154.213 311.744 227.977 324.111 288.528 299.696C311.942 290.254 333.768 275.298 347.611 254.188C362.438 231.576 369.127 198.893 358.063 173.502C347.249 148.664 327.891 128.46 302.146 119.044C283.513 112.226 261.618 110.543 248.008 96.1046C234.467 81.7436 234.415 60.9875 225.155 44.3913C193.516 -12.3018 96.8724 17.3177 65.777 59.8311C54.0052 75.9181 47.5237 95.3451 44.7706 114.953C39.8341 150.07 49.5605 189.322 66.1827 220.141C76.099 238.515 89.174 255.215 104.942 268.92V268.911Z" fill="#FCF4ED"/>
<path d="M124.731 1.02666C115.1 4.14223 109.81 14.516 112.925 24.1475C116.041 33.779 126.414 39.0694 136.046 35.9539C145.677 32.8383 150.968 22.4646 147.852 12.833C144.737 3.20152 134.363 -2.08892 124.731 1.02666ZM142.32 13.8255C141.544 11.6507 140.516 9.63116 139.274 7.8533C142.536 8.58688 145.047 10.218 146.135 12.5828L142.32 13.8169V13.8255ZM140.879 14.2916L136.961 15.5602C135.942 12.5655 134.682 9.80377 133.293 7.48219C134.631 7.37863 135.916 7.38726 137.133 7.50809C138.652 9.38951 139.956 11.6852 140.888 14.2829L140.879 14.2916ZM124.783 19.5043C123.756 16.1471 123.204 13.0574 123.04 10.4511C124.334 9.77788 125.733 9.18238 127.217 8.69908C128.701 8.21578 130.186 7.87919 131.627 7.66343C133.025 9.86418 134.389 12.695 135.528 16.0177L124.792 19.4957L124.783 19.5043ZM135.986 17.4589C137.013 20.8162 137.565 23.9058 137.729 26.5122C136.434 27.1854 135.036 27.7809 133.552 28.2642C132.067 28.7475 130.583 29.0841 129.142 29.2998C127.743 27.0991 126.38 24.2683 125.241 20.9456L135.977 17.4676L135.986 17.4589ZM132.378 6.04955C132.076 5.60077 131.765 5.17788 131.455 4.78088C130.609 3.70208 129.763 2.83041 128.934 2.19176C131.265 2.56287 133.612 3.88332 135.675 5.91146C134.596 5.87694 133.491 5.92872 132.369 6.04955H132.378ZM130.695 6.28257C129.383 6.50696 128.071 6.83491 126.76 7.2578C125.448 7.68069 124.188 8.19852 122.997 8.77675C123.014 5.24692 123.843 2.89082 125.206 2.45067C126.57 2.01052 128.615 3.42591 130.704 6.28257H130.695ZM122.013 4.43566C121.719 5.43679 121.538 6.63641 121.495 8.00865C121.478 8.51784 121.478 9.03566 121.495 9.57938C120.52 10.1404 119.596 10.7531 118.742 11.409C119.225 8.55236 120.347 6.10996 122.022 4.44429L122.013 4.43566ZM121.59 11.2709C121.823 13.9636 122.427 16.9411 123.351 19.9704L119.432 21.239C118.664 18.5895 118.362 15.9659 118.492 13.5494C119.407 12.7381 120.442 11.97 121.581 11.2709H121.59ZM118 21.7051L114.185 22.9392C113.685 20.3846 114.755 17.5884 116.973 15.0856C117.007 17.2518 117.352 19.4871 118.008 21.7051H118ZM118.466 23.1464C119.243 25.3212 120.27 27.3407 121.512 29.1186C118.25 28.385 115.739 26.7539 114.651 24.3891L118.466 23.155V23.1464ZM119.907 22.6803L123.825 21.4117C124.844 24.4064 126.104 27.1681 127.493 29.4897C126.155 29.5933 124.87 29.5846 123.653 29.4552C122.134 27.5738 120.831 25.2781 119.898 22.6803H119.907ZM128.408 30.9137C128.71 31.3625 129.021 31.7854 129.331 32.1824C130.177 33.2612 131.023 34.1329 131.852 34.7715C129.521 34.4004 127.174 33.08 125.111 31.0518C126.19 31.0863 127.295 31.0345 128.417 30.9137H128.408ZM130.091 30.6807C131.403 30.4563 132.715 30.1284 134.026 29.7055C135.338 29.2826 136.598 28.7648 137.789 28.1865C137.772 31.725 136.943 34.0725 135.58 34.5126C134.216 34.9528 132.171 33.5374 130.082 30.6807H130.091ZM138.773 32.5276C139.067 31.5265 139.248 30.3269 139.291 28.9546C139.308 28.4454 139.308 27.9276 139.291 27.3839C140.266 26.8229 141.19 26.2102 142.044 25.5542C141.561 28.4109 140.439 30.8533 138.765 32.519L138.773 32.5276ZM139.196 25.6923C138.963 22.9996 138.359 20.0222 137.435 16.9929L141.354 15.7242C142.122 18.3738 142.424 20.9974 142.294 23.4139C141.38 24.2252 140.344 24.9933 139.205 25.6923H139.196ZM142.786 15.2582L146.601 14.024C147.101 16.5786 146.031 19.3749 143.813 21.8777C143.779 19.7115 143.434 17.4762 142.778 15.2582H142.786ZM143.399 7.77563C142.407 7.24054 141.267 6.80039 140.016 6.4897C139.343 6.31709 138.635 6.18763 137.919 6.0927C137.056 5.09157 136.124 4.19401 135.122 3.4259C134.259 2.76136 133.379 2.20902 132.499 1.7775C136.745 2.32121 140.663 4.46156 143.408 7.78426L143.399 7.77563ZM118.897 6.179C118.431 7.05067 118.043 8.00865 117.732 9.05292C117.378 10.2612 117.145 11.5385 117.033 12.8589C116.507 13.3595 116.015 13.8773 115.566 14.4124C114.737 15.4049 114.073 16.4233 113.581 17.4417C113.849 13.1524 115.773 9.11334 118.889 6.179H118.897ZM117.396 29.1876C118.388 29.7227 119.527 30.1629 120.779 30.4736C121.452 30.6462 122.16 30.7756 122.876 30.8706C123.739 31.8717 124.671 32.7693 125.672 33.5374C126.535 34.2019 127.416 34.7543 128.296 35.1858C124.05 34.6421 120.131 32.5017 117.387 29.179L117.396 29.1876ZM141.897 30.7843C142.363 29.9126 142.752 28.9546 143.062 27.9103C143.416 26.7021 143.649 25.4248 143.762 24.1043C144.288 23.6038 144.78 23.086 145.229 22.5509C146.057 21.5584 146.722 20.54 147.214 19.5216C146.946 23.8109 145.022 27.8499 141.906 30.7843H141.897Z" fill="#F2C5A0"/>
<path d="M55.2168 113.156L56.0021 107.891L51.8682 106.7C51.7732 106.113 51.6352 105.544 51.4367 104.974L54.535 101.988L51.3763 97.7073L47.6134 99.7872C47.1301 99.4333 46.6209 99.1313 46.0858 98.8724L46.1635 94.5744L40.8989 93.7891L39.7079 97.923C39.1211 98.018 38.5515 98.156 37.9819 98.3545L34.9958 95.2562L30.7151 98.415L32.795 102.178C32.4412 102.661 32.1391 103.17 31.8802 103.705L27.5822 103.628L26.7969 108.892L30.9308 110.083C31.0258 110.67 31.1639 111.24 31.3624 111.809L28.264 114.795L31.4228 119.076L35.1856 116.996C35.6689 117.35 36.1781 117.652 36.7132 117.911L36.6355 122.209L41.9001 122.994L43.0911 118.86C43.6779 118.765 44.2475 118.627 44.8172 118.429L47.8033 121.527L52.0839 118.36L50.004 114.597C50.3579 114.114 50.6599 113.604 50.9188 113.069L55.2168 113.147V113.156ZM43.652 111.438C41.9691 112.681 39.6044 112.327 38.3616 110.644C37.1188 108.961 37.4727 106.597 39.1556 105.354C40.8385 104.111 43.2033 104.465 44.446 106.148C45.6888 107.831 45.335 110.195 43.652 111.438Z" fill="#F2C5A0"/>
<path d="M29.7078 99.9024L28.1889 98.0987C28.327 97.7966 28.4392 97.4945 28.5168 97.1838L30.8384 96.7696L30.709 93.8525L28.3615 93.654C28.2493 93.352 28.1112 93.0585 27.9472 92.7737L29.2936 90.8405L27.1446 88.8728L25.3409 90.3917C25.0388 90.2536 24.7367 90.1414 24.426 90.0638L24.0118 87.7422L21.0947 87.8717L20.8962 90.2191C20.5941 90.3313 20.3007 90.4694 20.0159 90.6334L18.0827 89.287L16.115 91.436L17.6339 93.2398C17.4958 93.5418 17.3836 93.8439 17.306 94.1546L14.9844 94.5688L15.1138 97.4859L17.4613 97.6844C17.5735 97.9865 17.7116 98.2799 17.8756 98.5647L16.5292 100.498L18.6782 102.466L20.4819 100.947C20.784 101.085 21.0861 101.197 21.3968 101.275L21.811 103.596L24.7281 103.467L24.9266 101.119C25.2287 101.007 25.5221 100.869 25.8069 100.705L27.7401 102.051L29.7078 99.9024ZM24.4433 97.063C23.6666 97.9088 22.3547 97.9692 21.509 97.1925C20.6632 96.4157 20.6028 95.1039 21.3795 94.2581C22.1562 93.4124 23.4681 93.352 24.3138 94.1287C25.1596 94.9054 25.22 96.2172 24.4433 97.063Z" fill="#F2C5A0"/>
<path d="M400.288 224.582C404.525 220.897 404.888 214.389 401.004 210.264C397.362 206.38 391.088 206.122 387.118 209.677C383.355 213.052 382.759 218.687 385.599 222.761L383.148 224.893L382.319 223.935L375.165 230.2C374.198 231.046 374.094 232.513 374.94 233.488C375.786 234.464 377.262 234.567 378.237 233.713L385.383 227.464L384.554 226.507L387.005 224.375C390.673 227.784 396.421 227.956 400.288 224.591V224.582ZM388.714 211.257C391.925 208.469 396.801 208.814 399.589 212.016C402.376 215.227 402.031 220.103 398.829 222.89C395.627 225.678 390.742 225.333 387.955 222.131C385.167 218.92 385.512 214.044 388.714 211.257Z" fill="#F2C5A0"/>
<path d="M375.234 42.1575C367.509 44.2547 362.935 52.2464 365.032 59.9706C367.13 67.6948 375.121 72.269 382.846 70.1718C390.57 68.0746 395.144 60.0828 393.047 52.3586C390.95 44.6344 382.958 40.0603 375.234 42.1575ZM382.129 67.5309C375.864 69.231 369.374 65.52 367.673 59.2543C365.973 52.9886 369.684 46.4986 375.95 44.7984C382.216 43.0982 388.706 46.8093 390.406 53.0749C392.106 59.3406 388.395 65.8307 382.129 67.5309Z" fill="#F2C5A0"/>
<path d="M383.883 49.3906L377.911 59.2724L373.035 56.2L371.576 58.513L378.808 63.0698L386.222 50.806L383.883 49.3906Z" fill="#F2C5A0"/>
<path d="M21.4526 207.537L20.7277 207.364L21.2973 204.956C22.1776 201.228 19.8646 197.474 16.1363 196.593C12.408 195.713 8.65373 198.026 7.77343 201.754L7.20382 204.162L6.47887 203.989C4.87362 203.61 3.25973 204.602 2.87999 206.207L0.713763 215.356C0.334026 216.961 1.32652 218.575 2.93178 218.955L17.9055 222.502C19.5108 222.881 21.1247 221.889 21.5044 220.284L23.6706 211.135C24.0504 209.53 23.0579 207.916 21.4526 207.537ZM10.3798 202.367C10.9235 200.071 13.2278 198.647 15.5235 199.191C17.8192 199.735 19.2432 202.039 18.6995 204.335L18.1299 206.743L9.8102 204.775L10.3798 202.367ZM13.5472 214.424L12.7014 217.979L9.62033 217.254L10.4661 213.699C10.1123 213.172 9.95692 212.508 10.1123 211.843C10.4143 210.583 11.6744 209.798 12.943 210.1C14.2031 210.402 14.9884 211.662 14.6864 212.931C14.531 213.595 14.0995 214.122 13.5385 214.432L13.5472 214.424Z" fill="#F2C5A0"/>
<path d="M267.24 1.875L253 27.8352L272.582 38.5801L286.823 12.6198L267.24 1.875ZM273.471 31.1666L258.782 23.1058L259.542 21.7163L274.231 29.7771L273.471 31.1666ZM275.068 28.2581L260.379 20.1973L261.138 18.8078L275.827 26.8686L275.068 28.2581ZM276.665 25.3497L261.976 17.2889L262.735 15.8994L277.424 23.9602L276.665 25.3497ZM278.261 22.4412L263.572 14.3804L264.332 12.991L279.021 21.0517L278.261 22.4412ZM279.858 19.5328L265.169 11.472L265.928 10.0825L280.617 18.1433L279.858 19.5328Z" fill="#F2C5A0"/>
<path d="M248.673 60.0234H152.027C139.431 60.0234 129.221 70.2288 129.221 82.8176V328.937C129.221 341.526 139.431 351.731 152.027 351.731H248.673C261.269 351.731 271.48 341.526 271.48 328.937V82.8176C271.48 70.2288 261.269 60.0234 248.673 60.0234Z" fill="#5E465D"/>
<g style="mix-blend-mode:screen">
<path d="M248.491 60.7031H152.198C139.881 60.7031 129.895 70.6845 129.895 82.9949V328.754C129.895 341.064 139.881 351.046 152.198 351.046H248.491C260.808 351.046 270.795 341.064 270.795 328.754V82.9949C270.795 70.6845 260.808 60.7031 248.491 60.7031ZM270.115 328.578C270.115 340.616 260.353 350.374 248.308 350.374H152.381C140.336 350.374 130.574 340.616 130.574 328.578V83.1782C130.574 71.1394 140.336 61.3821 152.381 61.3821H248.308C260.353 61.3821 270.115 71.1394 270.115 83.1782V328.578Z" fill="#706F6F"/>
</g>
<path d="M248.105 62.25H152.607C141.024 62.25 131.635 71.6345 131.635 83.2109V328.542C131.635 340.119 141.024 349.503 152.607 349.503H248.105C259.687 349.503 269.077 340.119 269.077 328.542V83.2109C269.077 71.6345 259.687 62.25 248.105 62.25Z" fill="#1D1D1B"/>
<path d="M237.105 66.9062H248.213C257.241 66.9062 264.551 74.2191 264.551 83.2363V328.527C264.551 337.551 257.235 344.857 248.213 344.857H152.497C143.468 344.857 136.158 337.544 136.158 328.527V83.2363C136.158 74.2123 143.475 66.9062 152.497 66.9062H237.105Z" fill="white"/>
<path d="M272.306 134.555H271.471V169.714H272.306V134.555Z" fill="url(#paint0_linear_2836_211)"/>
<path d="M272.3 169.722V134.57L272.714 135.025C272.504 138.767 272.517 165.526 272.714 169.261L272.3 169.716V169.722Z" fill="url(#paint1_linear_2836_211)"/>
<path d="M128.712 127.156H128.236V149.428H128.712V127.156Z" fill="url(#paint2_linear_2836_211)"/>
<path d="M128.238 149.429V127.164L128 127.456C128.122 129.826 128.109 146.781 128 149.143L128.238 149.435V149.429Z" fill="url(#paint3_linear_2836_211)"/>
<path d="M129.218 127.156H128.708V149.428H129.218V127.156Z" fill="url(#paint4_linear_2836_211)"/>
<path d="M128.712 155.18H128.236V177.451H128.712V155.18Z" fill="url(#paint5_linear_2836_211)"/>
<path d="M128.238 177.452V155.188L128 155.479C128.122 157.849 128.109 174.804 128 177.167L128.238 177.459V177.452Z" fill="url(#paint6_linear_2836_211)"/>
<path d="M129.218 155.188H128.708V177.459H129.218V155.188Z" fill="url(#paint7_linear_2836_211)"/>
<path d="M128.712 106.117H128.236V117.552H128.712V106.117Z" fill="url(#paint8_linear_2836_211)"/>
<path d="M128.238 117.545V106.117L128 106.389C128.122 108.63 128.109 115.033 128 117.266L128.238 117.538V117.545Z" fill="url(#paint9_linear_2836_211)"/>
<path d="M129.218 106.117H128.708V117.552H129.218V106.117Z" fill="url(#paint10_linear_2836_211)"/>
<path d="M211.095 80.4267H188.371C185.816 80.4267 183.744 78.3558 183.744 75.7959C183.744 73.2428 185.816 71.1719 188.371 71.1719H211.095C213.65 71.1719 215.722 73.2428 215.722 75.7959C215.722 78.349 213.65 80.4267 211.095 80.4267Z" fill="#1D1D1B"/>
<path d="M209.814 77.8281C210.932 77.8281 211.838 76.9222 211.838 75.8047C211.838 74.6872 210.932 73.7812 209.814 73.7812C208.695 73.7812 207.789 74.6872 207.789 75.8047C207.789 76.9222 208.695 77.8281 209.814 77.8281Z" fill="url(#paint11_linear_2836_211)"/>
<path d="M209.814 76.9571C210.452 76.9571 210.969 76.4403 210.969 75.8027C210.969 75.1652 210.452 74.6484 209.814 74.6484C209.176 74.6484 208.659 75.1652 208.659 75.8027C208.659 76.4403 209.176 76.9571 209.814 76.9571Z" fill="url(#paint12_linear_2836_211)"/>
<path d="M210.816 75.8086C210.816 76.3654 210.361 76.8203 209.804 76.8203C209.247 76.8203 208.792 76.3654 208.792 75.8086C208.792 75.2518 209.24 74.7969 209.804 74.7969C210.368 74.7969 210.816 75.245 210.816 75.8086Z" fill="url(#paint13_linear_2836_211)"/>
<path style="mix-blend-mode:multiply" d="M210.816 75.8086C210.816 76.3654 210.361 76.8203 209.804 76.8203C209.247 76.8203 208.792 76.3654 208.792 75.8086C208.792 75.2518 209.24 74.7969 209.804 74.7969C210.368 74.7969 210.816 75.245 210.816 75.8086Z" fill="url(#paint14_radial_2836_211)"/>
<path style="mix-blend-mode:screen" d="M210.728 76.3364C210.728 76.1395 210.565 75.9766 210.368 75.9766C210.171 75.9766 210.008 76.1395 210.008 76.3364C210.008 76.5333 210.171 76.6963 210.368 76.6963C210.565 76.6963 210.728 76.5333 210.728 76.3364Z" fill="url(#paint15_radial_2836_211)"/>
<rect x="245" y="297.438" width="89.7561" height="22.439" rx="4" transform="rotate(-180 245 297.438)" fill="url(#paint16_linear_2836_211)"/>
<path d="M177.91 284.95C177.857 284.437 177.67 284.067 177.35 283.84C177.037 283.607 176.633 283.49 176.14 283.49C175.94 283.49 175.743 283.51 175.55 283.55C175.357 283.59 175.183 283.657 175.03 283.75C174.883 283.843 174.763 283.97 174.67 284.13C174.583 284.283 174.54 284.477 174.54 284.71C174.54 284.93 174.603 285.11 174.73 285.25C174.863 285.383 175.037 285.493 175.25 285.58C175.47 285.667 175.717 285.74 175.99 285.8C176.263 285.853 176.54 285.913 176.82 285.98C177.107 286.047 177.387 286.127 177.66 286.22C177.933 286.307 178.177 286.427 178.39 286.58C178.61 286.733 178.783 286.927 178.91 287.16C179.043 287.393 179.11 287.687 179.11 288.04C179.11 288.42 179.023 288.747 178.85 289.02C178.683 289.287 178.467 289.507 178.2 289.68C177.933 289.847 177.633 289.967 177.3 290.04C176.973 290.12 176.647 290.16 176.32 290.16C175.92 290.16 175.54 290.11 175.18 290.01C174.827 289.91 174.513 289.76 174.24 289.56C173.973 289.353 173.76 289.093 173.6 288.78C173.447 288.46 173.37 288.083 173.37 287.65H174.27C174.27 287.95 174.327 288.21 174.44 288.43C174.56 288.643 174.713 288.82 174.9 288.96C175.093 289.1 175.317 289.203 175.57 289.27C175.823 289.337 176.083 289.37 176.35 289.37C176.563 289.37 176.777 289.35 176.99 289.31C177.21 289.27 177.407 289.203 177.58 289.11C177.753 289.01 177.893 288.877 178 288.71C178.107 288.543 178.16 288.33 178.16 288.07C178.16 287.823 178.093 287.623 177.96 287.47C177.833 287.317 177.66 287.193 177.44 287.1C177.227 287 176.983 286.92 176.71 286.86C176.437 286.8 176.157 286.74 175.87 286.68C175.59 286.613 175.313 286.54 175.04 286.46C174.767 286.373 174.52 286.263 174.3 286.13C174.087 285.99 173.913 285.813 173.78 285.6C173.653 285.38 173.59 285.107 173.59 284.78C173.59 284.42 173.663 284.11 173.81 283.85C173.957 283.583 174.15 283.367 174.39 283.2C174.637 283.027 174.913 282.9 175.22 282.82C175.533 282.733 175.853 282.69 176.18 282.69C176.547 282.69 176.887 282.733 177.2 282.82C177.513 282.907 177.787 283.043 178.02 283.23C178.26 283.417 178.447 283.653 178.58 283.94C178.72 284.22 178.797 284.557 178.81 284.95H177.91ZM185.284 285.01C185.178 284.503 184.941 284.123 184.574 283.87C184.214 283.617 183.784 283.49 183.284 283.49C182.858 283.49 182.491 283.57 182.184 283.73C181.884 283.89 181.634 284.107 181.434 284.38C181.241 284.647 181.098 284.953 181.004 285.3C180.911 285.647 180.864 286.007 180.864 286.38C180.864 286.787 180.911 287.173 181.004 287.54C181.098 287.9 181.241 288.217 181.434 288.49C181.634 288.757 181.888 288.97 182.194 289.13C182.501 289.29 182.868 289.37 183.294 289.37C183.608 289.37 183.884 289.32 184.124 289.22C184.371 289.113 184.581 288.97 184.754 288.79C184.934 288.603 185.074 288.383 185.174 288.13C185.274 287.877 185.334 287.603 185.354 287.31H186.304C186.211 288.21 185.901 288.91 185.374 289.41C184.848 289.91 184.128 290.16 183.214 290.16C182.661 290.16 182.178 290.067 181.764 289.88C181.351 289.687 181.008 289.423 180.734 289.09C180.461 288.757 180.254 288.363 180.114 287.91C179.981 287.457 179.914 286.97 179.914 286.45C179.914 285.93 179.988 285.443 180.134 284.99C180.281 284.53 180.494 284.13 180.774 283.79C181.061 283.45 181.414 283.183 181.834 282.99C182.261 282.79 182.748 282.69 183.294 282.69C183.668 282.69 184.021 282.74 184.354 282.84C184.688 282.94 184.984 283.087 185.244 283.28C185.504 283.473 185.721 283.717 185.894 284.01C186.068 284.297 186.181 284.63 186.234 285.01H185.284ZM188.711 287.05H191.131L189.941 283.72H189.921L188.711 287.05ZM189.421 282.86H190.471L193.261 290H192.211L191.431 287.85H188.411L187.611 290H186.641L189.421 282.86ZM193.956 282.86H194.966L198.726 288.65H198.746V282.86H199.646V290H198.606L194.876 284.27H194.856V290H193.956V282.86ZM203.956 282.86H204.966L208.726 288.65H208.746V282.86H209.646V290H208.606L204.876 284.27H204.856V290H203.956V282.86ZM211.732 286.43C211.732 286.79 211.779 287.147 211.872 287.5C211.966 287.847 212.112 288.16 212.312 288.44C212.512 288.72 212.769 288.947 213.082 289.12C213.396 289.287 213.769 289.37 214.202 289.37C214.636 289.37 215.009 289.287 215.322 289.12C215.636 288.947 215.892 288.72 216.092 288.44C216.292 288.16 216.439 287.847 216.532 287.5C216.626 287.147 216.672 286.79 216.672 286.43C216.672 286.07 216.626 285.717 216.532 285.37C216.439 285.017 216.292 284.7 216.092 284.42C215.892 284.14 215.636 283.917 215.322 283.75C215.009 283.577 214.636 283.49 214.202 283.49C213.769 283.49 213.396 283.577 213.082 283.75C212.769 283.917 212.512 284.14 212.312 284.42C212.112 284.7 211.966 285.017 211.872 285.37C211.779 285.717 211.732 286.07 211.732 286.43ZM210.782 286.43C210.782 285.943 210.852 285.477 210.992 285.03C211.139 284.577 211.356 284.177 211.642 283.83C211.929 283.483 212.286 283.207 212.712 283C213.139 282.793 213.636 282.69 214.202 282.69C214.769 282.69 215.266 282.793 215.692 283C216.119 283.207 216.476 283.483 216.762 283.83C217.049 284.177 217.262 284.577 217.402 285.03C217.549 285.477 217.622 285.943 217.622 286.43C217.622 286.917 217.549 287.387 217.402 287.84C217.262 288.287 217.049 288.683 216.762 289.03C216.476 289.377 216.119 289.653 215.692 289.86C215.266 290.06 214.769 290.16 214.202 290.16C213.636 290.16 213.139 290.06 212.712 289.86C212.286 289.653 211.929 289.377 211.642 289.03C211.356 288.683 211.139 288.287 210.992 287.84C210.852 287.387 210.782 286.917 210.782 286.43ZM225.23 290H224.24L222.61 284H222.59L220.94 290H219.95L218.12 282.86H219.09L220.49 288.8H220.51L222.11 282.86H223.14L224.72 288.8H224.74L226.19 282.86H227.14L225.23 290Z" fill="white"/>
<path d="M162.26 130.18C162.252 130.62 162.32 130.988 162.464 131.284C162.608 131.58 162.804 131.816 163.052 131.992C163.308 132.168 163.608 132.296 163.952 132.376C164.296 132.448 164.664 132.484 165.056 132.484C165.28 132.484 165.524 132.452 165.788 132.388C166.052 132.324 166.296 132.224 166.52 132.088C166.752 131.944 166.944 131.764 167.096 131.548C167.248 131.324 167.324 131.056 167.324 130.744C167.324 130.504 167.268 130.296 167.156 130.12C167.052 129.944 166.912 129.796 166.736 129.676C166.568 129.556 166.38 129.46 166.172 129.388C165.964 129.308 165.76 129.244 165.56 129.196L163.652 128.728C163.404 128.664 163.16 128.584 162.92 128.488C162.688 128.392 162.484 128.264 162.308 128.104C162.132 127.944 161.988 127.748 161.876 127.516C161.772 127.284 161.72 127 161.72 126.664C161.72 126.456 161.76 126.212 161.84 125.932C161.92 125.652 162.068 125.388 162.284 125.14C162.508 124.892 162.812 124.684 163.196 124.516C163.58 124.34 164.072 124.252 164.672 124.252C165.096 124.252 165.5 124.308 165.884 124.42C166.268 124.532 166.604 124.7 166.892 124.924C167.18 125.148 167.408 125.428 167.576 125.764C167.752 126.092 167.84 126.476 167.84 126.916H167.024C167.008 126.588 166.932 126.304 166.796 126.064C166.668 125.816 166.496 125.612 166.28 125.452C166.072 125.284 165.828 125.16 165.548 125.08C165.276 124.992 164.988 124.948 164.684 124.948C164.404 124.948 164.132 124.98 163.868 125.044C163.612 125.1 163.384 125.196 163.184 125.332C162.992 125.46 162.836 125.632 162.716 125.848C162.596 126.064 162.536 126.332 162.536 126.652C162.536 126.852 162.568 127.028 162.632 127.18C162.704 127.324 162.8 127.448 162.92 127.552C163.04 127.656 163.176 127.74 163.328 127.804C163.488 127.868 163.656 127.92 163.832 127.96L165.92 128.476C166.224 128.556 166.508 128.656 166.772 128.776C167.044 128.888 167.28 129.032 167.48 129.208C167.688 129.376 167.848 129.584 167.96 129.832C168.08 130.08 168.14 130.38 168.14 130.732C168.14 130.828 168.128 130.956 168.104 131.116C168.088 131.276 168.04 131.448 167.96 131.632C167.888 131.808 167.78 131.988 167.636 132.172C167.5 132.356 167.308 132.524 167.06 132.676C166.82 132.82 166.52 132.936 166.16 133.024C165.8 133.12 165.368 133.168 164.864 133.168C164.36 133.168 163.892 133.112 163.46 133C163.028 132.88 162.66 132.7 162.356 132.46C162.052 132.22 161.816 131.912 161.648 131.536C161.488 131.16 161.42 130.708 161.444 130.18H162.26ZM173.659 128.752C173.555 128.288 173.363 127.924 173.083 127.66C172.803 127.396 172.411 127.264 171.907 127.264C171.547 127.264 171.231 127.34 170.959 127.492C170.687 127.644 170.459 127.844 170.275 128.092C170.099 128.34 169.963 128.624 169.867 128.944C169.779 129.256 169.735 129.576 169.735 129.904C169.735 130.232 169.779 130.556 169.867 130.876C169.963 131.188 170.099 131.468 170.275 131.716C170.459 131.964 170.687 132.164 170.959 132.316C171.231 132.468 171.547 132.544 171.907 132.544C172.139 132.544 172.359 132.5 172.567 132.412C172.775 132.324 172.959 132.204 173.119 132.052C173.279 131.892 173.411 131.704 173.515 131.488C173.619 131.272 173.683 131.036 173.707 130.78H174.463C174.359 131.532 174.083 132.12 173.635 132.544C173.187 132.96 172.611 133.168 171.907 133.168C171.435 133.168 171.015 133.084 170.647 132.916C170.287 132.74 169.983 132.504 169.735 132.208C169.487 131.912 169.299 131.568 169.171 131.176C169.043 130.776 168.979 130.352 168.979 129.904C168.979 129.456 169.043 129.036 169.171 128.644C169.299 128.244 169.487 127.896 169.735 127.6C169.983 127.304 170.287 127.068 170.647 126.892C171.015 126.716 171.435 126.628 171.907 126.628C172.571 126.628 173.131 126.804 173.587 127.156C174.051 127.508 174.327 128.04 174.415 128.752H173.659ZM175.441 128.704C175.465 128.344 175.541 128.032 175.669 127.768C175.797 127.504 175.969 127.288 176.185 127.12C176.409 126.952 176.669 126.828 176.965 126.748C177.261 126.668 177.589 126.628 177.949 126.628C178.221 126.628 178.493 126.656 178.765 126.712C179.037 126.76 179.281 126.856 179.497 127C179.713 127.144 179.889 127.348 180.025 127.612C180.161 127.868 180.229 128.204 180.229 128.62V131.908C180.229 132.212 180.377 132.364 180.673 132.364C180.761 132.364 180.841 132.348 180.913 132.316V132.952C180.825 132.968 180.745 132.98 180.673 132.988C180.609 132.996 180.525 133 180.421 133C180.229 133 180.073 132.976 179.953 132.928C179.841 132.872 179.753 132.796 179.689 132.7C179.625 132.604 179.581 132.492 179.557 132.364C179.541 132.228 179.533 132.08 179.533 131.92H179.509C179.373 132.12 179.233 132.3 179.089 132.46C178.953 132.612 178.797 132.74 178.621 132.844C178.453 132.948 178.257 133.028 178.033 133.084C177.817 133.14 177.557 133.168 177.253 133.168C176.965 133.168 176.693 133.132 176.437 133.06C176.189 132.996 175.969 132.892 175.777 132.748C175.593 132.596 175.445 132.408 175.333 132.184C175.229 131.952 175.177 131.68 175.177 131.368C175.177 130.936 175.273 130.6 175.465 130.36C175.657 130.112 175.909 129.924 176.221 129.796C176.541 129.668 176.897 129.58 177.289 129.532C177.689 129.476 178.093 129.424 178.501 129.376C178.661 129.36 178.801 129.34 178.921 129.316C179.041 129.292 179.141 129.252 179.221 129.196C179.301 129.132 179.361 129.048 179.401 128.944C179.449 128.84 179.473 128.704 179.473 128.536C179.473 128.28 179.429 128.072 179.341 127.912C179.261 127.744 179.145 127.612 178.993 127.516C178.849 127.42 178.677 127.356 178.477 127.324C178.285 127.284 178.077 127.264 177.853 127.264C177.373 127.264 176.981 127.38 176.677 127.612C176.373 127.836 176.213 128.2 176.197 128.704H175.441ZM179.473 129.616H179.449C179.401 129.704 179.309 129.768 179.173 129.808C179.037 129.848 178.917 129.876 178.813 129.892C178.493 129.948 178.161 130 177.817 130.048C177.481 130.088 177.173 130.152 176.893 130.24C176.613 130.328 176.381 130.456 176.197 130.624C176.021 130.784 175.933 131.016 175.933 131.32C175.933 131.512 175.969 131.684 176.041 131.836C176.121 131.98 176.225 132.108 176.353 132.22C176.481 132.324 176.629 132.404 176.797 132.46C176.965 132.516 177.137 132.544 177.313 132.544C177.601 132.544 177.877 132.5 178.141 132.412C178.405 132.324 178.633 132.196 178.825 132.028C179.025 131.86 179.181 131.656 179.293 131.416C179.413 131.176 179.473 130.904 179.473 130.6V129.616ZM181.724 126.808H182.48V127.876H182.504C182.648 127.5 182.904 127.2 183.272 126.976C183.64 126.744 184.044 126.628 184.484 126.628C184.916 126.628 185.276 126.684 185.564 126.796C185.86 126.908 186.096 127.068 186.272 127.276C186.448 127.476 186.572 127.724 186.644 128.02C186.716 128.316 186.752 128.648 186.752 129.016V133H185.996V129.136C185.996 128.872 185.972 128.628 185.924 128.404C185.876 128.172 185.792 127.972 185.672 127.804C185.552 127.636 185.388 127.504 185.18 127.408C184.98 127.312 184.728 127.264 184.424 127.264C184.12 127.264 183.848 127.32 183.608 127.432C183.376 127.536 183.176 127.684 183.008 127.876C182.848 128.06 182.72 128.284 182.624 128.548C182.536 128.804 182.488 129.084 182.48 129.388V133H181.724V126.808ZM198.805 133.54L197.473 132.544C196.889 132.96 196.149 133.168 195.253 133.168C194.581 133.168 193.989 133.048 193.477 132.808C192.973 132.56 192.553 132.232 192.217 131.824C191.881 131.416 191.629 130.944 191.461 130.408C191.293 129.872 191.209 129.308 191.209 128.716C191.209 128.124 191.293 127.56 191.461 127.024C191.629 126.488 191.881 126.016 192.217 125.608C192.553 125.192 192.973 124.864 193.477 124.624C193.989 124.376 194.581 124.252 195.253 124.252C195.925 124.252 196.513 124.376 197.017 124.624C197.521 124.864 197.941 125.192 198.277 125.608C198.613 126.016 198.865 126.488 199.033 127.024C199.201 127.56 199.285 128.124 199.285 128.716C199.285 129.388 199.177 130.02 198.961 130.612C198.745 131.196 198.421 131.696 197.989 132.112L199.213 133.036L198.805 133.54ZM197.377 131.644C197.761 131.284 198.037 130.844 198.205 130.324C198.381 129.804 198.469 129.268 198.469 128.716C198.469 128.244 198.405 127.784 198.277 127.336C198.157 126.888 197.965 126.488 197.701 126.136C197.445 125.776 197.113 125.488 196.705 125.272C196.305 125.056 195.821 124.948 195.253 124.948C194.685 124.948 194.197 125.056 193.789 125.272C193.381 125.488 193.045 125.776 192.781 126.136C192.525 126.488 192.333 126.888 192.205 127.336C192.085 127.784 192.025 128.244 192.025 128.716C192.025 129.18 192.085 129.64 192.205 130.096C192.333 130.544 192.525 130.948 192.781 131.308C193.045 131.66 193.381 131.944 193.789 132.16C194.197 132.376 194.685 132.484 195.253 132.484C195.861 132.484 196.389 132.344 196.837 132.064L195.709 131.212L196.129 130.696L197.377 131.644ZM201.376 128.5H204.424C204.672 128.5 204.908 128.464 205.132 128.392C205.356 128.312 205.552 128.2 205.72 128.056C205.888 127.912 206.02 127.74 206.116 127.54C206.22 127.332 206.272 127.096 206.272 126.832C206.272 126.304 206.12 125.888 205.816 125.584C205.512 125.28 205.048 125.128 204.424 125.128H201.376V128.5ZM200.56 124.432H204.484C204.836 124.432 205.168 124.476 205.48 124.564C205.8 124.652 206.076 124.788 206.308 124.972C206.548 125.148 206.736 125.38 206.872 125.668C207.016 125.948 207.088 126.28 207.088 126.664C207.088 127.208 206.948 127.68 206.668 128.08C206.388 128.48 205.972 128.736 205.42 128.848V128.872C205.7 128.912 205.932 128.988 206.116 129.1C206.3 129.204 206.448 129.34 206.56 129.508C206.68 129.676 206.764 129.872 206.812 130.096C206.868 130.312 206.904 130.548 206.92 130.804C206.928 130.948 206.936 131.124 206.944 131.332C206.952 131.54 206.968 131.752 206.992 131.968C207.016 132.176 207.052 132.376 207.1 132.568C207.156 132.752 207.228 132.896 207.316 133H206.416C206.368 132.92 206.328 132.824 206.296 132.712C206.272 132.592 206.252 132.472 206.236 132.352C206.228 132.224 206.22 132.1 206.212 131.98C206.204 131.86 206.196 131.756 206.188 131.668C206.172 131.364 206.144 131.064 206.104 130.768C206.072 130.464 205.996 130.196 205.876 129.964C205.764 129.724 205.596 129.532 205.372 129.388C205.156 129.244 204.856 129.18 204.472 129.196H201.376V133H200.56V124.432ZM218.167 127.024C218.095 126.696 217.975 126.404 217.807 126.148C217.647 125.884 217.447 125.664 217.207 125.488C216.975 125.312 216.715 125.18 216.427 125.092C216.147 124.996 215.851 124.948 215.539 124.948C214.971 124.948 214.483 125.056 214.075 125.272C213.667 125.488 213.331 125.776 213.067 126.136C212.811 126.488 212.619 126.888 212.491 127.336C212.371 127.784 212.311 128.244 212.311 128.716C212.311 129.18 212.371 129.64 212.491 130.096C212.619 130.544 212.811 130.948 213.067 131.308C213.331 131.66 213.667 131.944 214.075 132.16C214.483 132.376 214.971 132.484 215.539 132.484C215.939 132.484 216.299 132.412 216.619 132.268C216.939 132.124 217.215 131.928 217.447 131.68C217.679 131.432 217.867 131.144 218.011 130.816C218.155 130.48 218.247 130.12 218.287 129.736H219.103C219.047 130.264 218.923 130.74 218.731 131.164C218.539 131.588 218.291 131.948 217.987 132.244C217.683 132.54 217.323 132.768 216.907 132.928C216.499 133.088 216.043 133.168 215.539 133.168C214.867 133.168 214.275 133.048 213.763 132.808C213.259 132.56 212.839 132.232 212.503 131.824C212.167 131.416 211.915 130.944 211.747 130.408C211.579 129.872 211.495 129.308 211.495 128.716C211.495 128.124 211.579 127.56 211.747 127.024C211.915 126.488 212.167 126.016 212.503 125.608C212.839 125.192 213.259 124.864 213.763 124.624C214.275 124.376 214.867 124.252 215.539 124.252C215.947 124.252 216.343 124.312 216.727 124.432C217.119 124.552 217.471 124.732 217.783 124.972C218.103 125.204 218.367 125.492 218.575 125.836C218.791 126.18 218.927 126.576 218.983 127.024H218.167ZM222.825 127.264C222.465 127.264 222.149 127.34 221.877 127.492C221.605 127.644 221.377 127.844 221.193 128.092C221.017 128.34 220.881 128.624 220.785 128.944C220.697 129.256 220.653 129.576 220.653 129.904C220.653 130.232 220.697 130.556 220.785 130.876C220.881 131.188 221.017 131.468 221.193 131.716C221.377 131.964 221.605 132.164 221.877 132.316C222.149 132.468 222.465 132.544 222.825 132.544C223.185 132.544 223.501 132.468 223.773 132.316C224.045 132.164 224.269 131.964 224.445 131.716C224.629 131.468 224.765 131.188 224.853 130.876C224.949 130.556 224.997 130.232 224.997 129.904C224.997 129.576 224.949 129.256 224.853 128.944C224.765 128.624 224.629 128.34 224.445 128.092C224.269 127.844 224.045 127.644 223.773 127.492C223.501 127.34 223.185 127.264 222.825 127.264ZM222.825 126.628C223.297 126.628 223.713 126.716 224.073 126.892C224.441 127.068 224.749 127.304 224.997 127.6C225.245 127.896 225.433 128.244 225.561 128.644C225.689 129.036 225.753 129.456 225.753 129.904C225.753 130.352 225.689 130.776 225.561 131.176C225.433 131.568 225.245 131.912 224.997 132.208C224.749 132.504 224.441 132.74 224.073 132.916C223.713 133.084 223.297 133.168 222.825 133.168C222.353 133.168 221.933 133.084 221.565 132.916C221.205 132.74 220.901 132.504 220.653 132.208C220.405 131.912 220.217 131.568 220.089 131.176C219.961 130.776 219.897 130.352 219.897 129.904C219.897 129.456 219.961 129.036 220.089 128.644C220.217 128.244 220.405 127.896 220.653 127.6C220.901 127.304 221.205 127.068 221.565 126.892C221.933 126.716 222.353 126.628 222.825 126.628ZM232.325 133H231.629V131.824H231.605C231.525 132.024 231.405 132.208 231.245 132.376C231.093 132.544 230.917 132.688 230.717 132.808C230.517 132.92 230.301 133.008 230.069 133.072C229.845 133.136 229.621 133.168 229.397 133.168C228.925 133.168 228.513 133.084 228.161 132.916C227.817 132.74 227.529 132.504 227.297 132.208C227.065 131.904 226.893 131.556 226.781 131.164C226.669 130.764 226.613 130.344 226.613 129.904C226.613 129.464 226.669 129.048 226.781 128.656C226.893 128.256 227.065 127.908 227.297 127.612C227.529 127.308 227.817 127.068 228.161 126.892C228.513 126.716 228.925 126.628 229.397 126.628C229.629 126.628 229.853 126.656 230.069 126.712C230.293 126.768 230.501 126.856 230.693 126.976C230.885 127.088 231.053 127.228 231.197 127.396C231.349 127.564 231.465 127.76 231.545 127.984H231.569V124.432H232.325V133ZM227.369 129.904C227.369 130.224 227.405 130.544 227.477 130.864C227.557 131.176 227.677 131.456 227.837 131.704C228.005 131.952 228.217 132.156 228.473 132.316C228.729 132.468 229.037 132.544 229.397 132.544C229.797 132.544 230.133 132.468 230.405 132.316C230.685 132.156 230.909 131.952 231.077 131.704C231.253 131.456 231.377 131.176 231.449 130.864C231.529 130.544 231.569 130.224 231.569 129.904C231.569 129.584 231.529 129.268 231.449 128.956C231.377 128.636 231.253 128.352 231.077 128.104C230.909 127.856 230.685 127.656 230.405 127.504C230.133 127.344 229.797 127.264 229.397 127.264C229.037 127.264 228.729 127.344 228.473 127.504C228.217 127.656 228.005 127.856 227.837 128.104C227.677 128.352 227.557 128.636 227.477 128.956C227.405 129.268 227.369 129.584 227.369 129.904ZM238.219 129.472C238.211 129.184 238.159 128.908 238.063 128.644C237.975 128.38 237.847 128.148 237.679 127.948C237.511 127.74 237.307 127.576 237.067 127.456C236.827 127.328 236.555 127.264 236.251 127.264C235.939 127.264 235.663 127.328 235.423 127.456C235.183 127.576 234.979 127.74 234.811 127.948C234.643 128.148 234.507 128.384 234.403 128.656C234.307 128.92 234.243 129.192 234.211 129.472H238.219ZM234.211 130.108C234.211 130.38 234.247 130.664 234.319 130.96C234.399 131.248 234.523 131.508 234.691 131.74C234.859 131.972 235.071 132.164 235.327 132.316C235.583 132.468 235.891 132.544 236.251 132.544C236.803 132.544 237.235 132.4 237.547 132.112C237.859 131.824 238.075 131.44 238.195 130.96H238.951C238.791 131.664 238.495 132.208 238.063 132.592C237.639 132.976 237.035 133.168 236.251 133.168C235.763 133.168 235.339 133.084 234.979 132.916C234.627 132.74 234.339 132.504 234.115 132.208C233.891 131.904 233.723 131.556 233.611 131.164C233.507 130.764 233.455 130.344 233.455 129.904C233.455 129.496 233.507 129.096 233.611 128.704C233.723 128.312 233.891 127.964 234.115 127.66C234.339 127.348 234.627 127.1 234.979 126.916C235.339 126.724 235.763 126.628 236.251 126.628C236.747 126.628 237.171 126.728 237.523 126.928C237.875 127.128 238.159 127.392 238.375 127.72C238.599 128.04 238.759 128.412 238.855 128.836C238.951 129.252 238.991 129.676 238.975 130.108H234.211Z" fill="#0D1B3C"/>
<path d="M57.0958 173.256C49.3659 169.849 43.4702 161.202 36.5428 155.094C34.4795 160.492 30.5996 165.004 25.5703 167.851C34.725 171.585 44.2563 173.731 52.8378 179.856C55.4745 175.499 54.4591 177.596 57.0958 173.256Z" fill="#FF998B"/>
<path d="M44.3054 171.716C39.6872 170.177 32.1702 162.84 38.0986 156.535C37.5909 156.044 37.0669 155.552 36.5428 155.094C34.4795 160.492 30.5996 165.004 25.5703 167.851C34.725 171.585 44.2563 173.731 52.8378 179.856C54.0333 177.89 54.4755 177.235 54.8521 176.728C51.1835 175.4 47.6515 173.722 44.3054 171.716V171.716Z" fill="#F27E72"/>
<path d="M114.618 136.229C110.878 131.65 106.893 127.276 102.679 123.128C98.6252 118.721 94.8355 114.078 91.3302 109.224C90.8759 108.532 90.3244 107.908 89.6925 107.373C89.0047 106.866 88.1859 106.554 87.4653 106.096C86.2698 105.343 85.3035 104.114 83.8951 103.852C83.2188 103.811 82.5407 103.811 81.8644 103.852C81.0456 103.852 80.9145 103.77 80.0957 103.705C78.7913 103.633 77.4831 103.715 76.198 103.95C74.4457 104.376 73.1683 105.359 72.0547 105.457C72.1388 105.724 72.2784 105.969 72.4641 106.178C77.2789 104.54 82.0773 103.082 85.2872 107.815C86.3353 109.928 85.2872 109.322 84.0916 109.06C84.1007 109.229 84.1007 109.399 84.0916 109.568C83.3547 110.403 83.0599 110.075 82.454 110.075C81.796 110.122 81.1347 110.078 80.4888 109.944C79.7682 109.731 79.457 109.257 78.8511 108.929C77.6719 108.356 76.0506 107.799 75.7722 109.535C76.0458 110.123 76.4511 110.64 76.9566 111.046C77.4621 111.452 78.0543 111.736 78.6873 111.877C79.4774 112.168 80.2349 112.541 80.9473 112.99C81.8153 113.416 82.4212 114.251 83.2401 114.743C83.717 115.023 84.2453 115.206 84.7937 115.279C85.3422 115.352 85.8998 115.314 86.4336 115.169C86.7892 115.133 87.1476 115.201 87.4653 115.365V115.365C88.2067 115.752 88.8166 116.351 89.2176 117.085C92.7714 123.75 93.6885 131.021 97.0785 137.867C100.649 145.105 104.89 152.36 112.964 152.786C113.651 152.881 114.349 152.835 115.017 152.649C115.685 152.463 116.307 152.142 116.845 151.705C117.358 151.16 117.714 150.487 117.877 149.757C118.374 147.401 118.34 144.965 117.776 142.625C117.212 140.284 116.133 138.1 114.618 136.229V136.229Z" fill="#FF998B"/>
<path d="M90.1612 114.401C88.9165 111.912 85.7886 115.089 82.9062 114.614L83.1519 114.778C83.6288 115.058 84.1571 115.24 84.7056 115.314C85.254 115.387 85.8116 115.349 86.3454 115.203C86.7011 115.168 87.0594 115.236 87.3771 115.4V115.4C88.1185 115.787 88.7284 116.385 89.1294 117.119C92.6832 123.785 93.6003 131.056 96.9904 137.902C100.561 145.14 104.802 152.395 112.876 152.821C113.562 152.916 114.261 152.869 114.929 152.683C115.596 152.498 116.219 152.177 116.757 151.74C117.27 151.195 117.626 150.522 117.789 149.791C117.855 149.538 117.905 149.281 117.936 149.022C105.373 140.574 95.6842 128.497 90.1612 114.401V114.401Z" fill="#F27E72"/>
<path d="M81.3716 91.544C80.6182 90.5778 81.5844 88.2686 80.5855 87.5971L76.0655 83.6011C72.4089 82.0998 68.3268 82.0007 64.6017 83.3228C63.5869 83.6565 62.6389 84.1665 61.8012 84.8294C60.9235 85.6373 60.2208 86.6165 59.7363 87.7066C59.2518 88.7966 58.9959 89.9744 58.9844 91.1673C58.9924 93.5553 59.3567 95.9288 60.0653 98.2094C60.2886 99.4602 60.7864 100.646 61.5228 101.681C62.6818 103.753 64.3933 105.463 66.4665 106.619C68.5397 107.776 70.8932 108.334 73.265 108.232C75.0501 108.117 78.9642 107.937 80.1269 106.594C80.5691 106.07 82.3051 104.842 82.2559 104.154C81.8465 98.6352 84.041 95.0159 81.3716 91.544Z" fill="#FF998B"/>
<path d="M63.0391 103.714C65.6266 106.678 69.2787 109.085 73.2419 108.185C75.4575 107.871 77.647 107.395 79.7926 106.76C74.2245 105.319 68.6399 102.272 63.0391 103.714Z" fill="#F27E72"/>
<path d="M78.781 119.808C75.436 114.325 73.8792 107.938 74.3265 101.531H61.3396C62.1062 107.596 61.3172 113.756 59.0469 119.431L78.781 119.808Z" fill="#FF998B"/>
<path d="M75.8855 96.896C74.69 100.384 71.3164 102.562 68.1557 104.478C67.0934 105.248 65.8543 105.738 64.5527 105.903C63.6391 105.88 62.7473 105.619 61.9659 105.145C61.1845 104.671 60.5407 104.001 60.0983 103.201C59.1429 101.497 58.51 99.6319 58.2313 97.6985C57.6557 95.1537 57.2237 92.5784 56.9375 89.985C56.9838 88.775 57.2866 87.5886 57.8258 86.5045C58.3651 85.4204 59.1285 84.4631 60.0655 83.6962C61.4084 82.5826 61.523 81.0268 63.2099 80.5683C64.7434 80.1377 66.3348 79.9498 67.9264 80.0114C71.8718 80.2856 75.7979 80.7887 79.685 81.5182C80.4578 81.57 81.2008 81.8365 81.8303 82.2878C83.0914 83.4015 82.5182 85.5632 81.3718 86.7915C80.0726 87.8595 78.852 89.0198 77.7197 90.2634C76.426 92.1795 76.6225 94.7178 75.8855 96.896Z" fill="#283474"/>
<path d="M77.1833 94.2074C76.7186 93.8921 76.3637 93.4399 76.1679 92.9136C75.9059 92.4223 75.562 91.8982 75.0216 91.7836C74.7719 91.7535 74.5187 91.7907 74.2884 91.8915C74.058 91.9923 73.8587 92.153 73.7114 92.3568C73.436 92.7797 73.2467 93.2527 73.1546 93.7488C72.951 94.5125 72.8518 95.3003 72.8598 96.0907C72.8559 96.8913 73.1212 97.67 73.6131 98.3016C73.8591 98.6102 74.178 98.8527 74.5411 99.0071C74.9043 99.1615 75.3002 99.223 75.693 99.186C76.0979 99.1332 76.4717 98.9407 76.7498 98.6417C77.0279 98.3427 77.1928 97.9559 77.2161 97.5483L77.1833 94.2074Z" fill="#FF998B"/>
<path d="M75.4218 96.2264C75.4218 96.3738 75.258 96.4393 75.127 96.5048C74.8294 96.6346 74.5638 96.828 74.3488 97.0713C74.1338 97.3146 73.9746 97.602 73.8823 97.9133C73.648 97.121 73.6087 96.2838 73.7677 95.473C73.7991 95.2338 73.883 95.0046 74.0134 94.8016C74.0762 94.6957 74.1646 94.6073 74.2705 94.5443C74.3763 94.4814 74.4963 94.4459 74.6193 94.4413C74.4372 94.3855 74.2752 94.2781 74.1531 94.1319C74.0309 93.9858 73.9539 93.8073 73.9313 93.6181C73.9088 93.429 73.9416 93.2374 74.026 93.0667C74.1103 92.8959 74.2425 92.7533 74.4064 92.6562C74.996 92.7873 75.3071 93.3932 75.5528 93.9336C75.6734 94.1535 75.7248 94.4046 75.7002 94.6542C75.5992 94.8634 75.4604 95.0523 75.2908 95.211C75.2046 95.2902 75.1455 95.3945 75.122 95.5092C75.0985 95.6239 75.1117 95.743 75.1597 95.8498C75.258 95.9808 75.4218 96.0626 75.4218 96.2264Z" fill="#F27E72"/>
<path d="M37.4908 155.368C36.5081 154.664 34.592 153.73 33.5931 153.075C37.3925 147.9 42.6659 145.624 47.235 141.12C49.9211 138.134 51.9765 134.636 53.2781 130.835C54.621 127.298 53.6875 119.372 50.2975 117.619C49.1407 117.131 47.8819 116.935 46.6314 117.046C45.3809 117.157 44.1768 117.573 43.1244 118.258C41.0286 119.644 39.1798 121.371 37.6545 123.368C30.547 131.687 19.64 146.295 15.3165 158.005C14.9198 159.056 14.8953 160.211 15.247 161.278C15.5986 162.344 16.3052 163.258 17.249 163.868C20.3152 165.96 23.5658 167.769 26.9604 169.272C31.8735 166.324 35.3945 161.018 37.4908 155.368Z" fill="#296BB0"/>
<path d="M53.4592 123.014C38.9493 121.655 33.0209 146.646 21.9502 155.506C20.4873 156.332 18.9315 156.98 17.3155 157.438C18.7209 157.566 20.1377 157.427 21.4916 157.029L22.3104 157.422C20.6738 158.08 18.9797 158.584 17.25 158.929C19.6356 159.467 22.1254 159.307 24.423 158.47C27.4142 159.997 30.2978 161.726 33.0537 163.645C34.6419 161.763 35.8688 159.603 36.6729 157.275C35.7067 156.554 32.0874 154.523 31.0884 153.885C34.8878 148.71 42.6669 145.696 47.236 141.111C49.9221 138.124 51.9775 134.626 53.2791 130.826C54.0159 128.282 54.078 125.59 53.4592 123.014Z" fill="#283474"/>
<path d="M49.2149 331.777C47.6403 335.27 47.0731 339.132 47.5772 342.93C54.4227 342.57 61.2464 342.024 68.0483 341.292C68.0898 339.41 67.4235 337.581 66.1813 336.166C65.0749 335.468 63.9264 334.839 62.7422 334.283C62.1605 333.895 61.6682 333.388 61.2983 332.795C60.9283 332.202 60.6892 331.537 60.5968 330.844C57.5835 331.27 51.9989 332.613 49.2149 331.777Z" fill="#111520"/>
<path d="M47.2109 343.931C53.1394 344.57 68.2061 342.441 68.2061 342.441L68.4026 340.672C67.0761 341.032 47.3911 342.31 47.3911 342.31L47.2109 343.931Z" fill="white"/>
<path d="M54.4877 181.253C54.0314 181.56 53.6597 181.976 53.4068 182.465C47.7404 191.849 50.6227 203.755 51.8838 214.662C52.5509 221.19 52.8353 227.752 52.7353 234.314C52.9694 241.486 52.7944 248.665 52.2113 255.817C51.4252 262.63 49.5255 269.426 49.1325 276.173C48.1498 292.943 49.0014 309.451 47.6094 326.205C53.2105 325.894 58.8275 326.368 64.2974 327.613C65.1326 302.949 71.2576 281.348 75.4009 256.537C78.2832 239.145 78.2341 220.328 78.9547 199.071C79.184 192.651 78.2341 186.215 78.9547 179.828C71.6126 181.317 64.0911 181.714 56.633 181.007C55.9095 180.87 55.1614 180.956 54.4877 181.253Z" fill="#296BB0"/>
<path d="M61.6767 193.974C57.9415 193.906 54.2153 193.583 50.524 193.008H50V193.548C50 194.973 50 196.414 50 197.872V198.019C50.0216 199.4 50.1255 200.778 50.3112 202.146C50.6143 204.435 51.3183 206.652 52.391 208.697C52.544 208.975 52.7692 209.208 53.043 209.369C53.3168 209.53 53.629 209.615 53.9468 209.614C54.4316 209.607 54.8949 209.413 55.2406 209.074C56.9 207.412 58.8126 206.025 60.907 204.963L61.1362 204.848L62.2171 193.974H61.6767ZM50.8516 193.974C54.2417 194.481 57.6602 194.777 61.0871 194.858L60.8251 197.43C58.3841 197.7 56.0514 198.584 54.0451 200.001C53.1226 198.93 52.0127 198.037 50.7697 197.364C50.8516 196.234 50.8516 195.088 50.8516 193.974ZM54.3563 202.064L53.9796 201.966L53.4391 201.819L53.8977 201.36C54.1269 201.589 54.2743 201.819 54.4217 202.064H54.3563ZM54.4709 208.369C54.3764 208.46 54.2629 208.529 54.1386 208.57C54.0144 208.612 53.8825 208.625 53.7524 208.61C53.6223 208.594 53.4973 208.55 53.3865 208.48C53.2757 208.41 53.1818 208.316 53.1116 208.206C52.0937 206.24 51.4285 204.112 51.1464 201.917C50.999 200.787 50.9171 199.624 50.868 198.478C51.7924 199.056 52.6212 199.774 53.3245 200.607C52.8836 201.009 52.4831 201.453 52.129 201.933L51.4739 202.801L52.5548 202.687C52.9513 202.678 53.3458 202.745 53.7175 202.883C54.1315 203.015 54.561 203.092 54.9949 203.112H55.257L55.912 203.031L55.6173 202.441C55.3355 201.865 55.0011 201.317 54.6182 200.803C56.4353 199.543 58.532 198.745 60.7268 198.478L60.1536 204.275C58.084 205.346 56.1898 206.727 54.5364 208.369H54.4709Z" fill="#283474"/>
<path d="M78.9032 179.859C75.2579 180.599 71.5631 181.07 67.8488 181.268C65.3131 199.89 65.225 218.763 67.5867 237.408C70.4199 257.273 64.7372 276.205 61.904 297.019C60.8162 300.712 60.1838 304.523 60.0206 308.369C59.3 314.446 58.9227 320.558 58.8906 326.678C60.7085 326.924 62.5099 327.235 64.295 327.644C65.1302 302.981 71.2551 281.379 75.3985 256.569C78.2808 239.176 78.2317 220.359 78.9523 199.102C79.1816 192.682 78.2317 186.246 78.9032 179.859Z" fill="#283474"/>
<path d="M45.0939 325.95C44.9791 325.61 44.9791 325.242 45.0939 324.902C45.2343 324.718 45.4119 324.567 45.6151 324.457C45.8183 324.346 46.0426 324.281 46.2731 324.263C52.4421 322.995 58.861 323.958 64.3859 326.982C64.6325 327.122 64.8275 327.338 64.9425 327.597C65.0574 327.857 65.0862 328.146 65.0245 328.423C64.7118 330.046 64.4985 331.687 64.3859 333.336C64.381 333.467 64.3479 333.596 64.2888 333.714C64.2298 333.831 64.1461 333.935 64.0436 334.017C63.9411 334.099 63.8221 334.159 63.6947 334.191C63.5672 334.223 63.4343 334.228 63.305 334.204C58.1463 333.238 52.8402 332.403 47.7797 333.467C47.6054 333.5 47.4256 333.486 47.2583 333.427C47.0909 333.368 46.9419 333.267 46.8259 333.133C46.71 332.999 46.6312 332.836 46.5974 332.662C46.5636 332.488 46.576 332.308 46.6334 332.141C46.9317 331.537 47.0617 330.863 47.01 330.192C46.8449 329.641 46.5721 329.129 46.2075 328.685C45.6622 327.854 45.2839 326.925 45.0939 325.95V325.95Z" fill="#296BB0"/>
<path d="M57.7847 328.952C54.3128 328.657 50.6935 328.379 47.5 329.771V328.133C50.9317 327.353 54.5196 327.639 57.7847 328.952V328.952Z" fill="#283474"/>
<path d="M109.457 337.879C111.303 338.154 113.098 338.706 114.779 339.517C115.609 339.942 116.3 340.594 116.773 341.397C117.245 342.201 117.48 343.122 117.449 344.053L89.9354 344.577C89.0908 342.71 88.9342 340.604 89.4933 338.632C90.0566 336.675 90.3162 334.642 90.263 332.606L99.5978 332.344C99.9417 334.653 102.415 335.914 104.609 336.634C106.201 337.139 107.819 337.555 109.457 337.879V337.879Z" fill="#111520"/>
<path d="M88.9609 343.305L89.1083 345.663L117.653 344.811L117.751 343.452L88.9609 343.305Z" fill="white"/>
<path d="M66.3269 180.628C64.8693 189.013 63.2316 192.01 63.8048 200.378C64.6236 212.448 71.5347 219.146 72.9431 226.041C76.6442 244.055 80.0015 254.88 81.1315 268.621C82.8838 289.632 81.7047 309.153 86.8634 329.968C91.9521 329.777 97.0475 329.865 102.127 330.23C103.224 307.057 102.913 286.128 101.947 262.954C101.586 254.389 101.373 248.854 100.997 237.406C100.374 218.164 94.7571 197.529 92.4479 178.695C85.0292 180.3 73.8766 181.578 66.3269 180.628Z" fill="#296BB0"/>
<path d="M88.5263 204.065L86.6593 193.977L69.2344 195.418V195.893C69.3388 198.424 69.6787 200.941 70.2497 203.41C70.8318 205.952 72.1271 208.276 73.9837 210.108C75.3565 211.277 76.876 212.263 78.5037 213.039C79.1423 213.435 79.867 213.671 80.6163 213.727H80.9766C81.8269 213.513 82.5887 213.037 83.1547 212.368L87.0524 208.552C87.7261 208.06 88.2256 207.366 88.4788 206.571C88.732 205.776 88.7257 204.921 88.4608 204.13L88.5263 204.065ZM85.9224 194.943L86.4301 197.809C83.5515 198.959 81.0027 200.805 79.0114 203.18C76.4968 201.361 73.6204 200.105 70.5773 199.496C70.4463 198.415 70.348 197.317 70.2825 196.22L85.9224 194.943ZM79.1751 204.49C79.5846 204.818 79.9776 205.162 80.3543 205.506L78.1434 205.997C78.4465 205.476 78.78 204.973 79.1424 204.49H79.1751ZM87.642 206.21C87.3823 206.845 86.972 207.407 86.4465 207.848L82.5488 211.664C82.1262 212.183 81.5546 212.56 80.9111 212.744H80.6982C80.1163 212.678 79.5566 212.482 79.0605 212.171C77.5066 211.424 76.0538 210.484 74.737 209.371C73.0211 207.657 71.8234 205.495 71.2815 203.131C71.0565 202.269 70.8816 201.394 70.7574 200.511C73.535 201.114 76.1599 202.279 78.4709 203.934C77.8511 204.736 77.303 205.59 76.8332 206.489L76.3583 207.389L82.2867 206.079L81.6808 205.473C81.0868 204.89 80.4578 204.343 79.7975 203.835C81.6457 201.646 83.9936 199.932 86.643 198.84L87.6256 204.327C87.7625 204.948 87.7569 205.592 87.6092 206.21H87.642Z" fill="#283474"/>
<path d="M102.127 263.067C101.767 254.502 102.029 248.852 101.652 237.405C101.014 218.162 95.2818 197.56 92.9726 178.727C92.2357 178.89 87.1588 179.365 86.4219 179.513C99.3596 229.036 100.391 279.51 98.7373 330.016C99.9 330.016 101.341 330.294 102.504 330.376C103.536 307.203 103.094 286.241 102.127 263.067Z" fill="#283474"/>
<path d="M86.2125 335.1C86.8676 332.513 85.623 331.825 85.5247 330.187C85.5118 329.89 85.598 329.596 85.77 329.353C85.9419 329.11 86.1897 328.931 86.4745 328.844C91.728 327.362 97.1861 326.737 102.638 326.993C102.818 327.007 102.992 327.058 103.151 327.141C103.31 327.225 103.45 327.34 103.564 327.479C103.677 327.618 103.761 327.779 103.81 327.952C103.859 328.125 103.873 328.306 103.85 328.484C103.662 330.313 103.662 332.157 103.85 333.986C103.865 334.175 103.839 334.365 103.773 334.542C103.708 334.72 103.604 334.881 103.471 335.015C103.337 335.149 103.176 335.252 102.998 335.318C102.82 335.383 102.631 335.41 102.442 335.395C97.5703 334.869 92.6464 335.113 87.8502 336.115C87.0969 336.246 86.0324 335.804 86.2125 335.1Z" fill="#296BB0"/>
<path d="M103.098 329.115C101.123 328.123 98.8464 327.918 96.727 328.542C94.598 329.033 92.5672 329.901 90.4219 330.327L103.098 329.115Z" fill="#283474"/>
<path d="M99.671 333.816C95.5932 334.226 91.4826 334.455 87.4375 334.553C91.4377 333.573 95.5821 333.323 99.671 333.816V333.816Z" fill="#283474"/>
<path d="M61.4345 332.806C57.2749 332.345 53.0911 332.138 48.9062 332.184C53.077 331.463 57.3557 331.676 61.4345 332.806Z" fill="#283474"/>
<path d="M51.6499 119.104C51.8116 117.471 51.8116 115.825 51.6499 114.191C55.5136 112.743 59.6258 112.075 63.7491 112.224C67.8725 112.372 71.9256 113.336 75.6748 115.059C78.4231 116.166 80.7269 118.153 82.2255 120.709C72.047 119.581 61.7693 119.691 51.6172 121.037L51.6499 119.104Z" fill="#DE7A51"/>
<path d="M52.5 114.846L52.6474 116.238H54.3833L54.2196 114.109C53.5645 114.306 52.9749 114.552 52.5 114.846Z" fill="#F9DD53"/>
<path d="M54.6562 116.184H55.8517V113.547C55.4423 113.662 55.0493 113.776 54.6562 113.924V116.184Z" fill="#F9DD53"/>
<path d="M56.75 113.293V116.127H58.1257V113.031L56.75 113.293Z" fill="#F9DD53"/>
<path d="M61.5149 112.734H60.6797V116.01H61.4985L61.5149 112.734Z" fill="#F9DD53"/>
<path d="M59.1875 116.057H60.0555V112.781L59.1875 112.863V116.057Z" fill="#F9DD53"/>
<path d="M49.3394 190.051C48.7478 191.817 48.4868 193.677 48.5697 195.538C56.503 196.993 64.5229 197.928 72.5782 198.338C80.6606 198.745 88.7445 197.565 96.3737 194.866C96.1281 192.377 95.866 189.953 95.6204 187.398C80.6355 191.444 64.8483 190.707 49.3394 190.051Z" fill="#DE7A51"/>
<path d="M51.5049 193.119C51.0667 193.159 50.6251 193.099 50.2137 192.943C49.8023 192.787 49.4318 192.539 49.1303 192.219C49.1303 193.169 49.0484 194.118 49.0156 195.068L51.6687 195.527V193.136L51.5049 193.119Z" fill="#F9DD53"/>
<path d="M52.5 193.172V195.661L54.4489 195.972V193.237L52.5 193.172Z" fill="#F9DD53"/>
<path d="M55.6623 193.289L55.5312 196.139L58.9213 196.646L59.0851 193.371L55.6623 193.289Z" fill="#F9DD53"/>
<path d="M63.0547 193.453L63.1366 197.138L65.544 197.367V193.47L63.0547 193.453Z" fill="#F9DD53"/>
<path d="M70.6094 193.432V197.592H72.6729L72.5091 193.383L70.6094 193.432Z" fill="#F9DD53"/>
<path d="M73.6562 193.367L73.7872 197.576H75.081L74.9173 193.4L73.6562 193.367Z" fill="#F9DD53"/>
<path d="M77.0561 193.289H75.6641L75.877 197.432C76.3191 197.432 76.7449 197.432 77.1871 197.432C76.9681 196.062 76.9241 194.67 77.0561 193.289V193.289Z" fill="#F9DD53"/>
<path d="M67.0156 193.47V197.465L69.3903 197.58V193.453L67.0156 193.47Z" fill="#F9DD53"/>
<path d="M60.4755 193.422L60.3281 196.828L62.277 197.058V193.438L60.4755 193.422Z" fill="#F9DD53"/>
<path d="M88.7192 119.589C80.864 118.086 72.9218 117.079 64.94 116.576C60.8299 116.365 56.7104 116.426 52.6082 116.756C49.4147 117.018 45.8609 116.756 43.7811 119.589C38.6387 126.386 39.8506 136.867 41.4064 145.923C42.3978 150.496 43.7728 154.977 45.517 159.319C46.9418 163.43 48.4157 167.246 49.6603 171.422C51.0768 176.885 50.9121 182.638 49.1854 188.012C48.8584 188.863 48.7956 189.793 49.0053 190.681C49.2658 191.175 49.6695 191.578 50.1635 191.838C50.6574 192.098 51.2185 192.203 51.773 192.139C63.8263 192.745 81.0712 193.989 94.795 189.846C97.0386 189.174 95.925 186.931 96.3508 184.818C96.9076 182.132 96.187 179.725 95.8595 177.072C92.8298 153.031 96.1379 128.105 88.7192 119.589Z" fill="#296BB0"/>
<path d="M50.6658 119.475C47.6615 120.015 44.9553 121.627 43.0505 124.012C41.1999 126.714 41.1671 130.219 41.4128 133.478C41.6611 137.765 42.1477 142.035 42.8704 146.268C43.6073 150.51 44.6554 154.899 47.3576 158.256C48.4057 159.533 49.6667 160.647 50.633 161.99C51.2762 162.744 51.6855 163.669 51.8106 164.652C51.9356 165.636 51.7711 166.634 51.3372 167.525C50.9574 168.076 50.7835 168.743 50.8459 169.409C51.1407 171.177 52.9585 170.293 53.6463 171.194C53.7603 171.42 53.8277 171.667 53.8446 171.921C53.8614 172.174 53.8274 172.428 53.7446 172.667C52.8602 176.631 51.9923 180.578 51.1243 184.541C50.6992 185.895 50.6992 187.347 51.1243 188.7C52.1069 191.075 55.2021 191.583 57.7733 191.73C67.8778 192.336 78.3099 192.893 87.9395 190.092C88.0886 190.058 88.2197 189.969 88.3075 189.843C88.3954 189.718 88.4339 189.564 88.4156 189.412C88.3974 189.26 88.3237 189.12 88.2086 189.019C88.0936 188.918 87.9453 188.863 87.7921 188.864L69.7775 188.34C69.319 188.34 67.8287 186.932 73.6097 186.981L86.3509 186.604C87.399 186.604 87.9886 185.884 87.3499 185.081L87.1697 184.868C87.037 184.808 86.9219 184.715 86.8354 184.598C86.749 184.48 86.6941 184.343 86.6761 184.198C86.658 184.054 86.6773 183.907 86.7322 183.772C86.7871 183.637 86.8757 183.518 86.9896 183.427C87.1534 183.296 87.2516 183.198 87.1861 183.05C87.015 182.685 86.7346 182.382 86.3837 182.182C84.8087 181.436 83.1628 180.849 81.4706 180.43C81.1556 180.263 80.8985 180.004 80.7333 179.687C80.5681 179.371 80.5025 179.012 80.545 178.658C80.5875 178.303 80.7362 177.97 80.9715 177.702C81.2069 177.434 81.5179 177.243 81.8637 177.155C84.4452 176.588 86.8097 175.292 88.6764 173.421C90.4124 170.981 76.361 172.569 70.2033 172.143C69.7669 172.118 69.3338 172.052 68.9096 171.947C67.9269 171.718 68.0252 170.129 69.0405 170.178C77.229 170.555 80.4225 170.178 85.5484 167.836C86.4877 167.567 87.3293 167.033 87.9722 166.297C89.0859 164.659 87.874 163.021 86.5311 162.203C85.492 161.645 84.5101 160.987 83.5996 160.238C81.487 158.19 81.5197 154.637 82.486 151.853C85.614 142.714 81.7818 139.291 81.356 133.248C81.0448 128.941 82.1912 124.798 78.9322 121.965C75.6732 119.132 71.4316 118.935 67.3374 118.689C61.7717 118.133 56.1544 118.398 50.6658 119.475V119.475Z" fill="#283474"/>
<path d="M110.425 153.724C112.309 151.824 113.259 150.891 113.259 148.041C100.01 149.941 98.1263 133.843 89.6103 129.126C87.1587 128.384 84.784 127.407 82.5191 126.211C82.131 128.245 82.1757 130.337 82.6502 132.352C83.6819 136.709 86.1876 143.39 89.9542 145.847C100.288 152.578 104.415 157.311 110.655 156.852L113.733 154.723C114.689 153.874 115.397 152.782 115.781 151.562C115.961 151.087 116.108 150.612 116.239 150.138C114.732 151.71 112.865 153.724 110.425 153.724Z" fill="#283474"/>
<path d="M166.108 153L150.005 153C148.901 153 148.005 153.895 148.005 155L148.005 171.103" stroke="black" stroke-linecap="round"/>
<path d="M252.364 171.102L252.364 154.998C252.364 153.894 251.469 152.998 250.364 152.998L234.261 152.998" stroke="black" stroke-linecap="round"/>
<path d="M234.256 258L250.359 258C251.464 258 252.359 257.105 252.359 256L252.359 239.897" stroke="black" stroke-linecap="round"/>
<path d="M148 239.898L148 256.002C148 257.106 148.895 258.002 150 258.002L166.103 258.002" stroke="black" stroke-linecap="round"/>
<path d="M154 159H171.595V176.595H154V159ZM186.676 159H189.189V161.514H186.676V159ZM209.297 159H214.324V161.514H209.297V159ZM216.838 159H219.351V161.514H216.838V159ZM224.378 159H226.892V166.541H224.378V169.054H214.324V161.514H216.838V166.541H219.351V164.027H221.865V161.514H224.378V159ZM229.405 159H247V176.595H229.405V159ZM156.514 161.514V174.081H169.081V161.514H156.514ZM176.622 161.514H181.649V164.027H179.135V171.568H176.622V179.108H174.108V164.027H176.622V161.514ZM189.189 161.514H191.703V164.027H194.216V166.541H199.243V174.081H196.73V171.568H194.216V169.054H191.703V166.541H189.189V161.514ZM194.216 161.514H196.73V164.027H194.216V161.514ZM204.27 161.514H209.297V164.027H211.811V169.054H209.297V166.541H206.784V164.027H204.27V161.514ZM231.919 161.514V174.081H244.486V161.514H231.919ZM159.027 164.027H166.568V171.568H159.027V164.027ZM181.649 164.027H186.676V166.541H181.649V164.027ZM234.432 164.027H241.973V171.568H234.432V164.027ZM186.676 166.541H189.189V171.568H194.216V174.081H191.703V179.108H189.189V174.081H186.676V166.541ZM181.649 169.054H184.162V171.568H181.649V169.054ZM201.757 169.054H209.297V174.081H206.784V171.568H201.757V169.054ZM211.811 169.054H214.324V171.568H211.811V169.054ZM224.378 169.054H226.892V171.568H224.378V169.054ZM214.324 171.568H216.838V176.595H214.324V171.568ZM219.351 171.568H224.378V174.081H221.865V179.108H224.378V174.081H226.892V186.649H229.405V184.135H231.919V191.676H229.405V199.216H231.919V201.73H226.892V196.703H224.378V199.216H221.865V204.243H224.378V201.73H226.892V209.27H229.405V204.243H231.919V201.73H234.432V209.27H231.919V211.784H226.892V216.811H229.405V214.297H236.946V211.784H239.459V216.811H236.946V221.838H234.432V219.324H231.919V221.838H229.405V224.351H226.892V219.324H221.865V216.811H219.351V211.784H216.838V219.324H214.324V214.297H209.297V216.811H211.811V219.324H209.297V221.838H216.838V224.351H204.27V221.838H206.784V211.784H209.297V209.27H206.784V206.757H209.297V204.243H211.811V206.757H214.324V204.243H219.351V201.73H214.324V204.243H211.811V201.73H209.297V204.243H206.784V201.73H199.243V199.216H201.757V196.703H206.784V199.216H211.811V196.703H214.324V199.216H219.351V196.703H221.865V194.189H224.378V191.676H216.838V189.162H224.378V186.649H216.838V179.108H219.351V171.568ZM179.135 174.081H181.649V176.595H179.135V174.081ZM184.162 174.081H186.676V176.595H184.162V174.081ZM194.216 174.081H196.73V176.595H194.216V174.081ZM199.243 174.081H201.757V176.595H204.27V174.081H206.784V176.595H209.297V181.622H206.784V179.108H204.27V181.622H201.757V179.108H196.73V176.595H199.243V174.081ZM209.297 174.081H211.811V176.595H209.297V174.081ZM181.649 176.595H184.162V179.108H189.189V181.622H191.703V179.108H196.73V181.622H194.216V184.135H196.73V186.649H194.216V189.162H199.243V186.649H201.757V184.135H204.27V186.649H209.297V189.162H204.27V191.676H206.784V194.189H201.757V196.703H199.243V191.676H196.73V199.216H194.216V196.703H191.703V194.189H194.216V191.676H186.676V189.162H189.189V186.649H191.703V184.135H186.676V186.649H184.162V184.135H176.622V181.622H181.649V176.595ZM211.811 176.595H214.324V179.108H211.811V176.595ZM154 179.108H156.514V184.135H154V179.108ZM159.027 179.108H171.595V181.622H169.081V184.135H166.568V181.622H164.054V184.135H161.541V181.622H159.027V179.108ZM229.405 179.108H241.973V181.622H239.459V184.135H236.946V181.622H229.405V179.108ZM171.595 181.622H174.108V184.135H171.595V181.622ZM199.243 181.622H201.757V184.135H199.243V181.622ZM204.27 181.622H206.784V184.135H204.27V181.622ZM211.811 181.622H214.324V184.135H211.811V181.622ZM221.865 181.622V184.135H224.378V181.622H221.865ZM241.973 181.622H244.486V184.135H247V191.676H239.459V189.162H244.486V186.649H241.973V181.622ZM156.514 184.135H161.541V189.162H159.027V186.649H156.514V184.135ZM169.081 184.135H171.595V186.649H169.081V184.135ZM209.297 184.135H211.811V186.649H209.297V184.135ZM234.432 184.135H236.946V186.649H234.432V184.135ZM164.054 186.649H169.081V189.162H164.054V186.649ZM171.595 186.649H174.108V189.162H176.622V186.649H184.162V191.676H181.649V189.162H179.135V196.703H181.649V199.216H179.135V204.243H176.622V209.27H174.108V211.784H169.081V209.27H171.595V206.757H174.108V201.73H176.622V199.216H171.595V196.703H176.622V194.189H174.108V191.676H169.081V189.162H171.595V186.649ZM214.324 186.649H216.838V189.162H214.324V186.649ZM154 189.162H156.514V196.703H161.541V191.676H166.568V194.189H171.595V196.703H164.054V201.73H161.541V199.216H159.027V204.243H156.514V206.757H159.027V209.27H156.514V211.784H159.027V209.27H161.541V204.243H164.054V201.73H166.568V204.243H171.595V206.757H169.081V209.27H166.568V211.784H169.081V214.297H166.568V216.811H164.054V221.838H161.541V229.378H159.027V224.351H156.514V231.892H154V221.838H159.027V219.324H154V201.73H156.514V199.216H154V189.162ZM209.297 189.162H211.811V191.676H209.297V189.162ZM234.432 189.162H236.946V191.676H234.432V189.162ZM211.811 191.676H214.324V194.189H211.811V191.676ZM231.919 191.676H234.432V194.189H239.459V196.703H236.946V201.73H234.432V199.216H231.919V191.676ZM186.676 194.189H189.189V196.703H186.676V194.189ZM209.297 194.189H211.811V196.703H209.297V194.189ZM214.324 194.189H219.351V196.703H214.324V194.189ZM241.973 194.189H247V196.703H244.486V204.243H247V209.27H244.486V206.757H241.973V201.73H239.459V199.216H241.973V194.189ZM184.162 196.703H186.676V199.216H184.162V196.703ZM189.189 196.703H191.703V201.73H199.243V206.757H196.73V204.243H189.189V206.757H184.162V204.243H186.676V201.73H189.189V196.703ZM169.081 199.216H171.595V201.73H169.081V199.216ZM181.649 201.73H184.162V204.243H181.649V201.73ZM236.946 201.73H239.459V206.757H236.946V201.73ZM204.27 204.243H206.784V206.757H204.27V204.243ZM181.649 206.757H184.162V209.27H186.676V211.784H184.162V214.297H194.216V216.811H196.73V209.27H199.243V216.811H201.757V219.324H196.73V221.838H194.216V224.351H196.73V226.865H194.216V231.892H184.162V229.378H176.622V234.405H174.108V229.378H171.595V226.865H169.081V229.378H164.054V226.865H166.568V224.351H164.054V221.838H169.081V224.351H176.622V221.838H174.108V216.811H169.081V214.297H174.108V211.784H176.622V219.324H181.649V221.838H184.162V224.351H181.649V226.865H186.676V229.378H189.189V226.865H191.703V224.351H186.676V221.838H191.703V216.811H189.189V219.324H184.162V216.811H179.135V211.784H181.649V206.757ZM194.216 206.757H196.73V209.27H194.216V206.757ZM216.838 206.757V209.27H219.351V206.757H216.838ZM221.865 206.757V214.297H224.378V206.757H221.865ZM189.189 209.27H191.703V211.784H189.189V209.27ZM211.811 209.27V211.784H214.324V209.27H211.811ZM234.432 209.27H236.946V211.784H234.432V209.27ZM239.459 209.27H241.973V211.784H239.459V209.27ZM201.757 211.784H204.27V214.297H201.757V211.784ZM156.514 214.297V216.811H159.027V214.297H156.514ZM244.486 214.297H247V221.838H244.486V219.324H241.973V216.811H244.486V214.297ZM166.568 216.811H169.081V219.324H166.568V216.811ZM169.081 219.324H171.595V221.838H169.081V219.324ZM216.838 219.324H219.351V221.838H216.838V219.324ZM239.459 219.324H241.973V221.838H239.459V219.324ZM199.243 221.838H201.757V224.351H204.27V226.865H209.297V229.378H206.784V239.432H211.811V241.946H204.27V234.405H201.757V229.378H199.243V221.838ZM231.919 221.838H234.432V224.351H236.946V221.838H239.459V229.378H244.486V226.865H241.973V224.351H247V231.892H244.486V234.405H241.973V231.892H239.459V234.405H236.946V236.919H239.459V239.432H236.946V244.459H234.432V241.946H231.919V244.459H229.405V241.946H219.351V244.459H221.865V246.973H224.378V244.459H226.892V249.486H221.865V252H216.838V249.486H219.351V246.973H216.838V241.946H214.324V239.432H219.351V236.919H216.838V229.378H221.865V231.892H219.351V234.405H221.865V239.432H224.378V234.405H221.865V231.892H224.378V229.378H226.892V226.865H231.919V221.838ZM216.838 224.351H219.351V226.865H216.838V224.351ZM221.865 224.351H226.892V226.865H224.378V229.378H221.865V224.351ZM211.811 226.865H214.324V234.405H211.811V231.892H209.297V229.378H211.811V226.865ZM234.432 226.865V229.378H236.946V226.865H234.432ZM161.541 229.378H164.054V231.892H161.541V229.378ZM169.081 229.378H171.595V231.892H169.081V229.378ZM196.73 229.378H199.243V231.892H196.73V229.378ZM179.135 231.892H181.649V234.405H179.135V231.892ZM194.216 231.892H196.73V239.432H194.216V236.919H189.189V234.405H194.216V231.892ZM226.892 231.892V239.432H234.432V231.892H226.892ZM154 234.405H171.595V252H154V234.405ZM176.622 234.405H179.135V244.459H176.622V246.973H174.108V236.919H176.622V234.405ZM181.649 234.405H186.676V236.919H189.189V239.432H191.703V241.946H196.73V244.459H191.703V252H189.189V249.486H186.676V244.459H189.189V241.946H184.162V244.459H181.649V234.405ZM199.243 234.405H201.757V236.919H199.243V234.405ZM209.297 234.405H211.811V236.919H209.297V234.405ZM229.405 234.405H231.919V236.919H229.405V234.405ZM239.459 234.405H241.973V236.919H239.459V234.405ZM244.486 234.405H247V236.919H244.486V234.405ZM156.514 236.919V249.486H169.081V236.919H156.514ZM159.027 239.432H166.568V246.973H159.027V239.432ZM199.243 239.432H201.757V241.946H199.243V239.432ZM239.459 239.432H247V252H239.459V249.486H244.486V246.973H239.459V239.432ZM211.811 241.946H214.324V244.459H211.811V241.946ZM241.973 241.946V244.459H244.486V241.946H241.973ZM179.135 244.459H181.649V246.973H184.162V252H181.649V249.486H179.135V252H174.108V249.486H176.622V246.973H179.135V244.459ZM196.73 244.459H201.757V249.486H199.243V246.973H196.73V244.459ZM204.27 244.459H206.784V246.973H204.27V244.459ZM209.297 244.459H211.811V246.973H214.324V249.486H211.811V252H209.297V249.486H206.784V246.973H209.297V244.459ZM194.216 246.973H196.73V249.486H194.216V246.973ZM229.405 246.973H231.919V252H229.405V246.973ZM234.432 246.973H236.946V252H234.432V246.973ZM196.73 249.486H199.243V252H196.73V249.486ZM204.27 249.486H206.784V252H204.27V249.486Z" fill="black"/>
<path d="M353.823 120.705C353.878 119.586 354.334 118.525 355.105 117.722C355.876 116.918 356.91 116.426 358.013 116.338C358.539 116.259 359.075 116.294 359.586 116.442C360.097 116.59 360.571 116.846 360.976 117.194C361.381 117.542 361.708 117.974 361.936 118.46C362.163 118.946 362.285 119.476 362.294 120.013C362.263 120.91 361.968 121.776 361.446 122.5C360.925 123.225 360.201 123.776 359.368 124.081V158.65L356.658 158.569V124.3C355.852 124.116 355.132 123.66 354.617 123.007C354.101 122.353 353.821 121.541 353.823 120.705V120.705Z" fill="#F9B775"/>
<path d="M335.471 92.2932L348.177 89.8448V85.2344L335.471 87.8652V92.2932Z" fill="#CCD5E2"/>
<path d="M347.653 187.381L374.945 190.5L374.843 191.373L347.551 188.254L347.653 187.381Z" fill="#E8E9EB"/>
<path d="M347.704 191.847L375 195.32L374.887 196.192L347.59 192.719L347.704 191.847Z" fill="#E8E9EB"/>
<path d="M344.893 88.1486C344.72 88.0729 344.531 88.0464 344.345 88.0719C344.16 88.0974 343.984 88.174 343.836 88.2936C343.548 88.5411 343.306 88.8399 343.12 89.1757C342.897 89.5383 342.663 89.9975 342.85 90.3842C343.038 90.7709 343.52 90.928 343.543 91.3268C343.566 91.7256 342.803 92.0156 342.58 92.5353C342.518 92.7136 342.512 92.9074 342.563 93.0894C342.613 93.2715 342.718 93.4326 342.862 93.5503C343.151 93.7777 343.453 93.9875 343.766 94.1788C343.92 94.2824 344.047 94.4217 344.139 94.5854C344.231 94.7491 344.284 94.9326 344.294 95.1213C344.835 94.5002 345.124 93.6894 345.103 92.8556C345.081 92.0218 344.749 91.2282 344.177 90.638C344.522 90.5587 344.83 90.3564 345.044 90.0668C345.259 89.7772 345.368 89.4188 345.351 89.0549C345.358 88.8759 345.319 88.698 345.239 88.539C345.159 88.38 345.04 88.2454 344.893 88.1486V88.1486Z" fill="#F27E72"/>
<path d="M310.439 327.967C314.434 325.886 314.612 326.144 317.881 322.765C317.881 322.765 319.723 321.129 319.747 321.106C322.125 318.628 322.802 315.343 322.981 311.638C325.275 263.304 319.26 248.681 323.123 244.766C326.939 245.362 330.838 244.625 334.571 246.414C335.533 246.901 336.392 247.563 337.103 248.366C339.33 250.745 340.679 253.791 340.931 257.016C341.68 264.263 340.063 277.226 338.054 284.145C335.271 293.396 332.982 302.783 331.195 312.269C330.693 314.752 330.717 317.311 331.266 319.785C331.792 321.696 332.127 323.654 332.265 325.629C332.265 328.446 331.658 329.44 329.281 330.071C326.487 330.807 325.643 330.071 323.967 330.503C322.513 330.951 321.137 331.618 319.89 332.479C315.919 334.7 314.22 333.426 309.821 332.409C307.765 331.93 306.184 330.153 308.098 329.159L310.439 327.967Z" fill="#FF998B"/>
<path d="M322.798 252.095C322.662 248.2 322.911 245.981 324.028 244.766C327.652 245.368 331.355 244.624 334.9 246.43C335.814 246.922 336.63 247.591 337.305 248.401C339.42 250.803 340.701 253.88 340.94 257.136C341.651 264.454 340.116 277.544 338.208 284.531C335.565 293.873 333.391 303.352 331.694 312.93C331.217 315.438 331.24 318.022 331.762 320.52C332.261 322.45 332.579 324.427 332.71 326.422C332.71 329.231 332.146 330.246 329.944 330.883C329.328 328.345 328.972 325.746 328.883 323.128C327.754 300.808 338.874 272.114 322.798 252.095Z" fill="#F27E72"/>
<path d="M326.283 256.769C325.276 255.699 324.137 254.773 322.896 254.015C322.602 248.908 322.727 246.166 324.025 244.766C327.65 245.366 331.353 244.624 334.899 246.425C335.813 246.915 336.629 247.582 337.304 248.39C339.42 250.785 340.701 253.852 340.94 257.098C341.651 264.394 340.116 277.445 338.207 284.411C337.654 286.423 337.169 288.248 336.728 289.942C334.843 278.01 335.633 264.677 326.283 256.769Z" fill="#111520"/>
<path d="M308.1 329.331L310.493 328.248C311.69 327.674 312.54 327.295 313.246 326.959C313.949 327.948 314.943 328.74 316.118 329.245C323.034 328.324 329.029 328.497 332.2 323.828C332.524 324.493 332.675 325.215 332.643 325.94C332.643 328.54 332.105 329.689 329.711 330.274C326.899 330.956 325.775 330.371 324.087 330.783C322.624 331.193 321.236 331.799 319.971 332.581C315.974 334.639 314.311 333.437 309.883 332.484C307.777 332.05 306.174 330.252 308.1 329.331Z" fill="#111520"/>
<path d="M341.182 329.878C341.182 329.878 341.953 323.218 342.584 320.799C341.883 293.924 334.998 251.519 337.383 243.352C344.104 243.831 349.446 246.682 356.168 246.109C358.506 271.746 351.597 302.804 350.428 322.68C351.001 326.349 351.317 328.231 353.105 331.304C353.678 332.285 354.403 333.115 354.917 334.131C355.325 335.146 355.454 336.252 355.291 337.333C355.134 339.549 354.453 341.695 353.304 343.596C352.369 345.185 350.966 345.057 349.47 344.928C347.507 344.869 345.636 344.082 344.221 342.72C342.008 340.498 340.75 337.5 340.714 334.365C340.783 332.862 340.939 331.363 341.182 329.878V329.878Z" fill="#FF998B"/>
<path d="M352.782 331.813C353.405 332.829 354.194 333.688 354.754 334.74C355.197 335.791 355.338 336.935 355.161 338.055C355.055 339.469 354.725 340.86 354.181 342.18C352.648 337.582 351.583 332.854 351 328.062C351.442 329.373 352.039 330.631 352.782 331.813V331.813Z" fill="#F27E72"/>
<path d="M348.271 265.289C347.229 262.138 342.496 258.999 337.354 259.153C336.792 251.619 336.663 245.875 337.354 243.352C344.089 243.837 349.443 246.727 356.178 246.147C358.333 270.43 352.465 299.45 350.731 319.587C349.993 302.08 352.137 283.507 348.271 265.289Z" fill="#F27E72"/>
<path d="M337.267 258.087C336.776 251.082 336.694 245.754 337.384 243.352C344.109 243.839 349.454 246.741 356.18 246.158C356.507 249.726 356.636 253.472 356.647 257.254C350.344 259.092 343.701 259.377 337.267 258.087V258.087Z" fill="#111520"/>
<path d="M352.139 337.374C354.159 336.753 354.047 334.446 353.638 332.408C354.055 332.95 354.431 333.517 354.766 334.106C355.198 335.124 355.335 336.231 355.163 337.315C354.997 339.536 354.275 341.687 353.056 343.593C352.064 345.185 350.577 345.056 348.99 344.928C346.909 344.868 344.925 344.079 343.425 342.714C341.078 340.487 339.744 337.483 339.706 334.341C339.771 332.834 339.928 331.333 340.177 329.843C340.177 329.843 340.177 329.703 340.177 329.469C341.677 336.273 343.896 339.283 352.139 337.374Z" fill="#111520"/>
<path d="M319.823 249.687C317.976 232.532 318.541 216.317 318.906 198.927C333.584 199.561 348.27 197.88 362.424 193.945C365.105 203.721 363.118 214.355 360.695 224.225C358.272 234.095 355.39 244.2 356.366 254.387C342.135 259.404 325.445 251.755 319.823 249.687Z" fill="#283474"/>
<path d="M362.401 193.945C363.755 199.4 364.059 205.065 363.297 210.634C349.16 211.096 333.22 211.298 318.53 207.789C318.588 204.874 318.659 201.946 318.718 198.971C333.451 199.62 348.194 197.924 362.401 193.945V193.945Z" fill="#111520"/>
<path d="M304.929 148.803L310.788 135.428C313.754 128.643 315.393 124.139 319.492 117.93L321.565 117.711C324.519 117.792 327.87 121.282 328.304 124.081C328.738 126.881 327.786 129.68 326.845 132.364L322.397 145.128C321.462 148.072 320.252 150.928 318.781 153.664C317.3 156.409 315.072 158.721 312.331 160.357C311.489 160.896 310.533 161.251 309.531 161.399C308.529 161.546 307.505 161.481 306.532 161.21C304.242 160.369 303.012 157.869 303 155.53C303.168 153.188 303.824 150.9 304.929 148.803V148.803Z" fill="#C11D2A"/>
<path d="M323.564 117.711C324.75 118.291 325.791 119.129 326.613 120.165C327.434 121.2 328.015 122.406 328.312 123.695C328.718 126.519 327.814 129.343 326.911 132.051L322.638 144.926C321.796 147.915 320.631 150.802 319.164 153.537C317.565 156.177 315.459 158.472 312.968 160.288C312.178 160.872 311.258 161.255 310.288 161.405C309.318 161.554 308.326 161.466 307.398 161.148L307.236 161.067C307.653 160.416 308.039 159.742 308.394 159.045C316.234 146.553 309.911 132.492 323.564 117.711Z" fill="#111520"/>
<path d="M309.154 161.447C307.901 161.55 306.641 161.327 305.503 160.799C304.365 160.272 303.387 159.459 302.669 158.442C301.27 156.386 300.212 154.126 299.533 151.744C296.773 144.023 293.203 136.605 288.882 129.611C290.847 125.93 294.728 126.35 297.32 124.766C301.971 131.382 305.971 138.092 310.397 144.848C312.219 147.632 314.066 150.591 314.279 153.899C314.492 157.207 312.48 160.911 309.154 161.447Z" fill="#C11D2A"/>
<path d="M290.3 128.532C290.429 128.189 290.66 127.899 290.957 127.708C292.84 126.222 295.018 125.215 297.326 124.766C297.428 126.302 297.236 127.845 296.762 129.301C296.288 130.756 295.541 132.095 294.566 133.236C293.696 133.154 292.883 132.744 292.272 132.082C291.691 131.424 291.178 130.701 290.742 129.927C290.582 129.739 290.46 129.518 290.384 129.278C290.308 129.038 290.28 128.784 290.3 128.532V128.532Z" fill="#111520"/>
<path d="M279.076 119.218C279.152 119.123 279.251 119.05 279.363 119.009C279.474 118.967 279.594 118.957 279.71 118.981C279.938 119.038 280.156 119.134 280.355 119.266L283.825 121.352L283.992 121.174C282.557 120.143 281.144 119.088 279.788 117.938C279.626 117.811 279.486 117.655 279.376 117.476C279.327 117.383 279.302 117.279 279.302 117.173C279.302 117.068 279.327 116.964 279.376 116.871C279.437 116.774 279.523 116.697 279.623 116.649C279.723 116.6 279.834 116.583 279.943 116.599C280.157 116.64 280.363 116.715 280.555 116.824C282.281 117.772 283.959 118.817 285.582 119.953L285.749 119.835L280.911 115.994C280.655 115.792 280.355 115.484 280.455 115.164C280.494 115.06 280.562 114.971 280.649 114.907C280.736 114.844 280.839 114.81 280.944 114.809C281.152 114.81 281.356 114.859 281.545 114.951C283.861 115.982 286.056 117.299 288.085 118.875H288.229C286.694 117.571 284.893 116.504 283.469 115.105C283.324 114.963 283.591 114.346 283.725 114.192C283.858 114.038 284.025 114.109 284.17 114.192C285.743 114.937 287.234 115.863 288.618 116.954C289.377 117.613 290.189 118.2 291.043 118.709C291.356 118.714 291.668 118.691 291.977 118.638C292.633 118.519 292.956 118.543 293.234 117.903C293.43 117.352 293.543 116.772 293.568 116.184C293.568 115.567 294.546 113.493 295.136 113.469C295.725 113.445 295.981 115.188 295.936 115.84C295.816 116.655 295.603 117.451 295.303 118.211C294.862 119.424 294.819 120.761 295.18 122.004C295.571 123.46 295.798 124.96 295.859 126.473C295.854 127.211 295.676 127.935 295.342 128.581C295.008 129.227 294.528 129.773 293.946 130.172C293.613 130.389 293.215 130.461 292.833 130.373C292.514 130.252 292.227 130.049 291.999 129.781C291.399 129.188 290.776 128.595 290.142 128.062C287.602 126.914 285.266 125.31 283.235 123.32C281.88 122.507 280.619 121.528 279.476 120.404C279.303 120.252 279.163 120.062 279.065 119.847C279.02 119.748 278.998 119.64 279 119.531C279.002 119.422 279.028 119.315 279.076 119.218V119.218Z" fill="#FF998B"/>
<path d="M293.091 119.431C293.117 119.514 293.124 119.603 293.11 119.69C293.097 119.777 293.064 119.859 293.014 119.929C292.378 121.298 292.231 122.87 292.601 124.347C292.698 124.651 292.759 124.968 292.782 125.288C292.794 125.45 292.764 125.612 292.696 125.756C292.628 125.9 292.523 126.021 292.394 126.105C292.238 126.164 292.073 126.186 291.909 126.172C291.744 126.158 291.584 126.107 291.439 126.022L286.159 123.904C286.058 123.645 286.032 123.36 286.085 123.085C286.138 122.811 286.268 122.56 286.456 122.366C286.841 121.985 287.183 121.558 287.476 121.092C287.564 120.842 287.681 120.605 287.825 120.386C288.046 120.145 288.329 119.981 288.638 119.915L289.929 119.5C290.847 119.105 291.854 119.013 292.82 119.237C292.876 119.247 292.928 119.269 292.975 119.303C293.022 119.336 293.061 119.38 293.091 119.431Z" fill="#F27E72"/>
<path d="M362.481 117.671C360.948 115.694 358.464 114.7 356.051 113.986C345.599 110.951 334.408 111.521 324.33 115.601C322.451 116.187 320.814 117.352 319.659 118.923C318.256 121.263 318.957 124.153 318.803 126.844C318.446 133.032 314.322 138.66 316.188 144.58C317.46 148.604 320.586 151.33 322.737 154.957C324.404 158.123 324.995 161.731 324.425 165.252C323.868 168.74 323.074 172.188 322.048 175.571C319.457 185.48 316.699 191.95 316.889 204.889C332.697 205.065 350.168 207.463 366.308 206.363C367.889 194.524 360.532 182.193 358.797 170.376C356.574 155.167 364.739 140.181 364.43 124.808C364.567 122.286 363.885 119.786 362.481 117.671V117.671Z" fill="#C11D2A"/>
<path d="M341.117 112.422C338.628 116.633 336.978 121.289 336.258 126.13C335.391 131.929 335.911 137.936 336.42 143.828L338.734 169.655L326.113 169.945C323.16 160.403 322.145 150.364 323.128 140.422C324.112 130.48 327.074 120.837 331.839 112.062L341.117 112.422Z" fill="#296BB0"/>
<path d="M327.601 160.057C327.616 152.152 328.073 144.254 328.971 136.398C329.86 128.544 332.055 120.886 335.471 113.728L334.93 113.469C331.483 120.681 329.267 128.399 328.37 136.315C327.472 144.191 327.015 152.109 327 160.033L327.601 160.057Z" fill="#111520"/>
<path d="M361.199 196.145C350.197 191.116 335.797 194.465 323.097 195.311C323.097 188.602 321.41 181.071 325.639 175.208C331.568 165.996 343.425 162.648 349.342 153.448C353.583 145.905 345.956 138.386 350.197 130.843C351.592 128.062 353.543 125.589 355.931 123.574C358.319 121.558 361.096 120.042 364.093 119.117C364.334 120.315 364.46 121.534 364.467 122.755C364.737 137.98 356.723 152.881 358.914 167.943C360.496 178.788 366.834 190.073 366.518 201C365.38 198.811 363.495 197.092 361.199 196.145Z" fill="#EC5662"/>
<path d="M324.546 195.355L356.647 194.583L347.796 144.531L315.706 145.291L324.546 195.355Z" fill="#111520"/>
<path d="M321.697 190.951L353.295 191.123L353.823 190.01L345.137 141.711L313.258 142.56L312.882 143.524L321.697 190.951Z" fill="white"/>
<path d="M321.721 192.534L353.823 191.763L344.972 141.711L312.882 142.482L321.721 192.534Z" fill="#283474"/>
<path d="M351 178.611C343.499 184.21 335.327 188.849 326.674 192.418L321.86 192.534L319.941 181.647C330.236 177.684 339.936 172.322 348.767 165.711L351 178.611Z" fill="#111520"/>
<path d="M331.235 110.487C332.212 106.643 332.759 102.709 332.867 98.7515C336.227 99.1517 339.637 98.8773 342.882 97.9453C343.291 102.227 344.613 106.379 346.765 110.142C341.251 112.41 336.023 112.848 331.235 110.487Z" fill="#FF998B"/>
<path d="M342.738 97.9453C343.161 102.234 344.532 106.395 346.765 110.163C343.669 111.493 340.288 112.14 336.882 112.056C339.353 107.762 340.901 103.059 341.441 98.2107L342.738 97.9453Z" fill="#F27E72"/>
<path d="M348.076 109.868C347.832 109.555 347.271 109.577 346.966 109.308C346.8 109.126 346.698 108.905 346.673 108.672C346.657 108.438 346.573 108.212 346.429 108.015C346.352 107.92 346.236 107.855 346.106 107.835C345.976 107.815 345.842 107.841 345.733 107.908C344.599 108.749 343.213 109.284 341.743 109.448C338.523 109.986 335.206 109.857 332.053 109.071C331.781 108.991 331.497 108.948 331.211 108.942C331.07 108.941 330.93 108.972 330.806 109.033C330.682 109.093 330.578 109.18 330.503 109.286C330.308 109.631 330.503 110.062 330.369 110.363C330.235 110.665 329.978 110.718 329.869 110.945C329.821 111.063 329.811 111.191 329.839 111.314C329.867 111.437 329.932 111.551 330.027 111.645C330.216 111.827 330.444 111.973 330.698 112.075C333.949 113.388 337.578 113.79 341.096 113.228C342.534 113.09 343.943 112.775 345.282 112.291C346.111 111.965 346.883 111.538 347.576 111.02C347.791 110.879 347.97 110.699 348.101 110.492C348.155 110.394 348.181 110.286 348.176 110.177C348.172 110.068 348.138 109.962 348.076 109.868V109.868Z" fill="#296BB0"/>
<path d="M341.117 99.3516C340.783 104.121 336.439 106.702 331.235 107.822C331.884 105.195 332.22 102.516 332.237 99.8285C335.205 100.167 338.22 100.005 341.117 99.3516V99.3516Z" fill="#111520"/>
<path d="M335.096 80.5213C334.419 79.0345 333.177 77.8728 331.64 77.289C330.84 76.9258 329.967 76.7473 329.087 76.7671C328.207 76.7869 327.343 77.0044 326.56 77.4032C325.625 78.0442 324.913 78.9549 324.519 80.0114C324.126 81.0679 324.07 82.219 324.359 83.3081C324.994 85.4798 326.34 87.3803 328.184 88.7104C328.583 89.0722 329.066 89.3311 329.59 89.4642C330.054 89.4954 330.52 89.4268 330.955 89.2632C331.391 89.0996 331.786 88.8449 332.113 88.5163C333.331 87.5719 334.306 86.3546 334.958 84.9642C335.59 83.5584 335.64 81.963 335.096 80.5213V80.5213Z" fill="#283474"/>
<path d="M334.045 78.3379C332.558 78.4337 331.116 78.8694 329.832 79.6102C329.159 80.1172 328.604 80.7597 328.205 81.4944C327.806 82.2291 327.571 83.0392 327.517 83.8702C327.448 86.2558 328.177 87.2781 328.096 88.062C328.06 88.557 327.947 89.0436 327.76 89.5047C326.815 91.9191 326.75 94.5799 327.575 97.0363C328.373 98.9788 329.577 100.728 330.538 102.603C330.678 102.892 330.898 103.137 331.171 103.311C331.445 103.486 331.762 103.582 332.089 103.591C335.988 103.62 339.784 102.359 342.864 100.013C344.533 98.7264 345.88 97.0818 346.801 95.2051C347.722 93.3284 348.192 91.2696 348.176 89.1866C348.125 87.1036 347.491 85.0746 346.344 83.3214C345.197 81.5683 343.581 80.1587 341.672 79.2467C339.261 78.2696 336.624 77.9554 334.045 78.3379V78.3379Z" fill="#FF998B"/>
<path d="M330.128 82.0332C329.056 83.2861 328.051 84.5894 327.118 85.9383C327.118 85.7424 327.045 85.5696 327.021 85.3623C326.838 83.8187 327.898 80.6164 329.251 79.7409C330.643 78.9161 332.23 78.4331 333.87 78.3356C336.574 77.9553 339.336 78.2737 341.864 79.2571C343.378 79.945 344.723 80.926 345.81 82.1365C346.898 83.347 347.704 84.7599 348.177 86.2838C346.76 87.3612 345.199 88.256 343.534 88.9448C337.44 91.2486 333.784 85.489 330.128 82.0332Z" fill="#F27E72"/>
<path d="M343.533 73.8993C346.533 74.7566 349.845 76.1353 351.176 78.8695C355.616 87.9875 353.576 91.2546 351.512 93.3517C351.453 93.9811 351.261 94.5923 350.948 95.1475C349.473 97.6964 344.613 98.5073 342.718 100.767C341.23 99.4805 342.802 97.3951 342.214 95.5646C341.686 93.9194 341.134 90.9303 339.994 89.6211C336.886 88.1729 334.523 86.4234 333.143 83.33C332.59 81.7752 331.904 80.2677 331.091 78.8232C330.687 78.0951 330.101 77.4757 329.387 77.0206C328.672 76.5656 327.852 76.2892 327 76.2164C327.552 71.1419 338.026 72.2888 343.533 73.8993Z" fill="#283474"/>
<path d="M341.707 90.5441C342.322 90.1339 342.831 89.6072 343.201 89.0003C343.477 88.5886 343.652 88.1311 344.242 88.0625C344.651 88.0705 345.049 88.1815 345.392 88.3834C345.736 88.5853 346.011 88.8702 346.187 89.2061C346.536 89.9285 346.732 90.7046 346.765 91.4933C346.611 92.6592 346.251 93.7947 345.698 94.8555C345.583 95.4173 345.259 95.9261 344.782 96.2965C344.104 96.8111 341.745 96.4108 341.118 95.8161L341.707 90.5441Z" fill="#FF998B"/>
<path d="M332.64 174.461C332.027 174.863 331.331 175.143 330.594 175.283C329.858 175.424 329.098 175.421 328.362 175.276C326.878 175.058 325.456 174.565 323.972 174.335C322.423 174.027 320.807 174.18 319.358 174.771C319.224 174.874 319.124 175.009 319.069 175.161C319.014 175.313 319.006 175.476 319.046 175.632C319.498 175.914 319.995 176.131 320.518 176.275C321.353 176.539 321.989 176.125 322.825 176.378C323.106 176.527 323.319 176.766 323.424 177.048C323.53 177.331 323.521 177.639 323.399 177.916C323.274 178.115 323.074 178.266 322.838 178.34C321.991 178.719 321.08 178.96 320.144 179.052C319.445 179.121 317.936 178.914 317.438 179.385C316.939 179.855 317.138 181.152 317.275 181.875C317.537 183.333 317.55 184.354 318.685 185.398C320.206 186.798 323.573 187.177 325.656 186.672C329.41 185.635 332.798 183.698 335.471 181.06C334.535 178.857 333.588 176.665 332.64 174.461Z" fill="#FF998B"/>
<path d="M336.58 184.057C346.747 177.789 357.519 173.101 365.707 164.578C367.164 163.196 368.428 161.622 369.464 159.901C370.225 158.014 370.627 156.001 370.649 153.966C371.076 149.324 370.21 145.004 369.867 140.434C369.659 135.642 369.044 130.877 368.03 126.189C367.058 122.284 366.027 117.809 363.124 114.853C361.05 112.716 359.154 113.167 357.199 115.423C354.888 118.094 354.248 121.797 353.94 125.311C353.322 132.573 353.789 139.886 355.327 147.01C355.789 149.182 356.358 151.461 355.706 153.586C354.988 155.442 353.8 157.079 352.257 158.334C345.882 164.385 338.827 169.675 331.235 174.098C333.51 176.982 334.293 181.22 336.58 184.057Z" fill="#C11D2A"/>
<path d="M354.968 153.001H355.028C355.097 152.981 355.157 152.929 355.194 152.856C355.232 152.783 355.244 152.696 355.229 152.612C353.553 144.101 352.219 134.946 353.423 125.135C353.432 125.051 353.414 124.967 353.373 124.899C353.331 124.831 353.27 124.785 353.202 124.77C353.168 124.763 353.133 124.764 353.099 124.774C353.065 124.784 353.033 124.802 353.005 124.827C352.977 124.852 352.953 124.883 352.935 124.919C352.918 124.956 352.906 124.996 352.901 125.037C351.637 134.958 353.031 144.223 354.717 152.758C354.731 152.826 354.763 152.888 354.808 152.932C354.854 152.976 354.91 153 354.968 153.001V153.001Z" fill="#111520"/>
<path d="M330.152 174.167C330.213 174.183 330.276 174.183 330.337 174.167C331.836 173.17 333.396 172.172 334.969 171.162C342.4 166.354 350.016 161.547 355.168 154.924C355.221 154.857 355.244 154.772 355.232 154.689C355.221 154.606 355.176 154.53 355.107 154.479C355.038 154.428 354.951 154.406 354.865 154.417C354.779 154.428 354.701 154.472 354.648 154.539C349.571 161.03 341.966 165.91 334.61 170.634C333.037 171.643 331.477 172.653 329.966 173.65C329.895 173.699 329.846 173.773 329.829 173.856C329.813 173.939 329.831 174.025 329.879 174.095C329.917 174.125 329.961 174.147 330.007 174.159C330.054 174.172 330.104 174.175 330.152 174.167V174.167Z" fill="#111520"/>
<path d="M336.484 184.06C336.539 184.061 336.593 184.052 336.643 184.032C336.693 184.012 336.737 183.982 336.772 183.945C336.807 183.914 336.835 183.877 336.854 183.837C336.873 183.796 336.883 183.752 336.883 183.709C336.883 183.665 336.873 183.621 336.854 183.581C336.835 183.54 336.807 183.503 336.772 183.472C335.214 182.05 334.105 180.289 333.554 178.366V178.174C332.974 176.225 331.919 174.412 330.466 172.863C330.395 172.801 330.299 172.766 330.2 172.766C330.1 172.766 330.005 172.801 329.934 172.863C329.864 172.926 329.824 173.011 329.824 173.1C329.824 173.188 329.864 173.273 329.934 173.336C331.297 174.833 332.277 176.575 332.807 178.442L332.893 178.634C333.484 180.659 334.669 182.51 336.326 183.996C336.372 184.029 336.426 184.051 336.484 184.06V184.06Z" fill="#111520"/>
<path d="M339.393 181.229C339.444 181.239 339.497 181.239 339.548 181.229C339.62 181.189 339.672 181.126 339.694 181.051C339.717 180.977 339.707 180.897 339.668 180.829C338.246 178.3 337.048 175.668 336.084 172.959C336.057 172.887 336 172.828 335.926 172.795C335.852 172.761 335.767 172.757 335.69 172.781C335.65 172.793 335.613 172.811 335.582 172.836C335.55 172.861 335.524 172.891 335.505 172.925C335.486 172.959 335.475 172.996 335.472 173.035C335.468 173.073 335.474 173.111 335.486 173.148C336.471 175.888 337.694 178.55 339.142 181.106C339.171 181.143 339.209 181.173 339.252 181.194C339.296 181.216 339.344 181.227 339.393 181.229Z" fill="#111520"/>
<defs>
<linearGradient id="paint0_linear_2836_211" x1="271.885" y1="134.555" x2="271.885" y2="169.714" gradientUnits="userSpaceOnUse">
<stop stop-color="#68595F"/>
<stop offset="0.02" stop-color="#896E80"/>
<stop offset="0.04" stop-color="#5E3B5B"/>
<stop offset="0.08" stop-color="#2B1D2A"/>
<stop offset="0.11" stop-color="#704A6A"/>
<stop offset="0.9" stop-color="#615060"/>
<stop offset="0.94" stop-color="#2B1D2A"/>
<stop offset="0.96" stop-color="#5E3B5B"/>
<stop offset="0.98" stop-color="#845675"/>
<stop offset="1" stop-color="#5B4A5C"/>
</linearGradient>
<linearGradient id="paint1_linear_2836_211" x1="272.504" y1="134.564" x2="272.504" y2="169.716" gradientUnits="userSpaceOnUse">
<stop stop-color="#676067"/>
<stop offset="0.06" stop-color="#654E63"/>
<stop offset="0.19" stop-color="#786F77"/>
<stop offset="0.81" stop-color="#786F77"/>
<stop offset="0.92" stop-color="#654E63"/>
<stop offset="1" stop-color="#676067"/>
</linearGradient>
<linearGradient id="paint2_linear_2836_211" x1="128.474" y1="127.149" x2="128.474" y2="149.421" gradientUnits="userSpaceOnUse">
<stop stop-color="#68595F"/>
<stop offset="0.02" stop-color="#896E80"/>
<stop offset="0.04" stop-color="#5E3B5B"/>
<stop offset="0.08" stop-color="#2D1E2C"/>
<stop offset="0.11" stop-color="#704A6A"/>
<stop offset="0.9" stop-color="#615060"/>
<stop offset="0.94" stop-color="#2D1E2C"/>
<stop offset="0.96" stop-color="#5E3B5B"/>
<stop offset="0.98" stop-color="#845675"/>
<stop offset="1" stop-color="#5B4A5C"/>
</linearGradient>
<linearGradient id="paint3_linear_2836_211" x1="128.122" y1="127.157" x2="128.122" y2="149.422" gradientUnits="userSpaceOnUse">
<stop stop-color="#676067"/>
<stop offset="0.06" stop-color="#654E63"/>
<stop offset="0.19" stop-color="#786F77"/>
<stop offset="0.81" stop-color="#786F77"/>
<stop offset="0.92" stop-color="#654E63"/>
<stop offset="1" stop-color="#676067"/>
</linearGradient>
<linearGradient id="paint4_linear_2836_211" x1="128.959" y1="149.434" x2="128.959" y2="127.156" gradientUnits="userSpaceOnUse">
<stop stop-color="#68595F"/>
<stop offset="0.05" stop-color="#2D1E2C"/>
<stop offset="0.52" stop-color="#5E3B5B"/>
<stop offset="0.96" stop-color="#2D1E2C"/>
<stop offset="1" stop-color="#5B4A5C"/>
</linearGradient>
<linearGradient id="paint5_linear_2836_211" x1="-52.4066" y1="155.18" x2="-52.4066" y2="177.451" gradientUnits="userSpaceOnUse">
<stop stop-color="#68595F"/>
<stop offset="0.02" stop-color="#896E80"/>
<stop offset="0.04" stop-color="#5E3B5B"/>
<stop offset="0.08" stop-color="#2D1E2C"/>
<stop offset="0.11" stop-color="#704A6A"/>
<stop offset="0.9" stop-color="#615060"/>
<stop offset="0.94" stop-color="#2D1E2C"/>
<stop offset="0.96" stop-color="#5E3B5B"/>
<stop offset="0.98" stop-color="#845675"/>
<stop offset="1" stop-color="#5B4A5C"/>
</linearGradient>
<linearGradient id="paint6_linear_2836_211" x1="128.122" y1="155.187" x2="128.122" y2="177.452" gradientUnits="userSpaceOnUse">
<stop stop-color="#676067"/>
<stop offset="0.06" stop-color="#654E63"/>
<stop offset="0.19" stop-color="#786F77"/>
<stop offset="0.81" stop-color="#786F77"/>
<stop offset="0.92" stop-color="#654E63"/>
<stop offset="1" stop-color="#676067"/>
</linearGradient>
<linearGradient id="paint7_linear_2836_211" x1="127.995" y1="177.459" x2="128.673" y2="155.187" gradientUnits="userSpaceOnUse">
<stop stop-color="#68595F"/>
<stop offset="0.05" stop-color="#2D1E2C"/>
<stop offset="0.52" stop-color="#5E3B5B"/>
<stop offset="0.96" stop-color="#2D1E2C"/>
<stop offset="1" stop-color="#5B4A5C"/>
</linearGradient>
<linearGradient id="paint8_linear_2836_211" x1="-52.4066" y1="106.11" x2="-52.4066" y2="117.545" gradientUnits="userSpaceOnUse">
<stop stop-color="#68595F"/>
<stop offset="0.02" stop-color="#896E80"/>
<stop offset="0.04" stop-color="#5E3B5B"/>
<stop offset="0.08" stop-color="#2D1E2C"/>
<stop offset="0.11" stop-color="#704A6A"/>
<stop offset="0.9" stop-color="#615060"/>
<stop offset="0.94" stop-color="#2D1E2C"/>
<stop offset="0.96" stop-color="#5E3B5B"/>
<stop offset="0.98" stop-color="#845675"/>
<stop offset="1" stop-color="#5B4A5C"/>
</linearGradient>
<linearGradient id="paint9_linear_2836_211" x1="128.122" y1="106.117" x2="128.122" y2="117.545" gradientUnits="userSpaceOnUse">
<stop stop-color="#676067"/>
<stop offset="0.06" stop-color="#654E63"/>
<stop offset="0.19" stop-color="#786F77"/>
<stop offset="0.81" stop-color="#786F77"/>
<stop offset="0.92" stop-color="#654E63"/>
<stop offset="1" stop-color="#676067"/>
</linearGradient>
<linearGradient id="paint10_linear_2836_211" x1="127.995" y1="117.552" x2="128.958" y2="106.117" gradientUnits="userSpaceOnUse">
<stop stop-color="#68595F"/>
<stop offset="0.05" stop-color="#2D1E2C"/>
<stop offset="0.52" stop-color="#5E3B5B"/>
<stop offset="0.96" stop-color="#2D1E2C"/>
<stop offset="1" stop-color="#5B4A5C"/>
</linearGradient>
<linearGradient id="paint11_linear_2836_211" x1="209.814" y1="77.6991" x2="209.814" y2="73.7201" gradientUnits="userSpaceOnUse">
<stop stop-color="#666666"/>
<stop offset="1" stop-color="#010104"/>
</linearGradient>
<linearGradient id="paint12_linear_2836_211" x1="209.821" y1="74.7163" x2="209.821" y2="76.991" gradientUnits="userSpaceOnUse">
<stop stop-color="#0B131C"/>
<stop offset="1" stop-color="#354039"/>
</linearGradient>
<linearGradient id="paint13_linear_2836_211" x1="210.518" y1="76.5215" x2="209.092" y2="75.0949" gradientUnits="userSpaceOnUse">
<stop stop-color="#231F20"/>
<stop offset="0.08" stop-color="#212226"/>
<stop offset="0.2" stop-color="#1F2C37"/>
<stop offset="0.33" stop-color="#1A3C53"/>
<stop offset="0.47" stop-color="#13537B"/>
<stop offset="0.62" stop-color="#0A70AE"/>
<stop offset="0.78" stop-color="#0095EE"/>
<stop offset="0.8" stop-color="#0387D6"/>
<stop offset="0.84" stop-color="#0D689F"/>
<stop offset="0.88" stop-color="#154D71"/>
<stop offset="0.91" stop-color="#1B394E"/>
<stop offset="0.95" stop-color="#1F2A34"/>
<stop offset="0.98" stop-color="#222225"/>
<stop offset="1" stop-color="#231F20"/>
</linearGradient>
<radialGradient id="paint14_radial_2836_211" cx="0" cy="0" r="1" gradientUnits="userSpaceOnUse" gradientTransform="translate(209.804 75.8086) scale(1.01225 1.01172)">
<stop stop-color="#231F20"/>
<stop offset="0.2" stop-color="#165068"/>
<stop offset="0.38" stop-color="#0C78A1"/>
<stop offset="0.54" stop-color="#0594CB"/>
<stop offset="0.66" stop-color="#01A6E4"/>
<stop offset="0.73" stop-color="#00ADEE"/>
<stop offset="0.76" stop-color="#01A5E3"/>
<stop offset="0.81" stop-color="#0693C8"/>
<stop offset="0.87" stop-color="#0D749B"/>
<stop offset="0.94" stop-color="#184A5E"/>
<stop offset="1" stop-color="#231F20"/>
</radialGradient>
<radialGradient id="paint15_radial_2836_211" cx="0" cy="0" r="1" gradientUnits="userSpaceOnUse" gradientTransform="translate(210.368 76.3364) scale(0.360062 0.359873)">
<stop stop-color="#CCCCCC"/>
<stop offset="0.02" stop-color="#C4C4C4"/>
<stop offset="0.22" stop-color="#898989"/>
<stop offset="0.41" stop-color="#585858"/>
<stop offset="0.59" stop-color="#313131"/>
<stop offset="0.75" stop-color="#161616"/>
<stop offset="0.89" stop-color="#050505"/>
<stop offset="1"/>
</radialGradient>
<linearGradient id="paint16_linear_2836_211" x1="245" y1="310.048" x2="334.761" y2="309.612" gradientUnits="userSpaceOnUse">
<stop stop-color="#EC5662"/>
<stop offset="1" stop-color="#C11D2A"/>
</linearGradient>
</defs>
</svg>
