<svg xmlns="http://www.w3.org/2000/svg" width="25" height="25" viewBox="0 0 25 25"><defs><style>.a,.b{fill:none;}.b{stroke:red;}.c{fill:red;}</style></defs><g transform="translate(-1070.889 -821.201)"><circle class="a" cx="12.5" cy="12.5" r="12.5" transform="translate(1070.889 821.201)"/><circle class="b" cx="12" cy="12" r="12" transform="translate(1071.389 821.701)"/><path class="c" d="M1078.144,836.887a5.824,5.824,0,0,0,7.793,2.64,5.7,5.7,0,0,0,3.238-4.513,5.5,5.5,0,0,0-.851-3.835,5.692,5.692,0,0,0-.62-.823,5.827,5.827,0,0,0-8.232-.417l-.366.314-.157-.236a1.346,1.346,0,0,0-.117-.153l-.873-.866a.2.2,0,0,0-.223-.05.253.253,0,0,0-.194.267V832.7a.449.449,0,0,0,0,.09.275.275,0,0,0,.305.231l3.488,0a.248.248,0,0,0,.257-.157.234.234,0,0,0-.052-.285l-1.27-1.223.288-.32c.037-.035.074-.069.114-.1a4.2,4.2,0,0,1,4.115-.717,4.309,4.309,0,1,1-3.3,7.943,4.132,4.132,0,0,1-2.189-2.514.715.715,0,0,0-.037-.1c0,.007-.036.006-.1,0h-1.413a.282.282,0,0,0-.068.007c0,.008.005.027.011.055A5.817,5.817,0,0,0,1078.144,836.887Z"/></g></svg>