<svg xmlns="http://www.w3.org/2000/svg" width="15" height="15" viewBox="0 0 15 15"><defs><style>.a{fill:#05bd29;}</style></defs><g transform="translate(-5 -4.5)"><g transform="translate(928.515 -967.503)"><path class="a" d="M-914.665,986.989a6.838,6.838,0,0,1-1.759-.124c-1.919-.356-3.842-.685-5.764-1.026-.441-.078-.882-.16-1.328-.241V973.423l1.206-.217c2.21-.394,4.419-.794,6.631-1.176a4.723,4.723,0,0,1,.913-.01c.035,0,.1.089.1.137.008.352.011.7,0,1.056,0,.155.031.211.2.21q2.409-.011,4.818,0a5.9,5.9,0,0,1,.637.035.44.44,0,0,1,.453.422,2.593,2.593,0,0,1,.044.49q0,5.027,0,10.053a4.636,4.636,0,0,1-.057.594.388.388,0,0,1-.336.353,2.916,2.916,0,0,1-.514.052q-2.513.005-5.025,0c-.178,0-.225.049-.22.226C-914.656,986.087-914.665,986.531-914.665,986.989Zm0-3.134c0,.314.009.6,0,.877-.007.156.04.2.193.2q2.634-.008,5.268,0c.167,0,.2-.057.2-.212q-.006-5.283,0-10.565v-.217h-5.636V975h1.337v1.194h-1.34c0,.071-.013.123-.01.174.007.173-.043.4.046.5s.313.033.478.035c.274,0,.549,0,.826,0v1.212h-1.343v.712h1.34v1.194c-.279,0-.543,0-.807,0-.171,0-.416-.055-.5.035s-.032.342-.049.52c-.013.141.051.166.172.163.334-.006.668,0,1,0,.061,0,.121.005.178.008v1.188h-.2c-.334,0-.668,0-1,0-.048,0-.135.049-.137.079-.012.208-.006.417-.006.644h1.351v1.193Zm-4.661-5.188c-.226-.607-.456-1.219-.681-1.833a.158.158,0,0,0-.19-.127c-.189.019-.379.026-.568.037l-.436.024c.041.1.066.164.095.227.348.773.7,1.544,1.042,2.319a.3.3,0,0,1,.011.223c-.282.584-.575,1.162-.864,1.742-.129.26-.257.52-.4.814.377.011.725.026,1.073.028.038,0,.093-.061.113-.106.13-.3.253-.6.377-.907.134-.326.266-.652.392-.959.259.638.519,1.281.785,1.922.028.068.087.168.14.173.381.038.763.055,1.174.081-.037-.088-.06-.146-.087-.2-.419-.862-.836-1.724-1.26-2.583a.3.3,0,0,1,0-.294Q-918,978-917.4,976.754c.031-.064.059-.13.1-.226-.349.021-.658.046-.967.056a.294.294,0,0,0-.3.22C-918.811,977.428-919.07,978.047-919.323,978.666Z" transform="translate(0)"/><path class="a" d="M-607.141,1274.684h2.41v1.186h-2.41Z" transform="translate(-305.55 -292.026)"/><path class="a" d="M-607.306,1112.676v-1.193h2.413v1.193Z" transform="translate(-305.391 -134.57)"/><path class="a" d="M-604.834,1057.25v1.181h-2.414v-1.181Z" transform="translate(-305.447 -82.246)"/><path class="a" d="M-607.2,1221.539v-1.179h2.41v1.179Z" transform="translate(-305.491 -239.614)"/><path class="a" d="M-607.1,1166h2.4v1.184h-2.4Z" transform="translate(-305.589 -187.167)"/></g></g></svg>