<svg xmlns="http://www.w3.org/2000/svg" width="20" height="20" viewBox="0 0 20 20"><defs><style>.a{fill:#008f1c;}</style></defs><g transform="translate(-15.882 -16.513)"><g transform="translate(-1869 -1009.488)"><g transform="translate(36.471 122.467)"><path class="a" d="M1858.531,903.533a10,10,0,1,0,9.879,10.012A9.92,9.92,0,0,0,1858.531,903.533Zm5.7,10.05a.669.669,0,0,1-.556.633,1.889,1.889,0,0,1-.335.023q-1.958,0-3.915,0h-.3c0,.622,0,1.212,0,1.8,0,.857,0,1.713,0,2.57a.707.707,0,0,1-.477.706.654.654,0,0,1-.77-.238,1.025,1.025,0,0,1-.149-.514c-.012-1.353-.007-2.706-.008-4.059v-.271h-.3q-2.006,0-4.011,0a.722.722,0,0,1-.811-.7.677.677,0,0,1,.528-.683,1.486,1.486,0,0,1,.333-.033q1.958,0,3.915,0h.349c0-.125,0-.225,0-.326q0-1.813,0-3.626c0-.152,0-.3.005-.456a.68.68,0,0,1,.69-.707.693.693,0,0,1,.711.719c.011.68,0,1.361,0,2.041q0,1.057,0,2.113c0,.07.007.14.013.242h1.06c1.089,0,2.178,0,3.267,0A.7.7,0,0,1,1864.229,913.584Z"/></g></g></g></svg>