<svg xmlns="http://www.w3.org/2000/svg" width="15.166" height="15.173" viewBox="0 0 15.166 15.173"><defs><style>.a{fill:#ff7f00;}</style></defs><g transform="translate(-51.057 -18.926)"><g transform="translate(51.057 18.926)"><path class="a" d="M4193.78,1472.594c0-.093-.011-.162-.011-.232,0-1.252,0-2.5.005-3.755a.457.457,0,0,1,.12-.294q4.029-4.042,8.068-8.075c.04-.04.083-.077.108-.1,1.384,1.382,2.761,2.759,4.151,4.149-.041.044-.091.1-.145.154q-4,4-7.995,8a.473.473,0,0,1-.37.159c-1.23-.007-2.461,0-3.691,0Zm4.493-2.178-2.327-2.327c-.277.269-.567.548-.855.83a.153.153,0,0,0-.046.092c0,.338,0,.676,0,1.033h1.289v1.273c.341,0,.654,0,.966,0a.235.235,0,0,0,.15-.056C4197.731,1470.979,4198.005,1470.692,4198.273,1470.417Zm4.358-8.342c-.01-.221-.176-.321-.325-.241a.752.752,0,0,0-.162.137q-2.618,2.617-5.235,5.235c-.04.04-.1.079-.111.126-.014.1-.034.242.016.281a.462.462,0,0,0,.3.022c.045-.006.083-.072.123-.112l1.374-1.373q1.923-1.924,3.846-3.849A1.733,1.733,0,0,0,4202.631,1462.075Z" transform="translate(-4193.769 -1457.426)"/><path class="a" d="M4409.464,1402.782l-4.112-4.114c.551-.573,1.095-1.177,1.681-1.736a1.182,1.182,0,0,1,1.633,0c.83.789,1.647,1.592,2.438,2.42a1.251,1.251,0,0,1-.058,1.848C4410.522,1401.727,4409.993,1402.253,4409.464,1402.782Z" transform="translate(-4396.319 -1396.603)"/></g></g></svg>