<svg xmlns="http://www.w3.org/2000/svg" xmlns:xlink="http://www.w3.org/1999/xlink" width="142" height="142" viewBox="0 0 142 142">
  <defs>
    <clipPath id="clip-Artboard_2">
      <rect width="142" height="142"/>
    </clipPath>
  </defs>
  <g id="Artboard_2" data-name="Artboard – 2" clip-path="url(#clip-Artboard_2)">
    <rect width="142" height="142" fill="#fff"/>
    <g id="Group_4698" data-name="Group 4698" transform="translate(-5276 -3045)">
      <g id="Ellipse_198" data-name="Ellipse 198" transform="translate(5277 3046)" fill="none" stroke="#d50000" stroke-width="5">
        <circle cx="70" cy="70" r="70" stroke="none"/>
        <circle cx="70" cy="70" r="67.5" fill="none"/>
      </g>
      <path id="Path_3458" data-name="Path 3458" d="M7754.872,1894.87c4.515-4.7,8.432-8.8,12.367-12.871,1.417-1.467,2.841-2.929,4.326-4.325,2.7-2.537,6.4-2.585,8.733-.173,2.352,2.433,2.2,6.115-.4,8.728-4.94,4.962-9.862,9.948-14.888,14.821-1.359,1.32-1.2,2.17.037,3.379,4.952,4.836,9.848,9.731,14.758,14.609,2.685,2.667,2.882,6.323.5,8.89-2.147,2.307-6.173,2.253-8.736-.25-5.094-4.975-10.173-9.967-15.142-15.067-1.276-1.311-1.987-1.024-3.075.079q-7.232,7.343-14.556,14.594c-2.775,2.756-6.478,3.106-8.875.917a5.924,5.924,0,0,1-.114-8.829c4.9-5.011,9.907-9.92,14.866-14.875,1.746-1.747,1.753-1.762.012-3.514-4.969-5.007-9.973-9.985-14.92-15.016a5.99,5.99,0,0,1-.462-8.147,5.719,5.719,0,0,1,8.36-.617c3.851,3.5,7.474,7.247,11.121,10.96C7750.733,1890.149,7752.533,1892.282,7754.872,1894.87Z" transform="translate(-2408.39 1213.831)" fill="#d50000" stroke="#fff" stroke-width="5"/>
    </g>
  </g>
</svg>
