<svg width="24" height="24" viewBox="0 0 24 24" fill="none" xmlns="http://www.w3.org/2000/svg">
<path d="M20.75 16.0625V2.9375C20.75 2.41797 20.332 2 19.8125 2H7C4.92969 2 3.25 3.67969 3.25 5.75V18.25C3.25 20.3203 4.92969 22 7 22H19.8125C20.332 22 20.75 21.582 20.75 21.0625V20.4375C20.75 20.1445 20.6133 19.8789 20.4023 19.707C20.2383 19.1055 20.2383 17.3906 20.4023 16.7891C20.6133 16.6211 20.75 16.3555 20.75 16.0625ZM8.25 7.23438C8.25 7.10547 8.35547 7 8.48438 7H16.7656C16.8945 7 17 7.10547 17 7.23438V8.01562C17 8.14453 16.8945 8.25 16.7656 8.25H8.48438C8.35547 8.25 8.25 8.14453 8.25 8.01562V7.23438ZM8.25 9.73438C8.25 9.60547 8.35547 9.5 8.48438 9.5H16.7656C16.8945 9.5 17 9.60547 17 9.73438V10.5156C17 10.6445 16.8945 10.75 16.7656 10.75H8.48438C8.35547 10.75 8.25 10.6445 8.25 10.5156V9.73438ZM18.1484 19.5H7C6.30859 19.5 5.75 18.9414 5.75 18.25C5.75 17.5625 6.3125 17 7 17H18.1484C18.0742 17.668 18.0742 18.832 18.1484 19.5Z" fill="black"/>
<path d="M23 6C23 8.76142 20.7614 11 18 11C15.2386 11 13 8.76142 13 6C13 3.23858 15.2386 1 18 1C20.7614 1 23 3.23858 23 6Z" fill="white"/>
<path d="M19.9039 7.24559C19.6883 7.0023 19.2848 6.63633 19.2848 5.4375C19.2848 4.52695 18.6768 3.79805 17.8569 3.61922V3.375C17.8569 3.16793 17.6971 3 17.5 3C17.3029 3 17.1431 3.16793 17.1431 3.375V3.61922C16.3232 3.79805 15.7152 4.52695 15.7152 5.4375C15.7152 6.63633 15.3117 7.0023 15.0961 7.24559C15.0291 7.32117 14.9994 7.41152 15 7.5C15.0012 7.69219 15.1449 7.875 15.3583 7.875H19.6417C19.8551 7.875 19.9989 7.69219 20 7.5C20.0006 7.41152 19.9709 7.32105 19.9039 7.24559ZM15.7537 7.3125C15.9905 6.98473 16.2494 6.44145 16.2507 5.4443C16.2507 5.44195 16.25 5.43984 16.25 5.4375C16.25 4.71258 16.8096 4.125 17.5 4.125C18.1904 4.125 18.75 4.71258 18.75 5.4375C18.75 5.43984 18.7493 5.44195 18.7493 5.4443C18.7506 6.44156 19.0095 6.98484 19.2463 7.3125H15.7537ZM17.5 9C17.8942 9 18.2139 8.66426 18.2139 8.25H16.7861C16.7861 8.66426 17.1058 9 17.5 9Z" fill="black"/>
</svg>
