<svg width="21" height="19" viewBox="0 0 21 19" fill="none" xmlns="http://www.w3.org/2000/svg">
<path d="M2.11615 4.84504H1.21625V4.70808C1.21625 3.69808 1.21625 2.68707 1.21625 1.67707C1.21438 1.45624 1.25647 1.23728 1.34015 1.03291C1.42383 0.828533 1.54735 0.642873 1.70355 0.486763C1.85975 0.330652 2.04552 0.20716 2.24994 0.123603C2.45436 0.0400469 2.67339 -0.00193161 2.89422 6.82326e-05C4.53289 6.82326e-05 6.17157 6.82326e-05 7.81024 6.82326e-05H13.7822C14.3732 6.82326e-05 14.9643 6.82326e-05 15.5543 6.82326e-05C15.9869 0.0117702 16.3979 0.191564 16.7001 0.501289C17.0024 0.811014 17.172 1.22624 17.1732 1.659C17.1792 2.359 17.1732 3.05102 17.1732 3.74702C17.1732 4.83702 17.1732 5.92704 17.1732 7.01704C17.1743 7.05787 17.1664 7.09845 17.1502 7.13593C17.134 7.17342 17.1097 7.20695 17.0792 7.23408C16.8202 7.49608 16.5682 7.76312 16.3132 8.02912L16.2662 8.00312V7.87409C16.2662 5.82876 16.2662 3.78301 16.2662 1.73701C16.2733 1.61337 16.2517 1.48988 16.2029 1.37604C16.1542 1.26221 16.0796 1.16126 15.9852 1.08112C15.8379 0.960066 15.6517 0.896687 15.4612 0.903022H9.48822H5.01227C4.31227 0.903022 3.61217 0.903022 2.91217 0.903022C2.80583 0.898187 2.69965 0.915555 2.6004 0.954048C2.50115 0.992541 2.41103 1.05138 2.33575 1.12666C2.26048 1.20193 2.20176 1.29205 2.16327 1.3913C2.12477 1.49055 2.10741 1.59673 2.11224 1.70307C2.11224 2.6924 2.11224 3.68176 2.11224 4.67109L2.11615 4.84504Z" fill="#347EF9"/>
<path d="M16.3272 13.4443C16.4312 13.5713 16.5597 13.6762 16.705 13.7524C16.8504 13.8287 17.0096 13.875 17.1732 13.8884V14.0264C17.1732 15.1164 17.1732 16.2061 17.1732 17.2954C17.1812 17.7347 17.015 18.1592 16.7109 18.4763C16.4067 18.7934 15.9895 18.9771 15.5502 18.9873C15.3992 18.9933 15.2502 18.9873 15.0972 18.9873H6.78717C5.55417 18.9873 4.32122 18.9873 3.08722 18.9873C2.61725 19.0217 2.15193 18.8747 1.78717 18.5764C1.60491 18.4233 1.45872 18.2319 1.35882 18.0159C1.25892 17.7998 1.20776 17.5644 1.20917 17.3264C1.20217 16.3044 1.20917 15.2813 1.20917 14.2583C1.20917 14.2263 1.20927 14.1923 1.21527 14.1523H2.11517V17.2183C2.10157 17.3338 2.11427 17.4511 2.15216 17.561C2.19005 17.671 2.25218 17.7709 2.33404 17.8535C2.41591 17.9361 2.51532 17.9994 2.62494 18.0383C2.73456 18.0772 2.85158 18.0909 2.96722 18.0784H14.5452C14.8452 18.0784 15.1402 18.0784 15.4372 18.0784C15.5487 18.0876 15.6609 18.0724 15.7659 18.0339C15.871 17.9954 15.9664 17.9345 16.0456 17.8555C16.1248 17.7764 16.1858 17.6812 16.2244 17.5762C16.263 17.4712 16.2783 17.3588 16.2692 17.2473C16.2692 16.0366 16.2692 14.8256 16.2692 13.6143C16.2692 13.5563 16.2792 13.4984 16.2842 13.4414L16.3272 13.4443Z" fill="#347EF9"/>
<path d="M16.6232 12.0391C16.2102 12.4391 15.8143 12.816 15.4233 13.198C14.5613 14.035 13.7052 14.879 12.8372 15.709C12.2872 16.2274 11.6457 16.6389 10.9452 16.9229C10.7811 16.9848 10.6102 17.0273 10.4362 17.0491C10.3931 17.0515 10.351 17.0626 10.3124 17.082C10.2739 17.1015 10.2398 17.1286 10.2122 17.1619C10.1842 17.1979 10.1532 17.2489 10.1122 17.2559C10.0492 17.2689 9.95318 17.2769 9.92118 17.2429C9.88918 17.2089 9.8922 17.111 9.8942 17.043C9.8942 17.017 9.93219 16.989 9.95719 16.968C9.98547 16.9396 10.0075 16.9058 10.022 16.8684C10.0365 16.8311 10.043 16.791 10.0412 16.751C10.0574 16.5227 10.1032 16.2976 10.1773 16.0811C10.4593 15.3575 10.8721 14.6919 11.3952 14.1179C11.7032 13.7799 12.0082 13.44 12.3202 13.106C12.6322 12.772 12.9412 12.459 13.2492 12.134C13.5082 11.862 13.7642 11.585 14.0232 11.313C14.0491 11.2903 14.0781 11.2715 14.1093 11.2571C14.361 10.9559 14.6279 10.6678 14.9092 10.394L16.6232 12.0391Z" fill="#347EF9"/>
<path d="M15.3931 10.0223L16.0721 9.35239C16.6851 8.75239 17.3002 8.15224 17.9102 7.54624C18.1629 7.29432 18.4612 7.09275 18.7892 6.95225C18.9269 6.89269 19.0784 6.8726 19.2269 6.89414C19.3754 6.91568 19.515 6.97808 19.6301 7.07432C19.8172 7.20377 19.9689 7.37817 20.0712 7.5814C20.1324 7.69029 20.1624 7.81372 20.1582 7.93857C20.154 8.06343 20.1156 8.18491 20.0471 8.2894C19.832 8.62861 19.5895 8.94964 19.3221 9.24936C18.5821 10.0244 17.8141 10.7743 17.0571 11.5343C17.0481 11.5433 17.0381 11.5493 17.0201 11.5633L15.3931 10.0223Z" fill="#347EF9"/>
<path d="M9.97114 2.71284C11.3918 2.71284 12.8129 2.71284 14.2342 2.71284C14.3053 2.70575 14.377 2.71857 14.4412 2.74982C14.5055 2.78107 14.5598 2.82953 14.5981 2.88984C14.6292 2.93739 14.6481 2.99202 14.653 3.04865C14.6579 3.10528 14.6488 3.16222 14.6263 3.21442C14.6038 3.26663 14.5688 3.31239 14.5242 3.34772C14.4797 3.38306 14.4271 3.40689 14.3712 3.41694C14.3007 3.42756 14.2293 3.43123 14.1582 3.42792H6.8011C6.4121 3.42792 6.0242 3.42792 5.6352 3.42792C5.55903 3.43121 5.48379 3.40992 5.4206 3.36726C5.35742 3.32459 5.30954 3.26275 5.28413 3.19086C5.25785 3.11956 5.25613 3.0415 5.27913 2.96906C5.30212 2.89663 5.3486 2.83393 5.41121 2.79084C5.49387 2.744 5.58719 2.7193 5.6822 2.71894C7.1122 2.71294 8.54181 2.71084 9.97114 2.71284Z" fill="#347EF9"/>
<path d="M9.94616 6.6422H5.75915C5.70515 6.6422 5.65018 6.6422 5.59618 6.6422C5.5023 6.63982 5.4132 6.60017 5.3485 6.5321C5.2838 6.46402 5.24883 6.37305 5.25121 6.27917C5.2536 6.18528 5.29312 6.09631 5.3612 6.03161C5.42927 5.96691 5.52036 5.93181 5.61425 5.9342C5.88625 5.9342 6.15914 5.9342 6.43114 5.9342H14.2402C14.5402 5.9342 14.7153 6.14031 14.6403 6.39831C14.6227 6.46135 14.5869 6.5178 14.5375 6.56066C14.488 6.60352 14.4271 6.63086 14.3622 6.63927C14.3082 6.64708 14.2537 6.64982 14.1992 6.64733L9.94616 6.6422Z" fill="#347EF9"/>
<path d="M9.95811 9.14001C11.3788 9.14001 12.7991 9.14001 14.2191 9.14001C14.2943 9.13031 14.3707 9.14214 14.4394 9.17419C14.5081 9.20623 14.5663 9.25733 14.6072 9.32116C14.6172 9.33303 14.6247 9.34677 14.6291 9.36169C14.6335 9.3766 14.6348 9.39216 14.6328 9.40759C14.6308 9.42301 14.6257 9.43797 14.6177 9.45129C14.6096 9.46461 14.5989 9.47603 14.5862 9.48498C14.4976 9.56192 14.4147 9.64516 14.3381 9.734C14.3046 9.77587 14.2615 9.80901 14.2124 9.83044C14.1632 9.85187 14.1096 9.86099 14.0561 9.85705C12.0615 9.85305 10.0668 9.85305 8.07212 9.85705H5.64609C5.57498 9.86338 5.50376 9.84745 5.44199 9.81164C5.38023 9.77583 5.33097 9.72196 5.30112 9.6571C5.26604 9.59611 5.25275 9.525 5.26328 9.45544C5.27382 9.38587 5.30754 9.32191 5.35911 9.27404C5.43923 9.20335 5.54058 9.16128 5.64719 9.15417C7.08419 9.14017 8.52111 9.14001 9.95811 9.14001Z" fill="#347EF9"/>
<path d="M1.32025 9.10219C1.62025 9.10219 1.92027 9.10219 2.22027 9.10219C2.27872 9.09775 2.33316 9.07092 2.37225 9.02724C2.46937 8.89935 2.60403 8.80514 2.75738 8.75746C2.91073 8.70979 3.07508 8.71109 3.22759 8.76137C3.38011 8.81164 3.51315 8.90821 3.60809 9.03773C3.70302 9.16726 3.7551 9.3232 3.75714 9.48378C3.75917 9.64436 3.71107 9.8016 3.61944 9.93349C3.52781 10.0654 3.39722 10.1653 3.24603 10.2194C3.09483 10.2735 2.93056 10.2793 2.77606 10.2355C2.62155 10.1917 2.48454 10.1006 2.38421 9.97523C2.36462 9.94686 2.33808 9.92414 2.30706 9.90907C2.27605 9.894 2.24162 9.88716 2.20721 9.8893C1.62054 9.8893 1.03418 9.8893 0.448175 9.8893C0.359822 9.90025 0.270341 9.88148 0.193903 9.83583C0.117465 9.79019 0.0584432 9.72032 0.0261782 9.63734C0.00308582 9.57747 -0.00486027 9.51282 0.00286281 9.44911C0.0105859 9.3854 0.0337593 9.32449 0.0704898 9.27187C0.10722 9.21924 0.156296 9.17658 0.213434 9.14735C0.270573 9.11813 0.334079 9.10336 0.398249 9.10439C0.553249 9.10439 0.708214 9.10439 0.863214 9.10439L1.32025 9.10219Z" fill="#347EF9"/>
<path d="M1.31312 12.9121C1.61312 12.9121 1.91321 12.9121 2.20521 12.9121C2.23959 12.915 2.27407 12.9091 2.30543 12.8947C2.3368 12.8804 2.36394 12.858 2.38417 12.83C2.44822 12.7471 2.52868 12.6782 2.62049 12.6276C2.7123 12.577 2.81349 12.5459 2.91786 12.5361C3.02222 12.5262 3.12753 12.538 3.22718 12.5705C3.32684 12.6031 3.41876 12.6555 3.4972 12.7251C3.57673 12.7967 3.64058 12.8839 3.6847 12.9814C3.72883 13.0789 3.75224 13.1845 3.75355 13.2915C3.75487 13.3985 3.73399 13.5047 3.69227 13.6032C3.65055 13.7018 3.58886 13.7907 3.51112 13.8642C3.43367 13.9366 3.34201 13.9919 3.24195 14.0268C3.1419 14.0618 3.03572 14.0755 2.93006 14.0671C2.82441 14.0587 2.7216 14.0285 2.62831 13.9782C2.53501 13.928 2.45328 13.8587 2.38819 13.7751C2.36674 13.7452 2.33775 13.7216 2.30421 13.7065C2.27067 13.6914 2.23374 13.6854 2.19715 13.6892C1.60649 13.6892 1.01585 13.6892 0.425181 13.6892C0.358043 13.6949 0.29063 13.6829 0.229503 13.6545C0.168376 13.6262 0.115664 13.5825 0.0766707 13.5275C0.0376779 13.4726 0.0136641 13.4083 0.00709063 13.3413C0.000517206 13.2742 0.0116153 13.2067 0.0391951 13.1452C0.0685364 13.0726 0.119861 13.0109 0.186046 12.969C0.252231 12.927 0.329969 12.9066 0.408214 12.9111L1.31312 12.9121Z" fill="#347EF9"/>
<path d="M1.32426 5.29904C1.61726 5.29904 1.91017 5.29904 2.20317 5.29904C2.23771 5.30214 2.27244 5.29608 2.304 5.2817C2.33556 5.26733 2.3629 5.2451 2.38322 5.217C2.44852 5.13227 2.53088 5.06218 2.62492 5.01119C2.71897 4.96021 2.8226 4.92934 2.92924 4.92086C3.03589 4.91238 3.14314 4.92639 3.24406 4.96188C3.34499 4.99736 3.43731 5.05356 3.51518 5.12692C3.5908 5.19963 3.65094 5.28714 3.69182 5.38375C3.73269 5.48037 3.75344 5.58427 3.75297 5.68917C3.75251 5.79408 3.73075 5.89761 3.68901 5.99386C3.64727 6.09011 3.58644 6.17695 3.51018 6.24899C3.43195 6.32221 3.33925 6.37812 3.23796 6.41305C3.13667 6.44798 3.02914 6.46106 2.92241 6.45162C2.81568 6.44219 2.71204 6.41052 2.61845 6.35836C2.52486 6.3062 2.44336 6.2347 2.3792 6.14889C2.36036 6.12219 2.33489 6.10106 2.30522 6.08737C2.27555 6.07367 2.24279 6.06802 2.21025 6.07101C1.61025 6.07101 1.0102 6.07101 0.410201 6.07101C0.357812 6.07472 0.305291 6.06754 0.255782 6.05001C0.206273 6.03248 0.160864 6.00505 0.122481 5.9692C0.0840986 5.93335 0.0535007 5.88996 0.0326375 5.84176C0.0117743 5.79356 0.00113409 5.74145 0.00126546 5.68893C0.000453635 5.63516 0.0106916 5.582 0.0315389 5.53243C0.0523862 5.48287 0.0833622 5.43811 0.122359 5.40109C0.161356 5.36406 0.207519 5.33535 0.258101 5.3171C0.308683 5.29885 0.36253 5.29128 0.416182 5.29488C0.721182 5.29588 1.02226 5.29904 1.32426 5.29904Z" fill="#347EF9"/>
<path d="M20.5621 9.79689C20.5146 9.88755 20.4572 9.97288 20.3911 10.051C19.7401 10.714 19.0831 11.372 18.4281 12.03C18.1241 12.3354 17.8195 12.6402 17.5142 12.9448C17.4666 13.0106 17.3969 13.0571 17.3179 13.0755C17.2388 13.0938 17.1558 13.083 17.0841 13.0449C17.045 13.0268 17.0102 13.0008 16.9818 12.9683C16.9535 12.9358 16.9322 12.8977 16.9195 12.8565C16.9069 12.8152 16.9032 12.7718 16.9084 12.729C16.9137 12.6862 16.9278 12.6449 16.9501 12.6079C16.9774 12.5603 17.0112 12.5167 17.0502 12.478C17.9735 11.5494 18.8978 10.6212 19.8231 9.69386C19.8978 9.61487 19.9783 9.54166 20.0641 9.47487C20.1081 9.43817 20.1623 9.41598 20.2194 9.41115C20.2764 9.40632 20.3337 9.41923 20.3832 9.44801C20.4427 9.48356 20.491 9.53499 20.5227 9.59669C20.5543 9.6584 20.568 9.72779 20.5621 9.79689Z" fill="#347EF9"/>
<path d="M1.21619 12.4541V10.3701H2.10217V12.4541H1.21619Z" fill="#347EF9"/>
<path d="M2.10608 6.56641V8.64746H1.21716V6.56641H2.10608Z" fill="#347EF9"/>
</svg>
