<svg xmlns="http://www.w3.org/2000/svg" width="25" height="25" viewBox="0 0 25 25"><defs><style>.a,.b{fill:none;}.b{stroke:red;}.c{fill:red;}</style></defs><g transform="translate(-3473.029 -1826.666)"><circle class="a" cx="12.5" cy="12.5" r="12.5" transform="translate(3473.029 1826.666)"/><circle class="b" cx="12" cy="12" r="12" transform="translate(3473.529 1827.166)"/><path class="c" d="M3480.284,1842.352a5.817,5.817,0,0,0,7.792,2.64,5.691,5.691,0,0,0,3.238-4.513,5.483,5.483,0,0,0-.849-3.835,5.912,5.912,0,0,0-.621-.823,5.836,5.836,0,0,0-8.233-.417l-.361.313-.158-.233a1.251,1.251,0,0,0-.119-.153l-.874-.868a.194.194,0,0,0-.223-.05.254.254,0,0,0-.194.268v3.565a.26.26,0,0,0,.3.236l3.489,0a.254.254,0,0,0,.256-.156.233.233,0,0,0-.051-.285l-1.27-1.224.285-.317a1.281,1.281,0,0,1,.119-.1,4.2,4.2,0,0,1,4.114-.716,4.29,4.29,0,0,1,2.882,4.493,4.34,4.34,0,0,1-.416,1.464,4.315,4.315,0,0,1-5.772,1.986,4.127,4.127,0,0,1-2.188-2.515.65.65,0,0,0-.038-.1c0,.007-.037,0-.1,0h-1.413a.294.294,0,0,0-.069.007c0,.007,0,.027.012.054A5.889,5.889,0,0,0,3480.284,1842.352Z"/></g></svg>