<svg xmlns="http://www.w3.org/2000/svg" width="16.863" height="17" viewBox="0 0 16.863 17"><defs><style>.a{fill:#fff;}</style></defs><g transform="translate(-19.87 -52.264)"><g transform="translate(-307.04 -808.947)"><path class="a" d="M326.915,869.714c0-2.3,0-4.593,0-6.889a1.5,1.5,0,0,1,1.584-1.6c.651-.014,1.3,0,1.954-.01.189,0,.236.069.235.246-.006.915,0,1.831,0,2.746,0,.513.206.733.712.735q2.35.009,4.7,0a.608.608,0,0,0,.661-.695c0-.908,0-1.815,0-2.723,0-.3,0-.3.31-.3.458,0,.915,0,1.373,0a1.532,1.532,0,0,1,1.133.456q1.876,1.875,3.75,3.753a1.538,1.538,0,0,1,.44,1.12q.007,2.549,0,5.1,0,2.444,0,4.888a1.524,1.524,0,0,1-1.679,1.672H330.573c-.675,0-1.35,0-2.024,0a1.535,1.535,0,0,1-1.636-1.607q-.006-3.445,0-6.89Zm8.419-1.406v0h-4.07c-.552,0-.755.2-.755.757q0,2.756,0,5.513c0,.57.192.766.767.767l8.069,0c.581,0,.809-.219.809-.8q0-2.791,0-5.583a.584.584,0,0,0-.658-.659Z" transform="translate(0 0)"/><path class="a" d="M480.67,862.749c0-.348,0-.7,0-1.045a.273.273,0,0,1,.309-.317q.5,0,1,0a.27.27,0,0,1,.3.3q0,1.057,0,2.114a.266.266,0,0,1-.3.3c-.325,0-.65.006-.975,0-.265,0-.331-.073-.335-.333C480.667,863.43,480.67,863.089,480.67,862.749Z" transform="translate(-146.605 -0.167)"/><path class="a" d="M444.32,1048.816c.814,0,1.627,0,2.441,0a.624.624,0,0,1,.281,1.187.713.713,0,0,1-.291.065c-1.635,0-3.27.005-4.905,0a.609.609,0,0,1-.622-.8.62.62,0,0,1,.656-.448c.814-.006,1.627,0,2.441,0Z" transform="translate(-108.97 -178.874)"/><path class="a" d="M444.224,1103.534c.79,0,1.58,0,2.371,0a.626.626,0,1,1,0,1.245q-2.417.007-4.834,0a.627.627,0,1,1,0-1.252c.821,0,1.642,0,2.464,0Z" transform="translate(-108.871 -231.044)"/></g></g></svg>