<svg xmlns="http://www.w3.org/2000/svg" xmlns:xlink="http://www.w3.org/1999/xlink" width="142" height="142" viewBox="0 0 142 142">
  <defs>
    <clipPath id="clip-Artboard_1">
      <rect width="142" height="142"/>
    </clipPath>
  </defs>
  <g id="Artboard_1" data-name="Artboard – 1" clip-path="url(#clip-Artboard_1)">
    <rect width="142" height="142" fill="#fff"/>
    <g id="Group_4697" data-name="Group 4697" transform="translate(-5053 -3045)">
      <g id="Ellipse_196" data-name="Ellipse 196" transform="translate(5054 3046)" fill="none" stroke="#05bd29" stroke-width="5">
        <circle cx="70" cy="70" r="70" stroke="none"/>
        <circle cx="70" cy="70" r="67.5" fill="none"/>
      </g>
      <path id="Path_2784" data-name="Path 2784" d="M3253.513,2874.836l3.189-4.3q14.919-20.1,29.831-40.208a4.868,4.868,0,0,1,5.1-2.177,4.614,4.614,0,0,1,3.833,3.787,4.845,4.845,0,0,1-.981,4.095q-5.617,7.547-11.213,15.108-12.2,16.438-24.393,32.88a5.838,5.838,0,0,1-3.963,2.52,5.26,5.26,0,0,1-4.422-1.285q-6.878-6.123-13.688-12.32a4.867,4.867,0,0,1,6.447-7.284c2.524,2.141,4.943,4.406,7.407,6.619Z" transform="translate(1858.209 258.449)" fill="#05bd29" stroke="#fff" stroke-width="5"/>
    </g>
  </g>
</svg>
