<svg xmlns="http://www.w3.org/2000/svg" width="36.005" height="36.003" viewBox="0 0 36.005 36.003"><defs><style>.a{fill:none;stroke:#d13238;}</style></defs><g transform="translate(-125.822 -11.99)"><g transform="translate(126.324 12.49)"><path class="a" d="M3208.938,1169.753a.88.88,0,0,1-.941-1.035c.218-1.39.452-2.778.677-4.168.33-2.029.669-4.056.982-6.087a2.583,2.583,0,0,0-.731-2.278q-2.446-2.531-4.9-5.051c-.715-.737-1.435-1.473-2.151-2.209a.879.879,0,0,1,.505-1.545q2.8-.427,5.6-.86c1.29-.2,2.582-.4,3.874-.594a2.765,2.765,0,0,0,2.221-1.677q2.021-4.344,4.054-8.682c.19-.407.381-.808.912-.812s.752.389.949.813c1.337,2.876,2.688,5.746,4.022,8.624a2.825,2.825,0,0,0,2.256,1.734q4.619.706,9.239,1.418a2.046,2.046,0,0,1,.61.162.826.826,0,0,1,.213,1.314c-.511.563-1.052,1.1-1.582,1.642-1.808,1.858-3.609,3.721-5.428,5.568a2.866,2.866,0,0,0-.834,2.631q.741,4.5,1.468,9c.055.331.106.662.159.993a.893.893,0,0,1-.344.952.883.883,0,0,1-1.009-.008c-2.646-1.469-5.287-2.947-7.944-4.4a5.808,5.808,0,0,0-1.488-.566,2.324,2.324,0,0,0-1.639.345q-4.115,2.284-8.237,4.563A4.22,4.22,0,0,1,3208.938,1169.753Z" transform="translate(-3201.556 -1134.756)"/></g></g></svg>