<svg width="17" height="15" viewBox="0 0 17 15" fill="none" xmlns="http://www.w3.org/2000/svg">
<path d="M8.16303 15.0002C6.17589 15.0002 4.18837 15.0002 2.20047 15.0002C0.851795 15.0002 0.00170359 14.1484 0 12.802C0 11.9979 0 11.1936 0 10.3891C0 9.86894 0.254404 9.55378 0.67519 9.54923C1.09598 9.54469 1.36344 9.8644 1.36401 10.376C1.36401 11.1994 1.36401 12.0228 1.36401 12.8457C1.36401 13.371 1.62579 13.6356 2.14709 13.6356C6.1687 13.6356 10.1903 13.6356 14.2119 13.6356C14.7321 13.6356 14.9893 13.3704 14.9905 12.8406C14.9905 12.0081 14.9905 11.175 14.9905 10.342C14.9905 9.85702 15.2693 9.54072 15.6821 9.54697C16.0836 9.55321 16.3522 9.8644 16.3533 10.334C16.3533 11.1858 16.3579 12.0376 16.3533 12.8894C16.3465 14.1211 15.4714 14.995 14.2358 14.9973C12.213 15.0036 10.188 15.0002 8.16303 15.0002Z" fill="#FF2116"/>
<path d="M7.49996 10.1542V9.80727C7.49996 6.79797 7.49996 3.7883 7.49996 0.778242C7.49996 0.18596 7.99684 -0.166686 8.48293 0.0791988C8.76686 0.223436 8.8651 0.476705 8.86453 0.783919C8.86112 2.62001 8.86112 4.4561 8.86453 6.29219V10.1309C8.92473 10.1004 8.98295 10.066 9.03887 10.0282C9.73507 9.47507 10.4305 8.92102 11.1252 8.36603C11.5023 8.06563 11.8964 8.07414 12.1559 8.38874C12.4296 8.72037 12.366 9.1122 11.9787 9.42282C10.8941 10.2935 9.80832 11.1622 8.72143 12.0287C8.31995 12.3485 8.05022 12.3502 7.65498 12.035C6.58248 11.1798 5.51149 10.3229 4.44201 9.46428C4.14956 9.22918 4.06722 8.9072 4.20692 8.60794C4.27001 8.4683 4.38035 8.35539 4.51851 8.28912C4.65666 8.22285 4.81378 8.20745 4.96218 8.24564C5.10585 8.28896 5.23905 8.36145 5.35343 8.45859C6.00875 8.96967 6.65668 9.49437 7.30745 10.0134C7.35572 10.0532 7.40796 10.0878 7.49996 10.1542Z" fill="#FF2116"/>
</svg>
