<svg width="16" height="16" viewBox="0 0 16 16" fill="none" xmlns="http://www.w3.org/2000/svg">
<path d="M8.01258 2.82196e-05C9.59502 0.00252053 11.1412 0.474309 12.4555 1.35564C13.7698 2.23696 14.7932 3.48823 15.3963 4.95126C15.9993 6.41429 16.1549 8.02332 15.8434 9.57481C15.5319 11.1263 14.7673 12.5505 13.6463 13.6674C12.5252 14.7842 11.0981 15.5436 9.54547 15.8493C7.99284 16.155 6.38443 15.9933 4.92366 15.3848C3.46289 14.7763 2.21538 13.7483 1.33897 12.4307C0.462562 11.1131 -0.00340119 9.56513 1.86905e-05 7.98269C0.001152 6.93219 0.209403 5.89222 0.61284 4.92228C1.01628 3.95234 1.60699 3.07151 2.35119 2.33008C3.09539 1.58866 3.97847 1.00119 4.94991 0.601379C5.92135 0.201568 6.96208 -0.00276324 8.01258 2.82196e-05ZM15.3482 7.66901C15.2787 6.09783 14.7046 4.59082 13.711 3.37172L11.4252 4.3358C11.6863 5.42818 11.8263 6.54599 11.8427 7.66901H15.3482ZM15.3482 8.33419H11.8388C11.8226 9.46861 11.6783 10.5976 11.4087 11.6996C11.4606 11.7169 11.4944 11.7255 11.5266 11.7389C12.1958 12.0204 12.8634 12.2964 13.5309 12.5897C13.552 12.6046 13.5759 12.6147 13.6012 12.6194C13.6265 12.6241 13.6525 12.6233 13.6774 12.6171C13.7024 12.6108 13.7257 12.5992 13.7457 12.5831C13.7658 12.567 13.7821 12.5467 13.7936 12.5237C14.3482 11.8092 14.7681 10.9998 15.0328 10.1349C15.212 9.55011 15.3171 8.94514 15.3457 8.33419H15.3482ZM4.5591 11.6698C4.29441 10.5769 4.14965 9.45842 4.12741 8.33419H0.648739C0.720422 9.90381 1.29399 11.409 2.28506 12.6283L4.5591 11.6698ZM4.5591 4.34598C3.84434 4.03145 3.1563 3.73113 2.47535 3.41818C2.34403 3.35763 2.2843 3.37016 2.19781 3.48182C1.51303 4.35893 1.03777 5.381 0.808363 6.46986C0.729732 6.86301 0.690435 7.26162 0.631461 7.67208H4.12664C4.15016 6.55105 4.29485 5.43587 4.55829 4.34598H4.5591ZM5.18815 4.5033C4.93818 5.53839 4.80367 6.59795 4.78712 7.66267H7.6666V4.83195L5.18815 4.5033ZM7.66818 11.1618V8.33812H4.78477C4.80305 9.40213 4.93857 10.4609 5.18892 11.4952L7.66818 11.1618ZM8.3397 4.83435V7.66507H11.1971C11.1858 6.60044 11.0524 5.54055 10.7993 4.50637L8.3397 4.83435ZM10.8009 11.492C11.0526 10.4596 11.1845 9.40154 11.194 8.33889H8.33418V11.1634L10.8009 11.492ZM5.36587 12.1211C5.55437 12.7989 5.84609 13.4437 6.23079 14.0327C6.47194 14.3693 6.74447 14.6823 7.04466 14.9676C7.23718 15.1165 7.44577 15.2434 7.6666 15.3458V11.8073L5.36587 12.1211ZM5.37686 3.83485C6.12762 4.02128 6.89708 4.12211 7.67053 4.13529V0.69199C7.27959 0.813717 6.93313 1.04777 6.6743 1.36504C6.07391 2.09033 5.63074 2.93246 5.37292 3.83802L5.37686 3.83485ZM8.33576 15.2947C8.64528 15.201 8.92554 15.0293 9.14963 14.7961C9.74451 14.1683 10.1927 13.4163 10.4619 12.5944C10.5162 12.4513 10.5611 12.3051 10.6137 12.1494C9.86662 11.9683 9.10201 11.8689 8.33341 11.8529L8.33576 15.2947ZM8.34047 0.669145V4.13366C9.10497 4.11708 9.8654 4.01723 10.6082 3.83572C10.406 3.11735 10.0872 2.43703 9.66464 1.82194C9.435 1.52157 9.1775 1.24353 8.8956 0.991562C8.72174 0.865272 8.53455 0.758455 8.33735 0.673081L8.34047 0.669145ZM9.78572 15.1186C11.1129 14.7959 12.3223 14.1059 13.2754 13.1276L11.2577 12.2925C10.9625 13.3257 10.4606 14.2881 9.78261 15.1216L9.78572 15.1186ZM9.75587 0.866588C10.4476 1.69445 10.9567 2.65906 11.2498 3.69731L13.2353 2.8772C12.2944 1.88362 11.0841 1.18591 9.75271 0.86966L9.75587 0.866588ZM4.73207 12.2973L2.75371 13.1174C3.6916 14.1046 4.89646 14.7977 6.22139 15.1122C5.53108 14.291 5.02244 13.333 4.72895 12.3012L4.73207 12.2973ZM2.73797 2.86146L4.73759 3.68867C5.0308 2.64537 5.54486 1.67731 6.24495 0.850079C4.9103 1.18377 3.69491 1.88235 2.73485 2.8677L2.73797 2.86146Z" fill="black"/>
</svg>
