<svg width="8" height="16" viewBox="0 0 8 16" fill="none" xmlns="http://www.w3.org/2000/svg">
<path d="M7.95997 1.7142C7.95997 1.59957 7.95997 1.48414 7.95997 1.36952C7.9684 1.06636 7.86932 0.769984 7.68021 0.53289C7.49111 0.295796 7.22416 0.133263 6.92673 0.0740614C6.75135 0.032233 6.57157 0.0116699 6.39128 0.0128203C4.79017 0.00810967 3.18913 0.00810967 1.58803 0.0128203C1.37414 -0.0163354 1.15638 0.0043969 0.951848 0.0733905C0.747311 0.142384 0.561538 0.257802 0.409016 0.410552C0.256495 0.563301 0.141406 0.749271 0.0727177 0.95391C0.00402981 1.15855 -0.0163694 1.3763 0.0131059 1.59014C0.0131059 5.85172 0.0131059 10.1133 0.0131059 14.3749C0.0131059 14.473 0.0131097 14.5719 0.0170353 14.6701C0.0142229 14.9271 0.0924217 15.1786 0.240532 15.3887C0.388641 15.5988 0.599067 15.757 0.842112 15.8407C1.07957 15.9295 1.3306 15.9768 1.5841 15.9804C3.17709 15.993 4.77011 15.9875 6.3631 15.9867C6.57872 16.0164 6.79825 15.9961 7.00474 15.9273C7.21123 15.8585 7.39904 15.743 7.55371 15.5899C7.70837 15.4367 7.82576 15.25 7.89662 15.0442C7.96747 14.8384 7.98997 14.6191 7.96236 14.4032C7.96236 12.2682 7.96236 10.1335 7.96236 7.99903C7.96079 5.90278 7.95997 3.80783 7.95997 1.7142ZM3.34667 0.693516C3.56493 0.693516 3.7832 0.693516 4.00067 0.693516C4.21815 0.693516 4.4223 0.68959 4.6335 0.693516C4.79759 0.697441 4.92078 0.757137 4.9145 0.9173C4.909 1.06412 4.79365 1.12533 4.63819 1.1269C4.209 1.13056 3.78004 1.13056 3.35137 1.1269C3.18257 1.1269 3.06404 1.05314 3.06797 0.902397C3.0719 0.751655 3.18886 0.698267 3.34667 0.695912V0.693516ZM2.6228 0.722603C2.67256 0.722603 2.72025 0.742377 2.75544 0.777567C2.79063 0.812756 2.81045 0.860442 2.81045 0.910208C2.80891 0.946979 2.79656 0.982501 2.77499 1.01232C2.75342 1.04215 2.72356 1.06499 2.68912 1.07797C2.65468 1.09096 2.61719 1.09352 2.5813 1.08535C2.54541 1.07719 2.51271 1.05862 2.48728 1.03202C2.46185 1.00541 2.44485 0.971919 2.43831 0.935701C2.43177 0.899482 2.43605 0.862131 2.45058 0.828313C2.4651 0.794496 2.4892 0.765706 2.51996 0.745508C2.55073 0.725311 2.58676 0.714622 2.62356 0.714744L2.6228 0.722603ZM3.99358 15.3799C3.87362 15.3818 3.75579 15.3483 3.65489 15.2834C3.55398 15.2185 3.47456 15.1251 3.4266 15.0151C3.37864 14.9052 3.36429 14.7835 3.38539 14.6654C3.40649 14.5473 3.46208 14.4381 3.54515 14.3515C3.62822 14.2649 3.73499 14.2049 3.85212 14.179C3.96926 14.153 4.09152 14.1623 4.20337 14.2057C4.31523 14.2491 4.41173 14.3246 4.48073 14.4228C4.54973 14.5209 4.58808 14.6373 4.59104 14.7572C4.59441 14.9192 4.53342 15.0759 4.42141 15.1929C4.30939 15.3099 4.15552 15.3777 3.99358 15.3814V15.3799ZM7.09866 13.6526H0.871247V1.8351H7.09866V13.6526Z" fill="black"/>
</svg>
