<svg width="20" height="20" viewBox="0 0 20 20" fill="none" xmlns="http://www.w3.org/2000/svg">
<path d="M10 1C8.21997 1 6.47991 1.52784 4.99987 2.51677C3.51983 3.50571 2.36627 4.91131 1.68508 6.55585C1.0039 8.20038 0.825666 10.01 1.17293 11.7558C1.5202 13.5016 2.37737 15.1053 3.63604 16.364C4.89471 17.6226 6.49836 18.4798 8.24419 18.8271C9.99002 19.1743 11.7996 18.9961 13.4442 18.3149C15.0887 17.6337 16.4943 16.4802 17.4832 15.0001C18.4722 13.5201 19 11.78 19 10C18.9974 7.61386 18.0483 5.32622 16.361 3.63896C14.6738 1.95171 12.3861 1.00265 10 1ZM10 0C11.9778 0 13.9112 0.58649 15.5557 1.6853C17.2002 2.78412 18.4819 4.3459 19.2388 6.17317C19.9957 8.00043 20.1937 10.0111 19.8079 11.9509C19.422 13.8907 18.4696 15.6725 17.0711 17.0711C15.6725 18.4696 13.8907 19.422 11.9509 19.8079C10.0111 20.1937 8.00043 19.9957 6.17317 19.2388C4.3459 18.4819 2.78412 17.2002 1.6853 15.5557C0.58649 13.9112 0 11.9778 0 10C0 7.34784 1.05357 4.8043 2.92893 2.92893C4.8043 1.05357 7.34784 0 10 0V0Z" fill="#FF0000"/>
<path d="M12.1092 14.4186C12.86 14.0621 13.5082 13.5213 13.9935 12.8465C14.4783 12.1707 14.7789 11.3803 14.8656 10.5531C15.0293 9.42433 14.7726 8.27477 14.1442 7.3229C13.7423 6.65701 13.1842 6.09899 12.5183 5.69703C11.8672 5.29572 11.128 5.05918 10.3649 5.00792C10.2143 4.99736 10.0632 4.99736 9.91265 5.00792C8.7133 5.0249 7.56266 5.48515 6.68246 6.3L6.60709 6.36461L6.3379 6.59072L6.16562 6.36461V6.3V6.2354L5.64879 5.72933L5.40114 5.48169C5.40114 5.48169 5.33654 5.48169 5.32577 5.48169H5.2504C5.17503 5.48169 5.13196 5.54629 5.13196 5.68627V8.53961C5.13196 8.67958 5.13196 8.76572 5.36884 8.76572H8.35139C8.38656 8.77589 8.42389 8.77589 8.45906 8.76572C8.48925 8.74465 8.51189 8.71446 8.52367 8.67958C8.53141 8.66269 8.53542 8.64433 8.53542 8.62575C8.53542 8.60717 8.53141 8.5888 8.52367 8.57191C8.51216 8.53964 8.49379 8.51025 8.46983 8.48577L8.38369 8.4104L8.31909 8.34579L7.53308 7.59208L7.35003 7.4198L7.53308 7.20446L7.58691 7.13986L7.71612 7.03218C8.37609 6.50083 9.19467 6.20523 10.0419 6.19233C10.4709 6.1929 10.8968 6.2657 11.3016 6.40768C12.1078 6.67751 12.7986 7.21271 13.2613 7.92587C13.7164 8.64316 13.9174 9.49255 13.832 10.3377C13.7871 10.8938 13.6139 11.432 13.3259 11.9098C13.0379 12.3842 12.648 12.7888 12.1846 13.0942C11.5678 13.5133 10.8413 13.7417 10.0957 13.751C9.51601 13.7495 8.94464 13.6131 8.42676 13.3526C7.97248 13.1379 7.56603 12.8339 7.23159 12.4589C6.84166 12.0913 6.53666 11.643 6.3379 11.1453H5.07812C5.22884 11.8568 5.54208 12.5238 5.99335 13.0942C6.44539 13.6657 7.01922 14.1292 7.67305 14.4509C8.36344 14.8041 9.12644 14.992 9.90189 15C10.6726 14.9787 11.428 14.7797 12.1092 14.4186Z" fill="#FF0000"/>
</svg>
