<svg id="Layer_1" data-name="Layer 1" xmlns="http://www.w3.org/2000/svg" viewBox="0 0 17 17"><defs><style>.cls-1{fill:red;}</style></defs><g id="Group_3209" data-name="Group 3209"><path id="Rectangle_1372" data-name="Rectangle 1372" class="cls-1" d="M9.15.78l2.23,2.35a1,1,0,0,1,0,1.37L9.15,6.84a.88.88,0,0,1-1.3,0L5.62,4.5a1,1,0,0,1,0-1.37L7.85.78A.9.9,0,0,1,9.15.78Z"/><path id="Rectangle_1373" data-name="Rectangle 1373" class="cls-1" d="M9.15,10.16l2.23,2.34a1,1,0,0,1,0,1.37L9.15,16.22a.9.9,0,0,1-1.3,0L5.62,13.87a1,1,0,0,1,0-1.37l2.23-2.34A.88.88,0,0,1,9.15,10.16Z"/><path id="Rectangle_1374" data-name="Rectangle 1374" class="cls-1" d="M14,5.55,16.23,7.9a1,1,0,0,1,0,1.37L14,11.61a.88.88,0,0,1-1.3,0L10.47,9.27a1,1,0,0,1,0-1.37L12.7,5.55A.9.9,0,0,1,14,5.55Z"/><path id="Rectangle_1375" data-name="Rectangle 1375" class="cls-1" d="M4.3,5.55,6.53,7.9a1,1,0,0,1,0,1.37L4.3,11.61a.88.88,0,0,1-1.3,0L.77,9.27a1,1,0,0,1,0-1.37L3,5.55A.9.9,0,0,1,4.3,5.55Z"/></g></svg>