<svg width="10" height="10" viewBox="0 0 10 10" fill="none" xmlns="http://www.w3.org/2000/svg">
<path d="M7.03106 9.41856C7.78184 9.06209 8.43009 8.52127 8.91535 7.84654C9.4002 7.17071 9.70077 6.38032 9.7875 5.55309C9.95119 4.42433 9.69446 3.27477 9.06609 2.3229C8.66413 1.65701 8.10611 1.09899 7.44022 0.697034C6.78908 0.295715 6.04992 0.0591823 5.28676 0.0079237C5.1362 -0.00264123 4.98509 -0.00264123 4.83453 0.0079237C3.63517 0.024897 2.48454 0.485153 1.60433 1.3L1.52896 1.36461L1.25978 1.59072L1.0875 1.36461V1.3V1.2354L0.570669 0.729334L0.323019 0.481686C0.323019 0.481686 0.258415 0.481686 0.247648 0.481686H0.172277C0.0969058 0.481686 0.0538358 0.546291 0.0538358 0.686266V3.53961C0.0538358 3.67958 0.0538371 3.76572 0.290718 3.76572H3.27327C3.30844 3.77589 3.34577 3.77589 3.38094 3.76572C3.41112 3.74465 3.43377 3.71446 3.44554 3.67958C3.45329 3.66269 3.45729 3.64433 3.45729 3.62575C3.45729 3.60717 3.45329 3.5888 3.44554 3.57191C3.43404 3.53964 3.41567 3.51025 3.39171 3.48577L3.30557 3.4104L3.24096 3.34579L2.45495 2.59208L2.27191 2.4198L2.45495 2.20446L2.50879 2.13986L2.638 2.03218C3.29796 1.50083 4.11655 1.20523 4.96374 1.19233C5.39277 1.1929 5.81865 1.2657 6.22351 1.40768C7.02965 1.67751 7.72048 2.21271 8.18317 2.92587C8.63831 3.64316 8.83928 4.49255 8.75383 5.33775C8.70899 5.89384 8.53576 6.43196 8.24777 6.90978C7.95974 7.38424 7.56991 7.78879 7.10643 8.09418C6.48965 8.51329 5.76321 8.7417 5.01757 8.75099C4.43789 8.74946 3.86651 8.61307 3.34864 8.3526C2.89435 8.13786 2.4879 7.83393 2.15346 7.45891C1.76353 7.09129 1.45854 6.64298 1.25978 6.1453H0C0.150718 6.85681 0.463955 7.52382 0.915223 8.09418C1.36726 8.6657 1.9411 9.12918 2.59492 9.45087C3.28532 9.80405 4.04831 9.99203 4.82376 10C5.59448 9.97873 6.34988 9.77974 7.03106 9.41856Z" fill="white"/>
</svg>
