<svg xmlns="http://www.w3.org/2000/svg" xmlns:xlink="http://www.w3.org/1999/xlink" width="36" height="34" viewBox="0 0 36 34">
  <defs>
    <clipPath id="clip-Icon_Menu_left_selected">
      <rect width="36" height="34"/>
    </clipPath>
  </defs>
  <g id="Icon_Menu_left_selected" data-name="Icon Menu left_selected" clip-path="url(#clip-Icon_Menu_left_selected)">
    <g id="Group_8765" data-name="Group 8765" transform="translate(-188 -964)">
      <g id="Group_8506" data-name="Group 8506" transform="translate(189 965)">
        <path id="Path_6158" data-name="Path 6158" d="M2882.57,1580.01c-1.393-1.119-2.669-2.135-3.933-3.166a1.825,1.825,0,0,0-1.285-.468c-1.7.034-3.412.046-5.11-.074a3.8,3.8,0,0,1-3.419-3.785q0-5.359,0-10.717a3.817,3.817,0,0,1,3.685-3.812c3.607-.048,7.216-.058,10.823-.01a3.866,3.866,0,0,1,3.917,4q.041,5.172,0,10.344a3.953,3.953,0,0,1-4.3,4.042c-.335-.021-.38.159-.378.426C2882.573,1577.812,2882.57,1578.837,2882.57,1580.01Zm-4.312-10.105c0,.517-.026.961.017,1.4a.488.488,0,0,0,.355.312q2.212.033,4.424,0c.125,0,.349-.157.357-.255.038-.47.017-.944.017-1.52-.962.355-1.009-.314-1.181-.879-.592-1.932-1.207-3.857-1.792-5.791a.608.608,0,0,0-.7-.522c-1.136.031-2.274.011-3.411.011-1.009,0-1.011,0-1.006,1.022,0,.351-.133.79.5.729-.486,1.594-.968,3.115-1.407,4.648-.158.554-.326,1-1.031.877-.021,0-.052.041-.115.1,0,.339.022.711-.006,1.08-.03.392.1.538.509.524.781-.027,1.563-.008,2.345-.008h1.211v-1.7l-.858-.055c.1-.791.1-.791.819-.791h1.226c.757,0,.757,0,.879.817Z" transform="translate(-2853.269 -1548.01)" fill="#f9c20a"/>
        <path id="Path_6159" data-name="Path 6159" d="M2728,1484.616v2.662a4.727,4.727,0,0,0,.571-.327c.78-.618,1.593-1.2,2.313-1.887.653-.618,1.373-.418,2.055-.428.121.81.233,1.562.355,2.378-1.071-.318-1.673.494-2.381,1.057-1.667,1.328-3.321,2.672-4.981,4.007a3.5,3.5,0,0,1-.328.2V1488.3c0-1.283,0-1.283-1.262-1.309a5.656,5.656,0,0,1-5.361-4.975c-.053-.539-.084-1.082-.085-1.623q-.008-7.067,0-14.135a5.708,5.708,0,0,1,4.4-5.779,5.472,5.472,0,0,1,1.292-.16c5.089-.011,10.177,0,15.266-.008a5.693,5.693,0,0,1,5.682,5.713c-.036.94-.005,1.884-.005,2.861h-2.306c0-.894,0-1.78,0-2.666a3.531,3.531,0,0,0-.849-2.418,2.886,2.886,0,0,0-2.184-1.089q-7.948-.029-15.9,0a3.18,3.18,0,0,0-3.006,3.077q-.036,7.882,0,15.764a3.193,3.193,0,0,0,3.133,3.062c.979.024,1.958.005,2.937.005Z" transform="translate(-2718.889 -1460.31)" fill="#f9c20a"/>
        <path id="Path_6160" data-name="Path 6160" d="M2771.733,1511.585h.734c.3,1.693-.612,2.9-2.136,2.835a2.107,2.107,0,0,1-1.809-1.135.625.625,0,0,0-.7-.379,5.113,5.113,0,0,1-3.821-.959,4.888,4.888,0,0,1-1.629-4.2,4.737,4.737,0,0,1,.936-2.83,4.622,4.622,0,0,1,4.639-1.735,4.171,4.171,0,0,1,3.868,4.422,5.681,5.681,0,0,1-.991,3.829.876.876,0,0,0,.323,1.109c.293.16.448,0,.513-.251A4.565,4.565,0,0,0,2771.733,1511.585Zm-2.951-2.93a4.391,4.391,0,0,0-.607-2.92,1.221,1.221,0,0,0-1.792-.413,3.47,3.47,0,0,0-.854,3.4A2.651,2.651,0,0,1,2768.782,1508.656Zm-1.657,2.462c.326-.291.712-.469.765-.718a.955.955,0,0,0-.733-1.074c-.381-.011-1.082.652-.938.994C2766.344,1510.616,2766.743,1510.8,2767.125,1511.118Z" transform="translate(-2757.73 -1498.547)" fill="#f9c20a"/>
        <path id="Path_6161" data-name="Path 6161" d="M2947.957,1623.166l.768,2.539h-1.515Z" transform="translate(-2923.179 -1606.07)" fill="#f9c20a"/>
      </g>
    </g>
  </g>
</svg>
