<svg width="15" height="15" viewBox="0 0 15 15" fill="none" xmlns="http://www.w3.org/2000/svg">
<circle cx="7.5" cy="7.5" r="7.5" fill="#347EF9"/>
<path d="M6.90015 7.54985C6.55888 7.64431 6.24833 7.82697 6 8.07939C6.042 7.95714 6.07529 7.83037 6.12854 7.71337C6.25194 7.42669 6.4279 7.16568 6.64746 6.94387C6.81931 6.75969 7.03343 6.62037 7.27148 6.53801C7.50954 6.45566 7.76414 6.43276 8.01306 6.47136C8.18849 6.49969 8.34815 6.58998 8.46277 6.72579C8.57738 6.86159 8.63937 7.03396 8.63782 7.21166C8.63782 8.30816 8.63782 9.40488 8.63782 10.5019V10.6407C8.98104 10.5546 9.28965 10.365 9.52148 10.0977L9.54895 10.1127C9.4807 10.2792 9.42231 10.4509 9.34131 10.6121C9.14749 11.0423 8.811 11.3923 8.38879 11.6029C8.09117 11.745 7.75354 11.7794 7.43335 11.7004C7.27649 11.6547 7.13889 11.5588 7.04187 11.4274C6.94485 11.2959 6.89392 11.1363 6.89648 10.9729V7.54985H6.90015Z" fill="white"/>
<path d="M7.60636 5.95799C7.38866 5.95695 7.17617 5.89155 6.99552 5.77004C6.81488 5.64852 6.67426 5.47631 6.59123 5.27506C6.50819 5.0738 6.48657 4.85249 6.52897 4.63895C6.57138 4.42541 6.676 4.22919 6.82963 4.07494C6.98326 3.92068 7.17913 3.8153 7.3925 3.77204C7.60586 3.72877 7.82702 3.74951 8.0286 3.83173C8.23019 3.91395 8.40294 4.05395 8.52519 4.2341C8.64743 4.41425 8.71369 4.62651 8.71562 4.84421C8.71845 4.99087 8.69193 5.13661 8.63725 5.27272C8.58256 5.40883 8.50089 5.53257 8.39738 5.63651C8.29387 5.74044 8.17072 5.82242 8.03483 5.87766C7.89894 5.93289 7.75303 5.96024 7.60636 5.95799Z" fill="white"/>
</svg>
