<svg xmlns="http://www.w3.org/2000/svg" width="25" height="25" viewBox="0 0 25 25"><defs><style>.a,.d{fill:none;}.a{stroke:red;}.b{fill:red;}.c{stroke:none;}</style></defs><g transform="translate(4170 1710)"><g transform="translate(-4169.75 -1710)"><g class="a" transform="translate(-0.25)"><circle class="c" cx="12.5" cy="12.5" r="12.5"/><circle class="d" cx="12.5" cy="12.5" r="12"/></g><g transform="translate(7.5 5.879)"><path class="b" d="M4103.387,1432.8h8.371c-.063.572-.123,1.123-.185,1.673q-.366,3.173-.729,6.346a.449.449,0,0,1-.529.467q-2.766-.018-5.532,0a.434.434,0,0,1-.5-.451q-.442-3.865-.892-7.729A2.852,2.852,0,0,1,4103.387,1432.8Zm4.22,7.84c.82,0,1.64,0,2.46,0,.243,0,.452-.049.452-.342s-.2-.348-.449-.348q-2.457,0-4.917,0c-.258,0-.486.046-.474.363.01.292.232.327.469.326C4105.968,1440.638,4106.787,1440.64,4107.606,1440.64Zm.271-4.175c0-.694,0-1.389,0-2.083,0-.255-.047-.484-.36-.483-.286,0-.348.218-.348.456q0,2.084,0,4.166c0,.237.06.458.342.463.309.006.367-.22.366-.478C4107.876,1437.827,4107.877,1437.146,4107.877,1436.465Zm2,.02q0-1.045,0-2.089c0-.248-.023-.495-.345-.495s-.35.238-.35.491q.005,2.049,0,4.1c0,.25.025.493.345.5s.351-.243.351-.491Q4109.877,1437.489,4109.877,1436.486Zm-3.944-.041c0-.683,0-1.366,0-2.048,0-.249-.021-.494-.343-.495s-.347.24-.347.491q0,2.048,0,4.1c0,.248.021.495.343.5s.348-.242.347-.492C4105.932,1437.81,4105.934,1437.127,4105.934,1436.445Z" transform="translate(-4102.644 -1429.114)"/><path class="b" d="M4099.274,1409.729c-1.5,0-3-.012-4.5.009-.387.005-.441-.159-.382-.469a.967.967,0,0,1,.981-.819q3.908-.014,7.814,0a.972.972,0,0,1,1,.846c.044.293-.01.447-.372.442C4102.3,1409.717,4100.787,1409.729,4099.274,1409.729Z" transform="translate(-4094.371 -1406.752)"/><path class="b" d="M4139.1,1395.244c-.065-.687.046-.913.3-.908q.938.024,1.878,0c.246-.006.362.208.3.908Z" transform="translate(-4135.416 -1394.336)"/></g></g></g></svg>