<svg id="Layer_1" data-name="Layer 1" xmlns="http://www.w3.org/2000/svg" viewBox="0 0 28 35"><defs><style>.cls-1{fill:#fff;}</style></defs><path id="Path_2536" data-name="Path 2536" class="cls-1" d="M9.86,29.65h8.31a4.6,4.6,0,0,1-1.79,4,3.69,3.69,0,0,1-4.46.19A4.52,4.52,0,0,1,9.86,29.65Zm7.32,1H10.85a3.18,3.18,0,0,0,6.33,0Z"/><path id="Path_2537" data-name="Path 2537" class="cls-1" d="M11.73,3.65a2.92,2.92,0,0,1,.82-2.59,2.2,2.2,0,0,1,3.16.23,2,2,0,0,1,.34.52,4,4,0,0,1,.26,1.84Zm3.74-.79a1.46,1.46,0,1,0-2.92-.08v.08Z"/><path id="Path_2538" data-name="Path 2538" class="cls-1" d="M27.15,25.89a2.51,2.51,0,0,0-.63-1.37,12.26,12.26,0,0,0-1.1-1.06,3.38,3.38,0,0,1-.78-1,11.67,11.67,0,0,1-1.32-5.18,25,25,0,0,0-.57-5.45A12.2,12.2,0,0,0,21.08,7.7a7,7,0,0,0-3.56-2.88,10.75,10.75,0,0,0-7,0A7.07,7.07,0,0,0,6.91,7.7a12.41,12.41,0,0,0-1.67,4.11,26.27,26.27,0,0,0-.57,5.45,11.54,11.54,0,0,1-1.32,5.18,3.23,3.23,0,0,1-.78,1,13.63,13.63,0,0,0-1.09,1.06,2.44,2.44,0,0,0-.63,1.37,13.4,13.4,0,0,0-.07,2.83c0,.37,0,.37.41.37H26.82c.42,0,.37,0,.4-.37A13.4,13.4,0,0,0,27.15,25.89ZM14,28.13H1.61c0-.67.08-1.33.13-2a1.69,1.69,0,0,1,.49-1.08A8.5,8.5,0,0,1,3,24.34,4.45,4.45,0,0,0,4.15,22.9,13,13,0,0,0,5.6,17.36c0-1.19.09-2.38.22-3.57a14.21,14.21,0,0,1,1-4.1A7.26,7.26,0,0,1,9.69,6.22,6.68,6.68,0,0,1,12,5.38a8.45,8.45,0,0,1,4.06,0,6.75,6.75,0,0,1,2.28.84,7.26,7.26,0,0,1,2.83,3.47,13.88,13.88,0,0,1,1,4.1c.13,1.19.18,2.38.23,3.57a12.85,12.85,0,0,0,1.45,5.54A4.3,4.3,0,0,0,25,24.34a10.31,10.31,0,0,1,.75.73,1.74,1.74,0,0,1,.49,1.08l.12,2Z"/><path class="cls-1" d="M26.82,29.33H1.19c-.41,0-.6,0-.63-.48v-.11a13.86,13.86,0,0,1,.06-2.88,2.7,2.7,0,0,1,.69-1.5,14.45,14.45,0,0,1,1.12-1.09,3,3,0,0,0,.72-.94,11.36,11.36,0,0,0,1.3-5.07A25.36,25.36,0,0,1,5,11.76,12.4,12.4,0,0,1,6.72,7.57a7.29,7.29,0,0,1,3.68-3,11.1,11.1,0,0,1,7.2,0,7.29,7.29,0,0,1,3.68,3A12.38,12.38,0,0,1,23,11.76a25.44,25.44,0,0,1,.58,5.5,11.4,11.4,0,0,0,1.29,5.06,3,3,0,0,0,.73.95,14.3,14.3,0,0,1,1.11,1.09,2.67,2.67,0,0,1,.69,1.5,13.2,13.2,0,0,1,.07,2.88v.1C27.42,29.31,27.22,29.33,26.82,29.33ZM1,28.84H27V28.7a12.32,12.32,0,0,0-.07-2.78h0a2.18,2.18,0,0,0-.56-1.23,13.43,13.43,0,0,0-1.08-1.05,3.46,3.46,0,0,1-.84-1.09,11.81,11.81,0,0,1-1.34-5.28,25.89,25.89,0,0,0-.57-5.41,12.21,12.21,0,0,0-1.63-4,6.89,6.89,0,0,0-3.45-2.78,10.56,10.56,0,0,0-6.89,0A6.86,6.86,0,0,0,7.11,7.83a12.45,12.45,0,0,0-1.64,4,25.13,25.13,0,0,0-.56,5.4,11.83,11.83,0,0,1-1.35,5.29,3.29,3.29,0,0,1-.83,1.09,12,12,0,0,0-1.08,1.05,2.26,2.26,0,0,0-.57,1.23A12.93,12.93,0,0,0,1,28.7v.14Zm25.6-.46H1.36l0-.82.09-1.43a1.93,1.93,0,0,1,.56-1.24,8.89,8.89,0,0,1,.76-.74,4.15,4.15,0,0,0,1.12-1.37,12.63,12.63,0,0,0,1.42-5.43c0-1.08.09-2.35.22-3.58A14.23,14.23,0,0,1,6.65,9.6,7.33,7.33,0,0,1,9.56,6a6.85,6.85,0,0,1,2.38-.88,8.65,8.65,0,0,1,4.14,0A6.73,6.73,0,0,1,18.43,6,7.55,7.55,0,0,1,21.36,9.6a14.6,14.6,0,0,1,1.05,4.17c.12,1.12.17,2.25.22,3.58a12.92,12.92,0,0,0,1.42,5.43,4.25,4.25,0,0,0,1.12,1.37,9.2,9.2,0,0,1,.77.76,1.87,1.87,0,0,1,.55,1.22l.09,1.41ZM1.87,27.89H26.13l0-.32L26,26.17a1.48,1.48,0,0,0-.42-.93,8.25,8.25,0,0,0-.73-.72A4.52,4.52,0,0,1,23.64,23a13.32,13.32,0,0,1-1.48-5.64c-.05-1.33-.11-2.44-.22-3.55a14,14,0,0,0-1-4,7,7,0,0,0-2.74-3.36A6.29,6.29,0,0,0,16,5.62a8.29,8.29,0,0,0-4,0,6.37,6.37,0,0,0-2.22.81A7,7,0,0,0,7.08,9.78a14.13,14.13,0,0,0-1,4c-.12,1.22-.18,2.47-.21,3.55A13.32,13.32,0,0,1,4.36,23a4.59,4.59,0,0,1-1.24,1.52,7.89,7.89,0,0,0-.72.7,1.54,1.54,0,0,0-.43.94l-.09,1.42Z"/></svg>