<svg xmlns="http://www.w3.org/2000/svg" xmlns:xlink="http://www.w3.org/1999/xlink" width="31" height="31" viewBox="0 0 31 31">
  <defs>
    <clipPath id="clip-Icon_undo">
      <rect width="31" height="31"/>
    </clipPath>
  </defs>
  <g id="Icon_undo" data-name="Icon undo" clip-path="url(#clip-Icon_undo)">
    <rect width="31" height="31" fill="#fff" fill-opacity="0"/>
    <g id="Ellipse_958" data-name="Ellipse 958" transform="translate(1 1)" fill="none" stroke="red" stroke-width="1">
      <circle cx="14.5" cy="14.5" r="14.5" stroke="none"/>
      <circle cx="14.5" cy="14.5" r="14" fill="none"/>
    </g>
    <g id="Group_8579" data-name="Group 8579" transform="translate(-7672.447 -2216.047)">
      <path id="Path_4282" data-name="Path 4282" d="M7684.731,2228.808l1.066,1.023c.064.062.126.129.191.191a.545.545,0,0,1,.148.65.564.564,0,0,1-.571.375h-2.2c-.6,0-1.209,0-1.813,0a.607.607,0,0,1-.68-.66q0-2,0-4.009a.574.574,0,0,1,.4-.6.512.512,0,0,1,.585.116c.342.34.687.678,1.027,1.02a2.011,2.011,0,0,1,.16.209l.168-.144a7.052,7.052,0,0,1,10.708,1.493,6.657,6.657,0,0,1,1.031,4.638,6.856,6.856,0,0,1-3.916,5.464,7.038,7.038,0,0,1-9.974-4.736c-.068-.278.057-.43.345-.431.546,0,1.093,0,1.639,0,.293,0,.341.03.435.313a4.492,4.492,0,0,0,2.388,2.742,4.717,4.717,0,0,0,6.762-3.772,4.658,4.658,0,0,0-3.154-4.908,4.565,4.565,0,0,0-4.5.787c-.062.049-.12.1-.178.158a.379.379,0,0,0-.038.049Z" transform="translate(0 0)" fill="red" stroke="#fff" stroke-width="0.5"/>
    </g>
  </g>
</svg>
