<svg id="Layer_1" data-name="Layer 1" xmlns="http://www.w3.org/2000/svg" viewBox="0 0 21 21"><defs><style>.cls-1{fill:#51b1fb;}</style></defs><g id="Group_4189" data-name="Group 4189"><path id="Path_3434" data-name="Path 3434" class="cls-1" d="M15.75.5A4.49,4.49,0,0,1,20,3.25a4.41,4.41,0,0,1-.79,5.09c-1.45,1.58-3,3.09-4.55,4.57a4.65,4.65,0,0,1-6.3,0,1.38,1.38,0,0,1,1.71-2.17l.07.06a1.94,1.94,0,0,0,2.75,0,1.21,1.21,0,0,0,.21-.24Q15,8.67,16.93,6.75A2,2,0,0,0,17.21,4l-.08-.09a1.92,1.92,0,0,0-2.74,0,1.49,1.49,0,0,0-.17.18c-.69.69-1.39,1.38-2.07,2.09a.79.79,0,0,1-.92.24A15.34,15.34,0,0,0,9.46,6C9.27,6,9,5.9,9,5.77a.64.64,0,0,1,.16-.54C10.32,4,11.52,2.74,12.79,1.58A4.15,4.15,0,0,1,15.75.5Z"/><path id="Path_3433" data-name="Path 3433" class="cls-1" d="M.53,16.39a4.91,4.91,0,0,1,1.3-3.86c1.43-1.45,2.85-2.9,4.31-4.32a4.67,4.67,0,0,1,6.41-.1,1.41,1.41,0,0,1,.3,2l-.09.1a1.41,1.41,0,0,1-2,.05,1.91,1.91,0,0,0-2.69,0l-.16.18q-2,1.95-3.91,3.92A1.91,1.91,0,0,0,3.67,17a1.45,1.45,0,0,0,.16.18,1.94,1.94,0,0,0,2.75,0L6.69,17c.7-.69,1.4-1.37,2.07-2.09a.88.88,0,0,1,1.05-.24c.55.17,1.14.19,1.71.31.19,0,.45.13.49.26a.67.67,0,0,1-.19.54C10.64,17,9.5,18.25,8.24,19.36a4.7,4.7,0,0,1-7.72-3Z"/></g></svg>