<svg xmlns="http://www.w3.org/2000/svg" xmlns:xlink="http://www.w3.org/1999/xlink" width="334" height="204" viewBox="0 0 334 204">
  <defs>
    <clipPath id="clip-Logo_Vingroup">
      <rect width="334" height="204"/>
    </clipPath>
  </defs>
  <g id="Logo_Vingroup" data-name="Logo Vingroup" clip-path="url(#clip-Logo_Vingroup)">
    <g id="Group_9228" data-name="Group 9228" transform="translate(-1085 -382.075)">
      <path id="Path_6205" data-name="Path 6205" d="M116.076,8.828a73.4,73.4,0,1,0,73.4,73.4,73.559,73.559,0,0,0-73.4-73.4" transform="translate(1135.923 374.247)" fill="#c11d2a" fill-rule="evenodd"/>
      <path id="Path_6206" data-name="Path 6206" d="M117.561,27.27c4.824-6.721,12.06-11.494,25.1-13.7l-.027-.069C62.043,22.149,96.533,80.764,96.9,81.513c-.348-.47-17.391-20.427-47.522-17.564,27.4,6.428,60.342,35.409,24.646,32.434,14.376,7.852,36.525,14.939,45.684,11.279,25.2-10.681-20.842-54.357-2.144-80.392" transform="translate(1147.025 381.98)" fill="#fff200" fill-rule="evenodd"/>
      <path id="Path_6207" data-name="Path 6207" d="M81.132,58.386l.226,5.756,5.369,2.3-5.459,2.04-.5,5.754-3.618-4.526L71.5,71.025l3.166-4.872-2.949-4.959,5.562,1.554Zm65.926-9.218,1.759,5.56-4.189,3.937,5.841.053,2.449,5.22,1.857-5.568,5.73-.691-4.723-3.517,1.063-5.629-4.75,3.384Zm-18.666,9.613-.351,5.759-5.334,2.237,5.374,2.1.436,5.751,3.668-4.481,5.634,1.381-3.108-4.9,3.007-4.93-5.589,1.477Zm-23.2,3.427L102.9,67.49l-5.783.29,4.335,3.815L99.9,77.143l4.975-2.951,4.824,3.22-1.249-5.674,4.5-3.61-5.754-.5ZM52.956,48.5l1.092,5.719L49.423,57.64l5.791.738,1.814,5.472,2.513-5.3L65.3,58.53l-4.269-4.062,1.713-5.451-5.116,2.795Z" transform="translate(1147.1 439.921)" fill="#fff200" fill-rule="evenodd"/>
      <path id="Path_6208" data-name="Path 6208" d="M7.8,64.257c4.1,8.862,5.767,17.33,9.186,26.906,1.251,3.5,8.2,25.105,8.373,27.443h20.3c1.636-8.038,6.652-19.277,9.162-27.714,2.537-8.53,6.2-19.947,10.118-26.635H53.567v3.937c0,5.95-10.392,30.482-12.044,38.6h-.685c-.173-2.409-4.816-16.161-5.8-19.36-1.161-3.751-5.554-16.06-5.554-19.636v-.789a26.485,26.485,0,0,1,.337-2.755Z" transform="translate(1078.205 465.99)" fill="#c11d2a" fill-rule="evenodd"/>
      <path id="Path_6215" data-name="Path 6215" d="M119.825,76.2v27a7.779,7.779,0,0,1-1.4,4.38h16.132a9.938,9.938,0,0,1-1.4-5.106V94.444H148.6c4.322,0,8.07-1.915,8.07-6.2V77.664c0-4.428-4.444-6.572-8.774-6.572H118.422c.473,1.854,1.4,1.971,1.4,5.106m21.4,12.411h-8.073V77.3h7.719q2.458,0,2.46,2.553v4.378c0,1.875-.4,4.38-2.106,4.38" transform="translate(1261.332 477.312)" fill="#751625" fill-rule="evenodd"/>
      <path id="Path_6209" data-name="Path 6209" d="M53.928,79.482V99.553c0,5.493,2.539,8.025,7.725,8.025H74.632c4.234,0,3.235-1.788,5.265-2.555v1.461c0,1.947,9.712,1.094,11.93,1.094a6.271,6.271,0,0,1-1.408-4.019V90.065c0-2.008.7-2.444,1.06-4.016H69.72v6.567a5.513,5.513,0,0,1,2.8-.728h4.564v8.022c0,1.193-1.272,1.83-2.454,1.83H70.071c-2.091,0-2.808-1.474-2.808-3.647V80.212c0-1.336.972-2.917,2.107-2.917H85.512a13.684,13.684,0,0,1,3.854.725c0-1.7-.223-6.928-1.743-6.928H62.7c-5.592,0-8.771,2.4-8.771,8.389" transform="translate(1154.571 477.313)" fill="#751625" fill-rule="evenodd"/>
      <path id="Path_6210" data-name="Path 6210" d="M101.567,71.093c4.731,9.358-4.338,36.485,9.127,36.485h21.758c2.619,0,5.467-2.9,6.439-4.973,1.392-2.949.922-6.234.922-10.349V80.943c0-1.817-.109-4.085,0-5.849.141-2.178,1.023-2.492,1.411-4h-8.771c.478,1.851,1.4,1.971,1.4,5.106V99.553c0,1.179-1.514,2.186-2.8,2.186H121.92l-4.55-.42a3.564,3.564,0,0,1-1.057-2.5V77.3c0-3.459.829-3.987,1.405-6.2Z" transform="translate(1233.414 477.313)" fill="#751625" fill-rule="evenodd"/>
      <path id="Path_6211" data-name="Path 6211" d="M69.474,71.093A10.052,10.052,0,0,1,70.869,76.2V101.74a10.328,10.328,0,0,1-1.395,5.839h16.14a9.843,9.843,0,0,1-1.411-5.1V92.256h3.509c1.14,0,3.132,6.131,3.666,7.507.855,2.282,2.539,5.748,3,7.815h15.441l-7.414-15.3c3.745-.027,5.307-1.828,5.307-5.507V78.751c0-5.209-4-7.658-9.119-7.658ZM84.2,77.3h8.415a2.027,2.027,0,0,1,1.764,1.822v4.744a5.409,5.409,0,0,1-.348,1.82,4.837,4.837,0,0,1-1.759.367H84.2Z" transform="translate(1180.304 477.313)" fill="#751625" fill-rule="evenodd"/>
      <path id="Path_6212" data-name="Path 6212" d="M85.455,98.092c0,5.549,3.023,9.486,8.423,9.486h22.454c3.8,0,7.363-4.139,7.363-8.4V83.129c0-6.981-2.191-12.036-8.769-12.036h-18.6c-7.563,0-10.872,3.031-10.872,10.944ZM98.79,79.482c0-1.5,1.936-2.186,3.506-2.186h4.566c2.093,0,3.5.738,3.5,2.917V98.82a3.852,3.852,0,0,1-1.049,2.555l-4.558.446-.359-.082-4.55-.42a3.57,3.57,0,0,1-1.06-2.5Z" transform="translate(1206.761 477.313)" fill="#751625" fill-rule="evenodd"/>
      <path id="Path_6213" data-name="Path 6213" d="M29.519,71.093a9.816,9.816,0,0,1,1.4,5.106v27.363c0,2.014-.7,2.444-1.047,4.016H45.659a11.933,11.933,0,0,1-1.4-4.736V75.835c0-2.348,1-2.909,1.4-4.742Z" transform="translate(1114.167 477.313)" fill="#c11d2a" fill-rule="evenodd"/>
      <path id="Path_6214" data-name="Path 6214" d="M37.181,71.093a12.76,12.76,0,0,1,1.743,4.742v26.274c0,2.933-.908,3.578-1.4,5.469H45.95c-2.853-5.616-1.408-20.837-1.408-29.191,2.64,3.15,12.62,29.191,14.735,29.191H75.422V76.562a11.6,11.6,0,0,1,1.756-5.469H68.409c.669,2.606,1.426,2.093,1.405,6.2-.021,2.545,0,5.108,0,7.669V99.912L56.294,71.189Z" transform="translate(1126.849 477.313)" fill="#c11d2a" fill-rule="evenodd"/>
    </g>
  </g>
</svg>
