<svg width="74" height="74" viewBox="0 0 74 74" fill="none" xmlns="http://www.w3.org/2000/svg">
<path d="M13.4165 1L3.00326 1C1.89869 0.999999 1.00326 1.89543 1.00326 3L1.00326 13.4132" stroke="black" stroke-linecap="round"/>
<path d="M72.562 13.4209L72.562 3.00765C72.562 1.90308 71.6666 1.00765 70.562 1.00765L60.1488 1.00765" stroke="black" stroke-linecap="round"/>
<path d="M60.1455 73L70.5588 73C71.6633 73 72.5588 72.1046 72.5588 71L72.5588 60.5868" stroke="black" stroke-linecap="round"/>
<path d="M1 60.5791L0.999998 70.9923C0.999998 72.0969 1.89543 72.9923 3 72.9923L13.4132 72.9924" stroke="black" stroke-linecap="round"/>
<path d="M5.11499 5.1123H17.1795V17.1768H5.11499V5.1123ZM27.5205 5.1123H29.244V6.8358H27.5205V5.1123ZM43.0319 5.1123H46.4789V6.8358H43.0319V5.1123ZM48.2024 5.1123H49.9259V6.8358H48.2024V5.1123ZM53.3729 5.1123H55.0964V10.2828H53.3729V12.0063H46.4789V6.8358H48.2024V10.2828H49.9259V8.5593H51.6494V6.8358H53.3729V5.1123ZM56.8199 5.1123H68.8844V17.1768H56.8199V5.1123ZM6.83849 6.8358V15.4533H15.456V6.8358H6.83849ZM20.6265 6.8358H24.0735V8.5593H22.35V13.7298H20.6265V18.9003H18.903V8.5593H20.6265V6.8358ZM29.244 6.8358H30.9675V8.5593H32.691V10.2828H36.1379V15.4533H34.4144V13.7298H32.691V12.0063H30.9675V10.2828H29.244V6.8358ZM32.691 6.8358H34.4144V8.5593H32.691V6.8358ZM39.5849 6.8358H43.0319V8.5593H44.7554V12.0063H43.0319V10.2828H41.3084V8.5593H39.5849V6.8358ZM58.5434 6.8358V15.4533H67.1609V6.8358H58.5434ZM8.56199 8.5593H13.7325V13.7298H8.56199V8.5593ZM24.0735 8.5593H27.5205V10.2828H24.0735V8.5593ZM60.2669 8.5593H65.4374V13.7298H60.2669V8.5593ZM27.5205 10.2828H29.244V13.7298H32.691V15.4533H30.9675V18.9003H29.244V15.4533H27.5205V10.2828ZM24.0735 12.0063H25.797V13.7298H24.0735V12.0063ZM37.8614 12.0063H43.0319V15.4533H41.3084V13.7298H37.8614V12.0063ZM44.7554 12.0063H46.4789V13.7298H44.7554V12.0063ZM53.3729 12.0063H55.0964V13.7298H53.3729V12.0063ZM46.4789 13.7298H48.2024V17.1768H46.4789V13.7298ZM49.9259 13.7298H53.3729V15.4533H51.6494V18.9003H53.3729V15.4533H55.0964V24.0708H56.8199V22.3473H58.5434V27.5178H56.8199V32.6883H58.5434V34.4118H55.0964V30.9648H53.3729V32.6883H51.6494V36.1353H53.3729V34.4118H55.0964V39.5823H56.8199V36.1353H58.5434V34.4118H60.2669V39.5823H58.5434V41.3058H55.0964V44.7527H56.8199V43.0293H61.9904V41.3058H63.7139V44.7527H61.9904V48.1997H60.2669V46.4762H58.5434V48.1997H56.8199V49.9232H55.0964V46.4762H51.6494V44.7527H49.9259V41.3058H48.2024V46.4762H46.4789V43.0293H43.0319V44.7527H44.7554V46.4762H43.0319V48.1997H48.2024V49.9232H39.5849V48.1997H41.3084V41.3058H43.0319V39.5823H41.3084V37.8588H43.0319V36.1353H44.7554V37.8588H46.4789V36.1353H49.9259V34.4118H46.4789V36.1353H44.7554V34.4118H43.0319V36.1353H41.3084V34.4118H36.1379V32.6883H37.8614V30.9648H41.3084V32.6883H44.7554V30.9648H46.4789V32.6883H49.9259V30.9648H51.6494V29.2413H53.3729V27.5178H48.2024V25.7943H53.3729V24.0708H48.2024V18.9003H49.9259V13.7298ZM22.35 15.4533H24.0735V17.1768H22.35V15.4533ZM25.797 15.4533H27.5205V17.1768H25.797V15.4533ZM32.691 15.4533H34.4144V17.1768H32.691V15.4533ZM36.1379 15.4533H37.8614V17.1768H39.5849V15.4533H41.3084V17.1768H43.0319V20.6238H41.3084V18.9003H39.5849V20.6238H37.8614V18.9003H34.4144V17.1768H36.1379V15.4533ZM43.0319 15.4533H44.7554V17.1768H43.0319V15.4533ZM24.0735 17.1768H25.797V18.9003H29.244V20.6238H30.9675V18.9003H34.4144V20.6238H32.691V22.3473H34.4144V24.0708H32.691V25.7943H36.1379V24.0708H37.8614V22.3473H39.5849V24.0708H43.0319V25.7943H39.5849V27.5178H41.3084V29.2413H37.8614V30.9648H36.1379V27.5178H34.4144V32.6883H32.691V30.9648H30.9675V29.2413H32.691V27.5178H27.5205V25.7943H29.244V24.0708H30.9675V22.3473H27.5205V24.0708H25.797V22.3473H20.6265V20.6238H24.0735V17.1768ZM44.7554 17.1768H46.4789V18.9003H44.7554V17.1768ZM5.11499 18.9003H6.83849V22.3473H5.11499V18.9003ZM8.56199 18.9003H17.1795V20.6238H15.456V22.3473H13.7325V20.6238H12.009V22.3473H10.2855V20.6238H8.56199V18.9003ZM56.8199 18.9003H65.4374V20.6238H63.7139V22.3473H61.9904V20.6238H56.8199V18.9003ZM17.1795 20.6238H18.903V22.3473H17.1795V20.6238ZM36.1379 20.6238H37.8614V22.3473H36.1379V20.6238ZM39.5849 20.6238H41.3084V22.3473H39.5849V20.6238ZM44.7554 20.6238H46.4789V22.3473H44.7554V20.6238ZM51.6494 20.6238V22.3473H53.3729V20.6238H51.6494ZM65.4374 20.6238H67.1609V22.3473H68.8844V27.5178H63.7139V25.7943H67.1609V24.0708H65.4374V20.6238ZM6.83849 22.3473H10.2855V25.7943H8.56199V24.0708H6.83849V22.3473ZM15.456 22.3473H17.1795V24.0708H15.456V22.3473ZM43.0319 22.3473H44.7554V24.0708H43.0319V22.3473ZM60.2669 22.3473H61.9904V24.0708H60.2669V22.3473ZM12.009 24.0708H15.456V25.7943H12.009V24.0708ZM17.1795 24.0708H18.903V25.7943H20.6265V24.0708H25.797V27.5178H24.0735V25.7943H22.35V30.9648H24.0735V32.6883H22.35V36.1353H20.6265V39.5823H18.903V41.3058H15.456V39.5823H17.1795V37.8588H18.903V34.4118H20.6265V32.6883H17.1795V30.9648H20.6265V29.2413H18.903V27.5178H15.456V25.7943H17.1795V24.0708ZM46.4789 24.0708H48.2024V25.7943H46.4789V24.0708ZM5.11499 25.7943H6.83849V30.9648H10.2855V27.5178H13.7325V29.2413H17.1795V30.9648H12.009V34.4118H10.2855V32.6883H8.56199V36.1353H6.83849V37.8588H8.56199V39.5823H6.83849V41.3058H8.56199V39.5823H10.2855V36.1353H12.009V34.4118H13.7325V36.1353H17.1795V37.8588H15.456V39.5823H13.7325V41.3058H15.456V43.0293H13.7325V44.7527H12.009V48.1997H10.2855V53.3702H8.56199V49.9232H6.83849V55.0937H5.11499V48.1997H8.56199V46.4762H5.11499V34.4118H6.83849V32.6883H5.11499V25.7943ZM43.0319 25.7943H44.7554V27.5178H43.0319V25.7943ZM60.2669 25.7943H61.9904V27.5178H60.2669V25.7943ZM44.7554 27.5178H46.4789V29.2413H44.7554V27.5178ZM58.5434 27.5178H60.2669V29.2413H63.7139V30.9648H61.9904V34.4118H60.2669V32.6883H58.5434V27.5178ZM27.5205 29.2413H29.244V30.9648H27.5205V29.2413ZM43.0319 29.2413H44.7554V30.9648H43.0319V29.2413ZM46.4789 29.2413H49.9259V30.9648H46.4789V29.2413ZM65.4374 29.2413H68.8844V30.9648H67.1609V36.1353H68.8844V39.5823H67.1609V37.8588H65.4374V34.4118H63.7139V32.6883H65.4374V29.2413ZM25.797 30.9648H27.5205V32.6883H25.797V30.9648ZM29.244 30.9648H30.9675V34.4118H36.1379V37.8588H34.4144V36.1353H29.244V37.8588H25.797V36.1353H27.5205V34.4118H29.244V30.9648ZM15.456 32.6883H17.1795V34.4118H15.456V32.6883ZM24.0735 34.4118H25.797V36.1353H24.0735V34.4118ZM61.9904 34.4118H63.7139V37.8588H61.9904V34.4118ZM39.5849 36.1353H41.3084V37.8588H39.5849V36.1353ZM24.0735 37.8588H25.797V39.5823H27.5205V41.3058H25.797V43.0293H32.691V44.7527H34.4144V39.5823H36.1379V44.7527H37.8614V46.4762H34.4144V48.1997H32.691V49.9232H34.4144V51.6467H32.691V55.0937H25.797V53.3702H20.6265V56.8172H18.903V53.3702H17.1795V51.6467H15.456V53.3702H12.009V51.6467H13.7325V49.9232H12.009V48.1997H15.456V49.9232H20.6265V48.1997H18.903V44.7527H15.456V43.0293H18.903V41.3058H20.6265V46.4762H24.0735V48.1997H25.797V49.9232H24.0735V51.6467H27.5205V53.3702H29.244V51.6467H30.9675V49.9232H27.5205V48.1997H30.9675V44.7527H29.244V46.4762H25.797V44.7527H22.35V41.3058H24.0735V37.8588ZM32.691 37.8588H34.4144V39.5823H32.691V37.8588ZM48.2024 37.8588V39.5823H49.9259V37.8588H48.2024ZM51.6494 37.8588V43.0293H53.3729V37.8588H51.6494ZM29.244 39.5823H30.9675V41.3058H29.244V39.5823ZM44.7554 39.5823V41.3058H46.4789V39.5823H44.7554ZM60.2669 39.5823H61.9904V41.3058H60.2669V39.5823ZM63.7139 39.5823H65.4374V41.3058H63.7139V39.5823ZM37.8614 41.3058H39.5849V43.0293H37.8614V41.3058ZM6.83849 43.0293V44.7527H8.56199V43.0293H6.83849ZM67.1609 43.0293H68.8844V48.1997H67.1609V46.4762H65.4374V44.7527H67.1609V43.0293ZM13.7325 44.7527H15.456V46.4762H13.7325V44.7527ZM15.456 46.4762H17.1795V48.1997H15.456V46.4762ZM48.2024 46.4762H49.9259V48.1997H48.2024V46.4762ZM63.7139 46.4762H65.4374V48.1997H63.7139V46.4762ZM36.1379 48.1997H37.8614V49.9232H39.5849V51.6467H43.0319V53.3702H41.3084V60.2642H44.7554V61.9877H39.5849V56.8172H37.8614V53.3702H36.1379V48.1997ZM58.5434 48.1997H60.2669V49.9232H61.9904V48.1997H63.7139V53.3702H67.1609V51.6467H65.4374V49.9232H68.8844V55.0937H67.1609V56.8172H65.4374V55.0937H63.7139V56.8172H61.9904V58.5407H63.7139V60.2642H61.9904V63.7112H60.2669V61.9877H58.5434V63.7112H56.8199V61.9877H49.9259V63.7112H51.6494V65.4347H53.3729V63.7112H55.0964V67.1582H51.6494V68.8817H48.2024V67.1582H49.9259V65.4347H48.2024V61.9877H46.4789V60.2642H49.9259V58.5407H48.2024V53.3702H51.6494V55.0937H49.9259V56.8172H51.6494V60.2642H53.3729V56.8172H51.6494V55.0937H53.3729V53.3702H55.0964V51.6467H58.5434V48.1997ZM48.2024 49.9232H49.9259V51.6467H48.2024V49.9232ZM51.6494 49.9232H55.0964V51.6467H53.3729V53.3702H51.6494V49.9232ZM44.7554 51.6467H46.4789V56.8172H44.7554V55.0937H43.0319V53.3702H44.7554V51.6467ZM60.2669 51.6467V53.3702H61.9904V51.6467H60.2669ZM10.2855 53.3702H12.009V55.0937H10.2855V53.3702ZM15.456 53.3702H17.1795V55.0937H15.456V53.3702ZM34.4144 53.3702H36.1379V55.0937H34.4144V53.3702ZM22.35 55.0937H24.0735V56.8172H22.35V55.0937ZM32.691 55.0937H34.4144V60.2642H32.691V58.5407H29.244V56.8172H32.691V55.0937ZM55.0964 55.0937V60.2642H60.2669V55.0937H55.0964ZM5.11499 56.8172H17.1795V68.8817H5.11499V56.8172ZM20.6265 56.8172H22.35V63.7112H20.6265V65.4347H18.903V58.5407H20.6265V56.8172ZM24.0735 56.8172H27.5205V58.5407H29.244V60.2642H30.9675V61.9877H34.4144V63.7112H30.9675V68.8817H29.244V67.1582H27.5205V63.7112H29.244V61.9877H25.797V63.7112H24.0735V56.8172ZM36.1379 56.8172H37.8614V58.5407H36.1379V56.8172ZM43.0319 56.8172H44.7554V58.5407H43.0319V56.8172ZM56.8199 56.8172H58.5434V58.5407H56.8199V56.8172ZM63.7139 56.8172H65.4374V58.5407H63.7139V56.8172ZM67.1609 56.8172H68.8844V58.5407H67.1609V56.8172ZM6.83849 58.5407V67.1582H15.456V58.5407H6.83849ZM8.56199 60.2642H13.7325V65.4347H8.56199V60.2642ZM36.1379 60.2642H37.8614V61.9877H36.1379V60.2642ZM63.7139 60.2642H68.8844V68.8817H63.7139V67.1582H67.1609V65.4347H63.7139V60.2642ZM44.7554 61.9877H46.4789V63.7112H44.7554V61.9877ZM65.4374 61.9877V63.7112H67.1609V61.9877H65.4374ZM22.35 63.7112H24.0735V65.4347H25.797V68.8817H24.0735V67.1582H22.35V68.8817H18.903V67.1582H20.6265V65.4347H22.35V63.7112ZM34.4144 63.7112H37.8614V67.1582H36.1379V65.4347H34.4144V63.7112ZM39.5849 63.7112H41.3084V65.4347H39.5849V63.7112ZM43.0319 63.7112H44.7554V65.4347H46.4789V67.1582H44.7554V68.8817H43.0319V67.1582H41.3084V65.4347H43.0319V63.7112ZM32.691 65.4347H34.4144V67.1582H32.691V65.4347ZM56.8199 65.4347H58.5434V68.8817H56.8199V65.4347ZM60.2669 65.4347H61.9904V68.8817H60.2669V65.4347ZM34.4144 67.1582H36.1379V68.8817H34.4144V67.1582ZM39.5849 67.1582H41.3084V68.8817H39.5849V67.1582Z" fill="black"/>
</svg>
