<svg width="17" height="15" viewBox="0 0 17 15" fill="none" xmlns="http://www.w3.org/2000/svg">
<path d="M0.00151913 9.90928C-0.0126332 9.58427 0.0723565 9.26261 0.24566 8.98729C0.418963 8.71197 0.672071 8.49605 0.971246 8.36827C1.23329 8.25267 1.5253 8.22186 1.80572 8.28013C2.08614 8.3384 2.3414 8.4828 2.5357 8.69322C3.1457 9.25922 3.73572 9.85326 4.30572 10.4573C4.55472 10.7193 4.72046 10.6973 4.96246 10.4573C7.93712 7.47126 10.9158 4.48983 13.8985 1.51316C14.0322 1.35709 14.1964 1.22998 14.3809 1.13938C14.5654 1.04879 14.7665 0.996694 14.9717 0.986309C15.177 0.975923 15.3821 1.00745 15.5748 1.07896C15.7675 1.15047 15.9435 1.26042 16.0923 1.4022C16.2396 1.54666 16.355 1.72035 16.4312 1.91209C16.5074 2.10383 16.5427 2.30945 16.5347 2.51561C16.5267 2.72176 16.4756 2.92386 16.3848 3.10911C16.294 3.29436 16.1654 3.45856 16.0074 3.59117C12.9794 6.62717 9.94595 9.65788 6.90728 12.6832C6.50728 13.0832 6.10737 13.4883 5.69537 13.8833C5.56127 14.0235 5.40098 14.1357 5.2232 14.2135C5.04542 14.2912 4.85373 14.3329 4.65972 14.3362C4.46571 14.3394 4.27312 14.3041 4.09283 14.2324C3.91254 14.1607 3.74816 14.0539 3.60943 13.9182C2.54243 12.8942 1.49029 11.8512 0.469293 10.7812C0.269358 10.5164 0.111726 10.2223 0.00151913 9.90928Z" fill="white"/>
</svg>
