<svg id="Layer_1" data-name="Layer 1" xmlns="http://www.w3.org/2000/svg" viewBox="0 0 1000 1000"><defs><style>.cls-1{fill:#d13238;}.cls-1,.cls-2{fill-rule:evenodd;}.cls-2{fill:#fff200;}.cls-3{fill:none;}</style></defs><path class="cls-1" d="M500,5C227.37,5,5,227.5,5,500S227.37,995,500,995,995,772.5,995,500,772.62,5,500,5"/><path class="cls-2" d="M584.87,181.49c32.55-45.28,81.26-77.52,169.22-92.43a2,2,0,0,1-.14-.62C210.41,147,443,542.3,445.47,547.31,443.17,544.18,328.2,409.55,125,428.88c184.79,43.35,406.94,238.76,166.23,218.71,96.94,52.95,246.31,100.79,308,76.09,169.93-72-140.54-366.63-14.41-542.19"/><path class="cls-2" d="M339.67,782.38l1.57,38.79,36.18,15.53-36.77,13.77-3.38,38.78-24.39-30.5-38.08,8.87,21.36-32.84-19.88-33.41,37.49,10.44ZM784.3,720.26l11.84,37.42-28.23,26.57,39.4.38,16.49,35.19,12.58-37.54L875,777.64l-31.89-23.79,7.2-37.93-32.08,22.83ZM658.42,785.05l-2.36,38.81-36,15.09,36.29,14.2,2.92,38.8L684,861.73,722,871,701,838l20.29-33.17-37.69,10ZM502,808.18,486.5,843.79l-39,1.94,29.25,25.72-10.43,37.46L499.85,889l32.5,21.71-8.44-38.26,30.4-24.3L515.5,844.7Zm-352.3-92.44L157,754.3l-31.18,23.06,39.09,5,12.24,36.87,16.89-35.77,38.93-.1L204.13,756l11.59-36.82L181.2,738.09Z"/><rect class="cls-3" x="-68.66" y="-318.62" width="617.9" height="375.95"/></svg>