<svg xmlns="http://www.w3.org/2000/svg" width="200" height="121.688" viewBox="0 0 200 121.688">
    <defs>
        <style>
            .cls-1{fill:#c11d2a}.cls-1,.cls-2,.cls-3{fill-rule:evenodd}.cls-2{fill:#fff200}.cls-3{fill:#751625}
        </style>
    </defs>
    <g id="Group_69" data-name="Group 69" transform="translate(-135 -563.878)">
        <g id="Group_64" data-name="Group 64" transform="translate(70 380.879)">
            <g id="Group_56" data-name="Group 56" transform="translate(65 183)">
                <path id="Path_2643" data-name="Path 2643" class="cls-1" d="M88.158 8.828a45.482 45.482 0 1 0 45.481 45.483A45.58 45.58 0 0 0 88.158 8.828" transform="translate(11.842 -8.828)"/>
                <path id="Path_2644" data-name="Path 2644" class="cls-2" d="M91.627 22.032c2.989-4.164 7.473-7.122 15.553-8.492l-.016-.043C57.225 18.858 78.6 55.179 78.822 55.643A35.334 35.334 0 0 0 49.375 44.76c16.979 3.983 37.391 21.941 15.272 20.1 8.908 4.866 22.633 9.257 28.308 6.989 15.614-6.619-12.915-33.682-1.328-49.815" transform="translate(16.387 -5.812)"/>
                <path id="Path_2645" data-name="Path 2645" class="cls-2" d="m69.071 54.627.14 3.567 3.327 1.424-3.383 1.264-.308 3.565-2.242-2.8-3.5.816 1.962-3.019-1.827-3.077 3.447.963zm40.851-5.712 1.09 3.445-2.6 2.439 3.62.033 1.518 3.234 1.151-3.45 3.55-.428-2.927-2.179.658-3.488-2.943 2.1zm-11.566 5.957-.217 3.569-3.305 1.386 3.33 1.3.27 3.564 2.273-2.777 3.491.856-1.926-3.034 1.863-3.055-3.463.915zM83.979 57l-1.421 3.272-3.583.179 2.686 2.364-.961 3.434 3.083-1.829 2.989 1.995L86 62.9l2.79-2.237-3.565-.308zm-32.367-8.5.677 3.544-2.866 2.118 3.588.458 1.124 3.391 1.557-3.287 3.57-.01-2.644-2.514 1.062-3.378-3.17 1.732z" transform="translate(16.199 14.657)"/>
                <path id="Path_2653" data-name="Path 2653" class="cls-1" d="M7.8 64.257c2.536 5.491 3.568 10.743 5.687 16.672.775 2.169 5.08 15.556 5.188 17h12.577c1.014-4.981 4.122-11.945 5.677-17.173 1.572-5.285 3.843-12.36 6.27-16.5h-7.042V66.7c0 3.687-6.439 18.888-7.463 23.92h-.424c-.107-1.493-2.984-10.014-3.6-12-.719-2.324-3.442-9.952-3.442-12.167v-.489a16.411 16.411 0 0 1 .209-1.707z" transform="translate(-7.795 23.455)"/>
                <path id="Path_2652" data-name="Path 2652" class="cls-3" d="M119.291 74.256v16.733a4.82 4.82 0 0 1-.869 2.714h10a6.158 6.158 0 0 1-.867-3.164v-4.977h9.57c2.678 0 5-1.187 5-3.84v-6.558c0-2.744-2.754-4.072-5.437-4.072h-18.266c.293 1.149.869 1.221.869 3.164m13.262 7.69h-5v-7.009h4.783q1.523 0 1.524 1.582v2.713c0 1.162-.245 2.714-1.305 2.714" transform="translate(57.879 27.871)"/>
                <path id="Path_2646" data-name="Path 2646" class="cls-3" d="M53.928 76.291v12.437c0 3.4 1.574 4.973 4.787 4.973h8.042c2.624 0 2-1.108 3.262-1.583v.905c0 1.207 6.018.678 7.392.678a3.886 3.886 0 0 1-.872-2.49v-8.362c0-1.244.435-1.514.657-2.489H63.714v4.069a3.417 3.417 0 0 1 1.737-.451h2.828v4.971c0 .739-.788 1.134-1.521 1.134h-2.827c-1.3 0-1.74-.914-1.74-2.26V76.744c0-.828.6-1.807 1.305-1.807h10a8.479 8.479 0 0 1 2.388.449c0-1.055-.138-4.293-1.08-4.293H59.363c-3.465 0-5.435 1.488-5.435 5.2" transform="translate(19.594 27.872)"/>
                <path id="Path_2651" data-name="Path 2651" class="cls-3" d="M101.567 71.093c2.932 5.8-2.688 22.608 5.656 22.608h13.482c1.623 0 3.387-1.794 3.99-3.081.863-1.827.571-3.863.571-6.413V77.2c0-1.126-.067-2.532 0-3.625.087-1.35.634-1.544.874-2.479h-5.435c.3 1.147.867 1.221.867 3.164v14.468c0 .731-.938 1.355-1.735 1.355h-5.659l-2.82-.26a2.208 2.208 0 0 1-.655-1.549V74.936c0-2.143.514-2.471.871-3.843z" transform="translate(46.99 27.872)"/>
                <path id="Path_2647" data-name="Path 2647" class="cls-3" d="M69.474 71.093a6.228 6.228 0 0 1 .864 3.164v15.826a6.4 6.4 0 0 1-.864 3.618h10a6.1 6.1 0 0 1-.874-3.162v-6.332h2.174c.706 0 1.941 3.8 2.272 4.652a50.391 50.391 0 0 1 1.863 4.841h9.568l-4.594-9.478c2.321-.016 3.289-1.132 3.289-3.412v-4.972c0-3.228-2.476-4.745-5.651-4.745zm9.126 3.843h5.215a1.256 1.256 0 0 1 1.093 1.129v2.94a3.352 3.352 0 0 1-.216 1.128 3 3 0 0 1-1.09.227h-5z" transform="translate(28.797 27.872)"/>
                <path id="Path_2648" data-name="Path 2648" class="cls-3" d="M85.455 87.823c0 3.439 1.873 5.878 5.219 5.878h13.914c2.352 0 4.563-2.564 4.563-5.2v-9.95c0-4.326-1.358-7.458-5.433-7.458H92.192c-4.686 0-6.737 1.878-6.737 6.782zm8.263-11.532c0-.927 1.2-1.355 2.173-1.355h2.829c1.3 0 2.171.458 2.171 1.807v11.53a2.387 2.387 0 0 1-.65 1.583l-2.825.277-.222-.051-2.82-.26a2.212 2.212 0 0 1-.657-1.549z" transform="translate(38.308 27.872)"/>
                <path id="Path_2649" data-name="Path 2649" class="cls-1" d="M29.519 71.093a6.083 6.083 0 0 1 .867 3.164v16.955c0 1.248-.435 1.514-.649 2.489h9.783a7.394 7.394 0 0 1-.867-2.935V74.031c0-1.455.621-1.8.867-2.938z" transform="translate(5.18 27.872)"/>
                <path id="Path_2650" data-name="Path 2650" class="cls-1" d="M37.181 71.093a7.907 7.907 0 0 1 1.08 2.938v16.281c0 1.817-.563 2.217-.866 3.389h5.219c-1.768-3.48-.872-12.911-.872-18.088 1.636 1.952 7.82 18.088 9.13 18.088h10V74.482a7.19 7.19 0 0 1 1.088-3.389h-5.428c.415 1.615.884 1.3.871 3.843-.013 1.577 0 3.165 0 4.752v9.262l-8.378-17.8z" transform="translate(9.641 27.872)"/>
            </g>
        </g>
    </g>
</svg>
