<svg width="67" height="42" viewBox="0 0 67 42" fill="none" xmlns="http://www.w3.org/2000/svg">
<path d="M36.6553 4.04268C38.0651 2.07427 40.1844 0.677909 43.9974 0.0292795C43.9974 0.0292795 43.9974 0.0135131 43.9974 0C20.399 2.54497 30.5 19.7044 30.6036 19.9228C30.5045 19.79 25.5182 13.941 16.6919 14.7811C24.7164 16.6639 34.3625 25.1411 23.9101 24.2741C28.1195 26.5735 34.6035 28.6501 37.2836 27.5803C44.6595 24.452 31.1847 11.6641 36.6575 4.04268" fill="#283575"/>
<path d="M34.9927 32.7445L37.0331 34.7714C37.1207 34.8603 37.1701 34.98 37.1705 35.1048V38.429C37.1708 38.4922 37.1581 38.5547 37.1333 38.6128C37.1085 38.6709 37.0721 38.7233 37.0264 38.7668L34.9656 40.7555C34.9566 40.765 34.945 40.7715 34.9323 40.7743C34.9195 40.7771 34.9062 40.776 34.8941 40.7711C34.882 40.7663 34.8716 40.7579 34.8643 40.7471C34.8569 40.7363 34.853 40.7235 34.853 40.7105V32.803C34.8536 32.7871 34.8587 32.7717 34.8677 32.7586C34.8768 32.7454 34.8894 32.7352 34.9041 32.729C34.9188 32.7229 34.9349 32.721 34.9506 32.7238C34.9663 32.7265 34.9809 32.7337 34.9927 32.7445V32.7445Z" fill="#52B3D9"/>
<path d="M35.27 41.1047L37.1191 39.2579C37.1795 39.1969 37.2514 39.1486 37.3307 39.1157C37.4099 39.0828 37.495 39.0661 37.5808 39.0664H43.2405V34.4179H37.5898C37.5007 34.4181 37.4125 34.4007 37.3301 34.3667C37.2478 34.3327 37.173 34.2827 37.1101 34.2197L35.27 32.3774H45.0085C45.05 32.3803 45.0903 32.393 45.126 32.4145C45.1616 32.436 45.1916 32.4658 45.2134 32.5013C45.2553 32.5521 45.2783 32.6157 45.2787 32.6815V40.7893C45.278 40.8404 45.2632 40.8903 45.2359 40.9335C45.2253 40.955 45.2125 40.9754 45.1977 40.9943V40.9943C45.1786 41.0184 45.1549 41.0383 45.1278 41.0528C45.0912 41.0743 45.0506 41.0881 45.0085 41.0934H35.27V41.1047Z" fill="#283575"/>
<path d="M10.3901 32.6455L6.15373 40.9785C6.13274 41.0205 6.10065 41.0559 6.06094 41.081C6.02124 41.106 5.97543 41.1196 5.92851 41.1204H4.80242C4.66535 41.1207 4.5309 41.083 4.414 41.0114C4.2971 40.9398 4.20235 40.8372 4.14027 40.715L0.0210287 32.6455C0.00627842 32.6173 -0.000932461 32.5857 9.65496e-05 32.5539C0.00112556 32.5221 0.0103596 32.4911 0.0269017 32.4639C0.0434439 32.4367 0.066732 32.4143 0.0945092 32.3987C0.122286 32.3832 0.153609 32.3751 0.185437 32.3752H1.72593C1.85533 32.3756 1.98214 32.4115 2.09254 32.479C2.20294 32.5466 2.2927 32.6431 2.35204 32.7581L5.00061 37.9066C5.02273 37.947 5.0553 37.9807 5.09493 38.0042C5.13455 38.0276 5.17977 38.04 5.22583 38.04C5.27189 38.04 5.3171 38.0276 5.35673 38.0042C5.39635 37.9807 5.42893 37.947 5.45105 37.9066L8.04106 32.7896C8.10395 32.6645 8.20051 32.5594 8.31988 32.4862C8.43925 32.413 8.57669 32.3745 8.71672 32.3752H10.2234C10.2554 32.3747 10.2871 32.3825 10.3151 32.3979C10.3432 32.4132 10.3668 32.4357 10.3836 32.4629C10.4005 32.4902 10.4099 32.5213 10.411 32.5533C10.4121 32.5853 10.4049 32.6171 10.3901 32.6455V32.6455Z" fill="#283575"/>
<path d="M13.246 41.1136H12.0546C11.88 41.113 11.7127 41.0433 11.5895 40.9196C11.4662 40.7959 11.397 40.6284 11.397 40.4538V32.5576C11.397 32.5074 11.4169 32.4593 11.4524 32.4238C11.4879 32.3883 11.536 32.3684 11.5862 32.3684H12.7731C12.9487 32.3684 13.1171 32.4382 13.2413 32.5623C13.3654 32.6865 13.4352 32.8549 13.4352 33.0305V40.9132C13.4367 40.939 13.433 40.9648 13.4242 40.9891C13.4153 41.0133 13.4017 41.0355 13.3839 41.0543C13.3662 41.0731 13.3448 41.088 13.3211 41.0982C13.2974 41.1084 13.2718 41.1137 13.246 41.1136V41.1136Z" fill="#283575"/>
<path d="M23.4032 41.1136H21.7906C21.7548 41.1136 21.7194 41.106 21.6868 41.0912C21.6542 41.0765 21.6251 41.0549 21.6014 41.0281L16.5138 35.3188C16.5067 35.3119 16.4977 35.3071 16.488 35.3051C16.4783 35.3031 16.4683 35.304 16.459 35.3075C16.4498 35.3111 16.4417 35.3172 16.4359 35.3252C16.43 35.3332 16.4266 35.3427 16.4259 35.3526V40.8727C16.4259 40.9366 16.4005 40.9979 16.3553 41.0431C16.3101 41.0883 16.2489 41.1136 16.1849 41.1136H15.1332C14.9355 41.1136 14.7458 41.0351 14.606 40.8953C14.4662 40.7555 14.3877 40.5659 14.3877 40.3682V32.6747C14.3877 32.5935 14.42 32.5156 14.4774 32.4581C14.5348 32.4007 14.6128 32.3684 14.694 32.3684H16.3133C16.3491 32.3684 16.3845 32.3761 16.4171 32.3908C16.4497 32.4056 16.4788 32.4271 16.5025 32.454L21.5879 38.116C21.5947 38.1232 21.6035 38.1282 21.6132 38.1303C21.6229 38.1325 21.633 38.1317 21.6422 38.1281C21.6514 38.1244 21.6593 38.1181 21.6649 38.1099C21.6705 38.1018 21.6735 38.0921 21.6735 38.0822V32.6454C21.6735 32.5731 21.7022 32.5038 21.7533 32.4527C21.8044 32.4016 21.8738 32.3729 21.946 32.3729H22.9505C23.0496 32.3729 23.1477 32.3924 23.2392 32.4303C23.3308 32.4683 23.4139 32.5238 23.484 32.5939C23.5541 32.664 23.6096 32.7471 23.6476 32.8387C23.6855 32.9302 23.705 33.0283 23.705 33.1274V40.8141C23.7038 40.8936 23.6716 40.9694 23.6152 41.0254C23.5588 41.0814 23.4827 41.1131 23.4032 41.1136V41.1136Z" fill="#283575"/>
<path d="M55.3482 41.1136H53.7379C53.7017 41.1138 53.666 41.1062 53.633 41.0915C53.5999 41.0767 53.5705 41.0551 53.5465 41.0281L48.4633 35.3188C48.4562 35.3119 48.4473 35.3071 48.4376 35.3051C48.4279 35.3031 48.4178 35.304 48.4085 35.3075C48.3993 35.3111 48.3913 35.3172 48.3854 35.3252C48.3795 35.3332 48.3761 35.3427 48.3754 35.3526V40.8727C48.3754 40.9366 48.3501 40.9979 48.3049 41.0431C48.2597 41.0883 48.1984 41.1136 48.1345 41.1136H47.0804C46.8827 41.1136 46.6931 41.0351 46.5533 40.8953C46.4135 40.7555 46.335 40.5659 46.335 40.3682V32.6747C46.335 32.5935 46.3672 32.5156 46.4247 32.4581C46.4821 32.4007 46.56 32.3684 46.6413 32.3684H48.2696C48.3054 32.3684 48.3408 32.3761 48.3734 32.3908C48.406 32.4056 48.4351 32.4271 48.4588 32.454L53.5442 38.116C53.5513 38.1229 53.5602 38.1276 53.5699 38.1296C53.5796 38.1316 53.5897 38.1308 53.5989 38.1272C53.6082 38.1237 53.6162 38.1175 53.6221 38.1096C53.6279 38.1016 53.6314 38.0921 53.632 38.0822V32.6454C53.632 32.5735 53.6604 32.5046 53.7111 32.4535C53.7617 32.4025 53.8304 32.3735 53.9023 32.3729H54.9068C55.1069 32.3729 55.2988 32.4524 55.4403 32.5939C55.5818 32.7354 55.6613 32.9273 55.6613 33.1274V40.8141C55.661 40.8545 55.6526 40.8944 55.6366 40.9316C55.6206 40.9687 55.5973 41.0022 55.5681 41.0301C55.5389 41.058 55.5044 41.0798 55.4666 41.0942C55.4289 41.1085 55.3886 41.1151 55.3482 41.1136Z" fill="#283575"/>
<path d="M65.9876 41.1069C66.1668 41.1069 66.3386 41.0357 66.4653 40.909C66.592 40.7823 66.6632 40.6104 66.6632 40.4312V39.1024V38.384C66.6478 38.0071 66.5503 37.6382 66.3776 37.3029C66.2049 36.9675 65.9611 36.674 65.6632 36.4426C64.8389 35.8232 64.0619 35.6971 62.7557 35.7084H59.8166C59.6068 35.7066 59.4006 35.6548 59.2149 35.5573C59.0292 35.4597 58.8695 35.3193 58.749 35.1476C58.6648 35.0028 58.6344 34.8329 58.6634 34.6679C58.7107 34.4044 58.9472 34.3976 59.1364 34.3976H66.4132C66.4468 34.3979 66.4802 34.3915 66.5113 34.3789C66.5424 34.3662 66.5708 34.3475 66.5946 34.3239C66.6185 34.3002 66.6375 34.272 66.6504 34.241C66.6633 34.21 66.67 34.1767 66.67 34.1431V33.0643C66.67 32.8774 66.5957 32.698 66.4635 32.5658C66.3313 32.4336 66.152 32.3594 65.965 32.3594H57.3392C57.16 32.3594 56.9881 32.4306 56.8614 32.5573C56.7347 32.684 56.6635 32.8558 56.6635 33.035V35.062C56.6782 35.439 56.7753 35.8082 56.9481 36.1437C57.1208 36.4791 57.365 36.7725 57.6635 37.0034C58.4878 37.625 59.2648 37.7489 60.571 37.7398H63.5169C63.7266 37.7416 63.9329 37.7934 64.1186 37.8909C64.3043 37.9885 64.464 38.1289 64.5844 38.3006C64.6687 38.4454 64.699 38.6154 64.67 38.7804C64.6227 39.0461 64.3863 39.0506 64.1971 39.0506H56.9112C56.8777 39.0503 56.8445 39.0567 56.8135 39.0694C56.7825 39.0821 56.7543 39.1008 56.7306 39.1245C56.7069 39.1482 56.6882 39.1764 56.6755 39.2074C56.6628 39.2384 56.6564 39.2716 56.6567 39.3051V40.3862C56.6567 40.5738 56.7303 40.7539 56.8617 40.8879C56.9931 41.0218 57.1718 41.0988 57.3594 41.1024L65.9876 41.1069Z" fill="#283575"/>
<path d="M32.4636 39.2488C32.3979 39.181 32.3191 39.1273 32.232 39.0909C32.1449 39.0545 32.0513 39.0362 31.9569 39.0371H26.7543V34.3999H31.9614C32.1464 34.3996 32.3239 34.3259 32.4546 34.1949L34.2744 32.3796H25.2409C25.1045 32.3796 24.9736 32.4337 24.877 32.5299C24.7803 32.6261 24.7257 32.7567 24.7251 32.8931V40.6001C24.7257 40.7365 24.7803 40.8671 24.877 40.9634C24.9736 41.0596 25.1045 41.1136 25.2409 41.1136H34.3329L32.4636 39.2488Z" fill="#283575"/>
</svg>
