<svg width="332" height="202" viewBox="0 0 332 202" fill="none" xmlns="http://www.w3.org/2000/svg">
<path fill-rule="evenodd" clip-rule="evenodd" d="M166.044 1.51562C126.207 1.51562 93.7422 34.0013 93.7422 73.7907C93.7422 113.58 126.207 146.066 166.044 146.066C205.881 146.066 238.319 113.58 238.319 73.7907C238.319 34.0013 205.823 1.51562 166.044 1.51562Z" fill="#D13238"/>
<path fill-rule="evenodd" clip-rule="evenodd" d="M178.403 27.2852C183.166 20.6748 190.269 15.9644 203.114 13.7892C203.108 13.7595 203.108 13.729 203.114 13.6992C123.752 22.2467 157.709 79.9673 158.074 80.6976C157.735 80.2425 140.947 60.5859 111.277 63.4069C138.269 69.7579 170.697 98.2689 135.549 95.3421C149.707 103.069 171.538 110.055 180.536 106.457C205.347 95.9402 160.016 52.9223 178.419 27.2905" fill="#FFF200"/>
<path fill-rule="evenodd" clip-rule="evenodd" d="M142.604 115.021L142.831 120.684L148.124 122.954L142.752 124.965L142.255 130.623L138.698 126.172L133.13 127.479L136.247 122.684L133.347 117.805L138.82 119.329L142.604 115.021ZM207.522 105.955L209.253 111.416L205.13 115.306L210.883 115.359L213.291 120.498L215.128 115.021L220.77 114.343L216.112 110.866L217.171 105.33L212.487 108.664L207.522 105.955ZM189.147 115.412L188.797 121.081L183.542 123.282L188.834 125.357L189.263 131.02L192.878 126.606L198.419 127.966L195.355 123.134L198.319 118.291L192.814 119.752L189.147 115.412ZM166.299 118.789L164.039 123.992L158.344 124.272L162.615 128.024L161.091 133.497L165.992 130.586L170.755 133.762L169.527 128.173L173.962 124.627L168.299 124.129L166.299 118.789ZM114.86 105.293L115.919 110.924L111.367 114.29L117.073 115.015L118.861 120.403L121.328 115.179H127.007L122.773 111.189L124.466 105.812L119.465 108.553L114.86 105.293Z" fill="#FFF200"/>
<path fill-rule="evenodd" clip-rule="evenodd" d="M2.5 146.5C6.53293 155.227 8.1842 163.563 11.545 172.995C12.7728 176.445 19.6161 197.716 19.7855 200.024H39.7755C41.3632 192.085 46.3223 181.034 48.7728 172.725C51.2762 164.331 54.8804 153.084 58.7334 146.5H47.5714V150.379C47.5714 156.228 37.3356 180.394 35.7108 188.385H35.0333C34.8587 186.014 30.2965 172.471 29.3174 169.332C28.1742 165.627 23.8502 153.518 23.8502 149.993V149.22C23.8502 147.881 24.0989 147.717 24.1889 146.505L2.5 146.5Z" fill="#D13238"/>
<path fill-rule="evenodd" clip-rule="evenodd" d="M293.245 169.407V195.997C293.227 197.54 292.746 199.043 291.863 200.31H307.741C306.984 198.818 306.36 197.584 306.36 195.277V187.375H321.56C325.794 187.375 329.499 185.486 329.499 181.267V170.846C329.499 166.485 325.122 164.379 320.861 164.379H291.863C292.334 166.205 293.245 166.321 293.245 169.407V169.407ZM314.32 181.627H306.381V170.487H313.981C315.597 170.487 316.403 171.325 316.4 173V177.314C316.4 179.161 316.008 181.627 314.325 181.627" fill="#8C2332"/>
<path fill-rule="evenodd" clip-rule="evenodd" d="M123.172 172.641V192.403C123.172 197.817 125.67 200.31 130.772 200.31H143.554C147.719 200.31 146.729 198.548 148.74 197.796V199.23C148.74 201.146 158.299 200.289 160.484 200.289C159.749 199.146 159.103 198.283 159.103 196.335V183.051C159.103 181.066 159.791 180.648 160.162 179.097H138.721V185.565C139.562 185.085 140.516 184.838 141.484 184.85H145.972V192.752C145.972 193.911 144.723 194.552 143.554 194.552H139.05C136.991 194.552 136.287 193.102 136.287 190.958V173.36C136.287 172.048 137.239 170.487 138.356 170.487H154.234C155.875 170.487 156.727 170.889 158.034 171.206C158.034 169.523 157.812 164.379 156.309 164.379H131.809C126.3 164.379 123.172 166.75 123.172 172.641" fill="#8C2332"/>
<path fill-rule="evenodd" clip-rule="evenodd" d="M247.785 164.379C252.443 173.599 243.503 200.31 256.782 200.31H278.191C280.768 200.31 283.573 197.452 284.542 195.409C285.907 192.504 285.452 189.275 285.452 185.216V174.101C285.452 172.318 285.336 170.074 285.452 168.348C285.59 166.2 286.458 165.887 286.839 164.4H278.191C278.662 166.226 279.572 166.342 279.572 169.428V192.424C279.572 193.589 278.074 194.584 276.81 194.584H267.812L263.324 194.165C262.795 193.446 262.266 193.027 262.266 191.71V170.487C262.266 167.083 263.086 166.565 263.647 164.379H247.785Z" fill="#8C2332"/>
<path fill-rule="evenodd" clip-rule="evenodd" d="M163.828 164.379C164.58 165.866 165.209 167.142 165.209 169.407V194.562C165.209 197.034 164.781 198.828 163.828 200.31H179.706C178.949 198.818 178.324 197.584 178.324 195.277V185.221H181.78C182.897 185.221 184.861 191.265 185.379 192.631C186.232 194.88 187.888 198.288 188.343 200.326H203.565L196.256 185.258C199.96 185.232 201.49 183.459 201.49 179.844V171.937C201.49 166.798 197.547 164.389 192.493 164.389L163.828 164.379ZM178.34 170.487H186.628C187.078 170.546 187.494 170.756 187.809 171.083C188.123 171.41 188.317 171.834 188.359 172.286V176.954C188.359 177.928 188.195 177.944 188.015 178.748C187.237 178.939 187.221 179.108 186.284 179.108H178.346L178.34 170.487Z" fill="#8C2332"/>
<path fill-rule="evenodd" clip-rule="evenodd" d="M205.633 190.99C205.633 196.452 208.602 200.331 213.926 200.331H236.039C239.77 200.331 243.295 196.251 243.295 192.07V176.234C243.295 169.354 241.13 164.379 234.652 164.379H216.345C208.893 164.379 205.633 167.369 205.633 175.16V190.99ZM218.764 172.662C218.764 171.19 220.664 170.508 222.214 170.508H226.708C228.767 170.508 230.164 171.238 230.164 173.382V191.704C230.164 193.027 229.635 193.446 229.105 194.224L224.622 194.663L224.268 194.584L219.785 194.165C219.256 193.446 218.727 193.027 218.727 191.704L218.764 172.662Z" fill="#8C2332"/>
<path fill-rule="evenodd" clip-rule="evenodd" d="M59.3203 164.379C60.0771 165.871 60.7017 167.105 60.7017 169.407V196.357C60.7017 198.341 60.0136 198.759 59.6432 200.31H75.1927C74.6634 199.252 73.8113 197.235 73.8113 195.637V169.052C73.8113 166.739 74.7905 166.189 75.1927 164.379H59.3203Z" fill="#D13238"/>
<path fill-rule="evenodd" clip-rule="evenodd" d="M79.3555 164.379C79.8847 165.22 81.0861 167.75 81.0861 169.052V194.922C81.0861 197.807 80.1811 198.442 79.6995 200.31H87.9929C85.1773 194.779 86.6116 179.791 86.6116 171.566C89.2049 174.668 99.0385 200.31 101.124 200.31H117.001V169.767C117.115 167.854 117.708 166.001 118.727 164.379H110.105C110.767 166.951 111.513 166.438 111.492 170.487C111.492 173 111.492 175.52 111.492 178.034V192.763L98.1811 164.469L79.3555 164.379Z" fill="#D13238"/>
</svg>
