<svg width="68" height="35" viewBox="0 0 68 35" fill="none" xmlns="http://www.w3.org/2000/svg">
<g clip-path="url(#clip0_9885_80518)">
<path d="M65.3176 24.5072L64.9895 24.2872C63.8516 23.5222 63.5381 23.1371 63.5381 22.4992C63.5381 21.691 64.3108 21.4029 64.9723 21.4029C66.0652 21.4029 66.3695 21.881 66.3801 21.8967C66.4383 22.0002 66.5256 22.2844 66.5389 22.4088C66.5508 22.4874 66.5719 22.6354 66.7427 22.6354C66.9332 22.6354 66.9332 22.4285 66.9332 22.2909C66.9332 21.7002 66.9649 21.3531 66.9795 21.2063C66.9834 21.1632 66.9861 21.1356 66.9861 21.1238C66.9861 20.9483 66.8287 20.9483 66.7691 20.9483C66.6804 20.9483 66.5971 20.9483 66.3854 20.8998C66.1129 20.8357 65.6497 20.7676 65.1695 20.7676C63.5566 20.7676 62.5153 21.6203 62.5153 22.9406C62.5153 23.7842 63.0062 24.4915 64.2062 25.3797L64.7315 25.77C65.7583 26.5245 66.1459 26.8794 66.1459 27.6117C66.1459 28.4552 65.5214 28.9792 64.5145 28.9792C63.7921 28.9792 62.9599 28.712 62.7891 27.9628C62.7521 27.8187 62.7521 27.6719 62.7521 27.5842C62.7521 27.4165 62.6462 27.3575 62.5484 27.3575C62.4782 27.3575 62.3592 27.3943 62.3592 27.63C62.3565 27.6667 62.3525 27.7138 62.3473 27.7715C62.3274 27.9942 62.293 28.3675 62.293 28.805C62.293 29.1023 62.3036 29.2019 62.5206 29.3093C63.1133 29.5857 63.9205 29.6171 64.2406 29.6171C65.0755 29.6171 65.7106 29.4809 66.1287 29.211C66.871 28.7317 67.2481 28.0714 67.2481 27.2475C67.2481 26.2284 66.6897 25.4346 65.3176 24.5072Z" fill="#0C1C56"/>
<path d="M11.3863 19.0469C11.1124 19.0469 10.7592 19.0652 10.525 19.0783C10.4244 19.0835 10.3517 19.0875 10.3265 19.0875C10.2696 19.0875 10.1559 19.0822 10.0076 19.0757C9.72977 19.0626 9.34738 19.0469 8.99544 19.0469C8.85387 19.0469 8.5906 19.0469 8.5906 19.259C8.5906 19.3285 8.62497 19.4438 8.84595 19.4438C8.98884 19.4438 9.18204 19.4438 9.31567 19.4857C9.41753 19.5368 9.43338 19.6428 9.43338 19.7018C9.43338 19.8197 9.36723 20.0319 9.31701 20.1838C9.04047 21.0785 7.36009 25.4299 6.51462 27.404L3.99542 20.755C3.81018 20.2808 3.63552 19.8328 3.63552 19.6756C3.63552 19.6022 3.65537 19.5433 3.74931 19.5014C3.84722 19.4582 4.06554 19.4438 4.22299 19.4438C4.43998 19.4438 4.4638 19.3049 4.4638 19.2447C4.4638 19.0469 4.16874 19.0469 3.99145 19.0469C3.64875 19.0469 3.25976 19.0652 3.00308 19.077C2.87209 19.0822 2.77285 19.0875 2.72786 19.0875C2.67362 19.0875 2.55189 19.0822 2.3918 19.077C2.06631 19.0652 1.57411 19.0469 1.13749 19.0469C0.944311 19.0469 0.679688 19.0469 0.679688 19.2447C0.679688 19.3652 0.763044 19.4438 0.892709 19.4438C0.966803 19.4438 1.19173 19.4438 1.38094 19.4936C1.80963 19.6153 1.99883 19.7319 2.28992 20.4681L5.62019 28.7177L5.65725 28.8108C5.90467 29.4303 5.98009 29.619 6.20633 29.619C6.37702 29.619 6.4392 29.4814 6.64693 29.0243C6.7078 28.892 6.78057 28.7322 6.87186 28.5356C7.17618 27.8952 7.75306 26.5276 8.55223 24.6335L9.17278 23.152C9.65836 21.9941 10.0407 21.0798 10.1505 20.8047C10.5065 19.9166 10.7023 19.6953 10.8584 19.5891C11.09 19.4438 11.3639 19.4438 11.4538 19.4438C11.6867 19.4438 11.7211 19.3193 11.7211 19.2447C11.7224 19.1137 11.6099 19.0469 11.3863 19.0469Z" fill="#C4842A"/>
<path d="M14.3225 29.0514C14.2272 29.0514 13.9877 29.0278 13.809 29.0004C13.5523 28.961 13.5153 28.8392 13.4743 28.5026C13.4227 28.0507 13.4227 27.1966 13.4227 26.1133V24.1577C13.4227 22.4352 13.4227 22.1248 13.4346 21.779C13.4611 21.4004 13.5193 21.3074 13.7614 21.2576C13.8832 21.2327 13.9546 21.2327 14.0313 21.2327C14.1279 21.2327 14.2259 21.1358 14.2259 21.0402C14.2259 20.9118 14.1293 20.8477 13.9401 20.8477C13.6821 20.8477 13.2177 20.8607 12.9597 20.8686C12.8617 20.8712 12.7956 20.8738 12.781 20.8738C12.7625 20.8738 12.687 20.8712 12.5812 20.8686C12.3219 20.8607 11.8786 20.8477 11.6074 20.8477C11.4182 20.8477 11.3203 20.9118 11.3203 21.0402C11.3203 21.1306 11.3996 21.2327 11.5134 21.2327C11.5863 21.2327 11.7251 21.2458 11.8482 21.2707C12.0175 21.3061 12.1089 21.3938 12.1366 21.779C12.1618 22.1274 12.1618 22.4378 12.1618 24.1577V26.1133C12.1618 27.0198 12.1538 28.0101 12.0969 28.5026C12.0559 28.8471 12.0175 28.9676 11.8707 29.003C11.7741 29.0278 11.6365 29.0527 11.54 29.0527C11.4182 29.0527 11.3454 29.151 11.3454 29.2453C11.3454 29.3173 11.3825 29.4379 11.6326 29.4379C11.8839 29.4379 12.3153 29.4182 12.5733 29.4064C12.6818 29.4012 12.7599 29.3985 12.7784 29.3985C12.7902 29.3985 12.8339 29.4012 12.9028 29.4038C13.1488 29.4142 13.723 29.4391 14.2285 29.4391C14.4931 29.4391 14.5143 29.2911 14.5143 29.2466C14.5156 29.1496 14.4442 29.0514 14.3225 29.0514Z" fill="#C4842A"/>
<path d="M24.1153 20.8479C23.803 20.8479 23.5304 20.8597 23.3426 20.8675C23.246 20.8714 23.1719 20.8754 23.1268 20.8754C23.0832 20.8754 22.9945 20.8728 22.8755 20.8688C22.632 20.861 22.2681 20.8492 21.9149 20.8492C21.817 20.8492 21.5894 20.8492 21.5894 21.0286C21.5894 21.1518 21.6674 21.2343 21.7839 21.2343C21.8699 21.2343 22.1266 21.2474 22.3317 21.2854C22.587 21.3326 22.669 21.4661 22.6836 22.218L22.7974 27.5138C22.6783 27.3895 22.5275 27.2309 22.3515 27.0463C21.78 26.4451 20.9967 25.6224 20.2372 24.8443C19.0199 23.6039 17.8609 22.3988 17.1689 21.6784C16.846 21.343 16.6317 21.1203 16.5735 21.0614L16.5193 21.0077C16.3446 20.8296 16.1977 20.6934 16.0535 20.6934C15.814 20.6934 15.7942 21.0339 15.7942 21.3548V27.7065C15.7942 28.6967 15.7466 28.9351 15.5362 28.9927C15.3774 29.0412 15.1776 29.053 15.0929 29.053C14.9844 29.053 14.8984 29.1382 14.8984 29.2456C14.8984 29.4381 15.1062 29.4381 15.1842 29.4381C15.5507 29.4381 15.9026 29.4185 16.113 29.4067C16.2057 29.4014 16.2718 29.3988 16.3049 29.3988C16.334 29.3988 16.3909 29.4028 16.4716 29.4067C16.6899 29.4185 17.0551 29.4381 17.5288 29.4381C17.7868 29.4381 17.8424 29.3333 17.8424 29.2456C17.8424 29.1382 17.7564 29.053 17.6478 29.053C17.5261 29.053 17.2787 29.036 17.0948 28.9914C16.8593 28.9325 16.7508 28.7504 16.723 27.8204L16.5986 22.8599C17.0895 23.3851 18.1718 24.5104 19.4195 25.8058C20.6315 27.058 22.3092 28.6967 22.4401 28.8107C23.1282 29.4368 23.2354 29.5154 23.3915 29.5154C23.586 29.5154 23.586 29.3608 23.586 28.6195L23.6124 22.1237C23.6124 21.4295 23.6561 21.3155 23.9393 21.2579C24.061 21.233 24.1456 21.233 24.1973 21.233C24.3309 21.233 24.4302 21.1256 24.4302 21.0273C24.4275 20.8479 24.2013 20.8479 24.1153 20.8479Z" fill="#C4842A"/>
<path d="M35.0701 29.0514C34.9881 29.0514 34.7328 29.0265 34.5714 29.0004C34.3054 28.961 34.2789 28.8484 34.2366 28.5026C34.1784 28.0062 34.1704 27.0159 34.1704 26.1133V24.1577C34.1704 22.4378 34.1704 22.1274 34.1969 21.7776C34.2233 21.3991 34.2789 21.306 34.5091 21.2576C34.6441 21.2327 34.705 21.2327 34.7804 21.2327C34.8863 21.2327 34.9868 21.1397 34.9868 21.0402C34.9868 20.9524 34.9352 20.8477 34.6865 20.8477C34.447 20.8477 34.0156 20.8607 33.7537 20.8686C33.6412 20.8725 33.5605 20.8751 33.5406 20.8751C33.5287 20.8751 33.4758 20.8738 33.3964 20.8712C33.1424 20.8634 32.6144 20.8489 32.2241 20.8489C32.0336 20.8489 31.9383 20.9131 31.9383 21.0415C31.9383 21.1319 32.0177 21.234 32.1329 21.234C32.2307 21.234 32.4226 21.2472 32.5139 21.2589C32.8129 21.3009 32.8605 21.4017 32.8857 21.7907C32.8989 22.1339 32.9122 22.4889 32.9122 24.1852V24.3843H28.1503V24.1865C28.1503 22.4811 28.1503 22.1273 28.1635 21.7802C28.1887 21.403 28.2468 21.3101 28.4903 21.2589C28.6107 21.234 28.6835 21.234 28.7602 21.234C28.8568 21.234 28.9534 21.1372 28.9534 21.0415C28.9534 20.9131 28.8568 20.8489 28.6676 20.8489C28.4096 20.8489 27.9518 20.862 27.6977 20.8699C27.6025 20.8725 27.5363 20.8751 27.5217 20.8751C27.5046 20.8751 27.4437 20.8738 27.3524 20.8699C27.0878 20.862 26.5824 20.8477 26.192 20.8477C26.0028 20.8477 25.9062 20.9118 25.9062 21.0402C25.9062 21.1358 26.0055 21.2327 26.1008 21.2327C26.1986 21.2327 26.3892 21.2458 26.4818 21.2576C26.7901 21.3009 26.843 21.4135 26.8681 21.779C26.8946 22.1274 26.8946 22.4365 26.8946 24.1577V26.1133C26.8946 27.1953 26.8946 28.0493 26.8284 28.4986L26.8232 28.5301C26.7702 28.8602 26.7411 28.9689 26.6022 29.0016C26.5056 29.0265 26.3681 29.0514 26.2715 29.0514C26.1497 29.0514 26.0769 29.1497 26.0769 29.244C26.0769 29.316 26.114 29.4365 26.3641 29.4365C26.6155 29.4365 27.0534 29.4169 27.314 29.4051C27.4239 29.3999 27.5032 29.3972 27.5217 29.3972C27.5337 29.3972 27.576 29.3999 27.6449 29.4025C27.8883 29.413 28.4533 29.4379 28.9587 29.4379C29.2233 29.4379 29.2445 29.2899 29.2445 29.2453C29.2445 29.1523 29.177 29.0527 29.0513 29.0527C28.956 29.0527 28.7179 29.0292 28.5393 29.0016C28.2826 28.9624 28.2442 28.8406 28.2032 28.5039C28.1503 28.052 28.1503 27.2084 28.1503 26.1409V25.0681H32.9122V26.1409C32.9122 27.2019 32.9122 28.0389 32.8592 28.4895C32.8169 28.8392 32.7759 28.9689 32.6184 29.003C32.4887 29.0357 32.3789 29.0527 32.3009 29.0527C32.1792 29.0527 32.1077 29.151 32.1077 29.2453C32.1077 29.3724 32.2043 29.4379 32.3935 29.4379C32.6422 29.4379 33.1093 29.4169 33.3594 29.4064C33.4573 29.4025 33.526 29.3985 33.5406 29.3985C33.5565 29.3985 33.6107 29.4012 33.6928 29.4038C33.9535 29.4142 34.4959 29.4379 34.9762 29.4379C35.262 29.4379 35.2766 29.2781 35.2766 29.2453C35.2779 29.1484 35.2064 29.0514 35.0701 29.0514Z" fill="#0C1C56"/>
<path d="M40.0044 20.6914C36.7628 20.6914 35.3047 23.2824 35.3047 25.1227C35.3047 27.2697 36.7548 29.5803 39.9383 29.5803C42.6466 29.5803 44.6895 27.5906 44.6895 24.9525C44.6895 22.4035 42.8068 20.6914 40.0044 20.6914ZM40.2663 28.9201C38.1375 28.9201 36.7072 27.2723 36.7072 24.8215C36.7072 22.6235 37.9152 21.3097 39.9383 21.3097C41.612 21.3097 43.3016 22.5331 43.3016 25.2642C43.3003 28.7446 40.7731 28.9201 40.2663 28.9201Z" fill="#0C1C56"/>
<path d="M55.9159 29.0511C55.8048 29.0511 55.5097 29.0511 55.1975 28.9515C54.8191 28.8271 54.7225 28.3673 54.6749 27.8892L53.8836 21.0805C53.8426 20.7596 53.713 20.6914 53.611 20.6914C53.4563 20.6914 53.3782 20.846 53.3345 20.9311L50.0519 27.6207L46.6409 20.9168C46.543 20.7202 46.3922 20.6914 46.3127 20.6914C46.191 20.6914 46.0998 20.8041 46.0799 20.977L45.2371 28.2141L45.2239 28.3215C45.1749 28.721 45.1339 28.9686 44.8745 29.0132L44.8415 29.0183C44.6986 29.0406 44.6258 29.0511 44.549 29.0511C44.4273 29.0511 44.3281 29.131 44.3281 29.2306C44.3281 29.3065 44.3665 29.4362 44.6284 29.4362C44.8309 29.4362 45.1286 29.4205 45.3456 29.4087C45.4673 29.4021 45.5639 29.397 45.6009 29.397C45.63 29.397 45.7041 29.4009 45.8047 29.4061C46.0349 29.4179 46.3829 29.4362 46.6832 29.4362C46.9426 29.4362 46.9969 29.3249 46.9969 29.2306C46.9969 29.1297 46.8923 29.0511 46.8023 29.0511C46.7163 29.0511 46.5549 29.0341 46.3776 28.9883C46.1791 28.9424 46.1791 28.8153 46.1791 28.7734C46.1791 28.5914 46.1791 28.3857 46.191 28.2219L46.6131 23.5011C46.8261 23.9517 47.2204 24.7495 47.5498 25.4149C47.7193 25.7594 47.8714 26.0672 47.9733 26.2741C48.2723 26.8937 49.0556 28.3477 49.3322 28.8481C49.5584 29.2555 49.6431 29.4087 49.8177 29.4087C49.9923 29.4087 50.0717 29.2646 50.3178 28.7643L52.9733 23.3793L53.4973 28.6804C53.5184 28.8481 53.5065 28.9372 53.4959 28.9686C53.4152 28.9974 53.3636 29.0695 53.3636 29.1506C53.3636 29.3144 53.5621 29.3472 53.7844 29.3681C54.2144 29.4074 55.5137 29.4336 55.7704 29.4336C55.9768 29.4336 56.1104 29.3524 56.1104 29.228C56.1104 29.1271 56.0284 29.0511 55.9159 29.0511Z" fill="#0C1C56"/>
<path d="M61.7319 27.733C61.5625 27.733 61.5308 27.8902 61.5109 27.9884C61.4461 28.4272 61.2899 28.5739 61.0492 28.6787C60.7634 28.7901 60.2183 28.7901 59.9259 28.7901C58.7814 28.7901 58.6689 28.6499 58.6451 27.9976C58.6358 27.8404 58.6398 27.1265 58.6424 26.6039C58.6437 26.3982 58.6451 26.2188 58.6451 26.1127L58.6464 25.2101C58.9203 25.2114 60.0661 25.2246 60.3625 25.2612C60.8163 25.3136 60.8481 25.4459 60.8706 25.5363C60.9182 25.6621 60.9181 25.7655 60.9181 25.8664C60.9181 26.0079 61.0095 26.0707 61.0994 26.0707C61.2251 26.0707 61.3059 25.9489 61.3059 25.7616C61.3059 25.6935 61.3323 25.2796 61.3574 25.0503C61.3747 24.8159 61.4077 24.6626 61.4289 24.5604C61.4421 24.5015 61.4501 24.4635 61.4501 24.4307C61.4501 24.288 61.3588 24.2382 61.2807 24.2382C61.2066 24.2382 61.155 24.2919 61.0836 24.3653L61.0386 24.4111C60.9486 24.4989 60.8031 24.5133 60.5609 24.5368L60.5332 24.5395C60.3453 24.5578 59.4429 24.5656 58.6424 24.5656C58.6424 24.5604 58.6424 24.5552 58.6424 24.5499V21.5372C58.6424 21.5307 58.6424 21.5254 58.6437 21.5202C58.9203 21.5215 60.0939 21.5359 60.2672 21.5581C60.8996 21.6367 60.9618 21.7114 61.0161 21.8345C61.061 21.9472 61.0743 22.1148 61.0743 22.1883C61.0743 22.4149 61.2225 22.4332 61.2688 22.4332C61.376 22.4332 61.4501 22.3323 61.4725 22.2354C61.4898 22.1516 61.5057 21.959 61.5228 21.7167C61.5294 21.6171 61.5361 21.532 61.5414 21.4914C61.5572 21.3067 61.5863 21.1914 61.6075 21.1063C61.6221 21.0473 61.6327 21.0041 61.6327 20.9622C61.6327 20.767 61.5043 20.7578 61.4792 20.7578C61.4249 20.7578 61.3786 20.7788 61.3416 20.7946C61.3257 20.8011 61.3111 20.8089 61.3072 20.8103L61.2357 20.822C61.1273 20.8391 60.9632 20.8652 60.7912 20.8744C60.7144 20.8783 60.4419 20.8809 59.9788 20.8809C59.341 20.8809 58.518 20.8771 58.182 20.8757H58.0299C58.0126 20.8757 57.9491 20.8744 57.8538 20.8705C57.5852 20.8626 57.0745 20.8482 56.6856 20.8482C56.495 20.8482 56.3984 20.9124 56.3984 21.0408C56.3984 21.1364 56.4964 21.2333 56.5929 21.2333C56.6974 21.2333 56.8906 21.2464 56.9753 21.2582C57.2823 21.3001 57.3352 21.4128 57.3617 21.7796C57.3881 22.128 57.3881 22.4384 57.3881 24.1583V26.1139C57.3881 27.1959 57.3881 28.05 57.3233 28.4992L57.318 28.5333C57.2664 28.8608 57.236 28.9773 57.1089 28.9996C57.0666 29.0048 57.019 29.014 56.9714 29.0232C56.8972 29.0376 56.8205 29.052 56.7649 29.052C56.6432 29.052 56.5718 29.1502 56.5718 29.2446C56.5718 29.3166 56.6088 29.4371 56.8576 29.4371C57.0547 29.4371 57.3378 29.4214 57.535 29.4109C57.7837 29.3978 58.0047 29.3978 58.0311 29.3978C58.1952 29.3978 58.5022 29.3978 58.9891 29.424L59.2749 29.4319C59.7313 29.4463 60.2977 29.4633 61.0068 29.4633C61.4633 29.4633 61.6512 29.4633 61.7517 29.1018C61.8192 28.8542 61.9132 28.0919 61.9132 28.0054C61.9132 27.7591 61.7861 27.733 61.7319 27.733Z" fill="#0C1C56"/>
<path d="M24.4254 33.0098H0.695312V33.315H24.4254V33.0098Z" fill="#C4842A"/>
<path d="M26.0898 34.0879V32.2305H26.1295L27.3785 33.6543V32.2305H27.5638V34.0879H27.5214L26.2843 32.6824V34.0879H26.0898Z" fill="#C4842A"/>
<path d="M30.8011 32.2305H30.6133V34.0879H30.8011V32.2305Z" fill="#C4842A"/>
<path d="M32.3203 32.2305H32.5056V33.0098H33.4636V32.2305H33.6501V34.0879H33.4636V33.1893H32.5056V34.0879H32.3203V32.2305Z" fill="#C4842A"/>
<path d="M35.1502 32.2305L36.0261 34.0879H35.8224L35.5273 33.4762H34.7189L34.4265 34.0879H34.2188L35.1039 32.2305H35.1502ZM35.1278 32.626L34.8075 33.298H35.4466L35.1278 32.626Z" fill="#C4842A"/>
<path d="M36.5977 34.0879V32.2305H36.6386L37.8851 33.6543V32.2305H38.0676V34.0879H38.028L36.7895 32.6824V34.0879H36.5977Z" fill="#C4842A"/>
<path d="M38.6797 32.2305H38.8675V33.0098H39.8215V32.2305H40.0095V34.0879H39.8215V33.1893H38.8675V34.0879H38.6797V32.2305Z" fill="#C4842A"/>
<path d="M41.556 32.2305H41.9305C42.1435 32.2305 42.2864 32.2397 42.3618 32.258C42.469 32.2855 42.5563 32.3392 42.6251 32.4191C42.6926 32.499 42.727 32.6025 42.727 32.7243C42.727 32.8487 42.6926 32.9509 42.6264 33.0308C42.5603 33.1094 42.4703 33.1657 42.3539 33.1919C42.2679 33.2129 42.1104 33.2221 41.8763 33.2221H41.7426V34.0852H41.5547V32.2305H41.556ZM41.744 32.4151V33.0426L42.0615 33.0478C42.1898 33.0478 42.2824 33.0347 42.3433 33.0124C42.4028 32.9889 42.4491 32.9522 42.4835 32.8998C42.5166 32.8487 42.5338 32.7898 42.5338 32.7269C42.5338 32.664 42.5166 32.609 42.4835 32.5566C42.4491 32.5043 42.4041 32.4676 42.3499 32.4466C42.2917 32.4257 42.2018 32.4151 42.0747 32.4151H41.744Z" fill="#C4842A"/>
<path d="M43.3086 32.2305H43.4965V33.0098H44.4504V32.2305H44.637V34.0879H44.4504V33.1893H43.4965V34.0879H43.3086V32.2305Z" fill="#C4842A"/>
<path d="M45.2279 32.2305H45.4158V33.3504C45.4158 33.484 45.4184 33.5679 45.4224 33.5993C45.4317 33.6739 45.4542 33.7355 45.4872 33.784C45.5217 33.8325 45.5746 33.8744 45.6447 33.9084C45.7161 33.9411 45.7863 33.9582 45.8577 33.9582C45.9186 33.9582 45.9807 33.9451 46.035 33.9189C46.0932 33.8901 46.1396 33.856 46.1792 33.8089C46.2163 33.7617 46.2441 33.7067 46.2626 33.6412C46.2745 33.5941 46.2825 33.4971 46.2825 33.3504V32.2305H46.4677V33.3504C46.4677 33.5181 46.4518 33.6504 46.4187 33.7551C46.3857 33.8547 46.3221 33.9438 46.2242 34.0211C46.125 34.0957 46.0059 34.1363 45.867 34.1363C45.7161 34.1363 45.5852 34.0983 45.478 34.0263C45.3721 33.9556 45.298 33.8613 45.261 33.7421C45.2385 33.67 45.2266 33.5404 45.2266 33.3504V32.2305H45.2279Z" fill="#C4842A"/>
<path d="M48.8808 32.5766L48.7313 32.6878C48.6506 32.5831 48.5513 32.5019 48.4376 32.4482C48.3238 32.3945 48.1981 32.3669 48.0618 32.3669C47.9109 32.3669 47.772 32.4036 47.645 32.4757C47.5193 32.5451 47.4188 32.6407 47.3486 32.7613C47.2785 32.8804 47.2428 33.0167 47.2428 33.1647C47.2428 33.3913 47.3208 33.5812 47.4783 33.7318C47.6344 33.8838 47.8329 33.9598 48.0724 33.9598C48.333 33.9598 48.5527 33.8563 48.7286 33.6533L48.8782 33.7633C48.7855 33.8812 48.6665 33.9742 48.5275 34.0371C48.3899 34.1012 48.2338 34.1353 48.0604 34.1353C47.731 34.1353 47.4717 34.0252 47.2838 33.8092C47.1237 33.6257 47.043 33.407 47.043 33.1476C47.043 32.8752 47.1396 32.646 47.3341 32.4626C47.5272 32.2766 47.7667 32.1836 48.0565 32.1836C48.2338 32.1836 48.3899 32.2177 48.5302 32.2857C48.6744 32.3565 48.7908 32.4508 48.8808 32.5766Z" fill="#C4842A"/>
<path d="M50.3867 34.0879V32.2305H50.4278L51.6741 33.6543V32.2305H51.8594V34.0879H51.817L50.5786 32.6824V34.0879H50.3867Z" fill="#C4842A"/>
<path d="M54.3334 32.5425L54.1866 32.6813C54.0821 32.5778 53.967 32.4992 53.8426 32.4469C53.7169 32.3958 53.5965 32.3683 53.4787 32.3683C53.3319 32.3683 53.1929 32.4049 53.058 32.477C52.9257 32.5477 52.8225 32.646 52.7497 32.7678C52.6769 32.8883 52.6412 33.018 52.6412 33.1555C52.6412 33.2956 52.6796 33.4266 52.755 33.5524C52.8291 33.6781 52.9336 33.7777 53.0672 33.8484C53.1995 33.9205 53.3464 33.9572 53.5052 33.9572C53.6984 33.9572 53.8598 33.9021 53.9934 33.7947C54.127 33.6873 54.2078 33.5471 54.2316 33.3769H53.6322V33.1974H54.4393C54.4379 33.4843 54.3533 33.7122 54.1813 33.8799C54.0106 34.0489 53.783 34.134 53.4986 34.134C53.1519 34.134 52.8767 34.0161 52.673 33.7816C52.5195 33.6008 52.4414 33.3926 52.4414 33.1568C52.4414 32.9813 52.4864 32.8176 52.575 32.667C52.6663 32.5149 52.7881 32.3971 52.9428 32.3106C53.0977 32.2268 53.2737 32.1836 53.4695 32.1836C53.6282 32.1836 53.7778 32.2124 53.918 32.2687C54.0622 32.3277 54.1985 32.4181 54.3334 32.5425Z" fill="#C4842A"/>
<path d="M55.9744 32.2305L56.8491 34.0879H56.6466L56.3529 33.4762H55.5445L55.252 34.0879H55.043L55.9281 32.2305H55.9744ZM55.952 32.626L55.6291 33.298H56.2682L55.952 32.626Z" fill="#C4842A"/>
<path d="M57.3516 32.2305H57.7246C57.9377 32.2305 58.0819 32.2397 58.1573 32.258C58.2645 32.2855 58.3518 32.3392 58.4219 32.4191C58.4881 32.499 58.5238 32.6025 58.5238 32.7243C58.5238 32.8487 58.4907 32.9509 58.4232 33.0308C58.3584 33.1094 58.2671 33.1657 58.1507 33.1919C58.066 33.2129 57.9059 33.2221 57.6744 33.2221H57.5381V34.0852H57.3528V32.2305H57.3516ZM57.5381 32.4151V33.0426L57.8557 33.0478C57.9853 33.0478 58.0792 33.0347 58.1388 33.0124C58.1983 32.9889 58.2446 32.9522 58.2777 32.8998C58.3121 32.8487 58.328 32.7898 58.328 32.7269C58.328 32.664 58.3121 32.609 58.2777 32.5566C58.2446 32.5043 58.2009 32.4676 58.144 32.4466C58.0872 32.4257 57.9986 32.4151 57.8715 32.4151H57.5381Z" fill="#C4842A"/>
<path d="M60.0859 32.4151V32.2305H61.1153V32.4151H60.6972V34.0879H60.5067V32.4151H60.0859Z" fill="#C4842A"/>
<path d="M61.7123 32.2305H62.0893C62.2944 32.2305 62.4373 32.2383 62.5101 32.2567C62.6212 32.2802 62.7112 32.3353 62.7814 32.4191C62.8501 32.5016 62.8872 32.6038 62.8872 32.7256C62.8872 32.8265 62.8634 32.9155 62.8144 32.9902C62.7668 33.0675 62.6967 33.1264 62.608 33.1657C62.5193 33.2037 62.3963 33.2247 62.2389 33.226L62.9137 34.0879H62.6808L62.006 33.226H61.8988V34.0879H61.7109V32.2305H61.7123ZM61.8988 32.4151V33.0426L62.2216 33.0465C62.3487 33.0465 62.4413 33.0334 62.4982 33.0098C62.5591 32.9863 62.6054 32.9496 62.6411 32.8972C62.6742 32.8448 62.6914 32.7872 62.6914 32.7243C62.6914 32.6627 62.6728 32.6051 62.6385 32.5553C62.604 32.5029 62.5577 32.4676 62.5062 32.4466C62.4505 32.4257 62.3579 32.4151 62.2296 32.4151H61.8988Z" fill="#C4842A"/>
<path d="M64.4068 32.2305L65.2813 34.0879H65.0815L64.7851 33.4762H63.9781L63.6856 34.0879H63.4766L64.3631 32.2305H64.4068ZM64.3829 32.626L64.0641 33.298H64.7045L64.3829 32.626Z" fill="#C4842A"/>
<path d="M65.8789 34.0879V32.2305H65.9173L67.1662 33.6543V32.2305H67.3515V34.0879H67.3105L66.0708 32.6824V34.0879H65.8789Z" fill="#C4842A"/>
<path d="M29.8607 32.3254C29.8885 32.2966 29.907 32.264 29.9176 32.222C29.9282 32.1827 29.9321 32.1382 29.9321 32.091H29.7125V31.8945H30.0658V31.943C30.0658 31.96 30.0684 31.9796 30.0738 32.0019C30.0738 32.0491 30.0711 32.0976 30.0658 32.15C30.0658 32.2063 30.0513 32.2587 30.0248 32.3046C29.997 32.3517 29.956 32.3923 29.9057 32.425C29.8912 32.4369 29.8766 32.4473 29.8594 32.4577C29.8422 32.4669 29.8263 32.4735 29.8091 32.48C29.8898 32.5704 29.952 32.6752 29.997 32.7918C30.042 32.9084 30.0658 33.0328 30.0658 33.1625C30.0658 33.4468 29.9718 33.6865 29.7853 33.8855C29.5975 34.0846 29.3712 34.1842 29.1039 34.1842C28.8445 34.1842 28.621 34.0873 28.4304 33.8947C28.2346 33.6943 28.1367 33.4559 28.1367 33.1796C28.1367 32.894 28.2307 32.6529 28.4198 32.4539C28.6064 32.2587 28.8353 32.1578 29.1 32.1578C29.2163 32.1578 29.3302 32.1801 29.4413 32.226C29.5511 32.2705 29.6504 32.3334 29.7364 32.4159C29.7456 32.412 29.7655 32.4001 29.7998 32.3766C29.833 32.3517 29.8541 32.336 29.8607 32.3254ZM29.1092 32.3477C28.8909 32.3464 28.707 32.4277 28.5535 32.5888C28.4013 32.7512 28.3246 32.9464 28.3246 33.1782C28.3246 33.4022 28.4013 33.5948 28.5561 33.752C28.7122 33.9131 28.8962 33.9917 29.1092 33.9917C29.3209 33.9917 29.5035 33.9117 29.6583 33.7506C29.8118 33.5895 29.8885 33.3931 29.8885 33.1612C29.8885 32.9372 29.8091 32.746 29.6517 32.5861C29.4955 32.4289 29.3156 32.3477 29.1092 32.3477Z" fill="#C4842A"/>
<path d="M35.2904 34.1875H35.1211V34.4717H35.2904V34.1875Z" fill="#C4842A"/>
<path d="M45.7617 32.1313L46.1626 31.834L46.3095 31.9571L45.8358 32.1994L45.7617 32.1313Z" fill="#C4842A"/>
<path d="M55.5547 32.2244L55.8868 31.9375H56.0336L56.371 32.2244L56.162 32.227L55.9609 32.062L55.7624 32.2244H55.5547ZM55.8775 34.2089H56.0482V34.4958H55.8775V34.2089Z" fill="#C4842A"/>
<path d="M64.7717 32.1313L64.6976 32.1994L64.2227 31.9571L64.3696 31.834L64.7717 32.1313Z" fill="#C4842A"/>
<path d="M41.8478 0.165374C37.5146 0.685398 33.0848 2.11317 32.791 6.43447C32.6548 8.45559 33.2766 9.97381 33.9779 11.4395C32.2169 9.70528 29.6738 8.31417 26.1094 8.65338C28.2806 9.26904 30.8435 10.4467 32.2208 12.0028C32.5119 12.3342 32.9379 12.9079 32.8374 13.3952C32.6707 14.2165 31.1584 14.0488 30.2428 14.0934C32.1415 14.8544 34.2637 16.2258 36.9708 16.1368C38.3244 16.0935 39.318 15.271 39.2134 13.7449C39.0229 11.0033 37.0052 8.65997 36.7935 5.5621C36.558 2.06733 39.0123 0.784945 41.7631 0.211216C41.8187 0.228245 41.906 0.211222 41.9285 0.192884C41.9471 0.179785 41.9298 0.164062 41.8544 0.164062H41.8478V0.165374Z" fill="url(#paint0_linear_9885_80518)"/>
</g>
<defs>
<linearGradient id="paint0_linear_9885_80518" x1="40.1136" y1="11.2782" x2="33.3051" y2="4.13651" gradientUnits="userSpaceOnUse">
<stop stop-color="#FDB913"/>
<stop offset="0.2233" stop-color="#E5A521"/>
<stop offset="0.5065" stop-color="#CE9130"/>
<stop offset="0.7721" stop-color="#C08538"/>
<stop offset="1" stop-color="#BB813B"/>
</linearGradient>
<clipPath id="clip0_9885_80518">
<rect width="66.67" height="34.8166" fill="white" transform="translate(0.679688 0.164062)"/>
</clipPath>
</defs>
</svg>
