<svg width="12" height="14" viewBox="0 0 12 14" fill="none" xmlns="http://www.w3.org/2000/svg">
<path d="M1.85851 3.51185C1.67826 3.51185 1.50699 3.51185 1.33572 3.51185C1.2798 3.51406 1.22379 3.51175 1.16825 3.50494C1.12161 3.49703 1.07923 3.47302 1.04849 3.43707C1.01775 3.40113 1.00059 3.35552 1.00001 3.30823C0.99944 3.26093 1.01549 3.21493 1.04535 3.17825C1.07521 3.14157 1.117 3.11652 1.16343 3.10749C1.21449 3.09976 1.26616 3.09687 1.31776 3.09886H3.82359C3.82359 2.80501 3.82049 2.52601 3.82359 2.24701C3.82545 1.99097 3.90729 1.74192 4.05768 1.53469C4.20807 1.32747 4.41948 1.17244 4.66233 1.0913C4.797 1.04701 4.93769 1.02372 5.07945 1.02224C5.91507 1.01602 6.75093 1.01602 7.58702 1.02224C8.29764 1.02638 8.83285 1.56574 8.84114 2.27741C8.84424 2.54398 8.84114 2.81054 8.84114 3.09265C8.89742 3.09576 8.94681 3.10059 8.99618 3.10059C9.78024 3.10059 10.5644 3.10059 11.3487 3.10059C11.396 3.09885 11.4433 3.10091 11.4903 3.1068C11.6042 3.12613 11.666 3.19727 11.6629 3.31226C11.6598 3.42724 11.5939 3.50217 11.4803 3.50804C11.2997 3.51702 11.1184 3.51253 10.9374 3.51426C10.8995 3.51426 10.8611 3.51771 10.8049 3.52082V3.68725C10.8049 6.05209 10.8049 8.41728 10.8049 10.7828C10.8049 11.8733 10.0797 12.7579 9.01517 12.9734C8.85866 13.0029 8.69963 13.0169 8.54038 13.0152C7.06711 13.0184 5.59383 13.0184 4.12055 13.0152C2.93687 13.0152 2.03081 12.221 1.87093 11.0494C1.85953 10.9424 1.85538 10.8348 1.85851 10.7272C1.85851 8.37918 1.85851 6.03115 1.85851 3.68312V3.51185ZM10.3933 3.5222H2.27218V3.66032C2.27218 6.03022 2.27218 8.39979 2.27218 10.769C2.27218 11.8142 3.05497 12.5991 4.10226 12.5991C5.58912 12.6018 7.07574 12.6018 8.56213 12.5991C8.6998 12.6002 8.8372 12.5866 8.97201 12.5587C9.81764 12.3719 10.3912 11.6609 10.3919 10.7945C10.394 8.41198 10.394 6.02941 10.3919 3.64685L10.3933 3.5222ZM4.24107 3.0892H8.42885C8.42885 2.82711 8.42885 2.57401 8.42885 2.3209C8.4303 2.26488 8.42811 2.20883 8.42229 2.15309C8.36877 1.75462 8.03038 1.43762 7.63156 1.43486C6.7667 1.42819 5.9015 1.42819 5.03595 1.43486C4.6323 1.43797 4.27629 1.76222 4.24556 2.16449C4.22346 2.46766 4.24107 2.77325 4.24107 3.0892Z" fill="#C74141" stroke="#C74141" stroke-width="0.5"/>
<path d="M4.04448 8.02548V6.28276C4.04448 6.24823 4.04448 6.2137 4.04448 6.17917C4.0507 6.03311 4.12598 5.94609 4.24718 5.94436C4.36838 5.94263 4.45124 6.03172 4.45746 6.18607C4.45746 6.20748 4.45746 6.22924 4.45746 6.25064C4.45746 7.43387 4.45746 8.61732 4.45746 9.801C4.45933 9.84831 4.45597 9.89568 4.44744 9.94224C4.44047 9.98762 4.41683 10.0288 4.38113 10.0576C4.34543 10.0865 4.30025 10.101 4.25443 10.0983C4.20643 10.1025 4.15869 10.0879 4.12113 10.0578C4.08357 10.0276 4.05909 9.98412 4.05278 9.93636C4.0454 9.88967 4.04251 9.84238 4.04414 9.79514C4.04437 9.20491 4.04448 8.61502 4.04448 8.02548Z" fill="#C74141" stroke="#C74141" stroke-width="0.5"/>
<path d="M8.62044 8.03859C8.62044 8.61938 8.62044 9.20028 8.62044 9.78131C8.62178 9.82439 8.6205 9.86752 8.61663 9.91046C8.60178 10.0285 8.52167 10.1018 8.40945 10.0973C8.29723 10.0928 8.22817 10.0282 8.2109 9.91563C8.20734 9.89001 8.20584 9.86415 8.20642 9.83829C8.20642 8.62906 8.20642 7.41982 8.20642 6.21058C8.20584 6.18044 8.20769 6.15029 8.21195 6.12044C8.23094 6.00546 8.3038 5.94469 8.41636 5.94607C8.46464 5.94346 8.51206 5.95966 8.54863 5.99128C8.58521 6.02289 8.6081 6.06747 8.6125 6.11562C8.6186 6.16243 8.6209 6.20966 8.6194 6.25684C8.62032 6.85076 8.62067 7.44468 8.62044 8.03859Z" fill="#C74141" stroke="#C74141" stroke-width="0.5"/>
<path d="M6.12652 8.00999C6.12652 7.42045 6.12652 6.8308 6.12652 6.24103C6.12338 6.19815 6.12511 6.15507 6.13169 6.11258C6.15517 6.00899 6.22321 5.94615 6.33198 5.9458C6.44075 5.94546 6.50739 6.00588 6.53501 6.10982C6.5394 6.13081 6.54103 6.15229 6.53985 6.1737C6.53985 7.40458 6.53985 8.63556 6.53985 9.86667C6.53985 10.011 6.4594 10.0966 6.33474 10.0973C6.21009 10.098 6.12756 10.01 6.12756 9.85562C6.12595 9.24076 6.1256 8.62555 6.12652 8.00999Z" fill="#C74141" stroke="#C74141" stroke-width="0.5"/>
</svg>
