<svg width="10" height="10" viewBox="0 0 10 10" fill="none" xmlns="http://www.w3.org/2000/svg">
<path d="M4.96603 9.99392C3.71122 9.99392 2.45637 10.0031 1.20156 9.99392C0.398631 9.98606 0.044865 9.62318 0.00557012 8.82287C-0.046823 7.77501 0.26749 7.20924 1.07172 7.19614C3.68265 7.15597 6.29468 7.15597 8.90735 7.19614C9.73254 7.21055 10.0034 7.76715 9.93001 8.91849C9.88155 9.66247 9.53733 9.9835 8.73178 9.99136C7.47566 10.0084 6.22609 9.99392 4.96603 9.99392Z" fill="#FFAE46"/>
<path d="M5.11557 5.39276L3.70117 3.85237C4.81845 2.67353 5.92769 1.4475 7.10653 0.292236C7.20149 0.19426 7.3164 0.117646 7.44326 0.0674293C7.57012 0.0172128 7.70606 -0.00536815 7.84235 0.00107451C7.97864 0.00751717 8.11221 0.0428838 8.23376 0.104844C8.35532 0.166804 8.46218 0.253853 8.54747 0.36035C8.64134 0.458301 8.71383 0.574626 8.76045 0.702037C8.80706 0.829448 8.82682 0.965241 8.81833 1.10065C8.80983 1.23605 8.77337 1.36811 8.7112 1.4887C8.64903 1.60929 8.56235 1.71568 8.45697 1.80113C7.38291 2.96557 6.30096 4.11961 5.11557 5.39276Z" fill="#FFAE46"/>
<path d="M2.53027 6.19162C2.6272 5.55766 2.70172 5.07163 2.80912 4.36694L4.22128 5.91661L2.53027 6.19162Z" fill="#FFAE46"/>
</svg>
