<svg width="10" height="10" viewBox="0 0 10 10" fill="none" xmlns="http://www.w3.org/2000/svg">
<path d="M0.300722 0.027338C0.191369 0.0663929 0.113259 0.130834 0.0546768 0.230424L0 0.322203V5.00098V9.67975L0.0585823 9.77543C0.0956844 9.83402 0.154267 9.8926 0.212849 9.9297L0.308533 9.98828L1.05839 9.99414L1.80629 10V8.37336C1.80824 7.06503 1.8141 6.73306 1.83363 6.67252C1.87659 6.55731 1.9586 6.46358 2.06796 6.41281L2.16755 6.36594H4.98926H7.81097L7.91056 6.41281C8.01992 6.46358 8.10193 6.55731 8.14489 6.67252C8.16442 6.73306 8.17028 7.06503 8.17223 8.37336V10L8.92013 9.99414L9.66998 9.98828L9.76567 9.9297C9.82425 9.8926 9.88283 9.83402 9.91994 9.77543L9.97852 9.67975L9.98438 6.2605C9.98828 3.67311 9.98438 2.81976 9.9668 2.75727C9.94923 2.69479 9.70123 2.34915 9.01777 1.43917C8.5081 0.759617 8.05311 0.169888 8.00625 0.124975C7.88518 0.0117168 7.82659 0 7.36379 0H6.96153V1.90978C6.96153 3.98555 6.96348 3.92892 6.85413 4.07538C6.82484 4.11248 6.75454 4.1652 6.69986 4.19059L6.60027 4.23745H4.38391H2.16755L2.06796 4.19059C1.9586 4.13982 1.87659 4.04608 1.83363 3.93087C1.81215 3.87034 1.80824 3.4876 1.80629 1.92736V0H1.08963C0.552626 0.00195312 0.353447 0.00781059 0.300722 0.027338Z" fill="white"/>
<path d="M2.72363 1.66964V3.33923H4.38346H6.0433V1.66964V4.24385e-05H4.38346H2.72363V1.66964Z" fill="white"/>
<path d="M2.72363 7.72323V8.18213H4.98882H7.254V7.72323V7.26434H4.98882H2.72363V7.72323Z" fill="white"/>
<path d="M2.72363 9.53927V9.99817H4.98882H7.254V9.53927V9.08038H4.98882H2.72363V9.53927Z" fill="white"/>
</svg>
