<svg width="13" height="10" viewBox="0 0 13 10" fill="none" xmlns="http://www.w3.org/2000/svg">
<path d="M7.97188 4.90891C6.36857 4.73989 4.77261 4.55209 3.16996 4.41114C2.89392 4.42427 2.62026 4.35363 2.38514 4.20841C2.15001 4.06318 1.96431 3.85015 1.85246 3.59744C1.37882 2.59938 0.789033 1.6601 0.254595 0.688761C0.154388 0.509056 0.084842 0.313338 0 0.12428L0.118246 0L12.3824 4.89211L12.3863 5.10724L0.118898 10L0.00342505 9.88991C0.0722336 9.69663 0.1516 9.50721 0.241221 9.32266C0.795033 8.32058 1.38288 7.33055 1.90596 6.3091C1.9965 6.10036 2.14565 5.9224 2.33539 5.79681C2.52514 5.67123 2.74737 5.60336 2.9749 5.60159C4.54013 5.46263 6.10139 5.28304 7.66395 5.1167C7.77151 5.10534 7.87626 5.0746 7.98248 5.05456L7.97188 4.90891Z" fill="white"/>
</svg>
