<svg width="10" height="10" viewBox="0 0 10 10" fill="none" xmlns="http://www.w3.org/2000/svg">
<path d="M0.908936 5.82578C0.933684 5.88479 0.981279 5.96666 1.01364 6.00664C1.13168 6.15323 4.58895 9.58955 4.6689 9.63715C4.78503 9.70949 4.96209 9.75138 5.09726 9.73615C5.34855 9.70949 5.23623 9.8123 7.24662 7.80571C8.76203 6.2922 9.0952 5.94952 9.13898 5.86385C9.21323 5.71536 9.22656 5.47929 9.16564 5.32128C9.10091 5.15184 8.9943 5.03 8.8439 4.95765C8.72967 4.90435 8.70111 4.89864 8.53739 4.89864C8.22326 4.89864 8.26324 4.86818 7.14953 5.96856C6.62028 6.4902 6.1291 6.98518 6.05486 7.07085C5.97871 7.15652 5.88161 7.2955 5.83402 7.38878L5.74835 7.55251L5.73883 4.05526L5.72931 0.558014L5.68552 0.449498C5.6227 0.295292 5.47992 0.144893 5.32381 0.0687418C5.20958 0.0116281 5.18102 0.00591655 5.03443 0.00591655C4.90117 0.00782103 4.85357 0.0154361 4.76409 0.0573186C4.61941 0.123951 4.49185 0.245793 4.41951 0.386673L4.35859 0.5009L4.34907 4.03242L4.33955 7.56393L4.24436 7.38307L4.15108 7.20221L3.0545 6.10563C1.79039 4.83962 1.86654 4.89864 1.54099 4.89864C1.37155 4.89864 1.33919 4.90435 1.244 4.95194C1.18498 4.9805 1.09551 5.04713 1.04791 5.09853C0.918454 5.23561 0.878475 5.33841 0.87086 5.54592C0.865149 5.69251 0.87086 5.73249 0.908936 5.82578Z" fill="#C11D2A"/>
</svg>
