<svg width="9" height="10" viewBox="0 0 9 10" fill="none" xmlns="http://www.w3.org/2000/svg">
<path d="M8.67114 4.1C8.64639 4.04099 8.5988 3.95912 8.56643 3.91914C8.4484 3.77255 4.99113 0.336227 4.91117 0.288633C4.79504 0.216289 4.61799 0.174406 4.48282 0.189636C4.23152 0.216289 4.34385 0.113485 2.33345 2.12007C0.818043 3.63358 0.484881 3.97626 0.441094 4.06193C0.366847 4.21042 0.35352 4.44649 0.414441 4.60451C0.47917 4.77394 0.585782 4.89578 0.73618 4.96813C0.850407 5.02143 0.878964 5.02715 1.04269 5.02715C1.35681 5.02715 1.31683 5.05761 2.43055 3.95722C2.9598 3.43558 3.45097 2.9406 3.52522 2.85493C3.60137 2.76926 3.69846 2.63028 3.74606 2.537L3.83173 2.37327L3.84125 5.87052L3.85077 9.36777L3.89455 9.47628C3.95738 9.63049 4.10016 9.78089 4.25627 9.85704C4.3705 9.91415 4.39906 9.91986 4.54565 9.91986C4.67891 9.91796 4.72651 9.91035 4.81598 9.86846C4.96067 9.80183 5.08823 9.67999 5.16057 9.53911L5.22149 9.42488L5.23101 5.89337L5.24053 2.36185L5.33572 2.54271L5.429 2.72357L6.52558 3.82015C7.78969 5.08616 7.71354 5.02715 8.03909 5.02715C8.20852 5.02715 8.24089 5.02143 8.33608 4.97384C8.39509 4.94528 8.48457 4.87865 8.53217 4.82725C8.66162 4.69018 8.7016 4.58737 8.70922 4.37986C8.71493 4.23327 8.70922 4.19329 8.67114 4.1Z" fill="#05BD29"/>
</svg>
