<svg width="15" height="8" viewBox="0 0 15 8" fill="none" xmlns="http://www.w3.org/2000/svg">
<path fill-rule="evenodd" clip-rule="evenodd" d="M11.1128 0.159097L14.5696 3.61591C14.7818 3.82804 14.7818 4.17197 14.5696 4.38409L11.1128 7.84091C10.9007 8.05303 10.5568 8.05303 10.3446 7.84091C10.1325 7.62878 10.1325 7.28485 10.3446 7.07273L12.8742 4.54319L0.543185 4.54319C0.243192 4.54319 -7.51835e-07 4.29999 -6.99382e-07 4C-6.4693e-07 3.70001 0.243192 3.45681 0.543185 3.45681L12.8742 3.45682L10.3446 0.927278C10.1325 0.715151 10.1325 0.371225 10.3446 0.159097C10.5568 -0.05303 10.9007 -0.0530299 11.1128 0.159097Z" fill="#D13238"/>
</svg>
