<svg width="9" height="7" viewBox="0 0 9 7" fill="none" xmlns="http://www.w3.org/2000/svg">
<path d="M0.826122 0.163844C0.943929 0.165697 1.05987 0.193527 1.16566 0.245387C1.27146 0.297247 1.3645 0.371784 1.43812 0.463771C1.67545 0.753771 1.9135 1.04346 2.15217 1.33279C2.90484 2.24812 3.6575 3.16312 4.41017 4.07778C4.45217 4.12879 4.47813 4.12978 4.52113 4.07778C5.4758 2.89845 6.43116 1.71977 7.38716 0.541774C7.50165 0.374756 7.66415 0.246511 7.85316 0.173854C7.95773 0.142065 8.06784 0.132927 8.17622 0.147121C8.28459 0.161315 8.38872 0.198482 8.48158 0.25613C8.57444 0.313778 8.65393 0.390521 8.71473 0.48135C8.77553 0.572179 8.81621 0.674918 8.83412 0.782741C8.85586 0.900304 8.85098 1.02132 8.81983 1.13675C8.78868 1.25217 8.73206 1.35919 8.65412 1.44986C7.87212 2.41452 7.08981 3.37849 6.30714 4.34182C5.91514 4.82516 5.52311 5.30844 5.13111 5.79177C5.00958 5.96575 4.82536 6.08579 4.61714 6.12674C4.47688 6.15355 4.33195 6.14159 4.19801 6.09207C4.06407 6.04255 3.9462 5.95746 3.85713 5.84585C3.68213 5.64585 3.51614 5.43479 3.34614 5.22879L1.01716 2.39883C0.755161 2.08083 0.493461 1.76242 0.232127 1.44375C0.150277 1.347 0.0932764 1.23183 0.0660507 1.10806C0.0388249 0.984289 0.042183 0.855713 0.0758773 0.733546C0.109572 0.61138 0.172587 0.499322 0.25941 0.407008C0.346233 0.314695 0.454295 0.244874 0.574168 0.203761C0.654945 0.174855 0.740364 0.161372 0.826122 0.163844Z" fill="#495057"/>
</svg>
