<svg width="22" height="28" viewBox="0 0 22 28" fill="none" xmlns="http://www.w3.org/2000/svg">
<path d="M13.4095 23.8281H14.7195C14.7395 24.4081 14.6195 24.9781 14.3595 25.5081C14.1095 26.0281 13.7295 26.4781 13.2695 26.8281C12.7195 27.2881 12.0495 27.5781 11.3395 27.6581C10.6295 27.7381 9.90953 27.6181 9.26953 27.2981C8.59953 26.9981 8.03953 26.5181 7.63953 25.9081C7.23953 25.2981 7.01953 24.5881 7.01953 23.8581H8.37953C8.39953 24.2581 8.50953 24.6581 8.70953 25.0081C8.90953 25.3581 9.18953 25.6581 9.51953 25.8881C9.96953 26.1981 10.5195 26.3481 11.0695 26.3081C12.3395 26.2081 13.1695 25.3481 13.4195 23.8481L13.4095 23.8281Z" fill="black"/>
<path d="M21.57 19.7C21.49 19.29 21.33 18.9 21.08 18.56C20.84 18.22 20.52 17.94 20.15 17.74C19.83 17.55 19.56 17.28 19.39 16.96C19.21 16.63 19.13 16.26 19.15 15.89C19.15 14.09 19.15 12.28 19.15 10.48C19.15 8.47 18.43 6.53 17.11 5.02C15.79 3.51 13.97 2.52 11.98 2.25C11.85 2.23 11.72 2.2 11.54 2.17V0H10.2V2.17C10.02 2.2 9.89 2.23 9.76 2.25C7.77 2.52 5.95 3.51 4.63 5.02C3.31 6.53 2.59 8.48 2.59 10.48C2.59 12.28 2.59 14.09 2.59 15.89C2.61 16.26 2.52 16.63 2.35 16.96C2.17 17.29 1.91 17.56 1.59 17.74C1.22 17.94 0.91 18.22 0.66 18.56C0.42 18.9 0.25 19.29 0.17 19.7C0.02 20.67 0.05 21.66 0 22.67H21.74C21.69 21.66 21.72 20.67 21.57 19.7ZM20.3 21.32H1.42C1.31 20.34 1.38 19.47 2.27 18.92C2.8 18.61 3.24 18.16 3.53 17.61C3.82 17.07 3.96 16.45 3.93 15.84C3.91 14.08 3.93 12.32 3.93 10.56C3.91 9.22 4.29 7.91 5.01 6.78C5.94 5.29 7.41 4.21 9.1 3.76C9.68 3.61 10.27 3.53 10.86 3.53C11.45 3.53 12.04 3.6 12.62 3.76C14.32 4.21 15.78 5.29 16.71 6.78C17.43 7.91 17.81 9.22 17.79 10.56C17.79 12.32 17.8 14.08 17.79 15.84C17.76 16.46 17.9 17.07 18.19 17.61C18.48 18.15 18.92 18.61 19.45 18.92C20.34 19.47 20.41 20.34 20.3 21.32Z" fill="black"/>
</svg>
