<svg xmlns="http://www.w3.org/2000/svg" width="13" height="10.234" viewBox="0 0 13 10.234"><defs><style>.a{fill:#707070;}</style></defs><g transform="translate(-132.372 -24.883)"><g transform="translate(-1136.097 -1282.117)"><path class="a" d="M1274.959,1317.234q-2.451,0-4.9,0a1.471,1.471,0,0,1-1.421-.834,1.6,1.6,0,0,1-.157-.687q-.018-3.022,0-6.044a1.484,1.484,0,0,1,1.542-1.516c.567,0,1.134,0,1.7,0,.146,0,.222-.022.251-.194a1.129,1.129,0,0,1,1.109-.954q1.891-.014,3.783,0a1.119,1.119,0,0,1,1.094.943c.03.182.11.207.265.2.567-.006,1.134,0,1.7,0a1.483,1.483,0,0,1,1.544,1.534q.009,3,0,6a1.489,1.489,0,0,1-1.558,1.545C1278.257,1317.237,1276.608,1317.233,1274.959,1317.234Zm.006-.739q2.462,0,4.924,0a.715.715,0,0,0,.716-.363,1.43,1.43,0,0,0,.128-.6c.009-1.932.006-3.865,0-5.8a.767.767,0,0,0-.845-.846c-.739,0-1.477,0-2.216,0a.378.378,0,0,1-.435-.42c0-.074,0-.149,0-.224-.005-.369-.15-.517-.517-.519-.612,0-1.224,0-1.836,0-.567,0-1.134,0-1.7,0a.432.432,0,0,0-.48.488c0,.067,0,.134,0,.2,0,.347-.126.472-.471.473-.716,0-1.432,0-2.149,0a.778.778,0,0,0-.875.884q0,2.91,0,5.82c0,.627.273.9.9.9Z"/><path class="a" d="M1282.816,1321.777a3.056,3.056,0,1,1,3.07-3.047A3.052,3.052,0,0,1,1282.816,1321.777Zm2.318-3.016a2.311,2.311,0,1,0-2.308,2.282A2.3,2.3,0,0,0,1285.134,1318.762Z" transform="translate(-7.855 -6.028)"/></g></g></svg>