<svg width="13" height="10" viewBox="0 0 13 10" fill="none" xmlns="http://www.w3.org/2000/svg">
<path d="M6.13795 9.9961C4.57977 9.9961 3.02187 9.99418 1.4637 9.99747C1.0745 9.9983 0.722925 9.90629 0.434252 9.63272C0.144205 9.35778 0.000555245 9.01829 0.000555245 8.61893C0.00028058 6.75038 -0.000543416 4.88183 0.000555245 3.01329C0.00110458 2.27663 0.578451 1.67677 1.3173 1.65726C1.80126 1.64436 2.28604 1.65644 2.77028 1.6515C3.04522 1.64875 3.02544 1.69929 3.02242 1.39194C3.01968 1.10931 3.04687 0.836565 3.19491 0.588268C3.40338 0.23807 3.71293 0.0180627 4.11641 0.0117454C5.25847 -0.00638252 6.4008 0.00240677 7.54314 0.000484109C7.70766 0.000484109 7.87219 0.00185744 8.03671 0.000484109C8.72914 -0.00610786 9.24359 0.528391 9.25815 1.20901C9.26034 1.30954 9.26611 1.41062 9.25815 1.51032C9.24908 1.62788 9.2999 1.65589 9.40921 1.65479C9.90718 1.65012 10.4054 1.64848 10.9034 1.65342C11.511 1.65946 12.0144 2.01515 12.2034 2.56641C12.255 2.7172 12.2836 2.87238 12.2836 3.03389C12.2819 4.87497 12.2718 6.71632 12.2874 8.5574C12.294 9.34927 11.7027 10.0068 10.8534 9.99995C9.28177 9.98731 7.70986 9.99638 6.13795 9.9961ZM9.13482 5.81872C9.13922 4.15644 7.77221 2.82239 6.12504 2.82871C4.44519 2.83503 3.1213 4.22868 3.1463 5.86514C3.17102 7.48017 4.46799 8.83097 6.14949 8.82191C7.89553 8.81257 9.14938 7.38815 9.13482 5.81872Z" fill="#C0802B"/>
<path d="M8.12165 5.82251C8.12989 6.90524 7.24217 7.79708 6.149 7.80367C5.0616 7.81026 4.17333 6.93243 4.16125 5.83954C4.14944 4.75571 5.03661 3.85234 6.11961 3.84574C7.22596 3.83888 8.11313 4.71478 8.12165 5.82251Z" fill="#C0802B"/>
</svg>
