<svg width="30" height="30" viewBox="0 0 30 30" fill="none" xmlns="http://www.w3.org/2000/svg">
<circle cx="15" cy="15" r="14.5" fill="#5483EF" stroke="#5483EF"/>
<path d="M16.6242 12.7065C16.5309 12.7065 16.466 12.7065 16.401 12.7065C14.4343 12.7065 12.4676 12.7061 10.5005 12.7051C10.4236 12.7051 10.3457 12.7151 10.2711 12.6825C10.1549 12.6319 10.0996 12.5436 10.1169 12.4201C10.1342 12.2965 10.2105 12.2226 10.337 12.2096C10.3863 12.2046 10.4366 12.2083 10.4865 12.2083C12.5975 12.2083 14.7084 12.2069 16.819 12.2103C16.9342 12.2103 17.0101 12.183 17.0827 12.0877C17.6851 11.2998 18.3871 10.6122 19.1913 10.0311C19.2942 9.9565 19.3102 9.88923 19.2782 9.76735C19.2039 9.4833 19.12 9.20557 18.9772 8.94682C18.806 8.6368 18.5536 8.49061 18.1946 8.49194C16.6378 8.49793 15.081 8.49427 13.5242 8.49494C11.9121 8.4956 10.2997 8.49694 8.68764 8.49893C8.60572 8.49893 8.5238 8.50593 8.43089 8.50992C8.44854 8.61315 8.51914 8.67942 8.56043 8.75968C8.7962 9.21523 8.90909 9.70741 8.99367 10.2079C9.21312 11.5066 9.2018 12.8193 9.21845 14.1287C9.23643 15.5297 9.19348 16.9313 9.22611 18.3326C9.22678 18.3602 9.22811 18.3882 9.22611 18.4155C9.21579 18.581 9.11356 18.6912 8.97336 18.6889C8.83117 18.6866 8.7326 18.5787 8.73027 18.4088C8.72361 17.9326 8.71595 17.4561 8.71728 16.9799C8.72161 15.501 8.74525 14.0222 8.6923 12.5436C8.66733 11.8473 8.63036 11.1513 8.53213 10.46C8.51348 10.3298 8.43556 10.3481 8.35497 10.3481C7.71227 10.3478 7.06957 10.3481 6.42687 10.3484C6.16213 10.3484 6.10918 10.3175 6.05857 10.0504C5.95001 9.47431 5.96166 8.91219 6.3616 8.43333C6.58538 8.16559 6.89075 8.0294 7.23641 8.0234C9.62372 7.98178 12.0114 8.01574 14.399 8.00775C15.6511 8.00342 16.9035 8.02607 18.1553 8.00042C18.821 7.98677 19.2253 8.30313 19.495 8.86424C19.5909 9.06371 19.6705 9.27051 19.7204 9.48563C19.7517 9.62049 19.7954 9.62616 19.9069 9.55889C20.5733 9.15695 21.2796 8.84992 22.0398 8.67176C22.2659 8.61881 22.4954 8.58884 22.7251 8.56054C22.9153 8.53723 23.0415 8.68209 23.0192 8.88922C22.9599 9.44067 22.8214 9.97315 22.6149 10.4876C22.4934 10.7903 22.3608 11.088 22.199 11.3721C22.1058 11.5353 21.9812 11.5856 21.8453 11.5163C21.7138 11.449 21.6758 11.3078 21.7601 11.1443C22.0032 10.6721 22.2246 10.1916 22.3588 9.67544C22.3991 9.52126 22.4211 9.36208 22.4661 9.20957C22.4954 9.10966 22.4727 9.09734 22.3781 9.11266C21.9999 9.1736 21.6359 9.28449 21.2826 9.42768C19.8163 10.0221 18.6255 10.9812 17.6308 12.197C16.9558 13.0221 16.4147 13.9219 16.129 14.9596C16.1203 14.9915 16.111 15.0232 16.104 15.0558C16.102 15.0655 16.1077 15.0768 16.1223 15.1437C16.2921 14.9602 16.436 14.7947 16.5905 14.6399C17.8696 13.3578 19.1503 12.0777 20.4311 10.7973C20.6249 10.6035 20.829 10.6148 20.9096 10.822C20.9645 10.9632 20.879 11.0531 20.7914 11.1407C20.2116 11.7204 19.6312 12.2992 19.0514 12.8789C18.2366 13.6935 17.4224 14.5087 16.6082 15.3239C16.5622 15.3698 16.5183 15.4181 16.4417 15.4984C16.8253 15.4098 17.151 15.2892 17.4673 15.1447C18.9455 14.469 20.1377 13.4441 21.1117 12.154C21.145 12.1097 21.176 12.0638 21.2113 12.0211C21.3159 11.8949 21.4644 11.8673 21.5756 11.9509C21.6842 12.0325 21.7008 12.189 21.6012 12.3218C21.4321 12.5476 21.2612 12.7727 21.0804 12.9892C20.8104 13.3122 20.5173 13.6149 20.204 13.8969C20.1284 13.9649 20.0954 14.0341 20.0957 14.1394C20.0997 15.4854 20.0887 16.8314 20.1024 18.1774C20.1101 18.9403 20.15 19.7032 20.2349 20.4628C20.2492 20.5907 20.2805 20.6586 20.4414 20.6553C21.0395 20.6423 21.6379 20.6503 22.2363 20.6503C22.5373 20.6503 22.5929 20.6856 22.6459 20.9826C22.7165 21.3786 22.7122 21.7719 22.5706 22.1585C22.4005 22.6243 21.9759 22.9457 21.4817 22.9763C21.1494 22.997 20.8174 22.9943 20.485 22.9943C17.1886 22.9946 13.8922 22.9873 10.5958 23C9.85316 23.003 9.51916 22.7372 9.23277 22.0696C9.01399 21.5591 8.91941 21.0139 8.86214 20.4631C8.82983 20.1554 8.8012 19.8471 8.77089 19.5394C8.74658 19.2956 8.92141 19.1351 9.11555 19.2237C9.20913 19.2667 9.25342 19.3392 9.26274 19.4445C9.31602 20.0429 9.35898 20.6423 9.49018 21.2311C9.54913 21.4955 9.62638 21.7525 9.73994 21.9986C9.92442 22.3989 10.1688 22.5394 10.5801 22.4792C10.9824 22.4202 11.2408 22.1505 11.2897 21.7429C11.3184 21.5048 11.3037 21.2693 11.2621 21.0339C11.2148 20.7655 11.3137 20.651 11.5875 20.651C14.2302 20.651 16.8729 20.651 19.5156 20.651C19.7451 20.651 19.7547 20.6503 19.7314 20.4268C19.5546 18.7262 19.6082 17.0199 19.6002 15.3152C19.5989 15.0285 19.6002 14.7421 19.6002 14.4264C19.2895 14.6399 19.0121 14.8557 18.7131 15.0398C17.8966 15.5423 17.0361 15.9363 16.0807 16.0755C15.8626 16.1074 15.7164 16.2013 15.5772 16.3492C15.4217 16.5144 15.2585 16.6725 15.0967 16.8321C14.9435 16.9826 14.8023 16.9992 14.6931 16.883C14.5795 16.7621 14.5968 16.6386 14.7543 16.4794C14.9608 16.2706 15.1623 16.0568 15.3787 15.859C15.5046 15.7438 15.467 15.5936 15.5039 15.4601C15.5152 15.4194 15.468 15.4145 15.4333 15.4141C15.3667 15.4131 15.3005 15.4105 15.2339 15.4105C13.6384 15.4095 12.0427 15.4088 10.4472 15.4081C10.4086 15.4081 10.3697 15.4081 10.331 15.4045C10.1925 15.3908 10.1206 15.3059 10.1162 15.1744C10.1119 15.0435 10.1745 14.9496 10.315 14.9326C10.3916 14.9233 10.4696 14.9216 10.5471 14.9216C12.1815 14.9206 13.8159 14.9179 15.4503 14.9233C15.5902 14.9236 15.6431 14.8756 15.6768 14.7508C15.7227 14.5806 15.7863 14.4154 15.8449 14.2489C15.9095 14.0651 15.9109 14.0648 15.72 14.0648C13.9861 14.0648 12.2518 14.0648 10.5178 14.0648C10.4349 14.0648 10.352 14.0678 10.2717 14.0378C10.1725 14.0008 10.1169 13.9296 10.1152 13.8257C10.1129 13.6865 10.1782 13.5929 10.323 13.5736C10.383 13.5656 10.4446 13.5679 10.5055 13.5676C12.3337 13.5669 14.1622 13.5653 15.9904 13.5689C16.106 13.5689 16.1669 13.5356 16.2199 13.4317C16.3401 13.1966 16.4766 12.9695 16.6245 12.7078L16.6242 12.7065ZM16.9731 21.1451C15.3111 21.1451 13.6491 21.1451 11.9871 21.1451C11.7746 21.1451 11.7813 21.1441 11.7939 21.3513C11.8149 21.6909 11.7803 22.0236 11.6168 22.3306C11.5245 22.5038 11.5218 22.5018 11.711 22.5018C14.0047 22.5015 16.2981 22.5011 18.5919 22.5011C19.4394 22.5011 20.2872 22.5055 21.1347 22.4988C21.4451 22.4965 21.7634 22.4812 21.9809 22.2081C22.187 21.9493 22.1967 21.6386 22.1893 21.3256C22.1863 21.1914 22.142 21.1408 21.9925 21.1415C20.3195 21.1481 18.6462 21.1455 16.9731 21.1455V21.1451ZM7.46285 9.85093C7.73991 9.85093 8.01664 9.85093 8.2937 9.85093C8.3593 9.85093 8.4249 9.84993 8.39593 9.75536C8.2937 9.41769 8.20845 9.07437 7.987 8.78498C7.7812 8.51625 7.50514 8.47129 7.20044 8.52258C6.90873 8.57153 6.68661 8.72271 6.58505 9.01343C6.50546 9.2412 6.48515 9.47564 6.51045 9.7164C6.52144 9.81897 6.55741 9.85626 6.66497 9.85293C6.93071 9.84494 7.19678 9.85027 7.46252 9.85093H7.46285Z" fill="white"/>
<path d="M12.0701 11.2113C11.522 11.2113 10.9739 11.212 10.4257 11.211C10.2273 11.2107 10.115 11.1234 10.11 10.9716C10.1047 10.8111 10.2213 10.7132 10.4254 10.7132C11.5216 10.7125 12.6179 10.7132 13.7145 10.7142C13.918 10.7142 14.0442 10.8131 14.0452 10.9646C14.0458 11.1154 13.9206 11.2103 13.7148 11.2107C13.1667 11.2113 12.6186 11.2107 12.0704 11.2107V11.2113H12.0701Z" fill="white"/>
<path d="M17.5601 19.5943C17.2664 19.5943 16.973 19.5963 16.6793 19.5936C16.5041 19.5919 16.4009 19.5054 16.3926 19.3618C16.3843 19.2196 16.4828 19.1064 16.6557 19.1044C17.2537 19.0974 17.8521 19.0984 18.4505 19.1051C18.6244 19.1071 18.7289 19.2173 18.7249 19.3548C18.7206 19.5027 18.6121 19.5913 18.4246 19.5926C18.1365 19.5946 17.8485 19.5933 17.5604 19.5933V19.5943H17.5601Z" fill="white"/>
</svg>
