<svg width="15" height="9" viewBox="0 0 15 9" fill="none" xmlns="http://www.w3.org/2000/svg">
<path d="M9.97508 0.914881C9.14317 0.513781 8.23441 0.297188 7.31101 0.279928C6.38762 0.262668 5.4714 0.445149 4.62508 0.81488C2.85102 1.60204 1.29096 2.80209 0.0750809 4.31488C0.0514285 4.33643 0.0325319 4.36269 0.0196037 4.39196C0.00667552 4.42123 0 4.45288 0 4.48488C0 4.51688 0.00667552 4.54853 0.0196037 4.5778C0.0325319 4.60708 0.0514285 4.63333 0.0750809 4.65488C1.10351 5.92506 2.37068 6.9816 3.80508 7.76488C4.75418 8.30375 5.8153 8.61524 6.90508 8.67488V8.67488C7.73593 8.69043 8.56269 8.5549 9.34508 8.27488C11.2655 7.51039 12.9517 6.25524 14.2351 4.63488C14.2569 4.61432 14.2742 4.58952 14.2861 4.562C14.298 4.53449 14.3041 4.50484 14.3041 4.47488C14.3041 4.44492 14.298 4.41527 14.2861 4.38776C14.2742 4.36025 14.2569 4.33545 14.2351 4.31488C13.0877 2.87674 11.6318 1.71479 9.97508 0.914881V0.914881ZM13.6351 4.30488L13.7951 4.48488L13.4251 4.86488L13.0151 5.29488C12.0701 6.24485 10.9669 7.02312 9.75508 7.59488C8.95473 7.97515 8.08114 8.17648 7.19508 8.18488H7.03508C6.05259 8.14176 5.09231 7.87862 4.22508 7.41488C2.9189 6.72184 1.74984 5.79675 0.775082 4.68488C0.744143 4.65758 0.720149 4.6233 0.705082 4.58488L0.615082 4.43488L0.735081 4.30488C1.26634 3.70518 1.8522 3.15615 2.48508 2.66488C3.32825 1.98148 4.28197 1.44712 5.30508 1.08488C6.77411 0.588153 8.37952 0.688716 9.77508 1.36488C11.1335 2.00545 12.3558 2.90179 13.3751 4.00488L13.6351 4.30488Z" fill="black"/>
<path d="M7.18703 2.25488C6.89204 2.25513 6.59993 2.31288 6.32703 2.42488C6.05665 2.53837 5.81181 2.70499 5.60703 2.91488C5.39809 3.11839 5.23452 3.36375 5.12703 3.63488C5.01502 3.90778 4.95728 4.19989 4.95703 4.49488C4.96492 5.0811 5.20334 5.64063 5.6207 6.05237C6.03805 6.46411 6.60076 6.69494 7.18703 6.69488V6.69488C7.48187 6.69257 7.77315 6.63019 8.04309 6.51156C8.31302 6.39292 8.55594 6.22052 8.75703 6.00488C8.95684 5.80177 9.11448 5.56113 9.22089 5.29683C9.3273 5.03252 9.38036 4.74978 9.37703 4.46488C9.37706 3.8822 9.14696 3.32309 8.73682 2.90921C8.32668 2.49532 7.76969 2.26016 7.18703 2.25488V2.25488ZM8.91703 4.49488C8.91881 4.85214 8.81057 5.20128 8.60703 5.49488C8.41492 5.77727 8.14352 5.99648 7.82703 6.12488C7.61951 6.20422 7.39921 6.24489 7.17703 6.24488H6.82703C6.49377 6.17249 6.18833 6.00588 5.94703 5.76488C5.71026 5.51798 5.54743 5.20965 5.47703 4.87488C5.41322 4.53804 5.45152 4.1898 5.58703 3.87488C5.71603 3.55846 5.93953 3.28956 6.22703 3.10488C6.46507 2.94728 6.73804 2.85031 7.02216 2.82242C7.30627 2.79454 7.59289 2.83658 7.85703 2.94488C8.06855 3.03495 8.2592 3.16772 8.41703 3.33488C8.57515 3.49609 8.70076 3.68621 8.78703 3.89488C8.86558 4.0856 8.9096 4.28876 8.91703 4.49488Z" fill="black"/>
</svg>
