<svg width="28" height="29" viewBox="0 0 28 29" fill="none" xmlns="http://www.w3.org/2000/svg">
<path d="M4.39177 2.38499C4.53434 1.23265 5.28734 0.500128 6.29396 0.500128C7.30216 0.500128 8.05122 1.22713 8.19379 2.36293H15.0685C15.3812 1.0956 16.0113 0.489888 16.9982 0.500128C17.9946 0.511155 18.646 1.14601 18.902 2.38499C19.2832 2.38499 19.6739 2.37948 20.0638 2.38578C21.6107 2.41098 22.8308 3.35538 23.1813 4.81018C23.2427 5.06538 23.2703 5.33397 23.2711 5.59705C23.2782 7.90567 23.275 10.2143 23.275 12.5237C23.275 12.5434 23.275 12.5631 23.275 12.5828C23.2656 13.0034 23.0104 13.2822 22.6386 13.2783C22.2755 13.2743 22.0266 13.0089 22.0242 12.5962C22.0187 11.4076 22.0219 10.2182 22.0219 9.02966C22.0219 8.92411 22.0219 8.81857 22.0219 8.69569H1.26793C1.26793 8.79809 1.26793 8.90048 1.26793 9.00366C1.26793 13.2476 1.26714 17.4922 1.26793 21.7361C1.26793 22.9995 2.04455 23.7714 3.30796 23.7714C6.32389 23.7722 9.34061 23.7714 12.3566 23.7738C12.5007 23.7738 12.6551 23.7848 12.7882 23.8344C13.0607 23.9353 13.1986 24.2141 13.1505 24.5016C13.104 24.7812 12.9024 24.9789 12.6204 25.0136C12.533 25.0246 12.444 25.023 12.3558 25.023C9.32959 25.023 6.30341 25.0262 3.27802 25.0222C1.66097 25.0199 0.424345 24.0652 0.0856532 22.5529C0.024216 22.278 0.0037369 21.9882 0.00294925 21.7054C-0.000201377 16.3722 -0.000989034 11.0374 0.00137393 5.7026C0.00216159 4.05876 0.970979 2.7993 2.49903 2.46612C2.77471 2.40626 3.06378 2.39917 3.34734 2.38893C3.68918 2.37633 4.03181 2.38578 4.39177 2.38578V2.38499ZM4.39098 3.65942C3.91996 3.65942 3.46864 3.64366 3.01889 3.66257C2.08394 3.70274 1.31282 4.47543 1.27738 5.41353C1.25532 5.99246 1.26871 6.57217 1.26871 7.15188C1.26871 7.23616 1.28289 7.31966 1.29077 7.40551H21.9919C21.9919 6.68087 22.0361 5.97355 21.9801 5.27411C21.9163 4.48488 21.3382 3.83979 20.5545 3.71534C20.0134 3.62949 19.447 3.6988 18.8902 3.6988C18.6586 4.87241 18.019 5.50332 17.0226 5.53561C16.0396 5.56791 15.4079 4.9685 15.0645 3.67517H8.193C8.05201 4.8094 7.29743 5.54507 6.29002 5.53483C5.43541 5.52616 4.50756 4.94487 4.39098 3.65863V3.65942ZM6.92409 3.03874C6.92409 3.03874 6.92251 3.03874 6.92172 3.03874C6.92172 2.81347 6.93748 2.58663 6.91778 2.36215C6.88707 2.00455 6.63817 1.77534 6.30577 1.76983C5.95842 1.76432 5.68825 1.99667 5.67014 2.36609C5.64808 2.79615 5.64887 3.22936 5.66856 3.6602C5.68589 4.03119 5.95054 4.26828 6.29554 4.2667C6.63974 4.26591 6.89258 4.02725 6.92093 3.65548C6.93669 3.45069 6.92409 3.24353 6.92409 3.03796V3.03874ZM17.6126 3.01669C17.6126 2.81111 17.6197 2.60475 17.611 2.39917C17.5945 2.01952 17.333 1.76589 16.9754 1.77062C16.6264 1.77534 16.376 2.01715 16.3657 2.38893C16.3547 2.81032 16.3539 3.23251 16.3657 3.6539C16.376 4.0241 16.6296 4.26591 16.9793 4.26828C17.3243 4.27064 17.589 4.02331 17.6094 3.66414C17.6212 3.44911 17.6118 3.23251 17.6126 3.01669Z" fill="black"/>
<path d="M27.6804 21.2846C27.6734 25.0733 24.5542 28.1853 20.7648 28.1837C16.936 28.1821 13.835 25.0709 13.8413 21.2382C13.8476 17.4283 16.9667 14.3288 20.7806 14.3438C24.5936 14.3588 27.6875 17.4716 27.6804 21.2854V21.2846ZM26.4123 21.2846C26.4147 18.1608 23.8997 15.6064 20.8121 15.5978C17.641 15.5891 15.0945 18.1269 15.0961 21.2941C15.0976 24.3856 17.6362 26.903 20.7632 26.9148C23.8635 26.9258 26.4099 24.3888 26.4123 21.2846Z" fill="black"/>
<path d="M13.8404 12.7849C13.8404 13.0795 13.8435 13.3733 13.8404 13.6679C13.8309 14.4051 13.3355 14.9399 12.5983 14.9651C11.9618 14.9872 11.323 14.9864 10.6858 14.9651C9.96119 14.9415 9.45709 14.4272 9.43818 13.7017C9.42164 13.0842 9.42322 12.4659 9.4374 11.8484C9.45473 11.0812 9.98561 10.5708 10.7544 10.5661C11.353 10.5621 11.9508 10.5606 12.5494 10.5661C13.2961 10.5732 13.8278 11.1009 13.8396 11.8436C13.8451 12.1571 13.8404 12.4714 13.8404 12.7849ZM12.5715 11.8373H10.7252V13.6844H12.5715V11.8373Z" fill="black"/>
<path d="M7.54611 12.7754C7.54611 13.0802 7.55163 13.3851 7.54454 13.6891C7.52878 14.4193 7.04201 14.9391 6.31264 14.9651C5.67464 14.9879 5.03506 14.9864 4.39706 14.9659C3.6669 14.9423 3.16753 14.4232 3.1565 13.6993C3.14705 13.0802 3.14705 12.4611 3.1565 11.8428C3.16753 11.0875 3.69132 10.5723 4.4459 10.566C5.0453 10.5613 5.64471 10.5613 6.24412 10.566C7.01444 10.5716 7.53115 11.0867 7.54532 11.8617C7.55084 12.1666 7.54611 12.4706 7.54611 12.7754ZM4.42463 11.8318V13.6812H6.27483V11.8318H4.42463Z" fill="black"/>
<path d="M7.54394 19.0462C7.54394 19.3801 7.55418 19.7141 7.54158 20.0481C7.51638 20.7105 7.01779 21.2248 6.3601 21.2422C5.68271 21.2603 5.00454 21.2611 4.32716 21.2406C3.68522 21.2217 3.17875 20.7081 3.16221 20.0622C3.14489 19.3951 3.14567 18.7264 3.16143 18.0584C3.17718 17.396 3.68364 16.8817 4.34212 16.8644C5.00927 16.847 5.67799 16.8478 6.34592 16.8636C7.02094 16.8801 7.52032 17.3929 7.54316 18.0734C7.55418 18.3971 7.54473 18.7217 7.54473 19.0454L7.54394 19.0462ZM6.27818 19.9843V18.1286H4.42798V19.9843H6.27818Z" fill="black"/>
<path d="M10.7149 18.1369V20.0021C11.1087 20.0021 11.4884 20.0005 11.8688 20.0021C12.3178 20.0045 12.6021 20.2479 12.6037 20.6275C12.6053 21.0103 12.3304 21.249 11.8743 21.2537C11.4915 21.2576 11.1079 21.26 10.7251 21.2537C9.98079 21.2403 9.46093 20.7449 9.43888 20.0029C9.42076 19.3751 9.42076 18.7458 9.43888 18.1173C9.46015 17.3745 9.97921 16.8759 10.7235 16.8649C11.3324 16.8562 11.9413 16.8586 12.5501 16.8665C12.6951 16.868 12.8463 16.8885 12.9818 16.9358C13.3015 17.0468 13.4599 17.3461 13.3866 17.658C13.3094 17.9873 13.0298 18.1535 12.6817 18.1432C12.0366 18.1243 11.3899 18.1377 10.7149 18.1377V18.1369Z" fill="black"/>
<path d="M18.8687 11.8411H16.9799C16.9799 11.9592 16.9799 12.0632 16.9799 12.1672C16.9784 12.6681 16.987 13.1691 16.9721 13.6692C16.9618 14.0111 16.6901 14.2623 16.3648 14.2678C16.0537 14.2733 15.7496 14.0378 15.7402 13.718C15.7197 13.0312 15.7031 12.3412 15.7465 11.6568C15.7851 11.0566 16.3167 10.5911 16.9185 10.5753C17.5856 10.558 18.2544 10.5588 18.9215 10.5745C19.5729 10.5895 20.0699 11.0849 20.125 11.7591C20.1455 12.0128 20.1424 12.2703 20.129 12.5247C20.1085 12.917 19.8549 13.1659 19.5004 13.1667C19.1476 13.1667 18.8924 12.9154 18.8703 12.5263C18.8577 12.3034 18.8679 12.0797 18.8679 11.8403L18.8687 11.8411Z" fill="black"/>
<path d="M21.3876 19.49C21.3876 19.8334 21.4128 20.1792 21.3805 20.5195C21.3474 20.8668 21.4671 21.1126 21.7247 21.3331C21.9704 21.5426 22.191 21.7821 22.4139 22.0168C22.6935 22.3114 22.7053 22.6808 22.4548 22.9368C22.1965 23.2007 21.8168 23.1888 21.5152 22.895C21.1284 22.5185 20.737 22.146 20.377 21.7443C20.251 21.6041 20.1502 21.3867 20.1462 21.2016C20.1242 20.1816 20.1313 19.1608 20.1383 18.1408C20.1407 17.7446 20.4172 17.4681 20.7724 17.4768C21.1198 17.4854 21.3789 17.7548 21.386 18.136C21.3939 18.5874 21.3876 19.0387 21.3884 19.49H21.3876Z" fill="black"/>
</svg>
