<svg width="27" height="29" viewBox="0 0 27 29" fill="none" xmlns="http://www.w3.org/2000/svg">
<path d="M1.43196 28.4731C0.815361 28.062 0.472808 27.4454 0.404297 26.7603C0.404297 26.6233 0.404297 26.4863 0.404297 26.4178C0.404297 18.6761 0.404297 11.0029 0.404297 3.26116C0.404297 2.37052 0.67834 1.68541 1.43196 1.13733C1.77451 1.27435 1.98004 1.54839 2.25409 1.75393C3.35026 2.91861 4.51494 3.94627 5.67962 5.04244C7.04984 6.41266 8.48856 7.71436 9.85878 9.08457C11.0235 10.1807 12.1881 11.3454 13.3528 12.4416C14.0379 13.1267 14.723 13.7433 15.4081 14.4284C15.5452 14.5654 15.6822 14.6339 15.6137 14.8395C15.0656 15.5246 14.449 16.0727 13.8324 16.6893C13.7639 16.7578 13.6269 16.8263 13.5584 16.8948C12.5992 17.9225 11.503 18.8816 10.4754 19.8408C9.03665 21.2795 7.52941 22.6497 6.09069 24.0884C4.78898 25.3216 3.48728 26.5548 2.18557 27.8565C1.91153 28.1306 1.706 28.4046 1.43196 28.4731Z" fill="#2195F2"/>
<path d="M1.43164 28.4729C3.28143 26.6916 5.19973 24.8418 7.04952 23.0605C9.92697 20.3201 12.7359 17.5797 15.6134 14.8392C15.6134 14.8392 15.6819 14.8392 15.7504 14.8392C15.8874 14.8392 16.0244 14.9763 16.1614 15.1133C17.1891 16.2094 18.2853 17.1686 19.3129 18.1963C19.6555 18.5388 20.0666 18.8814 20.4091 19.2239C20.4776 19.3609 20.6146 19.4295 20.6146 19.5665C19.587 20.1146 18.5593 20.7312 17.5317 21.2792C13.0785 23.6771 8.69378 26.075 4.24058 28.5414C3.34994 29.021 2.52781 29.158 1.63717 28.6784C1.56866 28.6099 1.50015 28.5414 1.43164 28.4729Z" fill="#F34336"/>
<path d="M15.6135 14.8392C15.0654 14.2911 14.5173 13.7431 13.9693 13.2635C12.051 11.4137 10.0641 9.49538 8.14584 7.64559C5.88499 5.45325 3.62414 3.32942 1.36328 1.13707C2.1169 0.520476 3.00754 0.451969 3.82967 0.931544C5.9535 2.09623 8.07733 3.26091 10.2012 4.42559C13.4897 6.20687 16.8467 8.05666 20.1352 9.83794C20.2722 9.90645 20.3408 9.97496 20.4778 10.0435C20.3408 10.523 19.9297 10.7286 19.5871 11.0711C19.3816 11.2767 19.1761 11.4822 18.9705 11.6877C17.9429 12.7154 16.8467 13.743 15.7505 14.7707C15.7505 14.7707 15.682 14.8392 15.6135 14.8392Z" fill="#4CAE50"/>
<path d="M15.6133 14.8392C16.2984 14.1541 17.052 13.469 17.7371 12.7839C18.6963 11.8932 19.5869 11.0026 20.5461 10.0435C21.5737 10.5915 22.6014 11.1396 23.5605 11.6877C24.1771 12.0303 24.7252 12.3043 25.3418 12.6469C26.9861 13.606 26.9861 16.0039 25.3418 16.963C23.7661 17.8537 22.2588 18.6758 20.6831 19.5665C20.6146 19.5665 20.6146 19.5665 20.5461 19.635C18.9018 17.9907 17.2575 16.415 15.6133 14.8392Z" fill="#FEC007"/>
</svg>
