<svg width="10" height="10" viewBox="0 0 10 10" fill="none" xmlns="http://www.w3.org/2000/svg">
<path d="M6.31305 2.67047L4.68393 1.04135C4.6023 0.959726 4.46996 0.959726 4.38834 1.04135L2.75921 2.67048C2.67758 2.7521 2.67758 2.88445 2.75921 2.96607L4.38833 4.5952C4.46996 4.67682 4.6023 4.67682 4.68393 4.5952L6.31305 2.96607C6.39468 2.88444 6.39468 2.7521 6.31305 2.67047Z" fill="black"/>
<path d="M8.87165 5.32672L7.24252 3.6976C7.1609 3.61598 7.02855 3.61598 6.94693 3.69761L5.3178 5.32673C5.23618 5.40835 5.23618 5.5407 5.3178 5.62232L6.94693 7.25145C7.02855 7.33307 7.16089 7.33307 7.24252 7.25145L8.87164 5.62232C8.95327 5.5407 8.95327 5.40835 8.87165 5.32672Z" fill="black"/>
<path d="M6.30036 7.82087L4.67124 6.19174C4.58961 6.11012 4.45726 6.11012 4.37564 6.19175L2.74651 7.82087C2.66489 7.9025 2.66489 8.03484 2.74651 8.11646L4.37564 9.74559C4.45726 9.82721 4.58961 9.82722 4.67124 9.74559L6.30036 8.11647C6.38199 8.03484 6.38198 7.90249 6.30036 7.82087Z" fill="black"/>
<path d="M3.73786 5.2613L2.10874 3.63217C2.02711 3.55055 1.89477 3.55055 1.81314 3.63217L0.184014 5.2613C0.102388 5.34292 0.102388 5.47527 0.184014 5.55689L1.81314 7.18602C1.89476 7.26764 2.02711 7.26764 2.10873 7.18602L3.73786 5.55689C3.81948 5.47526 3.81948 5.34292 3.73786 5.2613Z" fill="black"/>
</svg>
