<svg width="11" height="12" viewBox="0 0 11 12" fill="none" xmlns="http://www.w3.org/2000/svg">
<path d="M1.72197 3.07567H1.28077C1.28077 3.07567 1.19052 3.07567 1.14038 3.07567C1.10027 3.07567 1.07019 3.04559 1.04011 3.01551C1.01003 2.98543 1 2.94532 1 2.90521C1 2.8651 1.01003 2.82499 1.04011 2.79491C1.06016 2.76483 1.10027 2.74477 1.14038 2.73474C1.18049 2.73474 1.23063 2.73474 1.27074 2.73474H3.36647C3.36647 2.49408 3.36647 2.25343 3.36647 2.0228C3.36647 1.81222 3.43666 1.60164 3.56702 1.43118C3.69737 1.26071 3.86784 1.13036 4.06839 1.06016C4.17869 1.02005 4.29902 1 4.41935 1C5.12127 1 5.81316 1 6.51508 1C7.1067 1 7.55793 1.45123 7.56796 2.05288C7.56796 2.27348 7.56796 2.49408 7.56796 2.73474C7.61809 2.73474 7.6582 2.73474 7.69831 2.73474H9.66369C9.66369 2.73474 9.74391 2.73474 9.78402 2.73474C9.87426 2.7548 9.93443 2.81496 9.9244 2.90521C9.9244 3.00548 9.86424 3.06565 9.77399 3.06565C9.62358 3.06565 9.47317 3.06565 9.32275 3.06565C9.29267 3.06565 9.26259 3.06565 9.21245 3.06565V9.13223C9.21245 10.0447 8.61081 10.7868 7.71837 10.9673C7.58801 10.9873 7.45766 11.0074 7.31727 10.9973C6.0839 10.9973 4.85053 10.9973 3.62718 10.9973C2.63447 10.9973 1.88241 10.3355 1.75206 9.35284C1.75206 9.26259 1.74203 9.17234 1.74203 9.0821V3.07567H1.72197ZM8.85147 3.07567H2.07293V9.13223C2.07293 10.0046 2.72471 10.6664 3.60713 10.6664C4.85053 10.6664 6.09393 10.6664 7.33733 10.6664C7.44763 10.6664 7.56796 10.6564 7.67826 10.6363C8.38018 10.4759 8.86149 9.88429 8.86149 9.16232C8.86149 7.16686 8.86149 5.18143 8.86149 3.18598V3.0857L8.85147 3.07567ZM3.7074 2.71469H7.20697V2.07293C7.20697 2.07293 7.20697 1.98269 7.20697 1.93255C7.16686 1.60164 6.87607 1.3309 6.54516 1.3309C5.82319 1.3309 5.10121 1.3309 4.37924 1.3309C4.03831 1.3309 3.74751 1.60164 3.71743 1.94258C3.69737 2.19326 3.71743 2.45397 3.71743 2.71469H3.7074Z" fill="white" stroke="white" stroke-width="0.5"/>
<path d="M3.54688 6.84584V5.30162C3.54688 5.18129 3.61707 5.1111 3.71734 5.10107C3.81762 5.10107 3.88781 5.17127 3.89783 5.30162V8.31987C3.89783 8.31987 3.89783 8.40009 3.89783 8.4402C3.89783 8.48031 3.86775 8.51039 3.83767 8.54048C3.80759 8.56053 3.76748 8.58059 3.72737 8.57056C3.68726 8.57056 3.64715 8.57056 3.61707 8.54048C3.58698 8.51039 3.56693 8.48031 3.5569 8.4402C3.5569 8.40009 3.5569 8.35998 3.5569 8.31987C3.5569 7.82853 3.5569 7.33719 3.5569 6.84584H3.54688Z" fill="white" stroke="white" stroke-width="0.5"/>
<path d="M7.37609 6.85561V8.30959C7.37609 8.30959 7.37609 8.37978 7.37609 8.41989C7.36606 8.52016 7.29587 8.58033 7.20562 8.58033C7.11538 8.58033 7.05521 8.52016 7.03516 8.42991C7.03516 8.40986 7.03516 8.3898 7.03516 8.36975V5.34147C7.03516 5.34147 7.03516 5.29133 7.03516 5.26125C7.05521 5.16098 7.11538 5.11084 7.20562 5.11084C7.24573 5.11084 7.28584 5.12087 7.31592 5.15095C7.34601 5.18103 7.36606 5.21111 7.36606 5.25122C7.36606 5.29133 7.36606 5.33144 7.36606 5.37155C7.36606 5.8629 7.36606 6.36427 7.36606 6.85561H7.37609Z" fill="white" stroke="white" stroke-width="0.5"/>
<path d="M5.29297 6.83556V5.36153C5.29297 5.36153 5.29297 5.29133 5.29297 5.25122C5.31302 5.16098 5.37319 5.11084 5.46343 5.11084C5.55368 5.11084 5.61385 5.16098 5.6339 5.25122C5.6339 5.27128 5.6339 5.29133 5.6339 5.30136V8.38981C5.6339 8.51013 5.56371 8.58033 5.46343 8.58033C5.36316 8.58033 5.29297 8.51013 5.29297 8.37978C5.29297 7.86838 5.29297 7.34695 5.29297 6.83556Z" fill="white" stroke="white" stroke-width="0.5"/>
</svg>
