<svg width="15" height="15" viewBox="0 0 15 15" fill="none" xmlns="http://www.w3.org/2000/svg">
<path d="M14.2801 7.3688C14.278 8.78248 13.8564 10.1637 13.0686 11.3376C12.2808 12.5114 11.1623 13.4251 9.85476 13.9626C8.54724 14.5 7.1095 14.6372 5.7239 14.3568C4.33829 14.0765 3.06724 13.3911 2.07155 12.3876C1.07587 11.3841 0.400352 10.1074 0.13088 8.71963C-0.138592 7.33187 0.0101214 5.89544 0.557882 4.59219C1.10564 3.28894 2.0278 2.17763 3.20778 1.39907C4.38777 0.62052 5.7724 0.209792 7.18606 0.218898C9.07386 0.229742 10.8803 0.988376 12.21 2.32852C13.5396 3.66866 14.2841 5.48097 14.2801 7.3688ZM7.14113 13.6598C8.38673 13.6598 9.60435 13.2906 10.6402 12.5988C11.676 11.907 12.4833 10.9237 12.9605 9.7731C13.4376 8.62251 13.5631 7.35623 13.3208 6.13443C13.0785 4.91262 12.4795 3.79006 11.5994 2.9086C10.7193 2.02713 9.59766 1.42625 8.37624 1.18203C7.15482 0.937818 5.88843 1.06123 4.73708 1.53653C3.58573 2.01182 2.60119 2.81773 1.90774 3.85244C1.21428 4.88716 0.843062 6.10416 0.841085 7.34976C0.839771 8.17793 1.00163 8.99831 1.31765 9.76382C1.63366 10.5293 2.0975 11.2251 2.68264 11.8112C3.26778 12.3973 3.9628 12.8621 4.7278 13.1793C5.49281 13.4966 6.31296 13.6598 7.14113 13.6598Z" fill="#C2C2C2"/>
<path d="M7.56342 6.93957H12.1433C12.1996 6.93337 12.2567 6.93846 12.311 6.95471C12.3653 6.97097 12.4158 6.99816 12.4594 7.0343C12.5031 7.07044 12.539 7.11486 12.5651 7.16516C12.5912 7.21546 12.6069 7.27053 12.6113 7.32702C12.6157 7.38352 12.6087 7.44027 12.5908 7.49402C12.5728 7.54777 12.5443 7.59752 12.5068 7.64001C12.4693 7.68251 12.4236 7.71683 12.3725 7.74133C12.3214 7.76584 12.266 7.77995 12.2094 7.78259C12.1754 7.78259 12.1423 7.78259 12.1093 7.78259H7.20942C7.14363 7.79126 7.07671 7.7846 7.01386 7.7633C6.95102 7.74201 6.89384 7.70666 6.84687 7.65979C6.7999 7.61292 6.76429 7.55584 6.74287 7.49304C6.72145 7.43024 6.7148 7.36329 6.72334 7.29748C6.72334 5.64948 6.72334 4.00195 6.72334 2.35461C6.71675 2.2979 6.72177 2.24041 6.73798 2.18567C6.7542 2.13092 6.78141 2.07999 6.81782 2.03601C6.85423 1.99203 6.89915 1.95596 6.9499 1.92981C7.00065 1.90366 7.05604 1.88803 7.11298 1.88391C7.16993 1.87979 7.22721 1.88731 7.2812 1.90588C7.33519 1.92445 7.38483 1.95378 7.42719 1.99206C7.46955 2.03034 7.50361 2.0767 7.52754 2.12854C7.55146 2.18038 7.56471 2.23651 7.56635 2.29358C7.56635 2.33058 7.56635 2.36766 7.56635 2.40466V6.93664L7.56342 6.93957Z" fill="#C2C2C2"/>
</svg>
