<svg width="14" height="13" viewBox="0 0 14 13" fill="none" xmlns="http://www.w3.org/2000/svg">
<path d="M7.22257 12.6502C5.63268 12.6502 4.04248 12.6502 2.45198 12.6502C1.37292 12.6502 0.692769 11.9687 0.691406 10.8915C0.691406 10.2481 0.691406 9.60462 0.691406 8.96097C0.691406 8.54479 0.894952 8.29263 1.23162 8.289C1.56829 8.28536 1.78228 8.54116 1.78274 8.95052C1.78274 9.60932 1.78274 10.2681 1.78274 10.9265C1.78274 11.3467 1.99219 11.5584 2.40927 11.5584C5.62692 11.5584 8.84458 11.5584 12.0622 11.5584C12.4784 11.5584 12.6842 11.3463 12.6851 10.9224C12.6851 10.2563 12.6851 9.58978 12.6851 8.92326C12.6851 8.53525 12.9082 8.28218 13.2385 8.28718C13.5597 8.29218 13.7746 8.54116 13.7755 8.9169C13.7755 9.59841 13.7792 10.2799 13.7755 10.9614C13.7701 11.9469 13.07 12.6461 12.0813 12.648C10.4629 12.653 8.84276 12.6502 7.22257 12.6502Z" fill="white"/>
<path d="M6.68972 8.7747V8.49709C6.68972 6.08938 6.68972 3.68137 6.68972 1.27305C6.68972 0.799176 7.08727 0.517027 7.47619 0.713757C7.70336 0.82916 7.78196 1.0318 7.78151 1.2776C7.77878 2.74664 7.77878 4.21568 7.78151 5.68471V8.75607C7.82967 8.73159 7.87626 8.70413 7.92099 8.67383C8.47801 8.2313 9.03443 7.78802 9.59024 7.34397C9.89192 7.10363 10.2072 7.11044 10.4149 7.36214C10.6339 7.62748 10.583 7.94098 10.2731 8.1895C9.40532 8.88616 8.53662 9.58115 7.66701 10.2745C7.34579 10.5303 7.12998 10.5316 6.81376 10.2795C5.95566 9.59524 5.09877 8.90963 4.24309 8.22267C4.0091 8.03457 3.94323 7.77696 4.05499 7.53752C4.10547 7.4258 4.19375 7.33546 4.30429 7.28244C4.41483 7.22941 4.54054 7.21709 4.65927 7.24765C4.77422 7.28231 4.88079 7.34031 4.97231 7.41803C5.49662 7.82694 6.01502 8.24675 6.5357 8.66202C6.57432 8.69382 6.61612 8.72154 6.68972 8.7747Z" fill="white"/>
</svg>
