<svg width="17" height="16" viewBox="0 0 17 16" fill="none" xmlns="http://www.w3.org/2000/svg">
<path d="M8.27138 15.7957C6.28401 15.7957 4.29627 15.7957 2.30814 15.7957C0.959313 15.7957 0.109126 14.9438 0.107422 13.5972C0.107422 12.7931 0.107422 11.9887 0.107422 11.1841C0.107422 10.6639 0.361854 10.3487 0.782689 10.3442C1.20352 10.3396 1.47102 10.6594 1.47159 11.1711C1.47159 11.9946 1.47159 12.818 1.47159 13.641C1.47159 14.1663 1.7334 14.431 2.25476 14.431C6.27682 14.431 10.2989 14.431 14.3209 14.431C14.8412 14.431 15.0984 14.1657 15.0996 13.6359C15.0996 12.8033 15.0996 11.9701 15.0996 11.137C15.0996 10.652 15.3784 10.3356 15.7913 10.3419C16.1928 10.3481 16.4615 10.6594 16.4626 11.129C16.4626 11.9809 16.4671 12.8328 16.4626 13.6847C16.4558 14.9165 15.5806 15.7906 14.3448 15.7929C12.3218 15.7991 10.2966 15.7957 8.27138 15.7957Z" fill="#6CB5F9"/>
<path d="M7.60483 10.9523V10.6053C7.60483 7.59562 7.60483 4.5856 7.60483 1.5752C7.60483 0.982856 8.10177 0.63017 8.58791 0.876083C8.87188 1.02034 8.97013 1.27363 8.96956 1.58088C8.96615 3.41718 8.96615 5.25348 8.96956 7.08978V10.929C9.02976 10.8984 9.088 10.864 9.14391 10.8262C9.84019 10.273 10.5357 9.71891 11.2305 9.16385C11.6076 8.86342 12.0017 8.87193 12.2613 9.18656C12.535 9.51823 12.4714 9.91011 12.0841 10.2208C10.9993 11.0916 9.91346 11.9603 8.82644 12.827C8.42492 13.1467 8.15515 13.1484 7.75987 12.8332C6.68725 11.9779 5.61613 11.1209 4.54654 10.2622C4.25406 10.0271 4.17171 9.70509 4.31142 9.40579C4.37451 9.26613 4.48487 9.15322 4.62304 9.08693C4.76121 9.02065 4.91835 9.00525 5.06676 9.04345C5.21046 9.08677 5.34367 9.15928 5.45806 9.25642C6.11345 9.76756 6.76146 10.2923 7.4123 10.8114C7.46058 10.8512 7.51283 10.8858 7.60483 10.9523Z" fill="#6CB5F9"/>
</svg>
