<svg width="17" height="15" viewBox="0 0 17 15" fill="none" xmlns="http://www.w3.org/2000/svg">
<path d="M8.16396 15.0008C6.17659 15.0008 4.18884 15.0008 2.20072 15.0008C0.851891 15.0008 0.00170378 14.1489 0 12.8023C0 11.9981 0 11.1938 0 10.3892C0 9.86898 0.254432 9.55378 0.675267 9.54923C1.0961 9.54469 1.3636 9.86444 1.36416 10.3761C1.36416 11.1996 1.36416 12.0231 1.36416 12.8461C1.36416 13.3714 1.62598 13.636 2.14733 13.636C6.1694 13.636 10.1915 13.636 14.2135 13.636C14.7337 13.636 14.991 13.3708 14.9922 12.8409C14.9922 12.0084 14.9922 11.1752 14.9922 10.3421C14.9922 9.85705 15.271 9.54072 15.6839 9.54697C16.0854 9.55321 16.354 9.86444 16.3552 10.3341C16.3552 11.186 16.3597 12.0379 16.3552 12.8898C16.3484 14.1216 15.4732 14.9957 14.2374 14.9979C12.2144 15.0042 10.1892 15.0008 8.16396 15.0008Z" fill="#FF2116"/>
<path d="M7.4979 10.1554V9.80838C7.4979 6.79874 7.4979 3.78872 7.4979 0.77833C7.4979 0.185981 7.99483 -0.166705 8.48098 0.0792077C8.76494 0.223461 8.86319 0.476759 8.86262 0.784008C8.85922 2.62031 8.85922 4.45661 8.86262 6.29291V10.1321C8.92283 10.1015 8.98106 10.0672 9.03698 10.0293C9.73326 9.47614 10.4288 8.92203 11.1235 8.36698C11.5006 8.06654 11.8948 8.07506 12.1543 8.38969C12.4281 8.72136 12.3645 9.11323 11.9771 9.42389C10.8924 10.2947 9.80652 11.1635 8.71951 12.0301C8.31798 12.3499 8.04822 12.3516 7.65294 12.0364C6.58031 11.1811 5.5092 10.3241 4.4396 9.46535C4.14712 9.23023 4.06477 8.90821 4.20448 8.60892C4.26758 8.46926 4.37793 8.35634 4.51611 8.29006C4.65428 8.22378 4.81141 8.20838 4.95983 8.24658C5.10352 8.2899 5.23673 8.3624 5.35113 8.45955C6.00652 8.97069 6.65452 9.49545 7.30537 10.0145C7.35364 10.0543 7.40589 10.0889 7.4979 10.1554Z" fill="#FF2116"/>
</svg>
