<svg width="18" height="18" viewBox="0 0 18 18" fill="none" xmlns="http://www.w3.org/2000/svg">
<circle cx="9" cy="9" r="9" fill="#DEE2E6"/>
<path d="M13.3658 4.80414C13.3658 4.76343 13.33 4.70371 13.2949 4.68492C12.9823 4.51783 12.6753 4.33419 12.3493 4.20088C11.6889 3.93068 11.0147 3.92978 10.3596 4.2181C9.97654 4.38676 9.61258 4.60171 9.24168 4.79922C8.91346 4.97414 8.57809 5.124 8.20611 5.16605C7.64759 5.22891 7.15018 5.03408 6.66489 4.78177C6.58819 4.74196 6.55505 4.69431 6.55873 4.60193C6.56631 4.40622 6.56111 4.20983 6.56111 4.00986H6V14H6.56328V10.078C6.60141 10.0944 6.62741 10.1049 6.65297 10.1165C6.99376 10.2724 7.34472 10.3932 7.71649 10.437C8.29493 10.5053 8.83135 10.3556 9.34264 10.0897C9.73476 9.88589 10.1163 9.65885 10.5153 9.47119C10.953 9.26518 11.414 9.22089 11.8867 9.34951C12.3239 9.4685 12.7228 9.66825 13.0941 9.93107C13.1781 9.99057 13.2641 10.0474 13.3595 10.1125C13.3647 10.0787 13.3686 10.0648 13.3686 10.051C13.369 8.30202 13.3694 6.55308 13.366 4.80414H13.3658ZM12.7981 9.01399C12.7981 9.02808 12.7932 9.04195 12.7895 9.06096C12.6185 8.99296 12.4532 8.92206 12.2845 8.86144C11.5375 8.59236 10.8098 8.65655 10.1057 9.01533C9.73152 9.20613 9.36755 9.4184 8.99427 9.61143C8.38311 9.92727 7.757 9.94941 7.12396 9.68368C6.95433 9.61233 6.78924 9.52845 6.62567 9.44323C6.59556 9.42757 6.56371 9.37724 6.56371 9.34302C6.5609 8.04099 6.56155 6.73896 6.56198 5.43693C6.56198 5.42619 6.5661 5.41523 6.57043 5.39465C6.68764 5.44341 6.80267 5.49106 6.9175 5.53915C7.7401 5.88316 8.54299 5.82299 9.32725 5.41031C9.70552 5.21123 10.0758 4.99538 10.459 4.80705C11.0405 4.52119 11.6358 4.527 12.2294 4.77305C12.3995 4.84351 12.5646 4.92716 12.7279 5.01283C12.7607 5.02983 12.7958 5.08307 12.7958 5.11975C12.7992 6.41798 12.7986 7.71643 12.7979 9.01466L12.7981 9.01399Z" fill="white"/>
</svg>
