<svg width="23" height="17" viewBox="0 0 23 17" fill="none" xmlns="http://www.w3.org/2000/svg">
<mask id="mask0_6874_6799" style="mask-type:alpha" maskUnits="userSpaceOnUse" x="0" y="0" width="23" height="17">
<rect x="0.423828" y="0.361084" width="22.4241" height="16.0172" rx="2" fill="#FF4B55"/>
</mask>
<g mask="url(#mask0_6874_6799)">
<path d="M24.3984 0.361084H-0.576172V16.3611H24.3984V0.361084Z" fill="#0D0D86"/>
<path d="M-0.576172 16.3611H2.2934L24.3984 2.156V0.361084H21.7902L-0.576172 14.6503V16.3611Z" fill="white"/>
<path d="M2.16465 0.361084H-0.576172V2.07059L21.6614 16.3611H24.3984V14.5649L2.16465 0.361084Z" fill="white"/>
<path d="M-0.576172 16.2962V16.3586H1.15118L11.4503 9.79596L10.5261 9.2019L-0.576172 16.2962Z" fill="#BF0000"/>
<path d="M22.4934 0.361084L12.3281 6.85491L13.2587 7.44769L24.3826 0.361084H22.4934Z" fill="#BF0000"/>
<path d="M-0.576172 1.62823L5.95717 5.84144H8.06314L-0.516256 0.361084H-0.576172V1.62823Z" fill="#BF0000"/>
<path d="M24.3987 15.0143L17.9278 10.8801H16.0449L24.3987 16.2139V15.0143Z" fill="#BF0000"/>
<path d="M24.3984 5.84144H14.0139V0.361084H9.80706V5.84144H-0.576172V10.8794H9.80706V16.3611H14.0139V10.8794H24.3984V5.84144Z" fill="white"/>
<path d="M24.3984 6.78174H-0.576172V9.93049H24.3984V6.78174Z" fill="#BF0000"/>
<path d="M13.0645 0.361084H10.7559V16.3611H13.0645V0.361084Z" fill="#BF0000"/>
</g>
</svg>
