<svg width="15" height="15" viewBox="0 0 15 15" fill="none" xmlns="http://www.w3.org/2000/svg">
<path d="M7.43647 14.9933C5.55654 14.9933 3.67654 15.0064 1.79923 14.9933C0.597074 14.9802 0.0661746 14.4361 0.00849188 13.2379C-0.0701663 11.6647 0.392599 10.8205 1.60656 10.8008C5.51937 10.7414 9.43312 10.7436 13.3477 10.8074C14.5839 10.8283 14.9903 11.6621 14.8789 13.3887C14.8067 14.503 14.2953 14.9854 13.0827 14.9959C11.1975 15.0051 9.3164 14.9933 7.43647 14.9933Z" fill="white"/>
<path d="M7.65755 8.08763L5.53906 5.77903C7.21317 4.01184 8.87546 2.17519 10.6335 0.442091C10.898 0.167281 11.2603 0.00843429 11.6417 0.00032632C12.023 -0.00778165 12.3922 0.135483 12.6681 0.398802C12.9667 0.687179 13.1432 1.07929 13.161 1.49405C13.1788 1.90881 13.0366 2.31455 12.7638 2.62747C12.7337 2.65631 12.7009 2.68515 12.6668 2.71268C11.057 4.45234 9.43391 6.18017 7.65755 8.08763Z" fill="white"/>
<path d="M3.78906 9.28156C3.93327 8.33241 4.04322 7.60221 4.20578 6.54688L6.32171 8.8686L3.78906 9.28156Z" fill="white"/>
</svg>
