<svg width="27" height="27" viewBox="0 0 27 27" fill="none" xmlns="http://www.w3.org/2000/svg">
<mask id="mask0_579_3585" style="mask-type:alpha" maskUnits="userSpaceOnUse" x="0" y="0" width="27" height="27">
<path d="M16.31 26.6426H10.331C7.59092 26.6423 4.9632 25.5536 3.02579 23.6161C1.08838 21.6785 -3.24249e-05 19.0506 -3.24249e-05 16.3106L-3.24249e-05 10.3316C0.000232697 7.59171 1.08876 4.96413 3.02614 3.02675C4.96352 1.08937 7.5911 0.000843048 10.331 0.000577927L16.31 0.000577927C19.05 0.000577927 21.6778 1.08899 23.6154 3.0264C25.553 4.96381 26.6417 7.59153 26.642 10.3316L26.642 16.3106C26.642 19.0508 25.5534 21.6788 23.6158 23.6164C21.6782 25.554 19.0502 26.6426 16.31 26.6426V26.6426Z" fill="url(#paint0_linear_579_3585)"/>
</mask>
<g mask="url(#mask0_579_3585)">
<path d="M28.642 16.5138L28.642 9.48622C28.642 3.14256 23.4994 -2 17.1557 -2L10.1282 -2C3.78453 -2 -1.35803 3.14256 -1.35803 9.48622L-1.35803 16.5138C-1.35803 22.8574 3.78453 28 10.1282 28L17.1557 28C23.4994 28 28.642 22.8574 28.642 16.5138Z" fill="url(#paint1_linear_579_3585)"/>
</g>
<path fill-rule="evenodd" clip-rule="evenodd" d="M13.305 7.55717C13.3599 7.51663 13.4347 7.51598 13.4903 7.55557L20.6369 12.6418C20.7553 12.726 20.9196 12.6984 21.0039 12.58C21.0882 12.4615 21.0605 12.2972 20.9421 12.213L13.7955 7.12676C13.5545 6.95522 13.2305 6.95802 12.9925 7.1337L6.1069 12.2156C5.98997 12.3019 5.96513 12.4667 6.05144 12.5836C6.13775 12.7006 6.30251 12.7254 6.41945 12.6391L13.305 7.55717ZM13.5173 8.60901C13.4616 8.56921 13.3866 8.56986 13.3316 8.61062L8.06393 12.5126C8.02373 12.5424 8.00002 12.5894 8.00002 12.6395V19.7958C8.00002 19.883 8.07071 19.9537 8.15791 19.9537H18.8948C18.982 19.9537 19.0526 19.883 19.0526 19.7958V12.6441C19.0526 12.5931 19.028 12.5452 18.9865 12.5156L13.5173 8.60901ZM13.0183 8.18769C13.2567 8.01108 13.5818 8.00827 13.8233 8.18073L19.2924 12.0873C19.4722 12.2157 19.579 12.4231 19.579 12.6441V19.7958C19.579 20.1737 19.2726 20.48 18.8948 20.48H8.15791C7.78003 20.48 7.4737 20.1737 7.4737 19.7958V12.6395C7.4737 12.4227 7.57644 12.2187 7.75065 12.0897L13.0183 8.18769ZM13.2135 13.1374C13.2136 13.1374 13.2136 13.1375 13.0776 13.2177L13.2136 13.1375L13.3145 13.3084L13.1253 13.3683C12.5721 13.5433 11.9311 13.3748 11.5493 13.1472C11.4519 13.0891 11.3656 13.024 11.2992 12.9543C11.2351 12.8869 11.1774 12.8023 11.1619 12.705C11.1444 12.5947 11.1852 12.4925 11.2722 12.4189C11.3505 12.3527 11.4603 12.3136 11.5862 12.2911C12.1056 12.1981 12.5178 12.4202 12.7898 12.6504C12.9262 12.7659 13.0312 12.8862 13.1019 12.9775C13.1375 13.0233 13.1647 13.0622 13.1834 13.0902C13.1928 13.1041 13.2 13.1154 13.205 13.1235C13.2075 13.1275 13.2095 13.1307 13.2109 13.1331L13.2127 13.1359L13.2132 13.1369L13.2134 13.1372L13.2135 13.1374ZM12.8069 13.1147C12.7496 13.0462 12.6754 12.9672 12.5858 12.8914C12.3539 12.6952 12.0343 12.5317 11.6418 12.6019C11.5397 12.6202 11.4931 12.6457 11.4761 12.66L11.4752 12.6608C11.4791 12.6726 11.4918 12.6985 11.528 12.7365C11.5692 12.7799 11.6307 12.8281 11.711 12.8759C11.9864 13.0401 12.4147 13.1618 12.8069 13.1147ZM11 14.4274V14.0063H13.1053V14.4274H11ZM10.6842 13.9011C10.6842 13.7848 10.7785 13.6905 10.8948 13.6905H13.2105C13.3268 13.6905 13.4211 13.7848 13.4211 13.9011V14.5326C13.4211 14.6489 13.3268 14.7432 13.2105 14.7432H10.8948C10.7785 14.7432 10.6842 14.6489 10.6842 14.5326V13.9011ZM11.4211 17.5853V15.48H13.1053V17.5853H11.4211ZM11.1053 15.3747C11.1053 15.2585 11.1995 15.1642 11.3158 15.1642H13.2105C13.3268 15.1642 13.4211 15.2585 13.4211 15.3747V17.6905C13.4211 17.8068 13.3268 17.9011 13.2105 17.9011H11.3158C11.1995 17.9011 11.1053 17.8068 11.1053 17.6905V15.3747ZM14.1579 15.48V17.5853H15.8421V15.48H14.1579ZM14.0526 15.1642C13.9364 15.1642 13.8421 15.2585 13.8421 15.3747V17.6905C13.8421 17.8068 13.9364 17.9011 14.0526 17.9011H15.9474C16.0637 17.9011 16.1579 17.8068 16.1579 17.6905V15.3747C16.1579 15.2585 16.0637 15.1642 15.9474 15.1642H14.0526ZM14.1579 14.4274V14.0063H16.2632V14.4274H14.1579ZM13.8421 13.9011C13.8421 13.7848 13.9364 13.6905 14.0526 13.6905H16.3684C16.4847 13.6905 16.579 13.7848 16.579 13.9011V14.5326C16.579 14.6489 16.4847 14.7432 16.3684 14.7432H14.0526C13.9364 14.7432 13.8421 14.6489 13.8421 14.5326V13.9011ZM14.0469 13.1381L14.1832 13.2177C14.0469 13.1381 14.0469 13.138 14.0469 13.138L14.047 13.1378L14.0472 13.1375L14.0478 13.1365L14.0495 13.1336C14.0509 13.1313 14.0529 13.1281 14.0554 13.124C14.0604 13.116 14.0676 13.1047 14.0768 13.0907C14.0954 13.0627 14.1225 13.0238 14.1578 12.9779C14.2282 12.8866 14.3326 12.7661 14.4688 12.6505C14.7403 12.42 15.1525 12.1982 15.6745 12.2911C15.801 12.3136 15.9111 12.3526 15.9897 12.4185C16.0771 12.4917 16.1187 12.5939 16.1014 12.7046C16.0861 12.8022 16.0282 12.887 15.964 12.9543C15.8976 13.024 15.811 13.0892 15.7135 13.1473C15.331 13.3748 14.6887 13.5433 14.1356 13.3683L13.9472 13.3087L14.0469 13.1381ZM14.4529 13.1145C14.5099 13.0461 14.5838 12.9671 14.6731 12.8913C14.9039 12.6954 15.2236 12.5316 15.6192 12.602C15.7221 12.6203 15.7694 12.6458 15.7868 12.6604L15.7879 12.6614C15.784 12.6731 15.7713 12.6988 15.7354 12.7365C15.6941 12.7798 15.6325 12.828 15.552 12.8759C15.2757 13.0402 14.8458 13.162 14.4529 13.1145Z" fill="white"/>
<defs>
<linearGradient id="paint0_linear_579_3585" x1="13.321" y1="26.6426" x2="13.321" y2="13.3216" gradientUnits="userSpaceOnUse">
<stop stop-color="#E52C08"/>
<stop offset="1" stop-color="#F93645"/>
</linearGradient>
<linearGradient id="paint1_linear_579_3585" x1="32.3749" y1="33.1693" x2="-5.80621" y2="-1.67564" gradientUnits="userSpaceOnUse">
<stop offset="0.14075" stop-color="#FF294D"/>
<stop offset="0.57237" stop-color="#FF7F00"/>
</linearGradient>
</defs>
</svg>
