<svg width="18" height="18" viewBox="0 0 18 18" fill="none" xmlns="http://www.w3.org/2000/svg">
<circle cx="9" cy="9" r="9" fill="#FF7F00"/>
<path d="M14.0001 9.00705C13.9987 9.99703 13.7034 10.9643 13.1517 11.7863C12.6 12.6083 11.8167 13.2481 10.9011 13.6245C9.98548 14.0009 8.97866 14.097 8.00834 13.9007C7.03803 13.7043 6.14793 13.2244 5.45067 12.5216C4.75341 11.8189 4.28036 10.9248 4.09165 9.95301C3.90295 8.98119 4.00709 7.97529 4.39067 7.06264C4.77426 6.15 5.42003 5.37177 6.24635 4.82656C7.07267 4.28135 8.04231 3.99373 9.03227 4.0001C10.3543 4.0077 11.6193 4.53896 12.5504 5.47743C13.4816 6.41591 14.0029 7.68504 14.0001 9.00705ZM9.00081 13.4125C9.87308 13.4125 10.7258 13.154 11.4511 12.6695C12.1765 12.1851 12.7419 11.4965 13.076 10.6907C13.4101 9.885 13.498 8.99825 13.3283 8.14264C13.1587 7.28703 12.7391 6.50093 12.1228 5.88365C11.5065 5.26637 10.7211 4.84559 9.86573 4.67457C9.01039 4.50355 8.12356 4.58997 7.31729 4.92281C6.51102 5.25566 5.82157 5.82002 5.33595 6.54461C4.85034 7.2692 4.59038 8.12145 4.589 8.99372C4.58808 9.57367 4.70142 10.1482 4.92272 10.6842C5.14403 11.2203 5.46884 11.7076 5.8786 12.118C6.28837 12.5284 6.77508 12.8539 7.3108 13.0761C7.84651 13.2982 8.42086 13.4125 9.00081 13.4125Z" fill="white"/>
<path d="M9.29004 8.70717H12.4972C12.5367 8.70283 12.5767 8.70639 12.6147 8.71777C12.6527 8.72916 12.6881 8.7482 12.7186 8.77351C12.7492 8.79882 12.7744 8.82992 12.7927 8.86515C12.8109 8.90037 12.8219 8.93894 12.825 8.9785C12.8281 9.01806 12.8232 9.0578 12.8106 9.09544C12.798 9.13308 12.778 9.16792 12.7518 9.19768C12.7255 9.22744 12.6935 9.25147 12.6578 9.26863C12.622 9.28579 12.5832 9.29568 12.5436 9.29752C12.5197 9.29752 12.4966 9.29752 12.4735 9.29752H9.04214C8.99607 9.3036 8.94921 9.29893 8.9052 9.28402C8.86119 9.26911 8.82115 9.24435 8.78826 9.21153C8.75536 9.1787 8.73042 9.13874 8.71542 9.09476C8.70042 9.05078 8.69577 9.00389 8.70175 8.95781C8.70175 7.80375 8.70175 6.65001 8.70175 5.49641C8.69713 5.45669 8.70065 5.41644 8.712 5.3781C8.72336 5.33976 8.74242 5.30409 8.76791 5.2733C8.79341 5.2425 8.82486 5.21724 8.8604 5.19893C8.89595 5.18061 8.93473 5.16967 8.97461 5.16678C9.01449 5.1639 9.0546 5.16917 9.09241 5.18217C9.13021 5.19518 9.16498 5.21572 9.19465 5.24252C9.22431 5.26933 9.24816 5.30179 9.26491 5.33809C9.28167 5.37439 9.29094 5.4137 9.2921 5.45367C9.2921 5.47958 9.2921 5.50555 9.2921 5.53146V8.70512L9.29004 8.70717Z" fill="white"/>
</svg>
