<svg width="16" height="15" viewBox="0 0 16 15" fill="none" xmlns="http://www.w3.org/2000/svg">
<path d="M11.1299 8.45055L10.1597 7.47797C10.1792 7.45299 10.2004 7.42947 10.2233 7.40755L14.136 3.49484C14.1963 3.43335 14.2311 3.42441 14.2948 3.49484C14.5866 3.79444 14.8851 4.08732 15.178 4.38916C15.3208 4.51844 15.4064 4.69905 15.4163 4.89142C15.4261 5.08378 15.3593 5.27225 15.2304 5.41544C15.214 5.43405 15.1966 5.4516 15.178 5.46798L12.9924 7.65571C12.9614 7.69399 12.9202 7.72254 12.8734 7.738C12.8266 7.75346 12.7765 7.75518 12.7288 7.74291C12.6843 7.73124 12.6441 7.7068 12.6133 7.67263C12.5825 7.63847 12.5624 7.59609 12.5554 7.55063C12.5489 7.50385 12.5546 7.45615 12.5721 7.41226C12.5895 7.36836 12.6179 7.32977 12.6548 7.30022C12.9939 6.96261 13.3319 6.62423 13.6687 6.28513L14.8325 5.11918C14.8818 5.08223 14.9146 5.02732 14.9236 4.9664C14.9327 4.90548 14.917 4.84346 14.8805 4.79384C14.8682 4.7769 14.8538 4.76186 14.8371 4.74915L11.1299 8.45055Z" fill="white"/>
<path d="M12.3108 7.83594C12.416 7.96579 12.5667 8.05054 12.7322 8.07291C12.7513 8.07291 12.7735 8.13442 12.7735 8.16796V14.3836C12.7832 14.5158 12.7467 14.6473 12.67 14.7554C12.5933 14.8636 12.4812 14.9416 12.3532 14.976C12.2941 14.9897 12.2338 14.9961 12.1733 14.9951H2.22365C2.14922 15.0018 2.07421 14.9938 2.00285 14.9716C1.9315 14.9494 1.86539 14.9133 1.80798 14.8654C1.75057 14.8176 1.70296 14.7589 1.66824 14.6927C1.63352 14.6265 1.61221 14.5542 1.60547 14.4797C1.60221 14.4463 1.60221 14.4125 1.60547 14.3791V13.317C1.60547 13.2466 1.62342 13.2198 1.69608 13.2232C1.79446 13.2232 1.89167 13.2232 1.98893 13.2232C2.06719 13.2232 2.09404 13.2433 2.09292 13.3249C2.09292 13.6603 2.09292 13.9957 2.09292 14.331C2.09292 14.5088 2.09975 14.5155 2.27414 14.5155H12.134C12.2804 14.5155 12.2896 14.5054 12.2896 14.3612V7.85265L12.3108 7.83594Z" fill="white"/>
<path d="M12.2969 4.82653V0.655555C12.2969 0.494575 12.297 0.489 12.1326 0.489H2.27359C2.11038 0.489 2.10247 0.497908 2.10247 0.662242V1.6684C2.10247 1.74889 2.07785 1.78017 1.99848 1.77122C1.89787 1.76563 1.79614 1.77122 1.69553 1.77122C1.64299 1.77122 1.61392 1.75894 1.61392 1.70081C1.61392 1.30618 1.60733 0.911574 1.62075 0.518067C1.63024 0.375142 1.69499 0.241469 1.80115 0.145314C1.90732 0.0491577 2.04664 -0.00195628 2.1898 0.00270799C2.57437 0.00270799 2.95894 0.00270799 3.34239 0.00270799H12.1493C12.2488 -0.00706617 12.349 0.00972491 12.4399 0.0513576C12.5309 0.0929904 12.6091 0.157949 12.6667 0.239679C12.7329 0.336742 12.7717 0.449977 12.7786 0.567262C12.7853 1.81374 12.7786 3.06244 12.7786 4.30892C12.7811 4.34193 12.7729 4.37483 12.7552 4.40281C12.6132 4.55037 12.4712 4.69346 12.3237 4.8399L12.2969 4.82653Z" fill="white"/>
<path d="M6.81152 10.8278L9.97641 7.66406C9.9943 7.67971 10.0201 7.69988 10.0436 7.72336C10.3174 7.99725 10.59 8.27226 10.8662 8.54392C10.9198 8.59758 10.9276 8.62887 10.8662 8.687C9.8496 9.69909 8.83501 10.7131 7.82218 11.7289C7.80235 11.7476 7.78127 11.7651 7.75941 11.7814L6.81152 10.8278Z" fill="white"/>
<path d="M7.80908 3.8853H10.9931C11.0333 3.88866 11.0708 3.90703 11.0981 3.93674C11.1255 3.96646 11.1407 4.00534 11.1407 4.04571C11.1407 4.08609 11.1255 4.12497 11.0981 4.15468C11.0708 4.18439 11.0333 4.20276 10.9931 4.20613H4.67912C4.63857 4.20742 4.59784 4.20365 4.55821 4.19494C4.51809 4.18256 4.48457 4.15485 4.46487 4.11777C4.44518 4.08068 4.44092 4.03724 4.45314 3.99706C4.46124 3.96923 4.4769 3.94415 4.49817 3.92446C4.51944 3.90477 4.54568 3.89124 4.57404 3.8853C4.61422 3.88198 4.6545 3.88198 4.69468 3.8853H7.80908Z" fill="white"/>
<path d="M7.81408 2.16406H10.9388C11.0898 2.16406 11.1712 2.22216 11.1689 2.32837C11.1667 2.43457 11.0885 2.49049 10.9331 2.49049H4.73544C4.68766 2.49256 4.63988 2.49069 4.59242 2.48489C4.55307 2.48092 4.51663 2.46173 4.49116 2.43146C4.4657 2.4012 4.45314 2.36222 4.45596 2.32277C4.45592 2.28181 4.47184 2.24243 4.50017 2.21285C4.5285 2.18326 4.56705 2.16579 4.60798 2.16406H7.81408Z" fill="white"/>
<path d="M7.80004 5.9313H4.68647C4.5199 5.9313 4.44629 5.88097 4.44629 5.76918C4.44629 5.65738 4.52345 5.60938 4.69001 5.60938H10.9155C11.0787 5.60938 11.1604 5.66415 11.1582 5.77259C11.1559 5.88102 11.0777 5.9313 10.9123 5.9313H7.80004Z" fill="white"/>
<path d="M1.71742 12.352H3.09244C3.13498 12.3499 3.17742 12.3563 3.21744 12.3709C3.25747 12.3854 3.29428 12.4078 3.32552 12.4368C3.35677 12.4657 3.38192 12.5007 3.39949 12.5395C3.41705 12.5783 3.42646 12.6202 3.4276 12.6627C3.42865 12.7085 3.42031 12.754 3.40276 12.7963C3.38521 12.8386 3.35895 12.8767 3.3258 12.9083C3.29264 12.9399 3.25317 12.9642 3.21007 12.9796C3.16698 12.9951 3.12119 13.0014 3.07552 12.9981H0.365605C0.280248 13.006 0.195438 12.9801 0.128975 12.9259C0.0625127 12.8718 0.0198376 12.7938 0.0102512 12.7086C0.0021306 12.6234 0.0280673 12.5385 0.0823045 12.4723C0.136542 12.4061 0.214718 12.3641 0.299829 12.3553C0.315062 12.3536 0.330448 12.3536 0.345681 12.3553C0.801792 12.3508 1.25908 12.352 1.71742 12.352Z" fill="white"/>
<path d="M1.70658 2.64617H0.332649C0.261457 2.6462 0.191982 2.62356 0.134503 2.58155C0.0770226 2.53955 0.034371 2.48031 0.0127761 2.41247C-0.00604535 2.34891 -0.00401871 2.28104 0.0185076 2.21869C0.0410339 2.15635 0.082947 2.10278 0.138051 2.06592C0.197264 2.02782 0.265572 2.00625 0.335924 2.00335C1.25187 1.99888 2.16783 1.99888 3.08378 2.00335C3.12773 2.00077 3.17177 2.00715 3.21314 2.02219C3.25452 2.03722 3.29247 2.06056 3.3245 2.09076C3.35653 2.12096 3.38211 2.15746 3.39956 2.19788C3.417 2.23831 3.42576 2.28186 3.42576 2.32589C3.42576 2.36992 3.417 2.41347 3.39956 2.45389C3.38211 2.49432 3.35653 2.53075 3.3245 2.56095C3.29247 2.59115 3.25452 2.61448 3.21314 2.62952C3.17177 2.64456 3.12773 2.65094 3.08378 2.64835L1.70658 2.64617Z" fill="white"/>
<path d="M1.7129 8.90178H3.07673C3.14446 8.90032 3.21084 8.91939 3.26751 8.9565C3.32418 8.99362 3.36842 9.04708 3.39415 9.10975C3.42044 9.17049 3.42594 9.23814 3.40998 9.30237C3.39402 9.36661 3.35738 9.42387 3.30572 9.46524C3.23849 9.51452 3.15882 9.54356 3.07564 9.54903C2.16193 9.555 1.2484 9.555 0.33543 9.54903C0.293286 9.55099 0.251196 9.54461 0.21152 9.53027C0.171845 9.51592 0.13541 9.4939 0.104259 9.46545C0.0731075 9.437 0.0478949 9.40268 0.0300222 9.36446C0.0121496 9.32625 0.00186581 9.28489 0 9.24274V9.21927C0.00374767 9.13286 0.0409467 9.05129 0.10344 8.99151C0.165934 8.93172 0.248945 8.89836 0.33543 8.89844H1.71045L1.7129 8.90178Z" fill="white"/>
<path d="M1.70209 6.10439H0.351911C0.308419 6.10795 0.264517 6.10274 0.223088 6.08904C0.181659 6.07533 0.143433 6.05342 0.110641 6.02463C0.0778498 5.99584 0.0512605 5.96077 0.0323107 5.92146C0.0133609 5.88215 0.0024785 5.83943 0.000377953 5.79584C-0.00172259 5.75226 0.00494676 5.70865 0.0200289 5.6677C0.035111 5.62676 0.0581171 5.58925 0.0879882 5.55744C0.117859 5.52563 0.153965 5.50021 0.193885 5.48259C0.233804 5.46496 0.276892 5.45553 0.320524 5.45489H3.04818C3.12575 5.4469 3.20383 5.46622 3.26871 5.50947C3.33359 5.55273 3.38134 5.61719 3.40381 5.69186C3.42728 5.77487 3.41677 5.86379 3.37488 5.9392C3.33298 6.01461 3.26289 6.07044 3.18 6.09436C3.14651 6.10349 3.11208 6.10762 3.07738 6.10664H1.70209V6.10439Z" fill="white"/>
<path d="M9.80008 7.35828C9.70618 7.45331 9.61434 7.54946 9.51596 7.64001C9.49584 7.6579 9.45234 7.65455 9.4188 7.65455H4.64963C4.52107 7.65455 4.44742 7.59532 4.4463 7.49359C4.44518 7.39186 4.5178 7.32812 4.64636 7.32812H9.78889L9.80008 7.35828Z" fill="white"/>
<path d="M6.61847 11.0312L7.56663 11.977C7.54986 11.9871 7.52629 12.0039 7.50058 12.0173L6.12229 12.7137H6.11328C6.08161 12.7384 6.04199 12.7507 6.00193 12.7483C5.96186 12.746 5.92407 12.7292 5.89548 12.701C5.8669 12.6729 5.84955 12.6352 5.84663 12.5952C5.84371 12.5552 5.85546 12.5155 5.87965 12.4834C6.08311 12.0855 6.28321 11.6841 6.48556 11.285L6.61847 11.0312Z" fill="white"/>
<path d="M6.6875 12.7841C6.87307 12.6913 7.05753 12.5952 7.24646 12.5057C7.28248 12.494 7.32037 12.4898 7.35809 12.4935H10.9769C11.0886 12.4991 11.1613 12.5594 11.1624 12.6533C11.1636 12.7472 11.0919 12.8154 10.9711 12.8165H6.69733L6.6875 12.7841Z" fill="white"/>
<path d="M8.08717 9.07929C7.99438 9.1676 7.90517 9.2593 7.81015 9.34314C7.77972 9.36329 7.74372 9.37345 7.70725 9.37221H4.65427C4.64087 9.37336 4.62726 9.37336 4.61387 9.37221C4.5694 9.37221 4.52687 9.35453 4.49542 9.32308C4.46397 9.29164 4.44629 9.24897 4.44629 9.2045C4.44614 9.18375 4.45016 9.16316 4.45803 9.14397C4.4659 9.12478 4.47748 9.1074 4.49215 9.09273C4.50681 9.07806 4.52426 9.06642 4.54346 9.05855C4.56265 9.05068 4.58303 9.04673 4.60377 9.04688H8.06943L8.08717 9.07929Z" fill="white"/>
<path d="M2.09438 7.50545V8.53726C2.09438 8.67253 2.09443 8.6725 1.95245 8.6725C1.87196 8.6725 1.79031 8.6725 1.70982 8.6725C1.62933 8.6725 1.59803 8.65349 1.60474 8.57076V6.7128C1.60938 6.62529 1.60938 6.53761 1.60474 6.4501C1.59356 6.33831 1.6371 6.31147 1.73547 6.32265C1.80995 6.32657 1.88453 6.32657 1.959 6.32265C2.09315 6.32265 2.09328 6.32265 2.09328 6.45345C2.09403 6.80447 2.09438 7.15517 2.09438 7.50545Z" fill="white"/>
<path d="M2.09378 9.77593V11.9961C2.09378 12.1012 2.0623 12.1336 1.96168 12.1235C1.88475 12.1156 1.80744 12.1156 1.73051 12.1235C1.63661 12.1314 1.60194 12.1023 1.60305 12.0028C1.60305 11.4629 1.60305 10.924 1.60305 10.3852V9.86872C1.60305 9.80276 1.61743 9.77032 1.69121 9.77367C1.8276 9.77926 1.95516 9.77593 2.09378 9.77593Z" fill="white"/>
<path d="M1.6123 4.04835V2.98741C1.6123 2.9058 1.6345 2.87565 1.72393 2.87565C1.81473 2.88241 1.90606 2.88241 1.99686 2.87565C2.08071 2.87006 2.10849 2.90021 2.10849 2.98741V5.12936C2.10849 5.19979 2.08846 5.23334 2.01133 5.22775C1.9209 5.22092 1.82991 5.22092 1.73949 5.22775C1.64894 5.23446 1.61665 5.20766 1.61776 5.11599C1.62335 4.76049 1.61776 4.40833 1.61776 4.05395L1.6123 4.04835Z" fill="white"/>
<path d="M14.4023 3.22847C14.4822 3.15057 14.5811 3.09495 14.6892 3.0671C14.7973 3.03926 14.9107 3.04018 15.0183 3.06977C15.133 3.09749 15.2384 3.15457 15.3243 3.23543C15.4102 3.3163 15.4736 3.41815 15.5083 3.53095C15.5429 3.64374 15.5477 3.76358 15.5219 3.87873C15.4961 3.99388 15.4408 4.10038 15.3614 4.18768L14.4023 3.22847Z" fill="white"/>
<path d="M8.92822 11.0815C9.04001 10.9697 9.12824 10.8814 9.22326 10.7964C9.24816 10.7805 9.27781 10.773 9.30732 10.7752H10.9763C11.0185 10.7689 11.0615 10.7798 11.0958 10.8052C11.1301 10.8307 11.1529 10.8688 11.1591 10.911C11.1654 10.9533 11.1543 10.9963 11.1289 11.0305C11.1034 11.0648 11.0655 11.0876 11.0232 11.0938C11.0091 11.0955 10.9948 11.0955 10.9807 11.0938H9.00874C8.98191 11.0916 8.95505 11.0871 8.92822 11.0815Z" fill="white"/>
<path d="M6.37092 10.7846C6.3195 10.8875 6.2793 10.9758 6.229 11.0585C6.21842 11.0702 6.20524 11.0796 6.19079 11.0859C6.17633 11.0923 6.16072 11.0955 6.14493 11.0954H4.64028C4.61661 11.0988 4.59268 11.0968 4.56986 11.0897C4.54704 11.0826 4.5258 11.0706 4.50818 11.0545C4.49055 11.0384 4.47685 11.0185 4.46778 10.9964C4.45872 10.9743 4.45455 10.9505 4.45577 10.9266C4.45577 10.8294 4.5262 10.7734 4.64246 10.7734H6.27812C6.3016 10.7757 6.3262 10.7813 6.37092 10.7846Z" fill="white"/>
<path d="M5.54184 12.8075C5.51501 12.8075 5.48925 12.8141 5.46242 12.8153H4.64527C4.51671 12.8153 4.44518 12.7538 4.4463 12.6521C4.44742 12.5503 4.51656 12.4933 4.63954 12.4922H5.41657C5.48811 12.4922 5.50936 12.5146 5.50936 12.5861C5.51371 12.6607 5.52462 12.7348 5.54184 12.8075Z" fill="white"/>
<path d="M10.6646 9.34344C10.7585 9.25065 10.85 9.15334 10.9484 9.06614C10.9998 9.02143 11.0904 9.05944 11.134 9.12987C11.1547 9.16417 11.1611 9.20529 11.1517 9.24423C11.1423 9.28316 11.1179 9.3168 11.0838 9.33784L11.0726 9.34344C11.0277 9.36119 10.98 9.37027 10.9317 9.37025C10.849 9.37025 10.7661 9.37025 10.6823 9.37025L10.6646 9.34344Z" fill="white"/>
</svg>
