<svg width="24" height="29" viewBox="0 0 24 29" fill="none" xmlns="http://www.w3.org/2000/svg">
<path d="M7.81957 28.8858C7.61471 28.8858 7.40986 28.8858 7.27328 28.8858C7.13671 28.8858 7.00014 28.8175 6.86356 28.8175C6.1807 28.6809 5.63441 28.2712 5.15641 27.7932C4.13211 26.7689 3.24439 25.5397 2.49324 24.3106C1.12752 21.9889 0.376366 19.4623 0.171507 16.7308C0.103221 15.4334 0.171508 14.1359 0.581226 12.8385C1.1958 10.8582 2.35667 9.21932 4.26869 8.26331C5.77098 7.51216 7.40985 7.3073 9.04873 7.92188C9.59502 8.12674 10.2096 8.33159 10.7559 8.60474C11.4387 8.87788 12.1216 8.87788 12.8045 8.60474C13.1459 8.46817 13.4873 8.33159 13.8971 8.19502C15.1262 7.71702 16.3554 7.44387 17.6528 7.58044C18.9502 7.71702 20.1794 8.19502 21.2037 9.08274C21.6134 9.42417 22.0231 9.90218 22.3646 10.3802C22.228 10.5168 22.0231 10.585 21.8866 10.7216C21.75 10.8582 21.5451 10.9948 21.4085 11.1313C19.6331 12.7702 18.9502 14.8188 19.4965 17.2088C19.838 18.8477 20.8623 20.0768 22.228 20.9646C22.5011 21.1694 22.7743 21.2377 23.1157 21.4426V21.5108C23.0474 21.6474 23.0474 21.784 22.9791 21.9206C22.4328 23.4912 21.6134 24.9252 20.6574 26.2226C20.1794 26.8372 19.7014 27.4518 19.1551 27.9981C18.1991 28.8175 17.1748 29.1589 15.9456 28.8858C15.4676 28.7492 14.9896 28.5443 14.5116 28.4078C13.1459 27.7932 11.7119 27.7249 10.2779 28.2712C10.0047 28.4078 9.6633 28.4761 9.39016 28.6126C8.91215 28.6809 8.36586 28.8175 7.81957 28.8858Z" fill="black"/>
<path d="M17.2421 0.615234C17.2421 0.956666 17.3104 1.22981 17.2421 1.50296C17.1055 3.61983 15.7398 6.00985 13.2132 6.96586C12.7352 7.10243 12.2572 7.23901 11.7792 7.17072C11.5743 7.17072 11.5743 7.17072 11.506 6.89757C11.4378 6.283 11.5743 5.60013 11.7792 5.05384C12.5986 2.8004 14.1009 1.43467 16.4227 0.751806C16.6958 0.751806 16.9689 0.683521 17.2421 0.615234Z" fill="black"/>
</svg>
