<?xml version="1.0" encoding="UTF-8"?>
<svg id="Layer_1" data-name="Layer 1" xmlns="http://www.w3.org/2000/svg" viewBox="0 0 10 15">
  <defs>
    <style>
      .cls-1, .cls-2 {
        fill: #b3b3b3;
      }

      .cls-2 {
        fill-rule: evenodd;
      }
    </style>
  </defs>
  <path class="cls-1" d="M4.62,14.08c1.56,0,2.74-.08,3.88-.41,.22-.06,.42-.14,.62-.25,.3-.17,.3-.29,0-.47-.44-.26-.94-.36-1.43-.45-.21-.04-.42-.07-.63-.1-.13-.02-.22-.08-.2-.23,.02-.15,.12-.19,.25-.17,.69,.1,1.38,.2,2.02,.5,.29,.14,.6,.3,.61,.67,0,.39-.31,.56-.61,.7-.75,.34-1.56,.46-2.37,.54-1.64,.16-3.27,.13-4.89-.21-.44-.09-.87-.21-1.25-.45-.52-.34-.52-.79,0-1.12,.61-.37,1.3-.47,1.99-.58h.08s.05,.02,.07,.03c.02,.02,.04,.04,.05,.06,0,.02,.02,.05,.02,.08,.02,.14-.06,.22-.2,.24-.44,.06-.88,.16-1.3,.29-.2,.06-.38,.14-.55,.26-.21,.15-.21,.25,0,.39,.41,.26,.87,.36,1.34,.45,.81,.16,1.63,.24,2.46,.24h.03Z"/>
  <path class="cls-1" d="M4.93,14.54c-1.08,0-2.09-.1-3.07-.31-.42-.09-.87-.21-1.26-.46-.28-.17-.42-.38-.42-.6s.15-.42,.42-.59c.6-.36,1.28-.47,1.94-.58h.07s.07-.02,.1-.01c.03,0,.07,.02,.09,.04,.03,.02,.05,.05,.07,.08s.03,.06,.03,.1c.02,.16-.06,.26-.24,.29-.44,.06-.87,.16-1.29,.29-.19,.06-.37,.14-.54,.25-.09,.06-.13,.12-.13,.16s.05,.09,.14,.15c.39,.25,.83,.35,1.32,.45,.81,.16,1.63,.24,2.45,.24,1.53,0,2.71-.07,3.87-.41,.21-.06,.41-.14,.61-.25,.13-.08,.2-.14,.2-.19s-.06-.11-.19-.19c-.43-.26-.93-.35-1.41-.45-.18-.03-.36-.06-.53-.09h-.1c-.23-.05-.26-.19-.24-.3,.01-.08,.04-.13,.09-.17s.12-.05,.22-.04c.64,.09,1.37,.19,2.04,.5,.27,.13,.63,.3,.64,.71,0,.44-.37,.62-.64,.75-.79,.36-1.64,.47-2.38,.54-.63,.06-1.25,.09-1.84,.09h-.02Zm-2.26-2.46h-.1c-.65,.11-1.32,.22-1.9,.58-.25,.15-.38,.33-.38,.51s.13,.37,.37,.52c.38,.25,.82,.36,1.23,.45,1.5,.31,3.1,.38,4.88,.21,.73-.07,1.58-.18,2.35-.53,.33-.15,.59-.31,.59-.65s-.27-.48-.58-.63c-.65-.3-1.37-.41-2.01-.49-.04,0-.11,0-.14,.02-.03,.02-.05,.06-.05,.11-.01,.08,0,.15,.16,.17l.1,.02c.17,.03,.35,.05,.53,.09,.49,.1,1,.19,1.45,.46,.17,.1,.24,.18,.24,.27s-.08,.18-.25,.28c-.2,.11-.41,.2-.63,.25-1.17,.34-2.36,.41-3.9,.41-.83,0-1.66-.08-2.47-.25-.48-.1-.95-.2-1.36-.46-.13-.08-.19-.15-.19-.23s.05-.16,.18-.24c.18-.12,.37-.21,.57-.26,.43-.13,.87-.23,1.31-.29,.15-.02,.16-.11,.15-.18,0-.02,0-.04,0-.06,0-.02-.02-.03-.04-.04-.02-.01-.03-.02-.05-.02h-.02l-.03-.02Z"/>
  <path class="cls-1" d="M5.02,.5c-1,0-1.96,.33-2.74,.96-.77,.63-1.3,1.51-1.49,2.49-.21,1.03,.02,2.01,.38,2.95,.88,2.29,2.2,4.34,3.62,6.33,.15,.21,.27,.2,.45-.04,.84-1.1,1.61-2.25,2.29-3.46,.7-1.23,1.31-2.5,1.63-3.89C9.78,3.07,7.8,.51,5.02,.5Zm3.79,5.02c-.26,1.38-.86,2.62-1.53,3.83-.64,1.14-1.35,2.24-2.13,3.29-.06,.09-.11,.26-.25,.05-1.3-1.89-2.54-3.82-3.36-5.98-.36-.96-.57-1.93-.28-2.95,.47-1.7,1.98-2.85,3.74-2.85,.57,0,1.14,.13,1.65,.37,.52,.24,.97,.6,1.34,1.04,.36,.44,.63,.96,.77,1.51,.14,.55,.16,1.13,.05,1.69Z"/>
  <path class="cls-1" d="M4.99,13.43c-.11,0-.19-.1-.24-.17-1.35-1.9-2.72-3.99-3.62-6.34-.3-.79-.62-1.83-.38-2.98,.19-.99,.73-1.88,1.51-2.52,.77-.63,1.74-.97,2.73-.97h.03c1.32,0,2.54,.59,3.35,1.6,.84,1.05,1.15,2.44,.84,3.8-.34,1.5-1.02,2.81-1.64,3.9-.69,1.2-1.46,2.37-2.3,3.46-.11,.15-.2,.21-.29,.21h0ZM4.99,.55c-.97,0-1.92,.34-2.67,.95-.76,.62-1.29,1.49-1.48,2.46-.23,1.12,.08,2.15,.38,2.93,.9,2.34,2.27,4.42,3.61,6.32,.06,.09,.11,.13,.16,.13s.12-.06,.21-.17c.84-1.09,1.61-2.25,2.29-3.45,.61-1.08,1.29-2.39,1.62-3.88,.3-1.33,0-2.69-.82-3.72-.79-.99-1.98-1.57-3.27-1.57h-.03Zm.02,12.29c-.07,0-.13-.07-.16-.12-1.18-1.72-2.51-3.75-3.36-6-.3-.79-.6-1.85-.28-2.98C1.7,2.01,3.22,.86,4.99,.86c.57,0,1.15,.13,1.67,.37,.52,.25,.99,.61,1.35,1.05,.37,.44,.64,.97,.78,1.53,.14,.56,.16,1.15,.05,1.71v.04c-.28,1.41-.91,2.66-1.54,3.81-.64,1.14-1.36,2.25-2.13,3.29,0,.01-.02,.03-.03,.04-.03,.06-.07,.12-.14,.12v.02ZM5,.96C3.26,.96,1.78,2.08,1.3,3.76c-.31,1.11-.02,2.14,.28,2.92,.84,2.24,2.17,4.26,3.35,5.97,.05,.08,.08,.08,.08,.08,0,0,.04-.05,.06-.08,.01-.02,.02-.04,.03-.05,.77-1.04,1.49-2.15,2.13-3.28,.64-1.15,1.26-2.41,1.53-3.82v-.04c.11-.54,.08-1.1-.05-1.63-.14-.54-.4-1.06-.76-1.49s-.81-.79-1.32-1.02c-.51-.24-1.07-.37-1.63-.37h0Z"/>
  <path class="cls-1" d="M5.01,2.3c-.49,0-.97,.13-1.38,.4-.41,.27-.73,.65-.92,1.1-.19,.45-.25,.95-.16,1.43s.32,.92,.66,1.27c.34,.35,.78,.59,1.26,.69,.48,.1,.98,.06,1.43-.13,.45-.18,.84-.5,1.12-.9,.27-.4,.42-.88,.43-1.37,0-.32-.06-.64-.18-.94-.12-.3-.3-.57-.52-.8-.23-.23-.49-.41-.79-.54-.3-.13-.62-.19-.94-.2h-.01Zm-.04,4.52c-.41,0-.81-.12-1.14-.35-.34-.23-.6-.55-.76-.93-.15-.38-.19-.79-.11-1.19,.08-.4,.28-.77,.57-1.05,.29-.29,.66-.48,1.06-.56,.4-.08,.82-.03,1.19,.13,.38,.16,.7,.43,.92,.77,.22,.34,.34,.74,.34,1.15,0,.54-.22,1.06-.61,1.45-.39,.38-.91,.6-1.45,.59h-.01Z"/>
  <path class="cls-2" d="M3.59,2.61c.43-.28,.93-.42,1.43-.41,.34,0,.67,.07,.98,.2,.31,.13,.59,.32,.82,.56,.24,.24,.42,.52,.55,.84,.13,.31,.19,.64,.18,.98,0,.51-.16,1-.44,1.42-.29,.42-.69,.75-1.16,.94-.47,.19-.99,.24-1.49,.13-.5-.1-.95-.35-1.31-.72-.36-.36-.6-.82-.69-1.32-.09-.5-.04-1.02,.16-1.48,.2-.47,.53-.86,.96-1.14h0Zm1.39,4.21c-.41,0-.81-.12-1.14-.35-.34-.23-.6-.55-.76-.93-.15-.38-.19-.79-.11-1.19,.08-.4,.28-.77,.57-1.05,.29-.29,.66-.48,1.06-.56,.4-.08,.82-.03,1.19,.13,.38,.16,.7,.43,.92,.77,.22,.34,.34,.74,.34,1.15,0,.54-.22,1.06-.61,1.45-.39,.39-.91,.6-1.45,.59h0Z"/>
</svg>