<svg width="27" height="27" viewBox="0 0 27 27" fill="none" xmlns="http://www.w3.org/2000/svg">
<mask id="mask0_198_2" style="mask-type:alpha" maskUnits="userSpaceOnUse" x="0" y="0" width="27" height="27">
<mask id="mask1_198_2" style="mask-type:alpha" maskUnits="userSpaceOnUse" x="0" y="0" width="27" height="27">
<mask id="mask2_198_2" style="mask-type:alpha" maskUnits="userSpaceOnUse" x="0" y="0" width="27" height="27">
<path d="M9.99997 26.642L16.642 26.642C22.1648 26.642 26.642 22.1648 26.642 16.642L26.642 9.99997C26.642 4.47712 22.1648 -3.24249e-05 16.642 -3.24249e-05L9.99997 -3.24249e-05C4.47712 -3.24249e-05 -3.24249e-05 4.47712 -3.24249e-05 9.99997L-3.24249e-05 16.642C-3.24249e-05 22.1648 4.47712 26.642 9.99997 26.642Z" fill="url(#paint0_linear_198_2)"/>
</mask>
<g mask="url(#mask2_198_2)">
<mask id="mask3_198_2" style="mask-type:alpha" maskUnits="userSpaceOnUse" x="-2" y="-2" width="30" height="30">
<mask id="mask4_198_2" style="mask-type:alpha" maskUnits="userSpaceOnUse" x="-2" y="-2" width="30" height="30">
<path d="M16.5386 -1.35803H9.74532C3.61311 -1.35803 -1.35803 3.61311 -1.35803 9.74532V16.5386C-1.35803 22.6708 3.61311 27.642 9.74532 27.642H16.5386C22.6708 27.642 27.642 22.6708 27.642 16.5386V9.74532C27.642 3.61311 22.6708 -1.35803 16.5386 -1.35803Z" fill="url(#paint1_linear_198_2)"/>
</mask>
<g mask="url(#mask4_198_2)">
<path d="M26.6223 -3.50659H0.0418572C-1.52377 -3.50659 -2.79297 -2.2374 -2.79297 -0.671766V25.9087C-2.79297 27.4743 -1.52377 28.7435 0.0418572 28.7435H26.6223C28.1879 28.7435 29.4571 27.4743 29.4571 25.9087V-0.671766C29.4571 -2.2374 28.1879 -3.50659 26.6223 -3.50659Z" fill="url(#paint2_linear_198_2)"/>
</g>
</mask>
<g mask="url(#mask3_198_2)">
<path d="M25.9686 -2.79297H-0.0211391C-1.55198 -2.79297 -2.79297 -1.55198 -2.79297 -0.0211391V25.9686C-2.79297 27.4995 -1.55198 28.7405 -0.0211391 28.7405H25.9686C27.4995 28.7405 28.7405 27.4995 28.7405 25.9686V-0.0211391C28.7405 -1.55198 27.4995 -2.79297 25.9686 -2.79297Z" fill="url(#paint3_linear_198_2)"/>
</g>
</g>
</mask>
<g mask="url(#mask1_198_2)">
<path d="M25.363 -2H0.63704C-0.819357 -2 -2 -0.819357 -2 0.63704V25.363C-2 26.8194 -0.819357 28 0.63704 28H25.363C26.8194 28 28 26.8194 28 25.363V0.63704C28 -0.819357 26.8194 -2 25.363 -2Z" fill="url(#paint4_linear_198_2)"/>
</g>
</mask>
<g mask="url(#mask0_198_2)">
<mask id="mask5_198_2" style="mask-type:alpha" maskUnits="userSpaceOnUse" x="-3" y="-4" width="33" height="34">
<mask id="mask6_198_2" style="mask-type:alpha" maskUnits="userSpaceOnUse" x="-3" y="-4" width="33" height="34">
<mask id="mask7_198_2" style="mask-type:alpha" maskUnits="userSpaceOnUse" x="-3" y="-4" width="33" height="34">
<path d="M9.96501 29.4648L17.57 29.4648C24.4349 29.4648 30 23.8997 30 17.0348L30 9.42986C30 2.56495 24.4349 -3.00015 17.57 -3.00015L9.96501 -3.00015C3.10011 -3.00015 -2.46499 2.56495 -2.46499 9.42985L-2.46499 17.0348C-2.46499 23.8997 3.10011 29.4648 9.96501 29.4648Z" fill="url(#paint5_linear_198_2)"/>
</mask>
<g mask="url(#mask7_198_2)">
<path d="M-1.32526 31.8717L28.4311 31.8717C30.1838 31.8717 31.6046 30.4509 31.6046 28.6982L31.6046 -1.05817C31.6046 -2.81087 30.1838 -4.23171 28.4311 -4.23171L-1.32526 -4.23172C-3.07796 -4.23172 -4.4988 -2.81087 -4.4988 -1.05818L-4.4988 28.6982C-4.4988 30.4509 -3.07796 31.8717 -1.32526 31.8717Z" fill="url(#paint6_linear_198_2)"/>
</g>
</mask>
<g mask="url(#mask6_198_2)">
<path d="M-0.593487 31.0695L28.5016 31.0695C30.2153 31.0695 31.6046 29.6802 31.6046 27.9664L31.6046 -1.12864C31.6046 -2.84239 30.2154 -4.23166 28.5016 -4.23166L-0.593484 -4.23166C-2.30723 -4.23166 -3.6965 -2.8424 -3.6965 -1.12865L-3.6965 27.9664C-3.6965 29.6802 -2.30724 31.0695 -0.593487 31.0695Z" fill="url(#paint7_linear_198_2)"/>
</g>
</mask>
<g mask="url(#mask5_198_2)">
<mask id="mask8_198_2" style="mask-type:alpha" maskUnits="userSpaceOnUse" x="-7" y="-7" width="41" height="40">
<mask id="mask9_198_2" style="mask-type:alpha" maskUnits="userSpaceOnUse" x="-7" y="-7" width="41" height="40">
<path d="M18.4498 -6.64209L8.64894 -6.64209C0.499497 -6.64209 -6.10693 -0.0356593 -6.10693 8.11379L-6.10694 17.9146C-6.10694 26.0641 0.499493 32.6705 8.64894 32.6705L18.4498 32.6705C26.5992 32.6705 33.2057 26.0641 33.2057 17.9146L33.2057 8.11379C33.2057 -0.0356559 26.5992 -6.64209 18.4498 -6.64209Z" fill="url(#paint8_linear_198_2)"/>
</mask>
<g mask="url(#mask9_198_2)">
<mask id="mask10_198_2" style="mask-type:alpha" maskUnits="userSpaceOnUse" x="-8" y="-9" width="44" height="44">
<mask id="mask11_198_2" style="mask-type:alpha" maskUnits="userSpaceOnUse" x="-8" y="-9" width="44" height="44">
<path d="M8.802 34.6749L18.8261 34.6749C27.8747 34.6749 35.2101 27.3396 35.2101 18.291L35.2101 8.26685C35.2101 -0.781769 27.8747 -8.11712 18.8261 -8.11712L8.80201 -8.11712C-0.246609 -8.11712 -7.58196 -0.781773 -7.58196 8.26684L-7.58196 18.291C-7.58196 27.3396 -0.246613 34.6749 8.802 34.6749Z" fill="url(#paint9_linear_198_2)"/>
</mask>
<g mask="url(#mask11_198_2)">
<path d="M-6.07925 37.8466L33.1425 37.8466C35.4528 37.8466 37.3256 35.9737 37.3256 33.6635L37.3256 -5.55825C37.3256 -7.86848 35.4528 -9.74129 33.1425 -9.74129L-6.07924 -9.74129C-8.38947 -9.74129 -10.2623 -7.86848 -10.2623 -5.55825L-10.2623 33.6635C-10.2623 35.9737 -8.38947 37.8466 -6.07925 37.8466Z" fill="url(#paint10_linear_198_2)"/>
</g>
</mask>
<g mask="url(#mask10_198_2)">
<path d="M-5.11554 36.7895L33.2346 36.7896C35.4935 36.7896 37.3247 34.9584 37.3247 32.6995L37.3247 -5.6507C37.3247 -7.90959 35.4935 -9.74078 33.2346 -9.74078L-5.11554 -9.74078C-7.37443 -9.74078 -9.20562 -7.90959 -9.20562 -5.6507L-9.20562 32.6995C-9.20562 34.9584 -7.37443 36.7895 -5.11554 36.7895Z" fill="url(#paint11_linear_198_2)"/>
</g>
</g>
</mask>
<g mask="url(#mask8_198_2)">
<path d="M-4.21995 35.6213L32.2653 35.6213C34.4144 35.6213 36.1565 33.8792 36.1565 31.7302L36.1565 -4.75511C36.1565 -6.90415 34.4144 -8.64629 32.2653 -8.64629L-4.21995 -8.6463C-6.36899 -8.6463 -8.11113 -6.90416 -8.11113 -4.75511L-8.11114 31.7302C-8.11114 33.8792 -6.369 35.6213 -4.21995 35.6213Z" fill="url(#paint12_linear_198_2)"/>
</g>
</g>
</g>
<path d="M18.6 8.8H15.7919C16.0135 8.5067 16.15 8.14585 16.15 7.75C16.15 6.78365 15.3664 6 14.4 6C13.8249 6 13.3189 6.2814 13 6.70945C12.6811 6.2814 12.175 6 11.6 6C10.6336 6 9.85 6.78365 9.85 7.75C9.85 8.14585 9.9865 8.5067 10.2081 8.8H7.4C6.63 8.8 6 9.43 6 10.2V18.6C6 19.37 6.63 20 7.4 20H18.6C19.37 20 20 19.37 20 18.6V10.2C20 9.43 19.37 8.8 18.6 8.8ZM14.4 6.7C14.9789 6.7 15.45 7.1711 15.45 7.75C15.45 8.3289 14.9789 8.8 14.4 8.8C13.8211 8.8 13.35 8.3289 13.35 7.75C13.35 7.1711 13.8211 6.7 14.4 6.7ZM10.55 7.75C10.55 7.1711 11.0211 6.7 11.6 6.7C12.1789 6.7 12.65 7.1711 12.65 7.75C12.65 8.3289 12.1789 8.8 11.6 8.8C11.0211 8.8 10.55 8.3289 10.55 7.75ZM19.3 18.6C19.3 18.986 18.986 19.3 18.6 19.3H7.4C7.01395 19.3 6.7 18.986 6.7 18.6V16.5H19.3V18.6ZM19.3 15.1H6.7V10.2C6.7 9.81395 7.01395 9.5 7.4 9.5H12.5051L9.7051 12.3L10.2 12.7949L13 9.9949L15.8 12.7949L16.2949 12.3L13.4949 9.5H18.6C18.986 9.5 19.3 9.81395 19.3 10.2V15.1Z" fill="white"/>
<defs>
<linearGradient id="paint0_linear_198_2" x1="13.321" y1="26.642" x2="13.321" y2="8.92504" gradientUnits="userSpaceOnUse">
<stop stop-color="#3C53D7"/>
<stop offset="1" stop-color="#538FF2"/>
</linearGradient>
<linearGradient id="paint1_linear_198_2" x1="13.142" y1="-1.35803" x2="13.142" y2="27.642" gradientUnits="userSpaceOnUse">
<stop stop-color="#7ED4EF"/>
<stop offset="0.229" stop-color="#65BFE6"/>
<stop offset="0.711" stop-color="#288AD0"/>
<stop offset="1" stop-color="#0169C2"/>
</linearGradient>
<linearGradient id="paint2_linear_198_2" x1="13.3321" y1="-3.6013" x2="13.3321" y2="28.4594" gradientUnits="userSpaceOnUse">
<stop stop-color="#85C48D"/>
<stop offset="0.31" stop-color="#6DC09C"/>
<stop offset="0.95" stop-color="#2FB6C3"/>
<stop offset="1" stop-color="#2BB6C7"/>
</linearGradient>
<linearGradient id="paint3_linear_198_2" x1="-2.79297" y1="-0.642962" x2="28.7405" y2="28.7405" gradientUnits="userSpaceOnUse">
<stop stop-color="#21A0FD"/>
<stop offset="0.11" stop-color="#34A7E4"/>
<stop offset="0.656805" stop-color="#82C482"/>
<stop offset="1" stop-color="#B3D644"/>
</linearGradient>
<linearGradient id="paint4_linear_198_2" x1="13" y1="-2.0881" x2="13" y2="27.7357" gradientUnits="userSpaceOnUse">
<stop stop-color="#B87AE2"/>
<stop offset="0.21" stop-color="#9C5BEF"/>
<stop offset="0.64" stop-color="#5163DC"/>
<stop offset="1" stop-color="#267CC5"/>
</linearGradient>
<linearGradient id="paint5_linear_198_2" x1="13.7675" y1="29.4648" x2="13.7675" y2="-3.00015" gradientUnits="userSpaceOnUse">
<stop stop-color="#7ED4EF"/>
<stop offset="0.229" stop-color="#65BFE6"/>
<stop offset="0.711" stop-color="#288AD0"/>
<stop offset="1" stop-color="#0169C2"/>
</linearGradient>
<linearGradient id="paint6_linear_198_2" x1="13.5529" y1="31.9777" x2="13.5529" y2="-3.91365" gradientUnits="userSpaceOnUse">
<stop stop-color="#85C48D"/>
<stop offset="0.31" stop-color="#6DC09C"/>
<stop offset="0.95" stop-color="#2FB6C3"/>
<stop offset="1" stop-color="#2BB6C7"/>
</linearGradient>
<linearGradient id="paint7_linear_198_2" x1="31.6046" y1="28.6626" x2="-3.6965" y2="-4.23166" gradientUnits="userSpaceOnUse">
<stop stop-color="#21A0FD"/>
<stop offset="0.11" stop-color="#34A7E4"/>
<stop offset="0.656805" stop-color="#82C482"/>
<stop offset="1" stop-color="#B3D644"/>
</linearGradient>
<linearGradient id="paint8_linear_198_2" x1="13.5494" y1="-6.64209" x2="13.5494" y2="19.5008" gradientUnits="userSpaceOnUse">
<stop stop-color="#3C53D7"/>
<stop offset="1" stop-color="#538FF2"/>
</linearGradient>
<linearGradient id="paint9_linear_198_2" x1="13.8141" y1="34.6749" x2="13.8141" y2="-8.11712" gradientUnits="userSpaceOnUse">
<stop stop-color="#7ED4EF"/>
<stop offset="0.229" stop-color="#65BFE6"/>
<stop offset="0.711" stop-color="#288AD0"/>
<stop offset="1" stop-color="#0169C2"/>
</linearGradient>
<linearGradient id="paint10_linear_198_2" x1="13.5316" y1="37.9863" x2="13.5316" y2="-9.32205" gradientUnits="userSpaceOnUse">
<stop stop-color="#85C48D"/>
<stop offset="0.31" stop-color="#6DC09C"/>
<stop offset="0.95" stop-color="#2FB6C3"/>
<stop offset="1" stop-color="#2BB6C7"/>
</linearGradient>
<linearGradient id="paint11_linear_198_2" x1="37.3247" y1="33.617" x2="-9.20562" y2="-9.74079" gradientUnits="userSpaceOnUse">
<stop stop-color="#21A0FD"/>
<stop offset="0.11" stop-color="#34A7E4"/>
<stop offset="0.656805" stop-color="#82C482"/>
<stop offset="1" stop-color="#B3D644"/>
</linearGradient>
<linearGradient id="paint12_linear_198_2" x1="14.0227" y1="35.7513" x2="14.0227" y2="-15.4374" gradientUnits="userSpaceOnUse">
<stop stop-color="#994FFF"/>
<stop offset="0.967685" stop-color="#D3B3FF"/>
</linearGradient>
</defs>
</svg>
