<svg width="15" height="12" viewBox="0 0 15 12" fill="none" xmlns="http://www.w3.org/2000/svg">
<path d="M0 3.3829C0 3.281 0.113565 3.22021 0.198365 3.27672C2.20492 4.61384 4.18443 5.93185 6.16248 7.25207C7.03338 7.83332 7.96769 7.83175 8.84369 7.24737C10.8548 5.9052 12.8675 4.56538 14.8793 3.22477C14.9299 3.19083 14.9979 3.22802 14.9979 3.28895C14.9979 3.31179 14.9979 3.33362 14.9979 3.35551C14.9979 5.48247 14.9979 7.60943 14.9979 9.73639C14.9979 10.6566 14.4222 11.2304 13.4969 11.2308C9.50088 11.2316 5.50529 11.2312 1.50931 11.2308C0.570295 11.2304 0 10.6605 0 9.72465C0 7.6106 0 5.49695 0 3.3829Z" fill="#347EF9"/>
<path d="M14.9994 1.37779C14.9779 1.85375 14.7849 2.22795 14.3947 2.48824C12.3562 3.84842 10.3177 5.20859 8.27446 6.56172C7.76326 6.9003 7.22859 6.89756 6.7174 6.55898C4.67498 5.20546 2.63648 3.84568 0.597977 2.48511C0.0918738 2.14732 -0.105401 1.57702 0.0625175 0.980109C0.218693 0.424296 0.739278 0.0317048 1.35928 0.00195709C1.40469 -0.000391417 1.45048 0.000782835 1.49589 0.000782835C5.49891 0.000782835 9.50194 0.00156567 13.505 0C14.1203 0 14.5853 0.243853 14.8663 0.802406C14.9583 0.985589 14.9869 1.18521 14.9994 1.37779Z" fill="#347EF9"/>
</svg>
