<svg width="18" height="18" viewBox="0 0 18 18" fill="none" xmlns="http://www.w3.org/2000/svg">
<circle cx="9" cy="9" r="9" fill="#05BD29"/>
<path d="M4 7.0957C5.38306 8.0174 6.74629 8.925 8.10848 9.83417C8.68911 10.2217 9.31201 10.2206 9.89603 9.83104C11.2368 8.93622 12.5786 8.04297 13.92 7.1492C13.9406 7.13537 13.9615 7.12206 13.999 7.09753C13.999 7.15416 13.999 7.19513 13.999 7.23636C13.999 8.65439 13.999 10.0724 13.999 11.4905C13.999 12.104 13.6152 12.4865 12.9983 12.4868C10.3342 12.4873 7.67034 12.487 5.00624 12.4868C4.38021 12.4865 4 12.1066 4 11.4826C4 10.0732 4 8.66405 4 7.25463V7.0957Z" fill="white"/>
<path d="M14.0013 5.91856C13.9869 6.23588 13.8583 6.48536 13.5981 6.65889C12.2391 7.56571 10.88 8.47253 9.51783 9.37466C9.17702 9.60038 8.82055 9.59856 8.47975 9.37283C7.11808 8.47045 5.75902 7.56389 4.39997 6.65681C4.06255 6.4316 3.93103 6.05139 4.04298 5.65343C4.1471 5.28288 4.49417 5.02114 4.90753 5.0013C4.9378 4.99974 4.96833 5.00052 4.9986 5.00052C7.66739 5.00052 10.3362 5.00104 13.005 5C13.4152 5 13.7252 5.16258 13.9126 5.53496C13.9739 5.65709 13.993 5.79017 14.0013 5.91856Z" fill="white"/>
</svg>
