<svg width="15" height="15" viewBox="0 0 15 15" fill="none" xmlns="http://www.w3.org/2000/svg">
<path d="M0.0056844 2.58766C0.023032 2.2434 -0.0313239 1.81935 0.0303566 1.39954C0.147164 0.606172 0.774378 0.0325433 1.57468 0.0121116C2.31678 -0.00677805 3.06003 0.00208853 3.80289 0.00864208C4.14059 0.0117261 4.39194 0.27541 4.38731 0.593836C4.38269 0.915731 4.1298 1.15629 3.78477 1.15783C3.09973 1.16053 2.41431 1.15783 1.72927 1.15898C1.33066 1.15937 1.1595 1.33169 1.15911 1.73184C1.15872 2.40377 1.15988 3.07609 1.15834 3.74802C1.15757 4.12389 0.925109 4.38295 0.590493 4.38564C0.250479 4.38873 0.00799742 4.12235 0.00645541 3.7407C0.0049134 3.38218 0.00645541 3.02366 0.00645541 2.58804L0.0056844 2.58766Z" fill="#347EF9"/>
<path d="M12.4116 0.00609255C12.7562 0.0222837 13.1807 -0.0309158 13.6005 0.0303792C14.4047 0.147572 14.9775 0.779412 14.9956 1.5882C15.0122 2.32374 15.0041 3.06043 14.9983 3.79636C14.9956 4.13522 14.737 4.38734 14.4178 4.38579C14.0974 4.38425 13.8499 4.12943 13.8484 3.78865C13.8453 3.09744 13.8484 2.40624 13.8472 1.71503C13.8468 1.33916 13.6703 1.1599 13.2983 1.15913C12.6194 1.15798 11.9405 1.15913 11.262 1.15836C10.8835 1.15759 10.6256 0.930529 10.619 0.595912C10.6125 0.255513 10.8781 0.00917657 11.2586 0.00647805C11.6171 0.00416503 11.9756 0.00609255 12.4116 0.00609255Z" fill="#347EF9"/>
<path d="M0.00573119 12.3301C0.00573119 11.9716 0.00418917 11.6131 0.00573119 11.255C0.0076587 10.8753 0.253995 10.6089 0.594395 10.6147C0.928626 10.6201 1.15723 10.8787 1.158 11.2565C1.15916 11.935 1.15761 12.6135 1.15877 13.292C1.15954 13.6636 1.33842 13.8409 1.71428 13.8413C2.39315 13.8425 3.07164 13.8409 3.75051 13.8421C4.12599 13.8429 4.38428 14.0753 4.38697 14.4107C4.38929 14.7438 4.12753 14.992 3.76015 14.9936C3.05583 14.9967 2.35113 15.0013 1.6472 14.9928C0.709275 14.9812 0.0180673 14.2843 0.00650219 13.3483C0.00226166 13.009 0.00573119 12.6698 0.00573119 12.3305V12.3301Z" fill="#347EF9"/>
<path d="M15.0002 12.3984C14.9828 12.7477 15.0368 13.1783 14.9744 13.6042C14.8595 14.388 14.2392 14.9624 13.4458 14.9863C12.6972 15.009 11.9474 14.9982 11.1984 14.9913C10.861 14.9882 10.6112 14.721 10.6186 14.4022C10.6259 14.0807 10.8792 13.8436 11.2253 13.8425C11.9104 13.8402 12.5958 13.8425 13.2809 13.8417C13.6694 13.8413 13.8464 13.6667 13.8468 13.2835C13.8479 12.605 13.8464 11.9265 13.8475 11.248C13.8483 10.8753 14.085 10.6154 14.4196 10.6151C14.7531 10.6151 14.9944 10.8764 14.9998 11.245C14.9998 11.2515 14.9998 11.2577 14.9998 11.2642C14.9998 11.6162 14.9998 11.9682 14.9998 12.3992L15.0002 12.3984Z" fill="#347EF9"/>
<path d="M6.61894 10.3965C6.61894 10.0445 6.62087 9.69219 6.61856 9.34022C6.61509 8.77854 6.22534 8.38649 5.66444 8.38418C4.95974 8.38109 4.25542 8.38186 3.55072 8.38418C2.97786 8.3861 2.58504 8.77546 2.58234 9.34678C2.57887 10.0511 2.57848 10.7554 2.58234 11.4593C2.58542 12.0179 2.98172 12.4146 3.53839 12.4173C4.24925 12.4208 4.96051 12.4212 5.67138 12.4173C6.21995 12.4142 6.61393 12.0191 6.61856 11.4724C6.62164 11.1139 6.61894 10.7554 6.61933 10.3969L6.61894 10.3965ZM5.33213 11.267C4.84601 11.2635 4.35951 11.2623 3.87339 11.2677C3.76776 11.2689 3.72882 11.2435 3.73229 11.1317C3.74039 10.8826 3.73461 10.6328 3.73461 10.3834C3.73461 10.1405 3.73846 9.89727 3.73268 9.65441C3.73037 9.56381 3.75542 9.53375 3.84949 9.53452C4.34833 9.53876 4.84756 9.53837 5.3464 9.53452C5.43468 9.53375 5.46783 9.55302 5.46706 9.6494C5.46243 10.1482 5.46166 10.6471 5.46706 11.1455C5.46822 11.2558 5.42311 11.2674 5.33175 11.267H5.33213Z" fill="#347EF9"/>
<path d="M6.6181 3.53289C6.61579 2.98355 6.22296 2.5861 5.6767 2.58301C4.95928 2.57877 4.24186 2.57877 3.52444 2.58301C2.9882 2.5861 2.58805 2.98008 2.58304 3.51555C2.57649 4.23914 2.57649 4.96234 2.58304 5.68593C2.58805 6.22178 2.9882 6.61114 3.52598 6.61576C3.8845 6.61885 4.2434 6.61653 4.60192 6.61653C4.95427 6.61653 5.30662 6.61846 5.65897 6.61615C6.22219 6.61229 6.61579 6.22371 6.6181 5.66473C6.62119 4.95424 6.62119 4.24338 6.6181 3.53289ZM5.34903 5.46542C4.85018 5.46118 4.35096 5.46002 3.85212 5.46619C3.73878 5.46773 3.73184 5.41762 3.73338 5.32895C3.73762 5.07953 3.73492 4.83011 3.73492 4.58069C3.73492 4.33782 3.73839 4.09457 3.733 3.85171C3.73107 3.75996 3.75921 3.73181 3.85173 3.73258C4.35057 3.73683 4.8498 3.73683 5.34864 3.73258C5.44193 3.73181 5.46738 3.76073 5.4666 3.85171C5.46275 4.35055 5.46275 4.84939 5.4666 5.34784C5.46738 5.44036 5.44078 5.46619 5.34864 5.46542H5.34903Z" fill="#347EF9"/>
<path d="M12.4218 3.51058C12.416 2.97511 12.0139 2.58575 11.4758 2.58305C10.7584 2.5792 10.0409 2.57881 9.32352 2.58305C8.78651 2.58652 8.39021 2.98398 8.38751 3.51867C8.38404 4.24226 8.38366 4.96546 8.38751 5.68905C8.3906 6.21295 8.78767 6.60886 9.31234 6.61542C9.67741 6.62004 10.0425 6.61619 10.4076 6.61657C10.7661 6.61657 11.125 6.61966 11.4835 6.61619C12.0112 6.61079 12.4137 6.22645 12.4206 5.70062C12.4303 4.97086 12.4291 4.24072 12.421 3.51135L12.4218 3.51058ZM11.1192 5.46662C10.8767 5.45505 10.6331 5.46353 10.3902 5.46353C10.1535 5.46353 9.91681 5.45891 9.68011 5.46585C9.57795 5.46893 9.53631 5.44889 9.53786 5.33323C9.54479 4.8475 9.54325 4.36138 9.53863 3.87526C9.53786 3.77349 9.5552 3.73031 9.67163 3.73185C10.1577 3.73841 10.6442 3.73956 11.13 3.73108C11.2584 3.72877 11.2738 3.77734 11.2726 3.88567C11.2676 4.35868 11.2668 4.83208 11.273 5.30509C11.2745 5.42498 11.2506 5.4724 11.1188 5.46623L11.1192 5.46662Z" fill="#347EF9"/>
<path d="M12.4208 9.28848C12.4131 8.77267 12.0094 8.38794 11.4929 8.38486C10.7693 8.38023 10.0453 8.38062 9.32172 8.38486C8.7851 8.38794 8.39265 8.78501 8.38803 9.32163C8.38494 9.68015 8.38764 10.0387 8.38764 10.3972C8.38764 10.7623 8.38456 11.1269 8.38841 11.492C8.39381 12.0059 8.78355 12.4095 9.29704 12.4157C10.0334 12.4245 10.7701 12.4242 11.5067 12.4157C12.0137 12.4103 12.4123 12.0232 12.4208 11.5163C12.4331 10.7738 12.4327 10.031 12.4212 9.28848H12.4208ZM11.1205 11.2677C10.6471 11.2619 10.1737 11.2592 9.70028 11.2688C9.55726 11.2719 9.53297 11.2218 9.53798 11.0953C9.54762 10.859 9.54068 10.6223 9.54068 10.3856C9.54068 10.1489 9.54531 9.91222 9.53837 9.67591C9.53567 9.57413 9.55456 9.53173 9.6706 9.53327C10.1633 9.53983 10.6559 9.53944 11.1482 9.53327C11.2546 9.53212 11.2731 9.56989 11.2724 9.6655C11.2681 10.1516 11.2654 10.6374 11.2735 11.1235C11.2754 11.2495 11.2311 11.2684 11.1197 11.2673L11.1205 11.2677Z" fill="#347EF9"/>
</svg>
