<svg width="12" height="14" viewBox="0 0 12 14" fill="none" xmlns="http://www.w3.org/2000/svg">
<path d="M1.35851 3.51185C1.17826 3.51185 1.00699 3.51185 0.835721 3.51185C0.779802 3.51406 0.723793 3.51175 0.668247 3.50494C0.621613 3.49703 0.579231 3.47302 0.548488 3.43707C0.517746 3.40113 0.50059 3.35552 0.500015 3.30823C0.49944 3.26093 0.515493 3.21493 0.545352 3.17825C0.575211 3.14157 0.616997 3.11652 0.663425 3.10749C0.714488 3.09976 0.766158 3.09687 0.817764 3.09886H3.32359C3.32359 2.80501 3.32049 2.52601 3.32359 2.24701C3.32545 1.99097 3.40729 1.74192 3.55768 1.53469C3.70807 1.32747 3.91948 1.17244 4.16233 1.0913C4.297 1.04701 4.43769 1.02372 4.57945 1.02224C5.41507 1.01602 6.25093 1.01602 7.08702 1.02224C7.79764 1.02638 8.33285 1.56574 8.34114 2.27741C8.34424 2.54398 8.34114 2.81054 8.34114 3.09265C8.39742 3.09576 8.44681 3.10059 8.49618 3.10059C9.28024 3.10059 10.0644 3.10059 10.8487 3.10059C10.896 3.09885 10.9433 3.10091 10.9903 3.1068C11.1042 3.12613 11.166 3.19727 11.1629 3.31226C11.1598 3.42724 11.0939 3.50217 10.9803 3.50804C10.7997 3.51702 10.6184 3.51253 10.4374 3.51426C10.3995 3.51426 10.3611 3.51771 10.3049 3.52082V3.68725C10.3049 6.05209 10.3049 8.41728 10.3049 10.7828C10.3049 11.8733 9.57973 12.7579 8.51517 12.9734C8.35866 13.0029 8.19963 13.0169 8.04038 13.0152C6.56711 13.0184 5.09383 13.0184 3.62055 13.0152C2.43687 13.0152 1.53081 12.221 1.37093 11.0494C1.35953 10.9424 1.35538 10.8348 1.35851 10.7272C1.35851 8.37918 1.35851 6.03115 1.35851 3.68312V3.51185ZM9.89326 3.5222H1.77218V3.66032C1.77218 6.03022 1.77218 8.39979 1.77218 10.769C1.77218 11.8142 2.55497 12.5991 3.60226 12.5991C5.08912 12.6018 6.57574 12.6018 8.06213 12.5991C8.1998 12.6002 8.3372 12.5866 8.47201 12.5587C9.31764 12.3719 9.89119 11.6609 9.89188 10.7945C9.89395 8.41198 9.89395 6.02941 9.89188 3.64685L9.89326 3.5222ZM3.74107 3.0892H7.92885C7.92885 2.82711 7.92885 2.57401 7.92885 2.3209C7.9303 2.26488 7.92811 2.20883 7.92229 2.15309C7.86877 1.75462 7.53038 1.43762 7.13156 1.43486C6.2667 1.42819 5.4015 1.42819 4.53595 1.43486C4.1323 1.43797 3.77629 1.76222 3.74556 2.16449C3.72346 2.46766 3.74107 2.77325 3.74107 3.0892Z" fill="#C74141" stroke="#C74141" stroke-width="0.5"/>
<path d="M3.54375 8.02548V6.28276C3.54375 6.24823 3.54375 6.2137 3.54375 6.17917C3.54996 6.03311 3.62524 5.94609 3.74644 5.94436C3.86764 5.94263 3.95051 6.03172 3.95673 6.18607C3.95673 6.20748 3.95673 6.22924 3.95673 6.25064C3.95673 7.43387 3.95673 8.61732 3.95673 9.801C3.9586 9.84831 3.95524 9.89568 3.94671 9.94224C3.93974 9.98762 3.9161 10.0288 3.8804 10.0576C3.8447 10.0865 3.79952 10.101 3.75369 10.0983C3.7057 10.1025 3.65796 10.0879 3.6204 10.0578C3.58283 10.0276 3.55835 9.98412 3.55204 9.93636C3.54467 9.88967 3.54178 9.84238 3.54341 9.79514C3.54364 9.20491 3.54375 8.61502 3.54375 8.02548Z" fill="#C74141" stroke="#C74141" stroke-width="0.5"/>
<path d="M8.12117 8.03859C8.12117 8.61938 8.12117 9.20028 8.12117 9.78131C8.12251 9.82439 8.12123 9.86752 8.11736 9.91046C8.10251 10.0285 8.02241 10.1018 7.91018 10.0973C7.79796 10.0928 7.7289 10.0282 7.71164 9.91563C7.70807 9.89001 7.70658 9.86415 7.70715 9.83829C7.70715 8.62906 7.70715 7.41982 7.70715 6.21058C7.70657 6.18044 7.70842 6.15029 7.71268 6.12044C7.73167 6.00546 7.80453 5.94469 7.9171 5.94607C7.96537 5.94346 8.01279 5.95966 8.04936 5.99128C8.08594 6.02289 8.10883 6.06747 8.11323 6.11562C8.11934 6.16243 8.12163 6.20966 8.12013 6.25684C8.12105 6.85076 8.1214 7.44468 8.12117 8.03859Z" fill="#C74141" stroke="#C74141" stroke-width="0.5"/>
<path d="M5.62652 8.00999C5.62652 7.42045 5.62652 6.8308 5.62652 6.24103C5.62338 6.19815 5.62511 6.15507 5.63169 6.11258C5.65517 6.00899 5.72321 5.94615 5.83198 5.9458C5.94075 5.94546 6.00739 6.00588 6.03501 6.10982C6.0394 6.13081 6.04103 6.15229 6.03985 6.1737C6.03985 7.40458 6.03985 8.63556 6.03985 9.86667C6.03985 10.011 5.9594 10.0966 5.83474 10.0973C5.71009 10.098 5.62756 10.01 5.62756 9.85562C5.62595 9.24076 5.6256 8.62555 5.62652 8.00999Z" fill="#C74141" stroke="#C74141" stroke-width="0.5"/>
</svg>
