<svg width="27" height="27" viewBox="0 0 27 27" fill="none" xmlns="http://www.w3.org/2000/svg">
<path d="M10.0006 26.6426L16.6426 26.6426C22.1654 26.6426 26.6426 22.1654 26.6426 16.6426L26.6426 10.0006C26.6426 4.47773 22.1654 0.000577927 16.6426 0.000577927L10.0006 0.000577927C4.47773 0.000577927 0.000577927 4.47773 0.000577927 10.0006L0.000577927 16.6426C0.000577927 22.1654 4.47773 26.6426 10.0006 26.6426Z" fill="url(#paint0_linear_12204_17069)"/>
<path d="M10.4893 19.5158C10.3362 19.5147 10.217 19.389 10.2229 19.2345C10.228 19.0898 10.3482 18.9758 10.4937 18.9766C10.6406 18.9777 10.7583 19.0927 10.7616 19.2385C10.7653 19.3919 10.6425 19.5169 10.4893 19.5158Z" fill="white"/>
<path d="M15.7874 6.754C15.7903 6.90195 15.6803 7.02141 15.5341 7.02871C15.3787 7.03638 15.2534 6.92058 15.2501 6.76606C15.2468 6.6108 15.3674 6.48843 15.5216 6.49025C15.6686 6.49208 15.7844 6.60679 15.7874 6.754Z" fill="white"/>
<path d="M17.9714 12.1413C17.9699 11.9725 17.8621 11.8754 17.6925 11.8691C17.5529 11.864 17.4129 11.8648 17.2733 11.8691C17.2005 11.8713 17.1676 11.8461 17.1457 11.7745C17.0978 11.6182 17.043 11.4633 16.9801 11.3124C16.9147 11.1564 16.77 11.0008 16.7817 10.8543C16.7941 10.6951 17.0046 10.6008 17.1183 10.4682C17.225 10.3436 17.2393 10.2103 17.1241 10.093C16.7199 9.68134 16.312 9.27329 15.8993 8.86963C15.782 8.75492 15.6457 8.76771 15.5254 8.87913C15.4318 8.9657 15.339 9.05374 15.2546 9.14909C15.1884 9.22361 15.1358 9.24407 15.0397 9.18781C14.8989 9.10598 14.7462 9.04351 14.5952 8.98032C14.4457 8.91748 14.2341 8.9047 14.157 8.79474C14.0791 8.68296 14.1343 8.47948 14.1277 8.31619C14.1204 8.135 14.0243 8.02651 13.8474 8.02505C13.2823 8.0203 12.7172 8.0203 12.1522 8.02505C11.9749 8.02651 11.877 8.13427 11.8704 8.31437C11.866 8.43565 11.8609 8.55802 11.8718 8.67858C11.8821 8.79255 11.8335 8.83529 11.7308 8.86671C11.5571 8.91968 11.3875 8.98653 11.2194 9.0552C11.0915 9.10744 10.9544 9.2353 10.8462 9.21265C10.7252 9.18708 10.6317 9.03036 10.5275 8.92917C10.3382 8.74543 10.2183 8.74287 10.0315 8.92808C9.70805 9.24882 9.39189 9.57722 9.06366 9.89285C8.71534 10.2275 8.69121 10.3195 9.07317 10.6578C9.2084 10.7776 9.26688 10.8773 9.14225 11.0476C9.05818 11.1623 8.98764 11.3058 8.96754 11.4447C8.91198 11.8282 8.69377 11.917 8.34325 11.8728C8.12688 11.8458 8.02782 11.9674 8.02526 12.1935C8.02234 12.4547 8.02453 12.7159 8.02453 12.9775H8.02344C8.02344 13.2266 8.02344 13.4758 8.02344 13.7249C8.0238 14.0464 8.10166 14.1256 8.41672 14.1264C8.51394 14.1264 8.61153 14.1315 8.70839 14.1249C8.79648 14.1187 8.83266 14.1527 8.85971 14.237C8.91819 14.4215 8.98289 14.6056 9.06257 14.7821C9.23399 15.1616 9.23837 15.1598 8.94085 15.4604C8.74056 15.6628 8.74092 15.7764 8.94561 15.9817C9.25446 16.2915 9.56952 16.5951 9.87216 16.9107C10.2333 17.2877 10.3137 17.3133 10.6755 16.9081C10.787 16.7836 10.8813 16.7343 11.0367 16.845C11.143 16.9209 11.2728 16.9849 11.4003 17.0064C11.7892 17.0729 11.9409 17.2753 11.8759 17.672C11.8455 17.8576 11.9716 17.9701 12.1595 17.9715C12.7183 17.9759 13.2776 17.9759 13.8364 17.9715C14.0247 17.9701 14.1219 17.8634 14.1274 17.672C14.131 17.5445 14.1325 17.4167 14.1266 17.2892C14.1226 17.204 14.1478 17.1606 14.2359 17.1354C14.3872 17.0923 14.5364 17.0389 14.6815 16.9779C14.8375 16.9125 14.9925 16.7675 15.1394 16.7781C15.2995 16.7898 15.3931 17.0013 15.5258 17.1145C15.6588 17.2282 15.79 17.2366 15.9147 17.1142C16.3178 16.7186 16.7173 16.3193 17.1128 15.916C17.2407 15.7856 17.2338 15.6493 17.1084 15.5134C17.0178 15.4152 16.9231 15.3205 16.8244 15.2307C16.7656 15.177 16.7531 15.1306 16.7948 15.059C16.941 14.8058 17.0547 14.5377 17.1311 14.2557C17.157 14.1603 17.1983 14.1147 17.3062 14.1242C17.4326 14.1355 17.5613 14.1311 17.6885 14.1249C17.8588 14.1169 17.9688 14.0197 17.9703 13.8538C17.9758 13.2829 17.9758 12.7115 17.9703 12.1406L17.9714 12.1413ZM17.4319 12.8624C17.4374 13.0505 17.4249 13.2394 17.4359 13.4272C17.444 13.5601 17.3939 13.597 17.2707 13.5842C17.1804 13.5751 17.0887 13.5853 16.9977 13.5821C16.8241 13.5758 16.7203 13.6613 16.6855 13.8253C16.5945 14.2517 16.4268 14.6462 16.1958 15.0133C16.0974 15.1693 16.1216 15.2961 16.2462 15.4199C16.3445 15.5174 16.5137 15.6219 16.5115 15.7198C16.509 15.8228 16.3409 15.9226 16.2429 16.0219C16.0938 16.1735 15.9403 16.3207 15.7937 16.4749C15.7396 16.5319 15.7052 16.5348 15.6515 16.4749C15.5707 16.3847 15.4819 16.301 15.3942 16.217C15.2893 16.1169 15.1698 16.0972 15.0455 16.1753C14.6621 16.4168 14.2524 16.5914 13.8083 16.6879C13.6518 16.7218 13.5813 16.834 13.5831 16.9966C13.5846 17.135 13.6274 17.3206 13.5561 17.3998C13.4709 17.4948 13.2812 17.4262 13.1368 17.4302C12.9365 17.436 12.7359 17.4272 12.5356 17.4335C12.4391 17.4364 12.4099 17.4024 12.4131 17.3078C12.4343 16.7036 12.4066 16.7379 11.8759 16.6017C11.5571 16.5198 11.2629 16.3708 10.9859 16.194C10.8323 16.0961 10.7073 16.1173 10.5776 16.2389C10.4749 16.3354 10.3934 16.522 10.2643 16.5045C10.1536 16.4895 10.0619 16.327 9.9628 16.2287C9.82501 16.0917 9.69197 15.9492 9.54905 15.8177C9.47193 15.7468 9.44927 15.6994 9.54357 15.6234C9.63275 15.5514 9.70988 15.4634 9.78809 15.3786C9.88203 15.2771 9.89482 15.1613 9.82172 15.0444C9.58122 14.6604 9.40431 14.2517 9.30855 13.8074C9.27493 13.6522 9.16564 13.5828 9.00189 13.5784C8.86008 13.5747 8.67148 13.6504 8.5896 13.5422C8.52125 13.452 8.56767 13.2741 8.56658 13.1349C8.56512 12.9344 8.57023 12.7338 8.56475 12.5336C8.56219 12.4387 8.59436 12.4123 8.68902 12.4091C9.22266 12.3893 9.22558 12.3875 9.38531 11.8863C9.48546 11.5722 9.61484 11.2722 9.79321 10.9957C9.89482 10.8379 9.88386 10.7086 9.75593 10.5712C9.66053 10.4689 9.47193 10.3915 9.49496 10.2578C9.51433 10.1449 9.67552 10.0569 9.77274 9.95641C9.93685 9.78618 10.1002 9.61485 10.2753 9.43147C10.3853 9.54727 10.4774 9.64334 10.5688 9.74015C10.6945 9.87385 10.8265 9.89796 10.9895 9.79458C11.351 9.5659 11.7406 9.40115 12.1606 9.31128C12.3327 9.27439 12.423 9.16918 12.4146 8.98799C12.4139 8.97593 12.4146 8.96351 12.4146 8.95146C12.417 8.69258 12.5453 8.56314 12.7995 8.56314C13.0122 8.56314 13.2249 8.56716 13.4373 8.56131C13.5396 8.55839 13.589 8.57483 13.5871 8.69757C13.5802 9.18891 13.5119 9.24224 14.0853 9.37667C14.411 9.45302 14.7096 9.60791 14.9958 9.78326C15.1877 9.90125 15.2707 9.88773 15.4318 9.74015C15.5316 9.64882 15.6109 9.47165 15.7327 9.48699C15.8383 9.50014 15.926 9.65649 16.021 9.75074C16.1676 9.89613 16.3109 10.0452 16.4607 10.1873C16.5251 10.2479 16.5379 10.2841 16.4666 10.3564C16.1131 10.7141 15.9933 10.6662 16.3401 11.2335C16.5112 11.5137 16.6139 11.8275 16.6822 12.1504C16.7188 12.3236 16.82 12.4102 17.0006 12.412C17.1388 12.4134 17.3204 12.3513 17.4037 12.4383C17.4948 12.5333 17.4282 12.7163 17.4323 12.8606L17.4319 12.8624Z" fill="white"/>
<path d="M14.3795 6.13999C14.3269 6.12611 14.2732 6.11405 14.2194 6.10528C12.6533 5.84555 11.1605 6.06254 9.74932 6.799C5.93272 8.78954 4.80989 13.7723 7.40717 17.2025C7.48721 17.3081 7.47917 17.3782 7.4269 17.4904C7.24634 17.8772 7.27303 18.263 7.5117 18.6162C7.75476 18.976 8.1093 19.1521 8.54169 19.1189C9.02014 19.082 9.36517 18.8274 9.53294 18.3766C9.70071 17.9262 9.60897 17.5072 9.26832 17.1674C8.92767 16.8281 8.50989 16.7418 8.05886 16.9084C7.92582 16.9577 7.87136 16.9278 7.79826 16.8266C6.97222 15.6832 6.557 14.4065 6.54421 12.9975C6.54129 12.3359 6.6418 11.6893 6.84063 11.0599C7.7014 8.33583 10.2603 6.49652 13.1156 6.54657C13.5049 6.55351 13.8909 6.59516 14.2739 6.66749C14.4409 6.69927 14.5751 6.60758 14.6025 6.45853C14.6314 6.30218 14.5495 6.18419 14.3795 6.13999ZM8.4558 17.3767C8.79206 17.3742 9.05925 17.6368 9.06144 17.9718C9.06363 18.3068 8.8001 18.576 8.46603 18.579C8.13342 18.5819 7.86222 18.3152 7.8593 17.9824C7.85637 17.6478 8.121 17.3793 8.4558 17.3767Z" fill="white"/>
<path d="M18.5827 8.78326C18.5121 8.69011 18.5158 8.62764 18.564 8.52682C18.7548 8.12827 18.7289 7.73301 18.4778 7.36954C18.2303 7.01154 17.8721 6.84313 17.4412 6.88259C16.9723 6.92569 16.632 7.17921 16.4671 7.62233C16.2997 8.07238 16.3904 8.49138 16.7307 8.83148C17.071 9.17122 17.4884 9.25779 17.9394 9.09231C18.0706 9.04409 18.1265 9.06966 18.2004 9.17195C19.0264 10.315 19.4416 11.5914 19.4548 12.8411C19.4544 13.773 19.3214 14.5229 19.0524 15.247C18.0421 17.9659 15.3483 19.6693 12.4517 19.4279C12.2032 19.407 11.9579 19.3698 11.7119 19.3307C11.5588 19.3062 11.4272 19.4074 11.4078 19.5521C11.3877 19.7055 11.4535 19.8114 11.6045 19.856C11.6626 19.8732 11.7225 19.8845 11.7821 19.8947C13.1648 20.1263 14.5037 19.9817 15.7921 19.4198C19.9456 17.6079 21.3123 12.4012 18.5819 8.78326H18.5827ZM17.5454 8.62363C17.2098 8.62691 16.9416 8.36426 16.9386 8.02964C16.9357 7.69466 17.1992 7.4247 17.5322 7.42141C17.8652 7.41776 18.1368 7.68333 18.1404 8.01649C18.1441 8.35111 17.8802 8.62034 17.5457 8.62363H17.5454Z" fill="white"/>
<path d="M13.0011 10.7441C11.7529 10.7441 10.7441 11.7524 10.7441 13.0003C10.7441 14.2478 11.7533 15.2575 13.0004 15.2575C14.2479 15.2575 15.2574 14.2485 15.2574 13.001C15.2574 11.7527 14.249 10.7441 13.0011 10.7441ZM13.0121 14.7132C12.0629 14.7165 11.292 13.9555 11.2884 13.0119C11.2851 12.0629 12.0457 11.2917 12.9891 11.2884C13.939 11.2852 14.7095 12.0454 14.7128 12.9893C14.7161 13.9387 13.9555 14.7099 13.0117 14.7132H13.0121Z" fill="white"/>
<defs>
<linearGradient id="paint0_linear_12204_17069" x1="-2.5" y1="32.4668" x2="33.5" y2="-7.5332" gradientUnits="userSpaceOnUse">
<stop stop-color="#D95575"/>
<stop offset="0.313795" stop-color="#C11D2A"/>
<stop offset="0.701997" stop-color="#FF879B"/>
</linearGradient>
</defs>
</svg>
