<svg width="14" height="13" viewBox="0 0 14 13" fill="none" xmlns="http://www.w3.org/2000/svg">
<path d="M9.41265 2.77984L7.73995 1.10714C7.46936 0.836547 7.03064 0.836547 6.76005 1.10714L5.08735 2.77984C4.81675 3.05043 4.81675 3.48915 5.08735 3.75975L6.76005 5.43245C7.03064 5.70304 7.46936 5.70304 7.73995 5.43245L9.41265 3.75975C9.68325 3.48915 9.68325 3.05043 9.41265 2.77984Z" fill="#FF0000"/>
<path d="M9.41265 9.4732L7.73995 7.8005C7.46936 7.52991 7.03064 7.52991 6.76005 7.8005L5.08735 9.4732C4.81675 9.74379 4.81675 10.1825 5.08735 10.4531L6.76005 12.1258C7.03064 12.3964 7.46936 12.3964 7.73995 12.1258L9.41265 10.4531C9.68325 10.1825 9.68325 9.74379 9.41265 9.4732Z" fill="#FF0000"/>
<path d="M13.0572 6.18414L11.3845 4.51144C11.1139 4.24084 10.6752 4.24084 10.4046 4.51144L8.73188 6.18414C8.46128 6.45473 8.46128 6.89345 8.73188 7.16404L10.4046 8.83674C10.6752 9.10734 11.1139 9.10734 11.3845 8.83674L13.0572 7.16404C13.3278 6.89345 13.3278 6.45473 13.0572 6.18414Z" fill="#FF0000"/>
<path d="M5.76812 6.18414L4.09542 4.51144C3.82483 4.24084 3.38611 4.24084 3.11552 4.51144L1.44282 6.18414C1.17222 6.45473 1.17222 6.89345 1.44282 7.16404L3.11552 8.83674C3.38611 9.10734 3.82483 9.10734 4.09542 8.83674L5.76812 7.16404C6.03872 6.89345 6.03872 6.45473 5.76812 6.18414Z" fill="#FF0000"/>
</svg>
