<svg width="16" height="16" viewBox="0 0 16 16" fill="none" xmlns="http://www.w3.org/2000/svg">
<path d="M11.1439 10.2144L15.0019 13.8885C15.1019 13.9834 15.2079 14.0714 15.3019 14.1734C15.3755 14.2448 15.4339 14.3302 15.4739 14.4247C15.5139 14.5192 15.5347 14.6206 15.5347 14.7232C15.5347 14.8258 15.5139 14.9274 15.4739 15.0218C15.4339 15.1163 15.3755 15.2017 15.3019 15.2731C15.2298 15.3472 15.1432 15.4056 15.0475 15.4446C14.9518 15.4836 14.8491 15.5024 14.7458 15.4998C14.6425 15.4971 14.5409 15.4732 14.4473 15.4293C14.3538 15.3855 14.2702 15.3228 14.202 15.2452C13.6802 14.7253 13.1815 14.1823 12.6726 13.6455L10.2411 11.0941C9.51211 11.6732 8.65831 12.0748 7.74731 12.2669C6.83631 12.459 5.89312 12.4364 4.99237 12.2009C3.61338 11.8561 2.40905 11.0168 1.60819 9.84245C0.789363 8.66219 0.425227 7.2256 0.582806 5.79779C0.740384 4.36997 1.40915 3.04738 2.46565 2.07409C3.52215 1.1008 4.89499 0.542514 6.33091 0.502331C7.76683 0.462148 9.16891 0.942709 10.2782 1.85539C11.4831 2.86125 12.2478 4.29769 12.4095 5.85893C12.5712 7.42017 12.1172 8.98297 11.1439 10.2144ZM6.52203 1.74043C5.58847 1.73371 4.67399 2.00419 3.89425 2.51758C3.11451 3.03098 2.50449 3.76427 2.14175 4.62449C1.77901 5.48471 1.67973 6.43319 1.85642 7.3499C2.03311 8.2666 2.47794 9.11021 3.13443 9.77399C3.79091 10.4378 4.62954 10.8918 5.54424 11.0786C6.45894 11.2654 7.4084 11.1766 8.27257 10.8234C9.13675 10.4702 9.87679 9.86837 10.3988 9.09434C10.9207 8.32032 11.2014 7.4088 11.205 6.47523C11.2084 5.22723 10.7175 4.0287 9.83982 3.14145C8.96213 2.25421 7.76902 1.75047 6.52105 1.74043H6.52203Z" fill="#C2C2C2"/>
</svg>
