<svg width="15" height="13" viewBox="0 0 15 13" fill="none" xmlns="http://www.w3.org/2000/svg">
<path d="M5.8304 9.8794C6.80252 8.57796 7.72378 7.3449 8.64337 6.111C10.0385 4.24069 11.433 2.37093 12.827 0.501737C13.2038 0.00150575 13.7224 -0.131892 14.2126 0.134064C14.7962 0.451711 14.9154 1.13453 14.4627 1.74064C12.7819 4.0028 11.0984 6.263 9.41206 8.52127L6.37566 12.5965C6.28478 12.7174 6.19057 12.8358 6.06301 13C5.89627 12.8333 5.73787 12.6882 5.58696 12.5356C3.86673 10.7993 2.14676 9.06263 0.42708 7.32572C0.160291 7.05809 -0.0348044 6.76463 0.00521412 6.37195C0.0452326 5.97927 0.250333 5.66245 0.636345 5.51488C0.829106 5.42987 1.04378 5.40788 1.24978 5.45204C1.45577 5.4962 1.64257 5.60427 1.78354 5.76083C2.85848 6.84633 3.93314 7.93183 5.00752 9.01734C5.27348 9.28246 5.5261 9.55842 5.8304 9.8794Z" fill="#05BD29"/>
</svg>
