<svg width="13" height="14" viewBox="0 0 13 14" fill="none" xmlns="http://www.w3.org/2000/svg">
<path d="M3.32546 13.8836C2.67665 13.9012 2.03798 13.7211 1.49395 13.3671C0.949919 13.0131 0.526403 12.502 0.27966 11.9017C0.0126283 11.3019 -0.0655496 10.6351 0.0553688 9.98979C0.176287 9.34449 0.490545 8.75119 0.956612 8.28878C3.20603 6.02168 5.46583 3.76485 7.73621 1.51806C8.23027 1.08872 8.86898 0.862842 9.5231 0.886445C10.1772 0.910049 10.798 1.18137 11.2599 1.6452C11.7217 2.10903 11.9902 2.73086 12.0109 3.38507C12.0317 4.03929 11.8033 4.67688 11.3719 5.16909C10.0611 6.50832 8.7188 7.82208 7.39725 9.14756C6.64559 9.90119 5.89584 10.6558 5.1373 11.4075C4.85752 11.7284 4.46191 11.9248 4.0372 11.954C3.61249 11.9831 3.19352 11.8424 2.87256 11.5627C2.84898 11.5421 2.82536 11.5205 2.80276 11.4979C2.51125 11.2021 2.34874 10.8028 2.35058 10.3875C2.35242 9.97219 2.51848 9.57443 2.81259 9.28118C2.83912 9.25465 2.86683 9.22922 2.89631 9.20465C4.2493 7.83889 5.61497 6.48674 6.97385 5.12687C7.17823 4.92151 7.40233 4.74359 7.66664 4.99709C7.9506 5.27025 7.77178 5.50917 7.55365 5.7273C6.24815 7.02821 4.94379 8.33051 3.64091 9.63404C3.53405 9.72937 3.43539 9.83347 3.34609 9.94541C3.23968 10.0844 3.18665 10.2569 3.19641 10.4317C3.20616 10.6065 3.27813 10.7721 3.39935 10.8985C3.52057 11.0248 3.68303 11.1034 3.85729 11.1204C4.03154 11.1373 4.20623 11.0914 4.34953 10.9908C4.45255 10.9166 4.54671 10.8308 4.63043 10.7354L10.6309 4.74186C10.9672 4.42301 11.1633 3.98361 11.1764 3.52037C11.1894 3.05713 11.0185 2.60763 10.7007 2.27033C10.3829 1.93303 9.94432 1.73552 9.48112 1.721C9.01792 1.70649 8.56794 1.87635 8.22965 2.19309L8.15792 2.26482C5.97663 4.44218 3.79664 6.62071 1.61797 8.80069C1.37709 9.03043 1.18499 9.30651 1.05329 9.61222C0.921575 9.91793 0.852811 10.247 0.851303 10.5799C0.849795 10.9128 0.915475 11.2424 1.04441 11.5493C1.17334 11.8562 1.36287 12.1339 1.60166 12.3658C1.84045 12.5978 2.12377 12.7792 2.4343 12.8991C2.74482 13.019 3.07626 13.0749 3.40894 13.0637C3.74163 13.0524 4.06867 12.9742 4.3704 12.8336C4.67213 12.693 4.94229 12.4932 5.16489 12.2457C7.27347 10.1299 9.38679 8.01954 11.5045 5.91489C11.7354 5.68595 11.983 5.25259 12.3573 5.62007C12.7504 6.0072 12.3199 6.2666 12.0762 6.51028C9.96826 8.62738 7.85694 10.7395 5.74181 12.8468C5.43307 13.1778 5.05863 13.441 4.64266 13.6195C4.2267 13.7979 3.77808 13.8879 3.32546 13.8836Z" fill="#05BD29"/>
</svg>
