<svg width="13" height="14" viewBox="0 0 13 14" fill="none" xmlns="http://www.w3.org/2000/svg">
<path d="M3.38448 13.5029C2.72415 13.5209 2.07415 13.3375 1.52046 12.9773C0.966776 12.617 0.535744 12.0968 0.284623 11.4858C0.0128524 10.8754 -0.0667128 10.1968 0.0563514 9.54004C0.179416 8.88328 0.49925 8.27946 0.973588 7.80884C3.26292 5.5015 5.56282 3.20464 7.87349 0.917969C8.37632 0.481014 9.02637 0.251125 9.69209 0.275147C10.3578 0.299169 10.9896 0.575303 11.4597 1.04736C11.9297 1.51942 12.2029 2.15229 12.2241 2.81812C12.2452 3.48394 12.0128 4.13285 11.5737 4.63379C10.2397 5.99679 8.87352 7.33386 7.52852 8.68286C6.76352 9.44986 6.00047 10.2179 5.22847 10.9829C4.94372 11.3095 4.54109 11.5094 4.10884 11.5391C3.67659 11.5687 3.25019 11.4255 2.92354 11.1409C2.89954 11.1199 2.87549 11.098 2.85249 11.075C2.55582 10.7739 2.39042 10.3675 2.39229 9.94483C2.39416 9.52213 2.56317 9.11731 2.8625 8.81885C2.8895 8.79185 2.91771 8.76597 2.94771 8.74097C4.32471 7.35097 5.71461 5.97482 7.09761 4.59082C7.30561 4.38182 7.53369 4.20074 7.80269 4.45874C8.09169 4.73674 7.9097 4.9799 7.6877 5.2019C6.35903 6.5259 5.03152 7.85131 3.70552 9.17798C3.59676 9.275 3.49636 9.38094 3.40547 9.49487C3.29717 9.63637 3.2432 9.81184 3.25313 9.98975C3.26306 10.1677 3.3363 10.3363 3.45967 10.4648C3.58304 10.5934 3.74839 10.6734 3.92574 10.6907C4.10308 10.7079 4.28087 10.6612 4.42671 10.5588C4.53156 10.4833 4.62739 10.396 4.7126 10.2988L10.8195 4.19898C11.1618 3.87447 11.3614 3.42727 11.3747 2.95581C11.388 2.48435 11.214 2.02688 10.8906 1.68359C10.5671 1.34031 10.1208 1.13929 9.64937 1.12451C9.17795 1.10974 8.71998 1.28262 8.37569 1.60498L8.30269 1.67798C6.08269 3.89398 3.86402 6.11117 1.64668 8.32983C1.40152 8.56365 1.20602 8.84463 1.07198 9.15576C0.937929 9.4669 0.867945 9.80185 0.86641 10.1406C0.864875 10.4794 0.93172 10.8149 1.06294 11.1272C1.19417 11.4395 1.38705 11.7222 1.63008 11.9583C1.87311 12.1943 2.16146 12.3789 2.47749 12.501C2.79353 12.623 3.13085 12.6799 3.46944 12.6685C3.80803 12.657 4.14087 12.5774 4.44795 12.4343C4.75504 12.2912 5.02999 12.0878 5.25655 11.8359C7.40255 9.6826 9.55336 7.53482 11.7087 5.39282C11.9437 5.15982 12.1956 4.71877 12.5766 5.09277C12.9766 5.48677 12.5385 5.75078 12.2905 5.99878C10.1451 8.15345 7.99637 10.3031 5.8437 12.4478C5.52949 12.7846 5.1484 13.0525 4.72505 13.2341C4.3017 13.4158 3.84513 13.5074 3.38448 13.5029Z" fill="black"/>
</svg>
