<svg width="17" height="10" viewBox="0 0 17 10" fill="none" xmlns="http://www.w3.org/2000/svg">
<path d="M8.38419 0.00161199C10.7391 0.00161199 13.0936 0.00088916 15.4485 0.00197341C16.0844 0.00197341 16.5468 0.338814 16.7066 0.910214C16.741 1.03273 16.7521 1.15778 16.7524 1.28392C16.7538 1.74617 16.7506 2.20842 16.7542 2.67068C16.756 2.90126 16.668 3.05305 16.4438 3.1369C16.1448 3.24858 15.942 3.47916 15.8083 3.76252C15.5301 4.35235 15.5351 4.94435 15.8408 5.52442C15.9814 5.79151 16.1859 5.99788 16.472 6.1045C16.6659 6.17678 16.7524 6.31629 16.7528 6.51651C16.7535 7.26681 16.7635 8.01784 16.7495 8.76778C16.7363 9.47073 16.2335 9.97346 15.5369 9.99226C15.0673 10.0053 14.5974 9.99912 14.1275 9.9937C13.8725 9.99081 13.7034 9.82456 13.7087 9.60157C13.7141 9.38363 13.8779 9.22895 14.1261 9.22605C14.572 9.22099 15.018 9.22605 15.4639 9.22389C15.8305 9.22208 15.9875 9.06631 15.9889 8.69947C15.9914 8.07494 15.9889 7.45077 15.9907 6.82625C15.9907 6.74348 15.9789 6.68602 15.8991 6.63397C15.112 6.12004 14.8123 5.35709 14.8613 4.44668C14.9039 3.65445 15.2308 3.0039 15.9227 2.57815C15.9857 2.53948 15.99 2.48924 15.99 2.42744C15.9889 2.03133 15.9939 1.63485 15.9871 1.23874C15.9821 0.946717 15.8187 0.787332 15.5311 0.773237C15.4836 0.771068 15.436 0.772153 15.3885 0.772153C11.7254 0.772153 8.06233 0.773598 4.39963 0.767816C4.22761 0.767816 4.16539 0.806849 4.18971 0.981774C4.20079 1.06273 4.18971 1.15056 4.17183 1.23151C4.13356 1.40608 3.98694 1.51559 3.80885 1.51486C3.63075 1.51414 3.48413 1.40463 3.44908 1.22862C3.42941 1.12996 3.42262 1.02514 3.43156 0.925032C3.44372 0.792753 3.39222 0.7689 3.27171 0.769984C2.61155 0.775767 1.95174 0.77143 1.29158 0.773237C0.924312 0.774321 0.769464 0.92973 0.766961 1.29729C0.764458 1.66955 0.767676 2.04181 0.765173 2.41407C0.764815 2.49105 0.77912 2.54201 0.852074 2.58936C1.63811 3.10329 1.94102 3.86444 1.89488 4.77557C1.85483 5.56924 1.52332 6.2169 0.839557 6.6506C0.778762 6.68927 0.765173 6.73264 0.765531 6.79733C0.766961 7.45186 0.76267 8.10602 0.768749 8.76055C0.77161 9.05149 0.937544 9.21991 1.22614 9.22244C1.9217 9.22858 2.61763 9.2228 3.31319 9.22714C3.41046 9.22786 3.43621 9.19461 3.43013 9.10353C3.42369 9.00812 3.42334 8.9109 3.4312 8.81548C3.45016 8.5896 3.60322 8.44322 3.81171 8.44431C4.01912 8.44539 4.16968 8.59285 4.18828 8.81982C4.19507 8.90331 4.199 8.98896 4.18828 9.07173C4.17218 9.2022 4.22368 9.22858 4.34598 9.22786C5.31512 9.2228 6.28462 9.22497 7.25376 9.22497C8.93671 9.22497 10.6193 9.22497 12.3022 9.22497C12.3559 9.22497 12.4092 9.22497 12.4628 9.22497C12.7636 9.22714 12.9442 9.37134 12.9442 9.61024C12.9442 9.84877 12.7636 9.99551 12.4628 9.99551C8.74037 9.99587 5.01795 9.99696 1.29552 9.99515C0.513411 9.99479 0.0045232 9.47543 0.00237751 8.68429C0.000231809 7.97591 0.00488082 7.26754 0.000231809 6.5588C-0.00119866 6.32605 0.0882054 6.171 0.30957 6.09112C0.554895 6.00258 0.736921 5.82765 0.865306 5.60646C1.24545 4.95013 1.24617 4.28512 0.868524 3.62771C0.734776 3.39495 0.540948 3.2175 0.282749 3.12534C0.0910663 3.05595 0.00380797 2.91391 0.00345036 2.7126C0.00273512 2.22035 -0.00513244 1.72774 0.00559605 1.23585C0.0213312 0.514462 0.541663 0.00667183 1.26655 0.00269624C2.24177 -0.00236359 3.21699 0.00125058 4.19221 0.00125058C5.58977 0.00125058 6.98698 0.00125058 8.38455 0.00125058L8.38419 0.00161199Z" fill="#C11D2A"/>
<path d="M8.09194 7.20384C7.93888 7.20529 7.83124 7.13842 7.76007 7.01627C7.68462 6.88652 7.6864 6.75243 7.76794 6.62557C7.79977 6.57606 7.84161 6.53197 7.88345 6.48968C9.05107 5.31002 10.219 4.13035 11.3874 2.95141C11.5916 2.7454 11.7504 2.72047 11.9338 2.8607C12.1037 2.99081 12.1402 3.20982 12.0179 3.38656C11.9875 3.43029 11.9488 3.4686 11.9109 3.50655C10.7472 4.68187 9.5832 5.85684 8.41987 7.03253C8.32511 7.1283 8.22783 7.21288 8.09194 7.20384Z" fill="#C11D2A"/>
<path d="M3.43441 2.88111C3.43441 2.74919 3.42869 2.61655 3.43584 2.48499C3.44871 2.24971 3.60642 2.08961 3.81599 2.08997C4.02519 2.08997 4.18719 2.24971 4.1947 2.48572C4.20364 2.7557 4.20364 3.02604 4.1947 3.29601C4.18683 3.53057 4.02269 3.69213 3.81491 3.69177C3.60678 3.69177 3.44764 3.52949 3.43548 3.29529C3.42833 3.15759 3.43405 3.01917 3.43405 2.88111H3.43441Z" fill="#C11D2A"/>
<path d="M3.43495 4.96426C3.43495 4.83234 3.42816 4.6997 3.43638 4.56815C3.45069 4.33612 3.6159 4.17493 3.82332 4.17999C4.02466 4.18505 4.18559 4.34118 4.19381 4.56562C4.20383 4.84138 4.20418 5.11822 4.19381 5.39399C4.18523 5.62565 4.01357 5.78757 3.80759 5.78215C3.60589 5.77709 3.45033 5.62095 3.43638 5.39615C3.42744 5.25267 3.43459 5.1081 3.43459 4.9639L3.43495 4.96426Z" fill="#C11D2A"/>
<path d="M3.43438 7.06998C3.43438 6.93806 3.42902 6.80542 3.43545 6.67386C3.44726 6.44003 3.60496 6.27703 3.81202 6.2745C4.0198 6.27233 4.18609 6.4328 4.19432 6.66627C4.20397 6.93589 4.20326 7.20659 4.19432 7.47657C4.18681 7.71438 4.02838 7.87304 3.81882 7.87521C3.60282 7.87774 3.44547 7.71294 3.43474 7.46573C3.42902 7.33381 3.43367 7.20153 3.43367 7.06961L3.43438 7.06998Z" fill="#C11D2A"/>
<path d="M8.09054 1.92663C7.40856 1.92519 6.84997 2.48357 6.84961 3.16701C6.84925 3.84612 7.41572 4.41679 8.08875 4.41535C8.75714 4.4139 9.30929 3.85696 9.31537 3.17749C9.32181 2.48755 8.77394 1.92808 8.09054 1.92627V1.92663ZM8.07552 3.64445C7.80766 3.63866 7.6099 3.42976 7.61419 3.15762C7.61848 2.88908 7.82662 2.68777 8.09519 2.69211C8.36197 2.69645 8.55973 2.90499 8.55544 3.17749C8.55115 3.44639 8.34158 3.65023 8.07552 3.64445Z" fill="#C11D2A"/>
<path d="M11.7055 5.58253C11.0357 5.58542 10.4814 6.14381 10.4778 6.81966C10.4739 7.50888 11.0235 8.0698 11.7044 8.07161C12.3871 8.07342 12.9414 7.51719 12.9421 6.82978C12.9429 6.14598 12.3814 5.57964 11.7055 5.58253ZM11.7037 7.30613C11.4391 7.3036 11.2302 7.08964 11.2334 6.82436C11.2367 6.5598 11.4512 6.3491 11.7144 6.35199C11.9776 6.35524 12.189 6.57209 12.1851 6.8352C12.1811 7.10048 11.9687 7.3083 11.7037 7.30577V7.30613Z" fill="#C11D2A"/>
</svg>
