<svg width="30" height="30" viewBox="0 0 30 30" fill="none" xmlns="http://www.w3.org/2000/svg">
<circle cx="15" cy="15" r="15" fill="#F2F2F2"/>
<path d="M14.9995 22.9993C14.6663 22.9993 14.3327 23.0014 13.9995 22.9985C13.6842 22.996 13.4663 22.7805 13.4604 22.4632C13.4554 22.1926 13.4567 21.9217 13.4613 21.6507C13.4629 21.5547 13.4391 21.5062 13.3356 21.4791C12.716 21.3179 12.1252 21.0833 11.5794 20.745C11.4909 20.6904 11.4433 20.7242 11.3844 20.7835C11.1991 20.9714 11.0124 21.1576 10.8237 21.3421C10.5535 21.606 10.2972 21.6056 10.027 21.3371C9.56858 20.8824 9.11138 20.4265 8.65668 19.968C8.39071 19.7 8.39405 19.4432 8.66211 19.1714C8.84248 18.9885 9.02244 18.8052 9.20866 18.6281C9.28549 18.5551 9.30428 18.5004 9.24332 18.3993C8.92265 17.8686 8.68215 17.3025 8.53726 16.6983C8.50845 16.5789 8.45209 16.5304 8.32307 16.5359C8.07338 16.5463 7.82328 16.5405 7.57317 16.5375C7.21284 16.5334 7.00156 16.3246 7.00073 15.9705C6.99948 15.3179 6.99989 14.6649 7.00156 14.0123C7.0024 13.6778 7.21158 13.4653 7.54436 13.4611C7.80115 13.4578 8.05835 13.4544 8.31513 13.4636C8.43914 13.4682 8.50595 13.4311 8.53434 13.3066C8.67213 12.7071 8.91973 12.1513 9.22745 11.6223C9.29175 11.5116 9.29217 11.4448 9.19697 11.3567C9.00866 11.1822 8.82954 10.9981 8.64958 10.8144C8.39488 10.5547 8.3953 10.2912 8.6525 10.0327C9.10261 9.58012 9.55396 9.12835 10.0066 8.67824C10.2976 8.38889 10.5431 8.38722 10.8329 8.66989C11.0116 8.84442 11.1907 9.01895 11.3636 9.19891C11.4416 9.28033 11.4997 9.30037 11.6095 9.23566C12.1427 8.92 12.7072 8.67532 13.3118 8.53169C13.4237 8.50497 13.4671 8.45277 13.4617 8.33044C13.4504 8.07407 13.4563 7.81687 13.4596 7.55966C13.4642 7.21144 13.6738 7.001 14.0162 7.00058C14.6621 6.99975 15.3076 6.99975 15.9535 7.001C16.3377 7.00183 16.5356 7.20476 16.5368 7.59599C16.5377 7.84609 16.5406 8.0962 16.5368 8.34588C16.5352 8.43858 16.5494 8.49787 16.6567 8.52376C17.2876 8.6749 17.8792 8.92501 18.4345 9.25945C18.5168 9.30914 18.5581 9.27407 18.6112 9.22062C18.7966 9.03315 18.9844 8.84776 19.1723 8.66238C19.4446 8.39432 19.6997 8.39098 19.9673 8.65695C20.4254 9.11206 20.8821 9.56843 21.3368 10.0269C21.6066 10.2987 21.6074 10.5526 21.3423 10.8235C21.1627 11.0073 20.9811 11.1889 20.7957 11.3668C20.721 11.4386 20.6972 11.5 20.7561 11.5985C21.0801 12.1434 21.3297 12.72 21.473 13.3392C21.4972 13.4436 21.5556 13.464 21.6508 13.4624C21.9147 13.4578 22.1786 13.4582 22.4425 13.4615C22.789 13.4657 22.9974 13.6757 22.9982 14.0227C22.9999 14.6753 22.9999 15.3283 22.9982 15.981C22.9974 16.3229 22.7853 16.5334 22.4375 16.5375C22.1807 16.5409 21.9235 16.5442 21.6667 16.5342C21.5456 16.5292 21.4922 16.5743 21.4654 16.6862C21.3222 17.2916 21.078 17.8561 20.7611 18.3893C20.6972 18.497 20.7197 18.5592 20.8011 18.6373C20.9865 18.8148 21.1665 18.9985 21.3456 19.1826C21.6041 19.4486 21.6037 19.697 21.3464 19.9622C21.2546 20.0569 21.1611 20.1496 21.068 20.2432C20.9606 20.3509 20.8341 20.3847 20.7193 20.2762C20.5949 20.1588 20.6283 20.0269 20.7414 19.9112C20.7464 19.9062 20.7515 19.9016 20.7561 19.8966C20.9654 19.6709 20.9577 19.4469 20.7331 19.2248C20.6195 19.1125 20.5039 19.0023 20.3949 18.8858C20.2062 18.6841 20.1707 18.4745 20.3122 18.2402C20.6512 17.6782 20.8934 17.0778 21.0571 16.4436C21.1197 16.2002 21.2897 16.0766 21.5448 16.0724C21.8087 16.0678 22.0725 16.0657 22.3364 16.0732C22.4834 16.0774 22.5452 16.0373 22.5427 15.8745C22.5339 15.2845 22.5356 14.6941 22.5427 14.1037C22.5444 13.9622 22.4926 13.9238 22.3606 13.9275C22.0901 13.935 21.8191 13.9346 21.5481 13.9304C21.2901 13.9263 21.113 13.7922 21.0504 13.5421C20.8943 12.9196 20.6533 12.3338 20.3268 11.781C20.1652 11.5071 20.1953 11.3179 20.4187 11.0887C20.6024 10.8995 20.7878 10.7116 20.9782 10.5292C21.0542 10.4565 21.0642 10.4081 20.9828 10.3283C20.5423 9.89494 20.1055 9.45778 19.6717 9.0177C19.5899 8.93461 19.5373 8.95382 19.4671 9.02647C19.2888 9.21144 19.1068 9.39265 18.9239 9.57302C18.6905 9.80309 18.4884 9.83649 18.2133 9.6724C17.6621 9.34296 17.075 9.10538 16.4529 8.94922C16.2091 8.88785 16.0734 8.70914 16.0667 8.44651C16.06 8.16885 16.0617 7.89119 16.0663 7.61353C16.068 7.4987 16.0287 7.45737 15.9093 7.45862C15.3051 7.46363 14.7009 7.46405 14.0968 7.4582C13.9648 7.45695 13.9297 7.50664 13.9323 7.62856C13.9381 7.89244 13.9381 8.15632 13.9327 8.42021C13.9268 8.72501 13.8028 8.88158 13.5126 8.95632C12.9185 9.10914 12.3569 9.3392 11.8266 9.64818C11.4943 9.8415 11.3231 9.81603 11.0513 9.54547C10.8792 9.37428 10.7034 9.20601 10.5368 9.02939C10.4546 8.94213 10.3991 8.94672 10.3164 9.03023C9.89259 9.46071 9.4667 9.8891 9.03497 10.3112C8.93685 10.4068 8.9573 10.4645 9.04332 10.5471C9.21868 10.715 9.38653 10.8908 9.55772 11.0632C9.80616 11.3142 9.83664 11.51 9.65918 11.8077C9.33685 12.3471 9.10678 12.9233 8.95271 13.5317C8.88758 13.7881 8.71388 13.9283 8.4429 13.9346C8.17902 13.9409 7.91513 13.9396 7.65125 13.9346C7.51847 13.9321 7.4525 13.9643 7.45459 14.1196C7.46294 14.7096 7.46294 15.3 7.45459 15.8904C7.4525 16.0348 7.51263 16.0728 7.63831 16.0716C7.90219 16.0691 8.16607 16.067 8.42996 16.0707C8.72181 16.0749 8.87672 16.1952 8.95188 16.4795C9.11346 17.0929 9.34645 17.6749 9.67505 18.219C9.83246 18.4791 9.79906 18.6924 9.58319 18.9154C9.41409 19.0899 9.2454 19.2653 9.06586 19.429C8.95563 19.5292 8.9381 19.5947 9.05668 19.7096C9.48048 20.12 9.89509 20.54 10.3076 20.9618C10.3957 21.0519 10.4542 21.0599 10.5431 20.9655C10.7239 20.7739 10.9122 20.5885 11.1018 20.4052C11.3101 20.2039 11.5101 20.1705 11.7623 20.3162C12.3289 20.644 12.9226 20.9008 13.5598 21.0582C13.7945 21.1162 13.9193 21.2824 13.9277 21.5279C13.9373 21.8052 13.9385 22.0833 13.9335 22.3609C13.931 22.4908 13.9652 22.5455 14.1085 22.5438C14.7055 22.5367 15.303 22.5371 15.9001 22.5438C16.0304 22.545 16.0696 22.5008 16.0663 22.3768C16.0596 22.12 16.0613 21.8628 16.0638 21.606C16.0671 21.2728 16.179 21.1304 16.5034 21.0419C17.0943 20.8803 17.6596 20.6607 18.1865 20.3434C18.4892 20.1609 18.6767 20.1906 18.931 20.4398C19.1093 20.6148 19.2876 20.7901 19.4596 20.9714C19.5398 21.0557 19.5999 21.0657 19.6801 20.9734C19.7573 20.8845 19.8416 20.801 19.9314 20.7246C20.0387 20.6336 20.1657 20.6148 20.2684 20.7204C20.369 20.824 20.3602 20.9476 20.2571 21.054C20.141 21.1734 20.0275 21.2962 19.903 21.406C19.688 21.596 19.4345 21.583 19.2128 21.3726C19.0166 21.1864 18.8241 20.9956 18.6366 20.8002C18.5569 20.7171 18.4959 20.702 18.389 20.7643C17.8546 21.0766 17.2922 21.3263 16.6863 21.4674C16.5736 21.4937 16.5318 21.5534 16.536 21.672C16.5448 21.9288 16.541 22.186 16.5385 22.4428C16.5352 22.7889 16.3256 22.9968 15.979 22.9989C15.6525 23.001 15.3264 22.9989 14.9999 22.9989L14.9995 22.9993Z" fill="black"/>
<path d="M15.011 10.0004C17.4222 9.99415 19.4373 11.7094 19.9057 13.9704C20.4606 16.6489 18.859 19.2071 16.198 19.8743C13.7203 20.4956 11.2611 19.1737 10.3341 16.8405C10.0155 16.0388 9.92243 15.2079 10.0352 14.3516C10.0577 14.1804 10.1174 14.0656 10.3032 14.0856C10.5016 14.1073 10.5174 14.2618 10.494 14.4142C10.3892 15.1065 10.459 15.7854 10.6853 16.4413C11.165 17.8317 12.0995 18.8188 13.4865 19.2894C15.2803 19.8977 16.9107 19.5223 18.2469 18.1754C19.3287 17.0843 19.7533 15.734 19.4598 14.2084C19.1028 12.3537 17.9809 11.1616 16.183 10.6267C14.1508 10.0221 11.8464 11.0693 10.9333 12.98C10.8794 13.0923 10.8331 13.2084 10.7784 13.3203C10.7153 13.4493 10.6268 13.5436 10.4677 13.4789C10.302 13.4113 10.289 13.281 10.3487 13.1344C10.6168 12.4772 10.9976 11.8944 11.5141 11.405C12.494 10.476 13.6598 10.0058 15.011 10V10.0004Z" fill="black"/>
<path d="M14.3216 17.4315C14.0494 17.4361 13.8218 17.3267 13.6302 17.1442C13.198 16.7333 12.765 16.3225 12.3425 15.9016C11.9396 15.5004 11.9362 14.8766 12.3199 14.4782C12.7036 14.0799 13.3229 14.0657 13.7429 14.4494C13.8861 14.5805 14.0277 14.7141 14.1583 14.8578C14.2569 14.9659 14.3203 14.9626 14.4201 14.8528C15.0076 14.206 15.6001 13.5638 16.1955 12.9246C16.4727 12.6269 16.8172 12.5104 17.2139 12.6168C17.6005 12.7204 17.851 12.9759 17.9362 13.3697C18.0076 13.6995 17.9383 14.0064 17.7057 14.2594C16.8322 15.2093 15.9563 16.1567 15.0798 17.1037C14.8765 17.3233 14.6239 17.4361 14.3216 17.4315ZM14.3362 16.9659C14.5074 16.9672 14.6423 16.8907 14.7554 16.7684C15.6214 15.8315 16.4886 14.8949 17.3521 13.9559C17.4744 13.8227 17.5283 13.6586 17.4819 13.4761C17.4281 13.2657 17.302 13.12 17.0849 13.0665C16.8586 13.0106 16.6794 13.0903 16.5262 13.2565C15.8723 13.9655 15.2168 14.6728 14.5621 15.3805C14.3492 15.6106 14.2811 15.6135 14.0515 15.3943C13.8456 15.1981 13.6456 14.9956 13.4364 14.8026C13.1897 14.5747 12.8711 14.5793 12.6556 14.8052C12.4385 15.0331 12.446 15.3484 12.6865 15.5847C13.102 15.993 13.5233 16.3956 13.9429 16.8001C14.0519 16.9054 14.1817 16.9647 14.3358 16.9655L14.3362 16.9659Z" fill="black"/>
</svg>
