<svg width="16" height="16" viewBox="0 0 16 16" fill="none" xmlns="http://www.w3.org/2000/svg">
<path d="M2.93633 1.20742C2.93633 1.62742 2.93033 1.97939 2.93633 2.33139C2.92665 2.50363 2.95216 2.67608 3.01141 2.8381C3.07065 3.00012 3.1623 3.14835 3.28081 3.27371C3.39932 3.39907 3.54218 3.49892 3.70061 3.56717C3.85905 3.63542 4.02981 3.67062 4.20232 3.67062C4.37484 3.67062 4.54547 3.63542 4.70391 3.56717C4.86235 3.49892 5.0052 3.39907 5.12371 3.27371C5.24222 3.14835 5.33387 3.00012 5.39312 2.8381C5.45237 2.67608 5.478 2.50363 5.46831 2.33139C5.47631 1.98039 5.46831 1.63141 5.46831 1.24441H10.1243C10.1243 1.59541 10.1243 1.94439 10.1243 2.29239C10.1132 2.4657 10.1374 2.63951 10.1952 2.80325C10.2531 2.96699 10.3436 3.11731 10.4611 3.24514C10.5787 3.37298 10.7209 3.47565 10.8792 3.54702C11.0375 3.61839 11.2086 3.657 11.3823 3.66043C11.5563 3.65716 11.728 3.61897 11.887 3.54812C12.046 3.47728 12.1891 3.37523 12.3079 3.24801C12.4267 3.1208 12.5188 2.97098 12.5787 2.80752C12.6385 2.64406 12.6649 2.47027 12.6563 2.29641C12.6563 1.95741 12.6563 1.61842 12.6563 1.18942C13.2822 1.17881 13.9081 1.2122 14.5293 1.2894C14.85 1.3751 15.13 1.57151 15.3198 1.84384C15.5095 2.11617 15.597 2.4469 15.5663 2.77743C15.5663 4.72743 15.5663 6.67741 15.5663 8.62741C15.5663 10.3547 15.5663 12.0821 15.5663 13.8094C15.5949 14.0358 15.5715 14.2656 15.4979 14.4815C15.4242 14.6975 15.3022 14.8937 15.1413 15.0554C14.9804 15.2172 14.7847 15.34 14.5691 15.4147C14.3536 15.4894 14.1237 15.5139 13.8973 15.4864C9.8306 15.4864 5.76095 15.4864 1.68829 15.4864C1.46189 15.5138 1.23222 15.4891 1.01678 15.4143C0.801333 15.3396 0.605815 15.2167 0.444999 15.055C0.284183 14.8933 0.162388 14.6971 0.0887979 14.4813C0.0152079 14.2654 -0.00823687 14.0357 0.0203164 13.8094C0.0203164 10.1714 0.0203164 6.5331 0.0203164 2.89444C-0.00944432 2.66461 0.0140822 2.43101 0.0891641 2.21176C0.164246 1.99251 0.288899 1.79349 0.4533 1.63015C0.617701 1.46682 0.817431 1.34352 1.03716 1.26986C1.25689 1.19621 1.49064 1.17416 1.72027 1.20541C2.10927 1.20541 2.49933 1.20742 2.93633 1.20742ZM1.20428 5.41238V5.79544C1.20428 8.32077 1.20428 10.8461 1.20428 13.3714C1.20428 14.0714 1.47136 14.3364 2.18536 14.3364C5.92736 14.3364 9.66931 14.3364 13.4113 14.3364C14.1263 14.3364 14.3903 14.0734 14.3903 13.3704C14.3903 10.8451 14.3903 8.31973 14.3903 5.7944V5.41238H1.20428Z" fill="#C2C2C2"/>
<path d="M4.79433 1.50403C4.79433 1.77903 4.80533 2.05303 4.79433 2.32703C4.79755 2.40884 4.78422 2.49043 4.75527 2.56702C4.72632 2.64361 4.68228 2.71359 4.62575 2.77283C4.56922 2.83206 4.50144 2.87937 4.42629 2.91187C4.35113 2.94436 4.27013 2.96137 4.18825 2.96198C4.10953 2.95682 4.03273 2.93599 3.96218 2.9007C3.89162 2.8654 3.82882 2.81637 3.77748 2.75647C3.72615 2.69657 3.6873 2.62701 3.66323 2.55188C3.63916 2.47675 3.63038 2.39761 3.63735 2.31903C3.62935 1.75703 3.62935 1.195 3.63735 0.632996C3.63066 0.554267 3.63998 0.47503 3.66481 0.400024C3.68965 0.325019 3.7294 0.255833 3.78176 0.196655C3.83411 0.137478 3.89796 0.0895232 3.96938 0.0557251C4.0408 0.021927 4.11833 0.00296374 4.19728 0C4.35641 0 4.50908 0.0631984 4.6216 0.17572C4.73412 0.288242 4.79726 0.440846 4.79726 0.599976C4.81526 0.899976 4.79726 1.2 4.79726 1.5L4.79433 1.50403Z" fill="#C2C2C2"/>
<path d="M11.9612 1.47855C11.9612 1.77855 11.9722 2.07857 11.9612 2.37857C11.9623 2.45422 11.9483 2.5293 11.92 2.59946C11.8917 2.66961 11.8497 2.73341 11.7964 2.78714C11.7432 2.84087 11.6798 2.88347 11.6099 2.91238C11.54 2.9413 11.4649 2.95594 11.3892 2.95554C11.3164 2.95807 11.2437 2.94608 11.1756 2.92026C11.1074 2.89443 11.0451 2.85532 10.9922 2.80514C10.9394 2.75497 10.8971 2.69473 10.8677 2.62802C10.8384 2.56131 10.8226 2.48947 10.8213 2.41659C10.7983 1.79059 10.7973 1.16259 10.8213 0.53659C10.8222 0.46372 10.8377 0.391726 10.867 0.324981C10.8962 0.258236 10.9385 0.198056 10.9915 0.14804C11.0445 0.0980242 11.1073 0.0591841 11.1756 0.0338434C11.2439 0.0085026 11.3164 -0.00278111 11.3892 0.000579198C11.4649 -0.000648642 11.5402 0.0134 11.6104 0.0419C11.6806 0.0703999 11.7443 0.112731 11.7977 0.166412C11.8511 0.220093 11.8931 0.28404 11.9212 0.354339C11.9493 0.424638 11.9629 0.49989 11.9612 0.575591C11.9752 0.877591 11.9612 1.17855 11.9612 1.47855Z" fill="#C2C2C2"/>
<path d="M2.71826 8.21735V6.94531H4.4812V8.21735H2.71826Z" fill="#C2C2C2"/>
<path d="M11.1265 6.9375H12.8674V8.21149H11.1265V6.9375Z" fill="#C2C2C2"/>
<path d="M12.8762 9.22656V10.4826H11.1211V9.22656H12.8762Z" fill="#C2C2C2"/>
<path d="M4.48425 9.23438V10.4904H2.72119V9.23438H4.48425Z" fill="#C2C2C2"/>
<path d="M4.48108 12.7806H2.72803V11.5156H4.48108V12.7806Z" fill="#C2C2C2"/>
<path d="M12.8711 11.5156V12.7776H11.1211V11.5156H12.8711Z" fill="#C2C2C2"/>
<path d="M7.26709 9.22656V10.4955H5.5332V9.22656H7.26709Z" fill="#C2C2C2"/>
<path d="M5.5332 11.5078H7.25513V12.7758H5.5332V11.5078Z" fill="#C2C2C2"/>
<path d="M7.26294 6.9375V8.21051H5.53711V6.9375H7.26294Z" fill="#C2C2C2"/>
<path d="M10.0632 6.94531V8.21429H8.34131V6.94531H10.0632Z" fill="#C2C2C2"/>
<path d="M8.33691 10.4926V9.22656H10.0559V10.4926H8.33691Z" fill="#C2C2C2"/>
<path d="M8.3335 12.7736V11.5156H10.0645V12.7736H8.3335Z" fill="#C2C2C2"/>
</svg>
