<svg width="20" height="21" viewBox="0 0 20 21" fill="none" xmlns="http://www.w3.org/2000/svg">
<rect y="0.984375" width="20" height="20" rx="10" fill="#FF5370"/>
<g clip-path="url(#clip0_2597_3104)">
<path d="M6.46763 10.8365C6.48314 10.5744 6.49175 10.3633 6.51126 10.153C6.51401 10.127 6.52209 10.1018 6.535 10.0788C6.54791 10.0558 6.5654 10.0355 6.58643 10.0191C7.3553 9.54648 8.10689 9.03133 9.03092 8.8825C9.56824 8.79602 10.0958 8.80153 10.5834 9.08016C11.0008 9.31854 11.2476 9.67339 11.3533 10.1265C11.5089 10.7944 11.4568 11.4678 11.3964 12.1446C11.3135 13.0765 11.2414 14.0104 11.1953 14.9435C11.1831 15.1962 11.2561 15.4574 11.3334 15.7016C11.4079 15.9375 11.612 16.0448 11.8702 16.0566C12.3604 16.0756 12.7957 15.9133 13.2093 15.6722C13.2511 15.6483 13.2948 15.6269 13.3849 15.579C13.3691 15.8441 13.3588 16.0776 13.3367 16.3101C13.3334 16.3466 13.2814 16.3888 13.242 16.4119C12.7387 16.7008 12.2467 17.0172 11.7223 17.266C11.1979 17.5148 10.6337 17.5981 10.0554 17.5619C9.06293 17.4991 8.41001 16.824 8.38715 15.757C8.37215 15.0506 8.4506 14.3404 8.48948 13.6323C8.53267 12.8487 8.5819 12.0652 8.61947 11.2815C8.61999 11.1577 8.60026 11.0347 8.56102 10.9173C8.42103 10.4342 8.20931 10.2782 7.69671 10.3724C7.36446 10.4338 7.04933 10.5837 6.72758 10.6994C6.65031 10.7269 6.58139 10.7752 6.46763 10.8365Z" fill="white"/>
<path d="M9.61669 4.15542C10.596 3.96793 11.5108 4.5669 11.6185 5.49231C11.6878 6.07221 11.4272 6.53069 10.967 6.88639C10.3686 7.35102 9.47836 7.37649 8.85933 6.95642C7.87975 6.29157 8.03523 4.83914 9.14327 4.32759C9.29535 4.25768 9.45864 4.2123 9.61669 4.15542Z" fill="white"/>
</g>
<defs>
<clipPath id="clip0_2597_3104">
<rect width="6.07527" height="13.3656" fill="white" transform="translate(5.33594 4.98438) rotate(-10.9555)"/>
</clipPath>
</defs>
</svg>
