<svg width="27" height="27" viewBox="0 0 27 27" fill="none" xmlns="http://www.w3.org/2000/svg">
<path d="M16.3101 26.6406H10.3311C7.59105 26.6404 4.96332 25.5517 3.02591 23.6141C1.0885 21.6765 8.96454e-05 19.0487 8.96454e-05 16.3086L8.96454e-05 10.3296C0.000354767 7.58975 1.08888 4.96218 3.02626 3.0248C4.96364 1.08742 7.59122 -0.00111008 10.3311 -0.0013752L16.3101 -0.0013752C19.0501 -0.0013752 21.678 1.08703 23.6156 3.02444C25.5532 4.96185 26.6418 7.58958 26.6421 10.3296L26.6421 16.3086C26.6421 19.0488 25.5535 21.6768 23.6159 23.6145C21.6783 25.5521 19.0503 26.6406 16.3101 26.6406V26.6406Z" fill="url(#paint0_linear_4910_52959)"/>
<path fill-rule="evenodd" clip-rule="evenodd" d="M16.1497 8.88197C16.8088 7.96364 17.7974 7.31148 19.5788 7.0096L19.5753 7C8.56504 8.18218 13.2765 16.1901 13.3268 16.2923C12.5029 15.4193 11.4884 14.7484 10.3624 14.3322C9.23651 13.9159 8.02961 13.7655 6.83594 13.8926C10.5795 14.771 15.0797 18.7319 10.2031 18.3237C12.1673 19.3964 15.193 20.3646 16.4443 19.8646C19.8868 18.4051 13.5968 12.4381 16.1513 8.88005" fill="white"/>
<defs>
<linearGradient id="paint0_linear_4910_52959" x1="13.3211" y1="26.6406" x2="13.3211" y2="13.3196" gradientUnits="userSpaceOnUse">
<stop stop-color="#E52C08"/>
<stop offset="1" stop-color="#F93645"/>
</linearGradient>
</defs>
</svg>
