<svg xmlns="http://www.w3.org/2000/svg" xmlns:xlink="http://www.w3.org/1999/xlink" width="42" height="42" viewBox="0 0 42 42">
  <defs>
    <linearGradient id="linear-gradient" x1="0.5" x2="0.5" y2="1" gradientUnits="objectBoundingBox">
      <stop offset="0" stop-color="#f9c20a"/>
      <stop offset="1" stop-color="#ff7f00"/>
    </linearGradient>
    <clipPath id="clip-Icon_Tuyển_dụng">
      <rect width="42" height="42"/>
    </clipPath>
  </defs>
  <g id="Icon_Tuyển_dụng" data-name="Icon Tuyển dụng" clip-path="url(#clip-Icon_Tuyển_dụng)">
    <g id="Group_9243" data-name="Group 9243" transform="translate(19898 -759.5)">
      <g id="Group_9237" data-name="Group 9237" transform="translate(-19943 304)">
        <g id="Group_9009" data-name="Group 9009" transform="translate(2420 -10484.5)">
          <path id="Path_192" data-name="Path 192" d="M384.163,1767.649l.869.131v4l-.949.112v.613l.949.118v4.017l-.949.113v.617l1,.064v4.765H401.89V1762.22H385.063v4.694l-.892.127Zm5.037-4.808h12.051v18.686H389.2Zm-3.421,14.6.993-.078v-.611l-.993-.106v-4.055l.989-.079v-.613l-.983-.1v-4.059l.977-.08v-.62l-.973-.1v-4.073h2.648v18.678h-2.658Z" transform="translate(-2744.4 9187.46)" fill="#fff"/>
          <path id="Path_192-2" data-name="Path 192" d="M384.163,1767.649l.869.131v4l-.949.112v.613l.949.118v4.017l-.949.113v.617l1,.064v4.765H401.89V1762.22H385.063v4.694l-.892.127Zm5.037-4.808h12.051v18.686H389.2Zm-3.421,14.6.993-.078v-.611l-.993-.106v-4.055l.989-.079v-.613l-.983-.1v-4.059l.977-.08v-.62l-.973-.1v-4.073h2.648v18.678h-2.658Z" transform="translate(-2744.4 9187.46)" fill="#fff"/>
          <path id="Path_193" data-name="Path 193" d="M398.11,1774.813l-1.137-1.232-.669.512-2.954-2.976.5-.654-1.181-1.163c-.627.643-.628.956-.34,1.558a8.807,8.807,0,0,0,4.271,4.257,1.27,1.27,0,0,0,.176.091,1.086,1.086,0,0,0,1.33-.393Z" transform="translate(-2744.4 9187.46)" fill="#fff"/>
          <path id="Path_193-2" data-name="Path 193" d="M398.11,1774.813l-1.137-1.232-.669.512-2.954-2.976.5-.654-1.181-1.163c-.627.643-.628.956-.34,1.558a8.807,8.807,0,0,0,4.271,4.257,1.27,1.27,0,0,0,.176.091,1.086,1.086,0,0,0,1.33-.393Z" transform="translate(-2744.4 9187.46)" fill="#fff"/>
          <path id="Rectangle_48" data-name="Rectangle 48" d="M15.493,0h9.479A15.493,15.493,0,0,1,40.465,15.493v9.479A15.493,15.493,0,0,1,24.972,40.465H15.493A15.493,15.493,0,0,1,0,24.972V15.493A15.493,15.493,0,0,1,15.493,0Z" transform="translate(-2374 10941)" fill="url(#linear-gradient)"/>
          <g id="Group_8883" data-name="Group 8883" transform="translate(-2585.935 10795.145)">
            <path id="Path_3783" data-name="Path 3783" d="M239.532,170.624h2.583c.008-.114.02-.209.02-.3q0-6.642.006-13.284c0-.248-.083-.3-.314-.3q-9.242.008-18.485,0c-.243,0-.328.057-.328.317q.012,6.642,0,13.284c0,.228.065.293.293.291,1.236-.011,2.471,0,3.707-.009a.34.34,0,0,1,.366.218c.092.2.215.388.349.624-.122.01-.206.023-.291.023q-2.351,0-4.7,0c-.452,0-.58-.127-.58-.574q0-7.239,0-14.478c0-.415.132-.55.545-.566.091,0,.182,0,.274,0h19.231c.075,0,.149,0,.224,0,.429.012.565.149.565.576q0,4.764,0,9.528,0,2.475,0,4.95c0,.424-.144.57-.565.571-.639,0-1.277.005-1.916-.01a.649.649,0,0,1-.37-.145c-.232-.193-.441-.415-.659-.625Z" transform="translate(0 0)" fill="#fff"/>
            <path id="Path_3784" data-name="Path 3784" d="M288.615,225.916c.445.425.872.825,1.289,1.235q.9.89,1.793,1.793a1.461,1.461,0,0,1,.392,1.6,1.479,1.479,0,0,1-1.356,1.041,1.4,1.4,0,0,1-1.135-.411q-1.373-1.354-2.727-2.726a3.7,3.7,0,0,1-.341-.477,6.061,6.061,0,0,1-5.253.5,5.84,5.84,0,0,1-3.086-2.507,6.091,6.091,0,0,1,1.1-7.77,6.114,6.114,0,0,1,9.326,7.723Zm.03-3.184a5.22,5.22,0,0,0-5.218-5.267,5.262,5.262,0,1,0,5.218,5.267Z" transform="translate(-50.004 -55.133)" fill="#fff"/>
            <path id="Path_3785" data-name="Path 3785" d="M245.37,179.165a7.079,7.079,0,0,0-.31-.678,2.177,2.177,0,0,0-4.048,1.246c.009.161.065.22.225.211.18-.01.361,0,.566,0a1.573,1.573,0,0,1,.415-1.276v1.26h1.923v-1.187l.074-.034a2.67,2.67,0,0,1,.194.277,1.206,1.206,0,0,1-.3,1.559.345.345,0,0,1-.207.059c-1.178,0-2.355,0-3.533.005-.185,0-.243-.069-.243-.249q.007-2.824,0-5.647c0-.184.061-.242.245-.241q2.811.008,5.623,0c.206,0,.252.078.252.262q-.008,1.816,0,3.632a.354.354,0,0,1-.191.341C245.826,178.843,245.606,179,245.37,179.165Zm-2.186-2.152a.932.932,0,0,0,.959-.952.954.954,0,0,0-1.907.014A.932.932,0,0,0,243.184,177.013Z" transform="translate(-16.309 -16.888)" fill="#fff"/>
            <path id="Path_3786" data-name="Path 3786" d="M242.513,262.9c.014.391-.018.428-.378.428H240c-.008.1-.022.188-.022.275,0,.936.007,1.872-.006,2.808,0,.237.082.288.3.285.679-.012,1.359,0,2.038,0,.336,0,.393.062.4.446-.071.005-.144.015-.216.015q-1.3,0-2.61,0c-.277,0-.354-.076-.355-.354,0-1.193,0-2.386,0-3.579,0-.207.066-.343.292-.343q1.3,0,2.609,0A.377.377,0,0,1,242.513,262.9Z" transform="translate(-15.756 -97.108)" fill="#fff"/>
            <path id="Path_3787" data-name="Path 3787" d="M328.15,179.311h-4.1c-.075,0-.166.022-.22-.012a.4.4,0,0,1-.19-.221c-.009-.058.1-.157.174-.2a.532.532,0,0,1,.243-.025l8.18,0c.066,0,.149-.021.2.011.084.058.2.149.2.223s-.121.166-.208.218c-.055.033-.146.008-.22.008Z" transform="translate(-92.086 -20.861)" fill="#fff"/>
            <path id="Path_3788" data-name="Path 3788" d="M328.023,196.795h-4.08a.519.519,0,0,1-.221-.009,1.157,1.157,0,0,1-.219-.2,1.511,1.511,0,0,1,.224-.222c.046-.031.129-.009.2-.009h8.284c.16,0,.316.017.315.225s-.162.217-.319.216h-4.179Z" transform="translate(-91.964 -36.748)" fill="#fff"/>
            <path id="Path_3789" data-name="Path 3789" d="M413.121,262.909c.406,0,.794-.016,1.179.013a.358.358,0,0,1,.218.269c.013,1.235.008,2.471,0,3.706a.245.245,0,0,1-.255.277c-.438.006-.876,0-1.314,0,0-.383.066-.46.4-.461l.6,0a.6.6,0,0,0,.094-.019v-3.335h-.478C413.183,263.356,413.183,263.356,413.121,262.909Z" transform="translate(-173.132 -97.139)" fill="#fff"/>
            <path id="Path_3790" data-name="Path 3790" d="M372.62,213.692h4.037c.058,0,.131-.02.171.007a2.185,2.185,0,0,1,.247.224,1.732,1.732,0,0,1-.241.225c-.047.03-.129.007-.2.007-.985,0-1.97-.022-2.954.01a2.641,2.641,0,0,1-1.086-.385Z" transform="translate(-136.514 -52.476)" fill="#fff"/>
            <path id="Path_3791" data-name="Path 3791" d="M241.789,251.6c-.083.421-.089.427-.473.427q-1.367,0-2.734,0c-.148,0-.272-.033-.282-.206s.113-.249.271-.249q1.553,0,3.106,0A.567.567,0,0,1,241.789,251.6Z" transform="translate(-14.648 -86.853)" fill="#fff"/>
            <path id="Path_3792" data-name="Path 3792" d="M397.121,231.353h1.01c.306,0,.612,0,.918,0,.144,0,.262.073.229.221a.317.317,0,0,1-.215.207,12.957,12.957,0,0,1-1.537-.006c-.157-.013-.3-.214-.448-.328Z" transform="translate(-158.727 -68.508)" fill="#fff"/>
            <path id="Path_3793" data-name="Path 3793" d="M410.7,251.612c.55,0,1.1-.009,1.65.01.073,0,.142.143.212.22-.082.073-.161.2-.247.208-.453.021-.907.013-1.36.01-.278,0-.179-.267-.294-.384Z" transform="translate(-171.05 -86.89)" fill="#fff"/>
            <path id="Path_3794" data-name="Path 3794" d="M311.281,292.151l-.5-1.092-.1.028c0,.351-.016.7.005,1.052a.373.373,0,0,1-.323.436,4.8,4.8,0,0,1-2.791.007c-.236-.07-.362-.165-.338-.444.031-.36.008-.725.008-1.135a2.4,2.4,0,0,0-.569,1.171,4.116,4.116,0,0,1-1.206-.984.283.283,0,0,1,0-.246,3.825,3.825,0,0,1,6.976.012.275.275,0,0,1-.011.241A4.075,4.075,0,0,1,311.281,292.151Z" transform="translate(-75.571 -120.54)" fill="#fff"/>
            <path id="Path_3795" data-name="Path 3795" d="M328.361,247.419a1.71,1.71,0,1,1-1.7-1.712A1.714,1.714,0,0,1,328.361,247.419Z" transform="translate(-93.268 -81.533)" fill="#fff"/>
          </g>
        </g>
      </g>
    </g>
  </g>
</svg>
