<svg width="17" height="13" viewBox="0 0 17 13" fill="none" xmlns="http://www.w3.org/2000/svg">
<path d="M10.3634 6.38158C8.27914 6.16186 6.20439 5.91772 4.12095 5.73448C3.76209 5.75155 3.40634 5.65972 3.10068 5.47093C2.79502 5.28214 2.5536 5.0052 2.4082 4.67668C1.79246 3.37919 1.02574 2.15813 0.330974 0.895389C0.200705 0.661773 0.110295 0.407339 0 0.161564L0.153719 0L16.0971 6.35974L16.1022 6.63941L0.154568 13L0.00445256 12.8569C0.0939037 12.6056 0.19708 12.3594 0.313588 12.1195C1.03354 10.8168 1.79774 9.52971 2.47775 8.20183C2.59545 7.93046 2.78935 7.69912 3.03601 7.53586C3.28268 7.3726 3.57158 7.28437 3.86737 7.28206C5.90218 7.10142 7.93181 6.86795 9.96314 6.65171C10.103 6.63694 10.2391 6.59698 10.3772 6.57092L10.3634 6.38158Z" fill="#347EF9"/>
</svg>
