<svg width="20" height="20" viewBox="0 0 20 20" fill="none" xmlns="http://www.w3.org/2000/svg">
<circle cx="10" cy="10" r="9.5" fill="white" stroke="#00AFE5"/>
<path d="M5.86041 10.8761C6.13737 12.0071 6.71698 12.8556 7.63137 13.459C9.7064 14.8252 12.4524 14.0881 13.5924 11.8698C13.6395 11.7776 13.683 11.6818 13.7387 11.5932C13.8736 11.3787 14.0956 11.3072 14.3004 11.4058C14.5053 11.5045 14.5938 11.7461 14.486 11.9913C14.1153 12.8488 13.5118 13.5849 12.7443 14.1162C11.9767 14.6474 11.0758 14.9524 10.1438 14.9965C9.21188 15.0407 8.28624 14.8222 7.47204 14.3659C6.65784 13.9097 5.98771 13.2339 5.53777 12.4153C5.33648 12.0535 5.20229 11.6553 5.02884 11.2564C4.94532 11.3737 4.86608 11.4988 4.77329 11.6139C4.61411 11.8083 4.37928 11.8484 4.19083 11.724C4.14415 11.6947 4.10388 11.6563 4.07249 11.611C4.04109 11.5657 4.01923 11.5145 4.00821 11.4605C3.9972 11.4064 3.99726 11.3507 4.00841 11.2967C4.01955 11.2427 4.04154 11.1916 4.07304 11.1463C4.36713 10.6802 4.67241 10.2218 4.98886 9.7709C5.14376 9.55 5.37003 9.52425 5.59274 9.66651C6.04006 9.95247 6.48214 10.247 6.91899 10.5501C7.1417 10.7038 7.18738 10.9505 7.06175 11.1485C6.93612 11.3465 6.69485 11.3973 6.45929 11.2614C6.27013 11.1513 6.09454 11.0277 5.86041 10.8761Z" fill="#00AFE5"/>
<path d="M13.9428 9.11813C13.7999 8.41213 13.4661 7.75903 12.9778 7.23011C10.9998 5.074 7.60423 5.51437 6.23444 8.10585C6.18874 8.1997 6.13774 8.29087 6.0817 8.37892C5.93893 8.58767 5.71123 8.64843 5.51065 8.53691C5.31007 8.42539 5.23797 8.20235 5.34147 7.97001C5.63668 7.29746 6.07922 6.70007 6.63631 6.2221C9.20172 4.04169 13.0277 4.88025 14.4468 7.9314C14.566 8.18805 14.6502 8.46043 14.7658 8.76426C14.8572 8.63486 14.9322 8.5219 15.0142 8.41538C15.1799 8.20092 15.4175 8.1473 15.6131 8.2724C15.8087 8.39751 15.8708 8.64487 15.7259 8.87435C15.4361 9.33141 15.1363 9.78178 14.8265 10.2255C14.6723 10.4471 14.4446 10.4807 14.2233 10.3406C13.7675 10.0513 13.3178 9.7508 12.8743 9.43911C12.8256 9.40875 12.7837 9.3686 12.7513 9.32121C12.7189 9.27382 12.6967 9.22022 12.686 9.16378C12.6754 9.10735 12.6765 9.04932 12.6893 8.99335C12.7022 8.93738 12.7265 8.88469 12.7608 8.83861C12.9207 8.63129 13.1248 8.6177 13.3432 8.73708C13.4432 8.79142 13.5353 8.86005 13.6288 8.92153L13.9428 9.11813Z" fill="#00AFE5"/>
</svg>
