<svg width="13" height="11" viewBox="0 0 13 11" fill="none" xmlns="http://www.w3.org/2000/svg">
<path d="M6.09411 0.26472C6.20879 -0.0882394 6.70813 -0.0882401 6.82281 0.264719L7.92067 3.64358C7.97196 3.80142 8.11906 3.9083 8.28503 3.9083H11.8378C12.2089 3.9083 12.3632 4.3832 12.063 4.60134L9.18873 6.68959C9.05445 6.78714 8.99827 6.96007 9.04955 7.11791L10.1474 10.4968C10.2621 10.8497 9.85812 11.1432 9.55787 10.9251L6.68364 8.83685C6.54937 8.73929 6.36755 8.73929 6.23328 8.83685L3.35905 10.9251C3.0588 11.1432 2.65483 10.8497 2.76951 10.4968L3.86737 7.11791C3.91866 6.96007 3.86247 6.78714 3.7282 6.68959L0.853969 4.60134C0.553724 4.3832 0.708029 3.9083 1.07915 3.9083H4.63189C4.79786 3.9083 4.94496 3.80143 4.99625 3.64358L6.09411 0.26472Z" fill="#4099FF"/>
</svg>
