<svg xmlns="http://www.w3.org/2000/svg" xmlns:xlink="http://www.w3.org/1999/xlink" width="42" height="42" viewBox="0 0 42 42">
  <defs>
    <linearGradient id="linear-gradient" x1="0.5" x2="0.5" y2="1" gradientUnits="objectBoundingBox">
      <stop offset="0" stop-color="#ffae46"/>
      <stop offset="0.19" stop-color="#ff9754"/>
      <stop offset="0.739" stop-color="#ff5a7d"/>
      <stop offset="1" stop-color="#ff428d"/>
    </linearGradient>
    <clipPath id="clip-Icon_Đào_tạo">
      <rect width="42" height="42"/>
    </clipPath>
  </defs>
  <g id="Icon_Đào_tạo" data-name="Icon Đào tạo" clip-path="url(#clip-Icon_Đào_tạo)">
    <g id="Group_9242" data-name="Group 9242" transform="translate(19898.496 -677.094)">
      <g id="Group_9233" data-name="Group 9233" transform="translate(-19943 304)">
        <g id="Group_9008" data-name="Group 9008" transform="translate(2502 -10439.5)">
          <path id="Rectangle_41" data-name="Rectangle 41" d="M15.493,0h9.479A15.493,15.493,0,0,1,40.465,15.493v9.479A15.493,15.493,0,0,1,24.972,40.465H15.493A15.493,15.493,0,0,1,0,24.972V15.493A15.493,15.493,0,0,1,15.493,0Z" transform="translate(-2456.496 10813.594)" fill="url(#linear-gradient)"/>
          <path id="Path_168" data-name="Path 168" d="M402.451,1660.118a1.2,1.2,0,0,0,1.9-1.143,4.11,4.11,0,0,0-.639-1.678l-.007-.012a1.049,1.049,0,0,1-.15-.54l-.009-9.089a.778.778,0,0,1,.316-.671,1.376,1.376,0,0,0,.566-1.149,1.6,1.6,0,0,0-1.125-1.467c-3.172-1.282-6.319-2.554-9.466-3.822a2.228,2.228,0,0,0-1.719,0l-9.469,3.83a1.531,1.531,0,0,0-.02,2.933l.482.2c.567.233,1.136.466,1.711.681a.733.733,0,0,1,.516.838c-.006.835,0,1.722,0,2.61v1a1.61,1.61,0,0,0,1.074,1.618q2.958,1.19,5.893,2.377a1.709,1.709,0,0,0,1.342,0q2.94-1.182,5.862-2.362a1.629,1.629,0,0,0,1.122-1.646v-3.778a.635.635,0,0,1,.306-.568c.333-.15.674-.285,1.024-.425l.755-.3.027.438a1.434,1.434,0,0,0,.02.173c.011,2.91.011,5.764,0,8.618a1.031,1.031,0,0,1-.171.521,3.62,3.62,0,0,0-.64,1.825,1.09,1.09,0,0,0,.013.189A1.192,1.192,0,0,0,402.451,1660.118Zm-2.6-7.516a.87.87,0,0,1-.647.978l-1.064.43c-1.579.637-3.16,1.275-4.745,1.9a1.288,1.288,0,0,1-.422.07,1.257,1.257,0,0,1-.442-.08q-2.2-.864-4.38-1.748l-1.435-.578a.839.839,0,0,1-.616-.8v-4.007l.529.176c.079.024.148.047.215.073q2.631,1.068,5.262,2.127a2.287,2.287,0,0,0,1.793-.018c1.3-.534,2.6-1.055,3.9-1.577l1.378-.554c.053-.021.105-.037.165-.056l.524-.178Zm2.385-5.665c-.123.047-.246.1-.366.144q-4.139,1.675-8.283,3.342a4.337,4.337,0,0,1-.549.144l-.06.012-.061-.013a4.43,4.43,0,0,1-.565-.149l-9.2-3.7a1.312,1.312,0,0,1-.4-.184c-.215-.2-.452-.42-.431-.7a.942.942,0,0,1,.489-.682c.521-.232,1.034-.437,1.549-.641l8-3.229a1.606,1.606,0,0,1,1.233,0q4.7,1.887,9.389,3.784a.557.557,0,0,1,.285.169c.021.026.048.055.075.085a.779.779,0,0,1,.278.557.959.959,0,0,1-.481.685h-.009a9.318,9.318,0,0,1-.892.379Z" transform="translate(-2829.254 9183.46)" fill="#fff"/>
        </g>
      </g>
    </g>
  </g>
</svg>
