<svg xmlns="http://www.w3.org/2000/svg" width="6.786" height="9.056" viewBox="0 0 6.786 9.056">
    <g data-name="Group 20777">
        <g data-name="Group 20773">
            <g data-name="Group 20772" style="opacity:.5">
                <path data-name="Path 2448" d="M3.397 9.057h-2.2a1.187 1.187 0 0 1-1.094-.739 1.35 1.35 0 0 1-.089-.653 3.642 3.642 0 0 1 .364-1.274 3.463 3.463 0 0 1 .558-.81 3.185 3.185 0 0 1 .611-.523 1.071 1.071 0 0 1 .8-.165c.194.036.385.092.577.139a1.757 1.757 0 0 0 .748.036c.226-.042.45-.1.674-.157a1.131 1.131 0 0 1 .95.175 3.423 3.423 0 0 1 1.08 1.219 3.507 3.507 0 0 1 .331.887 2.515 2.515 0 0 1 .079.763 1.187 1.187 0 0 1-.307.707 1.153 1.153 0 0 1-.9.4zm0-.322H5.56a.988.988 0 0 0 .265-.032.894.894 0 0 0 .641-.846 2.146 2.146 0 0 0-.042-.421 3.241 3.241 0 0 0-.286-.875 3.156 3.156 0 0 0-1.05-1.22.792.792 0 0 0-.621-.128c-.194.038-.383.1-.576.145a2.213 2.213 0 0 1-.631.052 4.229 4.229 0 0 1-.848-.176.821.821 0 0 0-.681.089 2.981 2.981 0 0 0-.776.737 3.068 3.068 0 0 0-.5 1.011 5.522 5.522 0 0 0-.122.6.882.882 0 0 0 .066.526.866.866 0 0 0 .842.539q1.073-.002 2.156-.001z"/>
                <path data-name="Path 2449" d="M5.656 2.273a2.269 2.269 0 0 1-2.19 2.273 2.273 2.273 0 0 1-2.336-2.3A2.271 2.271 0 0 1 3.501.008a2.265 2.265 0 0 1 2.155 2.265zM3.449.324a1.946 1.946 0 0 0-2 1.922 1.942 1.942 0 0 0 1.937 1.979 1.938 1.938 0 0 0 1.949-1.946A1.944 1.944 0 0 0 3.449.324z"/>
            </g>
        </g>
    </g>
</svg>
