<svg xmlns="http://www.w3.org/2000/svg" xmlns:xlink="http://www.w3.org/1999/xlink" width="42" height="42" viewBox="0 0 42 42">
  <defs>
    <linearGradient id="linear-gradient" x1="0.875" y1="0.108" x2="0" y2="0.922" gradientUnits="objectBoundingBox">
      <stop offset="0" stop-color="#ff7f18"/>
      <stop offset="0.274" stop-color="#ff1364"/>
      <stop offset="1" stop-color="#a178d9"/>
      <stop offset="1"/>
    </linearGradient>
    <clipPath id="clip-Icon_Quản_lý_công_việc">
      <rect width="42" height="42"/>
    </clipPath>
  </defs>
  <g id="Icon_Quản_lý_công_việc" data-name="Icon Quản lý công việc" clip-path="url(#clip-Icon_Quản_lý_công_việc)">
    <g id="Group_9244" data-name="Group 9244" transform="translate(19898 -842.35)">
      <g id="Group_9238" data-name="Group 9238" transform="translate(-19943 304)">
        <g id="Group_9010" data-name="Group 9010" transform="translate(2457 -10407.5)">
          <g id="Group_8885" data-name="Group 8885" transform="translate(-16688.5 -28)">
            <rect id="Rectangle_46" data-name="Rectangle 46" width="39.952" height="39.952" rx="15.493" transform="translate(14277.5 11014.802) rotate(-90)" fill="url(#linear-gradient)"/>
            <g id="Group_8877" data-name="Group 8877" transform="translate(-36.855)">
              <g id="Group_8876" data-name="Group 8876">
                <g id="Group_8873" data-name="Group 8873" transform="translate(9910.762 7389.655)">
                  <path id="Path_3834" data-name="Path 3834" d="M4419.949,3645.5v1.063c-.064,0-.123.008-.182.008-.435,0-.87,0-1.305,0a1.257,1.257,0,0,0-1.289,1.289c.013,4.608.006,9.217.007,13.825a1.213,1.213,0,0,0,1.2,1.22c.088,0,.177,0,.265,0h10.026a1.24,1.24,0,0,0,1.27-.834,1.3,1.3,0,0,0,.059-.389q.005-6.92,0-13.842a1.215,1.215,0,0,0-1.25-1.27c-.5-.007-1,0-1.514,0v-1.081h.255c.49,0,.981-.016,1.47.014a2.268,2.268,0,0,1,2.123,2.249q.008,7,0,13.99a2.28,2.28,0,0,1-2.044,2.226c-.12.012-.242.016-.362.016H4418.5a2.3,2.3,0,0,1-2.154-1.245,2.026,2.026,0,0,1-.252-1q0-6.987,0-13.974a2.267,2.267,0,0,1,2.14-2.266C4418.8,3645.476,4419.37,3645.5,4419.949,3645.5Z" transform="translate(0 -48.794)" fill="#fff"/>
                  <path id="Path_3835" data-name="Path 3835" d="M4555.74,3596.453c.156-.941.631-1.424,1.388-1.424s1.233.483,1.388,1.424h1.183c.306,0,.362.058.362.368q0,.892,0,1.783c0,.251-.072.323-.324.323h-5.218c-.253,0-.324-.072-.325-.323q0-.916,0-1.833c0-.242.073-.318.312-.319C4554.919,3596.452,4555.331,3596.453,4555.74,3596.453Zm1.4.524a.577.577,0,1,0-.585-.57A.576.576,0,0,0,4557.136,3596.977Z" transform="translate(-133.538 0)" fill="#fff"/>
                  <path id="Path_3836" data-name="Path 3836" d="M4629.984,3925.419v.808h-5.441v-.808Z" transform="translate(-201.563 -319.474)" fill="#fff"/>
                  <path id="Path_3837" data-name="Path 3837" d="M4630,4047.14v.8h-5.444v-.8Z" transform="translate(-201.574 -437.175)" fill="#fff"/>
                  <path id="Path_3838" data-name="Path 3838" d="M4500.6,3758.656c-.032.049-.053.087-.08.12q-1.049,1.284-2.1,2.567c-.07.085-.13.1-.218.019q-.718-.668-1.443-1.33a.135.135,0,0,1,0-.224c.132-.139.264-.28.391-.424.08-.091.148-.089.234-.007.219.208.443.411.666.616.177.163.181.163.33-.02q.705-.861,1.411-1.722c.145-.176.149-.175.325-.032.132.108.265.215.395.325A.9.9,0,0,1,4500.6,3758.656Z" transform="translate(-77.94 -157.698)" fill="#fff"/>
                  <path id="Path_3839" data-name="Path 3839" d="M4500.73,4002.333c-.035.052-.06.094-.09.131-.689.842-1.381,1.682-2.066,2.528-.1.123-.17.117-.278.015q-.679-.638-1.369-1.264c-.109-.1-.131-.174-.02-.283.13-.127.25-.263.37-.4a.141.141,0,0,1,.236-.008c.228.216.465.421.688.641.115.114.187.109.288-.017.476-.591.963-1.172,1.437-1.765.106-.133.185-.141.305-.03s.272.222.406.336A.81.81,0,0,1,4500.73,4002.333Z" transform="translate(-78.072 -393.336)" fill="#fff"/>
                  <path id="Path_3840" data-name="Path 3840" d="M4498.419,3883.1c-.049-.036-.086-.059-.118-.088q-.7-.649-1.409-1.3c-.094-.087-.113-.163-.013-.262.129-.127.252-.261.37-.4.085-.1.158-.091.248-.007.229.215.467.42.69.64.113.111.185.1.279-.019.478-.59.959-1.177,1.44-1.765.13-.159.144-.159.3-.031.136.112.273.223.411.333a.136.136,0,0,1,.025.224q-1.059,1.288-2.115,2.577A.935.935,0,0,1,4498.419,3883.1Z" transform="translate(-78.052 -275.345)" fill="#fff"/>
                  <path id="Path_3841" data-name="Path 3841" d="M4624.368,3804.693v-.8h5.443v.8Z" transform="translate(-201.394 -201.967)" fill="#fff"/>
                </g>
              </g>
            </g>
          </g>
        </g>
      </g>
    </g>
  </g>
</svg>
