<svg width="15" height="9" viewBox="0 0 15 9" fill="none" xmlns="http://www.w3.org/2000/svg">
<g id="Group 81171">
<path id="Vector" d="M9.97508 0.636072C9.14317 0.234972 8.23441 0.0183793 7.31101 0.00111958C6.38762 -0.0161401 5.4714 0.166341 4.62508 0.536072C2.85102 1.32323 1.29096 2.52328 0.0750809 4.03607C0.0514285 4.05763 0.0325319 4.08388 0.0196037 4.11315C0.00667552 4.14242 0 4.17407 0 4.20607C0 4.23807 0.00667552 4.26972 0.0196037 4.29899C0.0325319 4.32827 0.0514285 4.35452 0.0750809 4.37607C1.10351 5.64625 2.37068 6.7028 3.80508 7.48607C4.75418 8.02494 5.8153 8.33643 6.90508 8.39607C7.73593 8.41163 8.56269 8.27609 9.34508 7.99607C11.2655 7.23158 12.9517 5.97643 14.2351 4.35607C14.2569 4.33551 14.2742 4.31071 14.2861 4.2832C14.298 4.25568 14.3041 4.22603 14.3041 4.19607C14.3041 4.16611 14.298 4.13646 14.2861 4.10895C14.2742 4.08144 14.2569 4.05664 14.2351 4.03607C13.0877 2.59794 11.6318 1.43598 9.97508 0.636072ZM13.6351 4.02607L13.7951 4.20607L13.4251 4.58607L13.0151 5.01607C12.0701 5.96604 10.9669 6.74431 9.75508 7.31607C8.95473 7.69634 8.08114 7.89768 7.19508 7.90607H7.03508C6.05259 7.86295 5.09231 7.59981 4.22508 7.13607C2.9189 6.44303 1.74984 5.51794 0.775082 4.40607C0.744143 4.37877 0.720149 4.34449 0.705082 4.30607L0.615082 4.15607L0.735081 4.02607C1.26634 3.42637 1.8522 2.87734 2.48508 2.38607C3.32825 1.70267 4.28197 1.16831 5.30508 0.806072C6.77411 0.309344 8.37952 0.409908 9.77508 1.08607C11.1335 1.72664 12.3558 2.62298 13.3751 3.72607L13.6351 4.02607Z" fill="#FF2116"/>
<path id="Vector_2" d="M7.18508 1.97656C6.89009 1.97681 6.59798 2.03456 6.32508 2.14656C6.05469 2.26005 5.80985 2.42667 5.60508 2.63656C5.39614 2.84007 5.23257 3.08543 5.12508 3.35656C5.01307 3.62946 4.95533 3.92157 4.95508 4.21656C4.96297 4.80278 5.20139 5.36231 5.61874 5.77405C6.0361 6.18579 6.59881 6.41662 7.18508 6.41656C7.47992 6.41425 7.7712 6.35187 8.04113 6.23324C8.31106 6.1146 8.55399 5.9422 8.75508 5.72656C8.95488 5.52345 9.11253 5.28281 9.21894 5.01851C9.32534 4.7542 9.37841 4.47146 9.37508 4.18656C9.3751 3.60388 9.14501 3.04477 8.73487 2.63089C8.32473 2.217 7.76773 1.98184 7.18508 1.97656ZM8.91508 4.21656C8.91686 4.57382 8.80862 4.92296 8.60508 5.21656C8.41297 5.49895 8.14157 5.71816 7.82508 5.84656C7.61755 5.9259 7.39725 5.96657 7.17508 5.96656H6.82508C6.49182 5.89417 6.18637 5.72756 5.94508 5.48656C5.70831 5.23966 5.54548 4.93133 5.47508 4.59656C5.41126 4.25972 5.44957 3.91148 5.58508 3.59656C5.71408 3.28014 5.93758 3.01124 6.22508 2.82656C6.46311 2.66896 6.73609 2.57199 7.0202 2.5441C7.30432 2.51622 7.59094 2.55826 7.85508 2.66656C8.0666 2.75663 8.25725 2.8894 8.41508 3.05656C8.57319 3.21777 8.69881 3.40789 8.78508 3.61656C8.86363 3.80728 8.90765 4.01044 8.91508 4.21656Z" fill="#FF2116"/>
</g>
</svg>
