<svg width="13" height="13" viewBox="0 0 13 13" fill="none" xmlns="http://www.w3.org/2000/svg">
<path d="M6.25841 4.4516C7.30541 3.3616 8.2136 2.41259 9.1256 1.46759C9.4546 1.12759 9.7846 0.788589 10.1256 0.467589C10.2524 0.325495 10.4068 0.211051 10.5797 0.131285C10.7526 0.0515203 10.9401 0.00817265 11.1305 0.00396612C11.3209 -0.000240409 11.5099 0.0346995 11.6861 0.106749C11.8624 0.178799 12.022 0.286433 12.1549 0.422789C12.2878 0.559145 12.3916 0.721306 12.4591 0.899352C12.5266 1.0774 12.5565 1.2675 12.5475 1.4577C12.5384 1.64791 12.4905 1.83425 12.4064 2.00506C12.3222 2.17588 12.2035 2.32753 12.0582 2.45062C10.9122 3.60162 9.77256 4.75666 8.60656 5.88666C8.29156 6.19266 8.32935 6.38662 8.61535 6.66962C9.76335 7.79062 10.8982 8.92558 12.0372 10.0566C12.1892 10.1764 12.3149 10.3266 12.4054 10.4976C12.4959 10.6686 12.5495 10.8567 12.5631 11.0497C12.5767 11.2428 12.5496 11.4364 12.484 11.6185C12.4184 11.8005 12.3159 11.9668 12.1822 12.1067C12.0486 12.2467 11.8869 12.3572 11.7081 12.4311C11.5293 12.505 11.3371 12.5408 11.1437 12.5361C10.9502 12.5314 10.7601 12.4862 10.5851 12.4036C10.4101 12.3211 10.2542 12.2029 10.1276 12.0566C8.94555 10.9036 7.76832 9.74566 6.61632 8.56366C6.31632 8.26366 6.15543 8.3266 5.90343 8.5816C4.78543 9.71494 3.66043 10.843 2.52843 11.9656C2.283 12.2656 1.92863 12.4564 1.54308 12.4963C1.15753 12.5362 0.771996 12.422 0.470326 12.1786C0.324787 12.0516 0.207624 11.8953 0.126576 11.7199C0.0455278 11.5446 0.00256465 11.3541 0.000111144 11.1609C-0.00234236 10.9678 0.0358477 10.7762 0.112416 10.5988C0.188984 10.4215 0.302182 10.2623 0.444447 10.1317C1.58045 8.96965 2.74425 7.83156 3.89025 6.68256C4.29525 6.27755 4.29625 6.27361 3.89025 5.86761C2.73825 4.70661 1.57826 3.55266 0.431263 2.38666C0.178048 2.14357 0.0263094 1.81364 0.0064588 1.46319C-0.0133918 1.11275 0.100184 0.76774 0.32433 0.497618C0.43827 0.355204 0.580445 0.237773 0.74181 0.15277C0.903176 0.0677669 1.08043 0.0170211 1.26232 0.00359991C1.44421 -0.00982133 1.62685 0.0143691 1.79894 0.0747669C1.97103 0.135165 2.12871 0.230404 2.26232 0.354552C3.15532 1.16555 3.99444 2.03457 4.84044 2.89557C5.29844 3.35757 5.71241 3.8516 6.25841 4.4516Z" fill="white"/>
</svg>
