<svg width="7" height="7" viewBox="0 0 7 7" fill="none" xmlns="http://www.w3.org/2000/svg">
<path fill-rule="evenodd" clip-rule="evenodd" d="M5.95174 0.780308C6.13024 0.601802 6.13024 0.312386 5.95174 0.13388C5.77323 -0.0446267 5.48382 -0.0446265 5.30531 0.13388L3.04324 2.39595L0.785688 0.138397C0.607182 -0.0401095 0.317766 -0.0401096 0.13926 0.138397C-0.0392468 0.316903 -0.0392467 0.606319 0.13926 0.784826L2.39681 3.04238L0.13388 5.30531C-0.0446266 5.48382 -0.0446266 5.77323 0.13388 5.95174C0.312386 6.13024 0.601802 6.13024 0.780309 5.95174L3.04324 3.68881L5.31069 5.95625C5.48919 6.13476 5.77861 6.13476 5.95712 5.95625C6.13562 5.77775 6.13562 5.48833 5.95712 5.30983L3.68967 3.04238L5.95174 0.780308Z" fill="white"/>
</svg>
