<svg xmlns="http://www.w3.org/2000/svg" width="28.498" height="23.562" viewBox="0 0 28.498 23.562">
    <defs>
        <style>
            .cls-1{fill:#a8a8a8}
        </style>
    </defs>
    <g id="Group_20775" data-name="Group 20775" transform="translate(-14 -15.768)">
        <g id="Group_20770" data-name="Group 20770" transform="translate(-7642.012 -5757.875)">
            <path id="Path_14487" data-name="Path 14487" class="cls-1" d="M7670.284 5773.651c2.592 0 5.185.008 7.777-.008a1.042 1.042 0 0 1 .928.448q2.665 3.508 5.358 6.994c.259.333.188.531-.068.812q-3.928 4.32-7.836 8.658-2.892 3.2-5.778 6.406c-.307.343-.529.309-.812-.008q-4.707-5.256-9.423-10.5-2.008-2.23-4.048-4.432c-.471-.511-.491-.5-.068-1.06 1.752-2.3 3.514-4.587 5.259-6.891a.986.986 0 0 1 .886-.423c2.608.01 5.216.004 7.825.004zm12.647 7.749c-.079-.12-.132-.217-.2-.3-1.471-1.909-2.955-3.808-4.4-5.732a1 1 0 0 0-.917-.439c-4.722.009-9.444.015-14.165-.009a1.343 1.343 0 0 0-1.189.613q-2.07 2.73-4.177 5.433a.544.544 0 0 0 .018.848c1.217 1.319 2.408 2.662 3.612 3.993q4.154 4.6 8.312 9.188c.416.459.457.47.877 0q3.227-3.571 6.447-7.148 2.748-3.04 5.507-6.068a4.465 4.465 0 0 0 .275-.379z"/>
            <path id="Path_14488" data-name="Path 14488" class="cls-1" d="M7755.61 5861.732h4.672c.615 0 .657.07.4.617l-4.843 10.432a1.982 1.982 0 0 1-.279.357 1.764 1.764 0 0 1-.323-.368c-1.566-3.364-3.106-6.74-4.693-10.094-.534-1.129-.218-.941.629-.944 1.481-.003 2.959 0 4.437 0z" transform="translate(-85.278 -79.677)"/>
            <path id="Path_14489" data-name="Path 14489" class="cls-1" d="M7758.119 5803.8h-4.481c-.539 0-.6-.1-.334-.572.793-1.387 1.6-2.768 2.393-4.155a.692.692 0 0 1 .688-.391c1.16.02 2.32.018 3.48 0a.708.708 0 0 1 .713.419c.795 1.4 1.622 2.791 2.43 4.188.066.115.15.333.106.374a.661.661 0 0 1-.418.145c-1.525.009-3.051.006-4.576.006z" transform="translate(-87.87 -22.647)"/>
            <path id="Path_14490" data-name="Path 14490" class="cls-1" d="M7842.443 5798.755c.183-.018.319-.042.456-.042 1.064 0 2.128-.021 3.191.014a.984.984 0 0 1 .658.337c1.075 1.392 2.12 2.806 3.171 4.216.09.12.156.259.268.448a2.243 2.243 0 0 1-.413.094c-1.365 0-2.731.014-4.1-.019a.838.838 0 0 1-.6-.344c-.867-1.44-1.7-2.9-2.54-4.356a1.623 1.623 0 0 1-.091-.348z" transform="translate(-168.643 -22.671)"/>
            <path id="Path_14491" data-name="Path 14491" class="cls-1" d="M7690.7 5803.86c-.684 0-1.367.006-2.051 0-.112 0-.282-.049-.318-.125a.42.42 0 0 1 .091-.333 370.52 370.52 0 0 1 3.292-4.379.751.751 0 0 1 .518-.254c1.113-.023 2.226-.01 3.339-.012.345 0 .434.137.258.442-.816 1.415-1.634 2.829-2.442 4.249a.778.778 0 0 1-.778.428c-.635-.021-1.272-.006-1.908-.006z" transform="translate(-29.221 -22.711)"/>
            <path id="Path_14492" data-name="Path 14492" class="cls-1" d="M7701.275 5871.242a3.408 3.408 0 0 1-.387-.318q-3.9-4.31-7.791-8.63a.277.277 0 1 1 .2-.509c1.144-.009 2.289 0 3.433-.012a.624.624 0 0 1 .652.432q1.342 3.022 2.7 6.035c.351.778.714 1.551 1.069 2.327.089.194.167.392.25.588z" transform="translate(-33.38 -79.722)"/>
            <path id="Path_14493" data-name="Path 14493" class="cls-1" d="m7828.978 5871.178 1.315-2.933c.848-1.9 1.7-3.793 2.541-5.694.323-.729.31-.734 1.128-.735 1.017 0 2.034-.006 3.051 0a1.765 1.765 0 0 1 .434.118 1.745 1.745 0 0 1-.21.432q-3.842 4.267-7.7 8.522a4.78 4.78 0 0 1-.45.389z" transform="translate(-156.462 -79.758)"/>
        </g>
    </g>
</svg>
