<svg width="16" height="16" viewBox="0 0 16 16" fill="none" xmlns="http://www.w3.org/2000/svg">
<path d="M13.9412 3.60028H14.0856C14.4067 3.60402 14.7277 3.58744 15.0461 3.61526C15.291 3.64077 15.5179 3.75558 15.6835 3.93778C15.8491 4.11998 15.9419 4.35679 15.9439 4.603C15.9504 5.10062 15.9482 5.59877 15.9439 6.09639C15.9439 6.2383 15.8876 6.37439 15.7872 6.47474C15.6869 6.57508 15.5508 6.63146 15.4089 6.63146H15.3324C10.7308 6.63146 6.12914 6.63146 1.52752 6.63146C1.45988 6.63421 1.39215 6.62882 1.3258 6.6154C1.20889 6.58817 1.10475 6.52192 1.03054 6.42757C0.95633 6.33323 0.916481 6.21642 0.917544 6.09639C0.914334 5.59877 0.911659 5.10062 0.917544 4.603C0.923833 4.33572 1.03444 4.08151 1.22572 3.89473C1.417 3.70794 1.67378 3.60341 1.94113 3.60348C2.2199 3.59867 2.49922 3.60348 2.77799 3.60348H2.91069C2.90433 3.57859 2.89646 3.55411 2.88713 3.53018C2.6966 3.11819 2.65343 2.65323 2.76485 2.2132C2.87627 1.77317 3.13551 1.3848 3.49916 1.11313C3.8628 0.841459 4.30876 0.703 4.76233 0.720948C5.21589 0.738897 5.64951 0.912162 5.99055 1.21172C6.4186 1.58948 6.83543 1.97526 7.25761 2.35731C7.28543 2.38245 7.31431 2.40546 7.3416 2.429C7.9976 1.811 8.91953 1.8629 9.51025 2.429L9.76762 2.19785C10.1336 1.8661 10.4948 1.52901 10.8667 1.20369C12.0149 0.200964 13.8144 0.808808 14.1178 2.30273C14.2085 2.70786 14.1588 3.1318 13.977 3.50503C13.9685 3.53018 13.9588 3.55747 13.9412 3.60028ZM6.93869 3.59332C6.92151 3.54769 6.89812 3.50465 6.86914 3.46544C6.33086 2.97531 5.799 2.4777 5.24895 2.00148C4.78076 1.59697 4.04503 1.80992 3.83581 2.39208C3.78643 2.52837 3.7707 2.67458 3.78996 2.81826C3.80922 2.96194 3.8629 3.09884 3.94643 3.21731C4.02997 3.33579 4.1409 3.43233 4.26976 3.49873C4.39863 3.56512 4.54162 3.59941 4.68658 3.59867C5.3993 3.60509 6.11202 3.59867 6.82687 3.59867C6.85041 3.60027 6.87824 3.59706 6.93817 3.59332H6.93869ZM9.92921 3.58422C9.95024 3.59069 9.9717 3.5957 9.99342 3.5992C10.7291 3.5992 11.4643 3.60563 12.1995 3.59439C12.3936 3.58858 12.5807 3.52083 12.7334 3.40107C12.8862 3.2813 12.9967 3.1158 13.0487 2.92876C13.0977 2.74151 13.0851 2.54344 13.0127 2.36391C12.9404 2.18438 12.8121 2.03295 12.6469 1.93207C12.4817 1.83119 12.2884 1.78622 12.0956 1.80383C11.9028 1.82144 11.7209 1.90069 11.5767 2.02984C11.047 2.50071 10.5242 2.97959 10.0004 3.45741C9.97025 3.49593 9.94591 3.53866 9.92814 3.58422H9.92921Z" fill="#A8A8A8"/>
<path d="M7.5078 7.50054V15.7107H2.9902C2.32136 15.7107 1.89062 15.2826 1.89062 14.6165V7.5L7.5078 7.50054Z" fill="#A8A8A8"/>
<path d="M9.35938 7.5H14.9776V7.62628C14.9776 9.95776 14.9776 12.2891 14.9776 14.6202C14.9776 15.2805 14.5496 15.7139 13.8893 15.7139H9.36045L9.35938 7.5Z" fill="#A8A8A8"/>
</svg>
