<svg width="28" height="28" viewBox="0 0 28 28" fill="none" xmlns="http://www.w3.org/2000/svg">
<path d="M9.53836 10.3905L10.1174 10.4775V13.1445L9.48438 13.2196V13.6285L10.1174 13.7065V16.3856L9.48438 16.4606V16.8716L10.1514 16.9146V20.0925H21.3594V6.76953H10.1384V9.89954L9.54337 9.98462L9.53836 10.3905ZM12.8974 7.18359H20.9334V19.6495H12.9024L12.8974 7.18359ZM10.6164 16.9196L11.2784 16.8676V16.4596L10.6164 16.3885V13.6886L11.2764 13.6356V13.2266L10.6204 13.1595V10.4496L11.2724 10.3966V9.98352L10.6234 9.9165V7.20056H12.3894V19.6555H10.6174L10.6164 16.9196Z" fill="white"/>
<path d="M9.53836 10.3905L10.1174 10.4775V13.1445L9.48438 13.2196V13.6285L10.1174 13.7065V16.3856L9.48438 16.4606V16.8716L10.1514 16.9146V20.0925H21.3594V6.76953H10.1384V9.89954L9.54337 9.98462L9.53836 10.3905ZM12.8974 7.18359H20.9334V19.6495H12.9024L12.8974 7.18359ZM10.6164 16.9196L11.2784 16.8676V16.4596L10.6164 16.3885V13.6886L11.2764 13.6356V13.2266L10.6204 13.1595V10.4496L11.2724 10.3966V9.98352L10.6234 9.9165V7.20056H12.3894V19.6555H10.6174L10.6164 16.9196Z" fill="white"/>
<path d="M18.8388 15.1653L18.0808 14.3433L17.6348 14.6852L15.6648 12.7002L15.9978 12.2643L15.2098 11.4883C14.7918 11.9173 14.7908 12.1262 14.9828 12.5272C15.5684 13.7793 16.5769 14.7846 17.8308 15.3662C17.8682 15.3896 17.9072 15.41 17.9478 15.4272C18.103 15.4939 18.2766 15.5041 18.4386 15.4563C18.6006 15.4085 18.7407 15.3056 18.8348 15.1653H18.8388Z" fill="white"/>
<path d="M18.8388 15.1653L18.0808 14.3433L17.6348 14.6852L15.6648 12.7002L15.9978 12.2643L15.2098 11.4883C14.7918 11.9173 14.7908 12.1262 14.9828 12.5272C15.5684 13.7793 16.5769 14.7846 17.8308 15.3662C17.8682 15.3896 17.9072 15.41 17.9478 15.4272C18.103 15.4939 18.2766 15.5041 18.4386 15.4563C18.6006 15.4085 18.7407 15.3056 18.8348 15.1653H18.8388Z" fill="white"/>
<path d="M10.832 0.980469H17.153C19.8932 0.980469 22.5212 2.06902 24.4588 4.00664C26.3965 5.94427 27.485 8.57225 27.485 11.3125V17.6335C27.485 20.3737 26.3965 23.0017 24.4588 24.9393C22.5212 26.8769 19.8932 27.9655 17.153 27.9655H10.832C8.09178 27.9655 5.4638 26.8769 3.52617 24.9393C1.58855 23.0017 0.5 20.3737 0.5 17.6335L0.5 11.3125C0.5 8.57225 1.58855 5.94427 3.52617 4.00664C5.4638 2.06902 8.09178 0.980469 10.832 0.980469V0.980469Z" fill="url(#paint0_linear_3642_888)"/>
<path d="M10.0582 8.01675C9.79637 8.09809 9.53964 8.32432 9.42017 8.5836L9.35154 8.72848L9.34391 10.2816L9.33629 11.8347L9.21173 11.8499C8.93975 11.883 8.65506 12.1168 8.55338 12.3914C8.5 12.5286 8.5 12.5591 8.5 16.4177C8.5 20.2764 8.5 20.3069 8.55338 20.4441C8.61693 20.6195 8.7974 20.8229 8.96771 20.9118L9.09735 20.9805H14.143H19.1887L19.3184 20.9118C19.4887 20.8229 19.6691 20.6195 19.7327 20.4441C19.7861 20.3069 19.7861 20.2764 19.7861 16.4177C19.7861 12.5591 19.7861 12.5286 19.7327 12.3914C19.631 12.1168 19.3463 11.883 19.0743 11.8499L18.9498 11.8347L18.9421 11.184C18.9345 10.5332 18.9345 10.5332 18.8659 10.4061C18.8176 10.3146 18.4821 9.96639 17.6839 9.17332C16.6875 8.18197 16.5578 8.05996 16.4435 8.02183C16.3265 7.98116 16.0749 7.97862 13.2407 7.98116C10.7725 7.98116 10.1446 7.98879 10.0582 8.01675ZM16.1461 8.37516L16.202 8.39041V9.10977C16.202 9.75796 16.2071 9.84438 16.2528 9.99435C16.3418 10.2816 16.5807 10.5383 16.8629 10.6527C16.995 10.7061 17.0459 10.7112 17.7729 10.7188L18.5405 10.7264V12.3482C18.5405 14.0207 18.5456 14.1046 18.6422 14.1555C18.721 14.1961 18.8252 14.1834 18.8888 14.1249L18.9472 14.0716V13.159C18.9472 12.2592 18.9472 12.249 18.9981 12.249C19.1175 12.249 19.3006 12.399 19.3514 12.5363C19.3692 12.582 19.3794 12.9887 19.3794 13.6979V14.7884L19.2599 14.7325L19.1379 14.6765L16.0622 14.6638C13.1949 14.6511 12.9814 14.6486 12.9051 14.6079C12.7933 14.5469 12.7145 14.4325 12.6179 14.1987C12.4654 13.8301 12.2874 13.6242 12.0383 13.5276C11.929 13.4844 11.8096 13.4818 10.5462 13.4818C9.19902 13.4818 9.17106 13.4818 9.04143 13.5378L8.9067 13.5911V13.1006C8.9067 12.8133 8.91687 12.5795 8.93467 12.5363C8.9855 12.399 9.16852 12.249 9.28799 12.249C9.33629 12.249 9.33883 12.2643 9.33883 12.5668C9.33883 12.8515 9.34391 12.8896 9.38967 12.9353C9.44051 12.9862 9.54981 13.0014 9.63115 12.9709C9.74553 12.9252 9.74553 12.9277 9.74553 10.8611C9.74553 9.45547 9.75316 8.88608 9.77604 8.81491C9.8345 8.61156 10.0556 8.42346 10.2743 8.38533C10.4115 8.36245 16.0596 8.35228 16.1461 8.37516ZM18.116 10.3121C18.0474 10.3172 17.7881 10.3172 17.5365 10.3121C17.0281 10.3045 16.962 10.2867 16.7942 10.1087C16.6265 9.93335 16.6087 9.85963 16.6087 9.23687V8.67765L17.4221 9.49106L18.2355 10.3045L18.116 10.3121ZM11.8579 13.9038C12.0053 13.9546 12.1248 14.0944 12.2239 14.3308C12.3891 14.7248 12.5213 14.8901 12.7679 15.0044C12.8848 15.0578 12.8848 15.0578 15.9757 15.0705L19.0642 15.0832L19.1684 15.1519C19.2294 15.1925 19.2929 15.2637 19.326 15.3298C19.3794 15.4417 19.3794 15.4493 19.3794 17.8361C19.3794 19.7909 19.3743 20.2484 19.3438 20.3145C19.3031 20.4136 19.1506 20.5534 19.054 20.5788C18.965 20.6043 9.32104 20.6043 9.23207 20.5788C9.13548 20.5534 8.98296 20.4136 8.94229 20.3145C8.88891 20.1899 8.88891 14.2953 8.94229 14.1732C8.98805 14.0639 9.10752 13.9572 9.22699 13.914C9.35662 13.8657 11.7231 13.8606 11.8579 13.9038Z" fill="white"/>
<path d="M10.5714 9.23887C10.5307 9.277 10.5078 9.33038 10.5078 9.37868C10.5078 9.42698 10.5307 9.48036 10.5714 9.51848L10.6324 9.58203H11.6466C12.6354 9.58203 12.6633 9.57949 12.7294 9.52865C12.8235 9.45494 12.8235 9.30242 12.7294 9.22871C12.6633 9.17787 12.6354 9.17533 11.6466 9.17533H10.6324L10.5714 9.23887Z" fill="white"/>
<path d="M10.5714 10.3795C10.5307 10.4176 10.5078 10.471 10.5078 10.5193C10.5078 10.5676 10.5307 10.621 10.5714 10.6591L10.6324 10.7227H11.6466C12.6354 10.7227 12.6633 10.7201 12.7294 10.6693C12.8184 10.5981 12.8209 10.4659 12.732 10.3795L12.671 10.316H11.6517H10.6324L10.5714 10.3795Z" fill="white"/>
<defs>
<linearGradient id="paint0_linear_3642_888" x1="37.6367" y1="0.980468" x2="6.63672" y2="22.9805" gradientUnits="userSpaceOnUse">
<stop stop-color="#2ED87C"/>
<stop offset="0.645833" stop-color="#2DA1A4"/>
<stop offset="0.9999" stop-color="#29ABE2"/>
</linearGradient>
</defs>
</svg>
