<svg width="10" height="13" viewBox="0 0 10 13" fill="none" xmlns="http://www.w3.org/2000/svg">
<path d="M0.450074 6.75069C0.450074 5.30699 0.450074 3.86314 0.450074 2.41944C0.432566 2.19649 0.463547 1.97253 0.540765 1.76265C0.617983 1.55276 0.73964 1.36192 0.897467 1.20348C1.05529 1.04503 1.24561 0.922505 1.45519 0.844467C1.66477 0.766429 1.88868 0.734829 2.1117 0.751465C4.14376 0.74831 6.17627 0.74831 8.20912 0.751465C8.4323 0.732906 8.65671 0.762649 8.86736 0.838691C9.07801 0.914732 9.26984 1.03509 9.4297 1.19193C9.58957 1.34876 9.71385 1.53819 9.79391 1.74734C9.87397 1.9565 9.90813 2.18063 9.89385 2.40413C9.90272 5.31381 9.89799 8.22339 9.89799 10.6352C9.91172 10.9281 9.84134 11.2189 9.69552 11.4733C9.54969 11.7278 9.33425 11.9355 9.07454 12.0718C8.81483 12.2081 8.5217 12.2674 8.22943 12.2428C7.93716 12.2182 7.65805 12.1106 7.42476 11.9329C6.92197 11.587 6.41827 11.242 5.9139 10.8977C5.27506 10.4594 5.07106 10.4579 4.44464 10.8879C3.94146 11.2333 3.43813 11.5787 2.93494 11.9242C2.7009 12.1053 2.4199 12.2153 2.12507 12.241C1.83024 12.2668 1.53405 12.207 1.27216 12.0692C1.01028 11.9313 0.793679 11.7211 0.648009 11.4635C0.502339 11.2059 0.433883 10.9119 0.45074 10.6164C0.457247 9.16244 0.450074 8.20582 0.450074 6.75069ZM1.1086 6.71025C1.1086 8.17663 1.11569 9.14509 1.11273 10.6121C1.09646 10.7844 1.13127 10.9578 1.21324 11.1103C1.29522 11.2628 1.42066 11.3875 1.57341 11.469C1.72616 11.5505 1.89962 11.5852 2.07193 11.5684C2.24423 11.5515 2.40774 11.4841 2.54185 11.3746C3.07007 11.006 3.60239 10.644 4.13357 10.2802C4.41687 10.0295 4.78178 9.89087 5.16006 9.89C5.53835 9.88913 5.90384 10.0262 6.18829 10.2756C6.74727 10.6577 7.30299 11.0445 7.86493 11.4237C7.99635 11.5197 8.15343 11.5739 8.31608 11.5793C8.47873 11.5848 8.63946 11.5415 8.77705 11.4546C8.911 11.3847 9.02242 11.2783 9.09851 11.1478C9.17461 11.0173 9.21201 10.8679 9.20682 10.7169C9.19914 8.27101 9.19675 5.32694 9.19518 2.38276C9.21003 2.25171 9.19481 2.11897 9.15099 1.99458C9.10716 1.87018 9.03588 1.75754 8.94216 1.66474C8.84845 1.57193 8.73483 1.50141 8.61001 1.4588C8.4852 1.4162 8.35244 1.40253 8.22154 1.41866C6.17765 1.41589 4.13345 1.41589 2.08917 1.41866C1.95542 1.40165 1.81973 1.41557 1.69232 1.45967C1.56491 1.50377 1.4493 1.57677 1.35468 1.67282C1.26006 1.76887 1.18891 1.88558 1.14672 2.01364C1.10454 2.1417 1.09248 2.27758 1.11149 2.41106C1.10794 3.84372 1.10775 5.27681 1.11091 6.71025H1.1086Z" fill="#347EF9"/>
<path d="M3.50068 5.89281C3.5036 5.67359 3.54991 5.45699 3.63672 5.25566C3.72352 5.05433 3.84901 4.87222 4.00641 4.7196C4.16382 4.56698 4.34983 4.44692 4.55374 4.36636C4.75765 4.28581 4.97543 4.24642 5.19465 4.25026C5.63159 4.26332 6.0464 4.44574 6.35111 4.75917C6.65582 5.0726 6.82666 5.49236 6.82739 5.9295C6.82498 6.14797 6.77949 6.36371 6.69366 6.56463C6.60783 6.76555 6.48333 6.94762 6.32714 7.1004C6.17095 7.25318 5.98604 7.3737 5.78328 7.45508C5.58051 7.53646 5.36373 7.57735 5.14526 7.57494C4.92679 7.57254 4.71105 7.52705 4.51013 7.44122C4.30921 7.35539 4.12714 7.23088 3.97436 7.07469C3.82157 6.91851 3.70106 6.7336 3.61968 6.53083C3.53829 6.32807 3.49769 6.11129 3.5001 5.89281H3.50068ZM5.16808 6.91382C5.43093 6.91304 5.68291 6.80825 5.86877 6.62239C6.05463 6.43653 6.15942 6.18455 6.1602 5.9217C6.15665 5.65875 6.05155 5.40751 5.86704 5.22014C5.68253 5.03276 5.43267 4.92389 5.16981 4.91629C5.03684 4.91619 4.90515 4.94237 4.78249 4.9937C4.65983 5.04502 4.54882 5.12046 4.45554 5.21523C4.36227 5.30999 4.28888 5.42219 4.2395 5.54564C4.19012 5.6691 4.16567 5.80117 4.16787 5.93412C4.16879 6.06424 4.19558 6.19299 4.24643 6.31277C4.29728 6.43255 4.37124 6.54117 4.46421 6.63221C4.55718 6.72326 4.66716 6.79501 4.78798 6.84334C4.9088 6.89168 5.03796 6.91562 5.16808 6.91382V6.91382Z" fill="#347EF9"/>
</svg>
