<svg width="13" height="11" viewBox="0 0 13 11" fill="none" xmlns="http://www.w3.org/2000/svg">
<path d="M2.10791 5.22082C2.10791 4.30823 2.10791 3.39477 2.10791 2.48218C2.10791 2.14157 2.2851 1.92192 2.53733 1.9299C2.80123 1.93481 2.95657 2.13362 2.95657 2.49387C2.95657 4.34115 2.95398 6.1886 2.94907 8.03588C2.94907 8.37281 2.79152 8.57104 2.54542 8.57288C2.27416 8.57288 2.10586 8.38005 2.10402 8.02839C2.09849 7.0937 2.10402 6.15912 2.10402 5.22382L2.10791 5.22082Z" fill="#6C70F1"/>
<path d="M11.3006 5.28671C11.3006 6.18683 11.3006 7.0887 11.3006 7.99209C11.3006 8.36462 11.1381 8.57976 10.8712 8.57854C10.6134 8.57854 10.4603 8.37426 10.4597 8.01217C10.4552 6.17634 10.4531 4.34045 10.4531 2.50462C10.4531 2.14437 10.6058 1.9444 10.8679 1.93765C11.1391 1.9309 11.3069 2.14687 11.3075 2.51571C11.3075 3.43914 11.3075 4.36287 11.3075 5.28671H11.3006Z" fill="#6C70F1"/>
<path d="M7.13009 5.2194C7.13009 4.28348 7.13009 3.34685 7.13009 2.41094C7.13009 2.11022 7.30567 1.90353 7.54993 1.93237C7.60797 1.9341 7.66496 1.94794 7.71714 1.97342C7.76931 1.99891 7.81524 2.03539 7.85229 2.08011C7.88933 2.12482 7.91666 2.17693 7.932 2.23293C7.94734 2.28894 7.95038 2.34759 7.94129 2.40494C7.93638 4.27616 7.94517 6.14857 7.94578 8.01917C7.94578 8.39231 7.79784 8.57525 7.52535 8.56666C7.25286 8.55807 7.12561 8.37079 7.125 7.9952C7.125 7.06972 7.125 6.14447 7.125 5.2194H7.13009Z" fill="#6C70F1"/>
<path d="M8.78573 4.41428C8.78573 3.76558 8.78573 3.11755 8.78573 2.46885C8.78573 2.13867 8.94656 1.93733 9.19328 1.93365C9.45656 1.92997 9.623 2.10792 9.623 2.44608C9.62729 3.7539 9.62668 5.06178 9.61011 6.369C9.60545 6.53842 9.53682 6.6997 9.41803 6.82059C9.35511 6.85868 9.28326 6.88015 9.20976 6.88262C9.13626 6.88509 9.06352 6.86875 8.9982 6.83498C8.87265 6.72078 8.79671 6.5618 8.78693 6.39237C8.76422 5.73324 8.77704 5.07342 8.77704 4.41368L8.78573 4.41428Z" fill="#6C70F1"/>
<path d="M4.61862 4.41907C4.61862 5.0782 4.63579 5.73806 4.60633 6.39596C4.59831 6.48812 4.57058 6.57717 4.52482 6.65757C4.47906 6.73797 4.41657 6.80769 4.34143 6.86164C4.06526 7.01323 3.80744 6.82406 3.79394 6.47118C3.77001 5.8458 3.7766 5.21946 3.77476 4.59347C3.77476 3.92391 3.77476 3.25348 3.77476 2.58392C3.77218 2.51804 3.77343 2.4522 3.77806 2.38644C3.8069 2.12806 3.92272 1.93642 4.20748 1.94563C4.26605 1.94526 4.32419 1.95744 4.37769 1.98129C4.43119 2.00514 4.47876 2.04026 4.51763 2.08408C4.55651 2.12789 4.58573 2.17945 4.60304 2.23541C4.62035 2.29136 4.62537 2.3505 4.61802 2.40861C4.62723 2.97998 4.61802 3.55133 4.61802 4.1227V4.41907H4.61862Z" fill="#6C70F1"/>
<path d="M6.27968 4.41274C6.27968 5.07228 6.27968 5.73189 6.27968 6.39143C6.27968 6.71793 6.14714 6.89081 5.89491 6.89757C5.61505 6.90493 5.47152 6.75171 5.46968 6.40312C5.46232 5.07381 5.45955 3.7441 5.46159 2.41397C5.46159 2.09484 5.61942 1.92726 5.87902 1.92971C6.11715 1.92971 6.27547 2.12784 6.27608 2.43285C6.27608 3.0926 6.27608 3.75178 6.27608 4.41214L6.27968 4.41274Z" fill="#6C70F1"/>
<path d="M0.455765 8.95383C0.455765 8.70098 0.450856 8.44761 0.455765 8.19538C0.450577 8.13763 0.457622 8.07941 0.476442 8.02457C0.495262 7.96973 0.525589 7.91953 0.565143 7.87713C0.604697 7.83474 0.652579 7.80111 0.705986 7.77854C0.759392 7.75598 0.81703 7.745 0.874997 7.74618C0.930554 7.74505 0.98552 7.75587 1.03652 7.77794C1.08751 7.80002 1.13326 7.83256 1.17047 7.87384C1.20767 7.91511 1.23561 7.96407 1.25228 8.01708C1.26895 8.07009 1.27414 8.12615 1.26726 8.18129C1.25744 8.50043 1.2726 8.81991 1.26216 9.13842C1.25541 9.33972 1.34004 9.41298 1.53336 9.41052C1.86293 9.40622 2.19329 9.41036 2.52286 9.41711C2.5784 9.4112 2.63456 9.41779 2.68737 9.43599C2.74018 9.45419 2.78841 9.48372 2.82851 9.5226C2.86862 9.56148 2.89948 9.60852 2.91931 9.66074C2.93915 9.71296 2.94747 9.76896 2.94329 9.82466C2.94649 9.88064 2.93769 9.93656 2.91752 9.98887C2.89734 10.0412 2.86609 10.0889 2.82612 10.1282C2.78615 10.1675 2.73821 10.1979 2.68557 10.2172C2.63294 10.2366 2.57698 10.2444 2.52106 10.2403C1.98222 10.2513 1.44261 10.2526 0.903765 10.2403C0.842527 10.2456 0.780974 10.2372 0.723366 10.2157C0.665758 10.1943 0.613709 10.1603 0.570837 10.1162C0.527964 10.0722 0.495416 10.0192 0.475543 9.96101C0.45567 9.90284 0.448807 9.84108 0.455765 9.78001C0.455765 9.50384 0.456379 9.22878 0.455765 8.95383Z" fill="#6C70F1"/>
<path d="M12.1436 9.40444C12.1436 8.97975 12.1541 8.59622 12.14 8.21387C12.1311 8.15631 12.1347 8.09731 12.1505 8.04126C12.1664 7.98522 12.194 7.9334 12.2317 7.88903C12.2694 7.84466 12.3165 7.8088 12.3693 7.78415C12.422 7.7595 12.4794 7.74656 12.5377 7.74609C12.5954 7.74643 12.6524 7.7587 12.7052 7.78205C12.758 7.80541 12.8054 7.83935 12.8445 7.88184C12.8836 7.92434 12.9134 7.97441 12.9323 8.02898C12.9512 8.08355 12.9587 8.14132 12.9542 8.19889C12.9591 8.71625 12.961 9.23379 12.9542 9.75115C12.9493 10.085 12.8069 10.2346 12.4676 10.242C11.9504 10.2547 11.4332 10.2547 10.9156 10.242C10.857 10.2475 10.7979 10.2404 10.7424 10.221C10.6869 10.2016 10.6364 10.1704 10.594 10.1296C10.5517 10.0889 10.5185 10.0393 10.497 9.98459C10.4754 9.92987 10.4661 9.87129 10.4694 9.81259C10.4694 9.53273 10.6694 9.40874 10.9333 9.40444C11.3156 9.39953 11.6993 9.40444 12.1436 9.40444Z" fill="#6C70F1"/>
<path d="M1.27235 1.10161C1.27235 1.48764 1.27664 1.84746 1.27235 2.20648C1.26683 2.58453 1.12773 2.75886 0.854016 2.75457C0.604848 2.74966 0.453764 2.55792 0.449468 2.21547C0.443331 1.72143 0.444558 1.22677 0.449468 0.732725C0.443516 0.671476 0.450732 0.60992 0.470744 0.551727C0.490756 0.493534 0.523074 0.440235 0.565438 0.395601C0.607802 0.350968 0.659399 0.315835 0.71647 0.292816C0.77354 0.269797 0.834792 0.2595 0.896269 0.26225C1.42284 0.243839 1.95132 0.248135 2.4785 0.26225C2.73381 0.268387 2.93024 0.384888 2.93699 0.675788C2.94374 0.966689 2.74729 1.0894 2.49199 1.09922C2.09675 1.11333 1.70195 1.10161 1.27235 1.10161Z" fill="#6C70F1"/>
<path d="M12.134 1.09409C11.7087 1.09409 11.3152 1.11614 10.9261 1.083C10.8437 1.07357 10.7641 1.04748 10.6923 1.00598C10.6205 0.964491 10.5579 0.908443 10.5086 0.841767C10.4762 0.783238 10.4599 0.717492 10.461 0.650581C10.4621 0.583669 10.4806 0.518059 10.5149 0.460593C10.5492 0.403127 10.598 0.355755 10.6564 0.323047C10.7148 0.290338 10.7806 0.273437 10.8476 0.274201C11.4177 0.247198 11.9903 0.248526 12.5604 0.270006C12.6164 0.271422 12.6713 0.284123 12.722 0.307764C12.7727 0.331405 12.818 0.365324 12.855 0.407253C12.892 0.449181 12.9202 0.498459 12.9374 0.551691C12.9546 0.604923 12.9606 0.661137 12.9551 0.716807C12.9594 1.23294 12.9551 1.74966 12.9551 2.26518C12.9551 2.5481 12.825 2.74818 12.5341 2.75064C12.2315 2.75064 12.1295 2.54057 12.1325 2.25948C12.1374 1.89003 12.134 1.51939 12.134 1.09409Z" fill="#6C70F1"/>
<path d="M3.80653 8.16777C3.80107 8.11257 3.80776 8.05672 3.82631 8.00445C3.84487 7.95218 3.87477 7.9048 3.91381 7.8654C3.95285 7.82601 4.00016 7.79573 4.05226 7.7767C4.10436 7.75768 4.16004 7.75046 4.21528 7.75543C4.32124 7.75784 4.42206 7.8012 4.49666 7.87649C4.57126 7.95179 4.6139 8.05309 4.61533 8.15908C4.61676 8.26506 4.57699 8.36737 4.50445 8.44466C4.43191 8.52194 4.33223 8.56824 4.22636 8.57351C4.1715 8.57714 4.11647 8.56905 4.06484 8.55014C4.01322 8.53123 3.96594 8.50175 3.9264 8.46354C3.88686 8.42533 3.85597 8.37934 3.8353 8.32839C3.81463 8.27744 3.80479 8.22272 3.80653 8.16777Z" fill="#6C70F1"/>
<path d="M5.85504 8.572C5.7521 8.56382 5.65601 8.51691 5.58595 8.44104C5.51588 8.36518 5.47685 8.26593 5.47687 8.16266C5.47461 8.10479 5.48497 8.04684 5.50713 7.99334C5.5293 7.93984 5.5629 7.89182 5.60542 7.8525C5.64794 7.81319 5.69839 7.78381 5.75346 7.7659C5.80853 7.74799 5.86676 7.74203 5.92427 7.74882C5.9767 7.75082 6.02826 7.76364 6.0756 7.78628C6.12294 7.80891 6.16517 7.84082 6.19966 7.88037C6.23415 7.91992 6.26009 7.96614 6.27607 8.01612C6.29206 8.0661 6.2977 8.11883 6.29256 8.17105C6.27905 8.44108 6.11096 8.55175 5.85504 8.572Z" fill="#6C70F1"/>
<path d="M8.80797 8.1268C8.81067 8.02671 8.85192 7.93176 8.92335 7.86159C8.99477 7.79143 9.09082 7.75164 9.19095 7.75072C9.24864 7.74734 9.30644 7.75591 9.36056 7.77619C9.41468 7.79647 9.46373 7.82803 9.505 7.86849C9.54627 7.90895 9.57865 7.95742 9.59999 8.01113C9.62133 8.06484 9.6313 8.12239 9.62906 8.18014C9.63032 8.23279 9.62054 8.28512 9.60059 8.33387C9.58064 8.38261 9.5509 8.42696 9.51309 8.46362C9.47527 8.50028 9.43027 8.5285 9.38093 8.54693C9.3316 8.56536 9.2789 8.5735 9.22631 8.5706C9.16808 8.57472 9.10988 8.56575 9.0555 8.54453C9.00112 8.52332 8.95201 8.4905 8.91196 8.44804C8.87191 8.40558 8.84186 8.35463 8.82386 8.29911C8.80585 8.24358 8.80046 8.18468 8.80797 8.1268Z" fill="#6C70F1"/>
</svg>
