<svg width="13" height="13" viewBox="0 0 13 13" fill="none" xmlns="http://www.w3.org/2000/svg">
<path d="M6.21397 0.27701C5.97435 0.345139 5.80755 0.462602 5.67834 0.65759C5.52799 0.885468 5.48335 1.18147 5.56088 1.44929C5.60552 1.60199 5.76761 1.82752 5.89447 1.91444C6.08946 2.04835 6.20458 2.08594 6.4442 2.08594C6.62509 2.08594 6.68852 2.07419 6.78484 2.0319C6.97043 1.94733 7.0785 1.86041 7.18891 1.71241C7.546 1.22846 7.33692 0.521333 6.77545 0.3099C6.60395 0.24647 6.37372 0.232374 6.21397 0.27701ZM6.68617 0.652891C7.08085 0.840832 7.12548 1.39526 6.76605 1.64193C6.48179 1.83692 6.10121 1.7406 5.94381 1.43519C5.77936 1.11569 5.92501 0.75156 6.26801 0.622351C6.36667 0.584763 6.58046 0.601208 6.68617 0.652891Z" fill="#0DABAB" stroke="#0DABAB" stroke-width="0.2"/>
<path d="M4.60905 1.32596C4.08047 1.52329 3.48611 1.86863 3.06324 2.22337C2.86355 2.39252 2.53936 2.71906 2.37021 2.92345C2.18697 3.14193 1.87217 3.63293 1.73356 3.91249C1.58321 4.21789 1.41406 4.6619 1.41406 4.75352C1.41406 4.84279 1.49394 4.91797 1.58791 4.91797C1.69362 4.91797 1.72651 4.87333 1.81344 4.62431C2.093 3.81617 2.66387 3.00332 3.34045 2.45125C3.72338 2.1388 4.34593 1.78876 4.80874 1.62901C4.92385 1.58907 5.03896 1.53974 5.06011 1.51859C5.11884 1.46456 5.11414 1.3377 5.05071 1.27662C4.97788 1.21084 4.89331 1.22024 4.60905 1.32596Z" fill="#0DABAB" stroke="#0DABAB" stroke-width="0.2"/>
<path d="M7.83972 1.27662C7.77629 1.3377 7.7716 1.46456 7.83033 1.51859C7.85147 1.53974 7.96658 1.58907 8.0817 1.62901C8.5445 1.78876 9.16705 2.1388 9.54998 2.45125C10.2266 3.00332 10.7974 3.81617 11.077 4.62431C11.1639 4.87333 11.1968 4.91797 11.3025 4.91797C11.3965 4.91797 11.4764 4.84279 11.4764 4.75352C11.4764 4.6619 11.3072 4.21789 11.1569 3.91249C11.0183 3.63293 10.7035 3.14193 10.5202 2.92345C9.92586 2.20928 9.12242 1.63606 8.27199 1.32361C7.98303 1.21789 7.91255 1.20849 7.83972 1.27662Z" fill="#0DABAB" stroke="#0DABAB" stroke-width="0.2"/>
<path d="M6.03621 2.88821C5.34788 2.99392 4.9532 3.71984 5.24686 4.34005C5.29384 4.43402 5.32438 4.55148 5.34083 4.68069C5.37137 4.91092 5.4442 5.08711 5.5922 5.27505L5.69557 5.40661V5.63919C5.69557 5.85062 5.69087 5.87646 5.64388 5.92345C5.61334 5.94929 5.41366 6.04091 5.19987 6.12313C4.98609 6.20771 4.75821 6.30168 4.69478 6.33457C4.44106 6.46378 4.26252 6.72219 4.21554 7.0229C4.19909 7.12157 4.19204 7.49745 4.19674 7.9767C4.20379 8.75665 4.20379 8.77075 4.25547 8.82008C4.31655 8.88351 4.43637 8.88821 4.49275 8.83183C4.52799 8.79659 4.53503 8.70027 4.54443 7.89447C4.55618 7.02995 4.55853 6.99471 4.60786 6.90074C4.68539 6.75508 4.82164 6.64702 5.02838 6.56949C5.1294 6.52955 5.268 6.47552 5.33378 6.44968L5.45359 6.40269L5.54991 6.5366C5.99157 7.14271 6.93128 7.13801 7.35179 6.52721L7.43871 6.40035L7.56088 6.44968C7.62666 6.47552 7.76526 6.52955 7.86628 6.56949C8.07301 6.64702 8.20927 6.75508 8.2868 6.90074C8.33613 6.99471 8.33848 7.02995 8.35023 7.89447C8.35962 8.70027 8.36667 8.79659 8.40191 8.83183C8.45829 8.88821 8.5781 8.88351 8.63918 8.82008C8.69087 8.77075 8.69087 8.75665 8.69792 7.9767C8.70261 7.49745 8.69557 7.12157 8.67912 7.0229C8.63214 6.72219 8.45359 6.46378 8.19987 6.33457C8.13644 6.30168 7.90857 6.20771 7.69478 6.12313C7.481 6.04091 7.28131 5.94929 7.25312 5.92345C7.20379 5.87646 7.19909 5.85062 7.19909 5.63919V5.40661L7.30246 5.27505C7.45046 5.08711 7.52329 4.91092 7.55383 4.68069C7.57027 4.55148 7.60081 4.43402 7.6478 4.34005C7.86628 3.88194 7.70653 3.32047 7.28131 3.05031C7.06518 2.91405 6.97121 2.89291 6.51781 2.88586C6.29228 2.88116 6.07615 2.88351 6.03621 2.88821ZM6.98766 3.28758C7.20849 3.3886 7.34944 3.56949 7.38468 3.79267C7.42227 4.0182 7.41052 4.02525 7.07928 3.96652C6.8467 3.92658 6.58828 3.84435 6.29228 3.71749C6.0738 3.62352 6.03151 3.62118 5.94929 3.69165C5.89995 3.73394 5.8929 3.85845 5.93754 3.91483C5.95164 3.93598 6.04796 3.99001 6.14662 4.03464C6.47552 4.18265 6.72689 4.26017 7.1709 4.34475C7.21319 4.35414 7.22258 4.37059 7.22258 4.44341C7.22258 4.81225 7.06988 5.09181 6.78797 5.24216C6.6846 5.29854 6.64467 5.30559 6.44733 5.30559C6.24999 5.30559 6.21005 5.29854 6.10669 5.24216C5.79424 5.07536 5.67207 4.8193 5.67207 4.32125C5.67207 4.10747 5.64153 4.02525 5.56166 4.02525C5.50998 4.02525 5.48883 3.92893 5.50763 3.79737C5.54991 3.52955 5.72846 3.33222 6.00097 3.25704C6.07145 3.23825 6.23355 3.22885 6.49431 3.23355C6.82791 3.23825 6.89604 3.24529 6.98766 3.28758ZM6.44733 5.65798C6.56949 5.65798 6.71045 5.64858 6.75978 5.63684L6.8467 5.61804V5.77309C6.8467 5.95634 6.90308 6.08555 7.02994 6.20536L7.11452 6.28053L6.97356 6.41914C6.80911 6.57654 6.66346 6.63762 6.44733 6.63762C6.2312 6.63762 6.08554 6.57654 5.9211 6.41914L5.78014 6.28053L5.86471 6.20536C5.99157 6.08555 6.04796 5.95634 6.04796 5.77309V5.61804L6.13723 5.63684C6.18421 5.64858 6.32517 5.65798 6.44733 5.65798Z" fill="#0DABAB" stroke="#0DABAB" stroke-width="0.2"/>
<path d="M1.24171 5.34359C1.06552 5.36708 0.985641 5.39762 0.847035 5.48924C0.581569 5.66544 0.445312 5.92385 0.445312 6.2551C0.445312 6.58399 0.581569 6.84476 0.844686 7.01861C1.07491 7.17131 1.37092 7.21594 1.63873 7.13842C1.79144 7.09378 2.01696 6.93168 2.10389 6.80482C2.2378 6.60984 2.27303 6.49472 2.27538 6.2551C2.27538 6.05306 2.26834 6.01782 2.20021 5.87217C2.02401 5.50099 1.63639 5.28721 1.24171 5.34359ZM1.66693 5.7735C2.03811 5.98963 2.01462 6.5558 1.62464 6.75549C1.23466 6.95753 0.795352 6.69206 0.795352 6.2551C0.795352 5.79934 1.2652 5.53858 1.66693 5.7735Z" fill="#0DABAB" stroke="#0DABAB" stroke-width="0.2"/>
<path d="M11.3924 5.34663C11.0988 5.38422 10.8286 5.58861 10.6924 5.87521C10.6242 6.02087 10.6172 6.05611 10.6172 6.25814C10.6172 6.43904 10.6289 6.50247 10.6712 6.59879C10.7558 6.78438 10.8427 6.89244 10.9907 7.00286C11.4747 7.35994 12.1747 7.15321 12.3956 6.58939C12.4332 6.49072 12.4473 6.4085 12.4473 6.25814C12.4473 5.9269 12.311 5.66848 12.0455 5.49229C11.8482 5.36308 11.6391 5.31609 11.3924 5.34663ZM11.8012 5.7507C11.9892 5.84937 12.0972 6.03496 12.0972 6.25814C12.0972 6.58704 11.8576 6.82431 11.5287 6.82431C11.0776 6.82431 10.8051 6.31922 11.0565 5.94334C11.2115 5.70607 11.5475 5.61915 11.8012 5.7507Z" fill="#0DABAB" stroke="#0DABAB" stroke-width="0.2"/>
<path d="M5.00951 7.45184L4.95312 7.49648V8.41504C4.95312 9.3289 4.95312 9.3336 5.00481 9.38293C5.06824 9.44636 5.181 9.45106 5.24678 9.39233C5.29142 9.35004 5.29377 9.32185 5.29377 8.42444C5.29377 7.53172 5.29142 7.49883 5.24678 7.45419C5.18805 7.39546 5.07998 7.39311 5.00951 7.45184Z" fill="#0DABAB" stroke="#0DABAB" stroke-width="0.2"/>
<path d="M7.64074 7.45419C7.5961 7.49883 7.59375 7.53172 7.59375 8.42444C7.59375 9.32185 7.5961 9.35004 7.64074 9.39233C7.70651 9.45106 7.81928 9.44636 7.88271 9.38293C7.93439 9.3336 7.93439 9.3289 7.93439 8.41504V7.49648L7.87801 7.45184C7.80753 7.39311 7.69947 7.39546 7.64074 7.45419Z" fill="#0DABAB" stroke="#0DABAB" stroke-width="0.2"/>
<path d="M1.4653 7.64851C1.39717 7.72133 1.40657 7.79181 1.51228 8.08077C1.70727 8.60935 2.05261 9.20606 2.41205 9.63598C2.5812 9.83567 2.90774 10.1599 3.11213 10.329C3.33061 10.5123 3.8216 10.8271 4.10116 10.9657C4.41362 11.1207 4.85058 11.2852 4.94455 11.2852C5.03617 11.2852 5.10665 11.21 5.10665 11.1137C5.10665 11.0056 5.06201 10.9727 4.81299 10.8858C4.00484 10.6062 3.192 10.0354 2.63993 9.35877C2.32748 8.97584 1.97744 8.35328 1.81769 7.89048C1.77775 7.77537 1.72842 7.66025 1.70727 7.63911C1.65324 7.58038 1.52638 7.58508 1.4653 7.64851Z" fill="#0DABAB" stroke="#0DABAB" stroke-width="0.2"/>
<path d="M11.1806 7.63911C11.1595 7.66025 11.1101 7.77537 11.0702 7.89048C10.9105 8.35328 10.5604 8.97584 10.248 9.35877C9.69589 10.0354 8.88305 10.6062 8.07491 10.8858C7.82589 10.9727 7.78125 11.0056 7.78125 11.1137C7.78125 11.21 7.85173 11.2852 7.94335 11.2852C8.03732 11.2852 8.47428 11.1207 8.78673 10.9657C9.06629 10.8271 9.55729 10.5123 9.77577 10.329C10.4899 9.73465 11.0632 8.9312 11.3756 8.08077C11.4813 7.79181 11.4907 7.72133 11.4226 7.64851C11.3615 7.58508 11.2347 7.58038 11.1806 7.63911Z" fill="#0DABAB" stroke="#0DABAB" stroke-width="0.2"/>
<path d="M6.22666 10.4383C6.01522 10.4923 5.82493 10.6239 5.69103 10.8118C5.34569 11.2934 5.55712 11.9865 6.11389 12.205C6.29713 12.2754 6.59314 12.2754 6.77638 12.205C7.13582 12.064 7.3637 11.7281 7.3637 11.3404C7.3637 11.1313 7.30966 10.9622 7.18985 10.8001C7.01601 10.5628 6.78343 10.4383 6.49447 10.4242C6.3958 10.4195 6.27599 10.4266 6.22666 10.4383ZM6.63543 10.8001C6.77168 10.8494 6.8868 10.9505 6.95023 11.0844C7.09353 11.3757 6.97842 11.7163 6.68711 11.862C6.56495 11.923 6.32533 11.923 6.20316 11.862C5.66049 11.5918 5.84373 10.7696 6.44514 10.7696C6.50387 10.7696 6.58844 10.7837 6.63543 10.8001Z" fill="#0DABAB" stroke="#0DABAB" stroke-width="0.2"/>
</svg>
