<svg width="40" height="40" viewBox="0 0 40 40" fill="none" xmlns="http://www.w3.org/2000/svg">
<circle cx="20" cy="20" r="20" fill="#D13238"/>
<path d="M29.9692 14.5312C30.0829 14.6356 30.0634 14.725 30.0634 14.8038C30.0634 18.3043 30.088 21.8057 30.0495 25.3057C30.0281 27.2254 28.448 28.9424 26.5275 29.2596C26.2775 29.3011 26.0239 29.3198 25.7688 29.3198C21.7047 29.3175 17.6406 29.318 13.577 29.3157C11.7868 29.3148 10.1557 28.137 9.57501 26.4702C9.42428 26.0381 9.3357 25.5951 9.3357 25.1379C9.33431 21.7204 9.33431 18.3034 9.33524 14.8859C9.33524 14.781 9.32179 14.6725 9.38301 14.5714C9.46417 14.5686 9.49339 14.6393 9.53791 14.683C11.8786 16.9775 14.2221 19.2692 16.5553 21.5709C17.4569 22.4602 18.538 22.921 19.806 22.8945C20.9951 22.8699 22.0052 22.4068 22.8493 21.5709C24.8533 19.5873 26.8716 17.6174 28.8812 15.6397C29.2504 15.2765 29.607 14.9014 29.9692 14.5312Z" fill="white"/>
<path d="M19.7145 10.6728C21.8349 10.6728 23.9571 10.6263 26.0757 10.6892C27.4856 10.7311 28.5768 11.444 29.3652 12.5971C29.4548 12.7275 29.362 12.7708 29.2966 12.8346C27.5834 14.5151 25.8693 16.1947 24.1556 17.8752C23.2879 18.7261 22.4225 19.5794 21.5538 20.4299C20.5034 21.459 18.8987 21.4563 17.8505 20.4262C15.2826 17.9034 12.7151 15.3793 10.1425 12.8606C10.0155 12.7362 9.99459 12.6614 10.104 12.511C10.988 11.2986 12.1822 10.6705 13.6997 10.6637C15.7046 10.6546 17.7096 10.6614 19.7145 10.6614C19.7145 10.6655 19.7145 10.6691 19.7145 10.6732V10.6728Z" fill="white"/>
</svg>
