<svg xmlns="http://www.w3.org/2000/svg" width="25.786" height="30.778" viewBox="0 0 25.786 30.778">
  <g id="Group_3254" data-name="Group 3254" transform="translate(-29.487 -27)">
    <g id="Group_3243" data-name="Group 3243" transform="translate(-7251.618 -2986.668)">
      <path id="Path_2499" data-name="Path 2499" d="M7296.47,3017.04a7.48,7.48,0,0,1,4.521,3.571,8.42,8.42,0,0,1,1.026,4.13,16.821,16.821,0,0,0,.849,5.8,6.954,6.954,0,0,0,2.558,3.379c.145.1.288.2.429.311,1.454,1.11,1.379,2.639-.2,3.641a9.53,9.53,0,0,1-3.943,1.241c-1.33.179-2.669.286-4.075.432a3.887,3.887,0,0,1-1.26,4.042,3.609,3.609,0,0,1-2.906.825,3.824,3.824,0,0,1-3.12-4.887c-.985-.087-1.973-.1-2.931-.276a38.654,38.654,0,0,1-4.421-1.029,2.448,2.448,0,0,1-1.89-2.161,3.259,3.259,0,0,1,.461-1.372,1.106,1.106,0,0,1,.439-.393c2.759-1.726,3.6-4.442,3.834-7.458.09-1.144.038-2.3.206-3.435a7.381,7.381,0,0,1,5.181-6.276l.238-.087a2.609,2.609,0,0,1,2.507-3.367C7295.616,3013.611,7296.562,3014.91,7296.47,3017.04Zm-1.54,21.1c1.32-.082,3.643-.134,5.938-.406a15.988,15.988,0,0,0,3.858-1.055c.9-.351.887-.858.1-1.392a8.462,8.462,0,0,1-3.711-5.657,39.865,39.865,0,0,1-.543-5.318,6.208,6.208,0,0,0-4.669-5.884,1.224,1.224,0,0,0-.736.073,2.76,2.76,0,0,1-2.363.009,1.3,1.3,0,0,0-.8-.069,5.687,5.687,0,0,0-4.414,4.677c-.288,1.552-.22,3.167-.407,4.742-.363,3.077-1.479,5.757-4.205,7.533-.6.389-.614.781.011,1.147a7.67,7.67,0,0,0,2,.83C7287.924,3038.1,7290.935,3038.049,7294.93,3038.139Zm-.926,1.393v0c-.552,0-1.107-.035-1.653.018a.791.791,0,0,0-.558.386,2.248,2.248,0,0,0,.689,2.512,2.338,2.338,0,0,0,2.66.228,2.412,2.412,0,0,0,1.136-2.368c-.094-.55-.3-.878-.95-.784A9.279,9.279,0,0,1,7294,3039.531Zm1.083-23.272a1.147,1.147,0,0,0-1.063-1.134,1.093,1.093,0,0,0-1.146,1.1,1.107,1.107,0,0,0,1.076,1.108A1.162,1.162,0,0,0,7295.087,3016.259Z" transform="translate(-0.001 0)" fill="#fff"/>
    </g>
  </g>
</svg>
