<svg xmlns="http://www.w3.org/2000/svg" width="13.269" height="9" viewBox="0 0 13.269 9">
    <g data-name="Group 20776">
        <g data-name="Group 20769">
            <path data-name="Path 14484" d="M1273.438 1981.538c.095.005.161.012.228.012h10.393c.473 0 .752.3.656.7a.574.574 0 0 1-.609.432H1273.6c-.049 0-.1.006-.2.012l.553.557 2.348 2.351a.56.56 0 0 1 .095.694.543.543 0 0 1-.636.247.807.807 0 0 1-.31-.2q-1.614-1.605-3.221-3.219c-.2-.2-.4-.389-.586-.59a.53.53 0 0 1-.018-.78c.57-.6 1.153-1.18 1.734-1.765q1.079-1.085 2.163-2.165a.6.6 0 0 1 .853-.129.555.555 0 0 1 .025.849c-.393.4-.793.79-1.189 1.186q-.841.842-1.68 1.687c-.031.029-.049.064-.093.121z" transform="rotate(180 642.366 993.284)" style="fill:#585858"/>
        </g>
    </g>
</svg>
