<svg width="15" height="11" viewBox="0 0 15 11" fill="none" xmlns="http://www.w3.org/2000/svg">
<path d="M12.7673 6.51725C12.6599 6.5116 12.5853 6.50359 12.5096 6.50359L0.762746 6.50359C0.228128 6.50359 -0.0872231 6.16457 0.0212822 5.71246C0.0589247 5.56235 0.148929 5.43057 0.275152 5.34104C0.401375 5.2515 0.555513 5.21009 0.709627 5.22417C1.31432 5.22417 1.9201 5.22417 2.52479 5.22417L12.5842 5.22417C12.6396 5.22417 12.6972 5.21743 12.8102 5.21065L12.1852 4.58108C11.3006 3.69571 10.4159 2.80987 9.53131 1.92374C9.42689 1.82468 9.35932 1.69298 9.3398 1.55038C9.32028 1.40779 9.35001 1.26284 9.42396 1.13936C9.49382 1.01766 9.60332 0.9236 9.73413 0.8728C9.86493 0.822001 10.0091 0.81759 10.1428 0.860245C10.2755 0.907531 10.3955 0.984849 10.4932 1.08624C11.7094 2.29563 12.9229 3.5084 14.1338 4.72458C14.3598 4.95063 14.586 5.16421 14.7962 5.3914C14.8585 5.44608 14.9086 5.51318 14.9437 5.58828C14.9787 5.66339 14.9979 5.74494 14.9998 5.8278C15.0018 5.91067 14.9864 5.99302 14.9549 6.06967C14.9233 6.14631 14.8762 6.21554 14.8165 6.27304C14.1722 6.9512 13.5133 7.60677 12.8566 8.26798C12.0435 9.08554 11.2287 9.90127 10.4118 10.7151C10.3591 10.7892 10.2919 10.8519 10.2144 10.8995C10.1369 10.9472 10.0506 10.9788 9.96068 10.9924C9.87072 11.006 9.77893 11.0013 9.6908 10.9787C9.60267 10.9561 9.52 10.9161 9.44769 10.8609C9.37601 10.8041 9.31763 10.7322 9.27661 10.6505C9.23559 10.5687 9.21294 10.4791 9.21024 10.3877C9.20755 10.2962 9.22488 10.2052 9.26102 10.1212C9.29716 10.0372 9.35119 9.96222 9.41941 9.9013C9.86361 9.44919 10.3157 9.00835 10.7633 8.56076C11.397 7.9263 12.03 7.2907 12.6622 6.65398C12.6972 6.6212 12.7176 6.58168 12.7673 6.51725Z" fill="white"/>
</svg>
