<svg width="14" height="9" viewBox="0 0 14 9" fill="none" xmlns="http://www.w3.org/2000/svg">
<path d="M1.16407 0.534576C0.934103 0.607968 0.770193 0.774325 0.716372 0.992055C0.699247 1.06789 0.691908 2.18591 0.696801 4.74485L0.70414 8.39001L0.777532 8.52212C0.819121 8.59551 0.89496 8.68603 0.946335 8.72517C1.15673 8.87685 0.748175 8.86706 6.95473 8.86706C13.1613 8.86706 12.7527 8.87685 12.9631 8.72517C13.0145 8.68603 13.0928 8.59551 13.1319 8.52212L13.2053 8.39001V4.68369V0.977377L13.1319 0.845271C13.0928 0.771878 13.0145 0.681361 12.9631 0.642218C12.7527 0.490541 13.1637 0.500326 6.94494 0.502773C2.34568 0.502773 1.24724 0.510112 1.16407 0.534576ZM12.2879 1.02386C12.2683 1.04098 11.1259 1.89967 9.75098 2.92961C8.07518 4.18707 7.22139 4.81091 7.15778 4.82803C7.0379 4.86228 6.87155 4.86228 6.75167 4.82803C6.68807 4.81091 5.83427 4.18707 4.15848 2.92961C2.78359 1.89967 1.64112 1.04098 1.62154 1.02386C1.59219 0.994502 2.38972 0.989609 6.95473 0.989609C11.5197 0.989609 12.3173 0.994502 12.2879 1.02386ZM3.82332 3.27701C5.24224 4.3412 6.45076 5.23169 6.50948 5.25371C6.56819 5.27817 6.69051 5.30997 6.78348 5.32465C6.98898 5.3589 7.24096 5.32465 7.43178 5.23658C7.49783 5.20478 8.71614 4.30695 10.1351 3.24276L12.716 1.3052L12.7234 2.98099C12.7258 3.90329 12.7258 5.41272 12.7234 6.33258L12.716 8.00837L11.3583 6.33258C10.6121 5.41028 9.98339 4.64455 9.96137 4.63232C9.89532 4.59807 9.77299 4.60541 9.70694 4.64944C9.63844 4.69593 9.59196 4.81335 9.61153 4.89653C9.62132 4.93078 10.2476 5.72587 11.006 6.66284L12.3858 8.36554L9.67025 8.37288C8.17549 8.37533 5.73397 8.37533 4.23921 8.37288L1.52369 8.36554L2.90347 6.66284C3.66185 5.72587 4.28814 4.93078 4.29792 4.89653C4.31749 4.81335 4.27101 4.69593 4.20251 4.64944C4.14135 4.6103 4.02882 4.59807 3.95787 4.62498C3.9383 4.63476 3.31202 5.39071 2.57075 6.30811C1.82949 7.22307 1.21299 7.9839 1.20321 7.99614C1.19098 8.01082 1.18119 6.56743 1.18119 4.66168C1.18119 1.98285 1.18853 1.30764 1.21299 1.32232C1.22767 1.33455 2.4044 2.21282 3.82332 3.27701Z" fill="#F2B153"/>
</svg>
