<svg width="41" height="42" viewBox="0 0 41 42" fill="none" xmlns="http://www.w3.org/2000/svg">
<path d="M15.3892 41.9487H25.6108C34.11 41.9487 41 35.0587 41 26.5595V16.338C41 7.83873 34.11 0.94873 25.6108 0.94873H15.3892C6.89 0.94873 0 7.83873 0 16.338V26.5595C0 35.0587 6.89 41.9487 15.3892 41.9487Z" fill="url(#paint0_linear_289_61)"/>
<path d="M14.8017 30.0665C14.34 30.0665 13.8783 30.0973 13.4166 30.0573C13.0173 30.0417 12.6236 29.959 12.2517 29.8126C11.7915 29.6182 11.4023 29.287 11.1366 28.8639C10.871 28.4408 10.7419 27.9463 10.7667 27.4473C10.759 25.262 10.7667 23.0768 10.7667 20.8899V14.4265C10.7441 14.0654 10.7984 13.7035 10.926 13.365C11.0537 13.0264 11.2518 12.7189 11.5073 12.4626C11.7628 12.2064 12.0699 12.0074 12.408 11.8788C12.7462 11.7501 13.1079 11.6948 13.4691 11.7164H26.4361C26.9427 11.6841 27.4468 11.8091 27.8796 12.0744C28.3123 12.3397 28.6525 12.7323 28.8536 13.1984C29.0142 13.5571 29.0977 13.9457 29.0984 14.3387C29.1153 18.0322 29.1076 21.7148 29.1076 25.4036C29.1076 26.07 29.1076 26.7379 29.1076 27.4042C29.1236 27.7573 29.0657 28.1099 28.9378 28.4394C28.8098 28.769 28.6147 29.0682 28.3646 29.318C28.1145 29.5678 27.8149 29.7627 27.4852 29.8903C27.1556 30.0178 26.8029 30.0753 26.4498 30.0588C24.3938 30.0588 22.3364 30.0588 20.2804 30.0588H19.9417C19.9417 30.4328 19.9417 30.7837 19.9417 31.1361C19.9417 31.2731 19.9417 31.41 19.9417 31.5454C19.9492 31.6406 19.9299 31.736 19.8857 31.8207C19.8415 31.9053 19.7742 31.9758 19.6918 32.024C19.6094 32.0722 19.5151 32.0962 19.4196 32.0932C19.3242 32.0902 19.2316 32.0604 19.1523 32.0071C18.6332 31.7527 18.1167 31.4931 17.6027 31.2284C17.5421 31.1918 17.4726 31.1724 17.4018 31.1724C17.331 31.1724 17.2616 31.1918 17.201 31.2284C16.6963 31.4916 16.1838 31.7424 15.6713 31.9979C15.2096 32.2272 14.851 31.9979 14.8494 31.4839C14.8494 31.0417 14.8494 30.6 14.8494 30.1589C14.8379 30.126 14.8218 30.095 14.8017 30.0665ZM14.8449 12.7413V13.0107C14.8449 16.9154 14.8449 20.8197 14.8449 24.7234C14.8449 24.9065 14.8865 24.9727 15.085 24.9727C18.9005 24.9655 22.716 24.9625 26.5315 24.9635C26.7352 24.9716 26.9382 24.9377 27.1283 24.864C27.3184 24.7903 27.4915 24.6784 27.6365 24.5351C27.7815 24.3918 27.8955 24.2202 27.9714 24.0311C28.0474 23.8419 28.0838 23.6391 28.0781 23.4353C28.0889 22.4873 28.0873 21.5394 28.0873 20.5914C28.0873 18.5354 28.0873 16.4778 28.0873 14.4218C28.1036 14.1727 28.0617 13.9232 27.965 13.6929C27.8684 13.4627 27.7194 13.2581 27.5301 13.0953C27.1969 12.8379 26.7806 12.712 26.3605 12.7413C22.6169 12.7413 18.8723 12.7413 15.1265 12.7413H14.8449ZM13.8076 24.9727V12.7644C13.5635 12.6978 13.3072 12.6899 13.0595 12.7414C12.8118 12.7929 12.5799 12.9023 12.3827 13.0607C12.1854 13.219 12.0283 13.4219 11.9245 13.6526C11.8207 13.8833 11.7731 14.1353 11.7855 14.388C11.7855 17.9952 11.7855 21.6025 11.7855 25.2097C11.7855 25.2789 11.7963 25.3467 11.8071 25.4667C12.3916 25.0615 13.1049 24.8856 13.8108 24.9727H13.8076ZM13.3259 27.0087C13.4121 27.0087 13.4691 26.9995 13.5245 26.9995H21.3729C23.0842 26.9995 24.7939 26.9995 26.5052 26.9995C26.8457 27.0121 27.1805 26.9094 27.4554 26.708C27.7302 26.5066 27.9289 26.2184 28.0195 25.8899C28.0435 25.7597 28.0594 25.6281 28.0672 25.4959C27.6331 25.8044 27.1162 25.975 26.5837 25.9853H16.0314C15.1004 25.9853 14.1677 25.973 13.2367 25.9946C12.8552 26.0124 12.4944 26.1734 12.2264 26.4455C11.9584 26.7175 11.8028 27.0807 11.7907 27.4624C11.7787 27.8442 11.9111 28.2164 12.1614 28.5048C12.4117 28.7933 12.7616 28.9767 13.1412 29.0185C13.5645 29.0555 13.9907 29.0386 14.417 29.0432C14.5509 29.0432 14.6833 29.0324 14.8387 29.0247C14.8387 28.7754 14.8387 28.5507 14.8387 28.3276C14.8387 28.0198 14.8386 28.0198 14.5308 28.0198H13.3274L13.3259 27.0087ZM19.9434 28.0182C19.9434 28.3076 19.9526 28.563 19.9434 28.8185C19.9341 29.0001 19.9987 29.0524 20.1772 29.0493C20.9067 29.0401 21.6376 29.0493 22.3671 29.0493C23.7383 29.0493 25.1111 29.0493 26.4838 29.0493C26.8363 29.0685 27.1844 28.9644 27.4685 28.755C27.7527 28.5455 27.9552 28.2437 28.0411 27.9013C28.0611 27.792 28.0736 27.6814 28.0781 27.5704C27.4745 27.9429 26.7646 28.1053 26.059 28.0321C24.792 28.0321 23.5243 28.0321 22.2563 28.0321L19.9434 28.0182ZM15.8945 28.0182V30.7421C16.31 30.5374 16.6946 30.3589 17.0686 30.1604C17.1694 30.1015 17.2841 30.0704 17.4009 30.0704C17.5177 30.0704 17.6326 30.1015 17.7334 30.1604C18.0412 30.322 18.3489 30.4682 18.6567 30.6221C18.7306 30.659 18.8107 30.6867 18.9184 30.7314C18.9184 29.8373 18.9184 28.9877 18.9107 28.1383C18.9107 28.0967 18.7937 28.0213 18.729 28.0198C18.3274 28.009 17.9258 28.0198 17.5241 28.0198L15.8945 28.0182Z" fill="white"/>
<defs>
<linearGradient id="paint0_linear_289_61" x1="20.5" y1="46.2537" x2="20.5" y2="5.99173" gradientUnits="userSpaceOnUse">
<stop stop-color="#29ABE2"/>
<stop offset="1" stop-color="#22B573"/>
</linearGradient>
</defs>
</svg>
