<svg width="14" height="11" viewBox="0 0 14 11" fill="none" xmlns="http://www.w3.org/2000/svg">
<path d="M6.88737 0.0122541C6.68799 0.0421612 6.41634 0.179235 6.26929 0.326279C6.11976 0.473322 6.38394 0.0446534 3.34588 5.08151C1.48167 8.1744 0.79131 9.34078 0.748942 9.46788C0.696604 9.61742 0.689128 9.67973 0.699097 9.89406C0.706573 10.1233 0.716542 10.1607 0.798787 10.3327C0.973245 10.6816 1.30222 10.9209 1.67855 10.9757C1.91532 11.0081 12.2333 11.0081 12.47 10.9757C12.8464 10.9209 13.1753 10.6816 13.3498 10.3327C13.432 10.1607 13.442 10.1233 13.4495 9.89406C13.4595 9.67973 13.452 9.61742 13.3996 9.46788C13.3573 9.34078 12.6669 8.1744 10.8027 5.08151C7.75967 0.0371766 8.02634 0.47083 7.88428 0.328771C7.63007 0.0770528 7.26121 -0.0400834 6.88737 0.0122541ZM7.22383 0.897006C7.30607 0.946851 7.01697 0.478306 10.065 5.53012C11.8295 8.45603 12.5922 9.74452 12.5996 9.80683C12.6146 9.91649 12.5573 10.0286 12.4576 10.0885C12.3928 10.1258 11.9492 10.1283 7.07429 10.1283C2.19944 10.1283 1.75581 10.1258 1.69102 10.0885C1.59133 10.0286 1.534 9.91649 1.54896 9.80683C1.55643 9.74452 2.31906 8.45603 4.08358 5.53012C7.12165 0.49326 6.84251 0.949343 6.92227 0.899498C7.007 0.847161 7.1366 0.847161 7.22383 0.897006Z" fill="#FF7F00"/>
<path d="M6.80128 3.46286C6.67417 3.51769 6.55454 3.64479 6.52464 3.75944C6.49473 3.86162 6.5047 4.30773 6.55454 5.36694C6.5695 5.66103 6.58943 6.18441 6.5994 6.53083C6.61934 7.23365 6.62433 7.25109 6.80377 7.34081C6.92838 7.40561 7.19256 7.40063 7.3396 7.33334C7.50659 7.25358 7.534 7.1838 7.54148 6.81245C7.54646 6.64049 7.5664 6.11462 7.58634 5.64109C7.65363 4.02611 7.65612 3.86162 7.62372 3.75695C7.58385 3.63233 7.48914 3.53015 7.36203 3.47034C7.23742 3.41301 6.92838 3.40803 6.80128 3.46286Z" fill="#FF7F00"/>
<path d="M6.83719 7.95784C6.37862 8.16719 6.36366 8.82763 6.81227 9.04446C6.92941 9.10428 6.97178 9.11175 7.12131 9.10178C7.32568 9.09181 7.45777 9.01455 7.58487 8.83511C7.65465 8.73542 7.65964 8.71299 7.65964 8.51361C7.65964 8.32171 7.65216 8.28432 7.59484 8.19709C7.5101 8.0675 7.46026 8.02513 7.32318 7.96282C7.18113 7.89802 6.97178 7.89553 6.83719 7.95784Z" fill="#FF7F00"/>
</svg>
