<svg width="25" height="25" viewBox="0 0 25 25" fill="none" xmlns="http://www.w3.org/2000/svg">
<rect width="25" height="25" rx="12.5" fill="#D9D9D9"/>
<path d="M17.0481 19.9997H8.20145C8.18971 19.9918 8.17915 19.9801 8.16624 19.9768C7.40545 19.7932 7.00055 19.2795 7.00026 18.4965C7.00026 16.3641 6.99967 14.2319 7.00026 12.0994C7.00055 11.232 7.60496 10.6306 8.4749 10.6291C8.60488 10.6291 8.73485 10.6291 8.87481 10.6291C8.87481 10.0215 8.86923 9.43189 8.87745 8.84252C8.88097 8.59463 8.89711 8.34468 8.93583 8.10002C9.24801 6.13918 11.2112 4.72634 13.172 5.04494C15.0539 5.35091 16.3704 6.89342 16.3739 8.79852C16.375 9.35473 16.3739 9.91095 16.3739 10.4672C16.3739 10.5185 16.3739 10.5701 16.3739 10.6297C16.5552 10.6297 16.716 10.6265 16.8765 10.6303C17.6235 10.6485 18.242 11.251 18.2446 11.9971C18.2525 14.2075 18.2508 16.4177 18.2455 18.6282C18.244 19.2065 17.8664 19.7151 17.3221 19.9126C17.2321 19.9454 17.1391 19.971 17.0475 20L17.0481 19.9997ZM10.1341 10.6206H15.1046C15.1046 9.8866 15.1046 9.16111 15.1037 8.43563C15.1037 8.3972 15.0917 8.35876 15.0855 8.32004C14.8802 7.01722 13.566 6.06701 12.2677 6.28234C10.9955 6.49327 10.135 7.49892 10.1282 8.78561C10.1253 9.35151 10.1276 9.9174 10.1279 10.4833C10.1279 10.5261 10.1317 10.5693 10.1341 10.6206Z" fill="black"/>
</svg>
