<svg width="13" height="9" viewBox="0 0 13 9" fill="none" xmlns="http://www.w3.org/2000/svg">
<path d="M0.914066 0.284576C0.684103 0.357968 0.520193 0.524325 0.466372 0.742055C0.449247 0.817894 0.441908 1.93591 0.446801 4.49485L0.45414 8.14001L0.527532 8.27212C0.569121 8.34551 0.64496 8.43603 0.696335 8.47517C0.906726 8.62685 0.498175 8.61706 6.70473 8.61706C12.9113 8.61706 12.5027 8.62685 12.7131 8.47517C12.7645 8.43603 12.8428 8.34551 12.8819 8.27212L12.9553 8.14001V4.43369V0.727377L12.8819 0.595271C12.8428 0.521878 12.7645 0.431361 12.7131 0.392218C12.5027 0.240541 12.9137 0.250326 6.69494 0.252773C2.09568 0.252773 0.997244 0.260112 0.914066 0.284576ZM12.0379 0.773859C12.0183 0.790984 10.8759 1.64967 9.50098 2.67961C7.82518 3.93707 6.97139 4.56091 6.90778 4.57803C6.7879 4.61228 6.62155 4.61228 6.50167 4.57803C6.43807 4.56091 5.58427 3.93707 3.90848 2.67961C2.53359 1.64967 1.39112 0.790984 1.37154 0.773859C1.34219 0.744502 2.13972 0.739609 6.70473 0.739609C11.2697 0.739609 12.0673 0.744502 12.0379 0.773859ZM3.57332 3.02701C4.99224 4.0912 6.20076 4.98169 6.25948 5.00371C6.31819 5.02817 6.44051 5.05997 6.53348 5.07465C6.73898 5.1089 6.99096 5.07465 7.18178 4.98658C7.24783 4.95478 8.46614 4.05695 9.88506 2.99276L12.466 1.0552L12.4734 2.73099C12.4758 3.65329 12.4758 5.16272 12.4734 6.08258L12.466 7.75837L11.1083 6.08258C10.3621 5.16028 9.73339 4.39455 9.71137 4.38232C9.64532 4.34807 9.52299 4.35541 9.45694 4.39944C9.38844 4.44593 9.34196 4.56335 9.36153 4.64653C9.37132 4.68078 9.9976 5.47587 10.756 6.41284L12.1358 8.11554L9.42025 8.12288C7.92549 8.12533 5.48397 8.12533 3.98921 8.12288L1.27369 8.11554L2.65347 6.41284C3.41185 5.47587 4.03814 4.68078 4.04792 4.64653C4.06749 4.56335 4.02101 4.44593 3.95251 4.39944C3.89135 4.3603 3.77882 4.34807 3.70787 4.37498C3.6883 4.38476 3.06202 5.14071 2.32075 6.05811C1.57949 6.97307 0.962994 7.7339 0.953208 7.74614C0.940976 7.76082 0.93119 6.31743 0.93119 4.41168C0.93119 1.73285 0.93853 1.05764 0.962994 1.07232C0.977672 1.08455 2.1544 1.96282 3.57332 3.02701Z" fill="#C11D2A"/>
</svg>
