<svg width="15" height="16" viewBox="0 0 15 16" fill="none" xmlns="http://www.w3.org/2000/svg">
<g opacity="0.6">
<path d="M7.25029 0.705016C9.15619 0.705016 11.062 0.698001 12.9679 0.710994C13.32 0.707761 13.671 0.753492 14.0105 0.846901C14.1196 0.871689 14.2209 0.922905 14.3055 0.996107C14.3901 1.06931 14.4552 1.16231 14.4954 1.2667C14.5356 1.3711 14.5495 1.48373 14.5359 1.59476C14.5222 1.70579 14.4816 1.81175 14.4173 1.9033C14.289 2.12114 14.1344 2.32249 13.9573 2.50292C12.4729 4.05203 10.9831 5.59614 9.48801 7.13525C9.37504 7.24061 9.28615 7.36908 9.22717 7.51186C9.1682 7.65464 9.14048 7.80839 9.14617 7.96277C9.15616 10.2614 9.14633 12.5601 9.13933 14.8588C9.1422 15.0217 9.11599 15.1838 9.06223 15.3375C9.03854 15.4135 8.99791 15.483 8.94316 15.5408C8.88841 15.5985 8.8211 15.6429 8.7465 15.6706C8.6719 15.6983 8.59192 15.7085 8.51274 15.7005C8.43357 15.6924 8.35726 15.6664 8.28973 15.6243C8.10584 15.5175 7.93766 15.3857 7.79002 15.2326C7.09742 14.533 6.42772 13.8104 5.72213 13.1238C5.4995 12.9091 5.32513 12.6495 5.21022 12.3623C5.09531 12.0751 5.04248 11.7669 5.05552 11.4578C5.05552 10.1586 5.04556 8.8593 5.06455 7.56005C5.07135 7.41839 5.04576 7.27696 4.98964 7.14671C4.93352 7.01647 4.84839 6.90077 4.74076 6.80841C3.46683 5.58445 2.20085 4.35188 0.942916 3.1106C0.651324 2.83286 0.393854 2.52155 0.175538 2.18316C0.0840427 2.06724 0.0255747 1.92862 0.00669103 1.78215C-0.0121926 1.63568 0.00907727 1.48683 0.0681788 1.35149C0.12728 1.21615 0.222164 1.09937 0.342434 1.01367C0.462704 0.927974 0.603914 0.876635 0.751132 0.864957C1.05967 0.802653 1.37382 0.772421 1.68858 0.774921C3.5435 0.766926 5.39952 0.774921 7.25444 0.774921L7.25029 0.705016ZM1.06492 1.72237L1.00587 1.83632C1.19676 2.0452 1.37787 2.26405 1.57975 2.46193C2.95296 3.80116 4.33603 5.1284 5.69724 6.47962C5.86314 6.6584 5.96121 6.88974 5.97418 7.13329C6.00116 8.29362 6.04214 9.45786 5.97418 10.6142C5.90901 11.069 5.96511 11.533 6.13692 11.9591C6.30874 12.3852 6.59019 12.7585 6.95261 13.0409C7.40135 13.3947 7.80001 13.8114 8.21677 14.1972V13.8694C8.21677 11.7706 8.22167 9.67982 8.21067 7.58604C8.20418 7.44303 8.22829 7.30023 8.28119 7.16721C8.33409 7.03419 8.4147 6.91388 8.51762 6.81439C10.0641 5.22131 11.6045 3.62231 13.139 2.01724C13.2219 1.93129 13.2969 1.8383 13.3979 1.72237H1.06492Z" fill="#C2C2C2"/>
<path d="M5.58594 6.32618L1.57227 2.38546L2.27186 1.67188L6.28653 5.61059L5.58594 6.32618Z" fill="#C2C2C2"/>
</g>
</svg>
