<svg xmlns="http://www.w3.org/2000/svg" width="18" height="18" viewBox="0 0 18 18">
    <defs>
        <style>
            .cls-2{fill:#ff7f00;stroke:transparent}
        </style>
    </defs>
    <g id="Group_20646" data-name="Group 20646" transform="translate(-9.011 -13)">
        <g id="Group_20644" data-name="Group 20644">
            <g id="Group_20642" data-name="Group 20642">
                <g id="Ellipse_723" data-name="Ellipse 723" transform="translate(9.011 13)" style="stroke:#ff7f00;fill:none">
                    <circle cx="9" cy="9" r="9" style="stroke:none"/>
                    <circle cx="9" cy="9" r="8.5" style="fill:none"/>
                </g>
                <g id="Group_20641" data-name="Group 20641" transform="translate(13.511 17.5)">
                    <g id="Group_5200" data-name="Group 5200">
                        <g id="Group_5199" data-name="Group 5199">
                            <g id="Group_4182" data-name="Group 4182">
                                <path id="Path_3465" data-name="Path 3465" class="cls-2" d="M3702.134 1519.394c-1.108 0-2.217.009-3.326 0-.709-.007-1.022-.334-1.057-1.056-.047-.949.227-1.454.943-1.466q3.46-.054 6.922 0c.729.013.969.515.9 1.552-.042.671-.346.96-1.06.966-1.104.01-2.213.004-3.322.004z" transform="translate(-3697.746 -1510.556)"/>
                                <path id="Path_3466" data-name="Path 3466" class="cls-2" d="m3723.064 1475.142-1.274-1.388c1.007-1.063 2-2.167 3.064-3.208a.866.866 0 0 1 1.3.062.884.884 0 0 1-.081 1.3 536.84 536.84 0 0 1-3.009 3.234z" transform="translate(-3718.627 -1470.28)"/>
                                <path id="Path_3467" data-name="Path 3467" class="cls-2" d="m3714.175 1500.308.251-1.644c.479.524.843.923 1.273 1.4z" transform="translate(-3711.948 -1494.819)"/>
                            </g>
                        </g>
                    </g>
                </g>
            </g>
        </g>
    </g>
</svg>
