<svg width="27" height="27" viewBox="0 0 27 27" fill="none" xmlns="http://www.w3.org/2000/svg">
<path d="M16.99 0H10C4.48 0 0 4.48 0 10V16.99C0 22.51 4.48 26.99 10 26.99H16.99C22.51 26.99 26.99 22.51 26.99 16.99V10C26.99 4.48 22.51 0 16.99 0Z" fill="url(#paint0_linear_9822_3835)"/>
<path d="M16.4788 19.5664H10.5088C10.2488 19.5664 10.0488 19.7764 10.0488 20.0264C10.0488 20.2764 10.2588 20.4864 10.5088 20.4864H16.4788C16.7388 20.4864 16.9388 20.2764 16.9388 20.0264C16.9388 19.7764 16.7288 19.5664 16.4788 19.5664Z" fill="#FCFDFD"/>
<path d="M15.2995 17.9389C15.2995 17.7689 15.1595 17.6289 14.9895 17.6289C14.8195 17.6289 14.6795 17.7689 14.6795 17.9389V18.4489H12.3095V17.9389C12.3095 17.7689 12.1695 17.6289 11.9995 17.6289C11.8295 17.6289 11.6895 17.7689 11.6895 17.9389V18.7089C11.6895 18.7089 11.6895 18.7189 11.6895 18.7289C11.6895 18.7289 11.6895 18.7389 11.6895 18.7489C11.6895 18.9189 11.8295 19.0589 11.9995 19.0589H14.9895C15.1595 19.0589 15.2995 18.9189 15.2995 18.7489C15.2995 18.7489 15.2995 18.7389 15.2995 18.7289C15.2995 18.7289 15.2995 18.7189 15.2995 18.7089V17.9389Z" fill="#FCFDFD"/>
<path d="M20.9598 7.25828V16.2683H6.02977V7.25828H20.9598ZM21.2998 6.48828H5.68977C5.44977 6.48828 5.25977 6.67828 5.25977 6.91828V16.6083C5.25977 16.8483 5.44977 17.0383 5.68977 17.0383H21.2998C21.5398 17.0383 21.7298 16.8483 21.7298 16.6083V6.92828C21.7298 6.68828 21.5398 6.49828 21.2998 6.49828V6.48828Z" fill="#FCFDFD"/>
<path d="M8.56945 14.0977H7.18945V15.5777H8.56945V14.0977Z" fill="#FCFDFD"/>
<path d="M10.5304 13.1094H9.15039V15.5794H10.5304V13.1094Z" fill="#FCFDFD"/>
<path d="M11.7789 15.25C11.8389 14.93 11.9089 14.64 11.9689 14.33C11.9889 14.25 12.0089 14.18 12.0289 14.11C12.0389 14.06 12.0589 14.02 12.0689 13.98C12.1389 13.69 12.2889 13.45 12.5089 13.24V11.5H11.1289V15.58H11.7089L11.7789 15.25Z" fill="#FCFDFD"/>
<path d="M14.2591 12.0266C14.3191 11.9966 14.3791 11.9866 14.4091 11.9866C14.4091 11.9866 14.4291 11.9866 14.4391 11.9866H14.4891V11.5566C14.4391 11.4666 14.3991 11.3766 14.3691 11.2766C14.3391 11.1966 14.2691 11.1066 14.1891 11.0166L14.1591 10.9766C13.9791 10.7666 13.9191 10.5166 13.9991 10.2466C14.0191 10.1766 14.0391 10.0766 14.0291 9.99656C13.9791 9.62656 13.9091 9.07656 14.3091 8.62656C14.3591 8.57656 14.4091 8.52656 14.4691 8.47656H13.1191V12.6566C13.5391 12.4266 13.9391 12.2066 14.2591 12.0266Z" fill="#FCFDFD"/>
<path d="M14.789 12.2392C14.839 12.5592 14.889 12.8692 14.939 13.1792C14.989 13.4992 15.009 13.8292 15.089 14.1492C15.129 14.3492 15.219 14.5392 15.329 14.7092C15.479 14.9592 15.659 15.1892 15.849 15.4492C16.089 15.0992 16.369 14.7892 16.529 14.4292C16.659 14.1392 16.639 13.7892 16.689 13.4692C16.749 13.0592 16.809 12.6492 16.869 12.1992C17.089 12.3092 17.279 12.3992 17.459 12.5092C17.799 12.6892 18.119 12.8892 18.459 13.0692C18.939 13.3192 19.279 13.6792 19.389 14.2292C19.479 14.6992 19.599 15.1592 19.709 15.6492H11.959C12.049 15.2192 12.129 14.7992 12.219 14.3792C12.239 14.2592 12.289 14.1492 12.319 14.0392C12.429 13.6092 12.729 13.3392 13.099 13.1392C13.629 12.8392 14.169 12.5492 14.709 12.2492C14.729 12.2492 14.749 12.2492 14.799 12.2392H14.789Z" fill="white"/>
<path d="M17.3297 9.8573C17.3697 10.0273 17.4197 10.1973 17.4497 10.3673C17.4897 10.5573 17.4397 10.7173 17.2797 10.8573C17.2097 10.9173 17.1397 10.9873 17.1197 11.0773C16.9497 11.6373 16.5697 11.9573 16.0197 12.1073C15.9197 12.1373 15.7897 12.1573 15.6897 12.1273C15.1997 11.9873 14.7897 11.7373 14.6097 11.2073C14.5597 11.0673 14.4497 10.9473 14.3497 10.8273C14.2197 10.6773 14.1897 10.5173 14.2397 10.3273C14.2697 10.2173 14.2897 10.0873 14.2797 9.9773C14.2297 9.5673 14.1897 9.1573 14.4997 8.8173C14.5897 8.7173 14.6997 8.6373 14.8197 8.5673C14.9697 8.4873 15.1297 8.4073 15.2897 8.3573C15.4897 8.2973 15.6997 8.1873 15.8897 8.2273C16.2297 8.2873 16.5697 8.4073 16.8597 8.5673C17.2397 8.7773 17.3397 9.1773 17.3697 9.5873C17.3697 9.6773 17.3697 9.7673 17.3697 9.8573C17.3597 9.8573 17.3397 9.8573 17.3297 9.8673V9.8573Z" fill="white"/>
<path d="M16.2197 13.0592C15.8897 13.3292 16.0497 13.6492 16.1597 13.9092C16.3897 14.4092 16.1197 14.7192 15.8197 15.0692C15.6697 14.8592 15.5297 14.6592 15.3897 14.4492C15.3697 14.4092 15.3897 14.3392 15.3897 14.2892C15.4397 14.0892 15.4797 13.8992 15.5497 13.7092C15.6397 13.4692 15.6297 13.2492 15.4297 13.0592C15.5697 12.9292 15.6897 12.8192 15.8197 12.6992C15.9497 12.8192 16.0697 12.9292 16.2097 13.0692L16.2197 13.0592Z" fill="white"/>
<defs>
<linearGradient id="paint0_linear_9822_3835" x1="13.49" y1="-6" x2="13.49" y2="28" gradientUnits="userSpaceOnUse">
<stop stop-color="#FEF640"/>
<stop offset="1" stop-color="#ED2409"/>
</linearGradient>
</defs>
</svg>
