<svg xmlns="http://www.w3.org/2000/svg" width="8.797" height="6" viewBox="0 0 8.797 6">
  <g id="Group_20371" data-name="Group 20371" transform="translate(-24.308 -9.904)">
    <g id="Group_20367" data-name="Group 20367" transform="translate(737.794 -1568.124)">
      <path id="Path_14411" data-name="Path 14411" d="M-712.71,1578.05a.8.8,0,0,1,.612.3q.356.435.714.869,1.129,1.373,2.258,2.745c.042.051.068.052.111,0q1.432-1.769,2.866-3.536a1,1,0,0,1,.466-.368.768.768,0,0,1,.981.609.8.8,0,0,1-.18.667q-1.173,1.447-2.347,2.892-.588.725-1.176,1.45a.82.82,0,0,1-.514.335.784.784,0,0,1-.76-.281c-.175-.2-.341-.411-.511-.617l-2.329-2.83q-.393-.477-.785-.955a.779.779,0,0,1,.342-1.24A.689.689,0,0,1-712.71,1578.05Z" fill="#495057"/>
    </g>
  </g>
</svg>
