<svg width="23" height="28" viewBox="0 0 23 28" fill="none" xmlns="http://www.w3.org/2000/svg">
<path d="M0.0345404 12.9429C0.0345404 10.1694 0.0370037 7.39559 0.0331328 4.62209C0.0320771 3.8265 0.0190569 3.0309 0.000758197 2.23531C-0.00909495 1.80391 0.0767682 1.38728 0.276998 1.01816C0.522623 0.563538 0.927306 0.267609 1.42946 0.115598C1.69691 0.0350185 1.96857 -0.00298427 2.24904 0.000182626C2.93805 0.00897956 3.62707 0.00334952 4.31609 0.0153134C6.53621 0.0547236 8.75634 0.0318516 10.9761 0.0276291C11.8861 0.0258697 12.7968 0.0360741 13.7068 0.0110908C14.2224 -0.00298427 14.595 0.222921 14.8913 0.617375C14.9177 0.652211 14.9483 0.687399 14.9846 0.710975C15.2654 0.896062 15.4498 1.18038 15.688 1.40945C15.9379 1.64943 16.1905 1.89293 16.426 2.15156C16.7402 2.49675 17.0717 2.82822 17.4169 3.1421C17.6573 3.36061 17.8832 3.59567 18.1094 3.82544C18.3361 4.05486 18.5655 4.28605 18.7942 4.51336C19.0272 4.74525 19.2686 4.97538 19.4963 5.21008C19.7254 5.44584 19.9882 5.65204 20.187 5.92017C20.3422 6.12953 20.3904 6.35333 20.3897 6.60949C20.3834 9.76865 20.3855 12.9278 20.3795 16.087C20.3792 16.3153 20.4397 16.5507 20.3172 16.7738C20.1529 17.0736 19.9358 17.1943 19.6405 17.1296C19.3756 17.0715 19.1715 16.8006 19.1711 16.493C19.1701 14.3258 19.1704 12.1586 19.1711 9.99139C19.1711 9.10677 19.1725 8.22215 19.1725 7.33788C19.1725 7.09555 19.0538 6.97439 18.8164 6.97439C17.583 6.97439 16.3492 6.97404 15.1158 6.97474C14.6964 6.97474 14.2994 6.83927 13.9989 6.58099C13.6481 6.27908 13.4387 5.85437 13.4376 5.36596C13.4345 4.07703 13.4366 2.78811 13.4366 1.49918C13.4366 1.24301 13.4366 1.23949 13.1737 1.23809C12.927 1.23703 12.6807 1.24794 12.434 1.24829C8.97346 1.24864 5.51289 1.24829 2.05232 1.24794C1.46712 1.24794 1.21446 1.49988 1.21446 2.09069C1.2127 9.23661 1.21164 16.3822 1.21129 23.5281C1.21129 23.8589 1.28202 24.1537 1.61667 24.3174C1.74793 24.3814 1.88341 24.3842 2.02241 24.3842C4.70493 24.3842 7.3871 24.3775 10.0696 24.3913C10.5035 24.3934 10.9392 24.3895 11.3741 24.4074C11.7137 24.4219 11.934 24.7453 11.9502 24.98C11.9685 25.2491 11.7306 25.5134 11.4304 25.5518C11.2749 25.5718 11.1155 25.5683 10.9578 25.5683C8.37769 25.5715 5.79758 25.5774 3.21746 25.5732C2.69982 25.5725 2.17971 25.6105 1.66383 25.5525C1.25176 25.506 0.89458 25.3554 0.585613 25.0405C0.200636 24.6481 0.0370037 24.196 0.0366518 23.6706C0.0334847 20.2842 0.0348923 16.8973 0.0348923 13.5109C0.0348923 13.3212 0.0348923 13.1319 0.0345404 12.9422V12.9429ZM18.2171 5.68969C17.6506 5.13865 17.1005 4.61892 16.5692 4.0809C16.3053 3.81348 16.0406 3.5457 15.7792 3.27581C15.479 2.9658 15.15 2.68325 14.8695 2.35319C14.8248 2.3004 14.7731 2.26346 14.7066 2.28175C14.6341 2.30181 14.6506 2.3736 14.6506 2.42673C14.6496 3.39334 14.6482 4.36029 14.6524 5.3269C14.6534 5.57146 14.7523 5.6823 14.9892 5.7298C15.075 5.74704 15.1641 5.75866 15.2513 5.75901C16.1307 5.76112 17.0101 5.76041 17.8895 5.76041C17.9835 5.76041 18.0781 5.76217 18.2168 5.69074L18.2171 5.68969Z" fill="black"/>
<path d="M14.4205 17.7367C14.6401 17.7244 14.8372 17.7923 15.0008 17.9285C15.3801 18.2438 15.9755 18.0028 16.1047 17.5006C16.1796 17.2089 16.2986 16.9295 16.5931 16.7747C16.7529 16.6906 16.9278 16.6635 17.1002 16.6466C17.4408 16.6132 17.7804 16.6417 18.1147 16.7188C18.2946 16.7603 18.6243 17.1283 18.6355 17.3201C18.663 17.7856 19.0254 18.0098 19.3341 18.0672C19.491 18.0964 19.6202 18.0418 19.743 17.9602C20.1142 17.7125 20.5055 17.6277 20.8902 17.9004C21.2051 18.1234 21.4891 18.3923 21.6816 18.735C21.8593 19.0514 21.8178 19.437 21.5792 19.7118C21.4398 19.8726 21.4824 20.0574 21.488 20.2347C21.4968 20.5127 21.7439 20.8065 22.0117 20.8663C22.4012 20.9532 22.7232 21.1172 22.8527 21.5317C22.8759 21.6056 22.8907 21.6771 22.89 21.7534C22.8889 21.9304 22.8685 22.1102 22.8935 22.2833C22.9797 22.8748 22.4983 23.3749 21.9758 23.4474C21.5566 23.5058 21.3223 24.0966 21.5767 24.4819C21.8554 24.9045 21.8709 25.3025 21.5644 25.7085C21.2959 26.0643 21.0021 26.4017 20.5305 26.5083C20.3732 26.5439 20.2237 26.5298 20.0878 26.4651C19.9302 26.3898 19.7553 26.3468 19.617 26.2318C19.5983 26.2163 19.5744 26.2036 19.5508 26.1973C19.1898 26.0963 18.632 26.5087 18.6412 26.8817C18.645 27.0362 18.5905 27.1519 18.4909 27.2533C18.1534 27.5967 17.7421 27.7276 17.2677 27.6597C17.1002 27.6357 16.9306 27.6132 16.7691 27.5661C16.3489 27.4433 16.1821 27.1055 16.1012 26.7173C16.0639 26.5382 15.9657 26.4299 15.8197 26.3405C15.498 26.1441 15.1912 26.1976 14.8836 26.3767C14.4346 26.6382 14.1224 26.5316 13.7705 26.2666C13.5774 26.1213 13.4095 25.9376 13.2497 25.7543C12.8975 25.3489 12.9221 24.7975 13.298 24.4083C13.3958 24.307 13.3954 24.1817 13.3521 24.0719C13.2149 23.725 13.0368 23.435 12.6019 23.3766C12.3204 23.339 12.0955 23.1539 12.0093 22.8562C11.8735 22.3871 11.8671 21.9191 12.0037 21.4455C12.1177 21.0497 12.44 20.9466 12.7764 20.8519C12.794 20.847 12.8144 20.8523 12.8331 20.8505C13.1632 20.8146 13.483 20.1313 13.2987 19.8571C13.2286 19.7526 13.1477 19.6531 13.0935 19.5408C12.9316 19.2051 12.9668 18.8912 13.2022 18.5922C13.4056 18.3342 13.6245 18.0995 13.8948 17.9077C14.0581 17.7916 14.2294 17.7445 14.4205 17.7371V17.7367ZM22.0789 22.1626C22.0687 21.6961 22.0683 21.6975 21.6408 21.5937C21.3575 21.5247 21.1252 21.4033 20.9926 21.1098C20.918 20.9448 20.8567 20.772 20.7695 20.6123C20.5351 20.1837 20.534 19.7787 20.8673 19.3913C21.0309 19.2012 21.0161 19.114 20.8423 18.937C20.7716 18.8649 20.6991 18.7941 20.6287 18.7216C20.4151 18.5007 20.3046 18.5464 20.0998 18.6953C19.782 18.9261 19.4632 18.9718 19.1064 18.8374C18.9473 18.7776 18.7932 18.7037 18.6317 18.6527C18.2309 18.5263 18.0071 18.2389 17.9229 17.8486C17.8466 17.4953 17.7991 17.4355 17.4437 17.4352C17.3803 17.4352 17.317 17.4338 17.254 17.4345C17.002 17.4373 16.913 17.5186 16.887 17.7649C16.8549 18.0675 16.7247 18.3061 16.4686 18.4876C16.2546 18.6393 16.0167 18.7403 15.7764 18.8181C15.4065 18.9377 15.0272 19.001 14.6911 18.6886C14.6112 18.6143 14.4814 18.5334 14.3459 18.6055C14.1534 18.7083 13.9982 18.8508 13.8965 19.0475C13.8564 19.1249 13.8652 19.1949 13.8891 19.2804C13.9412 19.468 14.0996 19.5901 14.159 19.7727C14.3188 20.2625 14.0007 20.6439 13.8529 21.0539C13.7269 21.4044 13.406 21.5729 13.0238 21.6162C12.769 21.645 12.7099 21.7383 12.7106 21.998C12.711 22.0926 12.7106 22.1873 12.7082 22.2819C12.7029 22.4976 12.7715 22.5856 12.9855 22.6324C13.047 22.6458 13.1104 22.6521 13.1709 22.6686C13.5207 22.7626 13.7727 22.9744 13.9057 23.3115C13.949 23.4206 13.9599 23.5441 14.0204 23.6476C14.2748 24.0843 14.2386 24.4952 13.9356 24.8974C13.7878 25.0934 13.8311 25.2676 14.0313 25.4091C14.0672 25.4344 14.0996 25.4654 14.1295 25.4974C14.3705 25.7532 14.4473 25.7662 14.7154 25.5502C14.9452 25.3651 15.2014 25.3556 15.4776 25.3753C15.7662 25.396 15.9977 25.5558 16.2486 25.6631C16.4168 25.7353 16.6125 25.8165 16.7019 25.9865C16.793 26.1603 16.8799 26.3451 16.8929 26.5527C16.907 26.7772 16.9799 26.838 17.203 26.8398C17.298 26.8405 17.3926 26.8398 17.4877 26.8398C17.8103 26.8402 17.8659 26.7793 17.9208 26.4545C17.9666 26.1843 18.0778 25.9432 18.3252 25.7859C18.5666 25.6325 18.8263 25.5034 19.0941 25.427C19.4495 25.326 19.8218 25.2912 20.1367 25.5892C20.243 25.6895 20.3933 25.7814 20.5379 25.6308C20.6343 25.5305 20.7339 25.4376 20.843 25.3507C21.0365 25.1969 21.0288 25.0706 20.8624 24.8753C20.7082 24.6948 20.6188 24.4857 20.6083 24.2398C20.5967 23.9653 20.7417 23.7454 20.8339 23.5079C20.9039 23.3277 20.9648 23.1261 21.0907 22.9903C21.2779 22.7886 21.5229 22.6528 21.8174 22.6299C21.9905 22.6166 22.0845 22.5005 22.0887 22.3238C22.0901 22.2608 22.0813 22.1978 22.0789 22.1619V22.1626Z" fill="black"/>
<path d="M10.0577 11.0682C7.91987 11.0682 5.78174 11.0682 3.64396 11.0682C3.57428 11.0682 3.50425 11.0721 3.43528 11.0644C3.20549 11.0387 3.07036 10.9057 3.05418 10.696C3.03904 10.5045 3.14321 10.375 3.36033 10.2994C3.43528 10.2734 3.50918 10.2744 3.58449 10.2744C7.86674 10.2744 12.1486 10.2744 16.4309 10.2744C16.4942 10.2744 16.5579 10.2709 16.6206 10.2772C16.8577 10.3019 17.0105 10.4739 17.0034 10.7044C16.9967 10.9219 16.8525 11.0535 16.604 11.0668C16.5474 11.07 16.4904 11.0682 16.4333 11.0682C14.3082 11.0682 12.1828 11.0682 10.0577 11.0682Z" fill="black"/>
<path d="M10.0534 13.3054C12.1972 13.3054 14.3409 13.3054 16.4847 13.3061C16.5663 13.3061 16.6476 13.3173 16.7293 13.3229C16.9041 13.3353 16.9798 13.4454 17.0013 13.6037C17.0252 13.779 16.9861 13.9296 16.82 14.0253C16.6937 14.0981 16.5551 14.0995 16.4154 14.0995C13.0255 14.0992 9.63604 14.0995 6.2462 14.0995C5.36716 14.0995 4.48812 14.0985 3.60908 14.1002C3.49295 14.1002 3.3807 14.0879 3.2797 14.0323C3.1319 13.9507 3.03865 13.8349 3.06223 13.6509C3.08545 13.4707 3.15407 13.3374 3.35853 13.3233C3.44017 13.3177 3.52146 13.3057 3.60274 13.3054C5.75284 13.3043 7.90294 13.3046 10.053 13.3054H10.0534Z" fill="black"/>
<path d="M9.3084 16.2986C11.1872 16.2986 13.066 16.2983 14.9448 16.299C15.3382 16.299 15.4993 16.546 15.3558 16.9127C15.2773 17.1132 15.1042 17.1259 14.9342 17.127C14.3395 17.1308 13.7451 17.1252 13.1504 17.1248C10.0129 17.1238 6.87503 17.1227 3.7375 17.1231C3.57106 17.1231 3.41094 17.1041 3.25963 17.0305C3.11148 16.9588 3.04145 16.8314 3.0506 16.679C3.05904 16.5354 3.13083 16.419 3.28461 16.3658C3.41165 16.3219 3.53763 16.2969 3.67205 16.2969C5.55083 16.2983 7.42962 16.2979 9.3084 16.2979V16.2986Z" fill="black"/>
<path d="M7.09674 19.321C8.27912 19.321 9.46114 19.3221 10.6435 19.3203C10.9588 19.32 11.19 19.454 11.0894 19.8928C11.0588 20.0272 10.9926 20.0818 10.8599 20.093C10.2923 20.1416 9.72366 20.1103 9.1557 20.112C7.30366 20.118 5.45162 20.111 3.59958 20.1085C3.53659 20.1085 3.4736 20.1043 3.41096 20.0976C3.16885 20.0719 3.06152 19.9565 3.06152 19.7246C3.06152 19.511 3.19665 19.3478 3.41835 19.3337C3.68298 19.3168 3.94901 19.3214 4.21434 19.321C5.17538 19.32 6.13606 19.3207 7.09709 19.321H7.09674Z" fill="black"/>
<path d="M6.69816 4.66415C5.69982 4.66415 4.70113 4.66415 3.7028 4.66415C3.62714 4.66415 3.55113 4.66486 3.47547 4.65958C3.22492 4.64269 3.06797 4.49103 3.05706 4.25914C3.04686 4.05048 3.2221 3.86223 3.45682 3.83232C3.50046 3.82669 3.54515 3.83091 3.58949 3.83091C5.63683 3.82985 7.68453 3.82809 9.73187 3.8288C9.87404 3.8288 10.0243 3.81332 10.1394 3.93084C10.2798 4.07406 10.3174 4.25492 10.2368 4.43473C10.1615 4.60293 10.0334 4.66591 9.84518 4.66486C8.79617 4.65817 7.74716 4.66169 6.69816 4.66169C6.69816 4.6624 6.69816 4.66345 6.69816 4.66415Z" fill="black"/>
<path d="M6.70307 5.97364C7.69542 5.97364 8.68777 5.97364 9.68013 5.97434C9.76845 5.97434 9.85713 5.97927 9.94475 5.98771C10.1358 6.00601 10.2639 6.12143 10.2808 6.28575C10.3033 6.50744 10.2108 6.66085 10.0106 6.71891C9.72623 6.8009 9.43309 6.76431 9.14454 6.76466C7.3305 6.76783 5.51682 6.76255 3.70278 6.76079C3.5571 6.76079 3.41775 6.74355 3.27945 6.68549C3.11828 6.61757 3.03664 6.50673 3.0479 6.33748C3.05987 6.15626 3.19746 6.00249 3.38572 5.98771C3.64965 5.9673 3.91568 5.97047 4.18101 5.96977C5.0217 5.96801 5.86238 5.96906 6.70307 5.96906C6.70307 5.97047 6.70307 5.97223 6.70307 5.97364Z" fill="black"/>
<path d="M20.1684 22.1482C20.2092 23.732 18.7699 25.0023 17.2255 24.9003C15.789 24.8053 14.5936 23.6395 14.6256 22.0673C14.6562 20.5686 15.8868 19.279 17.5664 19.3719C18.9712 19.4493 20.1958 20.6274 20.168 22.1482H20.1684ZM17.4113 20.1598C16.3232 20.1503 15.4174 21.0641 15.4149 22.1292C15.4128 23.15 16.2461 24.0716 17.3711 24.0779C18.5655 24.0843 19.3639 23.1982 19.378 22.1338C19.3928 21.0159 18.4525 20.1756 17.4113 20.1598Z" fill="black"/>
</svg>
