<svg xmlns="http://www.w3.org/2000/svg" xmlns:xlink="http://www.w3.org/1999/xlink" width="32" height="32" viewBox="0 0 32 32">
  <defs>
    <linearGradient id="linear-gradient" x1="0.5" x2="0.5" y2="1" gradientUnits="objectBoundingBox">
      <stop offset="0" stop-color="#0096d8"/>
      <stop offset="1" stop-color="#3ed1ff"/>
    </linearGradient>
    <clipPath id="clip-MyVingroup_32x32">
      <rect width="32" height="32"/>
    </clipPath>
  </defs>
  <g id="MyVingroup_32x32" data-name="MyVingroup 32x32" clip-path="url(#clip-MyVingroup_32x32)">
    <g id="Group_20374" data-name="Group 20374" transform="translate(-1949.464 964)">
      <rect id="Rectangle_46" data-name="Rectangle 46" width="30" height="30" rx="12" transform="translate(1980.464 -933) rotate(180)" fill="url(#linear-gradient)"/>
      <g id="Group_20373" data-name="Group 20373" transform="translate(1957.303 -956.153)">
        <g id="Group_19975" data-name="Group 19975">
          <path id="Path_11169" data-name="Path 11169" d="M867.8-1233.434c.125.017.252.03.377.045s.123.015.123.142v3.774l.542-.425q0-1.658,0-3.316v-.1l3.825.42.614-.481q-1.339-.143-2.679-.289c-.841-.092-1.681-.187-2.522-.28-.051-.006-.075-.023-.07-.077,0-.026,0-.053,0-.079q0-2.8,0-5.591v-.121c.047,0,.085-.005.122-.005h4.22q2.769,0,5.538,0,1.806,0,3.611,0l.688-.539q-2.06,0-4.121,0c-.084,0-.11-.022-.109-.108,0-.4-.01-.808.005-1.212a.843.843,0,0,0-.868-.869c-1.259.007-2.518,0-3.778,0a.825.825,0,0,0-.874.869c0,.384,0,.767,0,1.15,0,.166,0,.166-.171.166h-4.4a.353.353,0,0,0-.407.4q0,.88,0,1.761,0,2.19,0,4.379A.347.347,0,0,0,867.8-1233.434Zm5.189-8.236a.293.293,0,0,1,.334-.33h3.778a.289.289,0,0,1,.323.322q0,.61,0,1.221v.094h-4.434c0-.037,0-.066,0-.095Q872.994-1241.064,872.994-1241.67Z" transform="translate(-867.477 1242.543)" fill="#fff" stroke="#fff" stroke-width="0.1"/>
          <path id="Path_11170" data-name="Path 11170" d="M928.5-1066.11q0,2.463,0,4.926c0,.137.011.126-.125.141q-1.349.147-2.7.3c-.767.085-1.534.173-2.3.257-.219.024-.439.037-.668.056,0-.041-.006-.073-.006-.1,0-.168,0-.336,0-.5a.307.307,0,0,0-.275-.31l-.683.535h.326c.074,0,.094.023.094.1q0,.61,0,1.22c0,.081-.027.1-.1.1-.253,0-.507,0-.76,0s-.5,0-.742,0c-.082,0-.112-.017-.111-.106s0-.2,0-.294l-.542.424c0,.058,0,.115,0,.173a.321.321,0,0,0,.329.34c.13,0,.26,0,.389,0,.563,0,1.127,0,1.69,0a.348.348,0,0,0,.387-.385c-.011-.182,0-.366,0-.548,0-.071.02-.1.092-.1.452-.041.9-.082,1.355-.13.612-.065,1.224-.136,1.836-.2l1.634-.182c.011,0,.023,0,.045,0,0,.033.008.064.008.095q0,2.478,0,4.955c0,.083-.026.1-.106.1q-6.26,0-12.52,0c-.086,0-.108-.025-.108-.109q0-.058,0-.116l-.539.422c.015.242.132.342.393.342h12.926c.056,0,.112,0,.168,0a.3.3,0,0,0,.279-.17.583.583,0,0,0,.044-.23q0-2.6,0-5.2c0-.03,0-.059,0-.088,0-.054.021-.071.071-.075.132-.011.264-.025.4-.043a.354.354,0,0,0,.358-.412q0-2.794,0-5.587Z" transform="translate(-913.573 1069.647)" fill="#fff" stroke="#fff" stroke-width="0.1"/>
        </g>
        <rect id="Rectangle_12295" data-name="Rectangle 12295" width="19.483" height="0.455" rx="0.227" transform="translate(0.095 14.216) rotate(-38.076)" fill="#fff" stroke="#fff" stroke-width="0.1"/>
      </g>
    </g>
  </g>
</svg>
