<svg xmlns="http://www.w3.org/2000/svg" xmlns:xlink="http://www.w3.org/1999/xlink" width="42" height="42" viewBox="0 0 42 42">
  <defs>
    <linearGradient id="linear-gradient" x1="0.5" x2="0.5" y2="0.665" gradientUnits="objectBoundingBox">
      <stop offset="0" stop-color="#3c53d7"/>
      <stop offset="1" stop-color="#538ff2"/>
    </linearGradient>
    <clipPath id="clip-Icon_Hỗ_trợ_giải_đáp">
      <rect width="42" height="42"/>
    </clipPath>
  </defs>
  <g id="Icon_Hỗ_trợ_giải_đáp" data-name="Icon Hỗ trợ giải đáp" clip-path="url(#clip-Icon_Hỗ_trợ_giải_đáp)">
    <g id="Group_9239" data-name="Group 9239" transform="translate(-45 -784.35)">
      <g id="Group_9016" data-name="Group 9016" transform="translate(-14150.5 -10189.5)">
        <g id="Group_8879" data-name="Group 8879">
          <rect id="Rectangle_46" data-name="Rectangle 46" width="39.952" height="39.952" rx="15.493" transform="translate(14236.452 11014.802) rotate(180)" fill="url(#linear-gradient)"/>
          <g id="Group_8875" data-name="Group 8875" transform="translate(-11)">
            <g id="Group_8874" data-name="Group 8874" transform="translate(14028 10021)">
              <g id="Group_8506" data-name="Group 8506" transform="translate(189 965)">
                <path id="Path_6158" data-name="Path 6158" d="M2877.223,1571.431c-.851-.684-1.631-1.3-2.4-1.935a1.115,1.115,0,0,0-.785-.286c-1.041.021-2.085.028-3.123-.045a2.32,2.32,0,0,1-2.089-2.313q0-3.275,0-6.55a2.333,2.333,0,0,1,2.252-2.33c2.2-.029,4.41-.035,6.615-.006a2.363,2.363,0,0,1,2.394,2.443q.026,3.161,0,6.322a2.416,2.416,0,0,1-2.629,2.47c-.2-.013-.232.1-.231.26C2877.226,1570.087,2877.223,1570.714,2877.223,1571.431Zm-2.635-6.176c0,.316-.016.587.01.854a.3.3,0,0,0,.217.191q1.352.02,2.7,0c.077,0,.213-.1.218-.156.023-.287.01-.577.01-.929-.588.217-.616-.192-.722-.537-.361-1.181-.737-2.358-1.1-3.539a.372.372,0,0,0-.429-.319c-.695.019-1.39.007-2.085.007-.616,0-.618,0-.615.625,0,.214-.081.483.3.445-.3.974-.592,1.9-.86,2.84-.1.338-.2.614-.63.536-.013,0-.031.025-.071.059,0,.207.013.435,0,.66s.063.329.311.32c.477-.016.955,0,1.433,0h.74v-1.036l-.524-.034c.06-.483.06-.483.5-.484h.749c.462,0,.462,0,.537.5Z" transform="translate(-2859.044 -1551.58)" fill="#fff"/>
                <path id="Path_6159" data-name="Path 6159" d="M2724.548,1475.389v1.651a2.938,2.938,0,0,0,.355-.2c.485-.384.99-.747,1.438-1.17.406-.383.853-.26,1.277-.265l.221,1.475c-.666-.2-1.04.306-1.479.656-1.036.824-2.063,1.657-3.1,2.486a2.176,2.176,0,0,1-.2.125v-2.47c0-.8,0-.8-.784-.812a3.512,3.512,0,0,1-3.331-3.086c-.033-.334-.052-.671-.053-1.007q0-4.384,0-8.769a3.542,3.542,0,0,1,2.733-3.585,3.409,3.409,0,0,1,.8-.1c3.162-.007,6.324,0,9.486,0a3.534,3.534,0,0,1,3.53,3.544c-.022.583,0,1.168,0,1.775h-1.433c0-.554,0-1.1,0-1.654a2.188,2.188,0,0,0-.527-1.5,1.8,1.8,0,0,0-1.357-.676q-4.939-.018-9.877,0a1.974,1.974,0,0,0-1.868,1.909q-.023,4.889,0,9.779a1.983,1.983,0,0,0,1.947,1.9c.608.015,1.217,0,1.825,0Z" transform="translate(-2718.889 -1460.31)" fill="#fff"/>
                <path id="Path_6160" data-name="Path 6160" d="M2768.092,1508.292h.448c.184,1.034-.374,1.771-1.306,1.733a1.288,1.288,0,0,1-1.105-.694.382.382,0,0,0-.427-.231,3.124,3.124,0,0,1-2.335-.586,2.988,2.988,0,0,1-1-2.567,2.9,2.9,0,0,1,.572-1.73,2.825,2.825,0,0,1,2.835-1.061,2.549,2.549,0,0,1,2.364,2.7,3.473,3.473,0,0,1-.606,2.34.535.535,0,0,0,.2.678c.179.1.274,0,.314-.153A2.8,2.8,0,0,0,2768.092,1508.292Zm-1.8-1.791a2.681,2.681,0,0,0-.371-1.784.746.746,0,0,0-1.095-.252,2.121,2.121,0,0,0-.522,2.08A1.62,1.62,0,0,1,2766.289,1506.5Zm-1.013,1.505c.2-.178.435-.287.468-.439a.584.584,0,0,0-.448-.656c-.233-.007-.661.4-.574.607C2764.8,1507.7,2765.042,1507.81,2765.276,1508.006Z" transform="translate(-2759.534 -1500.323)" fill="#fff"/>
                <path id="Path_6161" data-name="Path 6161" d="M2947.666,1623.166c.17.561.315,1.043.469,1.552h-.926Z" transform="translate(-2932.322 -1612.547)" fill="#fff"/>
              </g>
            </g>
          </g>
        </g>
      </g>
    </g>
  </g>
</svg>
