<svg width="15" height="16" viewBox="0 0 15 16" fill="none" xmlns="http://www.w3.org/2000/svg">
<g opacity="0.6">
<path d="M7.25029 0.501891C9.15619 0.501891 11.062 0.494876 12.9679 0.507869C13.32 0.504636 13.671 0.550367 14.0105 0.643776C14.1196 0.668564 14.2209 0.71978 14.3055 0.792982C14.3901 0.866183 14.4552 0.959182 14.4954 1.06358C14.5356 1.16797 14.5495 1.2806 14.5359 1.39163C14.5222 1.50266 14.4816 1.60862 14.4173 1.70017C14.289 1.91801 14.1344 2.11936 13.9573 2.2998C12.4729 3.8489 10.9831 5.39301 9.48801 6.93212C9.37504 7.03749 9.28615 7.16595 9.22717 7.30873C9.1682 7.45151 9.14048 7.60527 9.14617 7.75964C9.15616 10.0583 9.14633 12.357 9.13933 14.6557C9.1422 14.8185 9.11599 14.9806 9.06223 15.1344C9.03854 15.2104 8.99791 15.2799 8.94316 15.3376C8.88841 15.3954 8.8211 15.4398 8.7465 15.4675C8.6719 15.4952 8.59192 15.5054 8.51274 15.4973C8.43357 15.4893 8.35726 15.4633 8.28973 15.4212C8.10584 15.3144 7.93766 15.1826 7.79002 15.0295C7.09742 14.3299 6.42772 13.6073 5.72213 12.9207C5.4995 12.706 5.32513 12.4464 5.21022 12.1592C5.09531 11.872 5.04248 11.5637 5.05552 11.2547C5.05552 9.95544 5.04556 8.65617 5.06455 7.35692C5.07135 7.21527 5.04576 7.07384 4.98964 6.94359C4.93352 6.81334 4.84839 6.69764 4.74076 6.60528C3.46683 5.38133 2.20085 4.14876 0.942916 2.90748C0.651324 2.62973 0.393854 2.31843 0.175538 1.98004C0.0840427 1.86412 0.0255747 1.72549 0.00669103 1.57902C-0.0121926 1.43256 0.00907727 1.2837 0.0681788 1.14837C0.12728 1.01303 0.222164 0.89625 0.342434 0.81055C0.462704 0.724849 0.603914 0.67351 0.751132 0.661832C1.05967 0.599528 1.37382 0.569296 1.68858 0.571796C3.5435 0.563801 5.39952 0.571796 7.25444 0.571796L7.25029 0.501891ZM1.06492 1.51925L1.00587 1.63319C1.19676 1.84207 1.37787 2.06092 1.57975 2.25881C2.95296 3.59803 4.33603 4.92528 5.69724 6.2765C5.86314 6.45527 5.96121 6.68662 5.97418 6.93017C6.00116 8.0905 6.04214 9.25473 5.97418 10.4111C5.90901 10.8659 5.96511 11.3299 6.13692 11.756C6.30874 12.1821 6.59019 12.5553 6.95261 12.8378C7.40135 13.1916 7.80001 13.6083 8.21677 13.9941V13.6663C8.21677 11.5675 8.22167 9.4767 8.21067 7.38291C8.20418 7.2399 8.22829 7.09711 8.28119 6.96409C8.33409 6.83106 8.4147 6.71076 8.51762 6.61126C10.0641 5.01819 11.6045 3.41919 13.139 1.81412C13.2219 1.72817 13.2969 1.63518 13.3979 1.51925H1.06492Z" fill="#C2C2C2"/>
<path d="M5.58594 6.12549L1.57227 2.18478L2.27186 1.47119L6.28653 5.40991L5.58594 6.12549Z" fill="#C2C2C2"/>
</g>
</svg>
