<svg width="17" height="14" viewBox="0 0 17 14" fill="none" xmlns="http://www.w3.org/2000/svg">
<path d="M11.1786 7.18554C9.09801 6.9656 7.01898 6.72086 4.93514 6.53784C4.57635 6.55469 4.22084 6.46267 3.91529 6.27386C3.60973 6.08506 3.36839 5.80819 3.22294 5.47977C2.60726 4.18259 1.83988 2.95772 1.14473 1.69746C1.01549 1.46387 0.924773 1.20855 0.816406 0.963726L0.969732 0.803223L16.9148 7.16241L16.9196 7.44168L0.970528 13.8032L0.820424 13.6596C0.909674 13.4084 1.01284 13.1624 1.12946 12.9227C1.85191 11.6159 2.6169 10.3331 3.2968 9.00536C3.41406 8.73454 3.60736 8.50356 3.85328 8.34042C4.09921 8.17728 4.38718 8.08897 4.68228 8.08624C6.71716 7.90483 8.74802 7.67133 10.7829 7.4554C10.9226 7.44095 11.059 7.40314 11.1971 7.37505L11.1786 7.18554Z" fill="white"/>
</svg>
