<svg width="26" height="26" viewBox="0 0 26 26" fill="none" xmlns="http://www.w3.org/2000/svg">
<circle cx="13" cy="13" r="13" fill="white"/>
<circle cx="13" cy="13" r="11.5" fill="#707070"/>
<path fill-rule="evenodd" clip-rule="evenodd" d="M8.21159 16.4473C7.89429 16.7646 7.89429 17.2791 8.21159 17.5964C8.52889 17.9137 9.04333 17.9137 9.36064 17.5964L12.999 13.958L16.6384 17.5973C16.9557 17.9146 17.4701 17.9146 17.7874 17.5973C18.1047 17.28 18.1047 16.7656 17.7874 16.4483L14.1481 12.8089L17.404 9.55302C17.7213 9.23572 17.7213 8.72128 17.404 8.40397C17.0867 8.08667 16.5722 8.08667 16.2549 8.40397L12.999 11.6599L9.74409 8.40496C9.42679 8.08766 8.91234 8.08766 8.59504 8.40496C8.27774 8.72226 8.27774 9.2367 8.59504 9.554L11.85 12.8089L8.21159 16.4473Z" fill="white"/>
</svg>
