<svg xmlns="http://www.w3.org/2000/svg" width="22.114" height="15" viewBox="0 0 22.114 15">
    <g data-name="Group 20779">
        <g data-name="Group 20774">
            <path data-name="Path 14484" d="M1274.753 1984.183c.158.009.269.02.38.02h17.322c.788 0 1.253.5 1.093 1.168a.956.956 0 0 1-1.015.721c-.892.005-1.784 0-2.677 0h-14.834c-.081 0-.162.01-.326.021l.921.928 3.913 3.918a.934.934 0 0 1 .158 1.157.9.9 0 0 1-1.061.411 1.346 1.346 0 0 1-.516-.335q-2.691-2.676-5.368-5.365c-.326-.327-.658-.648-.976-.983a.883.883 0 0 1-.031-1.3c.95-.993 1.921-1.966 2.89-2.941 1.2-1.206 2.4-2.4 3.6-3.608a1.006 1.006 0 0 1 1.422-.215.925.925 0 0 1 .041 1.415c-.654.665-1.322 1.317-1.982 1.977q-1.4 1.4-2.8 2.811c-.043.047-.08.106-.154.2z" style="fill:#585858" transform="translate(-1271.464 -1977.569)"/>
        </g>
    </g>
</svg>
