<svg width="17" height="14" viewBox="0 0 17 14" fill="none" xmlns="http://www.w3.org/2000/svg">
<path d="M0.00151913 8.92491C-0.0126332 8.59989 0.0723565 8.27823 0.24566 8.00291C0.418963 7.72759 0.672071 7.51168 0.971246 7.38389C1.23329 7.2683 1.5253 7.23749 1.80572 7.29576C2.08614 7.35403 2.3414 7.49842 2.5357 7.70884C3.1457 8.27484 3.73572 8.86888 4.30572 9.47288C4.55472 9.73488 4.72046 9.71288 4.96246 9.47288C7.93712 6.48688 10.9158 3.50546 13.8985 0.528789C14.0322 0.372714 14.1964 0.2456 14.3809 0.15501C14.5654 0.0644195 14.7665 0.0123191 14.9717 0.00193362C15.177 -0.00845184 15.3821 0.0230781 15.5748 0.094585C15.7675 0.166092 15.9435 0.276047 16.0923 0.417827C16.2396 0.562287 16.355 0.735978 16.4312 0.927715C16.5074 1.11945 16.5427 1.32507 16.5347 1.53123C16.5267 1.73739 16.4756 1.93948 16.3848 2.12474C16.294 2.30999 16.1654 2.47419 16.0074 2.60679C12.9794 5.64279 9.94595 8.6735 6.90728 11.6988C6.50728 12.0988 6.10737 12.5039 5.69537 12.8989C5.56127 13.0392 5.40098 13.1514 5.2232 13.2291C5.04542 13.3069 4.85373 13.3485 4.65972 13.3518C4.46571 13.355 4.27312 13.3198 4.09283 13.248C3.91254 13.1763 3.74816 13.0695 3.60943 12.9338C2.54243 11.9098 1.49029 10.8669 0.469293 9.79686C0.269358 9.532 0.111726 9.23792 0.00151913 8.92491Z" fill="white"/>
</svg>
