<svg width="16" height="16" viewBox="0 0 16 16" fill="none" xmlns="http://www.w3.org/2000/svg">
<g opacity="0.6">
<path d="M10.6518 10.2222L14.5097 13.8963C14.6097 13.9912 14.7157 14.0793 14.8097 14.1812C14.8833 14.2526 14.9418 14.3381 14.9817 14.4325C15.0217 14.527 15.0425 14.6285 15.0425 14.731C15.0425 14.8336 15.0217 14.9352 14.9817 15.0297C14.9418 15.1241 14.8833 15.2095 14.8097 15.2809C14.7376 15.355 14.651 15.4134 14.5553 15.4524C14.4597 15.4914 14.3569 15.5102 14.2537 15.5076C14.1504 15.5049 14.0487 15.481 13.9551 15.4372C13.8616 15.3933 13.778 15.3307 13.7098 15.253C13.188 14.7331 12.6893 14.1902 12.1804 13.6533L9.7489 11.1019C9.01992 11.6811 8.16612 12.0826 7.25512 12.2747C6.34412 12.4668 5.40094 12.4442 4.50018 12.2087C3.12119 11.8639 1.91686 11.0246 1.116 9.85026C0.297175 8.67 -0.0669606 7.23341 0.0906181 5.8056C0.248197 4.37778 0.916958 3.05519 1.97346 2.0819C3.02996 1.10861 4.4028 0.550326 5.83872 0.510143C7.27464 0.46996 8.67672 0.950522 9.786 1.86321C10.9909 2.86906 11.7556 4.3055 11.9173 5.86674C12.079 7.42798 11.625 8.99078 10.6518 10.2222ZM6.02984 1.74824C5.09628 1.74152 4.1818 2.012 3.40206 2.5254C2.62232 3.03879 2.01231 3.77208 1.64956 4.6323C1.28682 5.49253 1.18754 6.441 1.36423 7.35771C1.54092 8.27442 1.98575 9.11802 2.64224 9.7818C3.29872 10.4456 4.13735 10.8996 5.05205 11.0864C5.96675 11.2732 6.91621 11.1844 7.78039 10.8312C8.64456 10.478 9.3846 9.87618 9.90657 9.10215C10.4285 8.32813 10.7092 7.41662 10.7128 6.48305C10.7162 5.23504 10.2253 4.03651 9.34763 3.14927C8.46994 2.26203 7.27683 1.75828 6.02886 1.74824H6.02984Z" fill="#C2C2C2"/>
</g>
</svg>
