<svg width="13" height="14" viewBox="0 0 13 14" fill="none" xmlns="http://www.w3.org/2000/svg">
<path d="M4.69847 0.229247C3.03031 0.417138 1.60336 1.32612 0.750233 2.74038C0.399842 3.32183 0.184022 3.91597 0.0570687 4.63198C-0.00894691 5.01538 -0.00132972 5.90151 0.069764 6.29507C0.374452 7.96323 1.35961 9.30894 2.82973 10.0707C3.61683 10.4769 4.33031 10.6496 5.22914 10.647C6.32347 10.647 7.2223 10.3753 8.13636 9.77104L8.43851 9.57046L10.2057 11.33C11.3965 12.5183 12.0034 13.1074 12.0719 13.1404C12.209 13.2039 12.4959 13.2039 12.6178 13.1404C12.9225 12.9804 13.0621 12.6503 12.9606 12.3355C12.9174 12.206 12.8235 12.1044 11.1401 10.4185L9.36527 8.63862L9.56078 8.34917C10.5028 6.95776 10.711 5.21597 10.1245 3.60366C9.93402 3.07554 9.5684 2.46108 9.1723 2.00151C8.51215 1.23979 7.57777 0.648192 6.62054 0.391747C6.03656 0.234325 5.24437 0.165771 4.69847 0.229247ZM5.60492 1.52417C6.56976 1.62827 7.32386 1.98628 7.99926 2.66167C8.68734 3.34976 9.05297 4.13179 9.14437 5.10679C9.22562 5.97768 8.99203 6.86636 8.4766 7.64077C8.26332 7.96323 7.76058 8.46597 7.43812 8.67925C6.13812 9.54507 4.53597 9.59077 3.21312 8.79858C2.25844 8.22983 1.58558 7.27007 1.36469 6.1605C1.28344 5.75425 1.28344 5.10933 1.36469 4.70308C1.5932 3.55796 2.29652 2.58296 3.31215 2.00659C3.99008 1.62065 4.84574 1.44038 5.60492 1.52417Z" fill="white"/>
</svg>
