<svg width="21" height="19" viewBox="0 0 21 19" fill="none" xmlns="http://www.w3.org/2000/svg">
<path d="M9.96191 0.84549C10.1116 0.384838 10.7633 0.384835 10.913 0.845492L12.5438 5.86475C12.7446 6.48278 13.3206 6.90122 13.9704 6.90122H19.248C19.7323 6.90122 19.9337 7.52103 19.5419 7.80573L15.2722 10.9078C14.7465 11.2898 14.5265 11.9668 14.7273 12.5848L16.3582 17.6041C16.5078 18.0648 15.9806 18.4478 15.5888 18.1631L11.3191 15.0611C10.7934 14.6791 10.0815 14.6791 9.55576 15.0611L5.28613 18.1631C4.89427 18.4478 4.36703 18.0648 4.51671 17.6041L6.14756 12.5848C6.34838 11.9668 6.12839 11.2898 5.60266 10.9078L1.33302 7.80573C0.941169 7.52103 1.14255 6.90122 1.62692 6.90122H6.90447C7.55431 6.90122 8.13025 6.48278 8.33106 5.86475L9.96191 0.84549Z" stroke="#FF7F00"/>
</svg>
