<svg width="11" height="12" viewBox="0 0 11 12" fill="none" xmlns="http://www.w3.org/2000/svg">
<path d="M5.35391 0.115602C5.26668 0.181681 5.10809 0.305911 4.99972 0.395778C4.65875 0.678598 4.38386 0.771109 4.04818 0.715602C3.3451 0.604589 3.27109 0.596659 3.18915 0.636307C3.07814 0.68917 3.0147 0.797541 2.88783 1.15173C2.65258 1.80195 2.50457 1.94996 1.86228 2.18256C1.54774 2.29622 1.41822 2.3623 1.368 2.43631C1.30985 2.51825 1.31514 2.74027 1.38122 3.11296C1.4843 3.68917 1.41294 3.93499 1.00589 4.4134C0.59091 4.90239 0.59091 4.94996 1.01117 5.4601C1.4288 5.96494 1.48695 6.16582 1.38122 6.74468C1.3495 6.91384 1.32571 7.13058 1.32571 7.22309C1.32571 7.37375 1.33364 7.39754 1.40236 7.46362C1.44994 7.50855 1.62703 7.59314 1.87285 7.68829C2.531 7.94203 2.65787 8.06891 2.8799 8.70062C3.08606 9.27948 3.13629 9.30855 3.76007 9.1949C3.96888 9.15789 4.13012 9.14468 4.28607 9.14996C4.57417 9.16582 4.72483 9.23983 5.10545 9.55437C5.39355 9.79225 5.53893 9.88477 5.63408 9.88477C5.72659 9.88477 5.84289 9.81076 6.16272 9.55437C6.32924 9.41957 6.53276 9.27684 6.61206 9.23455C6.81558 9.13146 7.10104 9.12089 7.51074 9.1949C8.13188 9.30855 8.17417 9.28477 8.38298 8.70855C8.61822 8.05833 8.73452 7.94203 9.39532 7.68829C9.64113 7.59314 9.81822 7.50855 9.8658 7.46362C9.93452 7.39754 9.94245 7.37375 9.94245 7.22309C9.94245 7.13058 9.91866 6.91384 9.88695 6.74468C9.78122 6.16582 9.83937 5.96494 10.257 5.4601C10.6773 4.94996 10.6773 4.90239 10.2623 4.4134C9.85523 3.93499 9.78386 3.68917 9.88695 3.11296C9.95303 2.74027 9.95831 2.51825 9.90016 2.43631C9.84994 2.3623 9.7125 2.29093 9.39796 2.17728C8.77153 1.94996 8.61029 1.79402 8.3962 1.18873C8.17946 0.5808 8.15038 0.562298 7.57681 0.662739C7.38651 0.694457 7.13805 0.723532 7.02175 0.723532C6.83673 0.723532 6.78386 0.712959 6.63849 0.641593C6.54333 0.596659 6.37681 0.485646 6.26844 0.395778C5.83496 0.0389502 5.77153 -0.000697396 5.63408 -0.000697396C5.52571 -0.000697396 5.48607 0.0151616 5.35391 0.115602ZM6.37417 1.50327C7.06668 1.66186 7.66668 2.00283 8.15567 2.51032C8.63673 3.01252 8.92483 3.55701 9.07549 4.25481C9.15479 4.61428 9.15479 5.246 9.07285 5.62133C8.74774 7.1623 7.44201 8.32001 5.9169 8.42573C4.8517 8.49974 3.89488 8.14556 3.1495 7.40018C2.67109 6.91913 2.33805 6.30062 2.19532 5.62133C2.11866 5.26979 2.11338 4.64336 2.17946 4.30239C2.3169 3.61252 2.62615 3.0178 3.1125 2.51032C3.67814 1.92089 4.368 1.57199 5.22439 1.44247C5.41999 1.4134 6.15479 1.4504 6.37417 1.50327Z" fill="#2ED87C"/>
<path d="M5.2616 1.98302C4.06953 2.13633 3.08362 2.99271 2.76116 4.15307C2.67657 4.45967 2.64486 5.08611 2.69772 5.41386C2.84574 6.33897 3.45895 7.17157 4.31005 7.59976C4.83076 7.86408 5.51534 7.96452 6.12063 7.86408C6.72327 7.76628 7.24133 7.50461 7.69331 7.06848C8.16116 6.61915 8.46512 6.03765 8.56556 5.41386C8.61842 5.08611 8.58671 4.45967 8.50212 4.15307C8.20609 3.08787 7.37878 2.29492 6.29243 2.03589C6.03605 1.97509 5.52063 1.94866 5.2616 1.98302ZM5.96997 3.52928C6.10477 3.82003 6.22635 4.06848 6.23957 4.07906C6.25014 4.09227 6.51182 4.14249 6.82371 4.19007C7.38935 4.27729 7.45543 4.29844 7.45543 4.40152C7.45543 4.41738 7.26776 4.62619 7.03516 4.86672L6.6149 5.30285L6.74442 5.85527C6.81578 6.16188 6.87393 6.43941 6.87393 6.47641C6.87393 6.55307 6.83164 6.60857 6.77349 6.60857C6.75234 6.60857 6.48803 6.48434 6.18406 6.33104L5.63164 6.05351L5.07922 6.33104C4.77525 6.48434 4.51094 6.60857 4.48979 6.60857C4.43164 6.60857 4.38935 6.55307 4.38935 6.47641C4.38935 6.43941 4.4475 6.16188 4.51886 5.85527L4.64838 5.30285L4.22812 4.86672C3.99816 4.62884 3.80785 4.42003 3.80785 4.40152C3.80785 4.29844 3.87393 4.27729 4.44486 4.18743C4.75675 4.13985 5.01314 4.1002 5.01842 4.1002C5.02371 4.09756 5.08715 3.97333 5.15851 3.82003C5.22988 3.66672 5.34618 3.41562 5.42019 3.26232C5.5497 2.98743 5.55234 2.98478 5.63693 2.99271C5.72151 3.00064 5.72679 3.01122 5.96997 3.52928Z" fill="#2ED87C"/>
<path d="M1.75485 10.2238C1.47731 11.1066 1.25 11.8441 1.25 11.8599C1.25 11.8784 1.27379 11.9181 1.30286 11.9471C1.35308 11.9974 1.39009 12 2.67203 12C3.69758 12 3.9989 11.9921 4.0359 11.9656C4.06498 11.9445 4.19449 11.5718 4.39802 10.9295L4.7152 9.92511L4.62004 9.84053C4.40859 9.65815 4.32137 9.64493 3.82974 9.72952C3.39361 9.80352 3.11344 9.79295 2.92313 9.68987C2.84648 9.64758 2.76189 9.58943 2.73282 9.55771C2.62974 9.4467 2.49493 9.19031 2.39978 8.91806C2.34427 8.7674 2.29141 8.63524 2.28084 8.62996C2.27026 8.62467 2.03502 9.34097 1.75485 10.2238Z" fill="#2ED87C"/>
<path d="M8.9679 8.66167C8.95469 8.68811 8.90447 8.82026 8.85689 8.95507C8.77231 9.19824 8.63751 9.45198 8.53707 9.55771C8.50799 9.58943 8.42341 9.64758 8.34676 9.68987C8.15645 9.79295 7.87627 9.80352 7.44015 9.72952C6.94852 9.64493 6.8613 9.65815 6.64984 9.84053L6.55469 9.92511L6.87187 10.9295C7.07539 11.5718 7.20491 11.9445 7.23398 11.9656C7.27099 11.9921 7.57231 12 8.59786 12C9.8798 12 9.9168 11.9974 9.96702 11.9471C9.9961 11.9181 10.0199 11.8784 10.0199 11.8599C10.0199 11.8229 9.01812 8.63789 9.00226 8.62203C8.99698 8.61674 8.98112 8.63524 8.9679 8.66167Z" fill="#2ED87C"/>
</svg>
