<svg xmlns="http://www.w3.org/2000/svg" width="13.638" height="15.5" viewBox="0 0 13.638 15.5">
  <g id="Group_20335" data-name="Group 20335" transform="translate(-10.076 -7)">
    <path id="Path_14784" data-name="Path 14784" d="M7811.511,6550.332a5.8,5.8,0,0,0,2.864,2.53,8.361,8.361,0,0,0,3.529.7c.272,0,.357.084.373.351a15.532,15.532,0,0,1-1.126,7.3,7.55,7.55,0,0,1-5.453,4.6,1.516,1.516,0,0,1-.694-.063,7.583,7.583,0,0,1-5.146-4.5,15.484,15.484,0,0,1-1.132-7.435c.015-.231.136-.25.319-.249a8.4,8.4,0,0,0,3.661-.758,5.764,5.764,0,0,0,2.706-2.367A.893.893,0,0,1,7811.511,6550.332Zm-2.671,7.4a7.516,7.516,0,0,1-.55.669c-.167.161-.155.251,0,.408.929.916,1.846,1.843,2.769,2.765.064.064.137.121.217.19.085-.1.153-.184.217-.266q1.761-2.265,3.523-4.53c.479-.613.476-.6-.139-1.084-.208-.164-.317-.142-.474.063-.914,1.194-1.84,2.379-2.763,3.565-.149.192-.3.382-.5.623Z" transform="translate(-7794.601 -6543.332)" fill="#347ef9"/>
  </g>
</svg>
