<svg width="14" height="11" viewBox="0 0 14 11" fill="none" xmlns="http://www.w3.org/2000/svg">
<path d="M2.35791 5.47082C2.35791 4.55823 2.35791 3.64477 2.35791 2.73218C2.35791 2.39157 2.5351 2.17192 2.78733 2.1799C3.05123 2.18481 3.20657 2.38362 3.20657 2.74387C3.20657 4.59115 3.20398 6.4386 3.19907 8.28588C3.19907 8.62281 3.04152 8.82104 2.79542 8.82288C2.52416 8.82288 2.35586 8.63005 2.35402 8.27839C2.34849 7.3437 2.35402 6.40912 2.35402 5.47382L2.35791 5.47082Z" fill="#F2B153"/>
<path d="M11.5506 5.53671C11.5506 6.43683 11.5506 7.3387 11.5506 8.24209C11.5506 8.61462 11.3881 8.82976 11.1212 8.82854C10.8634 8.82854 10.7103 8.62426 10.7097 8.26217C10.7052 6.42634 10.7031 4.59045 10.7031 2.75462C10.7031 2.39437 10.8558 2.1944 11.1179 2.18765C11.3891 2.1809 11.5569 2.39687 11.5575 2.76571C11.5575 3.68914 11.5575 4.61287 11.5575 5.53671H11.5506Z" fill="#F2B153"/>
<path d="M7.38009 5.4694C7.38009 4.53348 7.38009 3.59685 7.38009 2.66094C7.38009 2.36022 7.55567 2.15353 7.79993 2.18237C7.85797 2.1841 7.91496 2.19794 7.96714 2.22342C8.01931 2.24891 8.06524 2.28539 8.10229 2.33011C8.13933 2.37482 8.16666 2.42693 8.182 2.48293C8.19734 2.53894 8.20038 2.59759 8.19129 2.65494C8.18638 4.52616 8.19517 6.39857 8.19578 8.26917C8.19578 8.64231 8.04784 8.82525 7.77535 8.81666C7.50286 8.80807 7.37561 8.62079 7.375 8.2452C7.375 7.31972 7.375 6.39447 7.375 5.4694H7.38009Z" fill="#F2B153"/>
<path d="M9.03573 4.66428C9.03573 4.01558 9.03573 3.36755 9.03573 2.71885C9.03573 2.38867 9.19656 2.18733 9.44328 2.18365C9.70656 2.17997 9.873 2.35792 9.873 2.69608C9.87729 4.0039 9.87668 5.31178 9.86011 6.619C9.85545 6.78842 9.78682 6.9497 9.66803 7.07059C9.60511 7.10868 9.53326 7.13015 9.45976 7.13262C9.38626 7.13509 9.31352 7.11875 9.2482 7.08498C9.12265 6.97078 9.04671 6.8118 9.03693 6.64237C9.01422 5.98324 9.02704 5.32342 9.02704 4.66368L9.03573 4.66428Z" fill="#F2B153"/>
<path d="M4.86862 4.66712C4.86862 5.32624 4.88579 5.98611 4.85633 6.64401C4.84831 6.73617 4.82058 6.82522 4.77482 6.90561C4.72906 6.98601 4.66657 7.05573 4.59143 7.10969C4.31526 7.26127 4.05744 7.07211 4.04394 6.71922C4.02001 6.09385 4.0266 5.46751 4.02476 4.84152C4.02476 4.17196 4.02476 3.50153 4.02476 2.83196C4.02218 2.76609 4.02343 2.70025 4.02806 2.63449C4.0569 2.37611 4.17272 2.18447 4.45748 2.19368C4.51605 2.1933 4.57419 2.20549 4.62769 2.22934C4.68119 2.25319 4.72876 2.28831 4.76763 2.33212C4.80651 2.37594 4.83573 2.4275 4.85304 2.48345C4.87035 2.53941 4.87537 2.59855 4.86802 2.65666C4.87723 3.22803 4.86802 3.79938 4.86802 4.37075V4.66712H4.86862Z" fill="#F2B153"/>
<path d="M6.52968 4.66469C6.52968 5.32423 6.52968 5.98385 6.52968 6.64338C6.52968 6.96988 6.39714 7.14277 6.14491 7.14952C5.86505 7.15688 5.72152 7.00366 5.71968 6.65507C5.71232 5.32577 5.70955 3.99605 5.71159 2.66593C5.71159 2.34679 5.86942 2.17921 6.12902 2.18167C6.36715 2.18167 6.52547 2.37979 6.52608 2.68481C6.52608 3.34455 6.52608 4.00374 6.52608 4.66409L6.52968 4.66469Z" fill="#F2B153"/>
<path d="M0.705765 9.20383C0.705765 8.95098 0.700856 8.69761 0.705765 8.44538C0.700577 8.38763 0.707622 8.32941 0.726442 8.27457C0.745262 8.21973 0.775589 8.16953 0.815143 8.12713C0.854697 8.08474 0.902579 8.05111 0.955986 8.02854C1.00939 8.00598 1.06703 7.995 1.125 7.99618C1.18055 7.99505 1.23552 8.00587 1.28652 8.02794C1.33751 8.05002 1.38326 8.08256 1.42047 8.12384C1.45767 8.16511 1.48561 8.21407 1.50228 8.26708C1.51895 8.32009 1.52414 8.37615 1.51726 8.43129C1.50744 8.75043 1.5226 9.06991 1.51216 9.38842C1.50541 9.58972 1.59004 9.66298 1.78336 9.66052C2.11293 9.65622 2.44329 9.66036 2.77286 9.66711C2.8284 9.6612 2.88456 9.66779 2.93737 9.68599C2.99018 9.70419 3.03841 9.73372 3.07851 9.7726C3.11862 9.81148 3.14948 9.85852 3.16931 9.91074C3.18915 9.96296 3.19747 10.019 3.19329 10.0747C3.19649 10.1306 3.18769 10.1866 3.16752 10.2389C3.14734 10.2912 3.11609 10.3389 3.07612 10.3782C3.03615 10.4175 2.98821 10.4479 2.93557 10.4672C2.88294 10.4866 2.82698 10.4944 2.77106 10.4903C2.23222 10.5013 1.69261 10.5026 1.15376 10.4903C1.09253 10.4956 1.03097 10.4872 0.973366 10.4657C0.915758 10.4443 0.863709 10.4103 0.820837 10.3662C0.777964 10.3222 0.745416 10.2692 0.725543 10.211C0.70567 10.1528 0.698807 10.0911 0.705765 10.03C0.705765 9.75384 0.706379 9.47878 0.705765 9.20383Z" fill="#F2B153"/>
<path d="M12.3936 9.65249C12.3936 9.2278 12.4041 8.84426 12.39 8.46192C12.3811 8.40436 12.3847 8.34536 12.4005 8.28931C12.4164 8.23327 12.444 8.18145 12.4817 8.13708C12.5194 8.09271 12.5665 8.05685 12.6193 8.0322C12.672 8.00755 12.7294 7.9946 12.7877 7.99414C12.8454 7.99447 12.9024 8.00675 12.9552 8.0301C13.008 8.05346 13.0554 8.08739 13.0945 8.12989C13.1336 8.17238 13.1634 8.22246 13.1823 8.27702C13.2012 8.33159 13.2087 8.38936 13.2042 8.44693C13.2091 8.9643 13.211 9.48184 13.2042 9.9992C13.1993 10.3331 13.0569 10.4827 12.7176 10.4901C12.2004 10.5027 11.6832 10.5027 11.1656 10.4901C11.107 10.4955 11.0479 10.4885 10.9924 10.4691C10.9369 10.4497 10.8864 10.4185 10.844 10.3777C10.8017 10.3369 10.7685 10.2874 10.747 10.2326C10.7254 10.1779 10.7161 10.1193 10.7194 10.0606C10.7194 9.78078 10.9194 9.65678 11.1833 9.65249C11.5656 9.64758 11.9493 9.65249 12.3936 9.65249Z" fill="#F2B153"/>
<path d="M1.52235 1.35161C1.52235 1.73764 1.52664 2.09746 1.52235 2.45648C1.51683 2.83453 1.37773 3.00886 1.10402 3.00457C0.854848 2.99966 0.703764 2.80792 0.699468 2.46547C0.693331 1.97143 0.694558 1.47677 0.699468 0.982725C0.693516 0.921476 0.700732 0.85992 0.720744 0.801727C0.740756 0.743534 0.773074 0.690235 0.815438 0.645601C0.857802 0.600968 0.909399 0.565835 0.96647 0.542816C1.02354 0.519797 1.08479 0.5095 1.14627 0.51225C1.67284 0.493839 2.20132 0.498135 2.7285 0.51225C2.98381 0.518387 3.18024 0.634888 3.18699 0.925788C3.19374 1.21669 2.99729 1.3394 2.74199 1.34922C2.34675 1.36333 1.95195 1.35161 1.52235 1.35161Z" fill="#F2B153"/>
<path d="M12.384 1.34213C11.9587 1.34213 11.5652 1.36419 11.1761 1.33104C11.0937 1.32161 11.0141 1.29552 10.9423 1.25403C10.8705 1.21254 10.8079 1.15649 10.7586 1.08981C10.7262 1.03128 10.7099 0.965539 10.711 0.898628C10.7121 0.831716 10.7306 0.766105 10.7649 0.70864C10.7992 0.651174 10.848 0.603802 10.9064 0.571093C10.9648 0.538385 11.0306 0.521484 11.0976 0.522248C11.6677 0.495245 12.2403 0.496573 12.8104 0.518053C12.8664 0.519469 12.9213 0.532169 12.972 0.555811C13.0227 0.579452 13.068 0.613371 13.105 0.655299C13.142 0.697228 13.1702 0.746506 13.1874 0.799738C13.2046 0.85297 13.2106 0.909184 13.2051 0.964854C13.2094 1.48099 13.2051 1.9977 13.2051 2.51322C13.2051 2.79615 13.075 2.99623 12.7841 2.99868C12.4815 2.99868 12.3795 2.78861 12.3825 2.50753C12.3874 2.13807 12.384 1.76744 12.384 1.34213Z" fill="#F2B153"/>
<path d="M4.05653 8.41777C4.05107 8.36257 4.05776 8.30672 4.07631 8.25445C4.09487 8.20218 4.12477 8.1548 4.16381 8.1154C4.20285 8.07601 4.25016 8.04573 4.30226 8.0267C4.35436 8.00768 4.41004 8.00046 4.46528 8.00543C4.57124 8.00784 4.67206 8.0512 4.74666 8.12649C4.82126 8.20179 4.8639 8.30309 4.86533 8.40908C4.86676 8.51506 4.82699 8.61737 4.75445 8.69466C4.68191 8.77194 4.58223 8.81824 4.47636 8.82351C4.4215 8.82714 4.36647 8.81905 4.31484 8.80014C4.26322 8.78123 4.21594 8.75175 4.1764 8.71354C4.13686 8.67533 4.10597 8.62934 4.0853 8.57839C4.06463 8.52744 4.05479 8.47272 4.05653 8.41777Z" fill="#F2B153"/>
<path d="M6.10504 8.822C6.0021 8.81382 5.90601 8.76691 5.83595 8.69104C5.76588 8.61518 5.72685 8.51593 5.72687 8.41266C5.72461 8.35479 5.73497 8.29684 5.75713 8.24334C5.7793 8.18984 5.8129 8.14182 5.85542 8.1025C5.89794 8.06319 5.94839 8.03381 6.00346 8.0159C6.05853 7.99799 6.11676 7.99203 6.17427 7.99882C6.2267 8.00082 6.27826 8.01364 6.3256 8.03628C6.37294 8.05891 6.41517 8.09082 6.44966 8.13037C6.48415 8.16992 6.51009 8.21614 6.52607 8.26612C6.54206 8.3161 6.5477 8.36883 6.54256 8.42105C6.52905 8.69108 6.36096 8.80175 6.10504 8.822Z" fill="#F2B153"/>
<path d="M9.05797 8.3768C9.06067 8.27671 9.10192 8.18176 9.17335 8.11159C9.24477 8.04143 9.34082 8.00164 9.44095 8.00072C9.49864 7.99734 9.55644 8.00591 9.61056 8.02619C9.66468 8.04647 9.71373 8.07803 9.755 8.11849C9.79627 8.15895 9.82865 8.20742 9.84999 8.26113C9.87133 8.31484 9.8813 8.37239 9.87906 8.43014C9.88032 8.48279 9.87054 8.53512 9.85059 8.58387C9.83064 8.63261 9.8009 8.67696 9.76309 8.71362C9.72527 8.75028 9.68027 8.7785 9.63093 8.79693C9.5816 8.81536 9.5289 8.8235 9.47631 8.8206C9.41808 8.82472 9.35988 8.81575 9.3055 8.79453C9.25112 8.77332 9.20201 8.7405 9.16196 8.69804C9.12191 8.65558 9.09186 8.60463 9.07386 8.54911C9.05585 8.49358 9.05046 8.43468 9.05797 8.3768Z" fill="#F2B153"/>
</svg>
