<svg width="16" height="16" viewBox="0 0 16 16" fill="none" xmlns="http://www.w3.org/2000/svg">
<g opacity="0.6">
<path d="M11.1518 10.2144L15.0097 13.8885C15.1097 13.9834 15.2157 14.0714 15.3097 14.1734C15.3833 14.2448 15.4418 14.3302 15.4817 14.4247C15.5217 14.5192 15.5425 14.6206 15.5425 14.7232C15.5425 14.8258 15.5217 14.9274 15.4817 15.0218C15.4418 15.1163 15.3833 15.2017 15.3097 15.2731C15.2376 15.3472 15.151 15.4056 15.0553 15.4446C14.9597 15.4836 14.8569 15.5024 14.7537 15.4998C14.6504 15.4971 14.5487 15.4732 14.4551 15.4293C14.3616 15.3855 14.278 15.3228 14.2098 15.2452C13.688 14.7253 13.1893 14.1823 12.6804 13.6455L10.2489 11.0941C9.51992 11.6732 8.66612 12.0748 7.75512 12.2669C6.84412 12.459 5.90094 12.4364 5.00018 12.2009C3.62119 11.8561 2.41686 11.0168 1.616 9.84245C0.797175 8.66219 0.433039 7.2256 0.590618 5.79779C0.748197 4.36997 1.41696 3.04738 2.47346 2.07409C3.52996 1.1008 4.9028 0.542514 6.33872 0.502331C7.77464 0.462148 9.17672 0.942709 10.286 1.85539C11.4909 2.86125 12.2556 4.29769 12.4173 5.85893C12.579 7.42017 12.125 8.98297 11.1518 10.2144ZM6.52984 1.74043C5.59628 1.73371 4.6818 2.00419 3.90206 2.51758C3.12232 3.03098 2.51231 3.76427 2.14956 4.62449C1.78682 5.48471 1.68754 6.43319 1.86423 7.3499C2.04092 8.2666 2.48575 9.11021 3.14224 9.77399C3.79872 10.4378 4.63735 10.8918 5.55205 11.0786C6.46675 11.2654 7.41621 11.1766 8.28039 10.8234C9.14456 10.4702 9.8846 9.86837 10.4066 9.09434C10.9285 8.32032 11.2092 7.4088 11.2128 6.47523C11.2162 5.22723 10.7253 4.0287 9.84763 3.14145C8.96994 2.25421 7.77683 1.75047 6.52886 1.74043H6.52984Z" fill="#C2C2C2"/>
</g>
</svg>
