<svg xmlns="http://www.w3.org/2000/svg" xmlns:xlink="http://www.w3.org/1999/xlink" width="42" height="42" viewBox="0 0 42 42">
  <defs>
    <linearGradient id="linear-gradient" x1="0.5" x2="0.5" y2="1" gradientUnits="objectBoundingBox">
      <stop offset="0" stop-color="#ff51b7"/>
      <stop offset="1" stop-color="#b13db8"/>
    </linearGradient>
    <clipPath id="clip-Icon_Thông_báo">
      <rect width="42" height="42"/>
    </clipPath>
  </defs>
  <g id="Icon_Thông_báo" data-name="Icon Thông báo" clip-path="url(#clip-Icon_Thông_báo)">
    <g id="Group_9246" data-name="Group 9246" transform="translate(19898 -1006.5)">
      <g id="Group_9236" data-name="Group 9236" transform="translate(-19943 304)">
        <g id="Group_9015" data-name="Group 9015" transform="translate(2455 -10452.5)">
          <path id="Path_192" data-name="Path 192" d="M384.163,1767.649l.869.131v4l-.949.112v.613l.949.118v4.017l-.949.113v.617l1,.064v4.765H401.89V1762.22H385.063v4.694l-.892.127Zm5.037-4.808h12.051v18.686H389.2Zm-3.421,14.6.993-.078v-.611l-.993-.106v-4.055l.989-.079v-.613l-.983-.1v-4.059l.977-.08v-.62l-.973-.1v-4.073h2.648v18.678h-2.658Z" transform="translate(-2779.4 9402.46)" fill="#fff"/>
          <path id="Path_192-2" data-name="Path 192" d="M384.163,1767.649l.869.131v4l-.949.112v.613l.949.118v4.017l-.949.113v.617l1,.064v4.765H401.89V1762.22H385.063v4.694l-.892.127Zm5.037-4.808h12.051v18.686H389.2Zm-3.421,14.6.993-.078v-.611l-.993-.106v-4.055l.989-.079v-.613l-.983-.1v-4.059l.977-.08v-.62l-.973-.1v-4.073h2.648v18.678h-2.658Z" transform="translate(-2779.4 9402.46)" fill="#fff"/>
          <path id="Path_193" data-name="Path 193" d="M398.11,1774.813l-1.137-1.232-.669.512-2.954-2.976.5-.654-1.181-1.163c-.627.643-.628.956-.34,1.558a8.807,8.807,0,0,0,4.271,4.257,1.27,1.27,0,0,0,.176.091,1.086,1.086,0,0,0,1.33-.393Z" transform="translate(-2779.4 9402.46)" fill="#fff"/>
          <path id="Path_193-2" data-name="Path 193" d="M398.11,1774.813l-1.137-1.232-.669.512-2.954-2.976.5-.654-1.181-1.163c-.627.643-.628.956-.34,1.558a8.807,8.807,0,0,0,4.271,4.257,1.27,1.27,0,0,0,.176.091,1.086,1.086,0,0,0,1.33-.393Z" transform="translate(-2779.4 9402.46)" fill="#fff"/>
          <rect id="Rectangle_48" data-name="Rectangle 48" width="40.465" height="40.465" rx="15.493" transform="translate(-2409 11156)" fill="url(#linear-gradient)"/>
          <g id="Group_7602" data-name="Group 7602" transform="translate(-30 -1278)">
            <path id="Path_2536" data-name="Path 2536" d="M6499.482,3500.6h5.209a2.8,2.8,0,0,1-1.125,2.458,2.354,2.354,0,0,1-2.793.114A2.761,2.761,0,0,1,6499.482,3500.6Zm4.59.583h-3.97a2,2,0,0,0,3.97,0Z" transform="translate(-8860.762 8961.275)" fill="#fff"/>
            <path id="Path_2537" data-name="Path 2537" d="M6501.442,3472.486a1.754,1.754,0,0,1,.512-1.586,1.407,1.407,0,0,1,1.985.138,1.446,1.446,0,0,1,.21.318,2.3,2.3,0,0,1,.16,1.13Zm2.343-.485a.915.915,0,1,0-1.829-.048.391.391,0,0,0,0,.048Z" transform="translate(-8861.547 8973.445)" fill="#fff"/>
            <path id="Path_2538" data-name="Path 2538" d="M6506.434,3487.683a1.493,1.493,0,0,0-.394-.836,8.055,8.055,0,0,0-.687-.655,2.021,2.021,0,0,1-.49-.626,6.965,6.965,0,0,1-.827-3.174,15.275,15.275,0,0,0-.358-3.343,7.478,7.478,0,0,0-1.047-2.521,4.394,4.394,0,0,0-2.233-1.766,6.878,6.878,0,0,0-4.418,0,4.394,4.394,0,0,0-2.234,1.766,7.479,7.479,0,0,0-1.047,2.521,15.155,15.155,0,0,0-.357,3.343,6.972,6.972,0,0,1-.828,3.174,2.01,2.01,0,0,1-.489.626,8.3,8.3,0,0,0-.689.655,1.5,1.5,0,0,0-.392.836,7.885,7.885,0,0,0-.042,1.737c.021.225-.012.226.253.226h16.069c.265,0,.234,0,.253-.226A7.946,7.946,0,0,0,6506.434,3487.683Zm-8.247,1.377h-7.763c.026-.413.049-.815.078-1.218a1.015,1.015,0,0,1,.307-.662,4.921,4.921,0,0,1,.465-.448,2.692,2.692,0,0,0,.738-.884,7.808,7.808,0,0,0,.91-3.395c.026-.732.06-1.464.138-2.19a8.494,8.494,0,0,1,.651-2.514,4.463,4.463,0,0,1,1.772-2.13,4.217,4.217,0,0,1,1.433-.515,5.393,5.393,0,0,1,2.54,0,4.2,4.2,0,0,1,1.432.515,4.457,4.457,0,0,1,1.772,2.13,8.464,8.464,0,0,1,.651,2.514c.078.727.111,1.459.139,2.19a7.8,7.8,0,0,0,.91,3.395,2.7,2.7,0,0,0,.737.884,5.008,5.008,0,0,1,.468.448,1.033,1.033,0,0,1,.306.662c.027.4.052.8.078,1.218Z" transform="translate(-8856.873 8971.889)" fill="#fff" stroke="#fff" stroke-width="0.5"/>
          </g>
        </g>
      </g>
    </g>
  </g>
</svg>
