<svg width="20" height="19" viewBox="0 0 20 19" fill="none" xmlns="http://www.w3.org/2000/svg">
<path d="M9.17388 0.690982C9.47324 -0.230329 10.7766 -0.230327 11.076 0.690984L12.7069 5.71024C12.8407 6.12226 13.2247 6.40122 13.6579 6.40122H18.9355C19.9042 6.40122 20.307 7.64084 19.5232 8.21024L15.2536 11.3123C14.9031 11.567 14.7565 12.0183 14.8903 12.4303L16.5212 17.4496C16.8206 18.3709 15.7661 19.137 14.9824 18.5676L10.7127 15.4656C10.3622 15.2109 9.88764 15.2109 9.53716 15.4656L5.26752 18.5676C4.48381 19.137 3.42933 18.3709 3.72868 17.4496L5.35954 12.4303C5.49341 12.0183 5.34675 11.567 4.99626 11.3123L0.726631 8.21024C-0.0570825 7.64084 0.345695 6.40122 1.31442 6.40122H6.59197C7.0252 6.40122 7.40916 6.12226 7.54303 5.71024L9.17388 0.690982Z" fill="#FF7F00"/>
</svg>
