<svg width="18" height="12" viewBox="0 0 18 12" fill="none" xmlns="http://www.w3.org/2000/svg">
<g id="Group">
<path id="Vector" d="M15.0684 6.71C14.9417 6.70333 14.8536 6.69388 14.7642 6.69388L0.902042 6.69388C0.271152 6.69388 -0.100988 6.29381 0.0270576 5.76028C0.0714779 5.58314 0.177689 5.42764 0.326643 5.32198C0.475595 5.21631 0.657492 5.16745 0.839357 5.18407C1.55294 5.18407 2.26781 5.18407 2.98139 5.18407L14.8523 5.18407C14.9177 5.18407 14.9856 5.17612 15.119 5.16811L14.3814 4.42517C13.3375 3.38036 12.2936 2.335 11.2496 1.28929C11.1264 1.17239 11.0467 1.01698 11.0236 0.848706C11.0006 0.680429 11.0357 0.50938 11.123 0.36367C11.2054 0.220054 11.3346 0.109053 11.489 0.0491056C11.6433 -0.0108423 11.8135 -0.0160475 11.9712 0.0342894C12.1278 0.0900908 12.2694 0.181332 12.3848 0.300985C13.82 1.72816 15.252 3.15933 16.6809 4.5945C16.9477 4.86127 17.2145 5.11331 17.4626 5.3814C17.5361 5.44594 17.5953 5.52511 17.6367 5.61375C17.678 5.70238 17.7007 5.79861 17.7029 5.8964C17.7052 5.99418 17.6871 6.09137 17.6499 6.18182C17.6126 6.27226 17.557 6.35396 17.4866 6.42181C16.7263 7.2221 15.9487 7.99573 15.1737 8.776C14.2143 9.74079 13.2526 10.7034 12.2887 11.6637C12.2265 11.7512 12.1472 11.8252 12.0557 11.8814C11.9643 11.9377 11.8625 11.975 11.7563 11.991C11.6502 12.0071 11.5419 12.0016 11.4379 11.9749C11.3339 11.9482 11.2363 11.901 11.151 11.8358C11.0664 11.7688 10.9975 11.684 10.9491 11.5875C10.9007 11.4911 10.8739 11.3853 10.8708 11.2774C10.8676 11.1695 10.888 11.0621 10.9307 10.963C10.9733 10.8638 11.0371 10.7753 11.1176 10.7034C11.6418 10.1699 12.1753 9.64969 12.7034 9.1215C13.4513 8.37279 14.1983 7.62273 14.9443 6.87135C14.9857 6.83267 15.0097 6.78603 15.0684 6.71Z" fill="#C11D2A"/>
</g>
</svg>
