<svg width="15" height="15" viewBox="0 0 15 15" fill="none" xmlns="http://www.w3.org/2000/svg">
<path d="M7.5 15C11.6421 15 15 11.6421 15 7.5C15 3.35786 11.6421 0 7.5 0C3.35786 0 0 3.35786 0 7.5C0 11.6421 3.35786 15 7.5 15Z" fill="#347EF9"/>
<path d="M6.51977 7.27645C6.13977 7.38645 5.78977 7.58645 5.50977 7.87645C5.55977 7.73645 5.58977 7.59645 5.64977 7.46645C5.78977 7.14645 5.98977 6.84645 6.22977 6.59645C6.41977 6.38645 6.65977 6.23645 6.92977 6.13645C7.19977 6.04645 7.47977 6.01645 7.75977 6.05645C7.95977 6.08645 8.13977 6.18645 8.26977 6.34645C8.39977 6.49645 8.46977 6.69645 8.46977 6.89645V10.7564C8.85977 10.6564 9.19977 10.4464 9.45977 10.1464L9.48977 10.1664C9.40977 10.3564 9.34977 10.5464 9.25977 10.7264C9.03977 11.2064 8.65977 11.6064 8.18976 11.8464C7.84977 12.0064 7.46977 12.0464 7.10977 11.9564C6.92977 11.9064 6.77977 11.7964 6.66977 11.6464C6.55977 11.4964 6.49977 11.3164 6.50977 11.1364V7.28645L6.51977 7.27645Z" fill="white"/>
<path d="M7.31977 5.48853C7.06977 5.48853 6.83977 5.41853 6.62977 5.27853C6.42977 5.13853 6.26977 4.94853 6.16977 4.71853C6.07977 4.48853 6.04977 4.23853 6.09977 3.99853C6.14977 3.75853 6.26977 3.53853 6.43977 3.35853C6.60977 3.18853 6.82977 3.06853 7.06977 3.01853C7.30977 2.96853 7.55977 2.98853 7.78977 3.08853C8.01977 3.17853 8.20977 3.33853 8.34977 3.53853C8.48977 3.73853 8.55977 3.97853 8.55977 4.22853C8.55977 4.39853 8.52977 4.55853 8.46977 4.70853C8.40977 4.85853 8.31977 4.99853 8.19977 5.11853C8.07977 5.23853 7.93977 5.32853 7.78977 5.38853C7.63977 5.44853 7.46977 5.47853 7.30977 5.47853L7.31977 5.48853Z" fill="white"/>
</svg>
