<svg width="12" height="13" viewBox="0 0 12 13" fill="none" xmlns="http://www.w3.org/2000/svg">
<path d="M5.87716 5.34626C7.20416 4.01626 8.47721 2.74135 9.75021 1.46735C9.90992 1.29637 10.0812 1.13634 10.2624 0.988351C10.4356 0.839351 10.6591 0.761907 10.8874 0.771554C11.1157 0.781201 11.3314 0.877025 11.4914 1.04011C11.6514 1.20319 11.7439 1.42106 11.7492 1.64948C11.7546 1.87791 11.6725 2.09972 11.5202 2.27009C11.1452 2.71609 10.7106 3.11339 10.2966 3.52839C9.27159 4.55239 8.24345 5.57623 7.17745 6.63923L10.9773 10.4342C11.1433 10.6002 11.3155 10.7602 11.4675 10.9342C11.6204 11.1095 11.7007 11.3369 11.6916 11.5694C11.6826 11.8019 11.5848 12.0217 11.4187 12.1846C11.2526 12.3475 11.0307 12.4408 10.7981 12.4454C10.5654 12.4499 10.3395 12.3654 10.1672 12.2091C9.3672 11.4501 8.6014 10.6624 7.8254 9.88239C7.1984 9.25139 6.5783 8.61309 5.8923 7.91609L2.12032 11.7061C1.95432 11.8721 1.79632 12.0453 1.62032 12.1983C1.53852 12.2919 1.43786 12.3671 1.32491 12.419C1.21197 12.4709 1.08935 12.4984 0.965051 12.4996C0.840755 12.5007 0.717593 12.4752 0.603722 12.4254C0.489852 12.3755 0.3879 12.3021 0.304406 12.21C0.210166 12.1278 0.135176 12.0261 0.0846795 11.9117C0.0341829 11.7972 0.00915924 11.673 0.0119256 11.5479C0.0146919 11.4229 0.045285 11.3002 0.100793 11.1881C0.1563 11.076 0.235429 10.9775 0.333215 10.8995C1.48021 9.72948 2.64234 8.57004 3.80734 7.41804C4.05634 7.17204 4.34534 6.96812 4.66134 6.70612C3.25134 5.30112 1.94432 3.99941 0.64132 2.69441C0.47632 2.52941 0.222472 2.36246 0.197472 2.17146C0.115838 1.80894 0.150935 1.42989 0.29757 1.08845C0.355281 0.997808 0.432096 0.920681 0.522668 0.862863C0.61324 0.805044 0.714984 0.767683 0.821496 0.753488C0.928008 0.739292 1.03633 0.748751 1.13888 0.780831C1.24143 0.812912 1.33581 0.866672 1.41525 0.939035C1.79367 1.25009 2.15288 1.58405 2.49044 1.93903C3.59644 3.05303 4.70216 4.16626 5.87716 5.34626Z" fill="#707070"/>
</svg>
