<svg width="10" height="13" viewBox="0 0 10 13" fill="none" xmlns="http://www.w3.org/2000/svg">
<path d="M0.70003 6.81961C0.70003 5.27695 0.70003 3.73528 0.70003 2.19461C0.70003 1.83761 0.85503 1.67757 1.20003 1.67557C1.56403 1.67557 1.92812 1.67557 2.29012 1.67557C2.39012 1.67557 2.42202 1.71078 2.41902 1.81278C2.41302 2.03378 2.41902 2.25682 2.41902 2.47782C2.41902 2.75182 2.51899 2.8577 2.78499 2.8577H7.7491C8.0301 2.8577 8.13116 2.75763 8.13216 2.46463C8.13216 2.25263 8.13216 2.03896 8.13216 1.82596C8.13216 1.71496 8.157 1.67159 8.274 1.67459C8.646 1.68159 9.01822 1.67459 9.39022 1.67459C9.45334 1.67084 9.51637 1.68091 9.57527 1.70389C9.63418 1.72688 9.68738 1.76238 9.73128 1.8079C9.77518 1.85341 9.80883 1.90786 9.82967 1.96756C9.85051 2.02726 9.85816 2.09065 9.85213 2.1536C9.85213 2.7876 9.85213 3.42199 9.85213 4.05399C9.85213 5.48399 9.85213 6.91465 9.85213 8.34598C9.85213 9.39598 9.85213 10.4468 9.85213 11.4988C9.86113 11.5659 9.85475 11.6343 9.83333 11.6985C9.81191 11.7627 9.77607 11.8212 9.72859 11.8694C9.68112 11.9177 9.62326 11.9544 9.55941 11.9768C9.49555 11.9993 9.42741 12.0067 9.36019 11.9988H1.20906C1.13923 12.0088 1.06813 12.0024 1.0013 11.9798C0.934474 11.9572 0.873738 11.9192 0.824298 11.8689C0.774857 11.8186 0.738049 11.7569 0.716632 11.6897C0.695214 11.6225 0.689793 11.5514 0.701007 11.4817C0.701007 9.92706 0.701007 8.37171 0.701007 6.81571L0.70003 6.81961ZM6.18904 5.366H7.14412C7.36812 5.366 7.59322 5.366 7.81722 5.366C7.85711 5.36944 7.89718 5.36459 7.93514 5.35184C7.9731 5.33909 8.00795 5.31861 8.03768 5.29178C8.06741 5.26496 8.09141 5.23204 8.10799 5.19559C8.12457 5.15914 8.13344 5.1199 8.13411 5.07987C8.13484 5.03885 8.12705 4.99817 8.11141 4.96024C8.09577 4.92231 8.07272 4.88775 8.04329 4.85917C8.01386 4.83058 7.97888 4.80827 7.94051 4.79374C7.90214 4.77921 7.86113 4.77277 7.82015 4.77469C7.77415 4.77469 7.73014 4.77469 7.68514 4.77469H4.59212C4.54657 4.76897 4.50035 4.7739 4.45711 4.78934C4.41387 4.80478 4.37472 4.83028 4.3431 4.86356C4.31147 4.89684 4.2882 4.93727 4.27498 4.98124C4.26177 5.0252 4.25913 5.07178 4.26717 5.11698C4.27928 5.19442 4.32107 5.26392 4.38387 5.31083C4.44666 5.35773 4.52541 5.3783 4.60311 5.36795L6.18904 5.366ZM6.20223 8.6077H4.61409C4.38809 8.6077 4.26099 8.72178 4.26399 8.91678C4.26399 9.09578 4.39004 9.20194 4.60604 9.20194H7.79305C7.83625 9.20792 7.88025 9.20445 7.92195 9.19168C7.96366 9.17892 8.00204 9.15685 8.0345 9.12772C8.06697 9.09859 8.09276 9.06283 8.10994 9.02274C8.12713 8.98265 8.1354 8.93938 8.13411 8.89579C8.13411 8.72079 7.99717 8.60868 7.78817 8.60868L6.20223 8.6077ZM6.19612 6.69461C5.66312 6.69461 5.12903 6.69461 4.59603 6.69461C4.53845 6.6922 4.48104 6.70173 4.42708 6.72196C4.36519 6.75199 4.31594 6.80269 4.28792 6.86551C4.2599 6.92834 4.255 6.99911 4.274 7.06522C4.29301 7.13133 4.33482 7.18849 4.39192 7.22684C4.44903 7.26519 4.51763 7.28212 4.58602 7.27469H6.92513C7.23313 7.27469 7.54315 7.27483 7.85115 7.26883C7.88898 7.26942 7.92655 7.26232 7.9615 7.24784C7.99646 7.23335 8.02795 7.21153 8.05428 7.18436C8.08061 7.15719 8.10121 7.12503 8.11458 7.08963C8.12796 7.05424 8.13394 7.01659 8.13216 6.97879C8.13256 6.94107 8.12554 6.90342 8.11141 6.86844C8.09727 6.83346 8.07637 6.80204 8.04988 6.77518C8.02339 6.74832 7.99165 6.72681 7.95687 6.71219C7.92209 6.69757 7.88473 6.68986 7.847 6.68973C7.811 6.68973 7.77505 6.68973 7.74105 6.68973L6.19612 6.69461ZM3.26912 8.90897C3.27099 8.85207 3.26166 8.79523 3.24153 8.74198C3.22141 8.68872 3.19097 8.63987 3.15193 8.59842C3.1129 8.55698 3.06595 8.52356 3.01399 8.50028C2.96204 8.47699 2.90611 8.46423 2.8492 8.46268C2.79107 8.4637 2.73367 8.47629 2.6805 8.49979C2.62733 8.52329 2.57926 8.5571 2.53939 8.5994C2.49951 8.6417 2.46865 8.69191 2.44832 8.74637C2.42799 8.80084 2.41881 8.8587 2.42122 8.91678C2.42068 9.02927 2.46445 9.13758 2.54305 9.21805C2.62165 9.29852 2.72868 9.34486 2.84114 9.34696C2.89801 9.34631 2.95414 9.33417 3.00643 9.3118C3.05871 9.28944 3.10609 9.25726 3.14583 9.21659C3.18558 9.17591 3.21696 9.12777 3.23812 9.07499C3.25927 9.0222 3.26978 8.96583 3.26912 8.90897V8.90897ZM3.26912 5.07157C3.27181 4.95679 3.22883 4.8457 3.14974 4.76249C3.07064 4.67927 2.96177 4.63086 2.847 4.62772C2.79007 4.62783 2.7339 4.63921 2.68148 4.66141C2.62906 4.68361 2.58152 4.71631 2.54183 4.75711C2.50214 4.79792 2.47101 4.84619 2.45027 4.8992C2.42954 4.95222 2.41975 5.0088 2.42122 5.06571C2.41684 5.1238 2.42432 5.18207 2.44344 5.23709C2.46256 5.29212 2.49285 5.34268 2.53231 5.38553C2.57177 5.42839 2.61967 5.46302 2.67293 5.48661C2.7262 5.51019 2.78362 5.52233 2.84188 5.52274C2.90013 5.52315 2.95796 5.51139 3.01155 5.48856C3.06515 5.46573 3.11334 5.43222 3.1534 5.38993C3.19346 5.34764 3.22457 5.2977 3.24446 5.24295C3.26436 5.1882 3.27268 5.12971 3.26912 5.07157ZM2.83211 7.42557C2.94841 7.42557 3.05993 7.37939 3.14217 7.29715C3.2244 7.21492 3.27059 7.10339 3.27059 6.98709C3.27059 6.8708 3.2244 6.75927 3.14217 6.67704C3.05993 6.5948 2.94841 6.54862 2.83211 6.54862C2.71943 6.554 2.61307 6.60272 2.53524 6.68436C2.4574 6.76601 2.41414 6.87429 2.41414 6.98709C2.41414 7.0999 2.4574 7.20867 2.53524 7.29032C2.61307 7.37196 2.71943 7.42019 2.83211 7.42557V7.42557Z" fill="#F2B153"/>
<path d="M7.17505 2.14434H3.375V0.963185H4.20386C4.20386 0.863185 4.21086 0.772353 4.20386 0.685353C4.19036 0.581578 4.21177 0.475993 4.2644 0.385548C4.31704 0.295102 4.39798 0.224881 4.49487 0.185353C4.87225 -0.00631207 5.3075 -0.0511835 5.71606 0.0593759C5.85337 0.0947296 5.98508 0.14871 6.10791 0.219532C6.18766 0.258258 6.25352 0.320294 6.29663 0.397755C6.33974 0.475216 6.35799 0.563968 6.34888 0.652149C6.34188 0.752149 6.34888 0.845442 6.34888 0.952442H7.177L7.17505 2.14434Z" fill="#F2B153"/>
</svg>
