<svg width="11" height="13" viewBox="0 0 11 13" fill="none" xmlns="http://www.w3.org/2000/svg">
<path d="M0.700074 7.00069C0.700074 5.55699 0.700074 4.11314 0.700074 2.66944C0.682566 2.44649 0.713547 2.22253 0.790765 2.01265C0.867983 1.80276 0.98964 1.61192 1.14747 1.45348C1.30529 1.29503 1.49561 1.1725 1.70519 1.09447C1.91477 1.01643 2.13868 0.984829 2.3617 1.00146C4.39376 0.99831 6.42627 0.99831 8.45912 1.00146C8.6823 0.982906 8.90671 1.01265 9.11736 1.08869C9.32801 1.16473 9.51984 1.28509 9.6797 1.44193C9.83957 1.59876 9.96385 1.78819 10.0439 1.99734C10.124 2.2065 10.1581 2.43063 10.1438 2.65413C10.1527 5.56381 10.148 8.47339 10.148 10.8852C10.1617 11.1781 10.0913 11.4689 9.94552 11.7233C9.79969 11.9778 9.58425 12.1855 9.32454 12.3218C9.06483 12.4581 8.7717 12.5174 8.47943 12.4928C8.18716 12.4682 7.90805 12.3606 7.67476 12.1829C7.17197 11.837 6.66827 11.492 6.1639 11.1477C5.52506 10.7094 5.32106 10.7079 4.69464 11.1379C4.19146 11.4833 3.68813 11.8287 3.18494 12.1742C2.9509 12.3553 2.6699 12.4653 2.37507 12.491C2.08024 12.5168 1.78405 12.457 1.52216 12.3192C1.26028 12.1813 1.04368 11.9711 0.898009 11.7135C0.752339 11.4559 0.683883 11.1619 0.70074 10.8664C0.707247 9.41244 0.700074 8.45582 0.700074 7.00069ZM1.3586 6.96025C1.3586 8.42663 1.36569 9.39509 1.36273 10.8621C1.34646 11.0344 1.38127 11.2078 1.46324 11.3603C1.54522 11.5128 1.67066 11.6375 1.82341 11.719C1.97616 11.8005 2.14962 11.8352 2.32193 11.8184C2.49423 11.8015 2.65774 11.7341 2.79185 11.6246C3.32007 11.256 3.85239 10.894 4.38357 10.5302C4.66687 10.2795 5.03178 10.1409 5.41006 10.14C5.78835 10.1391 6.15384 10.2762 6.43829 10.5256C6.99727 10.9077 7.55299 11.2945 8.11493 11.6737C8.24635 11.7697 8.40343 11.8239 8.56608 11.8293C8.72873 11.8348 8.88946 11.7915 9.02705 11.7046C9.161 11.6347 9.27242 11.5283 9.34851 11.3978C9.42461 11.2673 9.46201 11.1179 9.45682 10.9669C9.44914 8.52101 9.44675 5.57694 9.44518 2.63276C9.46003 2.50171 9.44481 2.36897 9.40099 2.24458C9.35716 2.12018 9.28588 2.00754 9.19216 1.91474C9.09845 1.82193 8.98483 1.75141 8.86001 1.7088C8.7352 1.6662 8.60244 1.65253 8.47154 1.66866C6.42765 1.66589 4.38345 1.66589 2.33917 1.66866C2.20542 1.65165 2.06973 1.66557 1.94232 1.70967C1.81491 1.75377 1.6993 1.82677 1.60468 1.92282C1.51006 2.01887 1.43891 2.13558 1.39672 2.26364C1.35454 2.3917 1.34248 2.52758 1.36149 2.66106C1.35794 4.09372 1.35775 5.52681 1.36091 6.96025H1.3586Z" fill="#F2B153"/>
<path d="M3.75068 6.14086C3.7536 5.92163 3.79991 5.70504 3.88672 5.50371C3.97352 5.30238 4.09901 5.12027 4.25641 4.96765C4.41382 4.81502 4.59983 4.69497 4.80374 4.61441C5.00765 4.53385 5.22543 4.49447 5.44465 4.4983C5.88159 4.51136 6.2964 4.69378 6.60111 5.00722C6.90582 5.32065 7.07666 5.74041 7.07739 6.17754C7.07498 6.39602 7.02949 6.61175 6.94366 6.81267C6.85783 7.01359 6.73333 7.19567 6.57714 7.34845C6.42095 7.50123 6.23604 7.62175 6.03328 7.70313C5.83051 7.78451 5.61373 7.8254 5.39526 7.82299C5.17679 7.82058 4.96105 7.77509 4.76013 7.68926C4.55921 7.60343 4.37714 7.47893 4.22436 7.32274C4.07157 7.16656 3.95106 6.98164 3.86968 6.77888C3.78829 6.57612 3.74769 6.35933 3.7501 6.14086H3.75068ZM5.41808 7.16186C5.68093 7.16108 5.93291 7.0563 6.11877 6.87044C6.30463 6.68458 6.40942 6.43259 6.4102 6.16974C6.40665 5.90679 6.30155 5.65556 6.11704 5.46818C5.93253 5.2808 5.68267 5.17194 5.41981 5.16434C5.28684 5.16424 5.15515 5.19042 5.03249 5.24174C4.90983 5.29307 4.79882 5.36851 4.70554 5.46327C4.61227 5.55803 4.53888 5.67023 4.4895 5.79369C4.44012 5.91715 4.41567 6.04922 4.41787 6.18216C4.41879 6.31229 4.44558 6.44104 4.49643 6.56082C4.54728 6.6806 4.62124 6.78921 4.71421 6.88026C4.80718 6.9713 4.91716 7.04306 5.03798 7.09139C5.1588 7.13973 5.28796 7.16366 5.41808 7.16186V7.16186Z" fill="#F2B153"/>
</svg>
