<svg width="13" height="13" viewBox="0 0 13 13" fill="none" xmlns="http://www.w3.org/2000/svg">
<path d="M1.46153 0.557856C1.09454 0.684319 0.844093 0.947164 0.734987 1.31415C0.702752 1.42326 0.695312 1.57204 0.695312 2.08533C0.695312 2.70029 0.697792 2.72509 0.747386 2.76972C0.796979 2.81435 0.854011 2.81683 1.67726 2.82427L2.55506 2.83171V7.17609C2.55506 11.9519 2.54515 11.6668 2.70384 11.942C2.79063 12.0933 3.0014 12.2991 3.14522 12.3735C3.40311 12.5049 3.21218 12.4999 7.57639 12.4999C11.9952 12.4999 11.7596 12.5074 12.0324 12.3586C12.1886 12.2743 12.3721 12.0883 12.4589 11.9271C12.5779 11.7089 12.5977 11.5899 12.5977 11.0345C12.5977 10.5832 12.5928 10.5162 12.5556 10.4691C12.5134 10.422 12.4837 10.417 12.1266 10.4121L11.7422 10.4046L11.7298 5.86683L11.7174 1.32903L11.6381 1.1629C11.5935 1.06867 11.5265 0.954603 11.4893 0.90253C11.3827 0.763668 11.1496 0.60497 10.9686 0.547937C10.8099 0.498344 10.7479 0.498344 6.21505 0.500824H1.62519L1.46153 0.557856ZM2.1236 0.919888C2.27486 0.994278 2.42116 1.14058 2.49059 1.28936C2.53771 1.3935 2.54267 1.45302 2.5501 1.94151L2.55754 2.48208H1.80124H1.04247V1.97871C1.04247 1.43566 1.05486 1.36127 1.16397 1.18769C1.35986 0.880213 1.78885 0.758709 2.1236 0.919888ZM10.9016 0.887652C11.0678 0.944684 11.2835 1.16042 11.3405 1.32655C11.3802 1.44062 11.3827 1.80265 11.3827 5.92138V10.3922H7.98554C4.36274 10.3922 4.47433 10.3897 4.42969 10.5038C4.42225 10.5261 4.41481 10.7592 4.41481 11.0221C4.41481 11.6023 4.39498 11.694 4.21644 11.8875C4.05526 12.066 3.89408 12.1379 3.65852 12.1379C3.43287 12.1379 3.26673 12.066 3.11299 11.9023C2.89478 11.6692 2.9171 12.2346 2.90222 6.48674L2.88982 1.37863L2.83527 1.23481C2.80551 1.15546 2.74104 1.03643 2.69393 0.969481L2.60466 0.845498H6.69115C10.4503 0.845498 10.7876 0.847977 10.9016 0.887652ZM12.2506 11.1287C12.2506 11.3444 12.2382 11.5626 12.2258 11.6122C12.1638 11.8329 11.9257 12.0685 11.705 12.128C11.643 12.1453 10.4082 12.1503 8.05249 12.1478L4.49168 12.1404L4.57599 12.0164C4.72973 11.7858 4.76197 11.637 4.76197 11.1733V10.7642L8.19135 10.7567C10.0759 10.7543 11.7596 10.7493 11.9356 10.7443L12.2506 10.7394V11.1287Z" fill="#F2B153"/>
<path d="M6.89862 2.9409C6.85646 2.95826 6.74736 3.03017 6.66057 3.0996L6.49691 3.22854L6.27374 3.19879C6.15224 3.18391 6.01338 3.17647 5.96874 3.18639C5.81996 3.21367 5.71829 3.32525 5.61911 3.56578L5.52736 3.78647L5.32155 3.87078C4.962 4.01708 4.89257 4.1361 4.9372 4.52541L4.96448 4.7585L4.81818 4.95191C4.67435 5.14037 4.67188 5.14533 4.67188 5.30898C4.67188 5.47264 4.67435 5.4776 4.8157 5.66358C4.96944 5.86939 4.97687 5.89667 4.93224 6.16447C4.88265 6.46203 4.99919 6.63065 5.33395 6.75711L5.52488 6.82654L5.59183 6.98524L5.65878 7.14394L5.30667 7.97215C4.9248 8.86979 4.90992 8.93178 5.03639 9.00121C5.09838 9.03593 5.12317 9.03345 5.3885 8.94914L5.67614 8.86235L5.71086 8.91442C5.72821 8.94418 5.79021 9.06072 5.84724 9.17231C5.95634 9.39052 6.02081 9.44507 6.13488 9.41532C6.21175 9.39548 6.20679 9.4054 6.61346 8.44824L6.92837 7.70682H7.05236H7.17386L7.52597 8.53503C7.90536 9.43019 7.92768 9.46243 8.07398 9.41036C8.12605 9.393 8.17069 9.33349 8.26739 9.15247C8.33434 9.02105 8.39882 8.9045 8.40874 8.88715C8.42361 8.86979 8.50792 8.88467 8.69142 8.94418C8.83772 8.99129 8.97658 9.02849 9.00386 9.02849C9.06833 9.02849 9.14768 8.93922 9.14768 8.86483C9.14768 8.82763 8.99146 8.43337 8.80052 7.98455C8.60959 7.53573 8.45337 7.1613 8.45337 7.1489C8.45337 7.1365 8.48065 7.06211 8.51288 6.98276L8.57239 6.83894L8.7906 6.74471C9.13032 6.59841 9.21959 6.45955 9.17247 6.16447C9.12784 5.89419 9.13528 5.86443 9.2915 5.6611C9.43036 5.4776 9.43284 5.47264 9.43284 5.30898C9.43284 5.14285 9.43284 5.14037 9.28654 4.95191L9.14024 4.7585L9.16751 4.52541C9.21215 4.1361 9.15016 4.027 8.7906 3.87326L8.56991 3.77903L8.48808 3.57074C8.39386 3.33765 8.28227 3.21367 8.13845 3.18639C8.09134 3.17647 7.95248 3.18391 7.83097 3.19879L7.6078 3.22854L7.44414 3.0996C7.19618 2.90371 7.06723 2.86651 6.89862 2.9409ZM7.26561 3.41204C7.4739 3.57322 7.54581 3.59057 7.84585 3.55338C7.96735 3.5385 8.07646 3.53354 8.0839 3.54346C8.09382 3.55338 8.13597 3.64761 8.18061 3.75423C8.29219 4.02204 8.3393 4.06915 8.60215 4.17826C8.85508 4.28488 8.85012 4.27248 8.80052 4.58492C8.76581 4.79569 8.79556 4.89488 8.9617 5.10565C9.03609 5.20236 9.09808 5.29411 9.09808 5.30898C9.09808 5.32634 9.04105 5.41313 8.96914 5.5024C8.78812 5.73549 8.76829 5.79996 8.80548 6.09008C8.82532 6.23886 8.8278 6.33309 8.81292 6.34549C8.79804 6.35788 8.71125 6.40004 8.61455 6.43723C8.34178 6.54882 8.29715 6.59097 8.19052 6.84638C8.14093 6.97036 8.08886 7.07699 8.07894 7.08195C8.06902 7.08939 7.94752 7.08195 7.81113 7.06459C7.51853 7.02987 7.48878 7.03979 7.22345 7.24313C7.13171 7.31256 7.0474 7.35967 7.03252 7.34975C7.01516 7.34231 6.94077 7.28528 6.8639 7.22825C6.61841 7.04227 6.58122 7.02987 6.29606 7.06707C6.15968 7.08195 6.03817 7.09187 6.02577 7.08443C6.01586 7.07699 5.96378 6.97036 5.91419 6.84638C5.80508 6.58849 5.75797 6.54138 5.48025 6.43475C5.38106 6.39756 5.29179 6.35045 5.28435 6.33061C5.27691 6.31077 5.28435 6.19671 5.29923 6.08016C5.33643 5.80988 5.31907 5.75037 5.14301 5.51728C5.06862 5.41809 5.00663 5.32386 5.00663 5.30898C5.00663 5.29411 5.06862 5.20236 5.14301 5.10565C5.30667 4.89736 5.33643 4.80561 5.30419 4.58988C5.25708 4.26752 5.24964 4.28488 5.50008 4.18074C5.62159 4.12866 5.74557 4.06419 5.77285 4.03444C5.8026 4.00468 5.86708 3.87822 5.91915 3.75671L6.01338 3.53602L6.14976 3.54842C6.22415 3.55586 6.36301 3.56082 6.45972 3.56082C6.63577 3.56082 6.63577 3.56082 6.81927 3.41948C6.92093 3.34261 7.0226 3.27814 7.0474 3.27814C7.07219 3.27566 7.17138 3.33765 7.26561 3.41204ZM6.57378 7.44894L6.64321 7.50349L6.36797 8.1482C6.21671 8.5028 6.08529 8.80284 6.07289 8.81524C6.06049 8.82763 6.02329 8.77804 5.9861 8.70365C5.8646 8.46064 5.82244 8.44329 5.56951 8.53007C5.49017 8.55735 5.42817 8.57223 5.43065 8.56231C5.43065 8.55239 5.53976 8.29451 5.67118 7.98951L5.91171 7.43158L6.04809 7.43654C6.12248 7.43654 6.23407 7.4291 6.29606 7.41918C6.46963 7.38695 6.50187 7.38943 6.57378 7.44894ZM7.99463 7.43158L8.193 7.43902L8.43353 8.00438C8.56743 8.31434 8.67654 8.57223 8.67654 8.57471C8.67654 8.57719 8.61455 8.55735 8.5352 8.53007C8.28227 8.44329 8.255 8.45568 8.11613 8.70117C8.0715 8.77804 8.03183 8.82515 8.02191 8.81028C8.01199 8.7954 7.88305 8.49536 7.73427 8.14325L7.4615 7.50597L7.53093 7.44894C7.58549 7.40182 7.61524 7.39439 7.69707 7.40678C7.75162 7.41422 7.88553 7.42662 7.99463 7.43158Z" fill="#F2B153"/>
<path d="M6.94275 4.25992C6.92043 4.28472 6.84604 4.4211 6.77413 4.56492C6.70222 4.70874 6.64271 4.82776 6.64023 4.83024C6.63775 4.8352 6.49393 4.85752 6.32035 4.88232C5.97072 4.93439 5.90625 4.96662 5.90625 5.09557C5.90625 5.16004 5.94345 5.20715 6.1443 5.39809L6.38483 5.62126L6.32779 5.94857C6.27572 6.25357 6.27324 6.27837 6.31292 6.3354C6.38731 6.45195 6.4493 6.44451 6.76669 6.27589L7.05682 6.12215L7.3519 6.27589C7.66929 6.44203 7.73129 6.45195 7.80568 6.33788C7.84287 6.28085 7.84039 6.25357 7.7908 5.94857L7.73625 5.62126L7.97429 5.39561C8.17763 5.20467 8.21234 5.16004 8.21234 5.09309C8.21234 4.96662 8.13547 4.92695 7.78584 4.87736C7.6197 4.85256 7.48084 4.83272 7.47836 4.83024C7.47588 4.82776 7.41637 4.70874 7.34446 4.56492C7.18824 4.25 7.16096 4.21777 7.0593 4.21777C7.01466 4.21777 6.96259 4.2376 6.94275 4.25992ZM7.28743 5.14516C7.31222 5.1526 7.37669 5.165 7.43125 5.17244C7.4858 5.18236 7.56267 5.19475 7.60234 5.20219L7.67177 5.21459L7.53539 5.35593C7.45852 5.4328 7.39405 5.51215 7.39157 5.53199C7.38413 5.57662 7.41637 5.84691 7.43621 5.8965C7.44612 5.91882 7.38413 5.89898 7.27503 5.84443C7.17832 5.79483 7.07913 5.75516 7.05434 5.75516C7.02954 5.75516 6.93779 5.79483 6.851 5.84195C6.76174 5.88906 6.68735 5.92626 6.68487 5.9213C6.68239 5.91882 6.68983 5.86674 6.69974 5.80475C6.74934 5.55431 6.73694 5.50967 6.58568 5.35593L6.44682 5.21459L6.62783 5.18484C6.7295 5.16748 6.82869 5.14516 6.84852 5.13524C6.86836 5.12284 6.92539 5.03606 6.97251 4.93687L7.05682 4.76081L7.15104 4.94679C7.20312 5.04845 7.26263 5.13772 7.28743 5.14516Z" fill="#F2B153"/>
</svg>
