<svg width="16" height="16" viewBox="0 0 16 16" fill="none" xmlns="http://www.w3.org/2000/svg">
<path d="M13.6834 3.42059H13.8278C14.1489 3.42433 14.4699 3.40775 14.7883 3.43557C15.0332 3.46108 15.2601 3.57589 15.4257 3.75809C15.5913 3.94029 15.684 4.1771 15.6861 4.42331C15.6926 4.92093 15.6904 5.41908 15.6861 5.9167C15.6861 6.05861 15.6298 6.1947 15.5294 6.29505C15.4291 6.39539 15.293 6.45177 15.1511 6.45177H15.0746C10.4729 6.45177 5.87132 6.45177 1.26971 6.45177C1.20207 6.45452 1.13434 6.44913 1.06799 6.43571C0.951081 6.40848 0.846941 6.34223 0.772729 6.24788C0.698517 6.15354 0.658668 6.03673 0.659732 5.9167C0.656522 5.41908 0.653846 4.92093 0.659732 4.42331C0.666021 4.15603 0.776624 3.90182 0.967907 3.71504C1.15919 3.52826 1.41596 3.42372 1.68332 3.4238C1.96209 3.41898 2.2414 3.4238 2.52018 3.4238H2.65287C2.64652 3.39891 2.63865 3.37443 2.62932 3.35049C2.43879 2.9385 2.39561 2.47355 2.50703 2.03352C2.61846 1.59349 2.8777 1.20511 3.24135 0.93344C3.60499 0.661772 4.05095 0.523313 4.50451 0.541261C4.95808 0.559209 5.39169 0.732475 5.73273 1.03203C6.16079 1.40979 6.57762 1.79558 6.99979 2.17762C7.02762 2.20277 7.0565 2.22577 7.08379 2.24932C7.73979 1.63131 8.66172 1.68321 9.25244 2.24932L9.50981 2.01816C9.8758 1.68642 10.237 1.34932 10.6088 1.024C11.7571 0.0212768 13.5566 0.62912 13.8599 2.12304C13.9507 2.52817 13.901 2.95211 13.7192 3.32534C13.7107 3.35049 13.701 3.37778 13.6834 3.42059ZM6.68088 3.41363C6.6637 3.368 6.6403 3.32496 6.61133 3.28575C6.07305 2.79562 5.54119 2.29801 4.99113 1.82179C4.52295 1.41728 3.78721 1.63023 3.578 2.21239C3.52861 2.34869 3.51289 2.4949 3.53215 2.63858C3.55141 2.78225 3.60508 2.91915 3.68862 3.03763C3.77216 3.1561 3.88308 3.25264 4.01195 3.31904C4.14081 3.38544 4.28381 3.41972 4.42877 3.41898C5.14149 3.4254 5.8542 3.41898 6.56906 3.41898C6.5926 3.42059 6.62043 3.41738 6.68036 3.41363H6.68088ZM9.6714 3.40453C9.69243 3.41101 9.71388 3.41601 9.73561 3.41952C10.4713 3.41952 11.2065 3.42594 11.9417 3.4147C12.1358 3.40889 12.3228 3.34114 12.4756 3.22138C12.6284 3.10162 12.7389 2.93611 12.7909 2.74907C12.8399 2.56182 12.8273 2.36375 12.7549 2.18422C12.6826 2.00469 12.5543 1.85327 12.3891 1.75238C12.2239 1.6515 12.0306 1.60653 11.8378 1.62414C11.645 1.64175 11.4631 1.72101 11.3189 1.85015C10.7892 2.32102 10.2664 2.7999 9.74257 3.27772C9.71244 3.31625 9.6881 3.35897 9.67033 3.40453H9.6714Z" fill="#D13238"/>
<path d="M7.24999 7.32085V15.531H2.73239C2.06355 15.531 1.63281 15.1029 1.63281 14.4368V7.32031L7.24999 7.32085Z" fill="#D13238"/>
<path d="M9.10156 7.32031H14.7198V7.44659C14.7198 9.77807 14.7198 12.1094 14.7198 14.4405C14.7198 15.1008 14.2918 15.5342 13.6315 15.5342H9.10263L9.10156 7.32031Z" fill="#D13238"/>
</svg>
