<svg xmlns="http://www.w3.org/2000/svg" xmlns:xlink="http://www.w3.org/1999/xlink" width="42" height="42" viewBox="0 0 42 42">
  <defs>
    <linearGradient id="linear-gradient" x1="0.5" x2="0.5" y2="1" gradientUnits="objectBoundingBox">
      <stop offset="0" stop-color="#01a9ac"/>
      <stop offset="0.996" stop-color="#01d1ac"/>
      <stop offset="1" stop-color="#01d1ac"/>
    </linearGradient>
    <clipPath id="clip-Icon_Thông_tin_tập_đoàn">
      <rect width="42" height="42"/>
    </clipPath>
  </defs>
  <g id="Icon_Thông_tin_tập_đoàn" data-name="Icon Thông tin tập đoàn" clip-path="url(#clip-Icon_Thông_tin_tập_đoàn)">
    <g id="Group_9245" data-name="Group 9245" transform="translate(19897.92 -924.196)">
      <g id="Group_9234" data-name="Group 9234" transform="translate(-19943 304)">
        <g id="Group_9014" data-name="Group 9014" transform="translate(2478 -10420.5)">
          <rect id="Rectangle_49" data-name="Rectangle 49" width="39.952" height="39.952" rx="15.493" transform="translate(-2391.968 11081.648) rotate(180)" fill="url(#linear-gradient)"/>
          <path id="Path_190" data-name="Path 190" d="M280.145,1769.313a2.29,2.29,0,0,0-2.137-2.434h0a1.94,1.94,0,0,0-.306,0h-5.771a.972.972,0,0,1-.53-.063l-.161-.065-.019-.173a.547.547,0,0,1,.188-.461c.817-.948,1.609-1.864,2.4-2.778a.485.485,0,0,0-.026-.96l-.048-.045a.583.583,0,0,0-.086-.07.545.545,0,0,1-.085.1c-.367.434-.741.863-1.114,1.3-.5.573-1,1.147-1.482,1.729a.744.744,0,0,1-.489.289.671.671,0,0,1-.485-.31c-.521-.657-1.051-1.3-1.581-1.954l-.554-.675a2.5,2.5,0,0,0-.481-.519,2.627,2.627,0,0,0-.569.418.384.384,0,0,0-.052.046l.029.038c.578.691,1.145,1.389,1.712,2.087l.312.384c.23.283.459.568.69.858l.46.572-.329.158a1,1,0,0,1-.609.087l-2.654.006H263.28a2.312,2.312,0,0,0-2.5,2.106V1769a2.377,2.377,0,0,0,0,.358v10.4a2.317,2.317,0,0,0,2.207,2.422h.141c4.863.013,9.788.013,14.651,0a2.289,2.289,0,0,0,2.37-2.2v-.184q.011-5.247,0-10.469Zm-.8,10.278a1.557,1.557,0,0,1-1.3,1.778,1.6,1.6,0,0,1-.458,0q-3.57.006-7.143,0t-7.139,0a1.4,1.4,0,0,1-.2.015,1.531,1.531,0,0,1-1.508-1.554h0a1.469,1.469,0,0,1,.019-.219V1769.4a1.54,1.54,0,0,1,1.3-1.726,1.56,1.56,0,0,1,.473,0h14.158c1.251,0,1.81.56,1.81,1.819Z" transform="translate(-2682.4 9289.46)" fill="#fbfdfc"/>
          <path id="Path_191" data-name="Path 191" d="M274.952,1769.991a1.425,1.425,0,0,0-.332,0h-8.379a1.4,1.4,0,0,0-1.49,1.3v.005a1.466,1.466,0,0,0,0,.163c0,.48,0,.943.008,1.4.007,1.065.015,2.166-.02,3.252a1.488,1.488,0,0,0,1.379,1.588h0a1.6,1.6,0,0,0,.171,0h3.124q2.6,0,5.188-.005a1.415,1.415,0,0,0,1.565-1.247h0a1.366,1.366,0,0,0,0-.3v-4.606A1.4,1.4,0,0,0,274.952,1769.991Zm.22,6.692a.867.867,0,0,1-.618.2h0c-.9-.005-1.808,0-2.712,0h-5.434c-.653,0-.833-.182-.833-.842v-4.431c0-.641.176-.817.818-.818h8.143c.621,0,.821.2.822.822v1.208c0,1.086,0,2.173.008,3.26a.786.786,0,0,1-.2.6Z" transform="translate(-2682.4 9289.46)" fill="#fbfdfc"/>
        </g>
      </g>
    </g>
  </g>
</svg>
