<svg width="13" height="13" viewBox="0 0 13 13" fill="none" xmlns="http://www.w3.org/2000/svg">
<path d="M6.46397 0.525057C6.22435 0.593186 6.05755 0.710648 5.92834 0.905637C5.77799 1.13351 5.73335 1.42952 5.81088 1.69734C5.85552 1.85004 6.01761 2.07557 6.14447 2.16249C6.33946 2.2964 6.45458 2.33398 6.6942 2.33398C6.87509 2.33398 6.93852 2.32224 7.03484 2.27995C7.22043 2.19538 7.3285 2.10846 7.43891 1.96045C7.796 1.47651 7.58692 0.76938 7.02545 0.557947C6.85395 0.494517 6.62372 0.480421 6.46397 0.525057ZM6.93617 0.900938C7.33085 1.08888 7.37548 1.6433 7.01605 1.88997C6.73179 2.08496 6.35121 1.98864 6.19381 1.68324C6.02936 1.36374 6.17501 0.999607 6.51801 0.870398C6.61667 0.83281 6.83046 0.849255 6.93617 0.900938Z" fill="#F2B153" stroke="#F2B153" stroke-width="0.2"/>
<path d="M4.85905 1.574C4.33047 1.77134 3.73611 2.11668 3.31324 2.47142C3.11355 2.64057 2.78936 2.96711 2.62021 3.1715C2.43697 3.38998 2.12217 3.88097 1.98356 4.16053C1.83321 4.46594 1.66406 4.90995 1.66406 5.00157C1.66406 5.09084 1.74394 5.16602 1.83791 5.16602C1.94362 5.16602 1.97651 5.12138 2.06344 4.87236C2.343 4.06421 2.91387 3.25137 3.59045 2.6993C3.97338 2.38685 4.59593 2.03681 5.05874 1.87706C5.17385 1.83712 5.28896 1.78779 5.31011 1.76664C5.36884 1.71261 5.36414 1.58575 5.30071 1.52467C5.22788 1.45889 5.14331 1.46829 4.85905 1.574Z" fill="#F2B153" stroke="#F2B153" stroke-width="0.2"/>
<path d="M8.08972 1.52467C8.02629 1.58575 8.0216 1.71261 8.08033 1.76664C8.10147 1.78779 8.21658 1.83712 8.3317 1.87706C8.7945 2.03681 9.41705 2.38685 9.79998 2.6993C10.4766 3.25137 11.0474 4.06421 11.327 4.87236C11.4139 5.12138 11.4468 5.16602 11.5525 5.16602C11.6465 5.16602 11.7264 5.09084 11.7264 5.00157C11.7264 4.90995 11.5572 4.46594 11.4069 4.16053C11.2683 3.88097 10.9535 3.38998 10.7702 3.1715C10.1759 2.45732 9.37242 1.8841 8.52199 1.57165C8.23303 1.46594 8.16255 1.45654 8.08972 1.52467Z" fill="#F2B153" stroke="#F2B153" stroke-width="0.2"/>
<path d="M6.28621 3.13625C5.59788 3.24197 5.2032 3.96789 5.49686 4.58809C5.54384 4.68206 5.57438 4.79953 5.59083 4.92874C5.62137 5.15896 5.6942 5.33516 5.8422 5.5231L5.94557 5.65466V5.88723C5.94557 6.09867 5.94087 6.12451 5.89388 6.17149C5.86334 6.19734 5.66366 6.28896 5.44987 6.37118C5.23609 6.45575 5.00821 6.54972 4.94478 6.58261C4.69106 6.71182 4.51252 6.97024 4.46554 7.27095C4.44909 7.36961 4.44204 7.7455 4.44674 8.22474C4.45379 9.0047 4.45379 9.01879 4.50547 9.06813C4.56655 9.13156 4.68637 9.13625 4.74275 9.07987C4.77799 9.04463 4.78503 8.94831 4.79443 8.14252C4.80618 7.27799 4.80853 7.24275 4.85786 7.14878C4.93539 7.00313 5.07164 6.89506 5.27838 6.81754C5.3794 6.7776 5.518 6.72357 5.58378 6.69773L5.70359 6.65074L5.79991 6.78465C6.24157 7.39076 7.18128 7.38606 7.60179 6.77525L7.68871 6.64839L7.81088 6.69773C7.87666 6.72357 8.01526 6.7776 8.11628 6.81754C8.32301 6.89506 8.45927 7.00313 8.5368 7.14878C8.58613 7.24275 8.58848 7.27799 8.60023 8.14252C8.60962 8.94831 8.61667 9.04463 8.65191 9.07987C8.70829 9.13625 8.8281 9.13156 8.88918 9.06813C8.94087 9.01879 8.94087 9.0047 8.94792 8.22474C8.95261 7.7455 8.94557 7.36961 8.92912 7.27095C8.88214 6.97024 8.70359 6.71182 8.44987 6.58261C8.38644 6.54972 8.15857 6.45575 7.94478 6.37118C7.731 6.28896 7.53131 6.19734 7.50312 6.17149C7.45379 6.12451 7.44909 6.09867 7.44909 5.88723V5.65466L7.55246 5.5231C7.70046 5.33516 7.77329 5.15896 7.80383 4.92874C7.82027 4.79953 7.85081 4.68206 7.8978 4.58809C8.11628 4.12999 7.95653 3.56852 7.53131 3.29835C7.31518 3.1621 7.22121 3.14095 6.76781 3.1339C6.54228 3.12921 6.32615 3.13156 6.28621 3.13625ZM7.23766 3.53563C7.45849 3.63665 7.59944 3.81754 7.63468 4.04072C7.67227 4.26625 7.66052 4.27329 7.32928 4.21456C7.0967 4.17463 6.83828 4.0924 6.54228 3.96554C6.3238 3.87157 6.28151 3.86922 6.19929 3.9397C6.14995 3.98199 6.1429 4.1065 6.18754 4.16288C6.20164 4.18402 6.29796 4.23806 6.39662 4.28269C6.72552 4.43069 6.97689 4.50822 7.4209 4.59279C7.46319 4.60219 7.47258 4.61863 7.47258 4.69146C7.47258 5.0603 7.31988 5.33986 7.03797 5.49021C6.9346 5.54659 6.89467 5.55364 6.69733 5.55364C6.49999 5.55364 6.46005 5.54659 6.35669 5.49021C6.04424 5.32341 5.92207 5.06734 5.92207 4.5693C5.92207 4.35552 5.89153 4.27329 5.81166 4.27329C5.75998 4.27329 5.73883 4.17697 5.75763 4.04542C5.79991 3.7776 5.97846 3.58026 6.25097 3.50509C6.32145 3.48629 6.48355 3.4769 6.74431 3.48159C7.07791 3.48629 7.14604 3.49334 7.23766 3.53563ZM6.69733 5.90603C6.81949 5.90603 6.96045 5.89663 7.00978 5.88488L7.0967 5.86609V6.02114C7.0967 6.20438 7.15308 6.33359 7.27994 6.4534L7.36452 6.52858L7.22356 6.66719C7.05911 6.82459 6.91346 6.88567 6.69733 6.88567C6.4812 6.88567 6.33554 6.82459 6.1711 6.66719L6.03014 6.52858L6.11471 6.4534C6.24157 6.33359 6.29796 6.20438 6.29796 6.02114V5.86609L6.38723 5.88488C6.43421 5.89663 6.57517 5.90603 6.69733 5.90603Z" fill="#F2B153" stroke="#F2B153" stroke-width="0.2"/>
<path d="M1.49171 5.59359C1.31552 5.61708 1.23564 5.64762 1.09704 5.73924C0.831569 5.91544 0.695312 6.17385 0.695312 6.5051C0.695312 6.83399 0.831569 7.09476 1.09469 7.26861C1.32491 7.42131 1.62092 7.46594 1.88873 7.38842C2.04144 7.34378 2.26696 7.18168 2.35389 7.05482C2.4878 6.85984 2.52303 6.74472 2.52538 6.5051C2.52538 6.30306 2.51834 6.26782 2.45021 6.12217C2.27401 5.75099 1.88639 5.53721 1.49171 5.59359ZM1.91693 6.0235C2.28811 6.23963 2.26462 6.8058 1.87464 7.00549C1.48466 7.20753 1.04535 6.94206 1.04535 6.5051C1.04535 6.04934 1.5152 5.78858 1.91693 6.0235Z" fill="#F2B153" stroke="#F2B153" stroke-width="0.2"/>
<path d="M11.6424 5.59273C11.3488 5.63031 11.0786 5.8347 10.9424 6.12131C10.8742 6.26696 10.8672 6.3022 10.8672 6.50424C10.8672 6.68513 10.8789 6.74856 10.9212 6.84488C11.0058 7.03047 11.0927 7.13854 11.2407 7.24895C11.7247 7.60604 12.4247 7.3993 12.6456 6.83548C12.6832 6.73681 12.6973 6.65459 12.6973 6.50424C12.6973 6.17299 12.561 5.91457 12.2955 5.73838C12.0982 5.60917 11.8891 5.56219 11.6424 5.59273ZM12.0512 5.9968C12.2392 6.09547 12.3472 6.28106 12.3472 6.50424C12.3472 6.83313 12.1076 7.07041 11.7787 7.07041C11.3276 7.07041 11.0551 6.56532 11.3065 6.18944C11.4615 5.95216 11.7975 5.86524 12.0512 5.9968Z" fill="#F2B153" stroke="#F2B153" stroke-width="0.2"/>
<path d="M5.25951 7.69989L5.20312 7.74453V8.66309C5.20312 9.57695 5.20312 9.58164 5.25481 9.63098C5.31824 9.69441 5.431 9.69911 5.49678 9.64038C5.54142 9.59809 5.54377 9.5699 5.54377 8.67248C5.54377 7.77977 5.54142 7.74688 5.49678 7.70224C5.43805 7.64351 5.32998 7.64116 5.25951 7.69989Z" fill="#F2B153" stroke="#F2B153" stroke-width="0.2"/>
<path d="M7.89074 7.70224C7.8461 7.74688 7.84375 7.77977 7.84375 8.67248C7.84375 9.5699 7.8461 9.59809 7.89074 9.64038C7.95651 9.69911 8.06928 9.69441 8.13271 9.63098C8.18439 9.58164 8.18439 9.57695 8.18439 8.66309V7.74453L8.12801 7.69989C8.05753 7.64116 7.94947 7.64351 7.89074 7.70224Z" fill="#F2B153" stroke="#F2B153" stroke-width="0.2"/>
<path d="M1.7153 7.89655C1.64717 7.96938 1.65657 8.03986 1.76228 8.32882C1.95727 8.8574 2.30261 9.45411 2.66205 9.88403C2.8312 10.0837 3.15774 10.4079 3.36213 10.5771C3.58061 10.7603 4.0716 11.0751 4.35116 11.2137C4.66362 11.3688 5.10058 11.5332 5.19455 11.5332C5.28617 11.5332 5.35665 11.458 5.35665 11.3617C5.35665 11.2536 5.31201 11.2208 5.06299 11.1338C4.25484 10.8543 3.442 10.2834 2.88993 9.60681C2.57748 9.22388 2.22744 8.60133 2.06769 8.13853C2.02775 8.02341 1.97842 7.9083 1.95727 7.88716C1.90324 7.82843 1.77638 7.83312 1.7153 7.89655Z" fill="#F2B153" stroke="#F2B153" stroke-width="0.2"/>
<path d="M11.4306 7.88716C11.4095 7.9083 11.3601 8.02341 11.3202 8.13853C11.1605 8.60133 10.8104 9.22388 10.498 9.60681C9.94589 10.2834 9.13305 10.8543 8.32491 11.1338C8.07589 11.2208 8.03125 11.2536 8.03125 11.3617C8.03125 11.458 8.10173 11.5332 8.19335 11.5332C8.28732 11.5332 8.72428 11.3688 9.03673 11.2137C9.31629 11.0751 9.80729 10.7603 10.0258 10.5771C10.7399 9.98269 11.3132 9.17925 11.6256 8.32882C11.7313 8.03986 11.7407 7.96938 11.6726 7.89655C11.6115 7.83312 11.4847 7.82843 11.4306 7.88716Z" fill="#F2B153" stroke="#F2B153" stroke-width="0.2"/>
<path d="M6.47666 10.6864C6.26522 10.7404 6.07493 10.872 5.94103 11.0599C5.59569 11.5415 5.80712 12.2345 6.36389 12.453C6.54713 12.5235 6.84314 12.5235 7.02638 12.453C7.38582 12.312 7.6137 11.9761 7.6137 11.5885C7.6137 11.3794 7.55966 11.2102 7.43985 11.0481C7.26601 10.8109 7.03343 10.6864 6.74447 10.6723C6.6458 10.6676 6.52599 10.6746 6.47666 10.6864ZM6.88543 11.0481C7.02168 11.0975 7.1368 11.1985 7.20023 11.3324C7.34353 11.6237 7.22842 11.9644 6.93711 12.11C6.81495 12.1711 6.57533 12.1711 6.45316 12.11C5.91049 11.8398 6.09373 11.0176 6.69514 11.0176C6.75387 11.0176 6.83844 11.0317 6.88543 11.0481Z" fill="#F2B153" stroke="#F2B153" stroke-width="0.2"/>
</svg>
