<svg width="13" height="10" viewBox="0 0 13 10" fill="none" xmlns="http://www.w3.org/2000/svg">
<path d="M6.43556 9.99596C4.57336 9.99596 2.71088 9.99682 0.848682 9.99538C0.409757 9.9951 0.116468 9.75966 0.0165948 9.33455C0.0036429 9.27957 0.000476876 9.22115 0.000476876 9.16445C-9.87642e-05 6.389 -9.87642e-05 3.61355 0.000189056 0.83839C0.000189056 0.35255 0.343558 0.00140923 0.826232 0.00140923C4.5558 -2.98693e-05 8.28509 -0.000605509 12.0147 0.000833591C12.5391 0.000833591 12.8695 0.340173 12.8695 0.868323C12.8701 3.63399 12.8689 6.39965 12.8709 9.16531C12.8712 9.60481 12.5379 10.0026 12.008 9.99999C10.1504 9.99164 8.29315 9.99682 6.43556 9.99682V9.99567V9.99596ZM12.0296 6.72546C12.0685 6.62098 12.0555 6.53032 12.0555 6.44196C12.0564 4.6379 12.0555 2.83385 12.0555 1.03008C12.0555 0.810183 12.0561 0.810471 11.8417 0.810471C8.23673 0.809896 4.6315 0.80932 1.02655 0.808744C0.815871 0.808744 0.81472 0.808744 0.81472 1.02144C0.81472 2.78233 0.815295 4.54321 0.816447 6.30409C0.816447 6.37317 0.825945 6.44225 0.83055 6.50729C0.877177 6.51449 0.886962 6.4883 0.901641 6.47131C1.16269 6.17256 1.4249 5.87466 1.68422 5.57418C2.39312 4.75188 3.098 3.92641 3.80977 3.10699C4.08234 2.79326 4.50572 2.80362 4.77167 3.12023C5.24225 3.68061 5.71025 4.2433 6.18026 4.80455C6.74554 5.47949 7.31254 6.15299 7.87609 6.82908C7.93942 6.90477 7.98029 6.93183 8.06404 6.84663C8.55679 6.34525 9.05616 5.8502 9.55121 5.35083C9.82895 5.07078 10.1608 5.04689 10.4578 5.30363C10.7149 5.52554 10.9618 5.75925 11.2137 5.9872C11.4822 6.23041 11.751 6.47362 12.0293 6.72517L12.0296 6.72546Z" fill="#66B821"/>
<path d="M9.70152 1.83984C10.3364 1.83984 10.8289 2.33259 10.8275 2.96637C10.826 3.58288 10.3189 4.08426 9.69893 4.08196C9.08386 4.07937 8.57758 3.57022 8.5796 2.95572C8.58161 2.33202 9.07637 1.83984 9.70152 1.84013V1.83984Z" fill="#66B821"/>
</svg>
