<svg width="15" height="16" viewBox="0 0 15 16" fill="none" xmlns="http://www.w3.org/2000/svg">
<path d="M3.73143 10.8418H0.860321C0.787978 10.8418 0.720156 10.8554 0.661377 10.8689C1.12708 11.8998 1.80078 12.8312 2.67341 13.5637C3.53249 14.2962 4.55885 14.8207 5.644 15.101C4.81205 13.8892 4.26496 12.5192 4.02532 11.0679C3.9982 10.8825 3.91228 10.8418 3.73143 10.8418Z" fill="#FF7F00"/>
<path d="M3.7432 10.1419V5.625H0.546549C0.460642 5.625 0.334042 5.7516 0.306914 5.83751C-0.100015 7.16229 -0.100015 8.58654 0.29335 9.91584C0.29335 9.95653 0.306912 9.98818 0.334041 10.0289C0.347605 10.056 0.374736 10.0831 0.406386 10.1148C0.433514 10.1419 0.478729 10.1555 0.505858 10.1555H3.57591C3.63017 10.1555 3.68894 10.1555 3.7432 10.1419Z" fill="#FF7F00"/>
<path d="M5.68414 0.648438C4.58543 0.915202 3.55907 1.43969 2.7 2.17216C1.84092 2.90463 1.14915 3.82248 0.715088 4.86694H3.96599C4.20563 3.34321 4.79794 1.9054 5.68414 0.648438Z" fill="#FF7F00"/>
<path d="M4.67505 4.84916H10.3088C10.1415 3.70524 9.76166 2.60653 9.16935 1.61633C8.95684 1.29079 8.70364 0.996896 8.40975 0.72561C8.18368 0.499538 7.87622 0.359375 7.55068 0.359375C7.22514 0.359375 6.91768 0.472411 6.67804 0.684919C6.3525 0.951683 6.05861 1.27722 5.81897 1.6299C5.24023 2.61557 4.86043 3.70524 4.67957 4.83107V4.84464L4.67505 4.84916Z" fill="#FF7F00"/>
<path d="M4.56247 5.83545C4.54891 6.17455 4.47656 6.5001 4.47656 6.83921C4.47656 7.92435 4.49013 9.02758 4.50369 10.1127V10.0992H4.61673C4.61673 10.0992 4.64385 10.1263 4.67098 10.1399H10.2776C10.3499 10.1399 10.4765 10.0133 10.4765 9.94091C10.6302 8.57091 10.6302 7.17379 10.4765 5.80832C10.4629 5.76763 10.4358 5.72241 10.3906 5.68172C10.3499 5.65459 10.3047 5.62746 10.264 5.60938H4.78402C4.61672 5.60938 4.57151 5.68172 4.55794 5.83545H4.56247Z" fill="#FF7F00"/>
<path d="M12.3082 2.19625C11.4492 1.46378 10.4228 0.925729 9.33765 0.631836V0.731308C10.1832 1.91592 10.7302 3.28592 10.9563 4.72373C10.9834 4.89103 11.0694 4.94981 11.2366 4.93624H14.1078C14.1801 4.93624 14.2479 4.92268 14.3203 4.89555C13.8546 3.8511 13.1673 2.93325 12.3082 2.20077V2.19625Z" fill="#FF7F00"/>
<path d="M11.236 5.59303V10.1099L11.2224 10.1371H14.4191C14.6316 10.1371 14.6587 10.0105 14.6994 9.8703C15.0792 8.55909 15.0792 7.16197 14.6994 5.85075C14.6451 5.66537 14.5728 5.58398 14.3603 5.58398H11.4304C11.3445 5.58398 11.2631 5.58398 11.2315 5.59755L11.236 5.59303Z" fill="#FF7F00"/>
<path d="M4.67505 10.8828C4.81521 11.8278 5.09554 12.7321 5.52055 13.5912C5.73306 13.9845 5.9727 14.3553 6.23946 14.6899C6.4791 15.0154 6.83177 15.255 7.22514 15.3409C7.51903 15.3816 7.81744 15.3409 8.08421 15.2279C8.35097 15.1149 8.59061 14.9159 8.74434 14.6763C9.57628 13.5595 10.1098 12.2618 10.2952 10.8828H4.67505Z" fill="#FF7F00"/>
<path d="M10.3882 13.0848C10.1079 13.7901 9.74168 14.4412 9.41614 15.0742C10.4877 14.7939 11.487 14.2694 12.3325 13.5505C13.178 12.8316 13.8381 11.9137 14.2767 10.8828H11.0529C10.8268 11.6288 10.6595 12.3794 10.3928 13.0848H10.3882Z" fill="#FF7F00"/>
</svg>
