<svg width="17" height="24" viewBox="0 0 17 24" fill="none" xmlns="http://www.w3.org/2000/svg">
<path d="M12.7428 8.08461C12.7428 9.69431 12.7481 11.0024 12.7403 12.3105C12.7364 12.9611 12.5521 13.5678 12.2534 14.1451C11.8771 14.8729 11.3237 15.44 10.6501 15.8853C10.0982 16.2504 9.47741 16.4474 8.81896 16.5457C8.20206 16.6376 7.60619 16.5779 7.00933 16.421C6.02044 16.1615 5.22316 15.6223 4.59258 14.8221C4.25236 14.39 3.99817 13.9124 3.83637 13.3913C3.71172 12.991 3.62128 12.5764 3.62079 12.1536C3.61737 9.59166 3.61786 7.02973 3.62079 4.46829C3.62079 4.11144 3.70096 3.76438 3.78162 3.4178C3.88281 2.98177 4.06807 2.58191 4.29831 2.20209C4.62875 1.65803 5.04865 1.19756 5.57512 0.831917C5.89334 0.610968 6.22868 0.421303 6.5909 0.292254C7.30458 0.0385533 8.0344 -0.0684993 8.79696 0.0453969C9.211 0.107478 9.61037 0.209153 9.98872 0.369488C10.4932 0.582616 10.9468 0.885687 11.3442 1.27039C11.7988 1.71034 12.1464 2.22409 12.3923 2.79993C12.5643 3.20321 12.689 3.62702 12.712 4.07332C12.7863 5.51046 12.7144 6.94859 12.7428 8.08413V8.08461ZM4.95529 8.31192C4.95529 9.64152 4.95822 10.9711 4.95284 12.3007C4.95187 12.5378 5.01981 12.7592 5.07994 12.9797C5.15668 13.2608 5.28427 13.5267 5.44509 13.7745C5.73594 14.2213 6.11087 14.5821 6.57134 14.8456C7.01911 15.1017 7.50207 15.2351 8.02609 15.2537C8.65472 15.2757 9.23691 15.1384 9.7707 14.8231C10.3891 14.4579 10.8525 13.9437 11.1091 13.2637C11.246 12.901 11.3457 12.529 11.3452 12.1345C11.3423 9.56233 11.3477 6.99014 11.3413 4.41794C11.3398 3.78882 11.1335 3.20663 10.763 2.70803C10.2502 2.01781 9.5742 1.56564 8.70213 1.41851C7.74599 1.25719 6.90277 1.4845 6.14704 2.07158C5.77309 2.36243 5.48615 2.72905 5.2784 3.15335C5.08336 3.55223 4.95382 3.97017 4.9548 4.42185C4.95675 5.7187 4.95529 7.01604 4.95529 8.3129V8.31192Z" fill="#A8A8A8"/>
<path d="M8.04415 24.0001C6.9091 24.0001 5.77405 24.0006 4.63949 24.0001C4.26602 24.0001 4.01086 23.7493 3.95171 23.4022C3.89745 23.0825 4.0744 22.78 4.39654 22.6499C4.50359 22.6069 4.62726 22.6011 4.74752 22.6015C5.57314 22.6035 6.39828 22.5996 7.2239 22.605C7.35344 22.6059 7.38619 22.5698 7.38522 22.4417C7.3813 21.6224 7.38375 20.8027 7.39059 19.9834C7.39157 19.8411 7.34269 19.7947 7.20093 19.7962C6.87537 19.7996 6.5635 19.7018 6.24723 19.6402C5.95736 19.5835 5.67482 19.499 5.39716 19.4032C5.13564 19.3127 4.87852 19.2037 4.63069 19.08C4.30708 18.9187 3.98495 18.7501 3.67894 18.557C3.0728 18.1747 2.539 17.702 2.05995 17.1702C1.66743 16.7347 1.33503 16.2537 1.04515 15.7443C0.833981 15.3738 0.661915 14.9856 0.510868 14.5843C0.359332 14.182 0.240059 13.7714 0.15647 13.3544C0.0982996 13.0616 0.0239982 12.7654 0.032797 12.4599C0.0391517 12.2433 -0.00533135 12.0287 0.000534551 11.8107C0.0137328 11.3126 0.439988 11.0462 0.795853 11.0995C1.13999 11.1513 1.40444 11.4495 1.40151 11.798C1.39662 12.3132 1.47874 12.8148 1.58579 13.3183C1.70605 13.8829 1.89815 14.4181 2.16359 14.9231C2.53803 15.6358 3.03956 16.2571 3.63837 16.7982C4.05241 17.1722 4.50897 17.4889 5.00219 17.746C5.44214 17.9758 5.90505 18.1474 6.38801 18.2798C7.0533 18.4622 7.72642 18.515 8.40735 18.4915C8.73975 18.4798 9.07166 18.4465 9.40357 18.3825C9.8005 18.3057 10.1891 18.2026 10.5616 18.0599C11.09 17.8575 11.5872 17.5847 12.0496 17.2513C12.7203 16.7669 13.2922 16.1852 13.7497 15.4989C14.1002 14.9734 14.3529 14.3995 14.548 13.7949C14.7611 13.1354 14.8246 12.4604 14.8647 11.777C14.8916 11.3195 15.183 11.0961 15.5584 11.0951C15.9553 11.0941 16.251 11.3498 16.2574 11.8049C16.2647 12.3064 16.2022 12.803 16.1122 13.2987C16.0369 13.7123 15.9372 14.1204 15.7911 14.5086C15.2783 15.8719 14.4849 17.0441 13.3508 17.9777C12.8669 18.3761 12.3429 18.7095 11.7871 18.9911C11.2763 19.2497 10.7395 19.455 10.1828 19.5879C9.75015 19.6911 9.31412 19.804 8.86244 19.7981C8.76468 19.7967 8.73291 19.8387 8.73339 19.936C8.73633 20.7826 8.73779 21.6293 8.73193 22.4759C8.73095 22.5991 8.78863 22.6015 8.87955 22.6015C9.70518 22.6001 10.5303 22.6015 11.3559 22.6015C11.5935 22.6015 11.813 22.646 11.9851 22.8323C12.1376 22.997 12.2217 23.3851 12.1122 23.5899C11.9841 23.8285 11.7876 23.9981 11.4977 23.9986C10.3465 24.0015 9.19533 23.9996 8.04415 23.9996V24.0001Z" fill="#A8A8A8"/>
</svg>
