<svg width="15" height="13" viewBox="0 0 15 13" fill="none" xmlns="http://www.w3.org/2000/svg">
<path d="M9.97508 2.91488C9.14317 2.51378 8.23441 2.29719 7.31101 2.27993C6.38762 2.26267 5.4714 2.44515 4.62508 2.81488C2.85102 3.60204 1.29096 4.80209 0.0750809 6.31488C0.0514285 6.33643 0.0325319 6.36269 0.0196037 6.39196C0.00667552 6.42123 0 6.45288 0 6.48488C0 6.51688 0.00667552 6.54853 0.0196037 6.5778C0.0325319 6.60708 0.0514285 6.63333 0.0750809 6.65488C1.10351 7.92506 2.37068 8.9816 3.80508 9.76488C4.75418 10.3038 5.8153 10.6152 6.90508 10.6749V10.6749C7.73593 10.6904 8.56269 10.5549 9.34508 10.2749C11.2655 9.51039 12.9517 8.25524 14.2351 6.63488C14.2569 6.61432 14.2742 6.58952 14.2861 6.562C14.298 6.53449 14.3041 6.50484 14.3041 6.47488C14.3041 6.44492 14.298 6.41527 14.2861 6.38776C14.2742 6.36025 14.2569 6.33545 14.2351 6.31488C13.0877 4.87674 11.6318 3.71479 9.97508 2.91488V2.91488ZM13.6351 6.30488L13.7951 6.48488L13.4251 6.86488L13.0151 7.29488C12.0701 8.24485 10.9669 9.02312 9.75508 9.59488C8.95473 9.97515 8.08114 10.1765 7.19508 10.1849H7.03508C6.05259 10.1418 5.09231 9.87862 4.22508 9.41488C2.9189 8.72184 1.74984 7.79675 0.775082 6.68488C0.744143 6.65758 0.720149 6.6233 0.705082 6.58488L0.615082 6.43488L0.735081 6.30488C1.26634 5.70518 1.8522 5.15615 2.48508 4.66488C3.32825 3.98148 4.28197 3.44712 5.30508 3.08488C6.77411 2.58815 8.37952 2.68872 9.77508 3.36488C11.1335 4.00545 12.3558 4.90179 13.3751 6.00488L13.6351 6.30488Z" fill="black"/>
<path d="M7.18703 4.25488C6.89204 4.25513 6.59993 4.31288 6.32703 4.42488C6.05665 4.53837 5.81181 4.70499 5.60703 4.91488C5.39809 5.11839 5.23452 5.36375 5.12703 5.63488C5.01502 5.90778 4.95728 6.19989 4.95703 6.49488C4.96492 7.0811 5.20334 7.64063 5.6207 8.05237C6.03805 8.46411 6.60076 8.69494 7.18703 8.69488V8.69488C7.48187 8.69257 7.77315 8.63019 8.04309 8.51156C8.31302 8.39292 8.55594 8.22052 8.75703 8.00488C8.95684 7.80177 9.11448 7.56113 9.22089 7.29683C9.3273 7.03252 9.38036 6.74978 9.37703 6.46488C9.37706 5.8822 9.14696 5.32309 8.73682 4.90921C8.32668 4.49532 7.76969 4.26016 7.18703 4.25488V4.25488ZM8.91703 6.49488C8.91881 6.85214 8.81057 7.20128 8.60703 7.49488C8.41492 7.77727 8.14352 7.99648 7.82703 8.12488C7.61951 8.20422 7.39921 8.24489 7.17703 8.24488H6.82703C6.49377 8.17249 6.18833 8.00588 5.94703 7.76488C5.71026 7.51798 5.54743 7.20965 5.47703 6.87488C5.41322 6.53804 5.45152 6.1898 5.58703 5.87488C5.71603 5.55846 5.93953 5.28956 6.22703 5.10488C6.46507 4.94728 6.73804 4.85031 7.02216 4.82242C7.30627 4.79454 7.59289 4.83658 7.85703 4.94488C8.06855 5.03495 8.2592 5.16772 8.41703 5.33488C8.57515 5.49609 8.70076 5.68621 8.78703 5.89488C8.86558 6.0856 8.9096 6.28876 8.91703 6.49488Z" fill="black"/>
<path d="M13.1363 0.0648467L0.766289 12.4248C0.735147 12.4555 0.710418 12.4921 0.693539 12.5325C0.67666 12.5728 0.667969 12.6161 0.667969 12.6598C0.667969 12.7036 0.67666 12.7469 0.693539 12.7872C0.710418 12.8276 0.735147 12.8641 0.766289 12.8948C0.830662 12.9532 0.914424 12.9855 1.00129 12.9855C1.08815 12.9855 1.17192 12.9532 1.23629 12.8948L13.5963 0.524848C13.6271 0.495009 13.6517 0.459269 13.6684 0.419757C13.6852 0.380244 13.6938 0.337765 13.6938 0.294848C13.6938 0.251931 13.6852 0.209451 13.6684 0.169938C13.6517 0.130425 13.6271 0.0946858 13.5963 0.0648467C13.5337 0.0166689 13.4547 -0.00488979 13.3763 0.00484724C13.3343 -0.0027905 13.2912 -0.00138888 13.2498 0.00895758C13.2084 0.019304 13.1697 0.0383568 13.1363 0.0648467V0.0648467Z" fill="black"/>
</svg>
