<svg width="97" height="96" viewBox="0 0 97 96" fill="none" xmlns="http://www.w3.org/2000/svg">
<path opacity="0.9" fill-rule="evenodd" clip-rule="evenodd" d="M53.0287 7.28746L48.7362 7.0625L44.4437 7.28746L40.1983 7.95988L36.0463 9.07238L32.0335 10.6128L28.2036 12.5642L24.5986 14.9053L21.2582 17.6103L18.2187 20.6498L15.5137 23.9902L13.1726 27.5952L11.2212 31.4251L9.68078 35.438L8.56828 39.5899L7.89586 43.8353L7.6709 48.1278L7.89586 52.4203L8.56828 56.6658L9.68078 60.8177L11.2212 64.8306L13.1726 68.6605L15.5137 72.2654L18.2187 75.6059L21.2582 78.6453L24.5986 81.3504L28.2036 83.6915L32.0335 85.6429L36.0463 87.1833L40.1983 88.2958L44.4437 88.9682L48.7362 89.1932L53.0287 88.9682L57.2742 88.2958L61.4261 87.1833L65.439 85.6429L69.2689 83.6915L72.8738 81.3504L76.2143 78.6453L79.2537 75.6059L81.9588 72.2654L84.2999 68.6605L86.2513 64.8306L87.7917 60.8177L88.9042 56.6658L89.5766 52.4203L89.8016 48.1278L89.5766 43.8353L88.9042 39.5899L87.7917 35.438L86.2513 31.4251L84.2999 27.5952L81.9588 23.9902L79.2537 20.6498L76.2143 17.6103L72.8738 14.9053L69.2689 12.5642L65.439 10.6128L61.4261 9.07238L57.2742 7.95988L53.0287 7.28746ZM52.9241 8.28335L48.7362 8.06387L44.5484 8.28335L40.4065 8.93937L36.3558 10.0247L32.4408 11.5276L28.7043 13.4314L25.1872 15.7154L21.9282 18.3545L18.9629 21.3198L16.3238 24.5788L14.0398 28.0959L12.136 31.8324L10.6331 35.7474L9.54776 39.7981L8.89175 43.94L8.67227 48.1278L8.89175 52.3157L9.54776 56.4576L10.6331 60.5083L12.136 64.4233L14.0398 68.1598L16.3238 71.6769L18.9629 74.9359L21.9282 77.9012L25.1872 80.5403L28.7042 82.8242L32.4408 84.7281L36.3558 86.2309L40.4065 87.3163L44.5484 87.9723L48.7362 88.1918L52.9241 87.9723L57.066 87.3163L61.1167 86.2309L65.0317 84.7281L68.7682 82.8242L72.2853 80.5403L75.5442 77.9012L78.5096 74.9358L81.1487 71.6769L83.4326 68.1598L85.3365 64.4233L86.8393 60.5083L87.9247 56.4576L88.5807 52.3157L88.8002 48.1278L88.5807 43.94L87.9247 39.7981L86.8393 35.7474L85.3365 31.8324L83.4326 28.0958L81.1487 24.5788L78.5096 21.3198L75.5443 18.3545L72.2853 15.7154L68.7682 13.4314L65.0317 11.5276L61.1167 10.0247L57.066 8.93937L52.9241 8.28335Z" fill="#C11D2A"/>
<circle cx="48.6373" cy="48.0679" r="47.2945" stroke="#C11D2A" stroke-dasharray="5 5"/>
</svg>
