<svg width="15" height="15" viewBox="0 0 15 15" fill="none" xmlns="http://www.w3.org/2000/svg">
<path d="M14.0399 8.81913C14.0398 8.81924 14.0398 8.81938 14.0398 8.81953C14.0398 10.1637 14.0418 11.5076 14.0391 12.8518C14.0378 13.5645 13.7688 14.1515 13.1956 14.5875C12.8521 14.8488 12.4584 14.9923 12.0314 14.9936C9.51022 15.0007 6.98869 15.003 4.4675 14.9946C3.38417 14.991 2.47859 14.0539 2.46685 12.9514C2.46115 12.4161 2.46518 11.8805 2.46384 11.3452C2.46316 11.1312 2.46149 11.1322 2.23945 11.1325C1.732 11.1335 1.2242 11.1349 0.716746 11.1335C0.259598 11.1325 0.00201239 10.8743 0.00167699 10.4181C0 9.24693 0 8.07572 0 6.90451C0 6.44501 0.255238 6.18877 0.713057 6.18877C1.23728 6.18877 1.76185 6.18508 2.28607 6.19246C2.42694 6.19447 2.46451 6.14617 2.46417 6.01C2.45948 4.70497 2.45914 3.39993 2.46182 2.09456C2.46384 1.10111 3.10545 0.291127 4.07039 0.0570194C4.21629 0.0214672 4.36454 0.00167871 4.51614 0.00201411C6.13376 0.0033557 7.75139 0.0040265 9.36901 1.72299e-06C9.51022 -0.000333675 9.61117 0.0482991 9.70743 0.144558C11.1017 1.54116 12.4969 2.93641 13.8945 4.32966C14.0015 4.43631 14.0438 4.55404 14.0435 4.70296C14.0408 6.07467 14.0418 7.44639 14.0418 8.81778C14.0418 8.81843 14.0413 8.81896 14.0406 8.81896H14.0403C14.0402 8.81896 14.04 8.81902 14.0399 8.81913ZM13.5721 8.93286C13.572 8.93254 13.5717 8.93233 13.5713 8.93233C13.5709 8.93233 13.5705 8.93198 13.5705 8.93155C13.5705 7.62644 13.5672 6.32133 13.5746 5.01622C13.5756 4.84852 13.5229 4.81431 13.367 4.81498C12.2457 4.82135 11.1242 4.82034 10.0029 4.818C9.50787 4.81699 9.22513 4.52922 9.22513 4.03753C9.22479 2.91059 9.22311 1.78365 9.22513 0.657047C9.22513 0.53731 9.21909 0.466541 9.06011 0.467211C7.54277 0.473919 6.02509 0.467882 4.50775 0.472913C3.66355 0.475596 2.94513 1.18161 2.93809 2.02547C2.92736 3.34191 2.93239 4.65835 2.93239 5.97512C2.93239 6.18977 2.93675 6.18944 3.15576 6.18944C5.62731 6.18944 8.09886 6.18944 10.5704 6.18843C10.7002 6.18843 10.826 6.19648 10.9427 6.26122C11.1949 6.40074 11.2895 6.62378 11.2892 6.90048C11.2878 8.05526 11.2878 9.21004 11.2865 10.3648C11.2858 10.9021 11.05 11.1356 10.5097 11.1352C8.04386 11.1342 5.57767 11.1346 3.11182 11.1285C2.95989 11.1282 2.92534 11.1731 2.92769 11.317C2.93608 11.8523 2.92601 12.3879 2.93339 12.9236C2.94614 13.8422 3.64913 14.5301 4.56879 14.5305C7.02928 14.5311 9.48942 14.5305 11.9499 14.5305C12.0166 14.5305 12.0847 14.5321 12.1498 14.5204C13.0467 14.3611 13.5716 13.7322 13.5722 12.8159C13.5729 11.5217 13.5722 10.2278 13.5722 8.93353C13.5722 8.9334 13.5722 8.93327 13.5722 8.93315L13.5721 8.93286ZM4.62984 8.65965C4.62984 8.86022 4.62917 9.06078 4.62984 9.26135C4.63051 9.46762 4.6295 9.67356 4.63453 9.87983C4.63923 10.0794 4.70798 10.1512 4.90989 10.1542C5.16614 10.1582 5.42272 10.1595 5.67863 10.1471C6.13074 10.125 6.51377 9.80101 6.58554 9.35426C6.65531 8.91891 6.64893 8.47283 6.59628 8.03883C6.5292 7.4871 6.11833 7.1688 5.5666 7.16813C5.3771 7.16813 5.1876 7.16746 4.9981 7.16746C4.69524 7.16746 4.63185 7.22683 4.63051 7.52298C4.6285 7.90198 4.63017 8.28065 4.62984 8.65965ZM2.10127 8.63785C2.10127 8.63785 2.10228 8.6383 2.10228 8.63885C2.10227 9.05106 2.09859 9.4636 2.10395 9.8758C2.1063 10.0559 2.20524 10.1552 2.35114 10.1502C2.491 10.1451 2.57049 10.0499 2.57284 9.87278C2.57552 9.68865 2.57787 9.50452 2.56915 9.32072C2.56378 9.21037 2.59833 9.17449 2.71002 9.17885C2.90991 9.18689 3.11384 9.20467 3.30971 9.15839C3.81683 9.03865 4.14519 8.56641 4.08414 8.06163C4.02109 7.53808 3.60218 7.16947 3.06722 7.16746C2.85524 7.16679 2.64327 7.16679 2.4313 7.16679C2.19049 7.16679 2.10295 7.25299 2.10127 7.50018C2.09892 7.87929 2.1006 8.25807 2.1006 8.63718C2.1006 8.63755 2.1009 8.63785 2.10127 8.63785ZM7.19228 8.65663C7.19321 8.65663 7.19396 8.65738 7.19396 8.65831C7.19395 9.05922 7.19094 9.4598 7.1953 9.86071C7.19731 10.0502 7.29525 10.1559 7.44416 10.1512C7.58838 10.1465 7.66452 10.0492 7.66553 9.85668C7.6672 9.54443 7.67156 9.23217 7.66083 8.92025C7.65614 8.79012 7.70007 8.75993 7.82115 8.76262C8.122 8.76999 8.42319 8.76731 8.72404 8.76329C8.88738 8.76094 8.98666 8.66703 8.99102 8.52448C8.99538 8.38362 8.89979 8.29675 8.72471 8.29239C8.52985 8.28769 8.33397 8.29708 8.13944 8.28668C7.9865 8.27864 7.78761 8.36114 7.69236 8.24946C7.60147 8.14314 7.6776 7.94894 7.66418 7.79432C7.65312 7.66788 7.69873 7.63266 7.8245 7.63568C8.18673 7.64406 8.5493 7.64104 8.91153 7.63601C9.12786 7.63299 9.24693 7.45523 9.14832 7.29122C9.08728 7.1896 8.988 7.16545 8.87464 7.16612C8.42856 7.16847 7.98281 7.16713 7.53673 7.16713C7.27814 7.16713 7.19396 7.24661 7.19261 7.50286C7.1906 7.88745 7.19194 8.27204 7.19194 8.65629C7.19194 8.65648 7.19209 8.65663 7.19228 8.65663Z" fill="#FF2116"/>
<path d="M5.10205 8.65952C5.10205 8.36437 5.10641 8.06888 5.09971 7.77407C5.09736 7.66204 5.13794 7.62716 5.24527 7.63354C5.36735 7.64091 5.49044 7.63186 5.61286 7.63655C5.91506 7.64829 6.13743 7.86831 6.14346 8.17118C6.14984 8.49953 6.14917 8.82856 6.14414 9.15691C6.13978 9.44636 5.92948 9.66068 5.64238 9.68114C5.28194 9.70663 5.10172 9.53882 5.10172 9.17771C5.10172 9.00498 5.10172 8.83225 5.10205 8.65985V8.65952Z" fill="#FF2116"/>
<path d="M2.57332 8.1688C2.57343 8.16869 2.57349 8.16855 2.57349 8.16839C2.5735 8.04035 2.58187 7.9113 2.57114 7.78393C2.56075 7.6595 2.61173 7.62965 2.72509 7.63803C2.84148 7.64675 2.9592 7.63635 3.07625 7.64004C3.39958 7.64977 3.61256 7.86644 3.61189 8.18071C3.61121 8.49263 3.39287 8.7046 3.06854 8.70862C3.0464 8.70862 3.02393 8.70829 3.00146 8.70829C2.71525 8.70672 2.57237 8.56038 2.57282 8.26925C2.57282 8.23579 2.57282 8.20233 2.57315 8.1692C2.57316 8.16905 2.57322 8.16891 2.57332 8.1688Z" fill="#FF2116"/>
</svg>
