<svg width="15" height="9" viewBox="0 0 15 9" fill="none" xmlns="http://www.w3.org/2000/svg">
<path d="M12.1525 5.03391C12.0529 5.02891 11.9837 5.02183 11.9135 5.02183L1.02184 5.02183C0.526144 5.02183 0.233749 4.72188 0.334356 4.32188C0.369258 4.18907 0.452709 4.07248 0.569744 3.99326C0.686779 3.91404 0.829696 3.87741 0.97259 3.88987C1.53326 3.88987 2.09494 3.88987 2.65561 3.88987L11.9827 3.88987C12.0341 3.88987 12.0875 3.88391 12.1923 3.87791L11.6128 3.3209C10.7925 2.53757 9.9723 1.75382 9.15207 0.969825C9.05526 0.882183 8.9926 0.765665 8.97451 0.639503C8.95641 0.51334 8.98397 0.385098 9.05254 0.275855C9.11731 0.168181 9.21884 0.08496 9.34013 0.0400152C9.46141 -0.00492954 9.5951 -0.00883198 9.71905 0.0289068C9.84207 0.0707436 9.95333 0.13915 10.044 0.228858C11.1716 1.29886 12.2968 2.37185 13.4195 3.44785C13.6291 3.64785 13.8388 3.83682 14.0337 4.03782C14.0914 4.0862 14.1379 4.14556 14.1704 4.21201C14.2029 4.27846 14.2207 4.35061 14.2225 4.42393C14.2243 4.49724 14.2101 4.57011 14.1808 4.63792C14.1515 4.70573 14.1078 4.76697 14.0525 4.81785C13.4551 5.41785 12.8442 5.99786 12.2353 6.58286C11.4814 7.3062 10.7259 8.0279 9.96851 8.7479C9.9196 8.81349 9.85731 8.86895 9.78544 8.91111C9.71358 8.95327 9.63359 8.98123 9.55018 8.99326C9.46677 9.0053 9.38167 9.00117 9.29996 8.98118C9.21824 8.96118 9.14159 8.92578 9.07455 8.87693C9.00808 8.82668 8.95395 8.7631 8.91592 8.69077C8.87788 8.61845 8.85688 8.53911 8.85438 8.45823C8.85189 8.37734 8.86795 8.29684 8.90146 8.22251C8.93497 8.14818 8.98506 8.08183 9.04832 8.02793C9.46018 7.62793 9.87934 7.2379 10.2943 6.8419C10.8819 6.28056 11.4688 5.71822 12.055 5.15488C12.0875 5.12588 12.1064 5.09091 12.1525 5.03391Z" fill="#D13238"/>
</svg>
