<svg xmlns="http://www.w3.org/2000/svg" width="20.709" height="23.597" viewBox="0 0 20.709 23.597"><g transform="translate(-95.769 -17.048)"><g transform="translate(95.769 17.048)"><path d="M4641.188,1007.6q-3.894,0-7.787,0a2.488,2.488,0,0,1-2.049-.9,2.4,2.4,0,0,1,2-3.871c1.374.007,2.749,0,4.123.007.2,0,.289-.046.341-.254a3.457,3.457,0,0,1,6.732.053c.038.162.107.2.264.2,1.405-.006,2.811-.01,4.216,0a2.381,2.381,0,1,1,.29,4.753c-1.012.039-2.027.015-3.041.016Q4643.735,1007.6,4641.188,1007.6Zm0-1.173q3.85,0,7.7,0a2.593,2.593,0,0,0,.459-.034,1.257,1.257,0,0,0,.947-1.668,1.276,1.276,0,0,0-1.269-.779h-15.624a1.883,1.883,0,0,0-.321.023,1.238,1.238,0,0,0-.957,1.656,1.282,1.282,0,0,0,1.278.8Q4637.287,1006.428,4641.183,1006.427Zm2.146-3.606a2.177,2.177,0,0,0-2.191-1.7,2.248,2.248,0,0,0-2.158,1.7Z" transform="translate(-4630.858 -999.935)"/><path d="M4675.561,1198.122v-5.277a2.607,2.607,0,0,1,.01-.276.541.541,0,0,1,.574-.557.554.554,0,0,1,.588.574c.007.084,0,.169,0,.253v10.323a2.237,2.237,0,0,0,1.338,2.179,2.485,2.485,0,0,0,1.021.222q4.724.025,9.448.007a2.284,2.284,0,0,0,2.35-2.387q0-5.173,0-10.346a1.9,1.9,0,0,1,.018-.3.539.539,0,0,1,.58-.527.55.55,0,0,1,.578.535,1.618,1.618,0,0,1,.009.207q0,5.219,0,10.438a3.515,3.515,0,0,1-2.788,3.485,3.572,3.572,0,0,1-.754.077q-4.712.007-9.425,0a3.465,3.465,0,0,1-3.508-2.967,4.321,4.321,0,0,1-.041-.712Q4675.557,1200.6,4675.561,1198.122Z" transform="translate(-4673.5 -1183.161)"/><path d="M4842.009,1215.48q0-2.373,0-4.746a1.784,1.784,0,0,1,.017-.3.535.535,0,0,1,.585-.471.525.525,0,0,1,.558.5,2.172,2.172,0,0,1,.02.3q0,4.723,0,9.445a1.1,1.1,0,0,1-.146.537.522.522,0,0,1-.626.219.51.51,0,0,1-.393-.483,2.171,2.171,0,0,1-.011-.276Z" transform="translate(-4832.28 -1200.287)"/><path d="M4753.446,1215.493q0,2.407,0,4.815a.62.62,0,0,1-.761.658.473.473,0,0,1-.39-.4,2.542,2.542,0,0,1-.033-.365q0-4.723,0-9.446a1.781,1.781,0,0,1,.025-.3.525.525,0,0,1,.565-.487.531.531,0,0,1,.572.482,1.678,1.678,0,0,1,.021.3Q4753.447,1213.12,4753.446,1215.493Z" transform="translate(-4746.667 -1200.29)"/><path d="M4932.825,1215.465q0,2.419,0,4.838a.614.614,0,0,1-.765.647.476.476,0,0,1-.386-.409,2.559,2.559,0,0,1-.023-.367q0-4.711,0-9.422a2.36,2.36,0,0,1,.014-.276.533.533,0,0,1,.58-.523.539.539,0,0,1,.572.514,2.166,2.166,0,0,1,.009.276Q4932.826,1213.1,4932.825,1215.465Z" transform="translate(-4917.789 -1200.275)"/></g></g></svg>