<svg xmlns="http://www.w3.org/2000/svg" width="22.307" height="23.597" viewBox="0 0 22.307 23.597"><g transform="translate(-20.25 -17.048)"><path d="M1206.4,1348.4c-2.519,0-5.04,0-7.561,0a3.278,3.278,0,0,1-3.536-3.532c-.008-1.142,0-2.285,0-3.429,0-.452.057-.883.641-.875.564.006.663.423.663.879,0,1.213-.006,2.427,0,3.64a1.851,1.851,0,0,0,1.827,1.992q8.014.056,16.028,0a1.894,1.894,0,0,0,1.841-2.074c.025-1.166.006-2.334.008-3.5,0-.466.018-.95.655-.932.619.018.639.5.637.963,0,1.143.008,2.287,0,3.429a3.3,3.3,0,0,1-3.431,3.441C1211.582,1348.41,1208.992,1348.4,1206.4,1348.4Z" transform="translate(-1175.052 -1307.759)"/><path d="M5.285,14.749V1.145A1.46,1.46,0,0,1,5.313.526c.114-.22.334-.505.531-.525a.868.868,0,0,1,.635.4,1.545,1.545,0,0,1,.083.747q0,6.4,0,12.807v.794c.281-.258.462-.411.629-.578l3.416-3.412c.3-.3.645-.427.981-.1.364.356.224.716-.093,1.036l-.049.051Q8.973,14.22,6.5,16.7a.73.73,0,0,1-1.2-.01Q2.839,14.207.357,11.738c-.332-.331-.542-.7-.126-1.08s.763-.132,1.087.195q1.749,1.761,3.512,3.51C4.939,14.469,5.061,14.56,5.285,14.749Z" transform="translate(37.289 34.053) rotate(180)"/></g></svg>