<svg width="24" height="24" viewBox="0 0 24 24" fill="none" xmlns="http://www.w3.org/2000/svg">
<path d="M12.0037 0.00230106C15.1248 0.00230106 18.2466 0.000964961 21.3677 0.00230106C22.9276 0.00363716 24.0032 1.08053 24.0039 2.63776C24.0045 6.73758 24.0045 10.8374 24.0039 14.9379C24.0039 16.5292 22.943 17.6027 21.3624 17.6034C15.1195 17.6061 8.87722 17.6067 2.6343 17.6054C1.06973 17.6054 0.0075295 16.5365 0.00686145 14.9666C0.00552535 10.8554 0.00552535 6.74426 0.00686145 2.63375C0.00686145 1.06784 1.07574 0.000964961 2.63898 0.000296911C5.7601 -0.000371139 8.8819 0.000296911 12.003 0.000296911V0.00163301L12.0037 0.00230106ZM12.001 16.0061C15.1108 16.0061 18.2206 16.0061 21.3303 16.0061C22.0592 16.0061 22.4046 15.6587 22.4052 14.9225C22.4059 10.8347 22.4066 6.74626 22.4066 2.65847C22.4066 1.95033 22.0552 1.59961 21.3417 1.59961C15.1335 1.59961 8.92532 1.59961 2.71714 1.60094C1.93819 1.60094 1.60417 1.93497 1.60417 2.71458C1.60417 6.78033 1.60417 10.8461 1.60417 14.9118C1.60417 15.6587 1.95155 16.0048 2.70578 16.0048C5.8042 16.0048 8.90328 16.0048 12.0017 16.0054L12.001 16.0061Z" fill="#A8A8A8"/>
<path d="M7.22909 20.406C9.34013 20.406 11.4512 20.4034 13.5622 20.41C13.764 20.4107 13.8648 20.37 13.9483 20.1615C14.3792 19.0886 15.394 18.4059 16.5063 18.4072C17.6934 18.4086 18.6648 19.0566 19.1197 20.1749C19.1979 20.3666 19.2994 20.4114 19.4871 20.41C20.3756 20.4027 21.2648 20.406 22.1533 20.408C22.7058 20.4094 23.0619 20.72 23.0686 21.2017C23.0752 21.6793 22.7158 22.0013 22.1633 22.0033C21.2635 22.0067 20.3636 22.0087 19.4638 22.0027C19.2887 22.0013 19.1945 22.0381 19.1197 22.2218C18.6708 23.3274 17.8297 23.926 16.6473 23.9948C15.4975 24.0616 14.4687 23.4116 14.0058 22.3307C13.8829 22.0441 13.7332 21.9993 13.4633 22C9.27466 22.0073 5.08599 22.006 0.89732 22.004C0.209897 22.004 -0.198281 21.4054 0.0976647 20.8376C0.264009 20.5189 0.542586 20.4027 0.896652 20.4034C3.00769 20.408 5.11873 20.406 7.22976 20.4047L7.22909 20.406ZM15.3365 21.217C15.3392 21.8657 15.9017 22.4142 16.5557 22.4068C17.1937 22.3995 17.7382 21.8484 17.7362 21.211C17.7342 20.545 17.1944 20.0032 16.535 20.0059C15.8763 20.0085 15.3332 20.557 15.3365 21.217Z" fill="#A8A8A8"/>
<path d="M8.80642 8.76804C8.80642 7.4914 8.81042 6.21409 8.80374 4.93745C8.80174 4.59006 8.89193 4.29746 9.2019 4.11575C9.52524 3.92602 9.83454 3.99617 10.1392 4.1879C12.2048 5.48458 14.2731 6.77726 16.3413 8.0706C16.9673 8.46208 16.9666 9.14215 16.336 9.53697C14.2691 10.8323 12.2001 12.1243 10.1345 13.4217C9.82853 13.6141 9.51789 13.6782 9.19589 13.4912C8.89727 13.3175 8.80308 13.0335 8.80374 12.6995C8.80775 11.3895 8.80508 10.0788 8.80508 8.76871H8.80642V8.76804ZM10.4037 11.3607C11.802 10.4863 13.13 9.65588 14.4915 8.80412C13.1621 7.96972 11.8701 7.15804 10.5774 6.3477C10.3964 6.23413 10.4044 6.3644 10.4044 6.48532C10.4044 7.19612 10.4037 7.90626 10.4031 8.61707C10.4031 9.50357 10.4031 10.3907 10.4031 11.3607H10.4037Z" fill="#A8A8A8"/>
</svg>
