<svg width="40" height="40" viewBox="0 0 40 40" fill="none" xmlns="http://www.w3.org/2000/svg">
<path fill-rule="evenodd" clip-rule="evenodd" d="M19.9606 0.382812C16.0654 0.382813 12.2576 1.53788 9.01875 3.70197C5.77994 5.86605 3.25559 8.94194 1.7649 12.5407C0.274208 16.1394 -0.115862 20.0994 0.644013 23.9198C1.40389 27.7403 3.27958 31.2496 6.0339 34.004C8.78822 36.7584 12.2975 38.6343 16.1179 39.3943C19.9383 40.1543 23.8983 39.7644 27.4971 38.2738C31.0959 36.7833 34.1719 34.259 36.3361 31.0203C38.5003 27.7816 39.6555 23.9738 39.6556 20.0786C39.6445 14.8585 37.5659 9.85539 33.8748 6.16416C30.1837 2.47293 25.1807 0.394172 19.9606 0.382812Z" fill="#C11D2A"/>
<path fill-rule="evenodd" clip-rule="evenodd" d="M23.3396 7.40719C24.634 5.60357 26.5757 4.3227 30.0743 3.7298L30.0675 3.71094C8.4429 6.03279 17.6964 21.7607 17.7952 21.9614C16.177 20.2467 14.1844 18.9292 11.9731 18.1116C9.76168 17.2941 7.39129 16.9986 5.04688 17.2483C12.3994 18.9734 21.238 26.7529 11.6602 25.9511C15.5178 28.0579 21.4605 29.9596 23.9181 28.9775C30.6793 26.111 18.3255 14.3916 23.3426 7.40342" fill="#FFF200"/>
<path fill-rule="evenodd" clip-rule="evenodd" d="M13.5809 31.31L13.6412 32.8549L15.082 33.4712L13.6171 34.0188L13.4836 35.563L12.5127 34.3485L10.9965 34.7023L11.8459 33.3942L11.0546 32.0636L12.5474 32.4807L13.5809 31.31ZM31.2709 28.8365L31.7431 30.3286L30.6191 31.3847L32.1866 31.399L32.8436 32.7998L33.3415 31.3055L34.8788 31.1199L33.6116 30.1762L33.8967 28.6676L32.6226 29.5728L31.2709 28.8365ZM26.2621 31.4164L26.1678 32.962L24.7345 33.5655L26.1768 34.129L26.2937 35.6723L27.2744 34.4699L28.783 34.8403L27.9487 33.527L28.7559 32.2039L27.2563 32.5999L26.2621 31.4164ZM20.038 32.3359L19.4232 33.7526L17.8716 33.828L19.0347 34.8516L18.6183 36.3407L19.9535 35.5486L21.248 36.4123L20.913 34.8901L22.12 33.9215L20.5759 33.788L20.038 32.3359ZM6.02242 28.6562L6.3151 30.1906L5.07422 31.1078L6.62815 31.3062L7.1147 32.7742L7.78908 31.3507L9.33472 31.3462L8.18963 30.2562L8.64902 28.7935L7.27613 29.5433L6.02242 28.6562Z" fill="#FFF200"/>
</svg>
